%
M48
M72
T01C0.0320
T02C0.0400
T03C0.0520
T04C0.0630
T05C0.0984
T06C0.1260
%
T01
X6600Y3100
X7600Y3100
X8600Y3100
X12600Y4150
X12600Y5550
X12600Y7600
X8600Y8600
X8600Y9600
X7600Y9600
X5850Y10850
X6600Y11350
X5850Y11850
X2600Y12100
X2600Y13600
X6600Y13600
X7600Y13600
X8600Y13600
X12600Y11600
X6600Y7100
X6600Y6100
X7600Y6100
X8600Y6100
X4600Y8600
X2600Y8100
X2600Y7100
X6600Y22100
X7600Y22100
X8600Y22100
X12600Y23150
X12600Y24550
X12600Y26600
X8600Y27600
X8600Y28600
X7600Y28600
X6600Y30350
X5850Y29850
X5850Y30850
X6600Y32600
X7600Y32600
X8600Y32600
X12600Y30600
X6600Y26100
X6600Y25100
X7600Y25100
X8600Y25100
X4600Y27600
X2600Y27100
X2600Y26100
X2600Y31100
X2600Y32600
X6600Y41100
X7600Y41100
X8600Y41100
X12600Y42150
X12600Y43550
X12600Y45600
X8600Y46600
X8600Y47600
X7600Y47600
X6600Y49350
X5850Y49850
X5850Y48850
X2600Y50100
X2600Y51600
X6600Y51600
X7600Y51600
X8600Y51600
X12600Y49600
X6600Y45100
X6600Y44100
X7600Y44100
X8600Y44100
X4600Y46600
X2600Y46100
X2600Y45100
X6600Y60100
X7600Y60100
X8600Y60100
X12600Y61150
X12600Y62550
X12600Y64600
X8600Y65600
X8600Y66600
X7600Y66600
X5850Y67850
X6600Y68350
X5850Y68850
X2600Y69100
X2600Y70600
X6600Y70600
X7600Y70600
X8600Y70600
X12600Y68600
X6600Y64100
X6600Y63100
X7600Y63100
X8600Y63100
X4600Y65600
X2600Y65100
X2600Y64100
X27100Y64100
X27100Y65100
X29100Y65600
X31100Y64100
X31100Y63100
X32100Y63100
X33100Y63100
X33100Y65600
X33100Y66600
X32100Y66600
X30350Y67850
X31100Y68350
X30350Y68850
X27100Y69100
X27100Y70600
X31100Y70600
X32100Y70600
X33100Y70600
X37100Y68600
X37100Y64600
X37100Y62550
X37100Y61150
X33100Y60100
X32100Y60100
X31100Y60100
X31100Y51600
X32100Y51600
X33100Y51600
X31100Y49350
X30350Y49850
X30350Y48850
X32100Y47600
X33100Y47600
X33100Y46600
X31100Y45100
X31100Y44100
X32100Y44100
X33100Y44100
X37100Y43550
X37100Y42150
X33100Y41100
X32100Y41100
X31100Y41100
X27100Y45100
X27100Y46100
X29100Y46600
X27100Y50100
X27100Y51600
X37100Y49600
X37100Y45600
X51600Y45100
X51600Y46100
X53600Y46600
X55600Y45100
X55600Y44100
X56600Y44100
X57600Y44100
X61600Y43550
X61600Y42150
X57600Y41100
X56600Y41100
X55600Y41100
X61600Y45600
X57600Y46600
X57600Y47600
X56600Y47600
X55600Y49350
X54850Y48850
X54850Y49850
X55600Y51600
X56600Y51600
X57600Y51600
X61600Y49600
X51600Y50100
X51600Y51600
X55600Y60100
X56600Y60100
X57600Y60100
X61600Y61150
X61600Y62550
X61600Y64600
X57600Y65600
X57600Y66600
X56600Y66600
X54850Y67850
X55600Y68350
X54850Y68850
X55600Y70600
X56600Y70600
X57600Y70600
X61600Y68600
X55600Y64100
X55600Y63100
X56600Y63100
X57600Y63100
X53600Y65600
X51600Y65100
X51600Y64100
X51600Y69100
X51600Y70600
X76100Y70600
X76100Y69100
X79350Y68850
X80100Y68350
X79350Y67850
X81100Y66600
X82100Y66600
X82100Y65600
X80100Y64100
X80100Y63100
X81100Y63100
X82100Y63100
X86100Y62550
X86100Y61150
X82100Y60100
X81100Y60100
X80100Y60100
X76100Y64100
X76100Y65100
X78100Y65600
X86100Y64600
X86100Y68600
X82100Y70600
X81100Y70600
X80100Y70600
X100600Y70600
X100600Y69100
X103850Y68850
X104600Y68350
X103850Y67850
X105600Y66600
X106600Y66600
X106600Y65600
X104600Y64100
X104600Y63100
X105600Y63100
X106600Y63100
X110600Y62550
X110600Y61150
X106600Y60100
X105600Y60100
X104600Y60100
X100600Y64100
X100600Y65100
X102600Y65600
X110600Y64600
X110600Y68600
X106600Y70600
X105600Y70600
X104600Y70600
X104600Y51600
X105600Y51600
X106600Y51600
X103850Y49850
X104600Y49350
X103850Y48850
X105600Y47600
X106600Y47600
X106600Y46600
X104600Y45100
X104600Y44100
X105600Y44100
X106600Y44100
X110600Y43550
X110600Y42150
X106600Y41100
X105600Y41100
X104600Y41100
X100600Y45100
X100600Y46100
X102600Y46600
X100600Y50100
X100600Y51600
X110600Y49600
X110600Y45600
X106600Y32600
X105600Y32600
X104600Y32600
X103850Y30850
X104600Y30350
X103850Y29850
X105600Y28600
X106600Y28600
X106600Y27600
X104600Y26100
X104600Y25100
X105600Y25100
X106600Y25100
X110600Y24550
X110600Y23150
X106600Y22100
X105600Y22100
X104600Y22100
X100600Y26100
X100600Y27100
X102600Y27600
X100600Y31100
X100600Y32600
X110600Y30600
X110600Y26600
X106600Y13600
X105600Y13600
X104600Y13600
X103850Y11850
X104600Y11350
X103850Y10850
X105600Y9600
X106600Y9600
X106600Y8600
X104600Y7100
X104600Y6100
X105600Y6100
X106600Y6100
X110600Y5550
X110600Y4150
X106600Y3100
X105600Y3100
X104600Y3100
X100600Y7100
X100600Y8100
X102600Y8600
X100600Y12100
X100600Y13600
X110600Y11600
X110600Y7600
X86100Y7600
X86100Y5550
X86100Y4150
X82100Y3100
X81100Y3100
X80100Y3100
X80100Y6100
X80100Y7100
X81100Y6100
X82100Y6100
X82100Y8600
X82100Y9600
X81100Y9600
X79350Y10850
X80100Y11350
X79350Y11850
X80100Y13600
X81100Y13600
X82100Y13600
X86100Y11600
X78100Y8600
X76100Y8100
X76100Y7100
X76100Y12100
X76100Y13600
X80100Y22100
X81100Y22100
X82100Y22100
X86100Y23150
X86100Y24550
X86100Y26600
X82100Y27600
X82100Y28600
X81100Y28600
X79350Y29850
X80100Y30350
X79350Y30850
X80100Y32600
X81100Y32600
X82100Y32600
X86100Y30600
X80100Y26100
X80100Y25100
X81100Y25100
X82100Y25100
X78100Y27600
X76100Y27100
X76100Y26100
X76100Y31100
X76100Y32600
X80100Y41100
X81100Y41100
X82100Y41100
X86100Y42150
X86100Y43550
X86100Y45600
X82100Y46600
X82100Y47600
X81100Y47600
X80100Y49350
X79350Y48850
X79350Y49850
X80100Y51600
X81100Y51600
X82100Y51600
X86100Y49600
X80100Y45100
X80100Y44100
X81100Y44100
X82100Y44100
X78100Y46600
X76100Y46100
X76100Y45100
X76100Y50100
X76100Y51600
X57600Y32600
X56600Y32600
X55600Y32600
X54850Y30850
X55600Y30350
X54850Y29850
X56600Y28600
X57600Y28600
X57600Y27600
X55600Y26100
X55600Y25100
X56600Y25100
X57600Y25100
X61600Y24550
X61600Y23150
X57600Y22100
X56600Y22100
X55600Y22100
X51600Y26100
X51600Y27100
X53600Y27600
X51600Y31100
X51600Y32600
X61600Y30600
X61600Y26600
X57600Y13600
X56600Y13600
X55600Y13600
X54850Y11850
X55600Y11350
X54850Y10850
X56600Y9600
X57600Y9600
X57600Y8600
X55600Y7100
X55600Y6100
X56600Y6100
X57600Y6100
X61600Y5550
X61600Y4150
X57600Y3100
X56600Y3100
X55600Y3100
X51600Y7100
X51600Y8100
X53600Y8600
X51600Y12100
X51600Y13600
X61600Y11600
X61600Y7600
X37100Y7600
X37100Y5550
X37100Y4150
X33100Y3100
X32100Y3100
X31100Y3100
X31100Y6100
X31100Y7100
X32100Y6100
X33100Y6100
X33100Y8600
X33100Y9600
X32100Y9600
X30350Y10850
X31100Y11350
X30350Y11850
X27100Y12100
X27100Y13600
X31100Y13600
X32100Y13600
X33100Y13600
X37100Y11600
X29100Y8600
X27100Y8100
X27100Y7100
X31100Y22100
X32100Y22100
X33100Y22100
X37100Y23150
X37100Y24550
X37100Y26600
X33100Y27600
X33100Y28600
X32100Y28600
X31100Y30350
X30350Y29850
X30350Y30850
X31100Y32600
X32100Y32600
X33100Y32600
X37100Y30600
X31100Y26100
X31100Y25100
X32100Y25100
X33100Y25100
X29100Y27600
X27100Y27100
X27100Y26100
X27100Y31100
X27100Y32600
T02
X35100Y35600
X35100Y26600
X35100Y16600
X35100Y7600
X10600Y7600
X10600Y16600
X10600Y26600
X10600Y35600
X10600Y45600
X10600Y54600
X10600Y64600
X10600Y73600
X35100Y73600
X35100Y64600
X35100Y54600
X35100Y45600
X59600Y45600
X59600Y54600
X59600Y64600
X59600Y73600
X84100Y73600
X84100Y64600
X84100Y54600
X84100Y45600
X84100Y35600
X84100Y26600
X84100Y16600
X84100Y7600
X108600Y7600
X108600Y16600
X108600Y26600
X108600Y35600
X108600Y45600
X108600Y54600
X108600Y64600
X108600Y73600
X59600Y35600
X59600Y26600
X59600Y16600
X59600Y7600
T03
X65100Y6000
X65100Y4000
X65100Y10200
X65100Y12200
X65100Y23000
X65100Y25000
X65100Y29200
X65100Y31200
X65100Y42000
X65100Y44000
X65100Y48200
X65100Y50200
X65100Y61000
X65100Y63000
X65100Y67200
X65100Y69200
X40600Y69200
X40600Y67200
X40600Y63000
X40600Y61000
X40600Y50200
X40600Y48200
X40600Y44000
X40600Y42000
X40600Y31200
X40600Y29200
X40600Y25000
X40600Y23000
X40600Y12200
X40600Y10200
X40600Y6000
X40600Y4000
X16100Y4000
X16100Y6000
X16100Y10200
X16100Y12200
X16100Y23000
X16100Y25000
X16100Y29200
X16100Y31200
X16100Y42000
X16100Y44000
X16100Y48200
X16100Y50200
X16100Y61000
X16100Y63000
X16100Y67200
X16100Y69200
X89600Y69200
X89600Y67200
X89600Y63000
X89600Y61000
X89600Y50200
X89600Y48200
X89600Y44000
X89600Y42000
X89600Y31200
X89600Y29200
X89600Y25000
X89600Y23000
X89600Y12200
X89600Y10200
X89600Y6000
X89600Y4000
X114100Y4000
X114100Y6000
X114100Y10200
X114100Y12200
X114100Y23000
X114100Y25000
X114100Y29200
X114100Y31200
X114100Y42000
X114100Y44000
X114100Y48200
X114100Y50200
X114100Y61000
X114100Y63000
X114100Y67200
X114100Y69200
T04
X5600Y1600
X8600Y1600
X30100Y1600
X33100Y1600
X54600Y1600
X57600Y1600
X79100Y1600
X82100Y1600
X103600Y1600
X106600Y1600
X106600Y20600
X103600Y20600
X82100Y20600
X79100Y20600
X57600Y20600
X54600Y20600
X33100Y20600
X30100Y20600
X8600Y20600
X5600Y20600
X5600Y39600
X8600Y39600
X30100Y39600
X33100Y39600
X54600Y39600
X57600Y39600
X79100Y39600
X82100Y39600
X103600Y39600
X106600Y39600
X106600Y58600
X103600Y58600
X82100Y58600
X79100Y58600
X57600Y58600
X54600Y58600
X33100Y58600
X30100Y58600
X8600Y58600
X5600Y58600
T05
X14100Y58600
X18100Y58600
X18100Y54600
X16100Y54600
X14100Y54600
X14100Y39600
X18100Y39600
X18100Y35600
X16100Y35600
X14100Y35600
X14100Y20600
X18100Y20600
X18100Y16600
X16100Y16600
X14100Y16600
X14100Y1600
X18100Y1600
X38600Y1600
X42600Y1600
X63100Y1600
X67100Y1600
X87600Y1600
X91600Y1600
X112100Y1600
X116100Y1600
X116100Y16600
X114100Y16600
X112100Y16600
X112100Y20600
X116100Y20600
X116100Y35600
X114100Y35600
X112100Y35600
X112100Y39600
X116100Y39600
X116100Y54600
X114100Y54600
X112100Y54600
X112100Y58600
X116100Y58600
X116100Y73600
X114100Y73600
X112100Y73600
X91600Y73600
X89600Y73600
X87600Y73600
X67100Y73600
X65100Y73600
X63100Y73600
X42600Y73600
X40600Y73600
X38600Y73600
X18100Y73600
X16100Y73600
X14100Y73600
X38600Y58600
X42600Y58600
X42600Y54600
X40600Y54600
X38600Y54600
X38600Y39600
X42600Y39600
X42600Y35600
X40600Y35600
X38600Y35600
X38600Y20600
X42600Y20600
X42600Y16600
X40600Y16600
X38600Y16600
X63100Y16600
X65100Y16600
X67100Y16600
X67100Y20600
X63100Y20600
X63100Y35600
X65100Y35600
X67100Y35600
X67100Y39600
X63100Y39600
X63100Y54600
X65100Y54600
X67100Y54600
X67100Y58600
X63100Y58600
X87600Y58600
X91600Y58600
X91600Y54600
X89600Y54600
X87600Y54600
X87600Y39600
X91600Y39600
X91600Y35600
X89600Y35600
X87600Y35600
X87600Y20600
X91600Y20600
X91600Y16600
X89600Y16600
X87600Y16600
T06
X95100Y15600
X100100Y15600
X100100Y22850
X95100Y22850
X95100Y34600
X100100Y34600
X100100Y41850
X95100Y41850
X95100Y53600
X100100Y53600
X100100Y60850
X95100Y60850
X95100Y72600
X100100Y72600
X119600Y72600
X119600Y60850
X119600Y53600
X119600Y41850
X119600Y34600
X119600Y22850
X119600Y15600
X119600Y3850
X100100Y3850
X95100Y3850
X75600Y3850
X70600Y3850
X70600Y15600
X75600Y15600
X75600Y22850
X70600Y22850
X70600Y34600
X75600Y34600
X75600Y41850
X70600Y41850
X70600Y53600
X75600Y53600
X75600Y60850
X70600Y60850
X70600Y72600
X75600Y72600
X51100Y72600
X46100Y72600
X46100Y60850
X51100Y60850
X51100Y53600
X46100Y53600
X46100Y41850
X51100Y41850
X51100Y34600
X46100Y34600
X46100Y22850
X51100Y22850
X51100Y15600
X46100Y15600
X46100Y3850
X51100Y3850
X26600Y3850
X21600Y3850
X21600Y15600
X26600Y15600
X26600Y22850
X21600Y22850
X21600Y34600
X26600Y34600
X26600Y41850
X21600Y41850
X21600Y53600
X26600Y53600
X26600Y60850
X21600Y60850
X21600Y72600
X26600Y72600
X2100Y72600
X2100Y60850
X2100Y53600
X2100Y41850
X2100Y34600
X2100Y22850
X2100Y15600
X2100Y3850
M30
