G75*
%MOIN*%
%OFA0B0*%
%FSLAX25Y25*%
%IPPOS*%
%LPD*%
%AMOC8*
5,1,8,0,0,1.08239X$1,22.5*
%
%ADD10C,0.07200*%
%ADD11C,0.08500*%
%ADD12C,0.07600*%
%ADD13C,0.03200*%
D10*
X0013667Y0035080D03*
X0013667Y0045080D03*
X0013667Y0055080D03*
X0028667Y0055080D03*
X0033667Y0045080D03*
X0043667Y0045080D03*
X0043667Y0055080D03*
X0058667Y0055080D03*
X0073667Y0055080D03*
X0083667Y0055080D03*
X0083667Y0065080D03*
X0083667Y0075080D03*
X0083667Y0085080D03*
X0073667Y0095080D03*
X0083667Y0100080D03*
X0058667Y0095080D03*
X0053667Y0105080D03*
X0043667Y0095080D03*
X0028667Y0095080D03*
X0013667Y0095080D03*
X0013667Y0105080D03*
X0083667Y0045080D03*
X0083667Y0035080D03*
X0103667Y0035080D03*
X0118667Y0035080D03*
X0128667Y0035080D03*
X0123667Y0020080D03*
X0083667Y0020080D03*
X0063667Y0020080D03*
X0063667Y0030080D03*
X0033667Y0035080D03*
X0113667Y0055080D03*
X0113667Y0065080D03*
X0113667Y0075080D03*
X0113667Y0085080D03*
X0123667Y0100080D03*
D11*
X0128667Y0090080D03*
X0128667Y0070080D03*
D12*
X0013667Y0020080D03*
X0023667Y0020080D03*
X0033667Y0020080D03*
X0043667Y0020080D03*
D13*
X0063667Y0020080D01*
X0071167Y0012580D01*
X0091167Y0012580D01*
X0096167Y0017580D01*
X0096167Y0027580D01*
X0103667Y0035080D01*
X0111167Y0027580D01*
X0111167Y0017580D01*
X0116167Y0012580D01*
X0126167Y0012580D01*
X0136167Y0022580D01*
X0136167Y0082580D01*
X0128667Y0090080D01*
X0123667Y0095080D01*
X0123667Y0100080D01*
X0113667Y0085080D02*
X0091167Y0107580D01*
X0076167Y0107580D01*
X0073667Y0105080D01*
X0053667Y0105080D01*
X0058667Y0095080D02*
X0073667Y0095080D01*
X0078667Y0100080D01*
X0083667Y0100080D01*
X0083667Y0085080D01*
X0083667Y0075080D02*
X0093667Y0065080D01*
X0113667Y0065080D01*
X0083667Y0035080D01*
X0083667Y0020080D01*
X0068667Y0030080D02*
X0063667Y0030080D01*
X0041167Y0030080D01*
X0033667Y0022580D01*
X0033667Y0020080D01*
X0023667Y0020080D02*
X0023667Y0025080D01*
X0033667Y0035080D01*
X0033667Y0045080D02*
X0043667Y0045080D01*
X0043667Y0055080D01*
X0058667Y0055080D02*
X0058667Y0045080D01*
X0063667Y0040080D01*
X0063667Y0030080D01*
X0068667Y0030080D02*
X0083667Y0045080D01*
X0083667Y0055080D01*
X0073667Y0055080D02*
X0083667Y0065080D01*
X0066167Y0082580D01*
X0056167Y0082580D01*
X0043667Y0095080D01*
X0028667Y0095080D01*
X0013667Y0095080D02*
X0013667Y0105080D01*
X0013667Y0095080D02*
X0036167Y0072580D01*
X0041167Y0072580D01*
X0058667Y0055080D01*
X0028667Y0055080D02*
X0013667Y0055080D01*
X0013667Y0045080D01*
X0013667Y0035080D02*
X0013667Y0020080D01*
X0103667Y0035080D02*
X0103667Y0045080D01*
X0113667Y0055080D01*
X0121167Y0047580D02*
X0121167Y0067580D01*
X0113667Y0075080D01*
X0128667Y0070080D02*
X0128667Y0035080D01*
X0118667Y0035080D02*
X0118667Y0045080D01*
X0121167Y0047580D01*
X0118667Y0035080D02*
X0118667Y0025080D01*
X0123667Y0020080D01*
M02*
