G75*
%MOIN*%
%OFA0B0*%
%FSLAX25Y25*%
%IPPOS*%
%LPD*%
%AMOC8*
5,1,8,0,0,1.08239X$1,22.5*
%
%ADD10C,0.01200*%
%ADD11C,0.00600*%
%ADD12C,0.00500*%
%ADD13R,0.08000X0.02000*%
%ADD14R,0.02000X0.07500*%
%ADD15C,0.01000*%
%ADD16R,0.02400X0.03400*%
%ADD17R,0.03400X0.02400*%
D10*
X0092467Y0032580D02*
X0092467Y0035080D01*
X0092467Y0037580D01*
X0094967Y0037580D02*
X0094967Y0035080D01*
X0094967Y0032580D01*
D11*
X0009667Y0013080D02*
X0009667Y0011080D01*
X0017667Y0011080D01*
X0017667Y0011580D01*
X0019667Y0011580D01*
X0019667Y0011080D01*
X0027667Y0011080D01*
X0027667Y0011580D01*
X0029667Y0011580D01*
X0029667Y0011080D01*
X0037667Y0011080D01*
X0037667Y0011580D01*
X0039667Y0011580D01*
X0039667Y0011080D01*
X0047667Y0011080D01*
X0047667Y0013080D01*
X0047667Y0014080D01*
X0046167Y0014080D01*
X0046167Y0015080D01*
X0041167Y0015080D01*
X0041167Y0014080D01*
X0039667Y0014080D01*
X0039667Y0026580D01*
X0040167Y0027080D02*
X0038667Y0025580D01*
X0037667Y0026580D01*
X0037167Y0027080D01*
X0029667Y0027080D01*
X0029667Y0014080D01*
X0031167Y0014080D01*
X0031167Y0015080D01*
X0036167Y0015080D01*
X0036167Y0014080D01*
X0037667Y0014080D01*
X0037667Y0026580D01*
X0040167Y0027080D02*
X0047667Y0027080D01*
X0047667Y0030080D01*
X0044667Y0030080D01*
X0044667Y0030580D01*
X0042667Y0030580D01*
X0042667Y0030080D01*
X0039667Y0030080D01*
X0039667Y0029580D01*
X0037667Y0029580D01*
X0037667Y0030080D01*
X0034667Y0030080D01*
X0034667Y0030580D01*
X0032667Y0030580D01*
X0032667Y0030080D01*
X0029667Y0030080D01*
X0029667Y0029580D01*
X0027667Y0029580D01*
X0027667Y0030080D01*
X0024667Y0030080D01*
X0024667Y0030580D01*
X0022667Y0030580D01*
X0022667Y0030080D01*
X0019667Y0030080D01*
X0019667Y0029580D01*
X0017667Y0029580D01*
X0017667Y0030080D01*
X0014667Y0030080D01*
X0014667Y0030580D01*
X0012667Y0030580D01*
X0012667Y0030080D01*
X0009667Y0030080D01*
X0009667Y0027080D01*
X0017167Y0027080D01*
X0017667Y0026580D01*
X0017667Y0014080D01*
X0019667Y0014080D01*
X0019667Y0026580D01*
X0020167Y0027080D01*
X0027667Y0027080D01*
X0027667Y0014080D01*
X0029667Y0014080D01*
X0031167Y0014080D02*
X0031167Y0013080D01*
X0026167Y0013080D01*
X0026167Y0014080D01*
X0027667Y0014080D01*
X0026167Y0014080D02*
X0026167Y0015080D01*
X0021167Y0015080D01*
X0021167Y0014080D01*
X0019667Y0014080D01*
X0021167Y0014080D02*
X0021167Y0013080D01*
X0016167Y0013080D01*
X0016167Y0014080D01*
X0017667Y0014080D01*
X0016167Y0014080D02*
X0016167Y0015080D01*
X0011167Y0015080D01*
X0011167Y0014080D01*
X0009667Y0014080D01*
X0009667Y0013080D01*
X0011167Y0013080D01*
X0011167Y0014080D01*
X0009667Y0014080D02*
X0009667Y0027080D01*
X0017667Y0026580D02*
X0018667Y0025580D01*
X0019667Y0026580D01*
X0027667Y0027080D02*
X0029667Y0027080D01*
X0027667Y0040079D02*
X0027669Y0040231D01*
X0027675Y0040382D01*
X0027684Y0040533D01*
X0027698Y0040685D01*
X0027715Y0040835D01*
X0027736Y0040985D01*
X0027761Y0041135D01*
X0027789Y0041284D01*
X0027822Y0041432D01*
X0027858Y0041579D01*
X0027897Y0041726D01*
X0027941Y0041871D01*
X0027988Y0042015D01*
X0028039Y0042158D01*
X0028093Y0042299D01*
X0028151Y0042440D01*
X0028212Y0042578D01*
X0028277Y0042715D01*
X0028346Y0042851D01*
X0028417Y0042984D01*
X0028492Y0043116D01*
X0028571Y0043246D01*
X0028652Y0043373D01*
X0028737Y0043499D01*
X0028825Y0043623D01*
X0028916Y0043744D01*
X0029010Y0043863D01*
X0029108Y0043979D01*
X0029208Y0044093D01*
X0029310Y0044205D01*
X0029416Y0044313D01*
X0029524Y0044419D01*
X0029635Y0044523D01*
X0029749Y0044623D01*
X0029865Y0044721D01*
X0029984Y0044815D01*
X0039667Y0040080D02*
X0039665Y0039926D01*
X0039659Y0039772D01*
X0039649Y0039618D01*
X0039635Y0039464D01*
X0039618Y0039311D01*
X0039596Y0039159D01*
X0039570Y0039007D01*
X0039541Y0038855D01*
X0039507Y0038705D01*
X0039470Y0038555D01*
X0039429Y0038407D01*
X0039384Y0038259D01*
X0039335Y0038113D01*
X0039283Y0037968D01*
X0039227Y0037825D01*
X0039167Y0037682D01*
X0039104Y0037542D01*
X0039037Y0037403D01*
X0038966Y0037266D01*
X0038892Y0037131D01*
X0038815Y0036998D01*
X0038734Y0036866D01*
X0038650Y0036737D01*
X0038562Y0036610D01*
X0038471Y0036486D01*
X0038378Y0036364D01*
X0038280Y0036244D01*
X0038180Y0036127D01*
X0038077Y0036012D01*
X0037971Y0035900D01*
X0037863Y0035791D01*
X0037751Y0035685D01*
X0037637Y0035581D01*
X0037520Y0035481D01*
X0037401Y0035383D01*
X0037279Y0035289D01*
X0037154Y0035198D01*
X0039667Y0040080D02*
X0039665Y0040230D01*
X0039659Y0040381D01*
X0039650Y0040531D01*
X0039637Y0040680D01*
X0039620Y0040830D01*
X0039599Y0040979D01*
X0039575Y0041127D01*
X0039547Y0041275D01*
X0039515Y0041422D01*
X0039480Y0041568D01*
X0039440Y0041713D01*
X0039398Y0041857D01*
X0039351Y0042000D01*
X0039301Y0042142D01*
X0039248Y0042283D01*
X0039191Y0042422D01*
X0039131Y0042560D01*
X0039067Y0042696D01*
X0039000Y0042830D01*
X0038929Y0042963D01*
X0038855Y0043094D01*
X0038778Y0043223D01*
X0038697Y0043350D01*
X0038614Y0043475D01*
X0038527Y0043598D01*
X0038438Y0043719D01*
X0038345Y0043837D01*
X0038249Y0043953D01*
X0038151Y0044067D01*
X0038050Y0044178D01*
X0037945Y0044287D01*
X0037839Y0044392D01*
X0037729Y0044496D01*
X0037617Y0044596D01*
X0037503Y0044694D01*
X0037386Y0044788D01*
X0037267Y0044880D01*
X0027667Y0040080D02*
X0027669Y0039928D01*
X0027675Y0039777D01*
X0027684Y0039626D01*
X0027698Y0039474D01*
X0027715Y0039324D01*
X0027736Y0039174D01*
X0027761Y0039024D01*
X0027789Y0038875D01*
X0027822Y0038727D01*
X0027858Y0038580D01*
X0027897Y0038433D01*
X0027941Y0038288D01*
X0027988Y0038144D01*
X0028039Y0038001D01*
X0028093Y0037860D01*
X0028151Y0037719D01*
X0028212Y0037581D01*
X0028277Y0037444D01*
X0028346Y0037308D01*
X0028417Y0037175D01*
X0028492Y0037043D01*
X0028571Y0036913D01*
X0028652Y0036786D01*
X0028737Y0036660D01*
X0028825Y0036536D01*
X0028916Y0036415D01*
X0029010Y0036296D01*
X0029108Y0036180D01*
X0029208Y0036066D01*
X0029310Y0035954D01*
X0029416Y0035846D01*
X0029524Y0035740D01*
X0029635Y0035636D01*
X0029749Y0035536D01*
X0029865Y0035438D01*
X0029984Y0035344D01*
X0009984Y0044815D02*
X0009865Y0044721D01*
X0009749Y0044623D01*
X0009635Y0044523D01*
X0009524Y0044419D01*
X0009416Y0044313D01*
X0009310Y0044205D01*
X0009208Y0044093D01*
X0009108Y0043979D01*
X0009010Y0043863D01*
X0008916Y0043744D01*
X0008825Y0043623D01*
X0008737Y0043499D01*
X0008652Y0043373D01*
X0008571Y0043246D01*
X0008492Y0043116D01*
X0008417Y0042984D01*
X0008346Y0042851D01*
X0008277Y0042715D01*
X0008212Y0042578D01*
X0008151Y0042440D01*
X0008093Y0042299D01*
X0008039Y0042158D01*
X0007988Y0042015D01*
X0007941Y0041871D01*
X0007897Y0041726D01*
X0007858Y0041579D01*
X0007822Y0041432D01*
X0007789Y0041284D01*
X0007761Y0041135D01*
X0007736Y0040985D01*
X0007715Y0040835D01*
X0007698Y0040685D01*
X0007684Y0040533D01*
X0007675Y0040382D01*
X0007669Y0040231D01*
X0007667Y0040079D01*
X0017267Y0044880D02*
X0017386Y0044788D01*
X0017503Y0044694D01*
X0017617Y0044596D01*
X0017729Y0044496D01*
X0017839Y0044392D01*
X0017945Y0044287D01*
X0018050Y0044178D01*
X0018151Y0044067D01*
X0018249Y0043953D01*
X0018345Y0043837D01*
X0018438Y0043719D01*
X0018527Y0043598D01*
X0018614Y0043475D01*
X0018697Y0043350D01*
X0018778Y0043223D01*
X0018855Y0043094D01*
X0018929Y0042963D01*
X0019000Y0042830D01*
X0019067Y0042696D01*
X0019131Y0042560D01*
X0019191Y0042422D01*
X0019248Y0042283D01*
X0019301Y0042142D01*
X0019351Y0042000D01*
X0019398Y0041857D01*
X0019440Y0041713D01*
X0019480Y0041568D01*
X0019515Y0041422D01*
X0019547Y0041275D01*
X0019575Y0041127D01*
X0019599Y0040979D01*
X0019620Y0040830D01*
X0019637Y0040680D01*
X0019650Y0040531D01*
X0019659Y0040381D01*
X0019665Y0040230D01*
X0019667Y0040080D01*
X0009984Y0035344D02*
X0009865Y0035438D01*
X0009749Y0035536D01*
X0009635Y0035636D01*
X0009524Y0035740D01*
X0009416Y0035846D01*
X0009310Y0035954D01*
X0009208Y0036066D01*
X0009108Y0036180D01*
X0009010Y0036296D01*
X0008916Y0036415D01*
X0008825Y0036536D01*
X0008737Y0036660D01*
X0008652Y0036786D01*
X0008571Y0036913D01*
X0008492Y0037043D01*
X0008417Y0037175D01*
X0008346Y0037308D01*
X0008277Y0037444D01*
X0008212Y0037581D01*
X0008151Y0037719D01*
X0008093Y0037860D01*
X0008039Y0038001D01*
X0007988Y0038144D01*
X0007941Y0038288D01*
X0007897Y0038433D01*
X0007858Y0038580D01*
X0007822Y0038727D01*
X0007789Y0038875D01*
X0007761Y0039024D01*
X0007736Y0039174D01*
X0007715Y0039324D01*
X0007698Y0039474D01*
X0007684Y0039626D01*
X0007675Y0039777D01*
X0007669Y0039928D01*
X0007667Y0040080D01*
X0017154Y0035198D02*
X0017279Y0035289D01*
X0017401Y0035383D01*
X0017520Y0035481D01*
X0017637Y0035581D01*
X0017751Y0035685D01*
X0017863Y0035791D01*
X0017971Y0035900D01*
X0018077Y0036012D01*
X0018180Y0036127D01*
X0018280Y0036244D01*
X0018378Y0036364D01*
X0018471Y0036486D01*
X0018562Y0036610D01*
X0018650Y0036737D01*
X0018734Y0036866D01*
X0018815Y0036998D01*
X0018892Y0037131D01*
X0018966Y0037266D01*
X0019037Y0037403D01*
X0019104Y0037542D01*
X0019167Y0037682D01*
X0019227Y0037825D01*
X0019283Y0037968D01*
X0019335Y0038113D01*
X0019384Y0038259D01*
X0019429Y0038407D01*
X0019470Y0038555D01*
X0019507Y0038705D01*
X0019541Y0038855D01*
X0019570Y0039007D01*
X0019596Y0039159D01*
X0019618Y0039311D01*
X0019635Y0039464D01*
X0019649Y0039618D01*
X0019659Y0039772D01*
X0019665Y0039926D01*
X0019667Y0040080D01*
X0047667Y0027080D02*
X0047667Y0014080D01*
X0047667Y0013080D02*
X0046167Y0013080D01*
X0046167Y0014080D01*
X0041167Y0014080D02*
X0041167Y0013080D01*
X0036167Y0013080D01*
X0036167Y0014080D01*
X0037667Y0014080D02*
X0039667Y0014080D01*
X0052667Y0025080D02*
X0052670Y0025350D01*
X0052680Y0025620D01*
X0052697Y0025889D01*
X0052720Y0026158D01*
X0052750Y0026427D01*
X0052786Y0026694D01*
X0052829Y0026961D01*
X0052878Y0027226D01*
X0052934Y0027490D01*
X0052997Y0027753D01*
X0053065Y0028014D01*
X0053141Y0028273D01*
X0053222Y0028530D01*
X0053310Y0028786D01*
X0053404Y0029039D01*
X0053504Y0029290D01*
X0053611Y0029538D01*
X0053723Y0029783D01*
X0053842Y0030026D01*
X0053966Y0030265D01*
X0054096Y0030502D01*
X0054232Y0030735D01*
X0054374Y0030965D01*
X0054521Y0031191D01*
X0054674Y0031414D01*
X0054832Y0031633D01*
X0054995Y0031848D01*
X0055164Y0032058D01*
X0055338Y0032265D01*
X0055517Y0032467D01*
X0055700Y0032665D01*
X0055889Y0032858D01*
X0056082Y0033047D01*
X0056280Y0033230D01*
X0056482Y0033409D01*
X0056689Y0033583D01*
X0056899Y0033752D01*
X0057114Y0033915D01*
X0057333Y0034073D01*
X0057556Y0034226D01*
X0057782Y0034373D01*
X0058012Y0034515D01*
X0058245Y0034651D01*
X0058482Y0034781D01*
X0058721Y0034905D01*
X0058964Y0035024D01*
X0059209Y0035136D01*
X0059457Y0035243D01*
X0059708Y0035343D01*
X0059961Y0035437D01*
X0060217Y0035525D01*
X0060474Y0035606D01*
X0060733Y0035682D01*
X0060994Y0035750D01*
X0061257Y0035813D01*
X0061521Y0035869D01*
X0061786Y0035918D01*
X0062053Y0035961D01*
X0062320Y0035997D01*
X0062589Y0036027D01*
X0062858Y0036050D01*
X0063127Y0036067D01*
X0063397Y0036077D01*
X0063667Y0036080D01*
X0063937Y0036077D01*
X0064207Y0036067D01*
X0064476Y0036050D01*
X0064745Y0036027D01*
X0065014Y0035997D01*
X0065281Y0035961D01*
X0065548Y0035918D01*
X0065813Y0035869D01*
X0066077Y0035813D01*
X0066340Y0035750D01*
X0066601Y0035682D01*
X0066860Y0035606D01*
X0067117Y0035525D01*
X0067373Y0035437D01*
X0067626Y0035343D01*
X0067877Y0035243D01*
X0068125Y0035136D01*
X0068370Y0035024D01*
X0068613Y0034905D01*
X0068852Y0034781D01*
X0069089Y0034651D01*
X0069322Y0034515D01*
X0069552Y0034373D01*
X0069778Y0034226D01*
X0070001Y0034073D01*
X0070220Y0033915D01*
X0070435Y0033752D01*
X0070645Y0033583D01*
X0070852Y0033409D01*
X0071054Y0033230D01*
X0071252Y0033047D01*
X0071445Y0032858D01*
X0071634Y0032665D01*
X0071817Y0032467D01*
X0071996Y0032265D01*
X0072170Y0032058D01*
X0072339Y0031848D01*
X0072502Y0031633D01*
X0072660Y0031414D01*
X0072813Y0031191D01*
X0072960Y0030965D01*
X0073102Y0030735D01*
X0073238Y0030502D01*
X0073368Y0030265D01*
X0073492Y0030026D01*
X0073611Y0029783D01*
X0073723Y0029538D01*
X0073830Y0029290D01*
X0073930Y0029039D01*
X0074024Y0028786D01*
X0074112Y0028530D01*
X0074193Y0028273D01*
X0074269Y0028014D01*
X0074337Y0027753D01*
X0074400Y0027490D01*
X0074456Y0027226D01*
X0074505Y0026961D01*
X0074548Y0026694D01*
X0074584Y0026427D01*
X0074614Y0026158D01*
X0074637Y0025889D01*
X0074654Y0025620D01*
X0074664Y0025350D01*
X0074667Y0025080D01*
X0074664Y0024810D01*
X0074654Y0024540D01*
X0074637Y0024271D01*
X0074614Y0024002D01*
X0074584Y0023733D01*
X0074548Y0023466D01*
X0074505Y0023199D01*
X0074456Y0022934D01*
X0074400Y0022670D01*
X0074337Y0022407D01*
X0074269Y0022146D01*
X0074193Y0021887D01*
X0074112Y0021630D01*
X0074024Y0021374D01*
X0073930Y0021121D01*
X0073830Y0020870D01*
X0073723Y0020622D01*
X0073611Y0020377D01*
X0073492Y0020134D01*
X0073368Y0019895D01*
X0073238Y0019658D01*
X0073102Y0019425D01*
X0072960Y0019195D01*
X0072813Y0018969D01*
X0072660Y0018746D01*
X0072502Y0018527D01*
X0072339Y0018312D01*
X0072170Y0018102D01*
X0071996Y0017895D01*
X0071817Y0017693D01*
X0071634Y0017495D01*
X0071445Y0017302D01*
X0071252Y0017113D01*
X0071054Y0016930D01*
X0070852Y0016751D01*
X0070645Y0016577D01*
X0070435Y0016408D01*
X0070220Y0016245D01*
X0070001Y0016087D01*
X0069778Y0015934D01*
X0069552Y0015787D01*
X0069322Y0015645D01*
X0069089Y0015509D01*
X0068852Y0015379D01*
X0068613Y0015255D01*
X0068370Y0015136D01*
X0068125Y0015024D01*
X0067877Y0014917D01*
X0067626Y0014817D01*
X0067373Y0014723D01*
X0067117Y0014635D01*
X0066860Y0014554D01*
X0066601Y0014478D01*
X0066340Y0014410D01*
X0066077Y0014347D01*
X0065813Y0014291D01*
X0065548Y0014242D01*
X0065281Y0014199D01*
X0065014Y0014163D01*
X0064745Y0014133D01*
X0064476Y0014110D01*
X0064207Y0014093D01*
X0063937Y0014083D01*
X0063667Y0014080D01*
X0063397Y0014083D01*
X0063127Y0014093D01*
X0062858Y0014110D01*
X0062589Y0014133D01*
X0062320Y0014163D01*
X0062053Y0014199D01*
X0061786Y0014242D01*
X0061521Y0014291D01*
X0061257Y0014347D01*
X0060994Y0014410D01*
X0060733Y0014478D01*
X0060474Y0014554D01*
X0060217Y0014635D01*
X0059961Y0014723D01*
X0059708Y0014817D01*
X0059457Y0014917D01*
X0059209Y0015024D01*
X0058964Y0015136D01*
X0058721Y0015255D01*
X0058482Y0015379D01*
X0058245Y0015509D01*
X0058012Y0015645D01*
X0057782Y0015787D01*
X0057556Y0015934D01*
X0057333Y0016087D01*
X0057114Y0016245D01*
X0056899Y0016408D01*
X0056689Y0016577D01*
X0056482Y0016751D01*
X0056280Y0016930D01*
X0056082Y0017113D01*
X0055889Y0017302D01*
X0055700Y0017495D01*
X0055517Y0017693D01*
X0055338Y0017895D01*
X0055164Y0018102D01*
X0054995Y0018312D01*
X0054832Y0018527D01*
X0054674Y0018746D01*
X0054521Y0018969D01*
X0054374Y0019195D01*
X0054232Y0019425D01*
X0054096Y0019658D01*
X0053966Y0019895D01*
X0053842Y0020134D01*
X0053723Y0020377D01*
X0053611Y0020622D01*
X0053504Y0020870D01*
X0053404Y0021121D01*
X0053310Y0021374D01*
X0053222Y0021630D01*
X0053141Y0021887D01*
X0053065Y0022146D01*
X0052997Y0022407D01*
X0052934Y0022670D01*
X0052878Y0022934D01*
X0052829Y0023199D01*
X0052786Y0023466D01*
X0052750Y0023733D01*
X0052720Y0024002D01*
X0052697Y0024271D01*
X0052680Y0024540D01*
X0052670Y0024810D01*
X0052667Y0025080D01*
X0067167Y0031580D02*
X0068667Y0031580D01*
X0070167Y0031580D01*
X0068667Y0031580D02*
X0068667Y0033080D01*
X0068667Y0031580D02*
X0068667Y0030080D01*
X0079167Y0029080D02*
X0079167Y0041080D01*
X0079169Y0041140D01*
X0079174Y0041201D01*
X0079183Y0041260D01*
X0079196Y0041319D01*
X0079212Y0041378D01*
X0079232Y0041435D01*
X0079255Y0041490D01*
X0079282Y0041545D01*
X0079311Y0041597D01*
X0079344Y0041648D01*
X0079380Y0041697D01*
X0079418Y0041743D01*
X0079460Y0041787D01*
X0079504Y0041829D01*
X0079550Y0041867D01*
X0079599Y0041903D01*
X0079650Y0041936D01*
X0079702Y0041965D01*
X0079757Y0041992D01*
X0079812Y0042015D01*
X0079869Y0042035D01*
X0079928Y0042051D01*
X0079987Y0042064D01*
X0080046Y0042073D01*
X0080107Y0042078D01*
X0080167Y0042080D01*
X0107167Y0042080D01*
X0107227Y0042078D01*
X0107288Y0042073D01*
X0107347Y0042064D01*
X0107406Y0042051D01*
X0107465Y0042035D01*
X0107522Y0042015D01*
X0107577Y0041992D01*
X0107632Y0041965D01*
X0107684Y0041936D01*
X0107735Y0041903D01*
X0107784Y0041867D01*
X0107830Y0041829D01*
X0107874Y0041787D01*
X0107916Y0041743D01*
X0107954Y0041697D01*
X0107990Y0041648D01*
X0108023Y0041597D01*
X0108052Y0041545D01*
X0108079Y0041490D01*
X0108102Y0041435D01*
X0108122Y0041378D01*
X0108138Y0041319D01*
X0108151Y0041260D01*
X0108160Y0041201D01*
X0108165Y0041140D01*
X0108167Y0041080D01*
X0108167Y0029080D01*
X0108165Y0029020D01*
X0108160Y0028959D01*
X0108151Y0028900D01*
X0108138Y0028841D01*
X0108122Y0028782D01*
X0108102Y0028725D01*
X0108079Y0028670D01*
X0108052Y0028615D01*
X0108023Y0028563D01*
X0107990Y0028512D01*
X0107954Y0028463D01*
X0107916Y0028417D01*
X0107874Y0028373D01*
X0107830Y0028331D01*
X0107784Y0028293D01*
X0107735Y0028257D01*
X0107684Y0028224D01*
X0107632Y0028195D01*
X0107577Y0028168D01*
X0107522Y0028145D01*
X0107465Y0028125D01*
X0107406Y0028109D01*
X0107347Y0028096D01*
X0107288Y0028087D01*
X0107227Y0028082D01*
X0107167Y0028080D01*
X0080167Y0028080D01*
X0080107Y0028082D01*
X0080046Y0028087D01*
X0079987Y0028096D01*
X0079928Y0028109D01*
X0079869Y0028125D01*
X0079812Y0028145D01*
X0079757Y0028168D01*
X0079702Y0028195D01*
X0079650Y0028224D01*
X0079599Y0028257D01*
X0079550Y0028293D01*
X0079504Y0028331D01*
X0079460Y0028373D01*
X0079418Y0028417D01*
X0079380Y0028463D01*
X0079344Y0028512D01*
X0079311Y0028563D01*
X0079282Y0028615D01*
X0079255Y0028670D01*
X0079232Y0028725D01*
X0079212Y0028782D01*
X0079196Y0028841D01*
X0079183Y0028900D01*
X0079174Y0028959D01*
X0079169Y0029020D01*
X0079167Y0029080D01*
X0087667Y0035080D02*
X0092467Y0035080D01*
X0094967Y0035080D02*
X0099667Y0035080D01*
X0093667Y0024580D02*
X0092167Y0024580D01*
X0092107Y0024578D01*
X0092046Y0024573D01*
X0091987Y0024564D01*
X0091928Y0024551D01*
X0091869Y0024535D01*
X0091812Y0024515D01*
X0091757Y0024492D01*
X0091702Y0024465D01*
X0091650Y0024436D01*
X0091599Y0024403D01*
X0091550Y0024367D01*
X0091504Y0024329D01*
X0091460Y0024287D01*
X0091418Y0024243D01*
X0091380Y0024197D01*
X0091344Y0024148D01*
X0091311Y0024097D01*
X0091282Y0024045D01*
X0091255Y0023990D01*
X0091232Y0023935D01*
X0091212Y0023878D01*
X0091196Y0023819D01*
X0091183Y0023760D01*
X0091174Y0023701D01*
X0091169Y0023640D01*
X0091167Y0023580D01*
X0091167Y0016580D01*
X0091169Y0016520D01*
X0091174Y0016459D01*
X0091183Y0016400D01*
X0091196Y0016341D01*
X0091212Y0016282D01*
X0091232Y0016225D01*
X0091255Y0016170D01*
X0091282Y0016115D01*
X0091311Y0016063D01*
X0091344Y0016012D01*
X0091380Y0015963D01*
X0091418Y0015917D01*
X0091460Y0015873D01*
X0091504Y0015831D01*
X0091550Y0015793D01*
X0091599Y0015757D01*
X0091650Y0015724D01*
X0091702Y0015695D01*
X0091757Y0015668D01*
X0091812Y0015645D01*
X0091869Y0015625D01*
X0091928Y0015609D01*
X0091987Y0015596D01*
X0092046Y0015587D01*
X0092107Y0015582D01*
X0092167Y0015580D01*
X0093667Y0015580D01*
X0094167Y0016080D01*
X0113167Y0016080D01*
X0113667Y0015580D01*
X0115167Y0015580D01*
X0115227Y0015582D01*
X0115288Y0015587D01*
X0115347Y0015596D01*
X0115406Y0015609D01*
X0115465Y0015625D01*
X0115522Y0015645D01*
X0115577Y0015668D01*
X0115632Y0015695D01*
X0115684Y0015724D01*
X0115735Y0015757D01*
X0115784Y0015793D01*
X0115830Y0015831D01*
X0115874Y0015873D01*
X0115916Y0015917D01*
X0115954Y0015963D01*
X0115990Y0016012D01*
X0116023Y0016063D01*
X0116052Y0016115D01*
X0116079Y0016170D01*
X0116102Y0016225D01*
X0116122Y0016282D01*
X0116138Y0016341D01*
X0116151Y0016400D01*
X0116160Y0016459D01*
X0116165Y0016520D01*
X0116167Y0016580D01*
X0116167Y0023580D01*
X0116165Y0023640D01*
X0116160Y0023701D01*
X0116151Y0023760D01*
X0116138Y0023819D01*
X0116122Y0023878D01*
X0116102Y0023935D01*
X0116079Y0023990D01*
X0116052Y0024045D01*
X0116023Y0024097D01*
X0115990Y0024148D01*
X0115954Y0024197D01*
X0115916Y0024243D01*
X0115874Y0024287D01*
X0115830Y0024329D01*
X0115784Y0024367D01*
X0115735Y0024403D01*
X0115684Y0024436D01*
X0115632Y0024465D01*
X0115577Y0024492D01*
X0115522Y0024515D01*
X0115465Y0024535D01*
X0115406Y0024551D01*
X0115347Y0024564D01*
X0115288Y0024573D01*
X0115227Y0024578D01*
X0115167Y0024580D01*
X0113667Y0024580D01*
X0113167Y0024080D01*
X0094167Y0024080D01*
X0093667Y0024580D01*
X0075167Y0040580D02*
X0073667Y0040580D01*
X0073167Y0041080D01*
X0054167Y0041080D01*
X0053667Y0040580D01*
X0052167Y0040580D01*
X0052107Y0040582D01*
X0052046Y0040587D01*
X0051987Y0040596D01*
X0051928Y0040609D01*
X0051869Y0040625D01*
X0051812Y0040645D01*
X0051757Y0040668D01*
X0051702Y0040695D01*
X0051650Y0040724D01*
X0051599Y0040757D01*
X0051550Y0040793D01*
X0051504Y0040831D01*
X0051460Y0040873D01*
X0051418Y0040917D01*
X0051380Y0040963D01*
X0051344Y0041012D01*
X0051311Y0041063D01*
X0051282Y0041115D01*
X0051255Y0041170D01*
X0051232Y0041225D01*
X0051212Y0041282D01*
X0051196Y0041341D01*
X0051183Y0041400D01*
X0051174Y0041459D01*
X0051169Y0041520D01*
X0051167Y0041580D01*
X0051167Y0048580D01*
X0051169Y0048640D01*
X0051174Y0048701D01*
X0051183Y0048760D01*
X0051196Y0048819D01*
X0051212Y0048878D01*
X0051232Y0048935D01*
X0051255Y0048990D01*
X0051282Y0049045D01*
X0051311Y0049097D01*
X0051344Y0049148D01*
X0051380Y0049197D01*
X0051418Y0049243D01*
X0051460Y0049287D01*
X0051504Y0049329D01*
X0051550Y0049367D01*
X0051599Y0049403D01*
X0051650Y0049436D01*
X0051702Y0049465D01*
X0051757Y0049492D01*
X0051812Y0049515D01*
X0051869Y0049535D01*
X0051928Y0049551D01*
X0051987Y0049564D01*
X0052046Y0049573D01*
X0052107Y0049578D01*
X0052167Y0049580D01*
X0053667Y0049580D01*
X0054167Y0049080D01*
X0073167Y0049080D01*
X0073667Y0049580D01*
X0075167Y0049580D01*
X0075227Y0049578D01*
X0075288Y0049573D01*
X0075347Y0049564D01*
X0075406Y0049551D01*
X0075465Y0049535D01*
X0075522Y0049515D01*
X0075577Y0049492D01*
X0075632Y0049465D01*
X0075684Y0049436D01*
X0075735Y0049403D01*
X0075784Y0049367D01*
X0075830Y0049329D01*
X0075874Y0049287D01*
X0075916Y0049243D01*
X0075954Y0049197D01*
X0075990Y0049148D01*
X0076023Y0049097D01*
X0076052Y0049045D01*
X0076079Y0048990D01*
X0076102Y0048935D01*
X0076122Y0048878D01*
X0076138Y0048819D01*
X0076151Y0048760D01*
X0076160Y0048701D01*
X0076165Y0048640D01*
X0076167Y0048580D01*
X0076167Y0041580D01*
X0076165Y0041520D01*
X0076160Y0041459D01*
X0076151Y0041400D01*
X0076138Y0041341D01*
X0076122Y0041282D01*
X0076102Y0041225D01*
X0076079Y0041170D01*
X0076052Y0041115D01*
X0076023Y0041063D01*
X0075990Y0041012D01*
X0075954Y0040963D01*
X0075916Y0040917D01*
X0075874Y0040873D01*
X0075830Y0040831D01*
X0075784Y0040793D01*
X0075735Y0040757D01*
X0075684Y0040724D01*
X0075632Y0040695D01*
X0075577Y0040668D01*
X0075522Y0040645D01*
X0075465Y0040625D01*
X0075406Y0040609D01*
X0075347Y0040596D01*
X0075288Y0040587D01*
X0075227Y0040582D01*
X0075167Y0040580D01*
X0087167Y0050080D02*
X0094667Y0050080D01*
X0094669Y0050206D01*
X0094675Y0050331D01*
X0094685Y0050456D01*
X0094699Y0050581D01*
X0094716Y0050706D01*
X0094738Y0050830D01*
X0094763Y0050953D01*
X0094793Y0051075D01*
X0094826Y0051196D01*
X0094863Y0051316D01*
X0094903Y0051435D01*
X0094948Y0051552D01*
X0094996Y0051669D01*
X0095048Y0051783D01*
X0095103Y0051896D01*
X0095162Y0052007D01*
X0095224Y0052116D01*
X0095290Y0052223D01*
X0095359Y0052328D01*
X0095431Y0052431D01*
X0095506Y0052532D01*
X0095585Y0052630D01*
X0095667Y0052725D01*
X0095751Y0052818D01*
X0095839Y0052908D01*
X0095929Y0052996D01*
X0096022Y0053080D01*
X0096117Y0053162D01*
X0096215Y0053241D01*
X0096316Y0053316D01*
X0096419Y0053388D01*
X0096524Y0053457D01*
X0096631Y0053523D01*
X0096740Y0053585D01*
X0096851Y0053644D01*
X0096964Y0053699D01*
X0097078Y0053751D01*
X0097195Y0053799D01*
X0097312Y0053844D01*
X0097431Y0053884D01*
X0097551Y0053921D01*
X0097672Y0053954D01*
X0097794Y0053984D01*
X0097917Y0054009D01*
X0098041Y0054031D01*
X0098166Y0054048D01*
X0098291Y0054062D01*
X0098416Y0054072D01*
X0098541Y0054078D01*
X0098667Y0054080D01*
X0098793Y0054078D01*
X0098918Y0054072D01*
X0099043Y0054062D01*
X0099168Y0054048D01*
X0099293Y0054031D01*
X0099417Y0054009D01*
X0099540Y0053984D01*
X0099662Y0053954D01*
X0099783Y0053921D01*
X0099903Y0053884D01*
X0100022Y0053844D01*
X0100139Y0053799D01*
X0100256Y0053751D01*
X0100370Y0053699D01*
X0100483Y0053644D01*
X0100594Y0053585D01*
X0100703Y0053523D01*
X0100810Y0053457D01*
X0100915Y0053388D01*
X0101018Y0053316D01*
X0101119Y0053241D01*
X0101217Y0053162D01*
X0101312Y0053080D01*
X0101405Y0052996D01*
X0101495Y0052908D01*
X0101583Y0052818D01*
X0101667Y0052725D01*
X0101749Y0052630D01*
X0101828Y0052532D01*
X0101903Y0052431D01*
X0101975Y0052328D01*
X0102044Y0052223D01*
X0102110Y0052116D01*
X0102172Y0052007D01*
X0102231Y0051896D01*
X0102286Y0051783D01*
X0102338Y0051669D01*
X0102386Y0051552D01*
X0102431Y0051435D01*
X0102471Y0051316D01*
X0102508Y0051196D01*
X0102541Y0051075D01*
X0102571Y0050953D01*
X0102596Y0050830D01*
X0102618Y0050706D01*
X0102635Y0050581D01*
X0102649Y0050456D01*
X0102659Y0050331D01*
X0102665Y0050206D01*
X0102667Y0050080D01*
X0110167Y0050080D01*
X0110167Y0090080D01*
X0087167Y0090080D01*
X0087167Y0050080D01*
X0076667Y0066080D02*
X0070667Y0066080D01*
X0070607Y0066082D01*
X0070546Y0066087D01*
X0070487Y0066096D01*
X0070428Y0066109D01*
X0070369Y0066125D01*
X0070312Y0066145D01*
X0070257Y0066168D01*
X0070202Y0066195D01*
X0070150Y0066224D01*
X0070099Y0066257D01*
X0070050Y0066293D01*
X0070004Y0066331D01*
X0069960Y0066373D01*
X0069918Y0066417D01*
X0069880Y0066463D01*
X0069844Y0066512D01*
X0069811Y0066563D01*
X0069782Y0066615D01*
X0069755Y0066670D01*
X0069732Y0066725D01*
X0069712Y0066782D01*
X0069696Y0066841D01*
X0069683Y0066900D01*
X0069674Y0066959D01*
X0069669Y0067020D01*
X0069667Y0067080D01*
X0069667Y0083080D01*
X0069669Y0083140D01*
X0069674Y0083201D01*
X0069683Y0083260D01*
X0069696Y0083319D01*
X0069712Y0083378D01*
X0069732Y0083435D01*
X0069755Y0083490D01*
X0069782Y0083545D01*
X0069811Y0083597D01*
X0069844Y0083648D01*
X0069880Y0083697D01*
X0069918Y0083743D01*
X0069960Y0083787D01*
X0070004Y0083829D01*
X0070050Y0083867D01*
X0070099Y0083903D01*
X0070150Y0083936D01*
X0070202Y0083965D01*
X0070257Y0083992D01*
X0070312Y0084015D01*
X0070369Y0084035D01*
X0070428Y0084051D01*
X0070487Y0084064D01*
X0070546Y0084073D01*
X0070607Y0084078D01*
X0070667Y0084080D01*
X0076667Y0084080D01*
X0076727Y0084078D01*
X0076788Y0084073D01*
X0076847Y0084064D01*
X0076906Y0084051D01*
X0076965Y0084035D01*
X0077022Y0084015D01*
X0077077Y0083992D01*
X0077132Y0083965D01*
X0077184Y0083936D01*
X0077235Y0083903D01*
X0077284Y0083867D01*
X0077330Y0083829D01*
X0077374Y0083787D01*
X0077416Y0083743D01*
X0077454Y0083697D01*
X0077490Y0083648D01*
X0077523Y0083597D01*
X0077552Y0083545D01*
X0077579Y0083490D01*
X0077602Y0083435D01*
X0077622Y0083378D01*
X0077638Y0083319D01*
X0077651Y0083260D01*
X0077660Y0083201D01*
X0077665Y0083140D01*
X0077667Y0083080D01*
X0077667Y0067080D01*
X0077665Y0067020D01*
X0077660Y0066959D01*
X0077651Y0066900D01*
X0077638Y0066841D01*
X0077622Y0066782D01*
X0077602Y0066725D01*
X0077579Y0066670D01*
X0077552Y0066615D01*
X0077523Y0066563D01*
X0077490Y0066512D01*
X0077454Y0066463D01*
X0077416Y0066417D01*
X0077374Y0066373D01*
X0077330Y0066331D01*
X0077284Y0066293D01*
X0077235Y0066257D01*
X0077184Y0066224D01*
X0077132Y0066195D01*
X0077077Y0066168D01*
X0077022Y0066145D01*
X0076965Y0066125D01*
X0076906Y0066109D01*
X0076847Y0066096D01*
X0076788Y0066087D01*
X0076727Y0066082D01*
X0076667Y0066080D01*
X0073667Y0069080D02*
X0073667Y0075080D01*
X0071167Y0075080D01*
X0073667Y0075080D02*
X0076167Y0075080D01*
X0073667Y0075080D02*
X0076167Y0071080D01*
X0071167Y0071080D01*
X0073667Y0075080D01*
X0073667Y0077580D01*
X0063167Y0085080D02*
X0062667Y0084580D01*
X0062667Y0065580D01*
X0063167Y0065080D01*
X0063167Y0063580D01*
X0063165Y0063520D01*
X0063160Y0063459D01*
X0063151Y0063400D01*
X0063138Y0063341D01*
X0063122Y0063282D01*
X0063102Y0063225D01*
X0063079Y0063170D01*
X0063052Y0063115D01*
X0063023Y0063063D01*
X0062990Y0063012D01*
X0062954Y0062963D01*
X0062916Y0062917D01*
X0062874Y0062873D01*
X0062830Y0062831D01*
X0062784Y0062793D01*
X0062735Y0062757D01*
X0062684Y0062724D01*
X0062632Y0062695D01*
X0062577Y0062668D01*
X0062522Y0062645D01*
X0062465Y0062625D01*
X0062406Y0062609D01*
X0062347Y0062596D01*
X0062288Y0062587D01*
X0062227Y0062582D01*
X0062167Y0062580D01*
X0055167Y0062580D01*
X0055107Y0062582D01*
X0055046Y0062587D01*
X0054987Y0062596D01*
X0054928Y0062609D01*
X0054869Y0062625D01*
X0054812Y0062645D01*
X0054757Y0062668D01*
X0054702Y0062695D01*
X0054650Y0062724D01*
X0054599Y0062757D01*
X0054550Y0062793D01*
X0054504Y0062831D01*
X0054460Y0062873D01*
X0054418Y0062917D01*
X0054380Y0062963D01*
X0054344Y0063012D01*
X0054311Y0063063D01*
X0054282Y0063115D01*
X0054255Y0063170D01*
X0054232Y0063225D01*
X0054212Y0063282D01*
X0054196Y0063341D01*
X0054183Y0063400D01*
X0054174Y0063459D01*
X0054169Y0063520D01*
X0054167Y0063580D01*
X0054167Y0065080D01*
X0054667Y0065580D01*
X0054667Y0084580D01*
X0054167Y0085080D01*
X0054167Y0086580D01*
X0054169Y0086640D01*
X0054174Y0086701D01*
X0054183Y0086760D01*
X0054196Y0086819D01*
X0054212Y0086878D01*
X0054232Y0086935D01*
X0054255Y0086990D01*
X0054282Y0087045D01*
X0054311Y0087097D01*
X0054344Y0087148D01*
X0054380Y0087197D01*
X0054418Y0087243D01*
X0054460Y0087287D01*
X0054504Y0087329D01*
X0054550Y0087367D01*
X0054599Y0087403D01*
X0054650Y0087436D01*
X0054702Y0087465D01*
X0054757Y0087492D01*
X0054812Y0087515D01*
X0054869Y0087535D01*
X0054928Y0087551D01*
X0054987Y0087564D01*
X0055046Y0087573D01*
X0055107Y0087578D01*
X0055167Y0087580D01*
X0062167Y0087580D01*
X0062227Y0087578D01*
X0062288Y0087573D01*
X0062347Y0087564D01*
X0062406Y0087551D01*
X0062465Y0087535D01*
X0062522Y0087515D01*
X0062577Y0087492D01*
X0062632Y0087465D01*
X0062684Y0087436D01*
X0062735Y0087403D01*
X0062784Y0087367D01*
X0062830Y0087329D01*
X0062874Y0087287D01*
X0062916Y0087243D01*
X0062954Y0087197D01*
X0062990Y0087148D01*
X0063023Y0087097D01*
X0063052Y0087045D01*
X0063079Y0086990D01*
X0063102Y0086935D01*
X0063122Y0086878D01*
X0063138Y0086819D01*
X0063151Y0086760D01*
X0063160Y0086701D01*
X0063165Y0086640D01*
X0063167Y0086580D01*
X0063167Y0085080D01*
X0047667Y0083080D02*
X0047667Y0067080D01*
X0047665Y0067020D01*
X0047660Y0066959D01*
X0047651Y0066900D01*
X0047638Y0066841D01*
X0047622Y0066782D01*
X0047602Y0066725D01*
X0047579Y0066670D01*
X0047552Y0066615D01*
X0047523Y0066563D01*
X0047490Y0066512D01*
X0047454Y0066463D01*
X0047416Y0066417D01*
X0047374Y0066373D01*
X0047330Y0066331D01*
X0047284Y0066293D01*
X0047235Y0066257D01*
X0047184Y0066224D01*
X0047132Y0066195D01*
X0047077Y0066168D01*
X0047022Y0066145D01*
X0046965Y0066125D01*
X0046906Y0066109D01*
X0046847Y0066096D01*
X0046788Y0066087D01*
X0046727Y0066082D01*
X0046667Y0066080D01*
X0040667Y0066080D01*
X0040607Y0066082D01*
X0040546Y0066087D01*
X0040487Y0066096D01*
X0040428Y0066109D01*
X0040369Y0066125D01*
X0040312Y0066145D01*
X0040257Y0066168D01*
X0040202Y0066195D01*
X0040150Y0066224D01*
X0040099Y0066257D01*
X0040050Y0066293D01*
X0040004Y0066331D01*
X0039960Y0066373D01*
X0039918Y0066417D01*
X0039880Y0066463D01*
X0039844Y0066512D01*
X0039811Y0066563D01*
X0039782Y0066615D01*
X0039755Y0066670D01*
X0039732Y0066725D01*
X0039712Y0066782D01*
X0039696Y0066841D01*
X0039683Y0066900D01*
X0039674Y0066959D01*
X0039669Y0067020D01*
X0039667Y0067080D01*
X0039667Y0083080D01*
X0039669Y0083140D01*
X0039674Y0083201D01*
X0039683Y0083260D01*
X0039696Y0083319D01*
X0039712Y0083378D01*
X0039732Y0083435D01*
X0039755Y0083490D01*
X0039782Y0083545D01*
X0039811Y0083597D01*
X0039844Y0083648D01*
X0039880Y0083697D01*
X0039918Y0083743D01*
X0039960Y0083787D01*
X0040004Y0083829D01*
X0040050Y0083867D01*
X0040099Y0083903D01*
X0040150Y0083936D01*
X0040202Y0083965D01*
X0040257Y0083992D01*
X0040312Y0084015D01*
X0040369Y0084035D01*
X0040428Y0084051D01*
X0040487Y0084064D01*
X0040546Y0084073D01*
X0040607Y0084078D01*
X0040667Y0084080D01*
X0046667Y0084080D01*
X0046727Y0084078D01*
X0046788Y0084073D01*
X0046847Y0084064D01*
X0046906Y0084051D01*
X0046965Y0084035D01*
X0047022Y0084015D01*
X0047077Y0083992D01*
X0047132Y0083965D01*
X0047184Y0083936D01*
X0047235Y0083903D01*
X0047284Y0083867D01*
X0047330Y0083829D01*
X0047374Y0083787D01*
X0047416Y0083743D01*
X0047454Y0083697D01*
X0047490Y0083648D01*
X0047523Y0083597D01*
X0047552Y0083545D01*
X0047579Y0083490D01*
X0047602Y0083435D01*
X0047622Y0083378D01*
X0047638Y0083319D01*
X0047651Y0083260D01*
X0047660Y0083201D01*
X0047665Y0083140D01*
X0047667Y0083080D01*
X0043667Y0077580D02*
X0043667Y0075080D01*
X0041167Y0075080D01*
X0043667Y0075080D02*
X0046167Y0075080D01*
X0043667Y0075080D02*
X0046167Y0071080D01*
X0041167Y0071080D01*
X0043667Y0075080D01*
X0043667Y0069080D01*
X0032667Y0067080D02*
X0032667Y0083080D01*
X0032665Y0083140D01*
X0032660Y0083201D01*
X0032651Y0083260D01*
X0032638Y0083319D01*
X0032622Y0083378D01*
X0032602Y0083435D01*
X0032579Y0083490D01*
X0032552Y0083545D01*
X0032523Y0083597D01*
X0032490Y0083648D01*
X0032454Y0083697D01*
X0032416Y0083743D01*
X0032374Y0083787D01*
X0032330Y0083829D01*
X0032284Y0083867D01*
X0032235Y0083903D01*
X0032184Y0083936D01*
X0032132Y0083965D01*
X0032077Y0083992D01*
X0032022Y0084015D01*
X0031965Y0084035D01*
X0031906Y0084051D01*
X0031847Y0084064D01*
X0031788Y0084073D01*
X0031727Y0084078D01*
X0031667Y0084080D01*
X0025667Y0084080D01*
X0025607Y0084078D01*
X0025546Y0084073D01*
X0025487Y0084064D01*
X0025428Y0084051D01*
X0025369Y0084035D01*
X0025312Y0084015D01*
X0025257Y0083992D01*
X0025202Y0083965D01*
X0025150Y0083936D01*
X0025099Y0083903D01*
X0025050Y0083867D01*
X0025004Y0083829D01*
X0024960Y0083787D01*
X0024918Y0083743D01*
X0024880Y0083697D01*
X0024844Y0083648D01*
X0024811Y0083597D01*
X0024782Y0083545D01*
X0024755Y0083490D01*
X0024732Y0083435D01*
X0024712Y0083378D01*
X0024696Y0083319D01*
X0024683Y0083260D01*
X0024674Y0083201D01*
X0024669Y0083140D01*
X0024667Y0083080D01*
X0024667Y0067080D01*
X0024669Y0067020D01*
X0024674Y0066959D01*
X0024683Y0066900D01*
X0024696Y0066841D01*
X0024712Y0066782D01*
X0024732Y0066725D01*
X0024755Y0066670D01*
X0024782Y0066615D01*
X0024811Y0066563D01*
X0024844Y0066512D01*
X0024880Y0066463D01*
X0024918Y0066417D01*
X0024960Y0066373D01*
X0025004Y0066331D01*
X0025050Y0066293D01*
X0025099Y0066257D01*
X0025150Y0066224D01*
X0025202Y0066195D01*
X0025257Y0066168D01*
X0025312Y0066145D01*
X0025369Y0066125D01*
X0025428Y0066109D01*
X0025487Y0066096D01*
X0025546Y0066087D01*
X0025607Y0066082D01*
X0025667Y0066080D01*
X0031667Y0066080D01*
X0031727Y0066082D01*
X0031788Y0066087D01*
X0031847Y0066096D01*
X0031906Y0066109D01*
X0031965Y0066125D01*
X0032022Y0066145D01*
X0032077Y0066168D01*
X0032132Y0066195D01*
X0032184Y0066224D01*
X0032235Y0066257D01*
X0032284Y0066293D01*
X0032330Y0066331D01*
X0032374Y0066373D01*
X0032416Y0066417D01*
X0032454Y0066463D01*
X0032490Y0066512D01*
X0032523Y0066563D01*
X0032552Y0066615D01*
X0032579Y0066670D01*
X0032602Y0066725D01*
X0032622Y0066782D01*
X0032638Y0066841D01*
X0032651Y0066900D01*
X0032660Y0066959D01*
X0032665Y0067020D01*
X0032667Y0067080D01*
X0028667Y0069080D02*
X0028667Y0075080D01*
X0026167Y0075080D01*
X0028667Y0075080D02*
X0031167Y0075080D01*
X0028667Y0075080D02*
X0031167Y0071080D01*
X0026167Y0071080D01*
X0028667Y0075080D01*
X0028667Y0077580D01*
X0018167Y0085080D02*
X0018167Y0086580D01*
X0018165Y0086640D01*
X0018160Y0086701D01*
X0018151Y0086760D01*
X0018138Y0086819D01*
X0018122Y0086878D01*
X0018102Y0086935D01*
X0018079Y0086990D01*
X0018052Y0087045D01*
X0018023Y0087097D01*
X0017990Y0087148D01*
X0017954Y0087197D01*
X0017916Y0087243D01*
X0017874Y0087287D01*
X0017830Y0087329D01*
X0017784Y0087367D01*
X0017735Y0087403D01*
X0017684Y0087436D01*
X0017632Y0087465D01*
X0017577Y0087492D01*
X0017522Y0087515D01*
X0017465Y0087535D01*
X0017406Y0087551D01*
X0017347Y0087564D01*
X0017288Y0087573D01*
X0017227Y0087578D01*
X0017167Y0087580D01*
X0010167Y0087580D01*
X0010107Y0087578D01*
X0010046Y0087573D01*
X0009987Y0087564D01*
X0009928Y0087551D01*
X0009869Y0087535D01*
X0009812Y0087515D01*
X0009757Y0087492D01*
X0009702Y0087465D01*
X0009650Y0087436D01*
X0009599Y0087403D01*
X0009550Y0087367D01*
X0009504Y0087329D01*
X0009460Y0087287D01*
X0009418Y0087243D01*
X0009380Y0087197D01*
X0009344Y0087148D01*
X0009311Y0087097D01*
X0009282Y0087045D01*
X0009255Y0086990D01*
X0009232Y0086935D01*
X0009212Y0086878D01*
X0009196Y0086819D01*
X0009183Y0086760D01*
X0009174Y0086701D01*
X0009169Y0086640D01*
X0009167Y0086580D01*
X0009167Y0085080D01*
X0009667Y0084580D01*
X0009667Y0065580D01*
X0009167Y0065080D01*
X0009167Y0063580D01*
X0009169Y0063520D01*
X0009174Y0063459D01*
X0009183Y0063400D01*
X0009196Y0063341D01*
X0009212Y0063282D01*
X0009232Y0063225D01*
X0009255Y0063170D01*
X0009282Y0063115D01*
X0009311Y0063063D01*
X0009344Y0063012D01*
X0009380Y0062963D01*
X0009418Y0062917D01*
X0009460Y0062873D01*
X0009504Y0062831D01*
X0009550Y0062793D01*
X0009599Y0062757D01*
X0009650Y0062724D01*
X0009702Y0062695D01*
X0009757Y0062668D01*
X0009812Y0062645D01*
X0009869Y0062625D01*
X0009928Y0062609D01*
X0009987Y0062596D01*
X0010046Y0062587D01*
X0010107Y0062582D01*
X0010167Y0062580D01*
X0017167Y0062580D01*
X0017227Y0062582D01*
X0017288Y0062587D01*
X0017347Y0062596D01*
X0017406Y0062609D01*
X0017465Y0062625D01*
X0017522Y0062645D01*
X0017577Y0062668D01*
X0017632Y0062695D01*
X0017684Y0062724D01*
X0017735Y0062757D01*
X0017784Y0062793D01*
X0017830Y0062831D01*
X0017874Y0062873D01*
X0017916Y0062917D01*
X0017954Y0062963D01*
X0017990Y0063012D01*
X0018023Y0063063D01*
X0018052Y0063115D01*
X0018079Y0063170D01*
X0018102Y0063225D01*
X0018122Y0063282D01*
X0018138Y0063341D01*
X0018151Y0063400D01*
X0018160Y0063459D01*
X0018165Y0063520D01*
X0018167Y0063580D01*
X0018167Y0065080D01*
X0017667Y0065580D01*
X0017667Y0084580D01*
X0018167Y0085080D01*
X0022167Y0100580D02*
X0023667Y0100580D01*
X0024167Y0101080D01*
X0043167Y0101080D01*
X0043667Y0100580D01*
X0045167Y0100580D01*
X0045227Y0100582D01*
X0045288Y0100587D01*
X0045347Y0100596D01*
X0045406Y0100609D01*
X0045465Y0100625D01*
X0045522Y0100645D01*
X0045577Y0100668D01*
X0045632Y0100695D01*
X0045684Y0100724D01*
X0045735Y0100757D01*
X0045784Y0100793D01*
X0045830Y0100831D01*
X0045874Y0100873D01*
X0045916Y0100917D01*
X0045954Y0100963D01*
X0045990Y0101012D01*
X0046023Y0101063D01*
X0046052Y0101115D01*
X0046079Y0101170D01*
X0046102Y0101225D01*
X0046122Y0101282D01*
X0046138Y0101341D01*
X0046151Y0101400D01*
X0046160Y0101459D01*
X0046165Y0101520D01*
X0046167Y0101580D01*
X0046167Y0108580D01*
X0046165Y0108640D01*
X0046160Y0108701D01*
X0046151Y0108760D01*
X0046138Y0108819D01*
X0046122Y0108878D01*
X0046102Y0108935D01*
X0046079Y0108990D01*
X0046052Y0109045D01*
X0046023Y0109097D01*
X0045990Y0109148D01*
X0045954Y0109197D01*
X0045916Y0109243D01*
X0045874Y0109287D01*
X0045830Y0109329D01*
X0045784Y0109367D01*
X0045735Y0109403D01*
X0045684Y0109436D01*
X0045632Y0109465D01*
X0045577Y0109492D01*
X0045522Y0109515D01*
X0045465Y0109535D01*
X0045406Y0109551D01*
X0045347Y0109564D01*
X0045288Y0109573D01*
X0045227Y0109578D01*
X0045167Y0109580D01*
X0043667Y0109580D01*
X0043167Y0109080D01*
X0024167Y0109080D01*
X0023667Y0109580D01*
X0022167Y0109580D01*
X0022107Y0109578D01*
X0022046Y0109573D01*
X0021987Y0109564D01*
X0021928Y0109551D01*
X0021869Y0109535D01*
X0021812Y0109515D01*
X0021757Y0109492D01*
X0021702Y0109465D01*
X0021650Y0109436D01*
X0021599Y0109403D01*
X0021550Y0109367D01*
X0021504Y0109329D01*
X0021460Y0109287D01*
X0021418Y0109243D01*
X0021380Y0109197D01*
X0021344Y0109148D01*
X0021311Y0109097D01*
X0021282Y0109045D01*
X0021255Y0108990D01*
X0021232Y0108935D01*
X0021212Y0108878D01*
X0021196Y0108819D01*
X0021183Y0108760D01*
X0021174Y0108701D01*
X0021169Y0108640D01*
X0021167Y0108580D01*
X0021167Y0101580D01*
X0021169Y0101520D01*
X0021174Y0101459D01*
X0021183Y0101400D01*
X0021196Y0101341D01*
X0021212Y0101282D01*
X0021232Y0101225D01*
X0021255Y0101170D01*
X0021282Y0101115D01*
X0021311Y0101063D01*
X0021344Y0101012D01*
X0021380Y0100963D01*
X0021418Y0100917D01*
X0021460Y0100873D01*
X0021504Y0100831D01*
X0021550Y0100793D01*
X0021599Y0100757D01*
X0021650Y0100724D01*
X0021702Y0100695D01*
X0021757Y0100668D01*
X0021812Y0100645D01*
X0021869Y0100625D01*
X0021928Y0100609D01*
X0021987Y0100596D01*
X0022046Y0100587D01*
X0022107Y0100582D01*
X0022167Y0100580D01*
X0091167Y0103580D02*
X0091167Y0096580D01*
X0091169Y0096520D01*
X0091174Y0096459D01*
X0091183Y0096400D01*
X0091196Y0096341D01*
X0091212Y0096282D01*
X0091232Y0096225D01*
X0091255Y0096170D01*
X0091282Y0096115D01*
X0091311Y0096063D01*
X0091344Y0096012D01*
X0091380Y0095963D01*
X0091418Y0095917D01*
X0091460Y0095873D01*
X0091504Y0095831D01*
X0091550Y0095793D01*
X0091599Y0095757D01*
X0091650Y0095724D01*
X0091702Y0095695D01*
X0091757Y0095668D01*
X0091812Y0095645D01*
X0091869Y0095625D01*
X0091928Y0095609D01*
X0091987Y0095596D01*
X0092046Y0095587D01*
X0092107Y0095582D01*
X0092167Y0095580D01*
X0093667Y0095580D01*
X0094167Y0096080D01*
X0113167Y0096080D01*
X0113667Y0095580D01*
X0115167Y0095580D01*
X0115227Y0095582D01*
X0115288Y0095587D01*
X0115347Y0095596D01*
X0115406Y0095609D01*
X0115465Y0095625D01*
X0115522Y0095645D01*
X0115577Y0095668D01*
X0115632Y0095695D01*
X0115684Y0095724D01*
X0115735Y0095757D01*
X0115784Y0095793D01*
X0115830Y0095831D01*
X0115874Y0095873D01*
X0115916Y0095917D01*
X0115954Y0095963D01*
X0115990Y0096012D01*
X0116023Y0096063D01*
X0116052Y0096115D01*
X0116079Y0096170D01*
X0116102Y0096225D01*
X0116122Y0096282D01*
X0116138Y0096341D01*
X0116151Y0096400D01*
X0116160Y0096459D01*
X0116165Y0096520D01*
X0116167Y0096580D01*
X0116167Y0103580D01*
X0116165Y0103640D01*
X0116160Y0103701D01*
X0116151Y0103760D01*
X0116138Y0103819D01*
X0116122Y0103878D01*
X0116102Y0103935D01*
X0116079Y0103990D01*
X0116052Y0104045D01*
X0116023Y0104097D01*
X0115990Y0104148D01*
X0115954Y0104197D01*
X0115916Y0104243D01*
X0115874Y0104287D01*
X0115830Y0104329D01*
X0115784Y0104367D01*
X0115735Y0104403D01*
X0115684Y0104436D01*
X0115632Y0104465D01*
X0115577Y0104492D01*
X0115522Y0104515D01*
X0115465Y0104535D01*
X0115406Y0104551D01*
X0115347Y0104564D01*
X0115288Y0104573D01*
X0115227Y0104578D01*
X0115167Y0104580D01*
X0113667Y0104580D01*
X0113167Y0104080D01*
X0094167Y0104080D01*
X0093667Y0104580D01*
X0092167Y0104580D01*
X0092107Y0104578D01*
X0092046Y0104573D01*
X0091987Y0104564D01*
X0091928Y0104551D01*
X0091869Y0104535D01*
X0091812Y0104515D01*
X0091757Y0104492D01*
X0091702Y0104465D01*
X0091650Y0104436D01*
X0091599Y0104403D01*
X0091550Y0104367D01*
X0091504Y0104329D01*
X0091460Y0104287D01*
X0091418Y0104243D01*
X0091380Y0104197D01*
X0091344Y0104148D01*
X0091311Y0104097D01*
X0091282Y0104045D01*
X0091255Y0103990D01*
X0091232Y0103935D01*
X0091212Y0103878D01*
X0091196Y0103819D01*
X0091183Y0103760D01*
X0091174Y0103701D01*
X0091169Y0103640D01*
X0091167Y0103580D01*
X0123667Y0091080D02*
X0123667Y0089080D01*
X0124167Y0089080D01*
X0124167Y0091080D02*
X0123667Y0091080D01*
X0133167Y0091080D02*
X0133667Y0091080D01*
X0133667Y0089080D01*
X0133167Y0089080D01*
X0133167Y0071080D02*
X0133667Y0071080D01*
X0133667Y0069080D01*
X0133167Y0069080D01*
X0124167Y0069080D02*
X0123667Y0069080D01*
X0123667Y0071080D01*
X0124167Y0071080D01*
X0117167Y0041580D02*
X0117167Y0040080D01*
X0118667Y0040080D01*
X0117167Y0040080D02*
X0117167Y0038580D01*
X0117167Y0040080D02*
X0115667Y0040080D01*
X0112667Y0035080D02*
X0112670Y0035350D01*
X0112680Y0035620D01*
X0112697Y0035889D01*
X0112720Y0036158D01*
X0112750Y0036427D01*
X0112786Y0036694D01*
X0112829Y0036961D01*
X0112878Y0037226D01*
X0112934Y0037490D01*
X0112997Y0037753D01*
X0113065Y0038014D01*
X0113141Y0038273D01*
X0113222Y0038530D01*
X0113310Y0038786D01*
X0113404Y0039039D01*
X0113504Y0039290D01*
X0113611Y0039538D01*
X0113723Y0039783D01*
X0113842Y0040026D01*
X0113966Y0040265D01*
X0114096Y0040502D01*
X0114232Y0040735D01*
X0114374Y0040965D01*
X0114521Y0041191D01*
X0114674Y0041414D01*
X0114832Y0041633D01*
X0114995Y0041848D01*
X0115164Y0042058D01*
X0115338Y0042265D01*
X0115517Y0042467D01*
X0115700Y0042665D01*
X0115889Y0042858D01*
X0116082Y0043047D01*
X0116280Y0043230D01*
X0116482Y0043409D01*
X0116689Y0043583D01*
X0116899Y0043752D01*
X0117114Y0043915D01*
X0117333Y0044073D01*
X0117556Y0044226D01*
X0117782Y0044373D01*
X0118012Y0044515D01*
X0118245Y0044651D01*
X0118482Y0044781D01*
X0118721Y0044905D01*
X0118964Y0045024D01*
X0119209Y0045136D01*
X0119457Y0045243D01*
X0119708Y0045343D01*
X0119961Y0045437D01*
X0120217Y0045525D01*
X0120474Y0045606D01*
X0120733Y0045682D01*
X0120994Y0045750D01*
X0121257Y0045813D01*
X0121521Y0045869D01*
X0121786Y0045918D01*
X0122053Y0045961D01*
X0122320Y0045997D01*
X0122589Y0046027D01*
X0122858Y0046050D01*
X0123127Y0046067D01*
X0123397Y0046077D01*
X0123667Y0046080D01*
X0123937Y0046077D01*
X0124207Y0046067D01*
X0124476Y0046050D01*
X0124745Y0046027D01*
X0125014Y0045997D01*
X0125281Y0045961D01*
X0125548Y0045918D01*
X0125813Y0045869D01*
X0126077Y0045813D01*
X0126340Y0045750D01*
X0126601Y0045682D01*
X0126860Y0045606D01*
X0127117Y0045525D01*
X0127373Y0045437D01*
X0127626Y0045343D01*
X0127877Y0045243D01*
X0128125Y0045136D01*
X0128370Y0045024D01*
X0128613Y0044905D01*
X0128852Y0044781D01*
X0129089Y0044651D01*
X0129322Y0044515D01*
X0129552Y0044373D01*
X0129778Y0044226D01*
X0130001Y0044073D01*
X0130220Y0043915D01*
X0130435Y0043752D01*
X0130645Y0043583D01*
X0130852Y0043409D01*
X0131054Y0043230D01*
X0131252Y0043047D01*
X0131445Y0042858D01*
X0131634Y0042665D01*
X0131817Y0042467D01*
X0131996Y0042265D01*
X0132170Y0042058D01*
X0132339Y0041848D01*
X0132502Y0041633D01*
X0132660Y0041414D01*
X0132813Y0041191D01*
X0132960Y0040965D01*
X0133102Y0040735D01*
X0133238Y0040502D01*
X0133368Y0040265D01*
X0133492Y0040026D01*
X0133611Y0039783D01*
X0133723Y0039538D01*
X0133830Y0039290D01*
X0133930Y0039039D01*
X0134024Y0038786D01*
X0134112Y0038530D01*
X0134193Y0038273D01*
X0134269Y0038014D01*
X0134337Y0037753D01*
X0134400Y0037490D01*
X0134456Y0037226D01*
X0134505Y0036961D01*
X0134548Y0036694D01*
X0134584Y0036427D01*
X0134614Y0036158D01*
X0134637Y0035889D01*
X0134654Y0035620D01*
X0134664Y0035350D01*
X0134667Y0035080D01*
X0134664Y0034810D01*
X0134654Y0034540D01*
X0134637Y0034271D01*
X0134614Y0034002D01*
X0134584Y0033733D01*
X0134548Y0033466D01*
X0134505Y0033199D01*
X0134456Y0032934D01*
X0134400Y0032670D01*
X0134337Y0032407D01*
X0134269Y0032146D01*
X0134193Y0031887D01*
X0134112Y0031630D01*
X0134024Y0031374D01*
X0133930Y0031121D01*
X0133830Y0030870D01*
X0133723Y0030622D01*
X0133611Y0030377D01*
X0133492Y0030134D01*
X0133368Y0029895D01*
X0133238Y0029658D01*
X0133102Y0029425D01*
X0132960Y0029195D01*
X0132813Y0028969D01*
X0132660Y0028746D01*
X0132502Y0028527D01*
X0132339Y0028312D01*
X0132170Y0028102D01*
X0131996Y0027895D01*
X0131817Y0027693D01*
X0131634Y0027495D01*
X0131445Y0027302D01*
X0131252Y0027113D01*
X0131054Y0026930D01*
X0130852Y0026751D01*
X0130645Y0026577D01*
X0130435Y0026408D01*
X0130220Y0026245D01*
X0130001Y0026087D01*
X0129778Y0025934D01*
X0129552Y0025787D01*
X0129322Y0025645D01*
X0129089Y0025509D01*
X0128852Y0025379D01*
X0128613Y0025255D01*
X0128370Y0025136D01*
X0128125Y0025024D01*
X0127877Y0024917D01*
X0127626Y0024817D01*
X0127373Y0024723D01*
X0127117Y0024635D01*
X0126860Y0024554D01*
X0126601Y0024478D01*
X0126340Y0024410D01*
X0126077Y0024347D01*
X0125813Y0024291D01*
X0125548Y0024242D01*
X0125281Y0024199D01*
X0125014Y0024163D01*
X0124745Y0024133D01*
X0124476Y0024110D01*
X0124207Y0024093D01*
X0123937Y0024083D01*
X0123667Y0024080D01*
X0123397Y0024083D01*
X0123127Y0024093D01*
X0122858Y0024110D01*
X0122589Y0024133D01*
X0122320Y0024163D01*
X0122053Y0024199D01*
X0121786Y0024242D01*
X0121521Y0024291D01*
X0121257Y0024347D01*
X0120994Y0024410D01*
X0120733Y0024478D01*
X0120474Y0024554D01*
X0120217Y0024635D01*
X0119961Y0024723D01*
X0119708Y0024817D01*
X0119457Y0024917D01*
X0119209Y0025024D01*
X0118964Y0025136D01*
X0118721Y0025255D01*
X0118482Y0025379D01*
X0118245Y0025509D01*
X0118012Y0025645D01*
X0117782Y0025787D01*
X0117556Y0025934D01*
X0117333Y0026087D01*
X0117114Y0026245D01*
X0116899Y0026408D01*
X0116689Y0026577D01*
X0116482Y0026751D01*
X0116280Y0026930D01*
X0116082Y0027113D01*
X0115889Y0027302D01*
X0115700Y0027495D01*
X0115517Y0027693D01*
X0115338Y0027895D01*
X0115164Y0028102D01*
X0114995Y0028312D01*
X0114832Y0028527D01*
X0114674Y0028746D01*
X0114521Y0028969D01*
X0114374Y0029195D01*
X0114232Y0029425D01*
X0114096Y0029658D01*
X0113966Y0029895D01*
X0113842Y0030134D01*
X0113723Y0030377D01*
X0113611Y0030622D01*
X0113504Y0030870D01*
X0113404Y0031121D01*
X0113310Y0031374D01*
X0113222Y0031630D01*
X0113141Y0031887D01*
X0113065Y0032146D01*
X0112997Y0032407D01*
X0112934Y0032670D01*
X0112878Y0032934D01*
X0112829Y0033199D01*
X0112786Y0033466D01*
X0112750Y0033733D01*
X0112720Y0034002D01*
X0112697Y0034271D01*
X0112680Y0034540D01*
X0112670Y0034810D01*
X0112667Y0035080D01*
D12*
X0108815Y0044330D02*
X0105813Y0044330D01*
X0107314Y0044330D02*
X0107314Y0048833D01*
X0105813Y0047332D01*
X0104211Y0048083D02*
X0103461Y0048833D01*
X0101959Y0048833D01*
X0101209Y0048083D01*
X0101209Y0045080D01*
X0101959Y0044330D01*
X0103461Y0044330D01*
X0104211Y0045080D01*
X0099641Y0044330D02*
X0098140Y0044330D01*
X0098890Y0044330D02*
X0098890Y0048833D01*
X0098140Y0048833D02*
X0099641Y0048833D01*
X0091523Y0043330D02*
X0088521Y0043330D01*
X0090022Y0043330D02*
X0090022Y0047833D01*
X0088521Y0046332D01*
X0086919Y0047083D02*
X0086169Y0047833D01*
X0084667Y0047833D01*
X0083917Y0047083D01*
X0083917Y0044080D01*
X0084667Y0043330D01*
X0086169Y0043330D01*
X0086919Y0044080D01*
X0091917Y0030833D02*
X0094169Y0030833D01*
X0094919Y0030083D01*
X0094919Y0028581D01*
X0094169Y0027831D01*
X0091917Y0027831D01*
X0093418Y0027831D02*
X0094919Y0026330D01*
X0096521Y0027080D02*
X0097271Y0026330D01*
X0098773Y0026330D01*
X0099523Y0027080D01*
X0099523Y0027831D01*
X0098773Y0028581D01*
X0096521Y0028581D01*
X0096521Y0027080D01*
X0096521Y0028581D02*
X0098022Y0030083D01*
X0099523Y0030833D01*
X0091917Y0030833D02*
X0091917Y0026330D01*
X0074417Y0013228D02*
X0074417Y0010226D01*
X0071414Y0013228D01*
X0070663Y0013228D01*
X0069913Y0012478D01*
X0069913Y0010976D01*
X0070663Y0010226D01*
X0070663Y0008624D02*
X0069913Y0007874D01*
X0069913Y0006372D01*
X0070663Y0005622D01*
X0073666Y0005622D01*
X0074417Y0006372D01*
X0074417Y0007874D01*
X0073666Y0008624D01*
X0039917Y0014414D02*
X0039917Y0017416D01*
X0039917Y0019018D02*
X0039917Y0022020D01*
X0037665Y0020519D02*
X0037665Y0019018D01*
X0035413Y0019018D02*
X0039917Y0019018D01*
X0035413Y0019018D02*
X0035413Y0022020D01*
X0035413Y0023622D02*
X0035413Y0025874D01*
X0036163Y0026624D01*
X0039166Y0026624D01*
X0039917Y0025874D01*
X0039917Y0023622D01*
X0035413Y0023622D01*
X0036914Y0028226D02*
X0035413Y0029727D01*
X0039917Y0029727D01*
X0039917Y0028226D02*
X0039917Y0031228D01*
X0022127Y0031930D02*
X0019125Y0031930D01*
X0019917Y0031228D02*
X0019917Y0028226D01*
X0016914Y0031228D01*
X0016163Y0031228D01*
X0015413Y0030477D01*
X0015413Y0028976D01*
X0016163Y0028226D01*
X0016163Y0026624D02*
X0015413Y0025874D01*
X0015413Y0023622D01*
X0019917Y0023622D01*
X0019917Y0025874D01*
X0019166Y0026624D01*
X0016163Y0026624D01*
X0015417Y0026298D02*
X0015417Y0024030D01*
X0015417Y0025164D02*
X0012014Y0025164D01*
X0013148Y0024030D01*
X0015413Y0022020D02*
X0015413Y0019018D01*
X0019917Y0019018D01*
X0019917Y0022020D01*
X0017665Y0020519D02*
X0017665Y0019018D01*
X0019917Y0017416D02*
X0019917Y0014414D01*
X0015413Y0014414D01*
X0035413Y0014414D02*
X0039917Y0014414D01*
X0020626Y0031930D02*
X0020626Y0036433D01*
X0019125Y0034932D01*
X0017523Y0031930D02*
X0014521Y0031930D01*
X0014521Y0036433D01*
X0012919Y0035683D02*
X0012169Y0036433D01*
X0010667Y0036433D01*
X0009917Y0035683D01*
X0009917Y0034932D01*
X0010667Y0034181D01*
X0012169Y0034181D01*
X0012919Y0033431D01*
X0012919Y0032680D01*
X0012169Y0031930D01*
X0010667Y0031930D01*
X0009917Y0032680D01*
X0007417Y0063330D02*
X0002913Y0063330D01*
X0002913Y0065581D01*
X0003663Y0066332D01*
X0005165Y0066332D01*
X0005915Y0065581D01*
X0005915Y0063330D01*
X0005915Y0064831D02*
X0007417Y0066332D01*
X0005165Y0067933D02*
X0005165Y0070936D01*
X0007417Y0070185D02*
X0002913Y0070185D01*
X0005165Y0067933D01*
X0033913Y0074622D02*
X0033913Y0076874D01*
X0034663Y0077624D01*
X0037666Y0077624D01*
X0038417Y0076874D01*
X0038417Y0074622D01*
X0033913Y0074622D01*
X0034663Y0079226D02*
X0033913Y0079976D01*
X0033913Y0081478D01*
X0034663Y0082228D01*
X0035414Y0082228D01*
X0038417Y0079226D01*
X0038417Y0082228D01*
X0048913Y0080727D02*
X0053417Y0080727D01*
X0053417Y0079226D02*
X0053417Y0082228D01*
X0050414Y0079226D02*
X0048913Y0080727D01*
X0049663Y0077624D02*
X0048913Y0076874D01*
X0048913Y0074622D01*
X0053417Y0074622D01*
X0053417Y0076874D01*
X0052666Y0077624D01*
X0049663Y0077624D01*
X0064913Y0078122D02*
X0064913Y0080374D01*
X0065663Y0081124D01*
X0067165Y0081124D01*
X0067915Y0080374D01*
X0067915Y0078122D01*
X0067915Y0079623D02*
X0069417Y0081124D01*
X0069417Y0082726D02*
X0069417Y0085728D01*
X0069417Y0084227D02*
X0064913Y0084227D01*
X0066414Y0082726D01*
X0064913Y0078122D02*
X0069417Y0078122D01*
X0078913Y0076874D02*
X0078913Y0074622D01*
X0083417Y0074622D01*
X0083417Y0076874D01*
X0082666Y0077624D01*
X0079663Y0077624D01*
X0078913Y0076874D01*
X0079663Y0079226D02*
X0078913Y0079976D01*
X0078913Y0081478D01*
X0079663Y0082228D01*
X0080414Y0082228D01*
X0081165Y0081478D01*
X0081915Y0082228D01*
X0082666Y0082228D01*
X0083417Y0081478D01*
X0083417Y0079976D01*
X0082666Y0079226D01*
X0081165Y0080727D02*
X0081165Y0081478D01*
X0106709Y0089330D02*
X0106709Y0093833D01*
X0108961Y0093833D01*
X0109711Y0093083D01*
X0109711Y0091581D01*
X0108961Y0090831D01*
X0106709Y0090831D01*
X0108210Y0090831D02*
X0109711Y0089330D01*
X0111313Y0089330D02*
X0114315Y0092332D01*
X0114315Y0093083D01*
X0113565Y0093833D01*
X0112063Y0093833D01*
X0111313Y0093083D01*
X0111313Y0089330D02*
X0114315Y0089330D01*
X0123917Y0095330D02*
X0126919Y0095330D01*
X0128521Y0096080D02*
X0129271Y0095330D01*
X0130773Y0095330D01*
X0131523Y0096080D01*
X0131523Y0096831D01*
X0130773Y0097581D01*
X0129271Y0097581D01*
X0128521Y0098332D01*
X0128521Y0099083D01*
X0129271Y0099833D01*
X0130773Y0099833D01*
X0131523Y0099083D01*
X0133125Y0099833D02*
X0135376Y0099833D01*
X0136127Y0099083D01*
X0136127Y0097581D01*
X0135376Y0096831D01*
X0133125Y0096831D01*
X0133125Y0095330D02*
X0133125Y0099833D01*
X0137728Y0099083D02*
X0138479Y0099833D01*
X0139980Y0099833D01*
X0140731Y0099083D01*
X0140731Y0098332D01*
X0137728Y0095330D01*
X0140731Y0095330D01*
X0123917Y0095330D02*
X0123917Y0099833D01*
X0123917Y0079833D02*
X0123917Y0075330D01*
X0126919Y0075330D01*
X0128521Y0076080D02*
X0129271Y0075330D01*
X0130773Y0075330D01*
X0131523Y0076080D01*
X0131523Y0076831D01*
X0130773Y0077581D01*
X0129271Y0077581D01*
X0128521Y0078332D01*
X0128521Y0079083D01*
X0129271Y0079833D01*
X0130773Y0079833D01*
X0131523Y0079083D01*
X0133125Y0079833D02*
X0135376Y0079833D01*
X0136127Y0079083D01*
X0136127Y0077581D01*
X0135376Y0076831D01*
X0133125Y0076831D01*
X0133125Y0075330D02*
X0133125Y0079833D01*
X0137728Y0078332D02*
X0139230Y0079833D01*
X0139230Y0075330D01*
X0140731Y0075330D02*
X0137728Y0075330D01*
X0136669Y0045833D02*
X0135167Y0045833D01*
X0134417Y0045083D01*
X0134417Y0042080D01*
X0135167Y0041330D01*
X0136669Y0041330D01*
X0137419Y0042080D01*
X0139021Y0042080D02*
X0139771Y0041330D01*
X0141273Y0041330D01*
X0142023Y0042080D01*
X0142023Y0042831D01*
X0141273Y0043581D01*
X0140522Y0043581D01*
X0141273Y0043581D02*
X0142023Y0044332D01*
X0142023Y0045083D01*
X0141273Y0045833D01*
X0139771Y0045833D01*
X0139021Y0045083D01*
X0137419Y0045083D02*
X0136669Y0045833D01*
X0059523Y0052080D02*
X0058773Y0051330D01*
X0057271Y0051330D01*
X0056521Y0052080D01*
X0054919Y0051330D02*
X0053418Y0052831D01*
X0054169Y0052831D02*
X0051917Y0052831D01*
X0051917Y0051330D02*
X0051917Y0055833D01*
X0054169Y0055833D01*
X0054919Y0055083D01*
X0054919Y0053581D01*
X0054169Y0052831D01*
X0056521Y0055083D02*
X0057271Y0055833D01*
X0058773Y0055833D01*
X0059523Y0055083D01*
X0059523Y0054332D01*
X0058773Y0053581D01*
X0059523Y0052831D01*
X0059523Y0052080D01*
X0058773Y0053581D02*
X0058022Y0053581D01*
X0043565Y0094330D02*
X0042063Y0094330D01*
X0041313Y0095080D01*
X0039711Y0094330D02*
X0038210Y0095831D01*
X0038961Y0095831D02*
X0039711Y0096581D01*
X0039711Y0098083D01*
X0038961Y0098833D01*
X0036709Y0098833D01*
X0036709Y0094330D01*
X0036709Y0095831D02*
X0038961Y0095831D01*
X0041313Y0096581D02*
X0042814Y0097332D01*
X0043565Y0097332D01*
X0044315Y0096581D01*
X0044315Y0095080D01*
X0043565Y0094330D01*
X0041313Y0096581D02*
X0041313Y0098833D01*
X0044315Y0098833D01*
D13*
X0043667Y0081580D03*
X0028667Y0081580D03*
X0073667Y0081580D03*
D14*
X0073667Y0087830D03*
X0043667Y0087830D03*
X0028667Y0087830D03*
X0028667Y0062330D03*
X0043667Y0062330D03*
X0073667Y0062330D03*
D15*
X0029698Y0047026D02*
X0029529Y0046927D01*
X0029363Y0046823D01*
X0029199Y0046716D01*
X0029038Y0046605D01*
X0028880Y0046490D01*
X0028725Y0046371D01*
X0028572Y0046248D01*
X0028423Y0046122D01*
X0028277Y0045992D01*
X0028134Y0045858D01*
X0027994Y0045721D01*
X0027858Y0045581D01*
X0027725Y0045437D01*
X0027596Y0045290D01*
X0027470Y0045140D01*
X0027349Y0044987D01*
X0027230Y0044831D01*
X0027116Y0044672D01*
X0027006Y0044511D01*
X0026900Y0044346D01*
X0026797Y0044180D01*
X0026699Y0044010D01*
X0026605Y0043839D01*
X0026515Y0043665D01*
X0026430Y0043489D01*
X0026348Y0043311D01*
X0026272Y0043131D01*
X0026199Y0042949D01*
X0026131Y0042766D01*
X0026068Y0042581D01*
X0026009Y0042394D01*
X0025955Y0042206D01*
X0025905Y0042017D01*
X0025860Y0041827D01*
X0025820Y0041635D01*
X0025784Y0041443D01*
X0025753Y0041250D01*
X0025727Y0041056D01*
X0025705Y0040861D01*
X0025689Y0040666D01*
X0025677Y0040471D01*
X0025669Y0040275D01*
X0025667Y0040080D01*
X0037432Y0047138D02*
X0037600Y0047045D01*
X0037766Y0046949D01*
X0037930Y0046849D01*
X0038091Y0046744D01*
X0038250Y0046636D01*
X0038406Y0046524D01*
X0038560Y0046408D01*
X0038710Y0046289D01*
X0038858Y0046166D01*
X0039003Y0046040D01*
X0039144Y0045910D01*
X0039283Y0045777D01*
X0039418Y0045640D01*
X0039550Y0045500D01*
X0039678Y0045358D01*
X0039803Y0045212D01*
X0039925Y0045063D01*
X0040043Y0044911D01*
X0040157Y0044757D01*
X0040267Y0044599D01*
X0040374Y0044440D01*
X0040477Y0044277D01*
X0040576Y0044112D01*
X0040671Y0043945D01*
X0040761Y0043776D01*
X0040848Y0043605D01*
X0040931Y0043431D01*
X0041009Y0043256D01*
X0041083Y0043078D01*
X0041153Y0042899D01*
X0041219Y0042719D01*
X0041280Y0042537D01*
X0041337Y0042353D01*
X0041389Y0042168D01*
X0041437Y0041982D01*
X0041481Y0041795D01*
X0041520Y0041607D01*
X0041554Y0041418D01*
X0041584Y0041228D01*
X0041609Y0041038D01*
X0041630Y0040847D01*
X0041646Y0040655D01*
X0041658Y0040463D01*
X0041665Y0040271D01*
X0041667Y0040079D01*
X0028499Y0033972D02*
X0028353Y0034099D01*
X0028211Y0034228D01*
X0028071Y0034362D01*
X0027935Y0034498D01*
X0027802Y0034638D01*
X0027672Y0034781D01*
X0027546Y0034928D01*
X0027424Y0035077D01*
X0027305Y0035229D01*
X0027190Y0035384D01*
X0027078Y0035541D01*
X0026971Y0035701D01*
X0026867Y0035864D01*
X0026768Y0036030D01*
X0026672Y0036197D01*
X0026580Y0036367D01*
X0026493Y0036539D01*
X0026409Y0036713D01*
X0026330Y0036889D01*
X0026256Y0037067D01*
X0026185Y0037247D01*
X0026119Y0037428D01*
X0026057Y0037611D01*
X0026000Y0037795D01*
X0025947Y0037981D01*
X0025899Y0038168D01*
X0025855Y0038356D01*
X0025816Y0038545D01*
X0025781Y0038735D01*
X0025751Y0038925D01*
X0025725Y0039116D01*
X0025704Y0039308D01*
X0025688Y0039501D01*
X0025676Y0039693D01*
X0025669Y0039886D01*
X0025667Y0040079D01*
X0038789Y0033933D02*
X0038937Y0034060D01*
X0039082Y0034190D01*
X0039223Y0034323D01*
X0039362Y0034460D01*
X0039497Y0034600D01*
X0039628Y0034744D01*
X0039756Y0034891D01*
X0039881Y0035040D01*
X0040002Y0035193D01*
X0040119Y0035348D01*
X0040232Y0035507D01*
X0040341Y0035668D01*
X0040446Y0035832D01*
X0040548Y0035998D01*
X0040645Y0036167D01*
X0040738Y0036337D01*
X0040827Y0036511D01*
X0040912Y0036686D01*
X0040992Y0036863D01*
X0041068Y0037042D01*
X0041140Y0037223D01*
X0041207Y0037406D01*
X0041270Y0037590D01*
X0041328Y0037776D01*
X0041382Y0037963D01*
X0041431Y0038151D01*
X0041476Y0038341D01*
X0041516Y0038531D01*
X0041551Y0038723D01*
X0041582Y0038915D01*
X0041608Y0039108D01*
X0041629Y0039302D01*
X0041646Y0039496D01*
X0041658Y0039690D01*
X0041665Y0039884D01*
X0041667Y0040079D01*
X0009698Y0047026D02*
X0009529Y0046927D01*
X0009363Y0046823D01*
X0009199Y0046716D01*
X0009038Y0046605D01*
X0008880Y0046490D01*
X0008725Y0046371D01*
X0008572Y0046248D01*
X0008423Y0046122D01*
X0008277Y0045992D01*
X0008134Y0045858D01*
X0007994Y0045721D01*
X0007858Y0045581D01*
X0007725Y0045437D01*
X0007596Y0045290D01*
X0007470Y0045140D01*
X0007349Y0044987D01*
X0007230Y0044831D01*
X0007116Y0044672D01*
X0007006Y0044511D01*
X0006900Y0044346D01*
X0006797Y0044180D01*
X0006699Y0044010D01*
X0006605Y0043839D01*
X0006515Y0043665D01*
X0006430Y0043489D01*
X0006348Y0043311D01*
X0006272Y0043131D01*
X0006199Y0042949D01*
X0006131Y0042766D01*
X0006068Y0042581D01*
X0006009Y0042394D01*
X0005955Y0042206D01*
X0005905Y0042017D01*
X0005860Y0041827D01*
X0005820Y0041635D01*
X0005784Y0041443D01*
X0005753Y0041250D01*
X0005727Y0041056D01*
X0005705Y0040861D01*
X0005689Y0040666D01*
X0005677Y0040471D01*
X0005669Y0040275D01*
X0005667Y0040080D01*
X0017432Y0047138D02*
X0017600Y0047045D01*
X0017766Y0046949D01*
X0017930Y0046849D01*
X0018091Y0046744D01*
X0018250Y0046636D01*
X0018406Y0046524D01*
X0018560Y0046408D01*
X0018710Y0046289D01*
X0018858Y0046166D01*
X0019003Y0046040D01*
X0019144Y0045910D01*
X0019283Y0045777D01*
X0019418Y0045640D01*
X0019550Y0045500D01*
X0019678Y0045358D01*
X0019803Y0045212D01*
X0019925Y0045063D01*
X0020043Y0044911D01*
X0020157Y0044757D01*
X0020267Y0044599D01*
X0020374Y0044440D01*
X0020477Y0044277D01*
X0020576Y0044112D01*
X0020671Y0043945D01*
X0020761Y0043776D01*
X0020848Y0043605D01*
X0020931Y0043431D01*
X0021009Y0043256D01*
X0021083Y0043078D01*
X0021153Y0042899D01*
X0021219Y0042719D01*
X0021280Y0042537D01*
X0021337Y0042353D01*
X0021389Y0042168D01*
X0021437Y0041982D01*
X0021481Y0041795D01*
X0021520Y0041607D01*
X0021554Y0041418D01*
X0021584Y0041228D01*
X0021609Y0041038D01*
X0021630Y0040847D01*
X0021646Y0040655D01*
X0021658Y0040463D01*
X0021665Y0040271D01*
X0021667Y0040079D01*
X0008499Y0033972D02*
X0008353Y0034099D01*
X0008211Y0034228D01*
X0008071Y0034362D01*
X0007935Y0034498D01*
X0007802Y0034638D01*
X0007672Y0034781D01*
X0007546Y0034928D01*
X0007424Y0035077D01*
X0007305Y0035229D01*
X0007190Y0035384D01*
X0007078Y0035541D01*
X0006971Y0035701D01*
X0006867Y0035864D01*
X0006768Y0036030D01*
X0006672Y0036197D01*
X0006580Y0036367D01*
X0006493Y0036539D01*
X0006409Y0036713D01*
X0006330Y0036889D01*
X0006256Y0037067D01*
X0006185Y0037247D01*
X0006119Y0037428D01*
X0006057Y0037611D01*
X0006000Y0037795D01*
X0005947Y0037981D01*
X0005899Y0038168D01*
X0005855Y0038356D01*
X0005816Y0038545D01*
X0005781Y0038735D01*
X0005751Y0038925D01*
X0005725Y0039116D01*
X0005704Y0039308D01*
X0005688Y0039501D01*
X0005676Y0039693D01*
X0005669Y0039886D01*
X0005667Y0040079D01*
X0018789Y0033933D02*
X0018937Y0034060D01*
X0019082Y0034190D01*
X0019223Y0034323D01*
X0019362Y0034460D01*
X0019497Y0034600D01*
X0019628Y0034744D01*
X0019756Y0034891D01*
X0019881Y0035040D01*
X0020002Y0035193D01*
X0020119Y0035348D01*
X0020232Y0035507D01*
X0020341Y0035668D01*
X0020446Y0035832D01*
X0020548Y0035998D01*
X0020645Y0036167D01*
X0020738Y0036337D01*
X0020827Y0036511D01*
X0020912Y0036686D01*
X0020992Y0036863D01*
X0021068Y0037042D01*
X0021140Y0037223D01*
X0021207Y0037406D01*
X0021270Y0037590D01*
X0021328Y0037776D01*
X0021382Y0037963D01*
X0021431Y0038151D01*
X0021476Y0038341D01*
X0021516Y0038531D01*
X0021551Y0038723D01*
X0021582Y0038915D01*
X0021608Y0039108D01*
X0021629Y0039302D01*
X0021646Y0039496D01*
X0021658Y0039690D01*
X0021665Y0039884D01*
X0021667Y0040079D01*
D16*
X0013667Y0060880D03*
X0013667Y0089280D03*
X0058667Y0089280D03*
X0058667Y0060880D03*
D17*
X0049467Y0045080D03*
X0077867Y0045080D03*
X0089467Y0020080D03*
X0117867Y0020080D03*
X0117867Y0100080D03*
X0089467Y0100080D03*
X0047867Y0105080D03*
X0019467Y0105080D03*
M02*
