%
M48
M72
T01C0.0320
T02C0.0360
T03C0.0400
%
T01
X1367Y3508
X1367Y4508
X1367Y5508
X2867Y5508
X3367Y4508
X4367Y4508
X4367Y5508
X5867Y5508
X7367Y5508
X8367Y5508
X8367Y6508
X8367Y7508
X8367Y8508
X7367Y9508
X8367Y10008
X5867Y9508
X5367Y10508
X4367Y9508
X2867Y9508
X1367Y9508
X1367Y10508
X8367Y4508
X8367Y3508
X10367Y3508
X11867Y3508
X12867Y3508
X12367Y2008
X8367Y2008
X6367Y2008
X6367Y3008
X3367Y3508
X11367Y5508
X11367Y6508
X11367Y7508
X11367Y8508
X12367Y10008
T02
X1367Y2008
X2367Y2008
X3367Y2008
X4367Y2008
T03
X12867Y7008
X12867Y9008
M30
