G75*
%MOIN*%
%OFA0B0*%
%FSLAX25Y25*%
%IPPOS*%
%LPD*%
%AMOC8*
5,1,8,0,0,1.08239X$1,22.5*
%
%ADD10C,0.00600*%
%ADD11C,0.00500*%
%ADD12C,0.00400*%
%ADD13R,0.02500X0.09000*%
%ADD14R,0.09000X0.02500*%
%ADD15C,0.01200*%
%ADD16R,0.02000X0.10000*%
%ADD17R,0.07500X0.03000*%
%ADD18R,0.10000X0.02000*%
%ADD19R,0.03000X0.07500*%
%ADD20C,0.01000*%
D10*
X0025507Y0062683D02*
X0025509Y0062847D01*
X0025515Y0063011D01*
X0025525Y0063175D01*
X0025539Y0063339D01*
X0025557Y0063502D01*
X0025579Y0063665D01*
X0025606Y0063827D01*
X0025636Y0063989D01*
X0025670Y0064149D01*
X0025708Y0064309D01*
X0025749Y0064468D01*
X0025795Y0064626D01*
X0025845Y0064782D01*
X0025898Y0064938D01*
X0025955Y0065092D01*
X0026016Y0065244D01*
X0026081Y0065395D01*
X0026150Y0065545D01*
X0026222Y0065692D01*
X0026297Y0065838D01*
X0026377Y0065982D01*
X0026459Y0066124D01*
X0026545Y0066264D01*
X0026635Y0066401D01*
X0026728Y0066537D01*
X0026824Y0066670D01*
X0026924Y0066801D01*
X0027026Y0066929D01*
X0027132Y0067055D01*
X0027241Y0067178D01*
X0027353Y0067298D01*
X0027467Y0067416D01*
X0027585Y0067530D01*
X0027705Y0067642D01*
X0027828Y0067751D01*
X0027954Y0067857D01*
X0028082Y0067959D01*
X0028213Y0068059D01*
X0028346Y0068155D01*
X0028482Y0068248D01*
X0028619Y0068338D01*
X0028759Y0068424D01*
X0028901Y0068506D01*
X0029045Y0068586D01*
X0029191Y0068661D01*
X0029338Y0068733D01*
X0029488Y0068802D01*
X0029639Y0068867D01*
X0029791Y0068928D01*
X0029945Y0068985D01*
X0030101Y0069038D01*
X0030257Y0069088D01*
X0030415Y0069134D01*
X0030574Y0069175D01*
X0030734Y0069213D01*
X0030894Y0069247D01*
X0031056Y0069277D01*
X0031218Y0069304D01*
X0031381Y0069326D01*
X0031544Y0069344D01*
X0031708Y0069358D01*
X0031872Y0069368D01*
X0032036Y0069374D01*
X0032200Y0069376D01*
X0032364Y0069374D01*
X0032528Y0069368D01*
X0032692Y0069358D01*
X0032856Y0069344D01*
X0033019Y0069326D01*
X0033182Y0069304D01*
X0033344Y0069277D01*
X0033506Y0069247D01*
X0033666Y0069213D01*
X0033826Y0069175D01*
X0033985Y0069134D01*
X0034143Y0069088D01*
X0034299Y0069038D01*
X0034455Y0068985D01*
X0034609Y0068928D01*
X0034761Y0068867D01*
X0034912Y0068802D01*
X0035062Y0068733D01*
X0035209Y0068661D01*
X0035355Y0068586D01*
X0035499Y0068506D01*
X0035641Y0068424D01*
X0035781Y0068338D01*
X0035918Y0068248D01*
X0036054Y0068155D01*
X0036187Y0068059D01*
X0036318Y0067959D01*
X0036446Y0067857D01*
X0036572Y0067751D01*
X0036695Y0067642D01*
X0036815Y0067530D01*
X0036933Y0067416D01*
X0037047Y0067298D01*
X0037159Y0067178D01*
X0037268Y0067055D01*
X0037374Y0066929D01*
X0037476Y0066801D01*
X0037576Y0066670D01*
X0037672Y0066537D01*
X0037765Y0066401D01*
X0037855Y0066264D01*
X0037941Y0066124D01*
X0038023Y0065982D01*
X0038103Y0065838D01*
X0038178Y0065692D01*
X0038250Y0065545D01*
X0038319Y0065395D01*
X0038384Y0065244D01*
X0038445Y0065092D01*
X0038502Y0064938D01*
X0038555Y0064782D01*
X0038605Y0064626D01*
X0038651Y0064468D01*
X0038692Y0064309D01*
X0038730Y0064149D01*
X0038764Y0063989D01*
X0038794Y0063827D01*
X0038821Y0063665D01*
X0038843Y0063502D01*
X0038861Y0063339D01*
X0038875Y0063175D01*
X0038885Y0063011D01*
X0038891Y0062847D01*
X0038893Y0062683D01*
X0038891Y0062519D01*
X0038885Y0062355D01*
X0038875Y0062191D01*
X0038861Y0062027D01*
X0038843Y0061864D01*
X0038821Y0061701D01*
X0038794Y0061539D01*
X0038764Y0061377D01*
X0038730Y0061217D01*
X0038692Y0061057D01*
X0038651Y0060898D01*
X0038605Y0060740D01*
X0038555Y0060584D01*
X0038502Y0060428D01*
X0038445Y0060274D01*
X0038384Y0060122D01*
X0038319Y0059971D01*
X0038250Y0059821D01*
X0038178Y0059674D01*
X0038103Y0059528D01*
X0038023Y0059384D01*
X0037941Y0059242D01*
X0037855Y0059102D01*
X0037765Y0058965D01*
X0037672Y0058829D01*
X0037576Y0058696D01*
X0037476Y0058565D01*
X0037374Y0058437D01*
X0037268Y0058311D01*
X0037159Y0058188D01*
X0037047Y0058068D01*
X0036933Y0057950D01*
X0036815Y0057836D01*
X0036695Y0057724D01*
X0036572Y0057615D01*
X0036446Y0057509D01*
X0036318Y0057407D01*
X0036187Y0057307D01*
X0036054Y0057211D01*
X0035918Y0057118D01*
X0035781Y0057028D01*
X0035641Y0056942D01*
X0035499Y0056860D01*
X0035355Y0056780D01*
X0035209Y0056705D01*
X0035062Y0056633D01*
X0034912Y0056564D01*
X0034761Y0056499D01*
X0034609Y0056438D01*
X0034455Y0056381D01*
X0034299Y0056328D01*
X0034143Y0056278D01*
X0033985Y0056232D01*
X0033826Y0056191D01*
X0033666Y0056153D01*
X0033506Y0056119D01*
X0033344Y0056089D01*
X0033182Y0056062D01*
X0033019Y0056040D01*
X0032856Y0056022D01*
X0032692Y0056008D01*
X0032528Y0055998D01*
X0032364Y0055992D01*
X0032200Y0055990D01*
X0032036Y0055992D01*
X0031872Y0055998D01*
X0031708Y0056008D01*
X0031544Y0056022D01*
X0031381Y0056040D01*
X0031218Y0056062D01*
X0031056Y0056089D01*
X0030894Y0056119D01*
X0030734Y0056153D01*
X0030574Y0056191D01*
X0030415Y0056232D01*
X0030257Y0056278D01*
X0030101Y0056328D01*
X0029945Y0056381D01*
X0029791Y0056438D01*
X0029639Y0056499D01*
X0029488Y0056564D01*
X0029338Y0056633D01*
X0029191Y0056705D01*
X0029045Y0056780D01*
X0028901Y0056860D01*
X0028759Y0056942D01*
X0028619Y0057028D01*
X0028482Y0057118D01*
X0028346Y0057211D01*
X0028213Y0057307D01*
X0028082Y0057407D01*
X0027954Y0057509D01*
X0027828Y0057615D01*
X0027705Y0057724D01*
X0027585Y0057836D01*
X0027467Y0057950D01*
X0027353Y0058068D01*
X0027241Y0058188D01*
X0027132Y0058311D01*
X0027026Y0058437D01*
X0026924Y0058565D01*
X0026824Y0058696D01*
X0026728Y0058829D01*
X0026635Y0058965D01*
X0026545Y0059102D01*
X0026459Y0059242D01*
X0026377Y0059384D01*
X0026297Y0059528D01*
X0026222Y0059674D01*
X0026150Y0059821D01*
X0026081Y0059971D01*
X0026016Y0060122D01*
X0025955Y0060274D01*
X0025898Y0060428D01*
X0025845Y0060584D01*
X0025795Y0060740D01*
X0025749Y0060898D01*
X0025708Y0061057D01*
X0025670Y0061217D01*
X0025636Y0061377D01*
X0025606Y0061539D01*
X0025579Y0061701D01*
X0025557Y0061864D01*
X0025539Y0062027D01*
X0025525Y0062191D01*
X0025515Y0062355D01*
X0025509Y0062519D01*
X0025507Y0062683D01*
X0018700Y0062683D02*
X0018704Y0063014D01*
X0018716Y0063345D01*
X0018737Y0063676D01*
X0018765Y0064006D01*
X0018802Y0064336D01*
X0018846Y0064664D01*
X0018899Y0064991D01*
X0018959Y0065317D01*
X0019028Y0065641D01*
X0019105Y0065963D01*
X0019189Y0066284D01*
X0019281Y0066602D01*
X0019381Y0066918D01*
X0019489Y0067231D01*
X0019605Y0067542D01*
X0019728Y0067849D01*
X0019858Y0068154D01*
X0019996Y0068455D01*
X0020141Y0068753D01*
X0020294Y0069047D01*
X0020454Y0069337D01*
X0020621Y0069623D01*
X0020794Y0069905D01*
X0020975Y0070183D01*
X0021163Y0070456D01*
X0021357Y0070725D01*
X0021557Y0070989D01*
X0021764Y0071247D01*
X0021978Y0071501D01*
X0022197Y0071749D01*
X0022423Y0071992D01*
X0022654Y0072229D01*
X0022891Y0072460D01*
X0023134Y0072686D01*
X0023382Y0072905D01*
X0023636Y0073119D01*
X0023894Y0073326D01*
X0024158Y0073526D01*
X0024427Y0073720D01*
X0024700Y0073908D01*
X0024978Y0074089D01*
X0025260Y0074262D01*
X0025546Y0074429D01*
X0025836Y0074589D01*
X0026130Y0074742D01*
X0026428Y0074887D01*
X0026729Y0075025D01*
X0027034Y0075155D01*
X0027341Y0075278D01*
X0027652Y0075394D01*
X0027965Y0075502D01*
X0028281Y0075602D01*
X0028599Y0075694D01*
X0028920Y0075778D01*
X0029242Y0075855D01*
X0029566Y0075924D01*
X0029892Y0075984D01*
X0030219Y0076037D01*
X0030547Y0076081D01*
X0030877Y0076118D01*
X0031207Y0076146D01*
X0031538Y0076167D01*
X0031869Y0076179D01*
X0032200Y0076183D01*
X0032531Y0076179D01*
X0032862Y0076167D01*
X0033193Y0076146D01*
X0033523Y0076118D01*
X0033853Y0076081D01*
X0034181Y0076037D01*
X0034508Y0075984D01*
X0034834Y0075924D01*
X0035158Y0075855D01*
X0035480Y0075778D01*
X0035801Y0075694D01*
X0036119Y0075602D01*
X0036435Y0075502D01*
X0036748Y0075394D01*
X0037059Y0075278D01*
X0037366Y0075155D01*
X0037671Y0075025D01*
X0037972Y0074887D01*
X0038270Y0074742D01*
X0038564Y0074589D01*
X0038854Y0074429D01*
X0039140Y0074262D01*
X0039422Y0074089D01*
X0039700Y0073908D01*
X0039973Y0073720D01*
X0040242Y0073526D01*
X0040506Y0073326D01*
X0040764Y0073119D01*
X0041018Y0072905D01*
X0041266Y0072686D01*
X0041509Y0072460D01*
X0041746Y0072229D01*
X0041977Y0071992D01*
X0042203Y0071749D01*
X0042422Y0071501D01*
X0042636Y0071247D01*
X0042843Y0070989D01*
X0043043Y0070725D01*
X0043237Y0070456D01*
X0043425Y0070183D01*
X0043606Y0069905D01*
X0043779Y0069623D01*
X0043946Y0069337D01*
X0044106Y0069047D01*
X0044259Y0068753D01*
X0044404Y0068455D01*
X0044542Y0068154D01*
X0044672Y0067849D01*
X0044795Y0067542D01*
X0044911Y0067231D01*
X0045019Y0066918D01*
X0045119Y0066602D01*
X0045211Y0066284D01*
X0045295Y0065963D01*
X0045372Y0065641D01*
X0045441Y0065317D01*
X0045501Y0064991D01*
X0045554Y0064664D01*
X0045598Y0064336D01*
X0045635Y0064006D01*
X0045663Y0063676D01*
X0045684Y0063345D01*
X0045696Y0063014D01*
X0045700Y0062683D01*
X0045696Y0062352D01*
X0045684Y0062021D01*
X0045663Y0061690D01*
X0045635Y0061360D01*
X0045598Y0061030D01*
X0045554Y0060702D01*
X0045501Y0060375D01*
X0045441Y0060049D01*
X0045372Y0059725D01*
X0045295Y0059403D01*
X0045211Y0059082D01*
X0045119Y0058764D01*
X0045019Y0058448D01*
X0044911Y0058135D01*
X0044795Y0057824D01*
X0044672Y0057517D01*
X0044542Y0057212D01*
X0044404Y0056911D01*
X0044259Y0056613D01*
X0044106Y0056319D01*
X0043946Y0056029D01*
X0043779Y0055743D01*
X0043606Y0055461D01*
X0043425Y0055183D01*
X0043237Y0054910D01*
X0043043Y0054641D01*
X0042843Y0054377D01*
X0042636Y0054119D01*
X0042422Y0053865D01*
X0042203Y0053617D01*
X0041977Y0053374D01*
X0041746Y0053137D01*
X0041509Y0052906D01*
X0041266Y0052680D01*
X0041018Y0052461D01*
X0040764Y0052247D01*
X0040506Y0052040D01*
X0040242Y0051840D01*
X0039973Y0051646D01*
X0039700Y0051458D01*
X0039422Y0051277D01*
X0039140Y0051104D01*
X0038854Y0050937D01*
X0038564Y0050777D01*
X0038270Y0050624D01*
X0037972Y0050479D01*
X0037671Y0050341D01*
X0037366Y0050211D01*
X0037059Y0050088D01*
X0036748Y0049972D01*
X0036435Y0049864D01*
X0036119Y0049764D01*
X0035801Y0049672D01*
X0035480Y0049588D01*
X0035158Y0049511D01*
X0034834Y0049442D01*
X0034508Y0049382D01*
X0034181Y0049329D01*
X0033853Y0049285D01*
X0033523Y0049248D01*
X0033193Y0049220D01*
X0032862Y0049199D01*
X0032531Y0049187D01*
X0032200Y0049183D01*
X0031869Y0049187D01*
X0031538Y0049199D01*
X0031207Y0049220D01*
X0030877Y0049248D01*
X0030547Y0049285D01*
X0030219Y0049329D01*
X0029892Y0049382D01*
X0029566Y0049442D01*
X0029242Y0049511D01*
X0028920Y0049588D01*
X0028599Y0049672D01*
X0028281Y0049764D01*
X0027965Y0049864D01*
X0027652Y0049972D01*
X0027341Y0050088D01*
X0027034Y0050211D01*
X0026729Y0050341D01*
X0026428Y0050479D01*
X0026130Y0050624D01*
X0025836Y0050777D01*
X0025546Y0050937D01*
X0025260Y0051104D01*
X0024978Y0051277D01*
X0024700Y0051458D01*
X0024427Y0051646D01*
X0024158Y0051840D01*
X0023894Y0052040D01*
X0023636Y0052247D01*
X0023382Y0052461D01*
X0023134Y0052680D01*
X0022891Y0052906D01*
X0022654Y0053137D01*
X0022423Y0053374D01*
X0022197Y0053617D01*
X0021978Y0053865D01*
X0021764Y0054119D01*
X0021557Y0054377D01*
X0021357Y0054641D01*
X0021163Y0054910D01*
X0020975Y0055183D01*
X0020794Y0055461D01*
X0020621Y0055743D01*
X0020454Y0056029D01*
X0020294Y0056319D01*
X0020141Y0056613D01*
X0019996Y0056911D01*
X0019858Y0057212D01*
X0019728Y0057517D01*
X0019605Y0057824D01*
X0019489Y0058135D01*
X0019381Y0058448D01*
X0019281Y0058764D01*
X0019189Y0059082D01*
X0019105Y0059403D01*
X0019028Y0059725D01*
X0018959Y0060049D01*
X0018899Y0060375D01*
X0018846Y0060702D01*
X0018802Y0061030D01*
X0018765Y0061360D01*
X0018737Y0061690D01*
X0018716Y0062021D01*
X0018704Y0062352D01*
X0018700Y0062683D01*
X0021200Y0107433D02*
X0021200Y0150433D01*
X0024700Y0150433D01*
X0029700Y0150433D02*
X0034700Y0150433D01*
X0039700Y0150433D02*
X0083200Y0150433D01*
X0083200Y0107433D01*
X0039700Y0107433D01*
X0034700Y0107433D02*
X0029700Y0107433D01*
X0024700Y0107433D02*
X0021200Y0107433D01*
X0027200Y0120933D02*
X0027200Y0125933D01*
X0026200Y0125433D02*
X0031200Y0128933D01*
X0077200Y0128933D01*
X0077200Y0137933D01*
X0077200Y0128933D02*
X0077200Y0119933D01*
X0057200Y0117933D02*
X0050200Y0117933D01*
X0047700Y0117933D01*
X0052700Y0125933D01*
X0050200Y0125933D01*
X0042700Y0125933D01*
X0042700Y0117933D01*
X0047700Y0117933D01*
X0050200Y0117933D02*
X0050200Y0113933D01*
X0042700Y0113933D01*
X0057200Y0117933D02*
X0057200Y0125933D01*
X0052700Y0125933D01*
X0050200Y0125933D02*
X0050200Y0143933D01*
X0042700Y0143933D01*
X0027200Y0136933D02*
X0027200Y0132433D01*
X0049200Y0158933D02*
X0049200Y0168933D01*
X0065200Y0168933D01*
X0065200Y0158933D01*
X0049200Y0158933D01*
X0054700Y0163933D02*
X0057200Y0163933D01*
X0057200Y0161433D01*
X0057200Y0163933D02*
X0057200Y0166433D01*
X0057200Y0163933D02*
X0061200Y0166433D01*
X0061200Y0161433D01*
X0057200Y0163933D01*
X0063200Y0163933D01*
X0050200Y0183933D02*
X0042700Y0183933D01*
X0042700Y0187933D02*
X0047700Y0187933D01*
X0052700Y0195933D01*
X0050200Y0195933D01*
X0042700Y0195933D01*
X0042700Y0187933D01*
X0047700Y0187933D02*
X0050200Y0187933D01*
X0057200Y0187933D01*
X0057200Y0195933D01*
X0052700Y0195933D01*
X0050200Y0195933D02*
X0050200Y0213933D01*
X0042700Y0213933D01*
X0039700Y0220433D02*
X0083200Y0220433D01*
X0083200Y0177433D01*
X0039700Y0177433D01*
X0034700Y0177433D02*
X0029700Y0177433D01*
X0024700Y0177433D02*
X0021200Y0177433D01*
X0021200Y0220433D01*
X0024700Y0220433D01*
X0029700Y0220433D02*
X0034700Y0220433D01*
X0027200Y0206933D02*
X0027200Y0202433D01*
X0031200Y0198933D02*
X0077200Y0198933D01*
X0077200Y0207933D01*
X0077200Y0198933D02*
X0077200Y0189933D01*
X0050200Y0187933D02*
X0050200Y0183933D01*
X0031200Y0198933D02*
X0026200Y0195433D01*
X0027200Y0195933D02*
X0027200Y0190933D01*
X0098700Y0243933D02*
X0098702Y0244085D01*
X0098708Y0244236D01*
X0098717Y0244387D01*
X0098731Y0244539D01*
X0098748Y0244689D01*
X0098769Y0244839D01*
X0098794Y0244989D01*
X0098822Y0245138D01*
X0098855Y0245286D01*
X0098891Y0245433D01*
X0098930Y0245580D01*
X0098974Y0245725D01*
X0099021Y0245869D01*
X0099072Y0246012D01*
X0099126Y0246153D01*
X0099184Y0246294D01*
X0099245Y0246432D01*
X0099310Y0246569D01*
X0099379Y0246705D01*
X0099450Y0246838D01*
X0099525Y0246970D01*
X0099604Y0247100D01*
X0099685Y0247227D01*
X0099770Y0247353D01*
X0099858Y0247477D01*
X0099949Y0247598D01*
X0100043Y0247717D01*
X0100141Y0247833D01*
X0100241Y0247947D01*
X0100343Y0248059D01*
X0100449Y0248167D01*
X0100557Y0248273D01*
X0100668Y0248377D01*
X0100782Y0248477D01*
X0100898Y0248575D01*
X0101017Y0248669D01*
X0110700Y0243933D02*
X0110698Y0243779D01*
X0110692Y0243625D01*
X0110682Y0243471D01*
X0110668Y0243317D01*
X0110651Y0243164D01*
X0110629Y0243012D01*
X0110603Y0242860D01*
X0110574Y0242708D01*
X0110540Y0242558D01*
X0110503Y0242408D01*
X0110462Y0242260D01*
X0110417Y0242112D01*
X0110368Y0241966D01*
X0110316Y0241821D01*
X0110260Y0241678D01*
X0110200Y0241535D01*
X0110137Y0241395D01*
X0110070Y0241256D01*
X0109999Y0241119D01*
X0109925Y0240984D01*
X0109848Y0240851D01*
X0109767Y0240719D01*
X0109683Y0240590D01*
X0109595Y0240463D01*
X0109504Y0240339D01*
X0109411Y0240217D01*
X0109313Y0240097D01*
X0109213Y0239980D01*
X0109110Y0239865D01*
X0109004Y0239753D01*
X0108896Y0239644D01*
X0108784Y0239538D01*
X0108670Y0239434D01*
X0108553Y0239334D01*
X0108434Y0239236D01*
X0108312Y0239142D01*
X0108187Y0239051D01*
X0110700Y0243933D02*
X0110698Y0244083D01*
X0110692Y0244234D01*
X0110683Y0244384D01*
X0110670Y0244533D01*
X0110653Y0244683D01*
X0110632Y0244832D01*
X0110608Y0244980D01*
X0110580Y0245128D01*
X0110548Y0245275D01*
X0110513Y0245421D01*
X0110473Y0245566D01*
X0110431Y0245710D01*
X0110384Y0245853D01*
X0110334Y0245995D01*
X0110281Y0246136D01*
X0110224Y0246275D01*
X0110164Y0246413D01*
X0110100Y0246549D01*
X0110033Y0246683D01*
X0109962Y0246816D01*
X0109888Y0246947D01*
X0109811Y0247076D01*
X0109730Y0247203D01*
X0109647Y0247328D01*
X0109560Y0247451D01*
X0109471Y0247572D01*
X0109378Y0247690D01*
X0109282Y0247806D01*
X0109184Y0247920D01*
X0109083Y0248031D01*
X0108978Y0248140D01*
X0108872Y0248245D01*
X0108762Y0248349D01*
X0108650Y0248449D01*
X0108536Y0248547D01*
X0108419Y0248641D01*
X0108300Y0248733D01*
X0098700Y0243933D02*
X0098702Y0243781D01*
X0098708Y0243630D01*
X0098717Y0243479D01*
X0098731Y0243327D01*
X0098748Y0243177D01*
X0098769Y0243027D01*
X0098794Y0242877D01*
X0098822Y0242728D01*
X0098855Y0242580D01*
X0098891Y0242433D01*
X0098930Y0242286D01*
X0098974Y0242141D01*
X0099021Y0241997D01*
X0099072Y0241854D01*
X0099126Y0241713D01*
X0099184Y0241572D01*
X0099245Y0241434D01*
X0099310Y0241297D01*
X0099379Y0241161D01*
X0099450Y0241028D01*
X0099525Y0240896D01*
X0099604Y0240766D01*
X0099685Y0240639D01*
X0099770Y0240513D01*
X0099858Y0240389D01*
X0099949Y0240268D01*
X0100043Y0240149D01*
X0100141Y0240033D01*
X0100241Y0239919D01*
X0100343Y0239807D01*
X0100449Y0239699D01*
X0100557Y0239593D01*
X0100668Y0239489D01*
X0100782Y0239389D01*
X0100898Y0239291D01*
X0101017Y0239197D01*
X0125700Y0257933D02*
X0125700Y0301433D01*
X0125700Y0306433D02*
X0125700Y0311433D01*
X0125700Y0316433D02*
X0125700Y0319933D01*
X0168700Y0319933D01*
X0168700Y0316433D01*
X0168700Y0311433D02*
X0168700Y0306433D01*
X0168700Y0301433D02*
X0168700Y0257933D01*
X0125700Y0257933D01*
X0138200Y0263933D02*
X0147200Y0263933D01*
X0156200Y0263933D01*
X0147200Y0263933D02*
X0147200Y0309933D01*
X0143700Y0314933D01*
X0144200Y0313933D02*
X0139200Y0313933D01*
X0150700Y0313933D02*
X0155200Y0313933D01*
X0137700Y0331933D02*
X0137700Y0335933D01*
X0134200Y0339433D01*
X0130200Y0339433D01*
X0126700Y0335933D01*
X0126700Y0331933D01*
X0130200Y0328433D01*
X0134200Y0328433D01*
X0137700Y0331933D01*
X0136200Y0298433D02*
X0136200Y0293433D01*
X0144200Y0288433D01*
X0144200Y0290933D01*
X0144200Y0298433D01*
X0136200Y0298433D01*
X0132200Y0298433D02*
X0132200Y0290933D01*
X0136200Y0290933D01*
X0136200Y0293433D01*
X0136200Y0290933D02*
X0136200Y0283933D01*
X0144200Y0283933D01*
X0144200Y0288433D01*
X0144200Y0290933D02*
X0162200Y0290933D01*
X0162200Y0298433D01*
X0172200Y0291933D02*
X0182200Y0291933D01*
X0182200Y0275933D01*
X0172200Y0275933D01*
X0172200Y0291933D01*
X0177200Y0286433D02*
X0177200Y0283933D01*
X0174700Y0283933D01*
X0177200Y0283933D02*
X0174700Y0279933D01*
X0179700Y0279933D01*
X0177200Y0283933D01*
X0179700Y0283933D01*
X0177200Y0283933D02*
X0177200Y0277933D01*
X0215700Y0257933D02*
X0215700Y0301433D01*
X0215700Y0306433D02*
X0215700Y0311433D01*
X0215700Y0316433D02*
X0215700Y0319933D01*
X0258700Y0319933D01*
X0258700Y0316433D01*
X0258700Y0311433D02*
X0258700Y0306433D01*
X0258700Y0301433D02*
X0258700Y0257933D01*
X0215700Y0257933D01*
X0228200Y0263933D02*
X0237200Y0263933D01*
X0246200Y0263933D01*
X0237200Y0263933D02*
X0237200Y0309933D01*
X0233700Y0314933D01*
X0234200Y0313933D02*
X0229200Y0313933D01*
X0240700Y0313933D02*
X0245200Y0313933D01*
X0250200Y0328433D02*
X0254200Y0328433D01*
X0257700Y0331933D01*
X0257700Y0335933D01*
X0254200Y0339433D01*
X0250200Y0339433D01*
X0246700Y0335933D01*
X0246700Y0331933D01*
X0250200Y0328433D01*
X0227700Y0331933D02*
X0227700Y0335933D01*
X0224200Y0339433D01*
X0220200Y0339433D01*
X0216700Y0335933D01*
X0216700Y0331933D01*
X0220200Y0328433D01*
X0224200Y0328433D01*
X0227700Y0331933D01*
X0208200Y0318933D02*
X0208198Y0318779D01*
X0208192Y0318625D01*
X0208182Y0318471D01*
X0208168Y0318317D01*
X0208151Y0318164D01*
X0208129Y0318012D01*
X0208103Y0317860D01*
X0208074Y0317708D01*
X0208040Y0317558D01*
X0208003Y0317408D01*
X0207962Y0317260D01*
X0207917Y0317112D01*
X0207868Y0316966D01*
X0207816Y0316821D01*
X0207760Y0316678D01*
X0207700Y0316535D01*
X0207637Y0316395D01*
X0207570Y0316256D01*
X0207499Y0316119D01*
X0207425Y0315984D01*
X0207348Y0315851D01*
X0207267Y0315719D01*
X0207183Y0315590D01*
X0207095Y0315463D01*
X0207004Y0315339D01*
X0206911Y0315217D01*
X0206813Y0315097D01*
X0206713Y0314980D01*
X0206610Y0314865D01*
X0206504Y0314753D01*
X0206396Y0314644D01*
X0206284Y0314538D01*
X0206170Y0314434D01*
X0206053Y0314334D01*
X0205934Y0314236D01*
X0205812Y0314142D01*
X0205687Y0314051D01*
X0196200Y0318933D02*
X0196202Y0319085D01*
X0196208Y0319236D01*
X0196217Y0319387D01*
X0196231Y0319539D01*
X0196248Y0319689D01*
X0196269Y0319839D01*
X0196294Y0319989D01*
X0196322Y0320138D01*
X0196355Y0320286D01*
X0196391Y0320433D01*
X0196430Y0320580D01*
X0196474Y0320725D01*
X0196521Y0320869D01*
X0196572Y0321012D01*
X0196626Y0321153D01*
X0196684Y0321294D01*
X0196745Y0321432D01*
X0196810Y0321569D01*
X0196879Y0321705D01*
X0196950Y0321838D01*
X0197025Y0321970D01*
X0197104Y0322100D01*
X0197185Y0322227D01*
X0197270Y0322353D01*
X0197358Y0322477D01*
X0197449Y0322598D01*
X0197543Y0322717D01*
X0197641Y0322833D01*
X0197741Y0322947D01*
X0197843Y0323059D01*
X0197949Y0323167D01*
X0198057Y0323273D01*
X0198168Y0323377D01*
X0198282Y0323477D01*
X0198398Y0323575D01*
X0198517Y0323669D01*
X0196200Y0318933D02*
X0196202Y0318781D01*
X0196208Y0318630D01*
X0196217Y0318479D01*
X0196231Y0318327D01*
X0196248Y0318177D01*
X0196269Y0318027D01*
X0196294Y0317877D01*
X0196322Y0317728D01*
X0196355Y0317580D01*
X0196391Y0317433D01*
X0196430Y0317286D01*
X0196474Y0317141D01*
X0196521Y0316997D01*
X0196572Y0316854D01*
X0196626Y0316713D01*
X0196684Y0316572D01*
X0196745Y0316434D01*
X0196810Y0316297D01*
X0196879Y0316161D01*
X0196950Y0316028D01*
X0197025Y0315896D01*
X0197104Y0315766D01*
X0197185Y0315639D01*
X0197270Y0315513D01*
X0197358Y0315389D01*
X0197449Y0315268D01*
X0197543Y0315149D01*
X0197641Y0315033D01*
X0197741Y0314919D01*
X0197843Y0314807D01*
X0197949Y0314699D01*
X0198057Y0314593D01*
X0198168Y0314489D01*
X0198282Y0314389D01*
X0198398Y0314291D01*
X0198517Y0314197D01*
X0208200Y0318933D02*
X0208198Y0319083D01*
X0208192Y0319234D01*
X0208183Y0319384D01*
X0208170Y0319533D01*
X0208153Y0319683D01*
X0208132Y0319832D01*
X0208108Y0319980D01*
X0208080Y0320128D01*
X0208048Y0320275D01*
X0208013Y0320421D01*
X0207973Y0320566D01*
X0207931Y0320710D01*
X0207884Y0320853D01*
X0207834Y0320995D01*
X0207781Y0321136D01*
X0207724Y0321275D01*
X0207664Y0321413D01*
X0207600Y0321549D01*
X0207533Y0321683D01*
X0207462Y0321816D01*
X0207388Y0321947D01*
X0207311Y0322076D01*
X0207230Y0322203D01*
X0207147Y0322328D01*
X0207060Y0322451D01*
X0206971Y0322572D01*
X0206878Y0322690D01*
X0206782Y0322806D01*
X0206684Y0322920D01*
X0206583Y0323031D01*
X0206478Y0323140D01*
X0206372Y0323245D01*
X0206262Y0323349D01*
X0206150Y0323449D01*
X0206036Y0323547D01*
X0205919Y0323641D01*
X0205800Y0323733D01*
X0188200Y0318933D02*
X0188198Y0318779D01*
X0188192Y0318625D01*
X0188182Y0318471D01*
X0188168Y0318317D01*
X0188151Y0318164D01*
X0188129Y0318012D01*
X0188103Y0317860D01*
X0188074Y0317708D01*
X0188040Y0317558D01*
X0188003Y0317408D01*
X0187962Y0317260D01*
X0187917Y0317112D01*
X0187868Y0316966D01*
X0187816Y0316821D01*
X0187760Y0316678D01*
X0187700Y0316535D01*
X0187637Y0316395D01*
X0187570Y0316256D01*
X0187499Y0316119D01*
X0187425Y0315984D01*
X0187348Y0315851D01*
X0187267Y0315719D01*
X0187183Y0315590D01*
X0187095Y0315463D01*
X0187004Y0315339D01*
X0186911Y0315217D01*
X0186813Y0315097D01*
X0186713Y0314980D01*
X0186610Y0314865D01*
X0186504Y0314753D01*
X0186396Y0314644D01*
X0186284Y0314538D01*
X0186170Y0314434D01*
X0186053Y0314334D01*
X0185934Y0314236D01*
X0185812Y0314142D01*
X0185687Y0314051D01*
X0176200Y0318933D02*
X0176202Y0319085D01*
X0176208Y0319236D01*
X0176217Y0319387D01*
X0176231Y0319539D01*
X0176248Y0319689D01*
X0176269Y0319839D01*
X0176294Y0319989D01*
X0176322Y0320138D01*
X0176355Y0320286D01*
X0176391Y0320433D01*
X0176430Y0320580D01*
X0176474Y0320725D01*
X0176521Y0320869D01*
X0176572Y0321012D01*
X0176626Y0321153D01*
X0176684Y0321294D01*
X0176745Y0321432D01*
X0176810Y0321569D01*
X0176879Y0321705D01*
X0176950Y0321838D01*
X0177025Y0321970D01*
X0177104Y0322100D01*
X0177185Y0322227D01*
X0177270Y0322353D01*
X0177358Y0322477D01*
X0177449Y0322598D01*
X0177543Y0322717D01*
X0177641Y0322833D01*
X0177741Y0322947D01*
X0177843Y0323059D01*
X0177949Y0323167D01*
X0178057Y0323273D01*
X0178168Y0323377D01*
X0178282Y0323477D01*
X0178398Y0323575D01*
X0178517Y0323669D01*
X0176200Y0318933D02*
X0176202Y0318781D01*
X0176208Y0318630D01*
X0176217Y0318479D01*
X0176231Y0318327D01*
X0176248Y0318177D01*
X0176269Y0318027D01*
X0176294Y0317877D01*
X0176322Y0317728D01*
X0176355Y0317580D01*
X0176391Y0317433D01*
X0176430Y0317286D01*
X0176474Y0317141D01*
X0176521Y0316997D01*
X0176572Y0316854D01*
X0176626Y0316713D01*
X0176684Y0316572D01*
X0176745Y0316434D01*
X0176810Y0316297D01*
X0176879Y0316161D01*
X0176950Y0316028D01*
X0177025Y0315896D01*
X0177104Y0315766D01*
X0177185Y0315639D01*
X0177270Y0315513D01*
X0177358Y0315389D01*
X0177449Y0315268D01*
X0177543Y0315149D01*
X0177641Y0315033D01*
X0177741Y0314919D01*
X0177843Y0314807D01*
X0177949Y0314699D01*
X0178057Y0314593D01*
X0178168Y0314489D01*
X0178282Y0314389D01*
X0178398Y0314291D01*
X0178517Y0314197D01*
X0188200Y0318933D02*
X0188198Y0319083D01*
X0188192Y0319234D01*
X0188183Y0319384D01*
X0188170Y0319533D01*
X0188153Y0319683D01*
X0188132Y0319832D01*
X0188108Y0319980D01*
X0188080Y0320128D01*
X0188048Y0320275D01*
X0188013Y0320421D01*
X0187973Y0320566D01*
X0187931Y0320710D01*
X0187884Y0320853D01*
X0187834Y0320995D01*
X0187781Y0321136D01*
X0187724Y0321275D01*
X0187664Y0321413D01*
X0187600Y0321549D01*
X0187533Y0321683D01*
X0187462Y0321816D01*
X0187388Y0321947D01*
X0187311Y0322076D01*
X0187230Y0322203D01*
X0187147Y0322328D01*
X0187060Y0322451D01*
X0186971Y0322572D01*
X0186878Y0322690D01*
X0186782Y0322806D01*
X0186684Y0322920D01*
X0186583Y0323031D01*
X0186478Y0323140D01*
X0186372Y0323245D01*
X0186262Y0323349D01*
X0186150Y0323449D01*
X0186036Y0323547D01*
X0185919Y0323641D01*
X0185800Y0323733D01*
X0222200Y0298433D02*
X0222200Y0290933D01*
X0226200Y0290933D01*
X0226200Y0293433D01*
X0234200Y0288433D01*
X0234200Y0290933D01*
X0234200Y0298433D01*
X0226200Y0298433D01*
X0226200Y0293433D01*
X0226200Y0290933D02*
X0226200Y0283933D01*
X0234200Y0283933D01*
X0234200Y0288433D01*
X0234200Y0290933D02*
X0252200Y0290933D01*
X0252200Y0298433D01*
X0230192Y0244248D02*
X0224483Y0244248D01*
X0228224Y0240311D02*
X0228224Y0237555D01*
X0230192Y0237555D01*
X0230192Y0233618D01*
X0224483Y0233618D01*
X0228224Y0240311D02*
X0230192Y0240311D01*
X0230192Y0244248D01*
X0340507Y0161433D02*
X0340509Y0161597D01*
X0340515Y0161761D01*
X0340525Y0161925D01*
X0340539Y0162089D01*
X0340557Y0162252D01*
X0340579Y0162415D01*
X0340606Y0162577D01*
X0340636Y0162739D01*
X0340670Y0162899D01*
X0340708Y0163059D01*
X0340749Y0163218D01*
X0340795Y0163376D01*
X0340845Y0163532D01*
X0340898Y0163688D01*
X0340955Y0163842D01*
X0341016Y0163994D01*
X0341081Y0164145D01*
X0341150Y0164295D01*
X0341222Y0164442D01*
X0341297Y0164588D01*
X0341377Y0164732D01*
X0341459Y0164874D01*
X0341545Y0165014D01*
X0341635Y0165151D01*
X0341728Y0165287D01*
X0341824Y0165420D01*
X0341924Y0165551D01*
X0342026Y0165679D01*
X0342132Y0165805D01*
X0342241Y0165928D01*
X0342353Y0166048D01*
X0342467Y0166166D01*
X0342585Y0166280D01*
X0342705Y0166392D01*
X0342828Y0166501D01*
X0342954Y0166607D01*
X0343082Y0166709D01*
X0343213Y0166809D01*
X0343346Y0166905D01*
X0343482Y0166998D01*
X0343619Y0167088D01*
X0343759Y0167174D01*
X0343901Y0167256D01*
X0344045Y0167336D01*
X0344191Y0167411D01*
X0344338Y0167483D01*
X0344488Y0167552D01*
X0344639Y0167617D01*
X0344791Y0167678D01*
X0344945Y0167735D01*
X0345101Y0167788D01*
X0345257Y0167838D01*
X0345415Y0167884D01*
X0345574Y0167925D01*
X0345734Y0167963D01*
X0345894Y0167997D01*
X0346056Y0168027D01*
X0346218Y0168054D01*
X0346381Y0168076D01*
X0346544Y0168094D01*
X0346708Y0168108D01*
X0346872Y0168118D01*
X0347036Y0168124D01*
X0347200Y0168126D01*
X0347364Y0168124D01*
X0347528Y0168118D01*
X0347692Y0168108D01*
X0347856Y0168094D01*
X0348019Y0168076D01*
X0348182Y0168054D01*
X0348344Y0168027D01*
X0348506Y0167997D01*
X0348666Y0167963D01*
X0348826Y0167925D01*
X0348985Y0167884D01*
X0349143Y0167838D01*
X0349299Y0167788D01*
X0349455Y0167735D01*
X0349609Y0167678D01*
X0349761Y0167617D01*
X0349912Y0167552D01*
X0350062Y0167483D01*
X0350209Y0167411D01*
X0350355Y0167336D01*
X0350499Y0167256D01*
X0350641Y0167174D01*
X0350781Y0167088D01*
X0350918Y0166998D01*
X0351054Y0166905D01*
X0351187Y0166809D01*
X0351318Y0166709D01*
X0351446Y0166607D01*
X0351572Y0166501D01*
X0351695Y0166392D01*
X0351815Y0166280D01*
X0351933Y0166166D01*
X0352047Y0166048D01*
X0352159Y0165928D01*
X0352268Y0165805D01*
X0352374Y0165679D01*
X0352476Y0165551D01*
X0352576Y0165420D01*
X0352672Y0165287D01*
X0352765Y0165151D01*
X0352855Y0165014D01*
X0352941Y0164874D01*
X0353023Y0164732D01*
X0353103Y0164588D01*
X0353178Y0164442D01*
X0353250Y0164295D01*
X0353319Y0164145D01*
X0353384Y0163994D01*
X0353445Y0163842D01*
X0353502Y0163688D01*
X0353555Y0163532D01*
X0353605Y0163376D01*
X0353651Y0163218D01*
X0353692Y0163059D01*
X0353730Y0162899D01*
X0353764Y0162739D01*
X0353794Y0162577D01*
X0353821Y0162415D01*
X0353843Y0162252D01*
X0353861Y0162089D01*
X0353875Y0161925D01*
X0353885Y0161761D01*
X0353891Y0161597D01*
X0353893Y0161433D01*
X0353891Y0161269D01*
X0353885Y0161105D01*
X0353875Y0160941D01*
X0353861Y0160777D01*
X0353843Y0160614D01*
X0353821Y0160451D01*
X0353794Y0160289D01*
X0353764Y0160127D01*
X0353730Y0159967D01*
X0353692Y0159807D01*
X0353651Y0159648D01*
X0353605Y0159490D01*
X0353555Y0159334D01*
X0353502Y0159178D01*
X0353445Y0159024D01*
X0353384Y0158872D01*
X0353319Y0158721D01*
X0353250Y0158571D01*
X0353178Y0158424D01*
X0353103Y0158278D01*
X0353023Y0158134D01*
X0352941Y0157992D01*
X0352855Y0157852D01*
X0352765Y0157715D01*
X0352672Y0157579D01*
X0352576Y0157446D01*
X0352476Y0157315D01*
X0352374Y0157187D01*
X0352268Y0157061D01*
X0352159Y0156938D01*
X0352047Y0156818D01*
X0351933Y0156700D01*
X0351815Y0156586D01*
X0351695Y0156474D01*
X0351572Y0156365D01*
X0351446Y0156259D01*
X0351318Y0156157D01*
X0351187Y0156057D01*
X0351054Y0155961D01*
X0350918Y0155868D01*
X0350781Y0155778D01*
X0350641Y0155692D01*
X0350499Y0155610D01*
X0350355Y0155530D01*
X0350209Y0155455D01*
X0350062Y0155383D01*
X0349912Y0155314D01*
X0349761Y0155249D01*
X0349609Y0155188D01*
X0349455Y0155131D01*
X0349299Y0155078D01*
X0349143Y0155028D01*
X0348985Y0154982D01*
X0348826Y0154941D01*
X0348666Y0154903D01*
X0348506Y0154869D01*
X0348344Y0154839D01*
X0348182Y0154812D01*
X0348019Y0154790D01*
X0347856Y0154772D01*
X0347692Y0154758D01*
X0347528Y0154748D01*
X0347364Y0154742D01*
X0347200Y0154740D01*
X0347036Y0154742D01*
X0346872Y0154748D01*
X0346708Y0154758D01*
X0346544Y0154772D01*
X0346381Y0154790D01*
X0346218Y0154812D01*
X0346056Y0154839D01*
X0345894Y0154869D01*
X0345734Y0154903D01*
X0345574Y0154941D01*
X0345415Y0154982D01*
X0345257Y0155028D01*
X0345101Y0155078D01*
X0344945Y0155131D01*
X0344791Y0155188D01*
X0344639Y0155249D01*
X0344488Y0155314D01*
X0344338Y0155383D01*
X0344191Y0155455D01*
X0344045Y0155530D01*
X0343901Y0155610D01*
X0343759Y0155692D01*
X0343619Y0155778D01*
X0343482Y0155868D01*
X0343346Y0155961D01*
X0343213Y0156057D01*
X0343082Y0156157D01*
X0342954Y0156259D01*
X0342828Y0156365D01*
X0342705Y0156474D01*
X0342585Y0156586D01*
X0342467Y0156700D01*
X0342353Y0156818D01*
X0342241Y0156938D01*
X0342132Y0157061D01*
X0342026Y0157187D01*
X0341924Y0157315D01*
X0341824Y0157446D01*
X0341728Y0157579D01*
X0341635Y0157715D01*
X0341545Y0157852D01*
X0341459Y0157992D01*
X0341377Y0158134D01*
X0341297Y0158278D01*
X0341222Y0158424D01*
X0341150Y0158571D01*
X0341081Y0158721D01*
X0341016Y0158872D01*
X0340955Y0159024D01*
X0340898Y0159178D01*
X0340845Y0159334D01*
X0340795Y0159490D01*
X0340749Y0159648D01*
X0340708Y0159807D01*
X0340670Y0159967D01*
X0340636Y0160127D01*
X0340606Y0160289D01*
X0340579Y0160451D01*
X0340557Y0160614D01*
X0340539Y0160777D01*
X0340525Y0160941D01*
X0340515Y0161105D01*
X0340509Y0161269D01*
X0340507Y0161433D01*
X0333700Y0161433D02*
X0333704Y0161764D01*
X0333716Y0162095D01*
X0333737Y0162426D01*
X0333765Y0162756D01*
X0333802Y0163086D01*
X0333846Y0163414D01*
X0333899Y0163741D01*
X0333959Y0164067D01*
X0334028Y0164391D01*
X0334105Y0164713D01*
X0334189Y0165034D01*
X0334281Y0165352D01*
X0334381Y0165668D01*
X0334489Y0165981D01*
X0334605Y0166292D01*
X0334728Y0166599D01*
X0334858Y0166904D01*
X0334996Y0167205D01*
X0335141Y0167503D01*
X0335294Y0167797D01*
X0335454Y0168087D01*
X0335621Y0168373D01*
X0335794Y0168655D01*
X0335975Y0168933D01*
X0336163Y0169206D01*
X0336357Y0169475D01*
X0336557Y0169739D01*
X0336764Y0169997D01*
X0336978Y0170251D01*
X0337197Y0170499D01*
X0337423Y0170742D01*
X0337654Y0170979D01*
X0337891Y0171210D01*
X0338134Y0171436D01*
X0338382Y0171655D01*
X0338636Y0171869D01*
X0338894Y0172076D01*
X0339158Y0172276D01*
X0339427Y0172470D01*
X0339700Y0172658D01*
X0339978Y0172839D01*
X0340260Y0173012D01*
X0340546Y0173179D01*
X0340836Y0173339D01*
X0341130Y0173492D01*
X0341428Y0173637D01*
X0341729Y0173775D01*
X0342034Y0173905D01*
X0342341Y0174028D01*
X0342652Y0174144D01*
X0342965Y0174252D01*
X0343281Y0174352D01*
X0343599Y0174444D01*
X0343920Y0174528D01*
X0344242Y0174605D01*
X0344566Y0174674D01*
X0344892Y0174734D01*
X0345219Y0174787D01*
X0345547Y0174831D01*
X0345877Y0174868D01*
X0346207Y0174896D01*
X0346538Y0174917D01*
X0346869Y0174929D01*
X0347200Y0174933D01*
X0347531Y0174929D01*
X0347862Y0174917D01*
X0348193Y0174896D01*
X0348523Y0174868D01*
X0348853Y0174831D01*
X0349181Y0174787D01*
X0349508Y0174734D01*
X0349834Y0174674D01*
X0350158Y0174605D01*
X0350480Y0174528D01*
X0350801Y0174444D01*
X0351119Y0174352D01*
X0351435Y0174252D01*
X0351748Y0174144D01*
X0352059Y0174028D01*
X0352366Y0173905D01*
X0352671Y0173775D01*
X0352972Y0173637D01*
X0353270Y0173492D01*
X0353564Y0173339D01*
X0353854Y0173179D01*
X0354140Y0173012D01*
X0354422Y0172839D01*
X0354700Y0172658D01*
X0354973Y0172470D01*
X0355242Y0172276D01*
X0355506Y0172076D01*
X0355764Y0171869D01*
X0356018Y0171655D01*
X0356266Y0171436D01*
X0356509Y0171210D01*
X0356746Y0170979D01*
X0356977Y0170742D01*
X0357203Y0170499D01*
X0357422Y0170251D01*
X0357636Y0169997D01*
X0357843Y0169739D01*
X0358043Y0169475D01*
X0358237Y0169206D01*
X0358425Y0168933D01*
X0358606Y0168655D01*
X0358779Y0168373D01*
X0358946Y0168087D01*
X0359106Y0167797D01*
X0359259Y0167503D01*
X0359404Y0167205D01*
X0359542Y0166904D01*
X0359672Y0166599D01*
X0359795Y0166292D01*
X0359911Y0165981D01*
X0360019Y0165668D01*
X0360119Y0165352D01*
X0360211Y0165034D01*
X0360295Y0164713D01*
X0360372Y0164391D01*
X0360441Y0164067D01*
X0360501Y0163741D01*
X0360554Y0163414D01*
X0360598Y0163086D01*
X0360635Y0162756D01*
X0360663Y0162426D01*
X0360684Y0162095D01*
X0360696Y0161764D01*
X0360700Y0161433D01*
X0360696Y0161102D01*
X0360684Y0160771D01*
X0360663Y0160440D01*
X0360635Y0160110D01*
X0360598Y0159780D01*
X0360554Y0159452D01*
X0360501Y0159125D01*
X0360441Y0158799D01*
X0360372Y0158475D01*
X0360295Y0158153D01*
X0360211Y0157832D01*
X0360119Y0157514D01*
X0360019Y0157198D01*
X0359911Y0156885D01*
X0359795Y0156574D01*
X0359672Y0156267D01*
X0359542Y0155962D01*
X0359404Y0155661D01*
X0359259Y0155363D01*
X0359106Y0155069D01*
X0358946Y0154779D01*
X0358779Y0154493D01*
X0358606Y0154211D01*
X0358425Y0153933D01*
X0358237Y0153660D01*
X0358043Y0153391D01*
X0357843Y0153127D01*
X0357636Y0152869D01*
X0357422Y0152615D01*
X0357203Y0152367D01*
X0356977Y0152124D01*
X0356746Y0151887D01*
X0356509Y0151656D01*
X0356266Y0151430D01*
X0356018Y0151211D01*
X0355764Y0150997D01*
X0355506Y0150790D01*
X0355242Y0150590D01*
X0354973Y0150396D01*
X0354700Y0150208D01*
X0354422Y0150027D01*
X0354140Y0149854D01*
X0353854Y0149687D01*
X0353564Y0149527D01*
X0353270Y0149374D01*
X0352972Y0149229D01*
X0352671Y0149091D01*
X0352366Y0148961D01*
X0352059Y0148838D01*
X0351748Y0148722D01*
X0351435Y0148614D01*
X0351119Y0148514D01*
X0350801Y0148422D01*
X0350480Y0148338D01*
X0350158Y0148261D01*
X0349834Y0148192D01*
X0349508Y0148132D01*
X0349181Y0148079D01*
X0348853Y0148035D01*
X0348523Y0147998D01*
X0348193Y0147970D01*
X0347862Y0147949D01*
X0347531Y0147937D01*
X0347200Y0147933D01*
X0346869Y0147937D01*
X0346538Y0147949D01*
X0346207Y0147970D01*
X0345877Y0147998D01*
X0345547Y0148035D01*
X0345219Y0148079D01*
X0344892Y0148132D01*
X0344566Y0148192D01*
X0344242Y0148261D01*
X0343920Y0148338D01*
X0343599Y0148422D01*
X0343281Y0148514D01*
X0342965Y0148614D01*
X0342652Y0148722D01*
X0342341Y0148838D01*
X0342034Y0148961D01*
X0341729Y0149091D01*
X0341428Y0149229D01*
X0341130Y0149374D01*
X0340836Y0149527D01*
X0340546Y0149687D01*
X0340260Y0149854D01*
X0339978Y0150027D01*
X0339700Y0150208D01*
X0339427Y0150396D01*
X0339158Y0150590D01*
X0338894Y0150790D01*
X0338636Y0150997D01*
X0338382Y0151211D01*
X0338134Y0151430D01*
X0337891Y0151656D01*
X0337654Y0151887D01*
X0337423Y0152124D01*
X0337197Y0152367D01*
X0336978Y0152615D01*
X0336764Y0152869D01*
X0336557Y0153127D01*
X0336357Y0153391D01*
X0336163Y0153660D01*
X0335975Y0153933D01*
X0335794Y0154211D01*
X0335621Y0154493D01*
X0335454Y0154779D01*
X0335294Y0155069D01*
X0335141Y0155363D01*
X0334996Y0155661D01*
X0334858Y0155962D01*
X0334728Y0156267D01*
X0334605Y0156574D01*
X0334489Y0156885D01*
X0334381Y0157198D01*
X0334281Y0157514D01*
X0334189Y0157832D01*
X0334105Y0158153D01*
X0334028Y0158475D01*
X0333959Y0158799D01*
X0333899Y0159125D01*
X0333846Y0159452D01*
X0333802Y0159780D01*
X0333765Y0160110D01*
X0333737Y0160440D01*
X0333716Y0160771D01*
X0333704Y0161102D01*
X0333700Y0161433D01*
X0327200Y0123433D02*
X0317200Y0123433D01*
X0317140Y0123431D01*
X0317079Y0123426D01*
X0317020Y0123417D01*
X0316961Y0123404D01*
X0316902Y0123388D01*
X0316845Y0123368D01*
X0316790Y0123345D01*
X0316735Y0123318D01*
X0316683Y0123289D01*
X0316632Y0123256D01*
X0316583Y0123220D01*
X0316537Y0123182D01*
X0316493Y0123140D01*
X0316451Y0123096D01*
X0316413Y0123050D01*
X0316377Y0123001D01*
X0316344Y0122950D01*
X0316315Y0122898D01*
X0316288Y0122843D01*
X0316265Y0122788D01*
X0316245Y0122731D01*
X0316229Y0122672D01*
X0316216Y0122613D01*
X0316207Y0122554D01*
X0316202Y0122493D01*
X0316200Y0122433D01*
X0316200Y0095433D01*
X0316202Y0095373D01*
X0316207Y0095312D01*
X0316216Y0095253D01*
X0316229Y0095194D01*
X0316245Y0095135D01*
X0316265Y0095078D01*
X0316288Y0095023D01*
X0316315Y0094968D01*
X0316344Y0094916D01*
X0316377Y0094865D01*
X0316413Y0094816D01*
X0316451Y0094770D01*
X0316493Y0094726D01*
X0316537Y0094684D01*
X0316583Y0094646D01*
X0316632Y0094610D01*
X0316683Y0094577D01*
X0316735Y0094548D01*
X0316790Y0094521D01*
X0316845Y0094498D01*
X0316902Y0094478D01*
X0316961Y0094462D01*
X0317020Y0094449D01*
X0317079Y0094440D01*
X0317140Y0094435D01*
X0317200Y0094433D01*
X0327200Y0094433D01*
X0327260Y0094435D01*
X0327321Y0094440D01*
X0327380Y0094449D01*
X0327439Y0094462D01*
X0327498Y0094478D01*
X0327555Y0094498D01*
X0327610Y0094521D01*
X0327665Y0094548D01*
X0327717Y0094577D01*
X0327768Y0094610D01*
X0327817Y0094646D01*
X0327863Y0094684D01*
X0327907Y0094726D01*
X0327949Y0094770D01*
X0327987Y0094816D01*
X0328023Y0094865D01*
X0328056Y0094916D01*
X0328085Y0094968D01*
X0328112Y0095023D01*
X0328135Y0095078D01*
X0328155Y0095135D01*
X0328171Y0095194D01*
X0328184Y0095253D01*
X0328193Y0095312D01*
X0328198Y0095373D01*
X0328200Y0095433D01*
X0328200Y0122433D01*
X0328198Y0122493D01*
X0328193Y0122554D01*
X0328184Y0122613D01*
X0328171Y0122672D01*
X0328155Y0122731D01*
X0328135Y0122788D01*
X0328112Y0122843D01*
X0328085Y0122898D01*
X0328056Y0122950D01*
X0328023Y0123001D01*
X0327987Y0123050D01*
X0327949Y0123096D01*
X0327907Y0123140D01*
X0327863Y0123182D01*
X0327817Y0123220D01*
X0327768Y0123256D01*
X0327717Y0123289D01*
X0327665Y0123318D01*
X0327610Y0123345D01*
X0327555Y0123368D01*
X0327498Y0123388D01*
X0327439Y0123404D01*
X0327380Y0123417D01*
X0327321Y0123426D01*
X0327260Y0123431D01*
X0327200Y0123433D01*
X0322200Y0114933D02*
X0322200Y0110233D01*
X0322200Y0107733D02*
X0322200Y0102933D01*
X0339200Y0095933D02*
X0342200Y0095933D01*
X0340700Y0094433D02*
X0340700Y0097433D01*
X0342700Y0105433D02*
X0347200Y0105433D01*
X0351700Y0105433D01*
X0351700Y0107933D01*
X0342700Y0107933D01*
X0342700Y0105433D01*
X0347200Y0105433D02*
X0347200Y0104433D01*
X0329700Y0108933D02*
X0329705Y0109362D01*
X0329721Y0109792D01*
X0329747Y0110220D01*
X0329784Y0110648D01*
X0329832Y0111075D01*
X0329889Y0111501D01*
X0329958Y0111925D01*
X0330036Y0112347D01*
X0330125Y0112767D01*
X0330224Y0113185D01*
X0330334Y0113600D01*
X0330454Y0114013D01*
X0330583Y0114422D01*
X0330723Y0114829D01*
X0330873Y0115231D01*
X0331032Y0115630D01*
X0331201Y0116025D01*
X0331380Y0116415D01*
X0331569Y0116801D01*
X0331766Y0117182D01*
X0331973Y0117559D01*
X0332190Y0117930D01*
X0332415Y0118295D01*
X0332649Y0118655D01*
X0332892Y0119010D01*
X0333144Y0119358D01*
X0333404Y0119700D01*
X0333672Y0120035D01*
X0333949Y0120364D01*
X0334233Y0120685D01*
X0334526Y0121000D01*
X0334826Y0121307D01*
X0335133Y0121607D01*
X0335448Y0121900D01*
X0335769Y0122184D01*
X0336098Y0122461D01*
X0336433Y0122729D01*
X0336775Y0122989D01*
X0337123Y0123241D01*
X0337478Y0123484D01*
X0337838Y0123718D01*
X0338203Y0123943D01*
X0338574Y0124160D01*
X0338951Y0124367D01*
X0339332Y0124564D01*
X0339718Y0124753D01*
X0340108Y0124932D01*
X0340503Y0125101D01*
X0340902Y0125260D01*
X0341304Y0125410D01*
X0341711Y0125550D01*
X0342120Y0125679D01*
X0342533Y0125799D01*
X0342948Y0125909D01*
X0343366Y0126008D01*
X0343786Y0126097D01*
X0344208Y0126175D01*
X0344632Y0126244D01*
X0345058Y0126301D01*
X0345485Y0126349D01*
X0345913Y0126386D01*
X0346341Y0126412D01*
X0346771Y0126428D01*
X0347200Y0126433D01*
X0347629Y0126428D01*
X0348059Y0126412D01*
X0348487Y0126386D01*
X0348915Y0126349D01*
X0349342Y0126301D01*
X0349768Y0126244D01*
X0350192Y0126175D01*
X0350614Y0126097D01*
X0351034Y0126008D01*
X0351452Y0125909D01*
X0351867Y0125799D01*
X0352280Y0125679D01*
X0352689Y0125550D01*
X0353096Y0125410D01*
X0353498Y0125260D01*
X0353897Y0125101D01*
X0354292Y0124932D01*
X0354682Y0124753D01*
X0355068Y0124564D01*
X0355449Y0124367D01*
X0355826Y0124160D01*
X0356197Y0123943D01*
X0356562Y0123718D01*
X0356922Y0123484D01*
X0357277Y0123241D01*
X0357625Y0122989D01*
X0357967Y0122729D01*
X0358302Y0122461D01*
X0358631Y0122184D01*
X0358952Y0121900D01*
X0359267Y0121607D01*
X0359574Y0121307D01*
X0359874Y0121000D01*
X0360167Y0120685D01*
X0360451Y0120364D01*
X0360728Y0120035D01*
X0360996Y0119700D01*
X0361256Y0119358D01*
X0361508Y0119010D01*
X0361751Y0118655D01*
X0361985Y0118295D01*
X0362210Y0117930D01*
X0362427Y0117559D01*
X0362634Y0117182D01*
X0362831Y0116801D01*
X0363020Y0116415D01*
X0363199Y0116025D01*
X0363368Y0115630D01*
X0363527Y0115231D01*
X0363677Y0114829D01*
X0363817Y0114422D01*
X0363946Y0114013D01*
X0364066Y0113600D01*
X0364176Y0113185D01*
X0364275Y0112767D01*
X0364364Y0112347D01*
X0364442Y0111925D01*
X0364511Y0111501D01*
X0364568Y0111075D01*
X0364616Y0110648D01*
X0364653Y0110220D01*
X0364679Y0109792D01*
X0364695Y0109362D01*
X0364700Y0108933D01*
X0364695Y0108504D01*
X0364679Y0108074D01*
X0364653Y0107646D01*
X0364616Y0107218D01*
X0364568Y0106791D01*
X0364511Y0106365D01*
X0364442Y0105941D01*
X0364364Y0105519D01*
X0364275Y0105099D01*
X0364176Y0104681D01*
X0364066Y0104266D01*
X0363946Y0103853D01*
X0363817Y0103444D01*
X0363677Y0103037D01*
X0363527Y0102635D01*
X0363368Y0102236D01*
X0363199Y0101841D01*
X0363020Y0101451D01*
X0362831Y0101065D01*
X0362634Y0100684D01*
X0362427Y0100307D01*
X0362210Y0099936D01*
X0361985Y0099571D01*
X0361751Y0099211D01*
X0361508Y0098856D01*
X0361256Y0098508D01*
X0360996Y0098166D01*
X0360728Y0097831D01*
X0360451Y0097502D01*
X0360167Y0097181D01*
X0359874Y0096866D01*
X0359574Y0096559D01*
X0359267Y0096259D01*
X0358952Y0095966D01*
X0358631Y0095682D01*
X0358302Y0095405D01*
X0357967Y0095137D01*
X0357625Y0094877D01*
X0357277Y0094625D01*
X0356922Y0094382D01*
X0356562Y0094148D01*
X0356197Y0093923D01*
X0355826Y0093706D01*
X0355449Y0093499D01*
X0355068Y0093302D01*
X0354682Y0093113D01*
X0354292Y0092934D01*
X0353897Y0092765D01*
X0353498Y0092606D01*
X0353096Y0092456D01*
X0352689Y0092316D01*
X0352280Y0092187D01*
X0351867Y0092067D01*
X0351452Y0091957D01*
X0351034Y0091858D01*
X0350614Y0091769D01*
X0350192Y0091691D01*
X0349768Y0091622D01*
X0349342Y0091565D01*
X0348915Y0091517D01*
X0348487Y0091480D01*
X0348059Y0091454D01*
X0347629Y0091438D01*
X0347200Y0091433D01*
X0346771Y0091438D01*
X0346341Y0091454D01*
X0345913Y0091480D01*
X0345485Y0091517D01*
X0345058Y0091565D01*
X0344632Y0091622D01*
X0344208Y0091691D01*
X0343786Y0091769D01*
X0343366Y0091858D01*
X0342948Y0091957D01*
X0342533Y0092067D01*
X0342120Y0092187D01*
X0341711Y0092316D01*
X0341304Y0092456D01*
X0340902Y0092606D01*
X0340503Y0092765D01*
X0340108Y0092934D01*
X0339718Y0093113D01*
X0339332Y0093302D01*
X0338951Y0093499D01*
X0338574Y0093706D01*
X0338203Y0093923D01*
X0337838Y0094148D01*
X0337478Y0094382D01*
X0337123Y0094625D01*
X0336775Y0094877D01*
X0336433Y0095137D01*
X0336098Y0095405D01*
X0335769Y0095682D01*
X0335448Y0095966D01*
X0335133Y0096259D01*
X0334826Y0096559D01*
X0334526Y0096866D01*
X0334233Y0097181D01*
X0333949Y0097502D01*
X0333672Y0097831D01*
X0333404Y0098166D01*
X0333144Y0098508D01*
X0332892Y0098856D01*
X0332649Y0099211D01*
X0332415Y0099571D01*
X0332190Y0099936D01*
X0331973Y0100307D01*
X0331766Y0100684D01*
X0331569Y0101065D01*
X0331380Y0101451D01*
X0331201Y0101841D01*
X0331032Y0102236D01*
X0330873Y0102635D01*
X0330723Y0103037D01*
X0330583Y0103444D01*
X0330454Y0103853D01*
X0330334Y0104266D01*
X0330224Y0104681D01*
X0330125Y0105099D01*
X0330036Y0105519D01*
X0329958Y0105941D01*
X0329889Y0106365D01*
X0329832Y0106791D01*
X0329784Y0107218D01*
X0329747Y0107646D01*
X0329721Y0108074D01*
X0329705Y0108504D01*
X0329700Y0108933D01*
X0347200Y0111433D02*
X0347200Y0113433D01*
X0126700Y0097433D02*
X0123700Y0097433D01*
X0125200Y0095933D02*
X0125200Y0098933D01*
X0115700Y0099433D02*
X0115700Y0103933D01*
X0115700Y0108433D01*
X0113200Y0108433D01*
X0113200Y0099433D01*
X0115700Y0099433D01*
X0115700Y0103933D02*
X0116700Y0103933D01*
X0094700Y0103933D02*
X0094705Y0104362D01*
X0094721Y0104792D01*
X0094747Y0105220D01*
X0094784Y0105648D01*
X0094832Y0106075D01*
X0094889Y0106501D01*
X0094958Y0106925D01*
X0095036Y0107347D01*
X0095125Y0107767D01*
X0095224Y0108185D01*
X0095334Y0108600D01*
X0095454Y0109013D01*
X0095583Y0109422D01*
X0095723Y0109829D01*
X0095873Y0110231D01*
X0096032Y0110630D01*
X0096201Y0111025D01*
X0096380Y0111415D01*
X0096569Y0111801D01*
X0096766Y0112182D01*
X0096973Y0112559D01*
X0097190Y0112930D01*
X0097415Y0113295D01*
X0097649Y0113655D01*
X0097892Y0114010D01*
X0098144Y0114358D01*
X0098404Y0114700D01*
X0098672Y0115035D01*
X0098949Y0115364D01*
X0099233Y0115685D01*
X0099526Y0116000D01*
X0099826Y0116307D01*
X0100133Y0116607D01*
X0100448Y0116900D01*
X0100769Y0117184D01*
X0101098Y0117461D01*
X0101433Y0117729D01*
X0101775Y0117989D01*
X0102123Y0118241D01*
X0102478Y0118484D01*
X0102838Y0118718D01*
X0103203Y0118943D01*
X0103574Y0119160D01*
X0103951Y0119367D01*
X0104332Y0119564D01*
X0104718Y0119753D01*
X0105108Y0119932D01*
X0105503Y0120101D01*
X0105902Y0120260D01*
X0106304Y0120410D01*
X0106711Y0120550D01*
X0107120Y0120679D01*
X0107533Y0120799D01*
X0107948Y0120909D01*
X0108366Y0121008D01*
X0108786Y0121097D01*
X0109208Y0121175D01*
X0109632Y0121244D01*
X0110058Y0121301D01*
X0110485Y0121349D01*
X0110913Y0121386D01*
X0111341Y0121412D01*
X0111771Y0121428D01*
X0112200Y0121433D01*
X0112629Y0121428D01*
X0113059Y0121412D01*
X0113487Y0121386D01*
X0113915Y0121349D01*
X0114342Y0121301D01*
X0114768Y0121244D01*
X0115192Y0121175D01*
X0115614Y0121097D01*
X0116034Y0121008D01*
X0116452Y0120909D01*
X0116867Y0120799D01*
X0117280Y0120679D01*
X0117689Y0120550D01*
X0118096Y0120410D01*
X0118498Y0120260D01*
X0118897Y0120101D01*
X0119292Y0119932D01*
X0119682Y0119753D01*
X0120068Y0119564D01*
X0120449Y0119367D01*
X0120826Y0119160D01*
X0121197Y0118943D01*
X0121562Y0118718D01*
X0121922Y0118484D01*
X0122277Y0118241D01*
X0122625Y0117989D01*
X0122967Y0117729D01*
X0123302Y0117461D01*
X0123631Y0117184D01*
X0123952Y0116900D01*
X0124267Y0116607D01*
X0124574Y0116307D01*
X0124874Y0116000D01*
X0125167Y0115685D01*
X0125451Y0115364D01*
X0125728Y0115035D01*
X0125996Y0114700D01*
X0126256Y0114358D01*
X0126508Y0114010D01*
X0126751Y0113655D01*
X0126985Y0113295D01*
X0127210Y0112930D01*
X0127427Y0112559D01*
X0127634Y0112182D01*
X0127831Y0111801D01*
X0128020Y0111415D01*
X0128199Y0111025D01*
X0128368Y0110630D01*
X0128527Y0110231D01*
X0128677Y0109829D01*
X0128817Y0109422D01*
X0128946Y0109013D01*
X0129066Y0108600D01*
X0129176Y0108185D01*
X0129275Y0107767D01*
X0129364Y0107347D01*
X0129442Y0106925D01*
X0129511Y0106501D01*
X0129568Y0106075D01*
X0129616Y0105648D01*
X0129653Y0105220D01*
X0129679Y0104792D01*
X0129695Y0104362D01*
X0129700Y0103933D01*
X0129695Y0103504D01*
X0129679Y0103074D01*
X0129653Y0102646D01*
X0129616Y0102218D01*
X0129568Y0101791D01*
X0129511Y0101365D01*
X0129442Y0100941D01*
X0129364Y0100519D01*
X0129275Y0100099D01*
X0129176Y0099681D01*
X0129066Y0099266D01*
X0128946Y0098853D01*
X0128817Y0098444D01*
X0128677Y0098037D01*
X0128527Y0097635D01*
X0128368Y0097236D01*
X0128199Y0096841D01*
X0128020Y0096451D01*
X0127831Y0096065D01*
X0127634Y0095684D01*
X0127427Y0095307D01*
X0127210Y0094936D01*
X0126985Y0094571D01*
X0126751Y0094211D01*
X0126508Y0093856D01*
X0126256Y0093508D01*
X0125996Y0093166D01*
X0125728Y0092831D01*
X0125451Y0092502D01*
X0125167Y0092181D01*
X0124874Y0091866D01*
X0124574Y0091559D01*
X0124267Y0091259D01*
X0123952Y0090966D01*
X0123631Y0090682D01*
X0123302Y0090405D01*
X0122967Y0090137D01*
X0122625Y0089877D01*
X0122277Y0089625D01*
X0121922Y0089382D01*
X0121562Y0089148D01*
X0121197Y0088923D01*
X0120826Y0088706D01*
X0120449Y0088499D01*
X0120068Y0088302D01*
X0119682Y0088113D01*
X0119292Y0087934D01*
X0118897Y0087765D01*
X0118498Y0087606D01*
X0118096Y0087456D01*
X0117689Y0087316D01*
X0117280Y0087187D01*
X0116867Y0087067D01*
X0116452Y0086957D01*
X0116034Y0086858D01*
X0115614Y0086769D01*
X0115192Y0086691D01*
X0114768Y0086622D01*
X0114342Y0086565D01*
X0113915Y0086517D01*
X0113487Y0086480D01*
X0113059Y0086454D01*
X0112629Y0086438D01*
X0112200Y0086433D01*
X0111771Y0086438D01*
X0111341Y0086454D01*
X0110913Y0086480D01*
X0110485Y0086517D01*
X0110058Y0086565D01*
X0109632Y0086622D01*
X0109208Y0086691D01*
X0108786Y0086769D01*
X0108366Y0086858D01*
X0107948Y0086957D01*
X0107533Y0087067D01*
X0107120Y0087187D01*
X0106711Y0087316D01*
X0106304Y0087456D01*
X0105902Y0087606D01*
X0105503Y0087765D01*
X0105108Y0087934D01*
X0104718Y0088113D01*
X0104332Y0088302D01*
X0103951Y0088499D01*
X0103574Y0088706D01*
X0103203Y0088923D01*
X0102838Y0089148D01*
X0102478Y0089382D01*
X0102123Y0089625D01*
X0101775Y0089877D01*
X0101433Y0090137D01*
X0101098Y0090405D01*
X0100769Y0090682D01*
X0100448Y0090966D01*
X0100133Y0091259D01*
X0099826Y0091559D01*
X0099526Y0091866D01*
X0099233Y0092181D01*
X0098949Y0092502D01*
X0098672Y0092831D01*
X0098404Y0093166D01*
X0098144Y0093508D01*
X0097892Y0093856D01*
X0097649Y0094211D01*
X0097415Y0094571D01*
X0097190Y0094936D01*
X0096973Y0095307D01*
X0096766Y0095684D01*
X0096569Y0096065D01*
X0096380Y0096451D01*
X0096201Y0096841D01*
X0096032Y0097236D01*
X0095873Y0097635D01*
X0095723Y0098037D01*
X0095583Y0098444D01*
X0095454Y0098853D01*
X0095334Y0099266D01*
X0095224Y0099681D01*
X0095125Y0100099D01*
X0095036Y0100519D01*
X0094958Y0100941D01*
X0094889Y0101365D01*
X0094832Y0101791D01*
X0094784Y0102218D01*
X0094747Y0102646D01*
X0094721Y0103074D01*
X0094705Y0103504D01*
X0094700Y0103933D01*
X0107700Y0103933D02*
X0109700Y0103933D01*
X0025507Y0338933D02*
X0025509Y0339097D01*
X0025515Y0339261D01*
X0025525Y0339425D01*
X0025539Y0339589D01*
X0025557Y0339752D01*
X0025579Y0339915D01*
X0025606Y0340077D01*
X0025636Y0340239D01*
X0025670Y0340399D01*
X0025708Y0340559D01*
X0025749Y0340718D01*
X0025795Y0340876D01*
X0025845Y0341032D01*
X0025898Y0341188D01*
X0025955Y0341342D01*
X0026016Y0341494D01*
X0026081Y0341645D01*
X0026150Y0341795D01*
X0026222Y0341942D01*
X0026297Y0342088D01*
X0026377Y0342232D01*
X0026459Y0342374D01*
X0026545Y0342514D01*
X0026635Y0342651D01*
X0026728Y0342787D01*
X0026824Y0342920D01*
X0026924Y0343051D01*
X0027026Y0343179D01*
X0027132Y0343305D01*
X0027241Y0343428D01*
X0027353Y0343548D01*
X0027467Y0343666D01*
X0027585Y0343780D01*
X0027705Y0343892D01*
X0027828Y0344001D01*
X0027954Y0344107D01*
X0028082Y0344209D01*
X0028213Y0344309D01*
X0028346Y0344405D01*
X0028482Y0344498D01*
X0028619Y0344588D01*
X0028759Y0344674D01*
X0028901Y0344756D01*
X0029045Y0344836D01*
X0029191Y0344911D01*
X0029338Y0344983D01*
X0029488Y0345052D01*
X0029639Y0345117D01*
X0029791Y0345178D01*
X0029945Y0345235D01*
X0030101Y0345288D01*
X0030257Y0345338D01*
X0030415Y0345384D01*
X0030574Y0345425D01*
X0030734Y0345463D01*
X0030894Y0345497D01*
X0031056Y0345527D01*
X0031218Y0345554D01*
X0031381Y0345576D01*
X0031544Y0345594D01*
X0031708Y0345608D01*
X0031872Y0345618D01*
X0032036Y0345624D01*
X0032200Y0345626D01*
X0032364Y0345624D01*
X0032528Y0345618D01*
X0032692Y0345608D01*
X0032856Y0345594D01*
X0033019Y0345576D01*
X0033182Y0345554D01*
X0033344Y0345527D01*
X0033506Y0345497D01*
X0033666Y0345463D01*
X0033826Y0345425D01*
X0033985Y0345384D01*
X0034143Y0345338D01*
X0034299Y0345288D01*
X0034455Y0345235D01*
X0034609Y0345178D01*
X0034761Y0345117D01*
X0034912Y0345052D01*
X0035062Y0344983D01*
X0035209Y0344911D01*
X0035355Y0344836D01*
X0035499Y0344756D01*
X0035641Y0344674D01*
X0035781Y0344588D01*
X0035918Y0344498D01*
X0036054Y0344405D01*
X0036187Y0344309D01*
X0036318Y0344209D01*
X0036446Y0344107D01*
X0036572Y0344001D01*
X0036695Y0343892D01*
X0036815Y0343780D01*
X0036933Y0343666D01*
X0037047Y0343548D01*
X0037159Y0343428D01*
X0037268Y0343305D01*
X0037374Y0343179D01*
X0037476Y0343051D01*
X0037576Y0342920D01*
X0037672Y0342787D01*
X0037765Y0342651D01*
X0037855Y0342514D01*
X0037941Y0342374D01*
X0038023Y0342232D01*
X0038103Y0342088D01*
X0038178Y0341942D01*
X0038250Y0341795D01*
X0038319Y0341645D01*
X0038384Y0341494D01*
X0038445Y0341342D01*
X0038502Y0341188D01*
X0038555Y0341032D01*
X0038605Y0340876D01*
X0038651Y0340718D01*
X0038692Y0340559D01*
X0038730Y0340399D01*
X0038764Y0340239D01*
X0038794Y0340077D01*
X0038821Y0339915D01*
X0038843Y0339752D01*
X0038861Y0339589D01*
X0038875Y0339425D01*
X0038885Y0339261D01*
X0038891Y0339097D01*
X0038893Y0338933D01*
X0038891Y0338769D01*
X0038885Y0338605D01*
X0038875Y0338441D01*
X0038861Y0338277D01*
X0038843Y0338114D01*
X0038821Y0337951D01*
X0038794Y0337789D01*
X0038764Y0337627D01*
X0038730Y0337467D01*
X0038692Y0337307D01*
X0038651Y0337148D01*
X0038605Y0336990D01*
X0038555Y0336834D01*
X0038502Y0336678D01*
X0038445Y0336524D01*
X0038384Y0336372D01*
X0038319Y0336221D01*
X0038250Y0336071D01*
X0038178Y0335924D01*
X0038103Y0335778D01*
X0038023Y0335634D01*
X0037941Y0335492D01*
X0037855Y0335352D01*
X0037765Y0335215D01*
X0037672Y0335079D01*
X0037576Y0334946D01*
X0037476Y0334815D01*
X0037374Y0334687D01*
X0037268Y0334561D01*
X0037159Y0334438D01*
X0037047Y0334318D01*
X0036933Y0334200D01*
X0036815Y0334086D01*
X0036695Y0333974D01*
X0036572Y0333865D01*
X0036446Y0333759D01*
X0036318Y0333657D01*
X0036187Y0333557D01*
X0036054Y0333461D01*
X0035918Y0333368D01*
X0035781Y0333278D01*
X0035641Y0333192D01*
X0035499Y0333110D01*
X0035355Y0333030D01*
X0035209Y0332955D01*
X0035062Y0332883D01*
X0034912Y0332814D01*
X0034761Y0332749D01*
X0034609Y0332688D01*
X0034455Y0332631D01*
X0034299Y0332578D01*
X0034143Y0332528D01*
X0033985Y0332482D01*
X0033826Y0332441D01*
X0033666Y0332403D01*
X0033506Y0332369D01*
X0033344Y0332339D01*
X0033182Y0332312D01*
X0033019Y0332290D01*
X0032856Y0332272D01*
X0032692Y0332258D01*
X0032528Y0332248D01*
X0032364Y0332242D01*
X0032200Y0332240D01*
X0032036Y0332242D01*
X0031872Y0332248D01*
X0031708Y0332258D01*
X0031544Y0332272D01*
X0031381Y0332290D01*
X0031218Y0332312D01*
X0031056Y0332339D01*
X0030894Y0332369D01*
X0030734Y0332403D01*
X0030574Y0332441D01*
X0030415Y0332482D01*
X0030257Y0332528D01*
X0030101Y0332578D01*
X0029945Y0332631D01*
X0029791Y0332688D01*
X0029639Y0332749D01*
X0029488Y0332814D01*
X0029338Y0332883D01*
X0029191Y0332955D01*
X0029045Y0333030D01*
X0028901Y0333110D01*
X0028759Y0333192D01*
X0028619Y0333278D01*
X0028482Y0333368D01*
X0028346Y0333461D01*
X0028213Y0333557D01*
X0028082Y0333657D01*
X0027954Y0333759D01*
X0027828Y0333865D01*
X0027705Y0333974D01*
X0027585Y0334086D01*
X0027467Y0334200D01*
X0027353Y0334318D01*
X0027241Y0334438D01*
X0027132Y0334561D01*
X0027026Y0334687D01*
X0026924Y0334815D01*
X0026824Y0334946D01*
X0026728Y0335079D01*
X0026635Y0335215D01*
X0026545Y0335352D01*
X0026459Y0335492D01*
X0026377Y0335634D01*
X0026297Y0335778D01*
X0026222Y0335924D01*
X0026150Y0336071D01*
X0026081Y0336221D01*
X0026016Y0336372D01*
X0025955Y0336524D01*
X0025898Y0336678D01*
X0025845Y0336834D01*
X0025795Y0336990D01*
X0025749Y0337148D01*
X0025708Y0337307D01*
X0025670Y0337467D01*
X0025636Y0337627D01*
X0025606Y0337789D01*
X0025579Y0337951D01*
X0025557Y0338114D01*
X0025539Y0338277D01*
X0025525Y0338441D01*
X0025515Y0338605D01*
X0025509Y0338769D01*
X0025507Y0338933D01*
X0018700Y0338933D02*
X0018704Y0339264D01*
X0018716Y0339595D01*
X0018737Y0339926D01*
X0018765Y0340256D01*
X0018802Y0340586D01*
X0018846Y0340914D01*
X0018899Y0341241D01*
X0018959Y0341567D01*
X0019028Y0341891D01*
X0019105Y0342213D01*
X0019189Y0342534D01*
X0019281Y0342852D01*
X0019381Y0343168D01*
X0019489Y0343481D01*
X0019605Y0343792D01*
X0019728Y0344099D01*
X0019858Y0344404D01*
X0019996Y0344705D01*
X0020141Y0345003D01*
X0020294Y0345297D01*
X0020454Y0345587D01*
X0020621Y0345873D01*
X0020794Y0346155D01*
X0020975Y0346433D01*
X0021163Y0346706D01*
X0021357Y0346975D01*
X0021557Y0347239D01*
X0021764Y0347497D01*
X0021978Y0347751D01*
X0022197Y0347999D01*
X0022423Y0348242D01*
X0022654Y0348479D01*
X0022891Y0348710D01*
X0023134Y0348936D01*
X0023382Y0349155D01*
X0023636Y0349369D01*
X0023894Y0349576D01*
X0024158Y0349776D01*
X0024427Y0349970D01*
X0024700Y0350158D01*
X0024978Y0350339D01*
X0025260Y0350512D01*
X0025546Y0350679D01*
X0025836Y0350839D01*
X0026130Y0350992D01*
X0026428Y0351137D01*
X0026729Y0351275D01*
X0027034Y0351405D01*
X0027341Y0351528D01*
X0027652Y0351644D01*
X0027965Y0351752D01*
X0028281Y0351852D01*
X0028599Y0351944D01*
X0028920Y0352028D01*
X0029242Y0352105D01*
X0029566Y0352174D01*
X0029892Y0352234D01*
X0030219Y0352287D01*
X0030547Y0352331D01*
X0030877Y0352368D01*
X0031207Y0352396D01*
X0031538Y0352417D01*
X0031869Y0352429D01*
X0032200Y0352433D01*
X0032531Y0352429D01*
X0032862Y0352417D01*
X0033193Y0352396D01*
X0033523Y0352368D01*
X0033853Y0352331D01*
X0034181Y0352287D01*
X0034508Y0352234D01*
X0034834Y0352174D01*
X0035158Y0352105D01*
X0035480Y0352028D01*
X0035801Y0351944D01*
X0036119Y0351852D01*
X0036435Y0351752D01*
X0036748Y0351644D01*
X0037059Y0351528D01*
X0037366Y0351405D01*
X0037671Y0351275D01*
X0037972Y0351137D01*
X0038270Y0350992D01*
X0038564Y0350839D01*
X0038854Y0350679D01*
X0039140Y0350512D01*
X0039422Y0350339D01*
X0039700Y0350158D01*
X0039973Y0349970D01*
X0040242Y0349776D01*
X0040506Y0349576D01*
X0040764Y0349369D01*
X0041018Y0349155D01*
X0041266Y0348936D01*
X0041509Y0348710D01*
X0041746Y0348479D01*
X0041977Y0348242D01*
X0042203Y0347999D01*
X0042422Y0347751D01*
X0042636Y0347497D01*
X0042843Y0347239D01*
X0043043Y0346975D01*
X0043237Y0346706D01*
X0043425Y0346433D01*
X0043606Y0346155D01*
X0043779Y0345873D01*
X0043946Y0345587D01*
X0044106Y0345297D01*
X0044259Y0345003D01*
X0044404Y0344705D01*
X0044542Y0344404D01*
X0044672Y0344099D01*
X0044795Y0343792D01*
X0044911Y0343481D01*
X0045019Y0343168D01*
X0045119Y0342852D01*
X0045211Y0342534D01*
X0045295Y0342213D01*
X0045372Y0341891D01*
X0045441Y0341567D01*
X0045501Y0341241D01*
X0045554Y0340914D01*
X0045598Y0340586D01*
X0045635Y0340256D01*
X0045663Y0339926D01*
X0045684Y0339595D01*
X0045696Y0339264D01*
X0045700Y0338933D01*
X0045696Y0338602D01*
X0045684Y0338271D01*
X0045663Y0337940D01*
X0045635Y0337610D01*
X0045598Y0337280D01*
X0045554Y0336952D01*
X0045501Y0336625D01*
X0045441Y0336299D01*
X0045372Y0335975D01*
X0045295Y0335653D01*
X0045211Y0335332D01*
X0045119Y0335014D01*
X0045019Y0334698D01*
X0044911Y0334385D01*
X0044795Y0334074D01*
X0044672Y0333767D01*
X0044542Y0333462D01*
X0044404Y0333161D01*
X0044259Y0332863D01*
X0044106Y0332569D01*
X0043946Y0332279D01*
X0043779Y0331993D01*
X0043606Y0331711D01*
X0043425Y0331433D01*
X0043237Y0331160D01*
X0043043Y0330891D01*
X0042843Y0330627D01*
X0042636Y0330369D01*
X0042422Y0330115D01*
X0042203Y0329867D01*
X0041977Y0329624D01*
X0041746Y0329387D01*
X0041509Y0329156D01*
X0041266Y0328930D01*
X0041018Y0328711D01*
X0040764Y0328497D01*
X0040506Y0328290D01*
X0040242Y0328090D01*
X0039973Y0327896D01*
X0039700Y0327708D01*
X0039422Y0327527D01*
X0039140Y0327354D01*
X0038854Y0327187D01*
X0038564Y0327027D01*
X0038270Y0326874D01*
X0037972Y0326729D01*
X0037671Y0326591D01*
X0037366Y0326461D01*
X0037059Y0326338D01*
X0036748Y0326222D01*
X0036435Y0326114D01*
X0036119Y0326014D01*
X0035801Y0325922D01*
X0035480Y0325838D01*
X0035158Y0325761D01*
X0034834Y0325692D01*
X0034508Y0325632D01*
X0034181Y0325579D01*
X0033853Y0325535D01*
X0033523Y0325498D01*
X0033193Y0325470D01*
X0032862Y0325449D01*
X0032531Y0325437D01*
X0032200Y0325433D01*
X0031869Y0325437D01*
X0031538Y0325449D01*
X0031207Y0325470D01*
X0030877Y0325498D01*
X0030547Y0325535D01*
X0030219Y0325579D01*
X0029892Y0325632D01*
X0029566Y0325692D01*
X0029242Y0325761D01*
X0028920Y0325838D01*
X0028599Y0325922D01*
X0028281Y0326014D01*
X0027965Y0326114D01*
X0027652Y0326222D01*
X0027341Y0326338D01*
X0027034Y0326461D01*
X0026729Y0326591D01*
X0026428Y0326729D01*
X0026130Y0326874D01*
X0025836Y0327027D01*
X0025546Y0327187D01*
X0025260Y0327354D01*
X0024978Y0327527D01*
X0024700Y0327708D01*
X0024427Y0327896D01*
X0024158Y0328090D01*
X0023894Y0328290D01*
X0023636Y0328497D01*
X0023382Y0328711D01*
X0023134Y0328930D01*
X0022891Y0329156D01*
X0022654Y0329387D01*
X0022423Y0329624D01*
X0022197Y0329867D01*
X0021978Y0330115D01*
X0021764Y0330369D01*
X0021557Y0330627D01*
X0021357Y0330891D01*
X0021163Y0331160D01*
X0020975Y0331433D01*
X0020794Y0331711D01*
X0020621Y0331993D01*
X0020454Y0332279D01*
X0020294Y0332569D01*
X0020141Y0332863D01*
X0019996Y0333161D01*
X0019858Y0333462D01*
X0019728Y0333767D01*
X0019605Y0334074D01*
X0019489Y0334385D01*
X0019381Y0334698D01*
X0019281Y0335014D01*
X0019189Y0335332D01*
X0019105Y0335653D01*
X0019028Y0335975D01*
X0018959Y0336299D01*
X0018899Y0336625D01*
X0018846Y0336952D01*
X0018802Y0337280D01*
X0018765Y0337610D01*
X0018737Y0337940D01*
X0018716Y0338271D01*
X0018704Y0338602D01*
X0018700Y0338933D01*
X0340507Y0338933D02*
X0340509Y0339097D01*
X0340515Y0339261D01*
X0340525Y0339425D01*
X0340539Y0339589D01*
X0340557Y0339752D01*
X0340579Y0339915D01*
X0340606Y0340077D01*
X0340636Y0340239D01*
X0340670Y0340399D01*
X0340708Y0340559D01*
X0340749Y0340718D01*
X0340795Y0340876D01*
X0340845Y0341032D01*
X0340898Y0341188D01*
X0340955Y0341342D01*
X0341016Y0341494D01*
X0341081Y0341645D01*
X0341150Y0341795D01*
X0341222Y0341942D01*
X0341297Y0342088D01*
X0341377Y0342232D01*
X0341459Y0342374D01*
X0341545Y0342514D01*
X0341635Y0342651D01*
X0341728Y0342787D01*
X0341824Y0342920D01*
X0341924Y0343051D01*
X0342026Y0343179D01*
X0342132Y0343305D01*
X0342241Y0343428D01*
X0342353Y0343548D01*
X0342467Y0343666D01*
X0342585Y0343780D01*
X0342705Y0343892D01*
X0342828Y0344001D01*
X0342954Y0344107D01*
X0343082Y0344209D01*
X0343213Y0344309D01*
X0343346Y0344405D01*
X0343482Y0344498D01*
X0343619Y0344588D01*
X0343759Y0344674D01*
X0343901Y0344756D01*
X0344045Y0344836D01*
X0344191Y0344911D01*
X0344338Y0344983D01*
X0344488Y0345052D01*
X0344639Y0345117D01*
X0344791Y0345178D01*
X0344945Y0345235D01*
X0345101Y0345288D01*
X0345257Y0345338D01*
X0345415Y0345384D01*
X0345574Y0345425D01*
X0345734Y0345463D01*
X0345894Y0345497D01*
X0346056Y0345527D01*
X0346218Y0345554D01*
X0346381Y0345576D01*
X0346544Y0345594D01*
X0346708Y0345608D01*
X0346872Y0345618D01*
X0347036Y0345624D01*
X0347200Y0345626D01*
X0347364Y0345624D01*
X0347528Y0345618D01*
X0347692Y0345608D01*
X0347856Y0345594D01*
X0348019Y0345576D01*
X0348182Y0345554D01*
X0348344Y0345527D01*
X0348506Y0345497D01*
X0348666Y0345463D01*
X0348826Y0345425D01*
X0348985Y0345384D01*
X0349143Y0345338D01*
X0349299Y0345288D01*
X0349455Y0345235D01*
X0349609Y0345178D01*
X0349761Y0345117D01*
X0349912Y0345052D01*
X0350062Y0344983D01*
X0350209Y0344911D01*
X0350355Y0344836D01*
X0350499Y0344756D01*
X0350641Y0344674D01*
X0350781Y0344588D01*
X0350918Y0344498D01*
X0351054Y0344405D01*
X0351187Y0344309D01*
X0351318Y0344209D01*
X0351446Y0344107D01*
X0351572Y0344001D01*
X0351695Y0343892D01*
X0351815Y0343780D01*
X0351933Y0343666D01*
X0352047Y0343548D01*
X0352159Y0343428D01*
X0352268Y0343305D01*
X0352374Y0343179D01*
X0352476Y0343051D01*
X0352576Y0342920D01*
X0352672Y0342787D01*
X0352765Y0342651D01*
X0352855Y0342514D01*
X0352941Y0342374D01*
X0353023Y0342232D01*
X0353103Y0342088D01*
X0353178Y0341942D01*
X0353250Y0341795D01*
X0353319Y0341645D01*
X0353384Y0341494D01*
X0353445Y0341342D01*
X0353502Y0341188D01*
X0353555Y0341032D01*
X0353605Y0340876D01*
X0353651Y0340718D01*
X0353692Y0340559D01*
X0353730Y0340399D01*
X0353764Y0340239D01*
X0353794Y0340077D01*
X0353821Y0339915D01*
X0353843Y0339752D01*
X0353861Y0339589D01*
X0353875Y0339425D01*
X0353885Y0339261D01*
X0353891Y0339097D01*
X0353893Y0338933D01*
X0353891Y0338769D01*
X0353885Y0338605D01*
X0353875Y0338441D01*
X0353861Y0338277D01*
X0353843Y0338114D01*
X0353821Y0337951D01*
X0353794Y0337789D01*
X0353764Y0337627D01*
X0353730Y0337467D01*
X0353692Y0337307D01*
X0353651Y0337148D01*
X0353605Y0336990D01*
X0353555Y0336834D01*
X0353502Y0336678D01*
X0353445Y0336524D01*
X0353384Y0336372D01*
X0353319Y0336221D01*
X0353250Y0336071D01*
X0353178Y0335924D01*
X0353103Y0335778D01*
X0353023Y0335634D01*
X0352941Y0335492D01*
X0352855Y0335352D01*
X0352765Y0335215D01*
X0352672Y0335079D01*
X0352576Y0334946D01*
X0352476Y0334815D01*
X0352374Y0334687D01*
X0352268Y0334561D01*
X0352159Y0334438D01*
X0352047Y0334318D01*
X0351933Y0334200D01*
X0351815Y0334086D01*
X0351695Y0333974D01*
X0351572Y0333865D01*
X0351446Y0333759D01*
X0351318Y0333657D01*
X0351187Y0333557D01*
X0351054Y0333461D01*
X0350918Y0333368D01*
X0350781Y0333278D01*
X0350641Y0333192D01*
X0350499Y0333110D01*
X0350355Y0333030D01*
X0350209Y0332955D01*
X0350062Y0332883D01*
X0349912Y0332814D01*
X0349761Y0332749D01*
X0349609Y0332688D01*
X0349455Y0332631D01*
X0349299Y0332578D01*
X0349143Y0332528D01*
X0348985Y0332482D01*
X0348826Y0332441D01*
X0348666Y0332403D01*
X0348506Y0332369D01*
X0348344Y0332339D01*
X0348182Y0332312D01*
X0348019Y0332290D01*
X0347856Y0332272D01*
X0347692Y0332258D01*
X0347528Y0332248D01*
X0347364Y0332242D01*
X0347200Y0332240D01*
X0347036Y0332242D01*
X0346872Y0332248D01*
X0346708Y0332258D01*
X0346544Y0332272D01*
X0346381Y0332290D01*
X0346218Y0332312D01*
X0346056Y0332339D01*
X0345894Y0332369D01*
X0345734Y0332403D01*
X0345574Y0332441D01*
X0345415Y0332482D01*
X0345257Y0332528D01*
X0345101Y0332578D01*
X0344945Y0332631D01*
X0344791Y0332688D01*
X0344639Y0332749D01*
X0344488Y0332814D01*
X0344338Y0332883D01*
X0344191Y0332955D01*
X0344045Y0333030D01*
X0343901Y0333110D01*
X0343759Y0333192D01*
X0343619Y0333278D01*
X0343482Y0333368D01*
X0343346Y0333461D01*
X0343213Y0333557D01*
X0343082Y0333657D01*
X0342954Y0333759D01*
X0342828Y0333865D01*
X0342705Y0333974D01*
X0342585Y0334086D01*
X0342467Y0334200D01*
X0342353Y0334318D01*
X0342241Y0334438D01*
X0342132Y0334561D01*
X0342026Y0334687D01*
X0341924Y0334815D01*
X0341824Y0334946D01*
X0341728Y0335079D01*
X0341635Y0335215D01*
X0341545Y0335352D01*
X0341459Y0335492D01*
X0341377Y0335634D01*
X0341297Y0335778D01*
X0341222Y0335924D01*
X0341150Y0336071D01*
X0341081Y0336221D01*
X0341016Y0336372D01*
X0340955Y0336524D01*
X0340898Y0336678D01*
X0340845Y0336834D01*
X0340795Y0336990D01*
X0340749Y0337148D01*
X0340708Y0337307D01*
X0340670Y0337467D01*
X0340636Y0337627D01*
X0340606Y0337789D01*
X0340579Y0337951D01*
X0340557Y0338114D01*
X0340539Y0338277D01*
X0340525Y0338441D01*
X0340515Y0338605D01*
X0340509Y0338769D01*
X0340507Y0338933D01*
X0333700Y0338933D02*
X0333704Y0339264D01*
X0333716Y0339595D01*
X0333737Y0339926D01*
X0333765Y0340256D01*
X0333802Y0340586D01*
X0333846Y0340914D01*
X0333899Y0341241D01*
X0333959Y0341567D01*
X0334028Y0341891D01*
X0334105Y0342213D01*
X0334189Y0342534D01*
X0334281Y0342852D01*
X0334381Y0343168D01*
X0334489Y0343481D01*
X0334605Y0343792D01*
X0334728Y0344099D01*
X0334858Y0344404D01*
X0334996Y0344705D01*
X0335141Y0345003D01*
X0335294Y0345297D01*
X0335454Y0345587D01*
X0335621Y0345873D01*
X0335794Y0346155D01*
X0335975Y0346433D01*
X0336163Y0346706D01*
X0336357Y0346975D01*
X0336557Y0347239D01*
X0336764Y0347497D01*
X0336978Y0347751D01*
X0337197Y0347999D01*
X0337423Y0348242D01*
X0337654Y0348479D01*
X0337891Y0348710D01*
X0338134Y0348936D01*
X0338382Y0349155D01*
X0338636Y0349369D01*
X0338894Y0349576D01*
X0339158Y0349776D01*
X0339427Y0349970D01*
X0339700Y0350158D01*
X0339978Y0350339D01*
X0340260Y0350512D01*
X0340546Y0350679D01*
X0340836Y0350839D01*
X0341130Y0350992D01*
X0341428Y0351137D01*
X0341729Y0351275D01*
X0342034Y0351405D01*
X0342341Y0351528D01*
X0342652Y0351644D01*
X0342965Y0351752D01*
X0343281Y0351852D01*
X0343599Y0351944D01*
X0343920Y0352028D01*
X0344242Y0352105D01*
X0344566Y0352174D01*
X0344892Y0352234D01*
X0345219Y0352287D01*
X0345547Y0352331D01*
X0345877Y0352368D01*
X0346207Y0352396D01*
X0346538Y0352417D01*
X0346869Y0352429D01*
X0347200Y0352433D01*
X0347531Y0352429D01*
X0347862Y0352417D01*
X0348193Y0352396D01*
X0348523Y0352368D01*
X0348853Y0352331D01*
X0349181Y0352287D01*
X0349508Y0352234D01*
X0349834Y0352174D01*
X0350158Y0352105D01*
X0350480Y0352028D01*
X0350801Y0351944D01*
X0351119Y0351852D01*
X0351435Y0351752D01*
X0351748Y0351644D01*
X0352059Y0351528D01*
X0352366Y0351405D01*
X0352671Y0351275D01*
X0352972Y0351137D01*
X0353270Y0350992D01*
X0353564Y0350839D01*
X0353854Y0350679D01*
X0354140Y0350512D01*
X0354422Y0350339D01*
X0354700Y0350158D01*
X0354973Y0349970D01*
X0355242Y0349776D01*
X0355506Y0349576D01*
X0355764Y0349369D01*
X0356018Y0349155D01*
X0356266Y0348936D01*
X0356509Y0348710D01*
X0356746Y0348479D01*
X0356977Y0348242D01*
X0357203Y0347999D01*
X0357422Y0347751D01*
X0357636Y0347497D01*
X0357843Y0347239D01*
X0358043Y0346975D01*
X0358237Y0346706D01*
X0358425Y0346433D01*
X0358606Y0346155D01*
X0358779Y0345873D01*
X0358946Y0345587D01*
X0359106Y0345297D01*
X0359259Y0345003D01*
X0359404Y0344705D01*
X0359542Y0344404D01*
X0359672Y0344099D01*
X0359795Y0343792D01*
X0359911Y0343481D01*
X0360019Y0343168D01*
X0360119Y0342852D01*
X0360211Y0342534D01*
X0360295Y0342213D01*
X0360372Y0341891D01*
X0360441Y0341567D01*
X0360501Y0341241D01*
X0360554Y0340914D01*
X0360598Y0340586D01*
X0360635Y0340256D01*
X0360663Y0339926D01*
X0360684Y0339595D01*
X0360696Y0339264D01*
X0360700Y0338933D01*
X0360696Y0338602D01*
X0360684Y0338271D01*
X0360663Y0337940D01*
X0360635Y0337610D01*
X0360598Y0337280D01*
X0360554Y0336952D01*
X0360501Y0336625D01*
X0360441Y0336299D01*
X0360372Y0335975D01*
X0360295Y0335653D01*
X0360211Y0335332D01*
X0360119Y0335014D01*
X0360019Y0334698D01*
X0359911Y0334385D01*
X0359795Y0334074D01*
X0359672Y0333767D01*
X0359542Y0333462D01*
X0359404Y0333161D01*
X0359259Y0332863D01*
X0359106Y0332569D01*
X0358946Y0332279D01*
X0358779Y0331993D01*
X0358606Y0331711D01*
X0358425Y0331433D01*
X0358237Y0331160D01*
X0358043Y0330891D01*
X0357843Y0330627D01*
X0357636Y0330369D01*
X0357422Y0330115D01*
X0357203Y0329867D01*
X0356977Y0329624D01*
X0356746Y0329387D01*
X0356509Y0329156D01*
X0356266Y0328930D01*
X0356018Y0328711D01*
X0355764Y0328497D01*
X0355506Y0328290D01*
X0355242Y0328090D01*
X0354973Y0327896D01*
X0354700Y0327708D01*
X0354422Y0327527D01*
X0354140Y0327354D01*
X0353854Y0327187D01*
X0353564Y0327027D01*
X0353270Y0326874D01*
X0352972Y0326729D01*
X0352671Y0326591D01*
X0352366Y0326461D01*
X0352059Y0326338D01*
X0351748Y0326222D01*
X0351435Y0326114D01*
X0351119Y0326014D01*
X0350801Y0325922D01*
X0350480Y0325838D01*
X0350158Y0325761D01*
X0349834Y0325692D01*
X0349508Y0325632D01*
X0349181Y0325579D01*
X0348853Y0325535D01*
X0348523Y0325498D01*
X0348193Y0325470D01*
X0347862Y0325449D01*
X0347531Y0325437D01*
X0347200Y0325433D01*
X0346869Y0325437D01*
X0346538Y0325449D01*
X0346207Y0325470D01*
X0345877Y0325498D01*
X0345547Y0325535D01*
X0345219Y0325579D01*
X0344892Y0325632D01*
X0344566Y0325692D01*
X0344242Y0325761D01*
X0343920Y0325838D01*
X0343599Y0325922D01*
X0343281Y0326014D01*
X0342965Y0326114D01*
X0342652Y0326222D01*
X0342341Y0326338D01*
X0342034Y0326461D01*
X0341729Y0326591D01*
X0341428Y0326729D01*
X0341130Y0326874D01*
X0340836Y0327027D01*
X0340546Y0327187D01*
X0340260Y0327354D01*
X0339978Y0327527D01*
X0339700Y0327708D01*
X0339427Y0327896D01*
X0339158Y0328090D01*
X0338894Y0328290D01*
X0338636Y0328497D01*
X0338382Y0328711D01*
X0338134Y0328930D01*
X0337891Y0329156D01*
X0337654Y0329387D01*
X0337423Y0329624D01*
X0337197Y0329867D01*
X0336978Y0330115D01*
X0336764Y0330369D01*
X0336557Y0330627D01*
X0336357Y0330891D01*
X0336163Y0331160D01*
X0335975Y0331433D01*
X0335794Y0331711D01*
X0335621Y0331993D01*
X0335454Y0332279D01*
X0335294Y0332569D01*
X0335141Y0332863D01*
X0334996Y0333161D01*
X0334858Y0333462D01*
X0334728Y0333767D01*
X0334605Y0334074D01*
X0334489Y0334385D01*
X0334381Y0334698D01*
X0334281Y0335014D01*
X0334189Y0335332D01*
X0334105Y0335653D01*
X0334028Y0335975D01*
X0333959Y0336299D01*
X0333899Y0336625D01*
X0333846Y0336952D01*
X0333802Y0337280D01*
X0333765Y0337610D01*
X0333737Y0337940D01*
X0333716Y0338271D01*
X0333704Y0338602D01*
X0333700Y0338933D01*
D11*
X0282680Y0340683D02*
X0281179Y0342184D01*
X0281929Y0342184D02*
X0279677Y0342184D01*
X0279677Y0340683D02*
X0279677Y0345187D01*
X0281929Y0345187D01*
X0282680Y0344436D01*
X0282680Y0342935D01*
X0281929Y0342184D01*
X0278076Y0341434D02*
X0278076Y0344436D01*
X0277325Y0345187D01*
X0275824Y0345187D01*
X0275074Y0344436D01*
X0275074Y0341434D01*
X0275824Y0340683D01*
X0277325Y0340683D01*
X0278076Y0341434D01*
X0273472Y0345187D02*
X0270470Y0345187D01*
X0271971Y0345187D02*
X0271971Y0340683D01*
X0268868Y0340683D02*
X0266616Y0342935D01*
X0265866Y0342184D02*
X0268868Y0345187D01*
X0265866Y0345187D02*
X0265866Y0340683D01*
X0264264Y0340683D02*
X0261262Y0340683D01*
X0261262Y0345187D01*
X0264264Y0345187D01*
X0262763Y0342935D02*
X0261262Y0342935D01*
X0259660Y0340683D02*
X0256658Y0340683D01*
X0256658Y0345187D01*
X0255056Y0344436D02*
X0254306Y0345187D01*
X0252805Y0345187D01*
X0252054Y0344436D01*
X0252054Y0341434D01*
X0252805Y0340683D01*
X0254306Y0340683D01*
X0255056Y0341434D01*
X0255056Y0344436D01*
X0250453Y0345187D02*
X0247450Y0342184D01*
X0248201Y0342935D02*
X0250453Y0340683D01*
X0247450Y0340683D02*
X0247450Y0345187D01*
X0241938Y0344436D02*
X0241938Y0342935D01*
X0241187Y0342184D01*
X0238935Y0342184D01*
X0238935Y0340683D02*
X0238935Y0345187D01*
X0241187Y0345187D01*
X0241938Y0344436D01*
X0240436Y0342184D02*
X0241938Y0340683D01*
X0237334Y0341434D02*
X0237334Y0344436D01*
X0236583Y0345187D01*
X0235082Y0345187D01*
X0234331Y0344436D01*
X0234331Y0341434D01*
X0235082Y0340683D01*
X0236583Y0340683D01*
X0237334Y0341434D01*
X0232730Y0345187D02*
X0229727Y0345187D01*
X0231228Y0345187D02*
X0231228Y0340683D01*
X0228159Y0340683D02*
X0226658Y0340683D01*
X0227408Y0340683D02*
X0227408Y0345187D01*
X0226658Y0345187D02*
X0228159Y0345187D01*
X0225056Y0345187D02*
X0225056Y0340683D01*
X0222054Y0340683D02*
X0222054Y0345187D01*
X0223555Y0343686D01*
X0225056Y0345187D01*
X0220453Y0345187D02*
X0217450Y0345187D01*
X0217450Y0340683D01*
X0220453Y0340683D01*
X0218951Y0342935D02*
X0217450Y0342935D01*
X0208450Y0310082D02*
X0208450Y0307079D01*
X0205447Y0310082D01*
X0204697Y0310082D01*
X0203946Y0309331D01*
X0203946Y0307830D01*
X0204697Y0307079D01*
X0204697Y0305478D02*
X0203946Y0304727D01*
X0203946Y0302475D01*
X0208450Y0302475D01*
X0208450Y0304727D01*
X0207699Y0305478D01*
X0204697Y0305478D01*
X0203946Y0300874D02*
X0203946Y0297871D01*
X0208450Y0297871D01*
X0208450Y0300874D01*
X0206198Y0299373D02*
X0206198Y0297871D01*
X0208450Y0296270D02*
X0208450Y0293267D01*
X0203946Y0293267D01*
X0188450Y0293267D02*
X0188450Y0296270D01*
X0188450Y0297871D02*
X0188450Y0300874D01*
X0188450Y0302475D02*
X0188450Y0304727D01*
X0187699Y0305478D01*
X0184697Y0305478D01*
X0183946Y0304727D01*
X0183946Y0302475D01*
X0188450Y0302475D01*
X0186198Y0299373D02*
X0186198Y0297871D01*
X0183946Y0297871D02*
X0188450Y0297871D01*
X0183946Y0297871D02*
X0183946Y0300874D01*
X0184697Y0307079D02*
X0183946Y0307830D01*
X0183946Y0309331D01*
X0184697Y0310082D01*
X0185447Y0310082D01*
X0186198Y0309331D01*
X0186949Y0310082D01*
X0187699Y0310082D01*
X0188450Y0309331D01*
X0188450Y0307830D01*
X0187699Y0307079D01*
X0186198Y0308580D02*
X0186198Y0309331D01*
X0183946Y0293267D02*
X0188450Y0293267D01*
X0188450Y0285582D02*
X0188450Y0282579D01*
X0185447Y0285582D01*
X0184697Y0285582D01*
X0183946Y0284831D01*
X0183946Y0283330D01*
X0184697Y0282579D01*
X0184697Y0280978D02*
X0183946Y0280227D01*
X0183946Y0277975D01*
X0188450Y0277975D01*
X0188450Y0280227D01*
X0187699Y0280978D01*
X0184697Y0280978D01*
X0215950Y0256187D02*
X0215950Y0251683D01*
X0215950Y0253184D02*
X0218953Y0256187D01*
X0220554Y0255436D02*
X0221305Y0256187D01*
X0222806Y0256187D01*
X0223556Y0255436D01*
X0223556Y0254686D01*
X0222806Y0253935D01*
X0223556Y0253184D01*
X0223556Y0252434D01*
X0222806Y0251683D01*
X0221305Y0251683D01*
X0220554Y0252434D01*
X0218953Y0251683D02*
X0216701Y0253935D01*
X0222055Y0253935D02*
X0222806Y0253935D01*
X0265700Y0275685D02*
X0265700Y0292181D01*
X0271700Y0289461D02*
X0271700Y0288406D01*
X0267728Y0293435D02*
X0267513Y0293331D01*
X0267300Y0293222D01*
X0267090Y0293108D01*
X0266883Y0292989D01*
X0266678Y0292866D01*
X0266476Y0292738D01*
X0266277Y0292605D01*
X0266082Y0292468D01*
X0265889Y0292327D01*
X0265700Y0292181D01*
X0268951Y0301183D02*
X0268951Y0305687D01*
X0267450Y0305687D02*
X0270453Y0305687D01*
X0272054Y0304936D02*
X0272805Y0305687D01*
X0274306Y0305687D01*
X0275056Y0304936D01*
X0275056Y0304186D01*
X0272054Y0301183D01*
X0275056Y0301183D01*
X0276672Y0293433D02*
X0276902Y0293321D01*
X0277129Y0293204D01*
X0277353Y0293082D01*
X0277574Y0292954D01*
X0277791Y0292820D01*
X0278006Y0292682D01*
X0278217Y0292538D01*
X0278424Y0292389D01*
X0278628Y0292235D01*
X0278828Y0292077D01*
X0279024Y0291913D01*
X0279216Y0291745D01*
X0279404Y0291572D01*
X0279588Y0291394D01*
X0279767Y0291213D01*
X0279942Y0291026D01*
X0280112Y0290836D01*
X0280277Y0290642D01*
X0280438Y0290443D01*
X0280594Y0290241D01*
X0280745Y0290035D01*
X0280891Y0289825D01*
X0281031Y0289612D01*
X0281167Y0289396D01*
X0281297Y0289176D01*
X0281422Y0288953D01*
X0281541Y0288728D01*
X0281655Y0288499D01*
X0281763Y0288268D01*
X0281866Y0288034D01*
X0281963Y0287798D01*
X0282054Y0287559D01*
X0282139Y0287319D01*
X0282219Y0287076D01*
X0282292Y0286831D01*
X0282360Y0286585D01*
X0282421Y0286337D01*
X0282476Y0286088D01*
X0282526Y0285838D01*
X0282569Y0285586D01*
X0282606Y0285333D01*
X0282637Y0285080D01*
X0282662Y0284826D01*
X0282681Y0284571D01*
X0282693Y0284316D01*
X0282699Y0284061D01*
X0282699Y0283805D01*
X0282693Y0283550D01*
X0282681Y0283295D01*
X0282662Y0283040D01*
X0282637Y0282786D01*
X0282606Y0282533D01*
X0282569Y0282280D01*
X0282526Y0282028D01*
X0282476Y0281778D01*
X0282421Y0281529D01*
X0282360Y0281281D01*
X0282292Y0281035D01*
X0282219Y0280790D01*
X0282139Y0280547D01*
X0282054Y0280307D01*
X0281963Y0280068D01*
X0281866Y0279832D01*
X0281763Y0279598D01*
X0281655Y0279367D01*
X0281541Y0279138D01*
X0281422Y0278913D01*
X0281297Y0278690D01*
X0281167Y0278470D01*
X0281031Y0278254D01*
X0280891Y0278041D01*
X0280745Y0277831D01*
X0280594Y0277625D01*
X0280438Y0277423D01*
X0280277Y0277224D01*
X0280112Y0277030D01*
X0279942Y0276840D01*
X0279767Y0276653D01*
X0279588Y0276472D01*
X0279404Y0276294D01*
X0279216Y0276121D01*
X0279024Y0275953D01*
X0278828Y0275789D01*
X0278628Y0275631D01*
X0278424Y0275477D01*
X0278217Y0275328D01*
X0278006Y0275184D01*
X0277791Y0275046D01*
X0277574Y0274912D01*
X0277353Y0274784D01*
X0277129Y0274662D01*
X0276902Y0274545D01*
X0276672Y0274433D01*
X0271700Y0278406D02*
X0271700Y0279461D01*
X0267822Y0274387D02*
X0267597Y0274494D01*
X0267374Y0274606D01*
X0267154Y0274723D01*
X0266937Y0274845D01*
X0266722Y0274973D01*
X0266511Y0275106D01*
X0266303Y0275243D01*
X0266099Y0275386D01*
X0265897Y0275533D01*
X0265700Y0275685D01*
X0144264Y0340683D02*
X0141262Y0340683D01*
X0141262Y0345187D01*
X0144264Y0345187D01*
X0142763Y0342935D02*
X0141262Y0342935D01*
X0139660Y0344436D02*
X0136658Y0341434D01*
X0136658Y0340683D01*
X0139660Y0340683D01*
X0139660Y0344436D02*
X0139660Y0345187D01*
X0136658Y0345187D01*
X0135056Y0343686D02*
X0135056Y0340683D01*
X0135056Y0342935D02*
X0132054Y0342935D01*
X0132054Y0343686D02*
X0132054Y0340683D01*
X0130453Y0341434D02*
X0129702Y0340683D01*
X0127450Y0340683D01*
X0127450Y0345187D01*
X0129702Y0345187D01*
X0130453Y0344436D01*
X0130453Y0343686D01*
X0129702Y0342935D01*
X0127450Y0342935D01*
X0129702Y0342935D02*
X0130453Y0342184D01*
X0130453Y0341434D01*
X0132054Y0343686D02*
X0133555Y0345187D01*
X0135056Y0343686D01*
X0132806Y0256187D02*
X0130554Y0253935D01*
X0133556Y0253935D01*
X0132806Y0251683D02*
X0132806Y0256187D01*
X0128953Y0256187D02*
X0125950Y0253184D01*
X0126701Y0253935D02*
X0128953Y0251683D01*
X0125950Y0251683D02*
X0125950Y0256187D01*
X0125494Y0242187D02*
X0123242Y0242187D01*
X0123242Y0237683D01*
X0125494Y0237683D01*
X0126245Y0238434D01*
X0126245Y0241436D01*
X0125494Y0242187D01*
X0127846Y0240686D02*
X0129347Y0242187D01*
X0129347Y0237683D01*
X0127846Y0237683D02*
X0130849Y0237683D01*
X0121641Y0237683D02*
X0118638Y0237683D01*
X0118638Y0242187D01*
X0121641Y0242187D01*
X0120139Y0239935D02*
X0118638Y0239935D01*
X0117037Y0237683D02*
X0114034Y0237683D01*
X0114034Y0242187D01*
X0090849Y0227183D02*
X0087846Y0227183D01*
X0089347Y0227183D02*
X0089347Y0231687D01*
X0087846Y0230186D01*
X0086245Y0231687D02*
X0083242Y0231687D01*
X0084743Y0231687D02*
X0084743Y0227183D01*
X0077728Y0239433D02*
X0076672Y0239433D01*
X0081702Y0243405D02*
X0081598Y0243620D01*
X0081489Y0243833D01*
X0081375Y0244043D01*
X0081256Y0244250D01*
X0081133Y0244455D01*
X0081005Y0244657D01*
X0080872Y0244856D01*
X0080735Y0245051D01*
X0080594Y0245244D01*
X0080448Y0245433D01*
X0063952Y0245433D01*
X0066672Y0239433D02*
X0067728Y0239433D01*
X0062654Y0243311D02*
X0062761Y0243536D01*
X0062873Y0243759D01*
X0062990Y0243979D01*
X0063112Y0244196D01*
X0063240Y0244411D01*
X0063373Y0244622D01*
X0063510Y0244830D01*
X0063653Y0245034D01*
X0063800Y0245236D01*
X0063952Y0245433D01*
X0062700Y0234461D02*
X0062812Y0234231D01*
X0062929Y0234004D01*
X0063051Y0233780D01*
X0063179Y0233559D01*
X0063313Y0233342D01*
X0063451Y0233127D01*
X0063595Y0232916D01*
X0063744Y0232709D01*
X0063898Y0232505D01*
X0064056Y0232305D01*
X0064220Y0232109D01*
X0064388Y0231917D01*
X0064561Y0231729D01*
X0064739Y0231545D01*
X0064920Y0231366D01*
X0065107Y0231191D01*
X0065297Y0231021D01*
X0065491Y0230856D01*
X0065690Y0230695D01*
X0065892Y0230539D01*
X0066098Y0230388D01*
X0066308Y0230242D01*
X0066521Y0230102D01*
X0066737Y0229966D01*
X0066957Y0229836D01*
X0067180Y0229711D01*
X0067405Y0229592D01*
X0067634Y0229478D01*
X0067865Y0229370D01*
X0068099Y0229267D01*
X0068335Y0229170D01*
X0068574Y0229079D01*
X0068814Y0228994D01*
X0069057Y0228914D01*
X0069302Y0228841D01*
X0069548Y0228773D01*
X0069796Y0228712D01*
X0070045Y0228657D01*
X0070295Y0228607D01*
X0070547Y0228564D01*
X0070800Y0228527D01*
X0071053Y0228496D01*
X0071307Y0228471D01*
X0071562Y0228452D01*
X0071817Y0228440D01*
X0072072Y0228434D01*
X0072328Y0228434D01*
X0072583Y0228440D01*
X0072838Y0228452D01*
X0073093Y0228471D01*
X0073347Y0228496D01*
X0073600Y0228527D01*
X0073853Y0228564D01*
X0074105Y0228607D01*
X0074355Y0228657D01*
X0074604Y0228712D01*
X0074852Y0228773D01*
X0075098Y0228841D01*
X0075343Y0228914D01*
X0075586Y0228994D01*
X0075826Y0229079D01*
X0076065Y0229170D01*
X0076301Y0229267D01*
X0076535Y0229370D01*
X0076766Y0229478D01*
X0076995Y0229592D01*
X0077220Y0229711D01*
X0077443Y0229836D01*
X0077663Y0229966D01*
X0077879Y0230102D01*
X0078092Y0230242D01*
X0078302Y0230388D01*
X0078508Y0230539D01*
X0078710Y0230695D01*
X0078909Y0230856D01*
X0079103Y0231021D01*
X0079293Y0231191D01*
X0079480Y0231366D01*
X0079661Y0231545D01*
X0079839Y0231729D01*
X0080012Y0231917D01*
X0080180Y0232109D01*
X0080344Y0232305D01*
X0080502Y0232505D01*
X0080656Y0232709D01*
X0080805Y0232916D01*
X0080949Y0233127D01*
X0081087Y0233342D01*
X0081221Y0233559D01*
X0081349Y0233780D01*
X0081471Y0234004D01*
X0081588Y0234231D01*
X0081700Y0234461D01*
X0089450Y0185290D02*
X0089450Y0182287D01*
X0089450Y0183788D02*
X0084946Y0183788D01*
X0086447Y0182287D01*
X0084946Y0180686D02*
X0087949Y0177683D01*
X0087198Y0178434D02*
X0089450Y0180686D01*
X0089450Y0177683D02*
X0084946Y0177683D01*
X0057056Y0170683D02*
X0054054Y0170683D01*
X0055555Y0170683D02*
X0055555Y0175187D01*
X0054054Y0173686D01*
X0052453Y0174436D02*
X0052453Y0171434D01*
X0051702Y0170683D01*
X0049450Y0170683D01*
X0049450Y0175187D01*
X0051702Y0175187D01*
X0052453Y0174436D01*
X0085697Y0115290D02*
X0084946Y0114539D01*
X0084946Y0113038D01*
X0085697Y0112287D01*
X0084946Y0110686D02*
X0087949Y0107683D01*
X0087198Y0108434D02*
X0089450Y0110686D01*
X0089450Y0112287D02*
X0086447Y0115290D01*
X0085697Y0115290D01*
X0089450Y0115290D02*
X0089450Y0112287D01*
X0089450Y0107683D02*
X0084946Y0107683D01*
X0084590Y0094687D02*
X0083089Y0094687D01*
X0082338Y0093936D01*
X0082338Y0090934D01*
X0083089Y0090183D01*
X0084590Y0090183D01*
X0085341Y0090934D01*
X0086942Y0090183D02*
X0089945Y0090183D01*
X0088443Y0090183D02*
X0088443Y0094687D01*
X0086942Y0093186D01*
X0085341Y0093936D02*
X0084590Y0094687D01*
X0091546Y0093936D02*
X0091546Y0090934D01*
X0094549Y0093936D01*
X0094549Y0090934D01*
X0093798Y0090183D01*
X0092297Y0090183D01*
X0091546Y0090934D01*
X0091546Y0093936D02*
X0092297Y0094687D01*
X0093798Y0094687D01*
X0094549Y0093936D01*
X0238242Y0101687D02*
X0241245Y0101687D01*
X0239743Y0101687D02*
X0239743Y0097183D01*
X0242846Y0097934D02*
X0243597Y0097183D01*
X0245098Y0097183D01*
X0245849Y0097934D01*
X0245849Y0098684D01*
X0245098Y0099435D01*
X0244347Y0099435D01*
X0245098Y0099435D02*
X0245849Y0100186D01*
X0245849Y0100936D01*
X0245098Y0101687D01*
X0243597Y0101687D01*
X0242846Y0100936D01*
X0248700Y0110685D02*
X0248700Y0127181D01*
X0242700Y0124461D02*
X0242700Y0123406D01*
X0246578Y0128479D02*
X0246803Y0128372D01*
X0247026Y0128260D01*
X0247246Y0128143D01*
X0247463Y0128021D01*
X0247678Y0127893D01*
X0247889Y0127760D01*
X0248097Y0127623D01*
X0248301Y0127480D01*
X0248503Y0127333D01*
X0248700Y0127181D01*
X0237728Y0128433D02*
X0237498Y0128321D01*
X0237271Y0128204D01*
X0237047Y0128082D01*
X0236826Y0127954D01*
X0236609Y0127820D01*
X0236394Y0127682D01*
X0236183Y0127538D01*
X0235976Y0127389D01*
X0235772Y0127235D01*
X0235572Y0127077D01*
X0235376Y0126913D01*
X0235184Y0126745D01*
X0234996Y0126572D01*
X0234812Y0126394D01*
X0234633Y0126213D01*
X0234458Y0126026D01*
X0234288Y0125836D01*
X0234123Y0125642D01*
X0233962Y0125443D01*
X0233806Y0125241D01*
X0233655Y0125035D01*
X0233509Y0124825D01*
X0233369Y0124612D01*
X0233233Y0124396D01*
X0233103Y0124176D01*
X0232978Y0123953D01*
X0232859Y0123728D01*
X0232745Y0123499D01*
X0232637Y0123268D01*
X0232534Y0123034D01*
X0232437Y0122798D01*
X0232346Y0122559D01*
X0232261Y0122319D01*
X0232181Y0122076D01*
X0232108Y0121831D01*
X0232040Y0121585D01*
X0231979Y0121337D01*
X0231924Y0121088D01*
X0231874Y0120838D01*
X0231831Y0120586D01*
X0231794Y0120333D01*
X0231763Y0120080D01*
X0231738Y0119826D01*
X0231719Y0119571D01*
X0231707Y0119316D01*
X0231701Y0119061D01*
X0231701Y0118805D01*
X0231707Y0118550D01*
X0231719Y0118295D01*
X0231738Y0118040D01*
X0231763Y0117786D01*
X0231794Y0117533D01*
X0231831Y0117280D01*
X0231874Y0117028D01*
X0231924Y0116778D01*
X0231979Y0116529D01*
X0232040Y0116281D01*
X0232108Y0116035D01*
X0232181Y0115790D01*
X0232261Y0115547D01*
X0232346Y0115307D01*
X0232437Y0115068D01*
X0232534Y0114832D01*
X0232637Y0114598D01*
X0232745Y0114367D01*
X0232859Y0114138D01*
X0232978Y0113913D01*
X0233103Y0113690D01*
X0233233Y0113470D01*
X0233369Y0113254D01*
X0233509Y0113041D01*
X0233655Y0112831D01*
X0233806Y0112625D01*
X0233962Y0112423D01*
X0234123Y0112224D01*
X0234288Y0112030D01*
X0234458Y0111840D01*
X0234633Y0111653D01*
X0234812Y0111472D01*
X0234996Y0111294D01*
X0235184Y0111121D01*
X0235376Y0110953D01*
X0235572Y0110789D01*
X0235772Y0110631D01*
X0235976Y0110477D01*
X0236183Y0110328D01*
X0236394Y0110184D01*
X0236609Y0110046D01*
X0236826Y0109912D01*
X0237047Y0109784D01*
X0237271Y0109662D01*
X0237498Y0109545D01*
X0237728Y0109433D01*
X0242700Y0113406D02*
X0242700Y0114461D01*
X0246672Y0109431D02*
X0246887Y0109535D01*
X0247100Y0109644D01*
X0247310Y0109758D01*
X0247517Y0109877D01*
X0247722Y0110000D01*
X0247924Y0110128D01*
X0248123Y0110261D01*
X0248318Y0110398D01*
X0248511Y0110539D01*
X0248700Y0110685D01*
X0309946Y0106643D02*
X0312198Y0104391D01*
X0312198Y0107393D01*
X0314450Y0106643D02*
X0309946Y0106643D01*
X0309946Y0101288D02*
X0314450Y0101288D01*
X0314450Y0099787D02*
X0314450Y0102790D01*
X0311447Y0099787D02*
X0309946Y0101288D01*
X0310697Y0098186D02*
X0309946Y0097435D01*
X0309946Y0095934D01*
X0310697Y0095183D01*
X0313699Y0095183D01*
X0314450Y0095934D01*
X0314450Y0097435D01*
X0313699Y0098186D01*
X0334197Y0125483D02*
X0337199Y0125483D01*
X0337950Y0126234D01*
X0337950Y0127735D01*
X0337199Y0128486D01*
X0337950Y0130087D02*
X0337950Y0133090D01*
X0337950Y0131588D02*
X0333446Y0131588D01*
X0334947Y0130087D01*
X0334197Y0128486D02*
X0333446Y0127735D01*
X0333446Y0126234D01*
X0334197Y0125483D01*
X0334197Y0134691D02*
X0333446Y0135442D01*
X0333446Y0136943D01*
X0334197Y0137693D01*
X0334947Y0137693D01*
X0335698Y0136943D01*
X0336449Y0137693D01*
X0337199Y0137693D01*
X0337950Y0136943D01*
X0337950Y0135442D01*
X0337199Y0134691D01*
X0335698Y0136192D02*
X0335698Y0136943D01*
D12*
X0299615Y0137202D02*
X0298848Y0136435D01*
X0297313Y0136435D01*
X0296546Y0137202D01*
X0296546Y0137970D01*
X0297313Y0138737D01*
X0298848Y0138737D01*
X0299615Y0137970D01*
X0299615Y0137202D01*
X0298848Y0136435D02*
X0299615Y0135668D01*
X0299615Y0134900D01*
X0298848Y0134133D01*
X0297313Y0134133D01*
X0296546Y0134900D01*
X0296546Y0135668D01*
X0297313Y0136435D01*
X0295011Y0134133D02*
X0291942Y0134133D01*
X0290407Y0134133D02*
X0288873Y0135668D01*
X0289640Y0135668D02*
X0287338Y0135668D01*
X0287338Y0134133D02*
X0287338Y0138737D01*
X0289640Y0138737D01*
X0290407Y0137970D01*
X0290407Y0136435D01*
X0289640Y0135668D01*
X0291942Y0137202D02*
X0293477Y0138737D01*
X0293477Y0134133D01*
X0293477Y0123737D02*
X0293477Y0119133D01*
X0295011Y0119133D02*
X0291942Y0119133D01*
X0290407Y0119133D02*
X0288873Y0120668D01*
X0289640Y0120668D02*
X0287338Y0120668D01*
X0287338Y0119133D02*
X0287338Y0123737D01*
X0289640Y0123737D01*
X0290407Y0122970D01*
X0290407Y0121435D01*
X0289640Y0120668D01*
X0291942Y0122202D02*
X0293477Y0123737D01*
X0296546Y0123737D02*
X0299615Y0123737D01*
X0299615Y0122970D01*
X0296546Y0119900D01*
X0296546Y0119133D01*
X0293477Y0108737D02*
X0293477Y0104133D01*
X0295011Y0104133D02*
X0291942Y0104133D01*
X0290407Y0104133D02*
X0288873Y0105668D01*
X0289640Y0105668D02*
X0287338Y0105668D01*
X0287338Y0104133D02*
X0287338Y0108737D01*
X0289640Y0108737D01*
X0290407Y0107970D01*
X0290407Y0106435D01*
X0289640Y0105668D01*
X0291942Y0107202D02*
X0293477Y0108737D01*
X0296546Y0106435D02*
X0298848Y0106435D01*
X0299615Y0105668D01*
X0299615Y0104900D01*
X0298848Y0104133D01*
X0297313Y0104133D01*
X0296546Y0104900D01*
X0296546Y0106435D01*
X0298081Y0107970D01*
X0299615Y0108737D01*
X0299615Y0093737D02*
X0299615Y0092970D01*
X0296546Y0089900D01*
X0296546Y0089133D01*
X0295011Y0089133D02*
X0293477Y0090668D01*
X0294244Y0090668D02*
X0291942Y0090668D01*
X0291942Y0089133D02*
X0291942Y0093737D01*
X0294244Y0093737D01*
X0295011Y0092970D01*
X0295011Y0091435D01*
X0294244Y0090668D01*
X0296546Y0093737D02*
X0299615Y0093737D01*
X0298984Y0086237D02*
X0298984Y0082400D01*
X0299752Y0081633D01*
X0301286Y0081633D01*
X0302054Y0082400D01*
X0302054Y0086237D01*
X0303588Y0085470D02*
X0303588Y0082400D01*
X0304355Y0081633D01*
X0305890Y0081633D01*
X0306657Y0082400D01*
X0308192Y0081633D02*
X0311261Y0081633D01*
X0312796Y0081633D02*
X0315865Y0081633D01*
X0314331Y0081633D02*
X0314331Y0086237D01*
X0312796Y0084702D01*
X0311261Y0086237D02*
X0308192Y0086237D01*
X0308192Y0081633D01*
X0308192Y0083935D02*
X0309727Y0083935D01*
X0306657Y0085470D02*
X0305890Y0086237D01*
X0304355Y0086237D01*
X0303588Y0085470D01*
X0279615Y0089900D02*
X0279615Y0090668D01*
X0278848Y0091435D01*
X0276546Y0091435D01*
X0276546Y0089900D01*
X0277313Y0089133D01*
X0278848Y0089133D01*
X0279615Y0089900D01*
X0278081Y0092970D02*
X0276546Y0091435D01*
X0275011Y0090668D02*
X0275011Y0089900D01*
X0274244Y0089133D01*
X0272709Y0089133D01*
X0271942Y0089900D01*
X0270407Y0089133D02*
X0268873Y0090668D01*
X0269640Y0090668D02*
X0267338Y0090668D01*
X0267338Y0089133D02*
X0267338Y0093737D01*
X0269640Y0093737D01*
X0270407Y0092970D01*
X0270407Y0091435D01*
X0269640Y0090668D01*
X0271942Y0092970D02*
X0272709Y0093737D01*
X0274244Y0093737D01*
X0275011Y0092970D01*
X0275011Y0092202D01*
X0274244Y0091435D01*
X0275011Y0090668D01*
X0274244Y0091435D02*
X0273477Y0091435D01*
X0278081Y0092970D02*
X0279615Y0093737D01*
X0275865Y0086237D02*
X0272796Y0086237D01*
X0274331Y0086237D02*
X0274331Y0081633D01*
X0271261Y0082400D02*
X0271261Y0085470D01*
X0270494Y0086237D01*
X0268959Y0086237D01*
X0268192Y0085470D01*
X0268192Y0082400D01*
X0268959Y0081633D01*
X0270494Y0081633D01*
X0271261Y0082400D01*
X0266657Y0083935D02*
X0266657Y0085470D01*
X0265890Y0086237D01*
X0263588Y0086237D01*
X0263588Y0081633D01*
X0263588Y0083168D02*
X0265890Y0083168D01*
X0266657Y0083935D01*
X0267338Y0104133D02*
X0267338Y0108737D01*
X0269640Y0108737D01*
X0270407Y0107970D01*
X0270407Y0106435D01*
X0269640Y0105668D01*
X0267338Y0105668D01*
X0268873Y0105668D02*
X0270407Y0104133D01*
X0271942Y0104900D02*
X0272709Y0104133D01*
X0274244Y0104133D01*
X0275011Y0104900D01*
X0275011Y0105668D01*
X0274244Y0106435D01*
X0273477Y0106435D01*
X0274244Y0106435D02*
X0275011Y0107202D01*
X0275011Y0107970D01*
X0274244Y0108737D01*
X0272709Y0108737D01*
X0271942Y0107970D01*
X0276546Y0108737D02*
X0276546Y0106435D01*
X0278081Y0107202D01*
X0278848Y0107202D01*
X0279615Y0106435D01*
X0279615Y0104900D01*
X0278848Y0104133D01*
X0277313Y0104133D01*
X0276546Y0104900D01*
X0276546Y0108737D02*
X0279615Y0108737D01*
X0278848Y0119133D02*
X0278848Y0123737D01*
X0276546Y0121435D01*
X0279615Y0121435D01*
X0275011Y0120668D02*
X0275011Y0119900D01*
X0274244Y0119133D01*
X0272709Y0119133D01*
X0271942Y0119900D01*
X0270407Y0119133D02*
X0268873Y0120668D01*
X0269640Y0120668D02*
X0267338Y0120668D01*
X0267338Y0119133D02*
X0267338Y0123737D01*
X0269640Y0123737D01*
X0270407Y0122970D01*
X0270407Y0121435D01*
X0269640Y0120668D01*
X0271942Y0122970D02*
X0272709Y0123737D01*
X0274244Y0123737D01*
X0275011Y0122970D01*
X0275011Y0122202D01*
X0274244Y0121435D01*
X0275011Y0120668D01*
X0274244Y0121435D02*
X0273477Y0121435D01*
X0261323Y0124900D02*
X0260556Y0124133D01*
X0259021Y0124133D01*
X0258254Y0124900D01*
X0256719Y0124900D02*
X0256719Y0127970D01*
X0255952Y0128737D01*
X0253650Y0128737D01*
X0253650Y0124133D01*
X0255952Y0124133D01*
X0256719Y0124900D01*
X0258254Y0126435D02*
X0259789Y0127202D01*
X0260556Y0127202D01*
X0261323Y0126435D01*
X0261323Y0124900D01*
X0258254Y0126435D02*
X0258254Y0128737D01*
X0261323Y0128737D01*
X0267338Y0134133D02*
X0267338Y0138737D01*
X0269640Y0138737D01*
X0270407Y0137970D01*
X0270407Y0136435D01*
X0269640Y0135668D01*
X0267338Y0135668D01*
X0268873Y0135668D02*
X0270407Y0134133D01*
X0271942Y0134900D02*
X0272709Y0134133D01*
X0274244Y0134133D01*
X0275011Y0134900D01*
X0275011Y0135668D01*
X0274244Y0136435D01*
X0273477Y0136435D01*
X0274244Y0136435D02*
X0275011Y0137202D01*
X0275011Y0137970D01*
X0274244Y0138737D01*
X0272709Y0138737D01*
X0271942Y0137970D01*
X0276546Y0138737D02*
X0279615Y0138737D01*
X0279615Y0137970D01*
X0276546Y0134900D01*
X0276546Y0134133D01*
X0277313Y0149133D02*
X0278848Y0149133D01*
X0279615Y0149900D01*
X0279615Y0152970D01*
X0278848Y0153737D01*
X0277313Y0153737D01*
X0276546Y0152970D01*
X0276546Y0152202D01*
X0277313Y0151435D01*
X0279615Y0151435D01*
X0277313Y0149133D02*
X0276546Y0149900D01*
X0275011Y0149900D02*
X0274244Y0149133D01*
X0272709Y0149133D01*
X0271942Y0149900D01*
X0270407Y0149133D02*
X0268873Y0150668D01*
X0269640Y0150668D02*
X0267338Y0150668D01*
X0267338Y0149133D02*
X0267338Y0153737D01*
X0269640Y0153737D01*
X0270407Y0152970D01*
X0270407Y0151435D01*
X0269640Y0150668D01*
X0271942Y0152970D02*
X0272709Y0153737D01*
X0274244Y0153737D01*
X0275011Y0152970D01*
X0275011Y0152202D01*
X0274244Y0151435D01*
X0275011Y0150668D01*
X0275011Y0149900D01*
X0274244Y0151435D02*
X0273477Y0151435D01*
X0274244Y0164133D02*
X0272709Y0164133D01*
X0271942Y0164900D01*
X0270407Y0164133D02*
X0268873Y0165668D01*
X0269640Y0165668D02*
X0267338Y0165668D01*
X0267338Y0164133D02*
X0267338Y0168737D01*
X0269640Y0168737D01*
X0270407Y0167970D01*
X0270407Y0166435D01*
X0269640Y0165668D01*
X0271942Y0167970D02*
X0272709Y0168737D01*
X0274244Y0168737D01*
X0275011Y0167970D01*
X0275011Y0167202D01*
X0274244Y0166435D01*
X0275011Y0165668D01*
X0275011Y0164900D01*
X0274244Y0164133D01*
X0274244Y0166435D02*
X0273477Y0166435D01*
X0276546Y0165668D02*
X0277313Y0166435D01*
X0278848Y0166435D01*
X0279615Y0165668D01*
X0279615Y0164900D01*
X0278848Y0164133D01*
X0277313Y0164133D01*
X0276546Y0164900D01*
X0276546Y0165668D01*
X0277313Y0166435D02*
X0276546Y0167202D01*
X0276546Y0167970D01*
X0277313Y0168737D01*
X0278848Y0168737D01*
X0279615Y0167970D01*
X0279615Y0167202D01*
X0278848Y0166435D01*
X0287338Y0165668D02*
X0289640Y0165668D01*
X0290407Y0166435D01*
X0290407Y0167970D01*
X0289640Y0168737D01*
X0287338Y0168737D01*
X0287338Y0164133D01*
X0288873Y0165668D02*
X0290407Y0164133D01*
X0291942Y0164900D02*
X0292709Y0164133D01*
X0294244Y0164133D01*
X0295011Y0164900D01*
X0295011Y0165668D01*
X0294244Y0166435D01*
X0293477Y0166435D01*
X0294244Y0166435D02*
X0295011Y0167202D01*
X0295011Y0167970D01*
X0294244Y0168737D01*
X0292709Y0168737D01*
X0291942Y0167970D01*
X0296546Y0167970D02*
X0296546Y0164900D01*
X0299615Y0167970D01*
X0299615Y0164900D01*
X0298848Y0164133D01*
X0297313Y0164133D01*
X0296546Y0164900D01*
X0296546Y0167970D02*
X0297313Y0168737D01*
X0298848Y0168737D01*
X0299615Y0167970D01*
X0298848Y0179133D02*
X0299615Y0179900D01*
X0299615Y0182970D01*
X0298848Y0183737D01*
X0297313Y0183737D01*
X0296546Y0182970D01*
X0296546Y0182202D01*
X0297313Y0181435D01*
X0299615Y0181435D01*
X0298848Y0179133D02*
X0297313Y0179133D01*
X0296546Y0179900D01*
X0295011Y0179133D02*
X0291942Y0179133D01*
X0295011Y0182202D01*
X0295011Y0182970D01*
X0294244Y0183737D01*
X0292709Y0183737D01*
X0291942Y0182970D01*
X0290407Y0182970D02*
X0290407Y0181435D01*
X0289640Y0180668D01*
X0287338Y0180668D01*
X0288873Y0180668D02*
X0290407Y0179133D01*
X0287338Y0179133D02*
X0287338Y0183737D01*
X0289640Y0183737D01*
X0290407Y0182970D01*
X0279615Y0182970D02*
X0278848Y0183737D01*
X0277313Y0183737D01*
X0276546Y0182970D01*
X0275011Y0181435D02*
X0271942Y0181435D01*
X0274244Y0183737D01*
X0274244Y0179133D01*
X0276546Y0179133D02*
X0279615Y0182202D01*
X0279615Y0182970D01*
X0279615Y0179133D02*
X0276546Y0179133D01*
X0270407Y0179133D02*
X0268873Y0180668D01*
X0269640Y0180668D02*
X0267338Y0180668D01*
X0267338Y0179133D02*
X0267338Y0183737D01*
X0269640Y0183737D01*
X0270407Y0182970D01*
X0270407Y0181435D01*
X0269640Y0180668D01*
X0270407Y0194133D02*
X0268873Y0195668D01*
X0269640Y0195668D02*
X0267338Y0195668D01*
X0267338Y0194133D02*
X0267338Y0198737D01*
X0269640Y0198737D01*
X0270407Y0197970D01*
X0270407Y0196435D01*
X0269640Y0195668D01*
X0271942Y0196435D02*
X0275011Y0196435D01*
X0276546Y0197202D02*
X0278081Y0198737D01*
X0278081Y0194133D01*
X0279615Y0194133D02*
X0276546Y0194133D01*
X0274244Y0194133D02*
X0274244Y0198737D01*
X0271942Y0196435D01*
X0270407Y0209133D02*
X0268873Y0210668D01*
X0269640Y0210668D02*
X0267338Y0210668D01*
X0267338Y0209133D02*
X0267338Y0213737D01*
X0269640Y0213737D01*
X0270407Y0212970D01*
X0270407Y0211435D01*
X0269640Y0210668D01*
X0271942Y0211435D02*
X0275011Y0211435D01*
X0276546Y0209900D02*
X0279615Y0212970D01*
X0279615Y0209900D01*
X0278848Y0209133D01*
X0277313Y0209133D01*
X0276546Y0209900D01*
X0276546Y0212970D01*
X0277313Y0213737D01*
X0278848Y0213737D01*
X0279615Y0212970D01*
X0287338Y0213737D02*
X0287338Y0209133D01*
X0287338Y0210668D02*
X0289640Y0210668D01*
X0290407Y0211435D01*
X0290407Y0212970D01*
X0289640Y0213737D01*
X0287338Y0213737D01*
X0288873Y0210668D02*
X0290407Y0209133D01*
X0291942Y0209900D02*
X0292709Y0209133D01*
X0294244Y0209133D01*
X0295011Y0209900D01*
X0295011Y0210668D01*
X0294244Y0211435D01*
X0293477Y0211435D01*
X0294244Y0211435D02*
X0295011Y0212202D01*
X0295011Y0212970D01*
X0294244Y0213737D01*
X0292709Y0213737D01*
X0291942Y0212970D01*
X0296546Y0212202D02*
X0298081Y0213737D01*
X0298081Y0209133D01*
X0299615Y0209133D02*
X0296546Y0209133D01*
X0297313Y0198737D02*
X0296546Y0197970D01*
X0297313Y0198737D02*
X0298848Y0198737D01*
X0299615Y0197970D01*
X0299615Y0197202D01*
X0296546Y0194133D01*
X0299615Y0194133D01*
X0295011Y0194900D02*
X0295011Y0195668D01*
X0294244Y0196435D01*
X0293477Y0196435D01*
X0294244Y0196435D02*
X0295011Y0197202D01*
X0295011Y0197970D01*
X0294244Y0198737D01*
X0292709Y0198737D01*
X0291942Y0197970D01*
X0290407Y0197970D02*
X0290407Y0196435D01*
X0289640Y0195668D01*
X0287338Y0195668D01*
X0288873Y0195668D02*
X0290407Y0194133D01*
X0291942Y0194900D02*
X0292709Y0194133D01*
X0294244Y0194133D01*
X0295011Y0194900D01*
X0290407Y0197970D02*
X0289640Y0198737D01*
X0287338Y0198737D01*
X0287338Y0194133D01*
X0274244Y0209133D02*
X0274244Y0213737D01*
X0271942Y0211435D01*
X0270407Y0224133D02*
X0268873Y0225668D01*
X0269640Y0225668D02*
X0267338Y0225668D01*
X0267338Y0224133D02*
X0267338Y0228737D01*
X0269640Y0228737D01*
X0270407Y0227970D01*
X0270407Y0226435D01*
X0269640Y0225668D01*
X0271942Y0226435D02*
X0275011Y0226435D01*
X0276546Y0224900D02*
X0277313Y0224133D01*
X0278848Y0224133D01*
X0279615Y0224900D01*
X0279615Y0225668D01*
X0278848Y0226435D01*
X0278081Y0226435D01*
X0278848Y0226435D02*
X0279615Y0227202D01*
X0279615Y0227970D01*
X0278848Y0228737D01*
X0277313Y0228737D01*
X0276546Y0227970D01*
X0274244Y0228737D02*
X0274244Y0224133D01*
X0271942Y0226435D02*
X0274244Y0228737D01*
X0287338Y0228737D02*
X0287338Y0224133D01*
X0287338Y0225668D02*
X0289640Y0225668D01*
X0290407Y0226435D01*
X0290407Y0227970D01*
X0289640Y0228737D01*
X0287338Y0228737D01*
X0288873Y0225668D02*
X0290407Y0224133D01*
X0291942Y0224900D02*
X0292709Y0224133D01*
X0294244Y0224133D01*
X0295011Y0224900D01*
X0295011Y0225668D01*
X0294244Y0226435D01*
X0293477Y0226435D01*
X0294244Y0226435D02*
X0295011Y0227202D01*
X0295011Y0227970D01*
X0294244Y0228737D01*
X0292709Y0228737D01*
X0291942Y0227970D01*
X0296546Y0227970D02*
X0297313Y0228737D01*
X0298848Y0228737D01*
X0299615Y0227970D01*
X0299615Y0227202D01*
X0298848Y0226435D01*
X0299615Y0225668D01*
X0299615Y0224900D01*
X0298848Y0224133D01*
X0297313Y0224133D01*
X0296546Y0224900D01*
X0298081Y0226435D02*
X0298848Y0226435D01*
X0297598Y0256633D02*
X0296063Y0256633D01*
X0295296Y0257400D01*
X0295296Y0258168D01*
X0296063Y0258935D01*
X0297598Y0258935D01*
X0298365Y0258168D01*
X0298365Y0257400D01*
X0297598Y0256633D01*
X0297598Y0258935D02*
X0298365Y0259702D01*
X0298365Y0260470D01*
X0297598Y0261237D01*
X0296063Y0261237D01*
X0295296Y0260470D01*
X0295296Y0259702D01*
X0296063Y0258935D01*
X0293761Y0259702D02*
X0293761Y0260470D01*
X0292994Y0261237D01*
X0291459Y0261237D01*
X0290692Y0260470D01*
X0289157Y0260470D02*
X0289157Y0258935D01*
X0288390Y0258168D01*
X0286088Y0258168D01*
X0287623Y0258168D02*
X0289157Y0256633D01*
X0290692Y0256633D02*
X0293761Y0259702D01*
X0293761Y0256633D02*
X0290692Y0256633D01*
X0289157Y0260470D02*
X0288390Y0261237D01*
X0286088Y0261237D01*
X0286088Y0256633D01*
X0297400Y0297133D02*
X0298935Y0297133D01*
X0298167Y0297133D02*
X0298167Y0301737D01*
X0297400Y0301737D02*
X0298935Y0301737D01*
X0300469Y0300970D02*
X0300469Y0297900D01*
X0301237Y0297133D01*
X0302771Y0297133D01*
X0303539Y0297900D01*
X0305073Y0299435D02*
X0308142Y0299435D01*
X0307375Y0297133D02*
X0307375Y0301737D01*
X0305073Y0299435D01*
X0303539Y0300970D02*
X0302771Y0301737D01*
X0301237Y0301737D01*
X0300469Y0300970D01*
X0299802Y0308188D02*
X0296733Y0308188D01*
X0295198Y0308188D02*
X0292129Y0308188D01*
X0293664Y0308188D02*
X0293664Y0312792D01*
X0292129Y0311257D01*
X0290594Y0312025D02*
X0289827Y0312792D01*
X0288293Y0312792D01*
X0287525Y0312025D01*
X0287525Y0308955D01*
X0288293Y0308188D01*
X0289827Y0308188D01*
X0290594Y0308955D01*
X0296733Y0311257D02*
X0298268Y0312792D01*
X0298268Y0308188D01*
X0293848Y0324133D02*
X0293848Y0328737D01*
X0291546Y0326435D01*
X0294615Y0326435D01*
X0290011Y0324900D02*
X0289244Y0324133D01*
X0286942Y0324133D01*
X0286942Y0328737D01*
X0289244Y0328737D01*
X0290011Y0327970D01*
X0290011Y0324900D01*
X0302338Y0339133D02*
X0302338Y0343737D01*
X0304640Y0343737D01*
X0305407Y0342970D01*
X0305407Y0341435D01*
X0304640Y0340668D01*
X0302338Y0340668D01*
X0303873Y0340668D02*
X0305407Y0339133D01*
X0306942Y0339133D02*
X0310011Y0339133D01*
X0308477Y0339133D02*
X0308477Y0343737D01*
X0306942Y0342202D01*
X0311546Y0342202D02*
X0313081Y0343737D01*
X0313081Y0339133D01*
X0314615Y0339133D02*
X0311546Y0339133D01*
X0329413Y0308848D02*
X0328646Y0308081D01*
X0328646Y0306546D01*
X0329413Y0305779D01*
X0330948Y0307314D02*
X0330948Y0308081D01*
X0331715Y0308848D01*
X0332483Y0308848D01*
X0333250Y0308081D01*
X0333250Y0306546D01*
X0332483Y0305779D01*
X0333250Y0304244D02*
X0333250Y0301175D01*
X0333250Y0299641D02*
X0331715Y0298106D01*
X0331715Y0298873D02*
X0331715Y0296571D01*
X0333250Y0296571D02*
X0328646Y0296571D01*
X0328646Y0298873D01*
X0329413Y0299641D01*
X0330948Y0299641D01*
X0331715Y0298873D01*
X0330181Y0301175D02*
X0328646Y0302710D01*
X0333250Y0302710D01*
X0330948Y0308081D02*
X0330181Y0308848D01*
X0329413Y0308848D01*
X0337980Y0293432D02*
X0337213Y0292665D01*
X0337213Y0289595D01*
X0337980Y0288828D01*
X0339515Y0288828D01*
X0340282Y0289595D01*
X0341817Y0289595D02*
X0342584Y0288828D01*
X0344119Y0288828D01*
X0344886Y0289595D01*
X0344886Y0291130D01*
X0344119Y0291897D01*
X0343352Y0291897D01*
X0341817Y0291130D01*
X0341817Y0293432D01*
X0344886Y0293432D01*
X0340282Y0292665D02*
X0339515Y0293432D01*
X0337980Y0293432D01*
X0337980Y0283432D02*
X0337213Y0282665D01*
X0337213Y0279595D01*
X0337980Y0278828D01*
X0339515Y0278828D01*
X0340282Y0279595D01*
X0341817Y0279595D02*
X0344886Y0282665D01*
X0344886Y0283432D01*
X0341817Y0283432D01*
X0340282Y0282665D02*
X0339515Y0283432D01*
X0337980Y0283432D01*
X0341817Y0279595D02*
X0341817Y0278828D01*
X0222573Y0223737D02*
X0221039Y0222970D01*
X0219504Y0221435D01*
X0221806Y0221435D01*
X0222573Y0220668D01*
X0222573Y0219900D01*
X0221806Y0219133D01*
X0220271Y0219133D01*
X0219504Y0219900D01*
X0219504Y0221435D01*
X0217969Y0221435D02*
X0217202Y0220668D01*
X0214900Y0220668D01*
X0216435Y0220668D02*
X0217969Y0219133D01*
X0217969Y0221435D02*
X0217969Y0222970D01*
X0217202Y0223737D01*
X0214900Y0223737D01*
X0214900Y0219133D01*
X0214900Y0211237D02*
X0217202Y0211237D01*
X0217969Y0210470D01*
X0217969Y0208935D01*
X0217202Y0208168D01*
X0214900Y0208168D01*
X0216435Y0208168D02*
X0217969Y0206633D01*
X0219504Y0207400D02*
X0220271Y0206633D01*
X0221806Y0206633D01*
X0222573Y0207400D01*
X0222573Y0208935D01*
X0221806Y0209702D01*
X0221039Y0209702D01*
X0219504Y0208935D01*
X0219504Y0211237D01*
X0222573Y0211237D01*
X0214900Y0211237D02*
X0214900Y0206633D01*
X0214900Y0201237D02*
X0217202Y0201237D01*
X0217969Y0200470D01*
X0217969Y0198935D01*
X0217202Y0198168D01*
X0214900Y0198168D01*
X0216435Y0198168D02*
X0217969Y0196633D01*
X0219504Y0197400D02*
X0220271Y0196633D01*
X0221806Y0196633D01*
X0222573Y0197400D01*
X0222573Y0198168D01*
X0221806Y0198935D01*
X0221039Y0198935D01*
X0221806Y0198935D02*
X0222573Y0199702D01*
X0222573Y0200470D01*
X0221806Y0201237D01*
X0220271Y0201237D01*
X0219504Y0200470D01*
X0214900Y0201237D02*
X0214900Y0196633D01*
X0211233Y0171348D02*
X0212000Y0170581D01*
X0212000Y0169046D01*
X0211233Y0168279D01*
X0210465Y0168279D01*
X0209698Y0169046D01*
X0209698Y0170581D01*
X0210465Y0171348D01*
X0211233Y0171348D01*
X0209698Y0170581D02*
X0208931Y0171348D01*
X0208163Y0171348D01*
X0207396Y0170581D01*
X0207396Y0169046D01*
X0208163Y0168279D01*
X0208931Y0168279D01*
X0209698Y0169046D01*
X0209698Y0166744D02*
X0209698Y0163675D01*
X0207396Y0165977D01*
X0212000Y0165977D01*
X0212000Y0162141D02*
X0210465Y0160606D01*
X0210465Y0161373D02*
X0210465Y0159071D01*
X0212000Y0159071D02*
X0207396Y0159071D01*
X0207396Y0161373D01*
X0208163Y0162141D01*
X0209698Y0162141D01*
X0210465Y0161373D01*
X0209698Y0151348D02*
X0209698Y0148279D01*
X0207396Y0150581D01*
X0212000Y0150581D01*
X0212000Y0146744D02*
X0212000Y0143675D01*
X0208931Y0146744D01*
X0208163Y0146744D01*
X0207396Y0145977D01*
X0207396Y0144443D01*
X0208163Y0143675D01*
X0208163Y0142141D02*
X0209698Y0142141D01*
X0210465Y0141373D01*
X0210465Y0139071D01*
X0210465Y0140606D02*
X0212000Y0142141D01*
X0212000Y0139071D02*
X0207396Y0139071D01*
X0207396Y0141373D01*
X0208163Y0142141D01*
X0197000Y0143675D02*
X0192396Y0143675D01*
X0192396Y0145977D01*
X0193163Y0146744D01*
X0194698Y0146744D01*
X0195465Y0145977D01*
X0195465Y0143675D01*
X0195465Y0145210D02*
X0197000Y0146744D01*
X0196233Y0148279D02*
X0195465Y0148279D01*
X0194698Y0149046D01*
X0194698Y0150581D01*
X0195465Y0151348D01*
X0196233Y0151348D01*
X0197000Y0150581D01*
X0197000Y0149046D01*
X0196233Y0148279D01*
X0194698Y0149046D02*
X0193931Y0148279D01*
X0193163Y0148279D01*
X0192396Y0149046D01*
X0192396Y0150581D01*
X0193163Y0151348D01*
X0193931Y0151348D01*
X0194698Y0150581D01*
X0195465Y0159071D02*
X0195465Y0161373D01*
X0194698Y0162141D01*
X0193163Y0162141D01*
X0192396Y0161373D01*
X0192396Y0159071D01*
X0197000Y0159071D01*
X0195465Y0160606D02*
X0197000Y0162141D01*
X0194698Y0163675D02*
X0192396Y0165977D01*
X0197000Y0165977D01*
X0197000Y0168279D02*
X0196233Y0168279D01*
X0193163Y0171348D01*
X0192396Y0171348D01*
X0192396Y0168279D01*
X0194698Y0166744D02*
X0194698Y0163675D01*
X0222396Y0161373D02*
X0223163Y0162141D01*
X0224698Y0162141D01*
X0225465Y0161373D01*
X0225465Y0159071D01*
X0225465Y0160606D02*
X0227000Y0162141D01*
X0224698Y0163675D02*
X0224698Y0166744D01*
X0223931Y0168279D02*
X0224698Y0169046D01*
X0224698Y0171348D01*
X0223163Y0171348D02*
X0222396Y0170581D01*
X0222396Y0169046D01*
X0223163Y0168279D01*
X0223931Y0168279D01*
X0226233Y0168279D02*
X0227000Y0169046D01*
X0227000Y0170581D01*
X0226233Y0171348D01*
X0223163Y0171348D01*
X0222396Y0165977D02*
X0224698Y0163675D01*
X0222396Y0161373D02*
X0222396Y0159071D01*
X0227000Y0159071D01*
X0227000Y0165977D02*
X0222396Y0165977D01*
X0224698Y0151348D02*
X0224698Y0148279D01*
X0222396Y0150581D01*
X0227000Y0150581D01*
X0224698Y0146744D02*
X0224698Y0143675D01*
X0222396Y0145977D01*
X0227000Y0145977D01*
X0227000Y0142141D02*
X0225465Y0140606D01*
X0225465Y0141373D02*
X0225465Y0139071D01*
X0227000Y0139071D02*
X0222396Y0139071D01*
X0222396Y0141373D01*
X0223163Y0142141D01*
X0224698Y0142141D01*
X0225465Y0141373D01*
X0237396Y0141373D02*
X0237396Y0139071D01*
X0242000Y0139071D01*
X0240465Y0139071D02*
X0240465Y0141373D01*
X0239698Y0142141D01*
X0238163Y0142141D01*
X0237396Y0141373D01*
X0240465Y0140606D02*
X0242000Y0142141D01*
X0239698Y0143675D02*
X0239698Y0146744D01*
X0239698Y0148279D02*
X0237396Y0148279D01*
X0237396Y0151348D01*
X0238931Y0150581D02*
X0239698Y0151348D01*
X0241233Y0151348D01*
X0242000Y0150581D01*
X0242000Y0149046D01*
X0241233Y0148279D01*
X0239698Y0148279D02*
X0238931Y0149814D01*
X0238931Y0150581D01*
X0237396Y0145977D02*
X0239698Y0143675D01*
X0242000Y0145977D02*
X0237396Y0145977D01*
X0237396Y0159071D02*
X0237396Y0161373D01*
X0238163Y0162141D01*
X0239698Y0162141D01*
X0240465Y0161373D01*
X0240465Y0159071D01*
X0240465Y0160606D02*
X0242000Y0162141D01*
X0241233Y0163675D02*
X0242000Y0164443D01*
X0242000Y0165977D01*
X0241233Y0166744D01*
X0239698Y0166744D01*
X0238931Y0165977D01*
X0238931Y0165210D01*
X0239698Y0163675D01*
X0237396Y0163675D01*
X0237396Y0166744D01*
X0238163Y0168279D02*
X0237396Y0169046D01*
X0237396Y0170581D01*
X0238163Y0171348D01*
X0241233Y0168279D01*
X0242000Y0169046D01*
X0242000Y0170581D01*
X0241233Y0171348D01*
X0238163Y0171348D01*
X0238163Y0168279D02*
X0241233Y0168279D01*
X0242000Y0159071D02*
X0237396Y0159071D01*
X0211806Y0123737D02*
X0210271Y0123737D01*
X0209504Y0122970D01*
X0209504Y0122202D01*
X0210271Y0121435D01*
X0212573Y0121435D01*
X0212573Y0119900D02*
X0212573Y0122970D01*
X0211806Y0123737D01*
X0212573Y0119900D02*
X0211806Y0119133D01*
X0210271Y0119133D01*
X0209504Y0119900D01*
X0207969Y0119133D02*
X0206435Y0120668D01*
X0207202Y0120668D02*
X0204900Y0120668D01*
X0204900Y0119133D02*
X0204900Y0123737D01*
X0207202Y0123737D01*
X0207969Y0122970D01*
X0207969Y0121435D01*
X0207202Y0120668D01*
X0211088Y0103737D02*
X0213390Y0103737D01*
X0214157Y0102970D01*
X0214157Y0101435D01*
X0213390Y0100668D01*
X0211088Y0100668D01*
X0212623Y0100668D02*
X0214157Y0099133D01*
X0215692Y0101435D02*
X0218761Y0101435D01*
X0220296Y0101435D02*
X0222598Y0101435D01*
X0223365Y0100668D01*
X0223365Y0099900D01*
X0222598Y0099133D01*
X0221063Y0099133D01*
X0220296Y0099900D01*
X0220296Y0101435D01*
X0221831Y0102970D01*
X0223365Y0103737D01*
X0217994Y0103737D02*
X0215692Y0101435D01*
X0217994Y0099133D02*
X0217994Y0103737D01*
X0211088Y0103737D02*
X0211088Y0099133D01*
X0224727Y0086237D02*
X0226261Y0086237D01*
X0225494Y0086237D02*
X0225494Y0081633D01*
X0224727Y0081633D02*
X0226261Y0081633D01*
X0227796Y0081633D02*
X0230098Y0081633D01*
X0230865Y0082400D01*
X0230865Y0083168D01*
X0230098Y0083935D01*
X0227796Y0083935D01*
X0227796Y0081633D02*
X0227796Y0086237D01*
X0230098Y0086237D01*
X0230865Y0085470D01*
X0230865Y0084702D01*
X0230098Y0083935D01*
X0190865Y0082400D02*
X0190098Y0081633D01*
X0188563Y0081633D01*
X0187796Y0082400D01*
X0187796Y0085470D01*
X0188563Y0086237D01*
X0190098Y0086237D01*
X0190865Y0085470D01*
X0186261Y0086237D02*
X0184727Y0086237D01*
X0185494Y0086237D02*
X0185494Y0081633D01*
X0184727Y0081633D02*
X0186261Y0081633D01*
X0155865Y0081633D02*
X0152796Y0081633D01*
X0152796Y0086237D01*
X0155865Y0086237D01*
X0154331Y0083935D02*
X0152796Y0083935D01*
X0151261Y0083168D02*
X0151261Y0082400D01*
X0150494Y0081633D01*
X0148192Y0081633D01*
X0148192Y0086237D01*
X0150494Y0086237D01*
X0151261Y0085470D01*
X0151261Y0084702D01*
X0150494Y0083935D01*
X0148192Y0083935D01*
X0146657Y0082400D02*
X0146657Y0086237D01*
X0143588Y0086237D02*
X0143588Y0082400D01*
X0144356Y0081633D01*
X0145890Y0081633D01*
X0146657Y0082400D01*
X0150494Y0083935D02*
X0151261Y0083168D01*
X0138365Y0118633D02*
X0135296Y0118633D01*
X0138365Y0121702D01*
X0138365Y0122470D01*
X0137598Y0123237D01*
X0136063Y0123237D01*
X0135296Y0122470D01*
X0133761Y0122470D02*
X0132994Y0123237D01*
X0131459Y0123237D01*
X0130692Y0122470D01*
X0130692Y0119400D01*
X0131459Y0118633D01*
X0132994Y0118633D01*
X0133761Y0119400D01*
X0129157Y0118633D02*
X0127623Y0118633D01*
X0128390Y0118633D02*
X0128390Y0123237D01*
X0127623Y0123237D02*
X0129157Y0123237D01*
X0141088Y0144133D02*
X0141088Y0148737D01*
X0143390Y0148737D01*
X0144157Y0147970D01*
X0144157Y0146435D01*
X0143390Y0145668D01*
X0141088Y0145668D01*
X0142623Y0145668D02*
X0144157Y0144133D01*
X0145692Y0144133D02*
X0148761Y0147202D01*
X0148761Y0147970D01*
X0147994Y0148737D01*
X0146459Y0148737D01*
X0145692Y0147970D01*
X0145692Y0144133D02*
X0148761Y0144133D01*
X0150296Y0144900D02*
X0153365Y0147970D01*
X0153365Y0144900D01*
X0152598Y0144133D01*
X0151063Y0144133D01*
X0150296Y0144900D01*
X0150296Y0147970D01*
X0151063Y0148737D01*
X0152598Y0148737D01*
X0153365Y0147970D01*
X0119886Y0157578D02*
X0116817Y0157578D01*
X0119886Y0160647D01*
X0119886Y0161415D01*
X0119119Y0162182D01*
X0117584Y0162182D01*
X0116817Y0161415D01*
X0115282Y0161415D02*
X0114515Y0162182D01*
X0112980Y0162182D01*
X0112213Y0161415D01*
X0112213Y0158345D01*
X0112980Y0157578D01*
X0114515Y0157578D01*
X0115282Y0158345D01*
X0097788Y0139119D02*
X0094719Y0139119D01*
X0093951Y0138352D01*
X0093951Y0136817D01*
X0094719Y0136050D01*
X0095486Y0136050D01*
X0096253Y0136817D01*
X0096253Y0139119D01*
X0097788Y0139119D02*
X0098555Y0138352D01*
X0098555Y0136817D01*
X0097788Y0136050D01*
X0097788Y0134515D02*
X0098555Y0133748D01*
X0098555Y0132213D01*
X0097788Y0131446D01*
X0094719Y0131446D01*
X0093951Y0132213D01*
X0093951Y0133748D01*
X0094719Y0134515D01*
X0139230Y0186328D02*
X0140765Y0186328D01*
X0141532Y0187095D01*
X0143067Y0186328D02*
X0146136Y0186328D01*
X0144602Y0186328D02*
X0144602Y0190932D01*
X0143067Y0189397D01*
X0141532Y0190165D02*
X0140765Y0190932D01*
X0139230Y0190932D01*
X0138463Y0190165D01*
X0138463Y0187095D01*
X0139230Y0186328D01*
X0133365Y0188633D02*
X0130296Y0188633D01*
X0131831Y0188633D02*
X0131831Y0193237D01*
X0130296Y0191702D01*
X0128761Y0192470D02*
X0127994Y0193237D01*
X0126459Y0193237D01*
X0125692Y0192470D01*
X0125692Y0189400D01*
X0126459Y0188633D01*
X0127994Y0188633D01*
X0128761Y0189400D01*
X0124157Y0188633D02*
X0122623Y0188633D01*
X0123390Y0188633D02*
X0123390Y0193237D01*
X0122623Y0193237D02*
X0124157Y0193237D01*
X0142396Y0207883D02*
X0142396Y0210185D01*
X0143163Y0210952D01*
X0144698Y0210952D01*
X0145465Y0210185D01*
X0145465Y0207883D01*
X0145465Y0209418D02*
X0147000Y0210952D01*
X0144698Y0212487D02*
X0144698Y0215556D01*
X0147000Y0214789D02*
X0142396Y0214789D01*
X0144698Y0212487D01*
X0147000Y0207883D02*
X0142396Y0207883D01*
X0147671Y0190932D02*
X0147671Y0188630D01*
X0149205Y0189397D01*
X0149973Y0189397D01*
X0150740Y0188630D01*
X0150740Y0187095D01*
X0149973Y0186328D01*
X0148438Y0186328D01*
X0147671Y0187095D01*
X0147671Y0190932D02*
X0150740Y0190932D01*
X0173873Y0214883D02*
X0175407Y0214883D01*
X0174640Y0214883D02*
X0174640Y0219487D01*
X0173873Y0219487D02*
X0175407Y0219487D01*
X0176942Y0218720D02*
X0176942Y0215650D01*
X0177709Y0214883D01*
X0179244Y0214883D01*
X0180011Y0215650D01*
X0181546Y0215650D02*
X0182313Y0214883D01*
X0183848Y0214883D01*
X0184615Y0215650D01*
X0184615Y0217185D01*
X0183848Y0217952D01*
X0183081Y0217952D01*
X0181546Y0217185D01*
X0181546Y0219487D01*
X0184615Y0219487D01*
X0180011Y0218720D02*
X0179244Y0219487D01*
X0177709Y0219487D01*
X0176942Y0218720D01*
X0162551Y0249763D02*
X0159482Y0249763D01*
X0161016Y0249763D02*
X0161016Y0254367D01*
X0159482Y0252832D01*
X0157947Y0252832D02*
X0157947Y0253600D01*
X0157180Y0254367D01*
X0155645Y0254367D01*
X0154878Y0253600D01*
X0153343Y0253600D02*
X0153343Y0252065D01*
X0152576Y0251298D01*
X0150274Y0251298D01*
X0151809Y0251298D02*
X0153343Y0249763D01*
X0154878Y0249763D02*
X0157947Y0252832D01*
X0157947Y0249763D02*
X0154878Y0249763D01*
X0153343Y0253600D02*
X0152576Y0254367D01*
X0150274Y0254367D01*
X0150274Y0249763D01*
X0119886Y0227578D02*
X0116817Y0227578D01*
X0118352Y0227578D02*
X0118352Y0232182D01*
X0116817Y0230647D01*
X0115282Y0231415D02*
X0114515Y0232182D01*
X0112980Y0232182D01*
X0112213Y0231415D01*
X0112213Y0228345D01*
X0112980Y0227578D01*
X0114515Y0227578D01*
X0115282Y0228345D01*
X0094805Y0209602D02*
X0094805Y0208067D01*
X0094038Y0207300D01*
X0093270Y0207300D01*
X0092503Y0208067D01*
X0092503Y0209602D01*
X0093270Y0210369D01*
X0094038Y0210369D01*
X0094805Y0209602D01*
X0092503Y0209602D02*
X0091736Y0210369D01*
X0090969Y0210369D01*
X0090201Y0209602D01*
X0090201Y0208067D01*
X0090969Y0207300D01*
X0091736Y0207300D01*
X0092503Y0208067D01*
X0090969Y0205765D02*
X0090201Y0204998D01*
X0090201Y0203463D01*
X0090969Y0202696D01*
X0094038Y0202696D01*
X0094805Y0203463D01*
X0094805Y0204998D01*
X0094038Y0205765D01*
X0059490Y0250078D02*
X0056421Y0250078D01*
X0059490Y0253147D01*
X0059490Y0253915D01*
X0058723Y0254682D01*
X0057188Y0254682D01*
X0056421Y0253915D01*
X0053352Y0254682D02*
X0053352Y0250078D01*
X0054886Y0250078D02*
X0051817Y0250078D01*
X0050282Y0250845D02*
X0049515Y0250078D01*
X0047980Y0250078D01*
X0047213Y0250845D01*
X0047213Y0253915D01*
X0047980Y0254682D01*
X0049515Y0254682D01*
X0050282Y0253915D01*
X0051817Y0253147D02*
X0053352Y0254682D01*
X0054396Y0261633D02*
X0054396Y0263168D01*
X0054396Y0262400D02*
X0059000Y0262400D01*
X0059000Y0261633D02*
X0059000Y0263168D01*
X0058233Y0264702D02*
X0059000Y0265470D01*
X0059000Y0267004D01*
X0058233Y0267772D01*
X0058233Y0269306D02*
X0059000Y0270074D01*
X0059000Y0271608D01*
X0058233Y0272376D01*
X0057465Y0272376D01*
X0056698Y0271608D01*
X0056698Y0270841D01*
X0056698Y0271608D02*
X0055931Y0272376D01*
X0055163Y0272376D01*
X0054396Y0271608D01*
X0054396Y0270074D01*
X0055163Y0269306D01*
X0055163Y0267772D02*
X0054396Y0267004D01*
X0054396Y0265470D01*
X0055163Y0264702D01*
X0058233Y0264702D01*
X0082701Y0284713D02*
X0083469Y0283946D01*
X0086538Y0283946D01*
X0087305Y0284713D01*
X0087305Y0286248D01*
X0086538Y0287015D01*
X0086538Y0288550D02*
X0085003Y0288550D01*
X0085003Y0290852D01*
X0085770Y0291619D01*
X0086538Y0291619D01*
X0087305Y0290852D01*
X0087305Y0289317D01*
X0086538Y0288550D01*
X0085003Y0288550D02*
X0083469Y0290085D01*
X0082701Y0291619D01*
X0083469Y0287015D02*
X0082701Y0286248D01*
X0082701Y0284713D01*
X0062305Y0295963D02*
X0062305Y0297498D01*
X0061538Y0298265D01*
X0060003Y0299800D02*
X0060003Y0302869D01*
X0057701Y0302102D02*
X0060003Y0299800D01*
X0058469Y0298265D02*
X0057701Y0297498D01*
X0057701Y0295963D01*
X0058469Y0295196D01*
X0061538Y0295196D01*
X0062305Y0295963D01*
X0062305Y0302102D02*
X0057701Y0302102D01*
X0053427Y0299220D02*
X0053427Y0298452D01*
X0050358Y0295383D01*
X0053427Y0295383D01*
X0053427Y0299220D02*
X0052660Y0299987D01*
X0051125Y0299987D01*
X0050358Y0299220D01*
X0047289Y0299987D02*
X0047289Y0295383D01*
X0048823Y0295383D02*
X0045754Y0295383D01*
X0044219Y0295383D02*
X0042685Y0296918D01*
X0043452Y0296918D02*
X0041150Y0296918D01*
X0041150Y0295383D02*
X0041150Y0299987D01*
X0043452Y0299987D01*
X0044219Y0299220D01*
X0044219Y0297685D01*
X0043452Y0296918D01*
X0045754Y0298452D02*
X0047289Y0299987D01*
X0055480Y0312578D02*
X0057015Y0312578D01*
X0057782Y0313345D01*
X0059317Y0313345D02*
X0060084Y0312578D01*
X0061619Y0312578D01*
X0062386Y0313345D01*
X0062386Y0314113D01*
X0061619Y0314880D01*
X0060852Y0314880D01*
X0061619Y0314880D02*
X0062386Y0315647D01*
X0062386Y0316415D01*
X0061619Y0317182D01*
X0060084Y0317182D01*
X0059317Y0316415D01*
X0057782Y0316415D02*
X0057015Y0317182D01*
X0055480Y0317182D01*
X0054713Y0316415D01*
X0054713Y0313345D01*
X0055480Y0312578D01*
X0054900Y0339133D02*
X0054900Y0343737D01*
X0057202Y0343737D01*
X0057969Y0342970D01*
X0057969Y0341435D01*
X0057202Y0340668D01*
X0054900Y0340668D01*
X0056435Y0340668D02*
X0057969Y0339133D01*
X0059504Y0339133D02*
X0062573Y0342202D01*
X0062573Y0342970D01*
X0061806Y0343737D01*
X0060271Y0343737D01*
X0059504Y0342970D01*
X0059504Y0339133D02*
X0062573Y0339133D01*
X0064108Y0339900D02*
X0064875Y0339133D01*
X0066410Y0339133D01*
X0067177Y0339900D01*
X0067177Y0341435D01*
X0066410Y0342202D01*
X0065642Y0342202D01*
X0064108Y0341435D01*
X0064108Y0343737D01*
X0067177Y0343737D01*
X0097400Y0326237D02*
X0100469Y0326237D01*
X0098935Y0326237D02*
X0098935Y0321633D01*
X0102004Y0321633D02*
X0105073Y0321633D01*
X0102004Y0321633D02*
X0102004Y0326237D01*
X0095663Y0263848D02*
X0098733Y0260779D01*
X0099500Y0260779D01*
X0099500Y0259244D02*
X0099500Y0256175D01*
X0096431Y0259244D01*
X0095663Y0259244D01*
X0094896Y0258477D01*
X0094896Y0256943D01*
X0095663Y0256175D01*
X0095663Y0254641D02*
X0097198Y0254641D01*
X0097965Y0253873D01*
X0097965Y0251571D01*
X0097965Y0253106D02*
X0099500Y0254641D01*
X0099500Y0251571D02*
X0094896Y0251571D01*
X0094896Y0253873D01*
X0095663Y0254641D01*
X0094896Y0260779D02*
X0094896Y0263848D01*
X0095663Y0263848D01*
X0109896Y0263081D02*
X0112198Y0260779D01*
X0112198Y0263848D01*
X0114500Y0263081D02*
X0109896Y0263081D01*
X0114500Y0259244D02*
X0114500Y0256175D01*
X0114500Y0254641D02*
X0112965Y0253106D01*
X0112965Y0253873D02*
X0112965Y0251571D01*
X0114500Y0251571D02*
X0109896Y0251571D01*
X0109896Y0253873D01*
X0110663Y0254641D01*
X0112198Y0254641D01*
X0112965Y0253873D01*
X0111431Y0256175D02*
X0109896Y0257710D01*
X0114500Y0257710D01*
X0182396Y0256633D02*
X0182396Y0258935D01*
X0183163Y0259702D01*
X0184698Y0259702D01*
X0185465Y0258935D01*
X0185465Y0256633D01*
X0185465Y0258168D02*
X0187000Y0259702D01*
X0187000Y0261237D02*
X0183931Y0264306D01*
X0183163Y0264306D01*
X0182396Y0263539D01*
X0182396Y0262004D01*
X0183163Y0261237D01*
X0187000Y0261237D02*
X0187000Y0264306D01*
X0186233Y0265841D02*
X0187000Y0266608D01*
X0187000Y0268143D01*
X0186233Y0268910D01*
X0185465Y0268910D01*
X0184698Y0268143D01*
X0184698Y0267376D01*
X0184698Y0268143D02*
X0183931Y0268910D01*
X0183163Y0268910D01*
X0182396Y0268143D01*
X0182396Y0266608D01*
X0183163Y0265841D01*
X0182396Y0256633D02*
X0187000Y0256633D01*
X0197396Y0256633D02*
X0197396Y0258935D01*
X0198163Y0259702D01*
X0199698Y0259702D01*
X0200465Y0258935D01*
X0200465Y0256633D01*
X0200465Y0258168D02*
X0202000Y0259702D01*
X0202000Y0261237D02*
X0198931Y0264306D01*
X0198163Y0264306D01*
X0197396Y0263539D01*
X0197396Y0262004D01*
X0198163Y0261237D01*
X0202000Y0261237D02*
X0202000Y0264306D01*
X0202000Y0265841D02*
X0198931Y0268910D01*
X0198163Y0268910D01*
X0197396Y0268143D01*
X0197396Y0266608D01*
X0198163Y0265841D01*
X0202000Y0265841D02*
X0202000Y0268910D01*
X0202000Y0256633D02*
X0197396Y0256633D01*
X0192000Y0327821D02*
X0187396Y0327821D01*
X0187396Y0330123D01*
X0188163Y0330891D01*
X0189698Y0330891D01*
X0190465Y0330123D01*
X0190465Y0327821D01*
X0190465Y0329356D02*
X0192000Y0330891D01*
X0192000Y0332425D02*
X0188931Y0335494D01*
X0188163Y0335494D01*
X0187396Y0334727D01*
X0187396Y0333193D01*
X0188163Y0332425D01*
X0192000Y0332425D02*
X0192000Y0335494D01*
X0191233Y0337029D02*
X0192000Y0337796D01*
X0192000Y0339331D01*
X0191233Y0340098D01*
X0190465Y0340098D01*
X0189698Y0339331D01*
X0189698Y0337029D01*
X0191233Y0337029D01*
X0189698Y0337029D02*
X0188163Y0338564D01*
X0187396Y0340098D01*
X0207396Y0340098D02*
X0207396Y0337029D01*
X0209698Y0337029D01*
X0208931Y0338564D01*
X0208931Y0339331D01*
X0209698Y0340098D01*
X0211233Y0340098D01*
X0212000Y0339331D01*
X0212000Y0337796D01*
X0211233Y0337029D01*
X0212000Y0335494D02*
X0212000Y0332425D01*
X0212000Y0330891D02*
X0210465Y0329356D01*
X0210465Y0330123D02*
X0210465Y0327821D01*
X0212000Y0327821D02*
X0207396Y0327821D01*
X0207396Y0330123D01*
X0208163Y0330891D01*
X0209698Y0330891D01*
X0210465Y0330123D01*
X0208931Y0332425D02*
X0207396Y0333960D01*
X0212000Y0333960D01*
X0030750Y0261831D02*
X0030750Y0260296D01*
X0029983Y0259529D01*
X0029983Y0257994D02*
X0026913Y0257994D01*
X0026146Y0257227D01*
X0026146Y0254925D01*
X0030750Y0254925D01*
X0030750Y0257227D01*
X0029983Y0257994D01*
X0026913Y0259529D02*
X0026146Y0260296D01*
X0026146Y0261831D01*
X0026913Y0262598D01*
X0027681Y0262598D01*
X0028448Y0261831D01*
X0029215Y0262598D01*
X0029983Y0262598D01*
X0030750Y0261831D01*
X0028448Y0261831D02*
X0028448Y0261064D01*
X0017000Y0269071D02*
X0012396Y0269071D01*
X0012396Y0271373D01*
X0013163Y0272141D01*
X0014698Y0272141D01*
X0015465Y0271373D01*
X0015465Y0269071D01*
X0015465Y0270606D02*
X0017000Y0272141D01*
X0017000Y0273675D02*
X0017000Y0276744D01*
X0017000Y0275210D02*
X0012396Y0275210D01*
X0013931Y0273675D01*
X0013163Y0278279D02*
X0012396Y0279046D01*
X0012396Y0280581D01*
X0013163Y0281348D01*
X0016233Y0278279D01*
X0017000Y0279046D01*
X0017000Y0280581D01*
X0016233Y0281348D01*
X0013163Y0281348D01*
X0013163Y0278279D02*
X0016233Y0278279D01*
X0022000Y0176348D02*
X0022000Y0173279D01*
X0022000Y0171744D02*
X0020465Y0170210D01*
X0020465Y0170977D02*
X0020465Y0168675D01*
X0022000Y0168675D02*
X0017396Y0168675D01*
X0017396Y0170977D01*
X0018163Y0171744D01*
X0019698Y0171744D01*
X0020465Y0170977D01*
X0018931Y0173279D02*
X0017396Y0174814D01*
X0022000Y0174814D01*
X0028650Y0093737D02*
X0030952Y0093737D01*
X0031719Y0092970D01*
X0031719Y0091435D01*
X0030952Y0090668D01*
X0028650Y0090668D01*
X0030185Y0090668D02*
X0031719Y0089133D01*
X0033254Y0089133D02*
X0036323Y0092202D01*
X0036323Y0092970D01*
X0035556Y0093737D01*
X0034021Y0093737D01*
X0033254Y0092970D01*
X0033254Y0089133D02*
X0036323Y0089133D01*
X0028650Y0089133D02*
X0028650Y0093737D01*
X0079896Y0067598D02*
X0082965Y0067598D01*
X0084500Y0066064D01*
X0082965Y0064529D01*
X0079896Y0064529D01*
X0080663Y0062994D02*
X0079896Y0062227D01*
X0079896Y0060692D01*
X0080663Y0059925D01*
X0080663Y0062994D02*
X0081431Y0062994D01*
X0084500Y0059925D01*
X0084500Y0062994D01*
X0084500Y0058391D02*
X0084500Y0055321D01*
X0084500Y0056856D02*
X0079896Y0056856D01*
X0081431Y0055321D01*
X0079896Y0053787D02*
X0083733Y0053787D01*
X0084500Y0053019D01*
X0084500Y0051485D01*
X0083733Y0050717D01*
X0079896Y0050717D01*
X0287338Y0149133D02*
X0287338Y0153737D01*
X0289640Y0153737D01*
X0290407Y0152970D01*
X0290407Y0151435D01*
X0289640Y0150668D01*
X0287338Y0150668D01*
X0288873Y0150668D02*
X0290407Y0149133D01*
X0291942Y0149133D02*
X0295011Y0149133D01*
X0293477Y0149133D02*
X0293477Y0153737D01*
X0291942Y0152202D01*
X0296546Y0152202D02*
X0297313Y0151435D01*
X0299615Y0151435D01*
X0299615Y0149900D02*
X0299615Y0152970D01*
X0298848Y0153737D01*
X0297313Y0153737D01*
X0296546Y0152970D01*
X0296546Y0152202D01*
X0296546Y0149900D02*
X0297313Y0149133D01*
X0298848Y0149133D01*
X0299615Y0149900D01*
X0338984Y0086237D02*
X0338984Y0082400D01*
X0339752Y0081633D01*
X0341286Y0081633D01*
X0342054Y0082400D01*
X0342054Y0086237D01*
X0343588Y0085470D02*
X0343588Y0082400D01*
X0344355Y0081633D01*
X0345890Y0081633D01*
X0346657Y0082400D01*
X0348192Y0081633D02*
X0351261Y0081633D01*
X0352796Y0081633D02*
X0355865Y0084702D01*
X0355865Y0085470D01*
X0355098Y0086237D01*
X0353563Y0086237D01*
X0352796Y0085470D01*
X0351261Y0086237D02*
X0348192Y0086237D01*
X0348192Y0081633D01*
X0348192Y0083935D02*
X0349727Y0083935D01*
X0346657Y0085470D02*
X0345890Y0086237D01*
X0344355Y0086237D01*
X0343588Y0085470D01*
X0352796Y0081633D02*
X0355865Y0081633D01*
D13*
X0109950Y0103933D03*
D14*
X0347200Y0111183D03*
D15*
X0324700Y0110233D02*
X0322200Y0110233D01*
X0319700Y0110233D01*
X0319700Y0107733D02*
X0322200Y0107733D01*
X0324700Y0107733D01*
D16*
X0051700Y0163933D03*
D17*
X0045450Y0163933D03*
X0068950Y0163933D03*
D18*
X0177200Y0289433D03*
D19*
X0177200Y0295683D03*
X0177200Y0272183D03*
D20*
X0149877Y0247594D02*
X0224090Y0247594D01*
X0224090Y0230272D01*
X0149877Y0230272D01*
X0149877Y0247594D01*
X0146200Y0263933D02*
X0146202Y0263996D01*
X0146208Y0264058D01*
X0146218Y0264120D01*
X0146231Y0264182D01*
X0146249Y0264242D01*
X0146270Y0264301D01*
X0146295Y0264359D01*
X0146324Y0264415D01*
X0146356Y0264469D01*
X0146391Y0264521D01*
X0146429Y0264570D01*
X0146471Y0264618D01*
X0146515Y0264662D01*
X0146563Y0264704D01*
X0146612Y0264742D01*
X0146664Y0264777D01*
X0146718Y0264809D01*
X0146774Y0264838D01*
X0146832Y0264863D01*
X0146891Y0264884D01*
X0146951Y0264902D01*
X0147013Y0264915D01*
X0147075Y0264925D01*
X0147137Y0264931D01*
X0147200Y0264933D01*
X0147263Y0264931D01*
X0147325Y0264925D01*
X0147387Y0264915D01*
X0147449Y0264902D01*
X0147509Y0264884D01*
X0147568Y0264863D01*
X0147626Y0264838D01*
X0147682Y0264809D01*
X0147736Y0264777D01*
X0147788Y0264742D01*
X0147837Y0264704D01*
X0147885Y0264662D01*
X0147929Y0264618D01*
X0147971Y0264570D01*
X0148009Y0264521D01*
X0148044Y0264469D01*
X0148076Y0264415D01*
X0148105Y0264359D01*
X0148130Y0264301D01*
X0148151Y0264242D01*
X0148169Y0264182D01*
X0148182Y0264120D01*
X0148192Y0264058D01*
X0148198Y0263996D01*
X0148200Y0263933D01*
X0148198Y0263870D01*
X0148192Y0263808D01*
X0148182Y0263746D01*
X0148169Y0263684D01*
X0148151Y0263624D01*
X0148130Y0263565D01*
X0148105Y0263507D01*
X0148076Y0263451D01*
X0148044Y0263397D01*
X0148009Y0263345D01*
X0147971Y0263296D01*
X0147929Y0263248D01*
X0147885Y0263204D01*
X0147837Y0263162D01*
X0147788Y0263124D01*
X0147736Y0263089D01*
X0147682Y0263057D01*
X0147626Y0263028D01*
X0147568Y0263003D01*
X0147509Y0262982D01*
X0147449Y0262964D01*
X0147387Y0262951D01*
X0147325Y0262941D01*
X0147263Y0262935D01*
X0147200Y0262933D01*
X0147137Y0262935D01*
X0147075Y0262941D01*
X0147013Y0262951D01*
X0146951Y0262964D01*
X0146891Y0262982D01*
X0146832Y0263003D01*
X0146774Y0263028D01*
X0146718Y0263057D01*
X0146664Y0263089D01*
X0146612Y0263124D01*
X0146563Y0263162D01*
X0146515Y0263204D01*
X0146471Y0263248D01*
X0146429Y0263296D01*
X0146391Y0263345D01*
X0146356Y0263397D01*
X0146324Y0263451D01*
X0146295Y0263507D01*
X0146270Y0263565D01*
X0146249Y0263624D01*
X0146231Y0263684D01*
X0146218Y0263746D01*
X0146208Y0263808D01*
X0146202Y0263870D01*
X0146200Y0263933D01*
X0100731Y0250879D02*
X0100562Y0250780D01*
X0100396Y0250676D01*
X0100232Y0250569D01*
X0100071Y0250458D01*
X0099913Y0250343D01*
X0099758Y0250224D01*
X0099605Y0250101D01*
X0099456Y0249975D01*
X0099310Y0249845D01*
X0099167Y0249711D01*
X0099027Y0249574D01*
X0098891Y0249434D01*
X0098758Y0249290D01*
X0098629Y0249143D01*
X0098503Y0248993D01*
X0098382Y0248840D01*
X0098263Y0248684D01*
X0098149Y0248525D01*
X0098039Y0248364D01*
X0097933Y0248199D01*
X0097830Y0248033D01*
X0097732Y0247863D01*
X0097638Y0247692D01*
X0097548Y0247518D01*
X0097463Y0247342D01*
X0097381Y0247164D01*
X0097305Y0246984D01*
X0097232Y0246802D01*
X0097164Y0246619D01*
X0097101Y0246434D01*
X0097042Y0246247D01*
X0096988Y0246059D01*
X0096938Y0245870D01*
X0096893Y0245680D01*
X0096853Y0245488D01*
X0096817Y0245296D01*
X0096786Y0245103D01*
X0096760Y0244909D01*
X0096738Y0244714D01*
X0096722Y0244519D01*
X0096710Y0244324D01*
X0096702Y0244128D01*
X0096700Y0243933D01*
X0108465Y0250992D02*
X0108633Y0250899D01*
X0108799Y0250803D01*
X0108963Y0250703D01*
X0109124Y0250598D01*
X0109283Y0250490D01*
X0109439Y0250378D01*
X0109593Y0250262D01*
X0109743Y0250143D01*
X0109891Y0250020D01*
X0110036Y0249894D01*
X0110177Y0249764D01*
X0110316Y0249631D01*
X0110451Y0249494D01*
X0110583Y0249354D01*
X0110711Y0249212D01*
X0110836Y0249066D01*
X0110958Y0248917D01*
X0111076Y0248765D01*
X0111190Y0248611D01*
X0111300Y0248453D01*
X0111407Y0248294D01*
X0111510Y0248131D01*
X0111609Y0247966D01*
X0111704Y0247799D01*
X0111794Y0247630D01*
X0111881Y0247459D01*
X0111964Y0247285D01*
X0112042Y0247110D01*
X0112116Y0246932D01*
X0112186Y0246753D01*
X0112252Y0246573D01*
X0112313Y0246391D01*
X0112370Y0246207D01*
X0112422Y0246022D01*
X0112470Y0245836D01*
X0112514Y0245649D01*
X0112553Y0245461D01*
X0112587Y0245272D01*
X0112617Y0245082D01*
X0112642Y0244892D01*
X0112663Y0244701D01*
X0112679Y0244509D01*
X0112691Y0244317D01*
X0112698Y0244125D01*
X0112700Y0243933D01*
X0099532Y0237826D02*
X0099386Y0237953D01*
X0099244Y0238082D01*
X0099104Y0238216D01*
X0098968Y0238352D01*
X0098835Y0238492D01*
X0098705Y0238635D01*
X0098579Y0238782D01*
X0098457Y0238931D01*
X0098338Y0239083D01*
X0098223Y0239238D01*
X0098111Y0239395D01*
X0098004Y0239555D01*
X0097900Y0239718D01*
X0097801Y0239884D01*
X0097705Y0240051D01*
X0097613Y0240221D01*
X0097526Y0240393D01*
X0097442Y0240567D01*
X0097363Y0240743D01*
X0097289Y0240921D01*
X0097218Y0241101D01*
X0097152Y0241282D01*
X0097090Y0241465D01*
X0097033Y0241649D01*
X0096980Y0241835D01*
X0096932Y0242022D01*
X0096888Y0242210D01*
X0096849Y0242399D01*
X0096814Y0242589D01*
X0096784Y0242779D01*
X0096758Y0242970D01*
X0096737Y0243162D01*
X0096721Y0243355D01*
X0096709Y0243547D01*
X0096702Y0243740D01*
X0096700Y0243933D01*
X0109822Y0237787D02*
X0109970Y0237914D01*
X0110115Y0238044D01*
X0110256Y0238177D01*
X0110395Y0238314D01*
X0110530Y0238454D01*
X0110661Y0238598D01*
X0110789Y0238745D01*
X0110914Y0238894D01*
X0111035Y0239047D01*
X0111152Y0239202D01*
X0111265Y0239361D01*
X0111374Y0239522D01*
X0111479Y0239686D01*
X0111581Y0239852D01*
X0111678Y0240021D01*
X0111771Y0240191D01*
X0111860Y0240365D01*
X0111945Y0240540D01*
X0112025Y0240717D01*
X0112101Y0240896D01*
X0112173Y0241077D01*
X0112240Y0241260D01*
X0112303Y0241444D01*
X0112361Y0241630D01*
X0112415Y0241817D01*
X0112464Y0242005D01*
X0112509Y0242195D01*
X0112549Y0242385D01*
X0112584Y0242577D01*
X0112615Y0242769D01*
X0112641Y0242962D01*
X0112662Y0243156D01*
X0112679Y0243350D01*
X0112691Y0243544D01*
X0112698Y0243738D01*
X0112700Y0243933D01*
X0076200Y0198933D02*
X0076202Y0198996D01*
X0076208Y0199058D01*
X0076218Y0199120D01*
X0076231Y0199182D01*
X0076249Y0199242D01*
X0076270Y0199301D01*
X0076295Y0199359D01*
X0076324Y0199415D01*
X0076356Y0199469D01*
X0076391Y0199521D01*
X0076429Y0199570D01*
X0076471Y0199618D01*
X0076515Y0199662D01*
X0076563Y0199704D01*
X0076612Y0199742D01*
X0076664Y0199777D01*
X0076718Y0199809D01*
X0076774Y0199838D01*
X0076832Y0199863D01*
X0076891Y0199884D01*
X0076951Y0199902D01*
X0077013Y0199915D01*
X0077075Y0199925D01*
X0077137Y0199931D01*
X0077200Y0199933D01*
X0077263Y0199931D01*
X0077325Y0199925D01*
X0077387Y0199915D01*
X0077449Y0199902D01*
X0077509Y0199884D01*
X0077568Y0199863D01*
X0077626Y0199838D01*
X0077682Y0199809D01*
X0077736Y0199777D01*
X0077788Y0199742D01*
X0077837Y0199704D01*
X0077885Y0199662D01*
X0077929Y0199618D01*
X0077971Y0199570D01*
X0078009Y0199521D01*
X0078044Y0199469D01*
X0078076Y0199415D01*
X0078105Y0199359D01*
X0078130Y0199301D01*
X0078151Y0199242D01*
X0078169Y0199182D01*
X0078182Y0199120D01*
X0078192Y0199058D01*
X0078198Y0198996D01*
X0078200Y0198933D01*
X0078198Y0198870D01*
X0078192Y0198808D01*
X0078182Y0198746D01*
X0078169Y0198684D01*
X0078151Y0198624D01*
X0078130Y0198565D01*
X0078105Y0198507D01*
X0078076Y0198451D01*
X0078044Y0198397D01*
X0078009Y0198345D01*
X0077971Y0198296D01*
X0077929Y0198248D01*
X0077885Y0198204D01*
X0077837Y0198162D01*
X0077788Y0198124D01*
X0077736Y0198089D01*
X0077682Y0198057D01*
X0077626Y0198028D01*
X0077568Y0198003D01*
X0077509Y0197982D01*
X0077449Y0197964D01*
X0077387Y0197951D01*
X0077325Y0197941D01*
X0077263Y0197935D01*
X0077200Y0197933D01*
X0077137Y0197935D01*
X0077075Y0197941D01*
X0077013Y0197951D01*
X0076951Y0197964D01*
X0076891Y0197982D01*
X0076832Y0198003D01*
X0076774Y0198028D01*
X0076718Y0198057D01*
X0076664Y0198089D01*
X0076612Y0198124D01*
X0076563Y0198162D01*
X0076515Y0198204D01*
X0076471Y0198248D01*
X0076429Y0198296D01*
X0076391Y0198345D01*
X0076356Y0198397D01*
X0076324Y0198451D01*
X0076295Y0198507D01*
X0076270Y0198565D01*
X0076249Y0198624D01*
X0076231Y0198684D01*
X0076218Y0198746D01*
X0076208Y0198808D01*
X0076202Y0198870D01*
X0076200Y0198933D01*
X0076200Y0128933D02*
X0076202Y0128996D01*
X0076208Y0129058D01*
X0076218Y0129120D01*
X0076231Y0129182D01*
X0076249Y0129242D01*
X0076270Y0129301D01*
X0076295Y0129359D01*
X0076324Y0129415D01*
X0076356Y0129469D01*
X0076391Y0129521D01*
X0076429Y0129570D01*
X0076471Y0129618D01*
X0076515Y0129662D01*
X0076563Y0129704D01*
X0076612Y0129742D01*
X0076664Y0129777D01*
X0076718Y0129809D01*
X0076774Y0129838D01*
X0076832Y0129863D01*
X0076891Y0129884D01*
X0076951Y0129902D01*
X0077013Y0129915D01*
X0077075Y0129925D01*
X0077137Y0129931D01*
X0077200Y0129933D01*
X0077263Y0129931D01*
X0077325Y0129925D01*
X0077387Y0129915D01*
X0077449Y0129902D01*
X0077509Y0129884D01*
X0077568Y0129863D01*
X0077626Y0129838D01*
X0077682Y0129809D01*
X0077736Y0129777D01*
X0077788Y0129742D01*
X0077837Y0129704D01*
X0077885Y0129662D01*
X0077929Y0129618D01*
X0077971Y0129570D01*
X0078009Y0129521D01*
X0078044Y0129469D01*
X0078076Y0129415D01*
X0078105Y0129359D01*
X0078130Y0129301D01*
X0078151Y0129242D01*
X0078169Y0129182D01*
X0078182Y0129120D01*
X0078192Y0129058D01*
X0078198Y0128996D01*
X0078200Y0128933D01*
X0078198Y0128870D01*
X0078192Y0128808D01*
X0078182Y0128746D01*
X0078169Y0128684D01*
X0078151Y0128624D01*
X0078130Y0128565D01*
X0078105Y0128507D01*
X0078076Y0128451D01*
X0078044Y0128397D01*
X0078009Y0128345D01*
X0077971Y0128296D01*
X0077929Y0128248D01*
X0077885Y0128204D01*
X0077837Y0128162D01*
X0077788Y0128124D01*
X0077736Y0128089D01*
X0077682Y0128057D01*
X0077626Y0128028D01*
X0077568Y0128003D01*
X0077509Y0127982D01*
X0077449Y0127964D01*
X0077387Y0127951D01*
X0077325Y0127941D01*
X0077263Y0127935D01*
X0077200Y0127933D01*
X0077137Y0127935D01*
X0077075Y0127941D01*
X0077013Y0127951D01*
X0076951Y0127964D01*
X0076891Y0127982D01*
X0076832Y0128003D01*
X0076774Y0128028D01*
X0076718Y0128057D01*
X0076664Y0128089D01*
X0076612Y0128124D01*
X0076563Y0128162D01*
X0076515Y0128204D01*
X0076471Y0128248D01*
X0076429Y0128296D01*
X0076391Y0128345D01*
X0076356Y0128397D01*
X0076324Y0128451D01*
X0076295Y0128507D01*
X0076270Y0128565D01*
X0076249Y0128624D01*
X0076231Y0128684D01*
X0076218Y0128746D01*
X0076208Y0128808D01*
X0076202Y0128870D01*
X0076200Y0128933D01*
X0236200Y0263933D02*
X0236202Y0263996D01*
X0236208Y0264058D01*
X0236218Y0264120D01*
X0236231Y0264182D01*
X0236249Y0264242D01*
X0236270Y0264301D01*
X0236295Y0264359D01*
X0236324Y0264415D01*
X0236356Y0264469D01*
X0236391Y0264521D01*
X0236429Y0264570D01*
X0236471Y0264618D01*
X0236515Y0264662D01*
X0236563Y0264704D01*
X0236612Y0264742D01*
X0236664Y0264777D01*
X0236718Y0264809D01*
X0236774Y0264838D01*
X0236832Y0264863D01*
X0236891Y0264884D01*
X0236951Y0264902D01*
X0237013Y0264915D01*
X0237075Y0264925D01*
X0237137Y0264931D01*
X0237200Y0264933D01*
X0237263Y0264931D01*
X0237325Y0264925D01*
X0237387Y0264915D01*
X0237449Y0264902D01*
X0237509Y0264884D01*
X0237568Y0264863D01*
X0237626Y0264838D01*
X0237682Y0264809D01*
X0237736Y0264777D01*
X0237788Y0264742D01*
X0237837Y0264704D01*
X0237885Y0264662D01*
X0237929Y0264618D01*
X0237971Y0264570D01*
X0238009Y0264521D01*
X0238044Y0264469D01*
X0238076Y0264415D01*
X0238105Y0264359D01*
X0238130Y0264301D01*
X0238151Y0264242D01*
X0238169Y0264182D01*
X0238182Y0264120D01*
X0238192Y0264058D01*
X0238198Y0263996D01*
X0238200Y0263933D01*
X0238198Y0263870D01*
X0238192Y0263808D01*
X0238182Y0263746D01*
X0238169Y0263684D01*
X0238151Y0263624D01*
X0238130Y0263565D01*
X0238105Y0263507D01*
X0238076Y0263451D01*
X0238044Y0263397D01*
X0238009Y0263345D01*
X0237971Y0263296D01*
X0237929Y0263248D01*
X0237885Y0263204D01*
X0237837Y0263162D01*
X0237788Y0263124D01*
X0237736Y0263089D01*
X0237682Y0263057D01*
X0237626Y0263028D01*
X0237568Y0263003D01*
X0237509Y0262982D01*
X0237449Y0262964D01*
X0237387Y0262951D01*
X0237325Y0262941D01*
X0237263Y0262935D01*
X0237200Y0262933D01*
X0237137Y0262935D01*
X0237075Y0262941D01*
X0237013Y0262951D01*
X0236951Y0262964D01*
X0236891Y0262982D01*
X0236832Y0263003D01*
X0236774Y0263028D01*
X0236718Y0263057D01*
X0236664Y0263089D01*
X0236612Y0263124D01*
X0236563Y0263162D01*
X0236515Y0263204D01*
X0236471Y0263248D01*
X0236429Y0263296D01*
X0236391Y0263345D01*
X0236356Y0263397D01*
X0236324Y0263451D01*
X0236295Y0263507D01*
X0236270Y0263565D01*
X0236249Y0263624D01*
X0236231Y0263684D01*
X0236218Y0263746D01*
X0236208Y0263808D01*
X0236202Y0263870D01*
X0236200Y0263933D01*
X0210200Y0318933D02*
X0210198Y0319125D01*
X0210191Y0319317D01*
X0210179Y0319509D01*
X0210163Y0319701D01*
X0210142Y0319892D01*
X0210117Y0320082D01*
X0210087Y0320272D01*
X0210053Y0320461D01*
X0210014Y0320649D01*
X0209970Y0320836D01*
X0209922Y0321022D01*
X0209870Y0321207D01*
X0209813Y0321391D01*
X0209752Y0321573D01*
X0209686Y0321753D01*
X0209616Y0321932D01*
X0209542Y0322110D01*
X0209464Y0322285D01*
X0209381Y0322459D01*
X0209294Y0322630D01*
X0209204Y0322799D01*
X0209109Y0322966D01*
X0209010Y0323131D01*
X0208907Y0323294D01*
X0208800Y0323453D01*
X0208690Y0323611D01*
X0208576Y0323765D01*
X0208458Y0323917D01*
X0208336Y0324066D01*
X0208211Y0324212D01*
X0208083Y0324354D01*
X0207951Y0324494D01*
X0207816Y0324631D01*
X0207677Y0324764D01*
X0207536Y0324894D01*
X0207391Y0325020D01*
X0207243Y0325143D01*
X0207093Y0325262D01*
X0206939Y0325378D01*
X0206783Y0325490D01*
X0206624Y0325598D01*
X0206463Y0325703D01*
X0206299Y0325803D01*
X0206133Y0325899D01*
X0205965Y0325992D01*
X0198231Y0325879D02*
X0198062Y0325780D01*
X0197896Y0325676D01*
X0197732Y0325569D01*
X0197571Y0325458D01*
X0197413Y0325343D01*
X0197258Y0325224D01*
X0197105Y0325101D01*
X0196956Y0324975D01*
X0196810Y0324845D01*
X0196667Y0324711D01*
X0196527Y0324574D01*
X0196391Y0324434D01*
X0196258Y0324290D01*
X0196129Y0324143D01*
X0196003Y0323993D01*
X0195882Y0323840D01*
X0195763Y0323684D01*
X0195649Y0323525D01*
X0195539Y0323364D01*
X0195433Y0323199D01*
X0195330Y0323033D01*
X0195232Y0322863D01*
X0195138Y0322692D01*
X0195048Y0322518D01*
X0194963Y0322342D01*
X0194881Y0322164D01*
X0194805Y0321984D01*
X0194732Y0321802D01*
X0194664Y0321619D01*
X0194601Y0321434D01*
X0194542Y0321247D01*
X0194488Y0321059D01*
X0194438Y0320870D01*
X0194393Y0320680D01*
X0194353Y0320488D01*
X0194317Y0320296D01*
X0194286Y0320103D01*
X0194260Y0319909D01*
X0194238Y0319714D01*
X0194222Y0319519D01*
X0194210Y0319324D01*
X0194202Y0319128D01*
X0194200Y0318933D01*
X0194202Y0318740D01*
X0194209Y0318547D01*
X0194221Y0318355D01*
X0194237Y0318162D01*
X0194258Y0317970D01*
X0194284Y0317779D01*
X0194314Y0317589D01*
X0194349Y0317399D01*
X0194388Y0317210D01*
X0194432Y0317022D01*
X0194480Y0316835D01*
X0194533Y0316649D01*
X0194590Y0316465D01*
X0194652Y0316282D01*
X0194718Y0316101D01*
X0194789Y0315921D01*
X0194863Y0315743D01*
X0194942Y0315567D01*
X0195026Y0315393D01*
X0195113Y0315221D01*
X0195205Y0315051D01*
X0195301Y0314884D01*
X0195400Y0314718D01*
X0195504Y0314555D01*
X0195611Y0314395D01*
X0195723Y0314238D01*
X0195838Y0314083D01*
X0195957Y0313931D01*
X0196079Y0313782D01*
X0196205Y0313635D01*
X0196335Y0313492D01*
X0196468Y0313352D01*
X0196604Y0313216D01*
X0196744Y0313082D01*
X0196886Y0312953D01*
X0197032Y0312826D01*
X0207322Y0312787D02*
X0207470Y0312914D01*
X0207615Y0313044D01*
X0207756Y0313177D01*
X0207895Y0313314D01*
X0208030Y0313454D01*
X0208161Y0313598D01*
X0208289Y0313745D01*
X0208414Y0313894D01*
X0208535Y0314047D01*
X0208652Y0314202D01*
X0208765Y0314361D01*
X0208874Y0314522D01*
X0208979Y0314686D01*
X0209081Y0314852D01*
X0209178Y0315021D01*
X0209271Y0315191D01*
X0209360Y0315365D01*
X0209445Y0315540D01*
X0209525Y0315717D01*
X0209601Y0315896D01*
X0209673Y0316077D01*
X0209740Y0316260D01*
X0209803Y0316444D01*
X0209861Y0316630D01*
X0209915Y0316817D01*
X0209964Y0317005D01*
X0210009Y0317195D01*
X0210049Y0317385D01*
X0210084Y0317577D01*
X0210115Y0317769D01*
X0210141Y0317962D01*
X0210162Y0318156D01*
X0210179Y0318350D01*
X0210191Y0318544D01*
X0210198Y0318738D01*
X0210200Y0318933D01*
X0178231Y0325879D02*
X0178062Y0325780D01*
X0177896Y0325676D01*
X0177732Y0325569D01*
X0177571Y0325458D01*
X0177413Y0325343D01*
X0177258Y0325224D01*
X0177105Y0325101D01*
X0176956Y0324975D01*
X0176810Y0324845D01*
X0176667Y0324711D01*
X0176527Y0324574D01*
X0176391Y0324434D01*
X0176258Y0324290D01*
X0176129Y0324143D01*
X0176003Y0323993D01*
X0175882Y0323840D01*
X0175763Y0323684D01*
X0175649Y0323525D01*
X0175539Y0323364D01*
X0175433Y0323199D01*
X0175330Y0323033D01*
X0175232Y0322863D01*
X0175138Y0322692D01*
X0175048Y0322518D01*
X0174963Y0322342D01*
X0174881Y0322164D01*
X0174805Y0321984D01*
X0174732Y0321802D01*
X0174664Y0321619D01*
X0174601Y0321434D01*
X0174542Y0321247D01*
X0174488Y0321059D01*
X0174438Y0320870D01*
X0174393Y0320680D01*
X0174353Y0320488D01*
X0174317Y0320296D01*
X0174286Y0320103D01*
X0174260Y0319909D01*
X0174238Y0319714D01*
X0174222Y0319519D01*
X0174210Y0319324D01*
X0174202Y0319128D01*
X0174200Y0318933D01*
X0185965Y0325992D02*
X0186133Y0325899D01*
X0186299Y0325803D01*
X0186463Y0325703D01*
X0186624Y0325598D01*
X0186783Y0325490D01*
X0186939Y0325378D01*
X0187093Y0325262D01*
X0187243Y0325143D01*
X0187391Y0325020D01*
X0187536Y0324894D01*
X0187677Y0324764D01*
X0187816Y0324631D01*
X0187951Y0324494D01*
X0188083Y0324354D01*
X0188211Y0324212D01*
X0188336Y0324066D01*
X0188458Y0323917D01*
X0188576Y0323765D01*
X0188690Y0323611D01*
X0188800Y0323453D01*
X0188907Y0323294D01*
X0189010Y0323131D01*
X0189109Y0322966D01*
X0189204Y0322799D01*
X0189294Y0322630D01*
X0189381Y0322459D01*
X0189464Y0322285D01*
X0189542Y0322110D01*
X0189616Y0321932D01*
X0189686Y0321753D01*
X0189752Y0321573D01*
X0189813Y0321391D01*
X0189870Y0321207D01*
X0189922Y0321022D01*
X0189970Y0320836D01*
X0190014Y0320649D01*
X0190053Y0320461D01*
X0190087Y0320272D01*
X0190117Y0320082D01*
X0190142Y0319892D01*
X0190163Y0319701D01*
X0190179Y0319509D01*
X0190191Y0319317D01*
X0190198Y0319125D01*
X0190200Y0318933D01*
X0177032Y0312826D02*
X0176886Y0312953D01*
X0176744Y0313082D01*
X0176604Y0313216D01*
X0176468Y0313352D01*
X0176335Y0313492D01*
X0176205Y0313635D01*
X0176079Y0313782D01*
X0175957Y0313931D01*
X0175838Y0314083D01*
X0175723Y0314238D01*
X0175611Y0314395D01*
X0175504Y0314555D01*
X0175400Y0314718D01*
X0175301Y0314884D01*
X0175205Y0315051D01*
X0175113Y0315221D01*
X0175026Y0315393D01*
X0174942Y0315567D01*
X0174863Y0315743D01*
X0174789Y0315921D01*
X0174718Y0316101D01*
X0174652Y0316282D01*
X0174590Y0316465D01*
X0174533Y0316649D01*
X0174480Y0316835D01*
X0174432Y0317022D01*
X0174388Y0317210D01*
X0174349Y0317399D01*
X0174314Y0317589D01*
X0174284Y0317779D01*
X0174258Y0317970D01*
X0174237Y0318162D01*
X0174221Y0318355D01*
X0174209Y0318547D01*
X0174202Y0318740D01*
X0174200Y0318933D01*
X0187322Y0312787D02*
X0187470Y0312914D01*
X0187615Y0313044D01*
X0187756Y0313177D01*
X0187895Y0313314D01*
X0188030Y0313454D01*
X0188161Y0313598D01*
X0188289Y0313745D01*
X0188414Y0313894D01*
X0188535Y0314047D01*
X0188652Y0314202D01*
X0188765Y0314361D01*
X0188874Y0314522D01*
X0188979Y0314686D01*
X0189081Y0314852D01*
X0189178Y0315021D01*
X0189271Y0315191D01*
X0189360Y0315365D01*
X0189445Y0315540D01*
X0189525Y0315717D01*
X0189601Y0315896D01*
X0189673Y0316077D01*
X0189740Y0316260D01*
X0189803Y0316444D01*
X0189861Y0316630D01*
X0189915Y0316817D01*
X0189964Y0317005D01*
X0190009Y0317195D01*
X0190049Y0317385D01*
X0190084Y0317577D01*
X0190115Y0317769D01*
X0190141Y0317962D01*
X0190162Y0318156D01*
X0190179Y0318350D01*
X0190191Y0318544D01*
X0190198Y0318738D01*
X0190200Y0318933D01*
M02*
