%
M48
M72
T01C0.0276
T02C0.0320
T03C0.0354
T04C0.0400
T05C0.0440
T06C0.0520
T07C0.0630
T08C0.1260
%
T01
X4220Y12333
X9220Y15083
X10220Y16583
X12220Y15583
X13220Y17333
X14720Y18833
X16220Y20583
X17720Y19833
X18220Y21333
X19220Y23583
X16220Y24208
X13220Y24333
X12220Y22583
X10220Y23583
X9220Y22083
X12220Y19583
X16720Y15583
X20220Y14833
X21845Y14333
X30970Y13833
X30970Y15333
X30970Y16833
X30970Y18333
X30970Y19833
X30970Y21333
X30970Y22833
X30970Y24333
X30970Y25833
X33095Y29333
X29220Y32583
X31970Y35833
X20720Y29583
X19220Y29583
X16220Y29833
X8470Y32208
X5720Y35708
X2220Y31083
X4970Y28333
X1720Y18583
X30970Y12333
T02
X32220Y12333
X32220Y14333
X24220Y14333
X24220Y13333
X24220Y12333
X10470Y26333
X10470Y27333
X8220Y26333
X7220Y26333
X6220Y26333
X18220Y33833
X18220Y34833
X20220Y34833
X20220Y33833
X27220Y31833
X27220Y30833
X27220Y29833
T03
X21220Y26833
X19220Y25833
X16220Y26833
T04
X16220Y28833
X13220Y28833
X13220Y32833
X13220Y33833
X16220Y33833
X16220Y32833
X22220Y32833
X22220Y33833
X25220Y33833
X25220Y32833
X25220Y28833
X22220Y28833
X23445Y17208
X24345Y17208
X25245Y17208
X34720Y14333
X34720Y12333
X12220Y12833
X10220Y12833
X7720Y13833
X7720Y16833
X3720Y16833
X2720Y16833
X2720Y13833
X3720Y13833
X3720Y20833
X2720Y20833
X2720Y23833
X3720Y23833
X7720Y23833
X7720Y20833
T05
X7720Y18833
X3720Y18833
X17720Y28833
X17720Y32833
T06
X13220Y35833
X22220Y35833
X25220Y35833
T07
X10704Y35833
X8736Y35833
X10236Y7833
X12204Y7833
X14236Y7833
X16204Y7833
X18236Y7833
X20204Y7833
X22236Y7833
X24204Y7833
X26236Y7833
X28204Y7833
X30236Y7833
X32204Y7833
X34236Y7833
X36204Y7833
T08
X3220Y8708
X3220Y36333
X34720Y36333
X34720Y18583
M30
