M48
;DRILL file {KiCad 4.0.1-stable} date 24.2.2016 16:11:34
;FORMAT={-:-/ absolute / metric / decimal}
FMAT,2
METRIC,TZ
T1C0.800
T2C1.000
T3C1.016
T4C2.000
T5C2.200
%
G90
G05
M71
T1
X93.98Y-76.708
X93.98Y-86.868
X97.028Y-86.868
X97.028Y-97.028
X106.68Y-76.788
X106.68Y-81.788
X106.68Y-92.028
X106.68Y-97.028
X109.22Y-81.788
X109.22Y-86.868
X109.22Y-89.916
X111.252Y-93.472
X114.3Y-77.216
X114.3Y-84.328
X116.332Y-97.028
X119.3Y-77.216
X119.3Y-84.328
X119.38Y-81.788
X119.38Y-86.868
X119.38Y-89.916
X121.332Y-97.028
X121.412Y-93.472
X123.952Y-89.408
X123.952Y-91.908
X125.984Y-79.756
X125.984Y-83.312
X125.984Y-86.868
X129.54Y-38.1
X129.54Y-50.292
X129.54Y-59.944
X129.54Y-64.944
X133.096Y-54.864
X133.096Y-65.024
X133.096Y-107.268
X133.096Y-112.268
X133.096Y-129.54
X133.176Y-119.888
X134.54Y-50.292
X134.66Y-67.564
X136.144Y-79.756
X136.144Y-83.312
X136.144Y-86.868
X136.144Y-90.424
X136.144Y-100.584
X136.652Y-52.832
X136.652Y-62.992
X137.16Y-67.564
X138.176Y-107.188
X138.176Y-117.348
X138.176Y-119.888
X139.7Y-38.1
X139.7Y-41.148
X139.7Y-52.832
X139.7Y-62.992
X139.7Y-69.596
X139.7Y-79.756
X139.7Y-90.424
X139.7Y-100.584
X140.716Y-107.268
X140.716Y-112.268
X142.24Y-57.912
X142.24Y-62.912
X143.256Y-69.596
X143.256Y-79.756
X143.256Y-90.424
X143.256Y-100.584
X143.256Y-107.188
X143.256Y-117.348
X143.256Y-129.54
X143.256Y-132.588
X144.78Y-50.292
X144.78Y-52.832
X144.78Y-62.992
X145.796Y-102.616
X146.304Y-107.188
X146.304Y-117.348
X146.812Y-69.596
X146.812Y-79.756
X146.812Y-83.312
X146.812Y-86.868
X146.812Y-90.424
X148.296Y-102.616
X148.416Y-119.888
X149.352Y-57.912
X149.352Y-62.912
X149.78Y-50.292
X149.86Y-41.148
X149.86Y-105.156
X149.86Y-115.316
X153.416Y-105.236
X153.416Y-110.236
X153.416Y-119.888
X153.416Y-132.588
X156.972Y-83.312
X156.972Y-86.868
X156.972Y-90.424
X159.004Y-78.272
X159.004Y-80.772
X161.036Y-76.2
X161.116Y-73.152
X163.576Y-80.264
X163.576Y-83.312
X163.576Y-88.392
X163.656Y-85.852
X163.656Y-92.964
X166.116Y-73.152
X168.656Y-85.852
X168.656Y-92.964
X171.196Y-76.2
X173.736Y-80.264
X173.736Y-83.312
X173.736Y-88.392
X176.276Y-73.152
X176.276Y-78.152
X176.276Y-88.392
X176.276Y-93.392
X185.42Y-73.152
X185.42Y-83.312
X185.42Y-86.868
X185.42Y-97.028
T2
X82.784Y-82.316
X84.552Y-84.083
X103.485Y-102.89
X105.253Y-104.657
X124.44Y-123.845
X126.208Y-125.612
X145.395Y-144.8
X147.163Y-146.567
T3
X125.476Y-97.028
X129.54Y-45.72
X129.54Y-69.088
X153.416Y-101.092
X153.416Y-124.968
X156.972Y-73.152
T4
X131.572Y-90.424
X141.732Y-84.836
X151.384Y-79.756
T5
X76.162Y-81.725
X83.374Y-88.936
X96.863Y-102.299
X104.075Y-109.51
X117.818Y-123.254
X125.03Y-130.465
X138.773Y-144.209
X145.985Y-151.42
T0
M30
