G04 #@! TF.FileFunction,Legend,Top*
%FSLAX46Y46*%
G04 Gerber Fmt 4.6, Leading zero omitted, Abs format (unit mm)*
G04 Created by KiCad (PCBNEW 4.0.1-stable) date 24/02/2016 16:46:15*
%MOMM*%
G01*
G04 APERTURE LIST*
%ADD10C,0.100000*%
%ADD11C,0.150000*%
G04 APERTURE END LIST*
D10*
D11*
X89855479Y-86275868D02*
X78824132Y-75244521D01*
X78824132Y-75244521D02*
X68640521Y-85428132D01*
X68640521Y-85428132D02*
X79671868Y-96459479D01*
X79671868Y-96459479D02*
X89855479Y-86275868D01*
X110556479Y-106849868D02*
X99525132Y-95818521D01*
X99525132Y-95818521D02*
X89341521Y-106002132D01*
X89341521Y-106002132D02*
X100372868Y-117033479D01*
X100372868Y-117033479D02*
X110556479Y-106849868D01*
X152466479Y-148759868D02*
X141435132Y-137728521D01*
X141435132Y-137728521D02*
X131251521Y-147912132D01*
X131251521Y-147912132D02*
X142282868Y-158943479D01*
X142282868Y-158943479D02*
X152466479Y-148759868D01*
X131511479Y-127804868D02*
X120480132Y-116773521D01*
X120480132Y-116773521D02*
X110296521Y-126957132D01*
X110296521Y-126957132D02*
X121327868Y-137988479D01*
X121327868Y-137988479D02*
X131511479Y-127804868D01*
X177526000Y-87392000D02*
X177526000Y-94392000D01*
X177526000Y-94392000D02*
X175026000Y-94392000D01*
X175026000Y-94392000D02*
X175026000Y-87392000D01*
X175026000Y-87392000D02*
X177526000Y-87392000D01*
X113300000Y-75466000D02*
X120300000Y-75466000D01*
X120300000Y-75466000D02*
X120300000Y-78966000D01*
X120300000Y-78966000D02*
X113300000Y-78966000D01*
X113300000Y-78966000D02*
X113300000Y-75466000D01*
X157754000Y-81522000D02*
X157754000Y-77522000D01*
X160254000Y-81522000D02*
X160254000Y-77522000D01*
X169656000Y-87102000D02*
X162656000Y-87102000D01*
X162656000Y-87102000D02*
X162656000Y-84602000D01*
X162656000Y-84602000D02*
X169656000Y-84602000D01*
X169656000Y-84602000D02*
X169656000Y-87102000D01*
X139466000Y-113268000D02*
X139466000Y-106268000D01*
X139466000Y-106268000D02*
X141966000Y-106268000D01*
X141966000Y-106268000D02*
X141966000Y-113268000D01*
X141966000Y-113268000D02*
X139466000Y-113268000D01*
X145796000Y-131318000D02*
X150876000Y-131318000D01*
X150876000Y-131318000D02*
X150876000Y-133858000D01*
X150876000Y-133858000D02*
X145796000Y-133858000D01*
X145796000Y-133858000D02*
X145796000Y-131318000D01*
X145796000Y-132588000D02*
X144526000Y-132588000D01*
X150876000Y-132588000D02*
X152146000Y-132588000D01*
X152166000Y-111236000D02*
X152166000Y-104236000D01*
X152166000Y-104236000D02*
X154666000Y-104236000D01*
X154666000Y-104236000D02*
X154666000Y-111236000D01*
X154666000Y-111236000D02*
X152166000Y-111236000D01*
X154416000Y-121138000D02*
X147416000Y-121138000D01*
X147416000Y-121138000D02*
X147416000Y-118638000D01*
X147416000Y-118638000D02*
X154416000Y-118638000D01*
X154416000Y-118638000D02*
X154416000Y-121138000D01*
X131346000Y-113268000D02*
X131346000Y-106268000D01*
X131346000Y-106268000D02*
X134846000Y-106268000D01*
X134846000Y-106268000D02*
X134846000Y-113268000D01*
X134846000Y-113268000D02*
X131346000Y-113268000D01*
X145046000Y-101366000D02*
X149046000Y-101366000D01*
X145046000Y-103866000D02*
X149046000Y-103866000D01*
X139176000Y-121138000D02*
X132176000Y-121138000D01*
X132176000Y-121138000D02*
X132176000Y-118638000D01*
X132176000Y-118638000D02*
X139176000Y-118638000D01*
X139176000Y-118638000D02*
X139176000Y-121138000D01*
X135636000Y-128270000D02*
X140716000Y-128270000D01*
X140716000Y-128270000D02*
X140716000Y-130810000D01*
X140716000Y-130810000D02*
X135636000Y-130810000D01*
X135636000Y-130810000D02*
X135636000Y-128270000D01*
X135636000Y-129540000D02*
X134366000Y-129540000D01*
X140716000Y-129540000D02*
X141986000Y-129540000D01*
X147574000Y-109728000D02*
X147574000Y-114808000D01*
X147574000Y-114808000D02*
X145034000Y-114808000D01*
X145034000Y-114808000D02*
X145034000Y-109728000D01*
X145034000Y-109728000D02*
X147574000Y-109728000D01*
X146304000Y-109728000D02*
X146304000Y-108458000D01*
X146304000Y-114808000D02*
X146304000Y-116078000D01*
X139446000Y-109728000D02*
X139446000Y-114808000D01*
X139446000Y-114808000D02*
X136906000Y-114808000D01*
X136906000Y-114808000D02*
X136906000Y-109728000D01*
X136906000Y-109728000D02*
X139446000Y-109728000D01*
X138176000Y-109728000D02*
X138176000Y-108458000D01*
X138176000Y-114808000D02*
X138176000Y-116078000D01*
X141986000Y-98044000D02*
X141986000Y-92964000D01*
X141986000Y-92964000D02*
X144526000Y-92964000D01*
X144526000Y-92964000D02*
X144526000Y-98044000D01*
X144526000Y-98044000D02*
X141986000Y-98044000D01*
X143256000Y-98044000D02*
X143256000Y-99314000D01*
X143256000Y-92964000D02*
X143256000Y-91694000D01*
X141986000Y-114808000D02*
X141986000Y-109728000D01*
X141986000Y-109728000D02*
X144526000Y-109728000D01*
X144526000Y-109728000D02*
X144526000Y-114808000D01*
X144526000Y-114808000D02*
X141986000Y-114808000D01*
X143256000Y-114808000D02*
X143256000Y-116078000D01*
X143256000Y-109728000D02*
X143256000Y-108458000D01*
X151130000Y-107696000D02*
X151130000Y-112776000D01*
X151130000Y-112776000D02*
X148590000Y-112776000D01*
X148590000Y-112776000D02*
X148590000Y-107696000D01*
X148590000Y-107696000D02*
X151130000Y-107696000D01*
X149860000Y-107696000D02*
X149860000Y-106426000D01*
X149860000Y-112776000D02*
X149860000Y-114046000D01*
X134874000Y-98044000D02*
X134874000Y-92964000D01*
X134874000Y-92964000D02*
X137414000Y-92964000D01*
X137414000Y-92964000D02*
X137414000Y-98044000D01*
X137414000Y-98044000D02*
X134874000Y-98044000D01*
X136144000Y-98044000D02*
X136144000Y-99314000D01*
X136144000Y-92964000D02*
X136144000Y-91694000D01*
X138430000Y-98044000D02*
X138430000Y-92964000D01*
X138430000Y-92964000D02*
X140970000Y-92964000D01*
X140970000Y-92964000D02*
X140970000Y-98044000D01*
X140970000Y-98044000D02*
X138430000Y-98044000D01*
X139700000Y-98044000D02*
X139700000Y-99314000D01*
X139700000Y-92964000D02*
X139700000Y-91694000D01*
X154966000Y-99542000D02*
X154966000Y-101092000D01*
X151866000Y-101092000D02*
X151866000Y-99542000D01*
X151866000Y-99542000D02*
X154966000Y-99542000D01*
X152146000Y-102362000D02*
X154686000Y-102362000D01*
X113300000Y-83078000D02*
X120300000Y-83078000D01*
X120300000Y-83078000D02*
X120300000Y-85578000D01*
X120300000Y-85578000D02*
X113300000Y-85578000D01*
X113300000Y-85578000D02*
X113300000Y-83078000D01*
X125202000Y-88658000D02*
X125202000Y-92658000D01*
X122702000Y-88658000D02*
X122702000Y-92658000D01*
X169656000Y-94714000D02*
X162656000Y-94714000D01*
X162656000Y-94714000D02*
X162656000Y-91214000D01*
X162656000Y-91214000D02*
X169656000Y-91214000D01*
X169656000Y-91214000D02*
X169656000Y-94714000D01*
X105430000Y-82788000D02*
X105430000Y-75788000D01*
X105430000Y-75788000D02*
X107930000Y-75788000D01*
X107930000Y-75788000D02*
X107930000Y-82788000D01*
X107930000Y-82788000D02*
X105430000Y-82788000D01*
X177526000Y-72152000D02*
X177526000Y-79152000D01*
X177526000Y-79152000D02*
X175026000Y-79152000D01*
X175026000Y-79152000D02*
X175026000Y-72152000D01*
X175026000Y-72152000D02*
X177526000Y-72152000D01*
X167116000Y-74402000D02*
X160116000Y-74402000D01*
X160116000Y-74402000D02*
X160116000Y-71902000D01*
X160116000Y-71902000D02*
X167116000Y-71902000D01*
X167116000Y-71902000D02*
X167116000Y-74402000D01*
X105430000Y-98028000D02*
X105430000Y-91028000D01*
X105430000Y-91028000D02*
X107930000Y-91028000D01*
X107930000Y-91028000D02*
X107930000Y-98028000D01*
X107930000Y-98028000D02*
X105430000Y-98028000D01*
X130790000Y-58944000D02*
X130790000Y-65944000D01*
X130790000Y-65944000D02*
X128290000Y-65944000D01*
X128290000Y-65944000D02*
X128290000Y-58944000D01*
X128290000Y-58944000D02*
X130790000Y-58944000D01*
X143490000Y-56912000D02*
X143490000Y-63912000D01*
X143490000Y-63912000D02*
X140990000Y-63912000D01*
X140990000Y-63912000D02*
X140990000Y-56912000D01*
X140990000Y-56912000D02*
X143490000Y-56912000D01*
X137910000Y-68814000D02*
X133910000Y-68814000D01*
X137910000Y-66314000D02*
X133910000Y-66314000D01*
X151102000Y-56912000D02*
X151102000Y-63912000D01*
X151102000Y-63912000D02*
X147602000Y-63912000D01*
X147602000Y-63912000D02*
X147602000Y-56912000D01*
X147602000Y-56912000D02*
X151102000Y-56912000D01*
X143780000Y-49042000D02*
X150780000Y-49042000D01*
X150780000Y-49042000D02*
X150780000Y-51542000D01*
X150780000Y-51542000D02*
X143780000Y-51542000D01*
X143780000Y-51542000D02*
X143780000Y-49042000D01*
X128540000Y-49042000D02*
X135540000Y-49042000D01*
X135540000Y-49042000D02*
X135540000Y-51542000D01*
X135540000Y-51542000D02*
X128540000Y-51542000D01*
X128540000Y-51542000D02*
X128540000Y-49042000D01*
X115332000Y-95778000D02*
X122332000Y-95778000D01*
X122332000Y-95778000D02*
X122332000Y-98278000D01*
X122332000Y-98278000D02*
X115332000Y-98278000D01*
X115332000Y-98278000D02*
X115332000Y-95778000D01*
X131090000Y-67538000D02*
X131090000Y-69088000D01*
X127990000Y-69088000D02*
X127990000Y-67538000D01*
X127990000Y-67538000D02*
X131090000Y-67538000D01*
X128270000Y-70358000D02*
X130810000Y-70358000D01*
X127026000Y-95478000D02*
X127026000Y-97028000D01*
X123926000Y-97028000D02*
X123926000Y-95478000D01*
X123926000Y-95478000D02*
X127026000Y-95478000D01*
X124206000Y-98298000D02*
X126746000Y-98298000D01*
X154966000Y-123418000D02*
X154966000Y-124968000D01*
X151866000Y-124968000D02*
X151866000Y-123418000D01*
X151866000Y-123418000D02*
X154966000Y-123418000D01*
X152146000Y-126238000D02*
X154686000Y-126238000D01*
X158522000Y-71602000D02*
X158522000Y-73152000D01*
X155422000Y-73152000D02*
X155422000Y-71602000D01*
X155422000Y-71602000D02*
X158522000Y-71602000D01*
X155702000Y-74422000D02*
X158242000Y-74422000D01*
X131090000Y-44170000D02*
X131090000Y-45720000D01*
X127990000Y-45720000D02*
X127990000Y-44170000D01*
X127990000Y-44170000D02*
X131090000Y-44170000D01*
X128270000Y-46990000D02*
X130810000Y-46990000D01*
X154432000Y-88138000D02*
X149352000Y-88138000D01*
X149352000Y-88138000D02*
X149352000Y-85598000D01*
X149352000Y-85598000D02*
X154432000Y-85598000D01*
X154432000Y-85598000D02*
X154432000Y-88138000D01*
X154432000Y-86868000D02*
X155702000Y-86868000D01*
X149352000Y-86868000D02*
X148082000Y-86868000D01*
X154432000Y-91694000D02*
X149352000Y-91694000D01*
X149352000Y-91694000D02*
X149352000Y-89154000D01*
X149352000Y-89154000D02*
X154432000Y-89154000D01*
X154432000Y-89154000D02*
X154432000Y-91694000D01*
X154432000Y-90424000D02*
X155702000Y-90424000D01*
X149352000Y-90424000D02*
X148082000Y-90424000D01*
X128524000Y-82042000D02*
X133604000Y-82042000D01*
X133604000Y-82042000D02*
X133604000Y-84582000D01*
X133604000Y-84582000D02*
X128524000Y-84582000D01*
X128524000Y-84582000D02*
X128524000Y-82042000D01*
X128524000Y-83312000D02*
X127254000Y-83312000D01*
X133604000Y-83312000D02*
X134874000Y-83312000D01*
X163576000Y-74930000D02*
X168656000Y-74930000D01*
X168656000Y-74930000D02*
X168656000Y-77470000D01*
X168656000Y-77470000D02*
X163576000Y-77470000D01*
X163576000Y-77470000D02*
X163576000Y-74930000D01*
X163576000Y-76200000D02*
X162306000Y-76200000D01*
X168656000Y-76200000D02*
X169926000Y-76200000D01*
X171196000Y-84582000D02*
X166116000Y-84582000D01*
X166116000Y-84582000D02*
X166116000Y-82042000D01*
X166116000Y-82042000D02*
X171196000Y-82042000D01*
X171196000Y-82042000D02*
X171196000Y-84582000D01*
X171196000Y-83312000D02*
X172466000Y-83312000D01*
X166116000Y-83312000D02*
X164846000Y-83312000D01*
X154432000Y-84582000D02*
X149352000Y-84582000D01*
X149352000Y-84582000D02*
X149352000Y-82042000D01*
X149352000Y-82042000D02*
X154432000Y-82042000D01*
X154432000Y-82042000D02*
X154432000Y-84582000D01*
X154432000Y-83312000D02*
X155702000Y-83312000D01*
X149352000Y-83312000D02*
X148082000Y-83312000D01*
X128524000Y-78486000D02*
X133604000Y-78486000D01*
X133604000Y-78486000D02*
X133604000Y-81026000D01*
X133604000Y-81026000D02*
X128524000Y-81026000D01*
X128524000Y-81026000D02*
X128524000Y-78486000D01*
X128524000Y-79756000D02*
X127254000Y-79756000D01*
X133604000Y-79756000D02*
X134874000Y-79756000D01*
X118872000Y-94742000D02*
X113792000Y-94742000D01*
X113792000Y-94742000D02*
X113792000Y-92202000D01*
X113792000Y-92202000D02*
X118872000Y-92202000D01*
X118872000Y-92202000D02*
X118872000Y-94742000D01*
X118872000Y-93472000D02*
X120142000Y-93472000D01*
X113792000Y-93472000D02*
X112522000Y-93472000D01*
X111760000Y-85598000D02*
X116840000Y-85598000D01*
X116840000Y-85598000D02*
X116840000Y-88138000D01*
X116840000Y-88138000D02*
X111760000Y-88138000D01*
X111760000Y-88138000D02*
X111760000Y-85598000D01*
X111760000Y-86868000D02*
X110490000Y-86868000D01*
X116840000Y-86868000D02*
X118110000Y-86868000D01*
X128524000Y-85598000D02*
X133604000Y-85598000D01*
X133604000Y-85598000D02*
X133604000Y-88138000D01*
X133604000Y-88138000D02*
X128524000Y-88138000D01*
X128524000Y-88138000D02*
X128524000Y-85598000D01*
X128524000Y-86868000D02*
X127254000Y-86868000D01*
X133604000Y-86868000D02*
X134874000Y-86868000D01*
X166116000Y-87122000D02*
X171196000Y-87122000D01*
X171196000Y-87122000D02*
X171196000Y-89662000D01*
X171196000Y-89662000D02*
X166116000Y-89662000D01*
X166116000Y-89662000D02*
X166116000Y-87122000D01*
X166116000Y-88392000D02*
X164846000Y-88392000D01*
X171196000Y-88392000D02*
X172466000Y-88392000D01*
X184150000Y-80772000D02*
X184150000Y-75692000D01*
X184150000Y-75692000D02*
X186690000Y-75692000D01*
X186690000Y-75692000D02*
X186690000Y-80772000D01*
X186690000Y-80772000D02*
X184150000Y-80772000D01*
X185420000Y-80772000D02*
X185420000Y-82042000D01*
X185420000Y-75692000D02*
X185420000Y-74422000D01*
X166116000Y-78994000D02*
X171196000Y-78994000D01*
X171196000Y-78994000D02*
X171196000Y-81534000D01*
X171196000Y-81534000D02*
X166116000Y-81534000D01*
X166116000Y-81534000D02*
X166116000Y-78994000D01*
X166116000Y-80264000D02*
X164846000Y-80264000D01*
X171196000Y-80264000D02*
X172466000Y-80264000D01*
X184150000Y-94488000D02*
X184150000Y-89408000D01*
X184150000Y-89408000D02*
X186690000Y-89408000D01*
X186690000Y-89408000D02*
X186690000Y-94488000D01*
X186690000Y-94488000D02*
X184150000Y-94488000D01*
X185420000Y-94488000D02*
X185420000Y-95758000D01*
X185420000Y-89408000D02*
X185420000Y-88138000D01*
X116840000Y-83058000D02*
X111760000Y-83058000D01*
X111760000Y-83058000D02*
X111760000Y-80518000D01*
X111760000Y-80518000D02*
X116840000Y-80518000D01*
X116840000Y-80518000D02*
X116840000Y-83058000D01*
X116840000Y-81788000D02*
X118110000Y-81788000D01*
X111760000Y-81788000D02*
X110490000Y-81788000D01*
X92710000Y-84328000D02*
X92710000Y-79248000D01*
X92710000Y-79248000D02*
X95250000Y-79248000D01*
X95250000Y-79248000D02*
X95250000Y-84328000D01*
X95250000Y-84328000D02*
X92710000Y-84328000D01*
X93980000Y-84328000D02*
X93980000Y-85598000D01*
X93980000Y-79248000D02*
X93980000Y-77978000D01*
X116840000Y-91186000D02*
X111760000Y-91186000D01*
X111760000Y-91186000D02*
X111760000Y-88646000D01*
X111760000Y-88646000D02*
X116840000Y-88646000D01*
X116840000Y-88646000D02*
X116840000Y-91186000D01*
X116840000Y-89916000D02*
X118110000Y-89916000D01*
X111760000Y-89916000D02*
X110490000Y-89916000D01*
X95758000Y-94488000D02*
X95758000Y-89408000D01*
X95758000Y-89408000D02*
X98298000Y-89408000D01*
X98298000Y-89408000D02*
X98298000Y-94488000D01*
X98298000Y-94488000D02*
X95758000Y-94488000D01*
X97028000Y-94488000D02*
X97028000Y-95758000D01*
X97028000Y-89408000D02*
X97028000Y-88138000D01*
X144526000Y-72136000D02*
X144526000Y-77216000D01*
X144526000Y-77216000D02*
X141986000Y-77216000D01*
X141986000Y-77216000D02*
X141986000Y-72136000D01*
X141986000Y-72136000D02*
X144526000Y-72136000D01*
X143256000Y-72136000D02*
X143256000Y-70866000D01*
X143256000Y-77216000D02*
X143256000Y-78486000D01*
X148082000Y-72136000D02*
X148082000Y-77216000D01*
X148082000Y-77216000D02*
X145542000Y-77216000D01*
X145542000Y-77216000D02*
X145542000Y-72136000D01*
X145542000Y-72136000D02*
X148082000Y-72136000D01*
X146812000Y-72136000D02*
X146812000Y-70866000D01*
X146812000Y-77216000D02*
X146812000Y-78486000D01*
X131826000Y-62484000D02*
X131826000Y-57404000D01*
X131826000Y-57404000D02*
X134366000Y-57404000D01*
X134366000Y-57404000D02*
X134366000Y-62484000D01*
X134366000Y-62484000D02*
X131826000Y-62484000D01*
X133096000Y-62484000D02*
X133096000Y-63754000D01*
X133096000Y-57404000D02*
X133096000Y-56134000D01*
X140970000Y-55372000D02*
X140970000Y-60452000D01*
X140970000Y-60452000D02*
X138430000Y-60452000D01*
X138430000Y-60452000D02*
X138430000Y-55372000D01*
X138430000Y-55372000D02*
X140970000Y-55372000D01*
X139700000Y-55372000D02*
X139700000Y-54102000D01*
X139700000Y-60452000D02*
X139700000Y-61722000D01*
X140970000Y-72136000D02*
X140970000Y-77216000D01*
X140970000Y-77216000D02*
X138430000Y-77216000D01*
X138430000Y-77216000D02*
X138430000Y-72136000D01*
X138430000Y-72136000D02*
X140970000Y-72136000D01*
X139700000Y-72136000D02*
X139700000Y-70866000D01*
X139700000Y-77216000D02*
X139700000Y-78486000D01*
X143510000Y-60452000D02*
X143510000Y-55372000D01*
X143510000Y-55372000D02*
X146050000Y-55372000D01*
X146050000Y-55372000D02*
X146050000Y-60452000D01*
X146050000Y-60452000D02*
X143510000Y-60452000D01*
X144780000Y-60452000D02*
X144780000Y-61722000D01*
X144780000Y-55372000D02*
X144780000Y-54102000D01*
X142240000Y-39878000D02*
X147320000Y-39878000D01*
X147320000Y-39878000D02*
X147320000Y-42418000D01*
X147320000Y-42418000D02*
X142240000Y-42418000D01*
X142240000Y-42418000D02*
X142240000Y-39878000D01*
X142240000Y-41148000D02*
X140970000Y-41148000D01*
X147320000Y-41148000D02*
X148590000Y-41148000D01*
X135382000Y-60452000D02*
X135382000Y-55372000D01*
X135382000Y-55372000D02*
X137922000Y-55372000D01*
X137922000Y-55372000D02*
X137922000Y-60452000D01*
X137922000Y-60452000D02*
X135382000Y-60452000D01*
X136652000Y-60452000D02*
X136652000Y-61722000D01*
X136652000Y-55372000D02*
X136652000Y-54102000D01*
X132080000Y-36830000D02*
X137160000Y-36830000D01*
X137160000Y-36830000D02*
X137160000Y-39370000D01*
X137160000Y-39370000D02*
X132080000Y-39370000D01*
X132080000Y-39370000D02*
X132080000Y-36830000D01*
X132080000Y-38100000D02*
X130810000Y-38100000D01*
X137160000Y-38100000D02*
X138430000Y-38100000D01*
X79085488Y-84297252D02*
X79792595Y-83590145D01*
X80061970Y-83859519D01*
X80095641Y-83960535D01*
X80095641Y-84027878D01*
X80061970Y-84128893D01*
X79960955Y-84229908D01*
X79859939Y-84263580D01*
X79792596Y-84263580D01*
X79691581Y-84229908D01*
X79422206Y-83960534D01*
X80162985Y-85374748D02*
X79758924Y-84970687D01*
X79960954Y-85172717D02*
X80668061Y-84465610D01*
X80499702Y-84499282D01*
X80365015Y-84499282D01*
X80264000Y-84465610D01*
X81105794Y-84903343D02*
X81543527Y-85341076D01*
X81038450Y-85374747D01*
X81139466Y-85475763D01*
X81173138Y-85576778D01*
X81173138Y-85644122D01*
X81139465Y-85745138D01*
X80971107Y-85913496D01*
X80870092Y-85947168D01*
X80802748Y-85947168D01*
X80701733Y-85913496D01*
X80499702Y-85711465D01*
X80466030Y-85610450D01*
X80466030Y-85543107D01*
X99913488Y-105125253D02*
X100620595Y-104418146D01*
X100889970Y-104687520D01*
X100923641Y-104788536D01*
X100923641Y-104855879D01*
X100889970Y-104956894D01*
X100788955Y-105057909D01*
X100687939Y-105091581D01*
X100620596Y-105091581D01*
X100519581Y-105057909D01*
X100250206Y-104788535D01*
X100990985Y-106202749D02*
X100586924Y-105798688D01*
X100788954Y-106000718D02*
X101496061Y-105293611D01*
X101327702Y-105327283D01*
X101193015Y-105327283D01*
X101092000Y-105293611D01*
X102135824Y-105933375D02*
X102203168Y-106000719D01*
X102236840Y-106101734D01*
X102236840Y-106169077D01*
X102203168Y-106270093D01*
X102102153Y-106438451D01*
X101933794Y-106606811D01*
X101765435Y-106707826D01*
X101664420Y-106741497D01*
X101597076Y-106741497D01*
X101496061Y-106707826D01*
X101428717Y-106640482D01*
X101395045Y-106539466D01*
X101395045Y-106472123D01*
X101428717Y-106371108D01*
X101529732Y-106202749D01*
X101698092Y-106034390D01*
X101866450Y-105933375D01*
X101967465Y-105899703D01*
X102034809Y-105899703D01*
X102135824Y-105933375D01*
X142414206Y-146609970D02*
X143121313Y-145902863D01*
X143390688Y-146172237D01*
X143424359Y-146273253D01*
X143424359Y-146340596D01*
X143390688Y-146441611D01*
X143289672Y-146542626D01*
X143188657Y-146576298D01*
X143121314Y-146576298D01*
X143020299Y-146542626D01*
X142750924Y-146273252D01*
X143154985Y-147350748D02*
X143289672Y-147485435D01*
X143390688Y-147519107D01*
X143458031Y-147519107D01*
X143626390Y-147485436D01*
X143794748Y-147384421D01*
X144064123Y-147115046D01*
X144097794Y-147014031D01*
X144097794Y-146946688D01*
X144064123Y-146845672D01*
X143929435Y-146710985D01*
X143828420Y-146677313D01*
X143761076Y-146677313D01*
X143660061Y-146710985D01*
X143491703Y-146879343D01*
X143458031Y-146980359D01*
X143458030Y-147047703D01*
X143491702Y-147148718D01*
X143626390Y-147283405D01*
X143727405Y-147317077D01*
X143794749Y-147317076D01*
X143895764Y-147283405D01*
X121586206Y-126289970D02*
X122293313Y-125582863D01*
X122562688Y-125852237D01*
X122596359Y-125953253D01*
X122596359Y-126020596D01*
X122562688Y-126121611D01*
X122461672Y-126222626D01*
X122360657Y-126256298D01*
X122293314Y-126256298D01*
X122192299Y-126222626D01*
X121922924Y-125953252D01*
X123303466Y-126593016D02*
X123168778Y-126458328D01*
X123067763Y-126424657D01*
X123000420Y-126424657D01*
X122832061Y-126458328D01*
X122663703Y-126559343D01*
X122394328Y-126828718D01*
X122360657Y-126929733D01*
X122360657Y-126997076D01*
X122394328Y-127098092D01*
X122529016Y-127232779D01*
X122630031Y-127266451D01*
X122697374Y-127266451D01*
X122798390Y-127232779D01*
X122966748Y-127064421D01*
X123000421Y-126963405D01*
X123000421Y-126896061D01*
X122966749Y-126795046D01*
X122832061Y-126660359D01*
X122731046Y-126626687D01*
X122663703Y-126626687D01*
X122562687Y-126660359D01*
X149629905Y-77668381D02*
X149629905Y-76668381D01*
X150010858Y-76668381D01*
X150106096Y-76716000D01*
X150153715Y-76763619D01*
X150201334Y-76858857D01*
X150201334Y-77001714D01*
X150153715Y-77096952D01*
X150106096Y-77144571D01*
X150010858Y-77192190D01*
X149629905Y-77192190D01*
X151106096Y-76668381D02*
X150629905Y-76668381D01*
X150582286Y-77144571D01*
X150629905Y-77096952D01*
X150725143Y-77049333D01*
X150963239Y-77049333D01*
X151058477Y-77096952D01*
X151106096Y-77144571D01*
X151153715Y-77239810D01*
X151153715Y-77477905D01*
X151106096Y-77573143D01*
X151058477Y-77620762D01*
X150963239Y-77668381D01*
X150725143Y-77668381D01*
X150629905Y-77620762D01*
X150582286Y-77573143D01*
X131849905Y-93416381D02*
X131849905Y-92416381D01*
X132230858Y-92416381D01*
X132326096Y-92464000D01*
X132373715Y-92511619D01*
X132421334Y-92606857D01*
X132421334Y-92749714D01*
X132373715Y-92844952D01*
X132326096Y-92892571D01*
X132230858Y-92940190D01*
X131849905Y-92940190D01*
X132754667Y-92416381D02*
X133373715Y-92416381D01*
X133040381Y-92797333D01*
X133183239Y-92797333D01*
X133278477Y-92844952D01*
X133326096Y-92892571D01*
X133373715Y-92987810D01*
X133373715Y-93225905D01*
X133326096Y-93321143D01*
X133278477Y-93368762D01*
X133183239Y-93416381D01*
X132897524Y-93416381D01*
X132802286Y-93368762D01*
X132754667Y-93321143D01*
X135913905Y-78176381D02*
X135913905Y-77176381D01*
X136294858Y-77176381D01*
X136390096Y-77224000D01*
X136437715Y-77271619D01*
X136485334Y-77366857D01*
X136485334Y-77509714D01*
X136437715Y-77604952D01*
X136390096Y-77652571D01*
X136294858Y-77700190D01*
X135913905Y-77700190D01*
X136866286Y-77271619D02*
X136913905Y-77224000D01*
X137009143Y-77176381D01*
X137247239Y-77176381D01*
X137342477Y-77224000D01*
X137390096Y-77271619D01*
X137437715Y-77366857D01*
X137437715Y-77462095D01*
X137390096Y-77604952D01*
X136818667Y-78176381D01*
X137437715Y-78176381D01*
X176633143Y-91574857D02*
X176680762Y-91622476D01*
X176728381Y-91765333D01*
X176728381Y-91860571D01*
X176680762Y-92003429D01*
X176585524Y-92098667D01*
X176490286Y-92146286D01*
X176299810Y-92193905D01*
X176156952Y-92193905D01*
X175966476Y-92146286D01*
X175871238Y-92098667D01*
X175776000Y-92003429D01*
X175728381Y-91860571D01*
X175728381Y-91765333D01*
X175776000Y-91622476D01*
X175823619Y-91574857D01*
X176728381Y-90622476D02*
X176728381Y-91193905D01*
X176728381Y-90908191D02*
X175728381Y-90908191D01*
X175871238Y-91003429D01*
X175966476Y-91098667D01*
X176014095Y-91193905D01*
X175728381Y-90003429D02*
X175728381Y-89908190D01*
X175776000Y-89812952D01*
X175823619Y-89765333D01*
X175918857Y-89717714D01*
X176109333Y-89670095D01*
X176347429Y-89670095D01*
X176537905Y-89717714D01*
X176633143Y-89765333D01*
X176680762Y-89812952D01*
X176728381Y-89908190D01*
X176728381Y-90003429D01*
X176680762Y-90098667D01*
X176633143Y-90146286D01*
X176537905Y-90193905D01*
X176347429Y-90241524D01*
X176109333Y-90241524D01*
X175918857Y-90193905D01*
X175823619Y-90146286D01*
X175776000Y-90098667D01*
X175728381Y-90003429D01*
X116673334Y-77573143D02*
X116625715Y-77620762D01*
X116482858Y-77668381D01*
X116387620Y-77668381D01*
X116244762Y-77620762D01*
X116149524Y-77525524D01*
X116101905Y-77430286D01*
X116054286Y-77239810D01*
X116054286Y-77096952D01*
X116101905Y-76906476D01*
X116149524Y-76811238D01*
X116244762Y-76716000D01*
X116387620Y-76668381D01*
X116482858Y-76668381D01*
X116625715Y-76716000D01*
X116673334Y-76763619D01*
X117149524Y-77668381D02*
X117340000Y-77668381D01*
X117435239Y-77620762D01*
X117482858Y-77573143D01*
X117578096Y-77430286D01*
X117625715Y-77239810D01*
X117625715Y-76858857D01*
X117578096Y-76763619D01*
X117530477Y-76716000D01*
X117435239Y-76668381D01*
X117244762Y-76668381D01*
X117149524Y-76716000D01*
X117101905Y-76763619D01*
X117054286Y-76858857D01*
X117054286Y-77096952D01*
X117101905Y-77192190D01*
X117149524Y-77239810D01*
X117244762Y-77287429D01*
X117435239Y-77287429D01*
X117530477Y-77239810D01*
X117578096Y-77192190D01*
X117625715Y-77096952D01*
X156861143Y-79688666D02*
X156908762Y-79736285D01*
X156956381Y-79879142D01*
X156956381Y-79974380D01*
X156908762Y-80117238D01*
X156813524Y-80212476D01*
X156718286Y-80260095D01*
X156527810Y-80307714D01*
X156384952Y-80307714D01*
X156194476Y-80260095D01*
X156099238Y-80212476D01*
X156004000Y-80117238D01*
X155956381Y-79974380D01*
X155956381Y-79879142D01*
X156004000Y-79736285D01*
X156051619Y-79688666D01*
X156384952Y-79117238D02*
X156337333Y-79212476D01*
X156289714Y-79260095D01*
X156194476Y-79307714D01*
X156146857Y-79307714D01*
X156051619Y-79260095D01*
X156004000Y-79212476D01*
X155956381Y-79117238D01*
X155956381Y-78926761D01*
X156004000Y-78831523D01*
X156051619Y-78783904D01*
X156146857Y-78736285D01*
X156194476Y-78736285D01*
X156289714Y-78783904D01*
X156337333Y-78831523D01*
X156384952Y-78926761D01*
X156384952Y-79117238D01*
X156432571Y-79212476D01*
X156480190Y-79260095D01*
X156575429Y-79307714D01*
X156765905Y-79307714D01*
X156861143Y-79260095D01*
X156908762Y-79212476D01*
X156956381Y-79117238D01*
X156956381Y-78926761D01*
X156908762Y-78831523D01*
X156861143Y-78783904D01*
X156765905Y-78736285D01*
X156575429Y-78736285D01*
X156480190Y-78783904D01*
X156432571Y-78831523D01*
X156384952Y-78926761D01*
X165949334Y-86209143D02*
X165901715Y-86256762D01*
X165758858Y-86304381D01*
X165663620Y-86304381D01*
X165520762Y-86256762D01*
X165425524Y-86161524D01*
X165377905Y-86066286D01*
X165330286Y-85875810D01*
X165330286Y-85732952D01*
X165377905Y-85542476D01*
X165425524Y-85447238D01*
X165520762Y-85352000D01*
X165663620Y-85304381D01*
X165758858Y-85304381D01*
X165901715Y-85352000D01*
X165949334Y-85399619D01*
X166282667Y-85304381D02*
X166949334Y-85304381D01*
X166520762Y-86304381D01*
X141073143Y-109894666D02*
X141120762Y-109942285D01*
X141168381Y-110085142D01*
X141168381Y-110180380D01*
X141120762Y-110323238D01*
X141025524Y-110418476D01*
X140930286Y-110466095D01*
X140739810Y-110513714D01*
X140596952Y-110513714D01*
X140406476Y-110466095D01*
X140311238Y-110418476D01*
X140216000Y-110323238D01*
X140168381Y-110180380D01*
X140168381Y-110085142D01*
X140216000Y-109942285D01*
X140263619Y-109894666D01*
X141168381Y-108942285D02*
X141168381Y-109513714D01*
X141168381Y-109228000D02*
X140168381Y-109228000D01*
X140311238Y-109323238D01*
X140406476Y-109418476D01*
X140454095Y-109513714D01*
X148169334Y-133040381D02*
X147836000Y-132564190D01*
X147597905Y-133040381D02*
X147597905Y-132040381D01*
X147978858Y-132040381D01*
X148074096Y-132088000D01*
X148121715Y-132135619D01*
X148169334Y-132230857D01*
X148169334Y-132373714D01*
X148121715Y-132468952D01*
X148074096Y-132516571D01*
X147978858Y-132564190D01*
X147597905Y-132564190D01*
X148502667Y-132040381D02*
X149169334Y-132040381D01*
X148740762Y-133040381D01*
X153773143Y-107862666D02*
X153820762Y-107910285D01*
X153868381Y-108053142D01*
X153868381Y-108148380D01*
X153820762Y-108291238D01*
X153725524Y-108386476D01*
X153630286Y-108434095D01*
X153439810Y-108481714D01*
X153296952Y-108481714D01*
X153106476Y-108434095D01*
X153011238Y-108386476D01*
X152916000Y-108291238D01*
X152868381Y-108148380D01*
X152868381Y-108053142D01*
X152916000Y-107910285D01*
X152963619Y-107862666D01*
X152868381Y-107005523D02*
X152868381Y-107196000D01*
X152916000Y-107291238D01*
X152963619Y-107338857D01*
X153106476Y-107434095D01*
X153296952Y-107481714D01*
X153677905Y-107481714D01*
X153773143Y-107434095D01*
X153820762Y-107386476D01*
X153868381Y-107291238D01*
X153868381Y-107100761D01*
X153820762Y-107005523D01*
X153773143Y-106957904D01*
X153677905Y-106910285D01*
X153439810Y-106910285D01*
X153344571Y-106957904D01*
X153296952Y-107005523D01*
X153249333Y-107100761D01*
X153249333Y-107291238D01*
X153296952Y-107386476D01*
X153344571Y-107434095D01*
X153439810Y-107481714D01*
X150709334Y-120245143D02*
X150661715Y-120292762D01*
X150518858Y-120340381D01*
X150423620Y-120340381D01*
X150280762Y-120292762D01*
X150185524Y-120197524D01*
X150137905Y-120102286D01*
X150090286Y-119911810D01*
X150090286Y-119768952D01*
X150137905Y-119578476D01*
X150185524Y-119483238D01*
X150280762Y-119388000D01*
X150423620Y-119340381D01*
X150518858Y-119340381D01*
X150661715Y-119388000D01*
X150709334Y-119435619D01*
X151614096Y-119340381D02*
X151137905Y-119340381D01*
X151090286Y-119816571D01*
X151137905Y-119768952D01*
X151233143Y-119721333D01*
X151471239Y-119721333D01*
X151566477Y-119768952D01*
X151614096Y-119816571D01*
X151661715Y-119911810D01*
X151661715Y-120149905D01*
X151614096Y-120245143D01*
X151566477Y-120292762D01*
X151471239Y-120340381D01*
X151233143Y-120340381D01*
X151137905Y-120292762D01*
X151090286Y-120245143D01*
X133453143Y-109894666D02*
X133500762Y-109942285D01*
X133548381Y-110085142D01*
X133548381Y-110180380D01*
X133500762Y-110323238D01*
X133405524Y-110418476D01*
X133310286Y-110466095D01*
X133119810Y-110513714D01*
X132976952Y-110513714D01*
X132786476Y-110466095D01*
X132691238Y-110418476D01*
X132596000Y-110323238D01*
X132548381Y-110180380D01*
X132548381Y-110085142D01*
X132596000Y-109942285D01*
X132643619Y-109894666D01*
X132548381Y-109561333D02*
X132548381Y-108942285D01*
X132929333Y-109275619D01*
X132929333Y-109132761D01*
X132976952Y-109037523D01*
X133024571Y-108989904D01*
X133119810Y-108942285D01*
X133357905Y-108942285D01*
X133453143Y-108989904D01*
X133500762Y-109037523D01*
X133548381Y-109132761D01*
X133548381Y-109418476D01*
X133500762Y-109513714D01*
X133453143Y-109561333D01*
X146879334Y-100473143D02*
X146831715Y-100520762D01*
X146688858Y-100568381D01*
X146593620Y-100568381D01*
X146450762Y-100520762D01*
X146355524Y-100425524D01*
X146307905Y-100330286D01*
X146260286Y-100139810D01*
X146260286Y-99996952D01*
X146307905Y-99806476D01*
X146355524Y-99711238D01*
X146450762Y-99616000D01*
X146593620Y-99568381D01*
X146688858Y-99568381D01*
X146831715Y-99616000D01*
X146879334Y-99663619D01*
X147260286Y-99663619D02*
X147307905Y-99616000D01*
X147403143Y-99568381D01*
X147641239Y-99568381D01*
X147736477Y-99616000D01*
X147784096Y-99663619D01*
X147831715Y-99758857D01*
X147831715Y-99854095D01*
X147784096Y-99996952D01*
X147212667Y-100568381D01*
X147831715Y-100568381D01*
X135469334Y-120245143D02*
X135421715Y-120292762D01*
X135278858Y-120340381D01*
X135183620Y-120340381D01*
X135040762Y-120292762D01*
X134945524Y-120197524D01*
X134897905Y-120102286D01*
X134850286Y-119911810D01*
X134850286Y-119768952D01*
X134897905Y-119578476D01*
X134945524Y-119483238D01*
X135040762Y-119388000D01*
X135183620Y-119340381D01*
X135278858Y-119340381D01*
X135421715Y-119388000D01*
X135469334Y-119435619D01*
X136326477Y-119673714D02*
X136326477Y-120340381D01*
X136088381Y-119292762D02*
X135850286Y-120007048D01*
X136469334Y-120007048D01*
X138009334Y-129992381D02*
X137676000Y-129516190D01*
X137437905Y-129992381D02*
X137437905Y-128992381D01*
X137818858Y-128992381D01*
X137914096Y-129040000D01*
X137961715Y-129087619D01*
X138009334Y-129182857D01*
X138009334Y-129325714D01*
X137961715Y-129420952D01*
X137914096Y-129468571D01*
X137818858Y-129516190D01*
X137437905Y-129516190D01*
X138485524Y-129992381D02*
X138676000Y-129992381D01*
X138771239Y-129944762D01*
X138818858Y-129897143D01*
X138914096Y-129754286D01*
X138961715Y-129563810D01*
X138961715Y-129182857D01*
X138914096Y-129087619D01*
X138866477Y-129040000D01*
X138771239Y-128992381D01*
X138580762Y-128992381D01*
X138485524Y-129040000D01*
X138437905Y-129087619D01*
X138390286Y-129182857D01*
X138390286Y-129420952D01*
X138437905Y-129516190D01*
X138485524Y-129563810D01*
X138580762Y-129611429D01*
X138771239Y-129611429D01*
X138866477Y-129563810D01*
X138914096Y-129516190D01*
X138961715Y-129420952D01*
X146756381Y-112434666D02*
X146280190Y-112768000D01*
X146756381Y-113006095D02*
X145756381Y-113006095D01*
X145756381Y-112625142D01*
X145804000Y-112529904D01*
X145851619Y-112482285D01*
X145946857Y-112434666D01*
X146089714Y-112434666D01*
X146184952Y-112482285D01*
X146232571Y-112529904D01*
X146280190Y-112625142D01*
X146280190Y-113006095D01*
X146184952Y-111863238D02*
X146137333Y-111958476D01*
X146089714Y-112006095D01*
X145994476Y-112053714D01*
X145946857Y-112053714D01*
X145851619Y-112006095D01*
X145804000Y-111958476D01*
X145756381Y-111863238D01*
X145756381Y-111672761D01*
X145804000Y-111577523D01*
X145851619Y-111529904D01*
X145946857Y-111482285D01*
X145994476Y-111482285D01*
X146089714Y-111529904D01*
X146137333Y-111577523D01*
X146184952Y-111672761D01*
X146184952Y-111863238D01*
X146232571Y-111958476D01*
X146280190Y-112006095D01*
X146375429Y-112053714D01*
X146565905Y-112053714D01*
X146661143Y-112006095D01*
X146708762Y-111958476D01*
X146756381Y-111863238D01*
X146756381Y-111672761D01*
X146708762Y-111577523D01*
X146661143Y-111529904D01*
X146565905Y-111482285D01*
X146375429Y-111482285D01*
X146280190Y-111529904D01*
X146232571Y-111577523D01*
X146184952Y-111672761D01*
X138628381Y-112434666D02*
X138152190Y-112768000D01*
X138628381Y-113006095D02*
X137628381Y-113006095D01*
X137628381Y-112625142D01*
X137676000Y-112529904D01*
X137723619Y-112482285D01*
X137818857Y-112434666D01*
X137961714Y-112434666D01*
X138056952Y-112482285D01*
X138104571Y-112529904D01*
X138152190Y-112625142D01*
X138152190Y-113006095D01*
X137628381Y-111577523D02*
X137628381Y-111768000D01*
X137676000Y-111863238D01*
X137723619Y-111910857D01*
X137866476Y-112006095D01*
X138056952Y-112053714D01*
X138437905Y-112053714D01*
X138533143Y-112006095D01*
X138580762Y-111958476D01*
X138628381Y-111863238D01*
X138628381Y-111672761D01*
X138580762Y-111577523D01*
X138533143Y-111529904D01*
X138437905Y-111482285D01*
X138199810Y-111482285D01*
X138104571Y-111529904D01*
X138056952Y-111577523D01*
X138009333Y-111672761D01*
X138009333Y-111863238D01*
X138056952Y-111958476D01*
X138104571Y-112006095D01*
X138199810Y-112053714D01*
X143708381Y-95670666D02*
X143232190Y-96004000D01*
X143708381Y-96242095D02*
X142708381Y-96242095D01*
X142708381Y-95861142D01*
X142756000Y-95765904D01*
X142803619Y-95718285D01*
X142898857Y-95670666D01*
X143041714Y-95670666D01*
X143136952Y-95718285D01*
X143184571Y-95765904D01*
X143232190Y-95861142D01*
X143232190Y-96242095D01*
X142708381Y-94765904D02*
X142708381Y-95242095D01*
X143184571Y-95289714D01*
X143136952Y-95242095D01*
X143089333Y-95146857D01*
X143089333Y-94908761D01*
X143136952Y-94813523D01*
X143184571Y-94765904D01*
X143279810Y-94718285D01*
X143517905Y-94718285D01*
X143613143Y-94765904D01*
X143660762Y-94813523D01*
X143708381Y-94908761D01*
X143708381Y-95146857D01*
X143660762Y-95242095D01*
X143613143Y-95289714D01*
X143708381Y-112434666D02*
X143232190Y-112768000D01*
X143708381Y-113006095D02*
X142708381Y-113006095D01*
X142708381Y-112625142D01*
X142756000Y-112529904D01*
X142803619Y-112482285D01*
X142898857Y-112434666D01*
X143041714Y-112434666D01*
X143136952Y-112482285D01*
X143184571Y-112529904D01*
X143232190Y-112625142D01*
X143232190Y-113006095D01*
X143041714Y-111577523D02*
X143708381Y-111577523D01*
X142660762Y-111815619D02*
X143375048Y-112053714D01*
X143375048Y-111434666D01*
X150312381Y-110402666D02*
X149836190Y-110736000D01*
X150312381Y-110974095D02*
X149312381Y-110974095D01*
X149312381Y-110593142D01*
X149360000Y-110497904D01*
X149407619Y-110450285D01*
X149502857Y-110402666D01*
X149645714Y-110402666D01*
X149740952Y-110450285D01*
X149788571Y-110497904D01*
X149836190Y-110593142D01*
X149836190Y-110974095D01*
X149312381Y-110069333D02*
X149312381Y-109450285D01*
X149693333Y-109783619D01*
X149693333Y-109640761D01*
X149740952Y-109545523D01*
X149788571Y-109497904D01*
X149883810Y-109450285D01*
X150121905Y-109450285D01*
X150217143Y-109497904D01*
X150264762Y-109545523D01*
X150312381Y-109640761D01*
X150312381Y-109926476D01*
X150264762Y-110021714D01*
X150217143Y-110069333D01*
X136596381Y-95670666D02*
X136120190Y-96004000D01*
X136596381Y-96242095D02*
X135596381Y-96242095D01*
X135596381Y-95861142D01*
X135644000Y-95765904D01*
X135691619Y-95718285D01*
X135786857Y-95670666D01*
X135929714Y-95670666D01*
X136024952Y-95718285D01*
X136072571Y-95765904D01*
X136120190Y-95861142D01*
X136120190Y-96242095D01*
X135691619Y-95289714D02*
X135644000Y-95242095D01*
X135596381Y-95146857D01*
X135596381Y-94908761D01*
X135644000Y-94813523D01*
X135691619Y-94765904D01*
X135786857Y-94718285D01*
X135882095Y-94718285D01*
X136024952Y-94765904D01*
X136596381Y-95337333D01*
X136596381Y-94718285D01*
X140152381Y-95670666D02*
X139676190Y-96004000D01*
X140152381Y-96242095D02*
X139152381Y-96242095D01*
X139152381Y-95861142D01*
X139200000Y-95765904D01*
X139247619Y-95718285D01*
X139342857Y-95670666D01*
X139485714Y-95670666D01*
X139580952Y-95718285D01*
X139628571Y-95765904D01*
X139676190Y-95861142D01*
X139676190Y-96242095D01*
X140152381Y-94718285D02*
X140152381Y-95289714D01*
X140152381Y-95004000D02*
X139152381Y-95004000D01*
X139295238Y-95099238D01*
X139390476Y-95194476D01*
X139438095Y-95289714D01*
X156233905Y-100528381D02*
X156233905Y-99528381D01*
X156614858Y-99528381D01*
X156710096Y-99576000D01*
X156757715Y-99623619D01*
X156805334Y-99718857D01*
X156805334Y-99861714D01*
X156757715Y-99956952D01*
X156710096Y-100004571D01*
X156614858Y-100052190D01*
X156233905Y-100052190D01*
X157757715Y-100528381D02*
X157186286Y-100528381D01*
X157472000Y-100528381D02*
X157472000Y-99528381D01*
X157376762Y-99671238D01*
X157281524Y-99766476D01*
X157186286Y-99814095D01*
X116197143Y-84685143D02*
X116149524Y-84732762D01*
X116006667Y-84780381D01*
X115911429Y-84780381D01*
X115768571Y-84732762D01*
X115673333Y-84637524D01*
X115625714Y-84542286D01*
X115578095Y-84351810D01*
X115578095Y-84208952D01*
X115625714Y-84018476D01*
X115673333Y-83923238D01*
X115768571Y-83828000D01*
X115911429Y-83780381D01*
X116006667Y-83780381D01*
X116149524Y-83828000D01*
X116197143Y-83875619D01*
X117149524Y-84780381D02*
X116578095Y-84780381D01*
X116863809Y-84780381D02*
X116863809Y-83780381D01*
X116768571Y-83923238D01*
X116673333Y-84018476D01*
X116578095Y-84066095D01*
X118101905Y-84780381D02*
X117530476Y-84780381D01*
X117816190Y-84780381D02*
X117816190Y-83780381D01*
X117720952Y-83923238D01*
X117625714Y-84018476D01*
X117530476Y-84066095D01*
X126849143Y-91574857D02*
X126896762Y-91622476D01*
X126944381Y-91765333D01*
X126944381Y-91860571D01*
X126896762Y-92003429D01*
X126801524Y-92098667D01*
X126706286Y-92146286D01*
X126515810Y-92193905D01*
X126372952Y-92193905D01*
X126182476Y-92146286D01*
X126087238Y-92098667D01*
X125992000Y-92003429D01*
X125944381Y-91860571D01*
X125944381Y-91765333D01*
X125992000Y-91622476D01*
X126039619Y-91574857D01*
X126944381Y-90622476D02*
X126944381Y-91193905D01*
X126944381Y-90908191D02*
X125944381Y-90908191D01*
X126087238Y-91003429D01*
X126182476Y-91098667D01*
X126230095Y-91193905D01*
X126039619Y-90241524D02*
X125992000Y-90193905D01*
X125944381Y-90098667D01*
X125944381Y-89860571D01*
X125992000Y-89765333D01*
X126039619Y-89717714D01*
X126134857Y-89670095D01*
X126230095Y-89670095D01*
X126372952Y-89717714D01*
X126944381Y-90289143D01*
X126944381Y-89670095D01*
X165473143Y-93321143D02*
X165425524Y-93368762D01*
X165282667Y-93416381D01*
X165187429Y-93416381D01*
X165044571Y-93368762D01*
X164949333Y-93273524D01*
X164901714Y-93178286D01*
X164854095Y-92987810D01*
X164854095Y-92844952D01*
X164901714Y-92654476D01*
X164949333Y-92559238D01*
X165044571Y-92464000D01*
X165187429Y-92416381D01*
X165282667Y-92416381D01*
X165425524Y-92464000D01*
X165473143Y-92511619D01*
X166425524Y-93416381D02*
X165854095Y-93416381D01*
X166139809Y-93416381D02*
X166139809Y-92416381D01*
X166044571Y-92559238D01*
X165949333Y-92654476D01*
X165854095Y-92702095D01*
X166758857Y-92416381D02*
X167377905Y-92416381D01*
X167044571Y-92797333D01*
X167187429Y-92797333D01*
X167282667Y-92844952D01*
X167330286Y-92892571D01*
X167377905Y-92987810D01*
X167377905Y-93225905D01*
X167330286Y-93321143D01*
X167282667Y-93368762D01*
X167187429Y-93416381D01*
X166901714Y-93416381D01*
X166806476Y-93368762D01*
X166758857Y-93321143D01*
X107037143Y-79890857D02*
X107084762Y-79938476D01*
X107132381Y-80081333D01*
X107132381Y-80176571D01*
X107084762Y-80319429D01*
X106989524Y-80414667D01*
X106894286Y-80462286D01*
X106703810Y-80509905D01*
X106560952Y-80509905D01*
X106370476Y-80462286D01*
X106275238Y-80414667D01*
X106180000Y-80319429D01*
X106132381Y-80176571D01*
X106132381Y-80081333D01*
X106180000Y-79938476D01*
X106227619Y-79890857D01*
X107132381Y-78938476D02*
X107132381Y-79509905D01*
X107132381Y-79224191D02*
X106132381Y-79224191D01*
X106275238Y-79319429D01*
X106370476Y-79414667D01*
X106418095Y-79509905D01*
X106465714Y-78081333D02*
X107132381Y-78081333D01*
X106084762Y-78319429D02*
X106799048Y-78557524D01*
X106799048Y-77938476D01*
X176633143Y-76334857D02*
X176680762Y-76382476D01*
X176728381Y-76525333D01*
X176728381Y-76620571D01*
X176680762Y-76763429D01*
X176585524Y-76858667D01*
X176490286Y-76906286D01*
X176299810Y-76953905D01*
X176156952Y-76953905D01*
X175966476Y-76906286D01*
X175871238Y-76858667D01*
X175776000Y-76763429D01*
X175728381Y-76620571D01*
X175728381Y-76525333D01*
X175776000Y-76382476D01*
X175823619Y-76334857D01*
X176728381Y-75382476D02*
X176728381Y-75953905D01*
X176728381Y-75668191D02*
X175728381Y-75668191D01*
X175871238Y-75763429D01*
X175966476Y-75858667D01*
X176014095Y-75953905D01*
X175728381Y-74477714D02*
X175728381Y-74953905D01*
X176204571Y-75001524D01*
X176156952Y-74953905D01*
X176109333Y-74858667D01*
X176109333Y-74620571D01*
X176156952Y-74525333D01*
X176204571Y-74477714D01*
X176299810Y-74430095D01*
X176537905Y-74430095D01*
X176633143Y-74477714D01*
X176680762Y-74525333D01*
X176728381Y-74620571D01*
X176728381Y-74858667D01*
X176680762Y-74953905D01*
X176633143Y-75001524D01*
X162933143Y-73509143D02*
X162885524Y-73556762D01*
X162742667Y-73604381D01*
X162647429Y-73604381D01*
X162504571Y-73556762D01*
X162409333Y-73461524D01*
X162361714Y-73366286D01*
X162314095Y-73175810D01*
X162314095Y-73032952D01*
X162361714Y-72842476D01*
X162409333Y-72747238D01*
X162504571Y-72652000D01*
X162647429Y-72604381D01*
X162742667Y-72604381D01*
X162885524Y-72652000D01*
X162933143Y-72699619D01*
X163885524Y-73604381D02*
X163314095Y-73604381D01*
X163599809Y-73604381D02*
X163599809Y-72604381D01*
X163504571Y-72747238D01*
X163409333Y-72842476D01*
X163314095Y-72890095D01*
X164742667Y-72604381D02*
X164552190Y-72604381D01*
X164456952Y-72652000D01*
X164409333Y-72699619D01*
X164314095Y-72842476D01*
X164266476Y-73032952D01*
X164266476Y-73413905D01*
X164314095Y-73509143D01*
X164361714Y-73556762D01*
X164456952Y-73604381D01*
X164647429Y-73604381D01*
X164742667Y-73556762D01*
X164790286Y-73509143D01*
X164837905Y-73413905D01*
X164837905Y-73175810D01*
X164790286Y-73080571D01*
X164742667Y-73032952D01*
X164647429Y-72985333D01*
X164456952Y-72985333D01*
X164361714Y-73032952D01*
X164314095Y-73080571D01*
X164266476Y-73175810D01*
X107037143Y-95130857D02*
X107084762Y-95178476D01*
X107132381Y-95321333D01*
X107132381Y-95416571D01*
X107084762Y-95559429D01*
X106989524Y-95654667D01*
X106894286Y-95702286D01*
X106703810Y-95749905D01*
X106560952Y-95749905D01*
X106370476Y-95702286D01*
X106275238Y-95654667D01*
X106180000Y-95559429D01*
X106132381Y-95416571D01*
X106132381Y-95321333D01*
X106180000Y-95178476D01*
X106227619Y-95130857D01*
X107132381Y-94178476D02*
X107132381Y-94749905D01*
X107132381Y-94464191D02*
X106132381Y-94464191D01*
X106275238Y-94559429D01*
X106370476Y-94654667D01*
X106418095Y-94749905D01*
X106132381Y-93845143D02*
X106132381Y-93178476D01*
X107132381Y-93607048D01*
X129897143Y-63126857D02*
X129944762Y-63174476D01*
X129992381Y-63317333D01*
X129992381Y-63412571D01*
X129944762Y-63555429D01*
X129849524Y-63650667D01*
X129754286Y-63698286D01*
X129563810Y-63745905D01*
X129420952Y-63745905D01*
X129230476Y-63698286D01*
X129135238Y-63650667D01*
X129040000Y-63555429D01*
X128992381Y-63412571D01*
X128992381Y-63317333D01*
X129040000Y-63174476D01*
X129087619Y-63126857D01*
X129992381Y-62174476D02*
X129992381Y-62745905D01*
X129992381Y-62460191D02*
X128992381Y-62460191D01*
X129135238Y-62555429D01*
X129230476Y-62650667D01*
X129278095Y-62745905D01*
X129420952Y-61603048D02*
X129373333Y-61698286D01*
X129325714Y-61745905D01*
X129230476Y-61793524D01*
X129182857Y-61793524D01*
X129087619Y-61745905D01*
X129040000Y-61698286D01*
X128992381Y-61603048D01*
X128992381Y-61412571D01*
X129040000Y-61317333D01*
X129087619Y-61269714D01*
X129182857Y-61222095D01*
X129230476Y-61222095D01*
X129325714Y-61269714D01*
X129373333Y-61317333D01*
X129420952Y-61412571D01*
X129420952Y-61603048D01*
X129468571Y-61698286D01*
X129516190Y-61745905D01*
X129611429Y-61793524D01*
X129801905Y-61793524D01*
X129897143Y-61745905D01*
X129944762Y-61698286D01*
X129992381Y-61603048D01*
X129992381Y-61412571D01*
X129944762Y-61317333D01*
X129897143Y-61269714D01*
X129801905Y-61222095D01*
X129611429Y-61222095D01*
X129516190Y-61269714D01*
X129468571Y-61317333D01*
X129420952Y-61412571D01*
X142597143Y-61094857D02*
X142644762Y-61142476D01*
X142692381Y-61285333D01*
X142692381Y-61380571D01*
X142644762Y-61523429D01*
X142549524Y-61618667D01*
X142454286Y-61666286D01*
X142263810Y-61713905D01*
X142120952Y-61713905D01*
X141930476Y-61666286D01*
X141835238Y-61618667D01*
X141740000Y-61523429D01*
X141692381Y-61380571D01*
X141692381Y-61285333D01*
X141740000Y-61142476D01*
X141787619Y-61094857D01*
X142692381Y-60142476D02*
X142692381Y-60713905D01*
X142692381Y-60428191D02*
X141692381Y-60428191D01*
X141835238Y-60523429D01*
X141930476Y-60618667D01*
X141978095Y-60713905D01*
X142692381Y-59666286D02*
X142692381Y-59475810D01*
X142644762Y-59380571D01*
X142597143Y-59332952D01*
X142454286Y-59237714D01*
X142263810Y-59190095D01*
X141882857Y-59190095D01*
X141787619Y-59237714D01*
X141740000Y-59285333D01*
X141692381Y-59380571D01*
X141692381Y-59571048D01*
X141740000Y-59666286D01*
X141787619Y-59713905D01*
X141882857Y-59761524D01*
X142120952Y-59761524D01*
X142216190Y-59713905D01*
X142263810Y-59666286D01*
X142311429Y-59571048D01*
X142311429Y-59380571D01*
X142263810Y-59285333D01*
X142216190Y-59237714D01*
X142120952Y-59190095D01*
X135267143Y-70421143D02*
X135219524Y-70468762D01*
X135076667Y-70516381D01*
X134981429Y-70516381D01*
X134838571Y-70468762D01*
X134743333Y-70373524D01*
X134695714Y-70278286D01*
X134648095Y-70087810D01*
X134648095Y-69944952D01*
X134695714Y-69754476D01*
X134743333Y-69659238D01*
X134838571Y-69564000D01*
X134981429Y-69516381D01*
X135076667Y-69516381D01*
X135219524Y-69564000D01*
X135267143Y-69611619D01*
X135648095Y-69611619D02*
X135695714Y-69564000D01*
X135790952Y-69516381D01*
X136029048Y-69516381D01*
X136124286Y-69564000D01*
X136171905Y-69611619D01*
X136219524Y-69706857D01*
X136219524Y-69802095D01*
X136171905Y-69944952D01*
X135600476Y-70516381D01*
X136219524Y-70516381D01*
X136838571Y-69516381D02*
X136933810Y-69516381D01*
X137029048Y-69564000D01*
X137076667Y-69611619D01*
X137124286Y-69706857D01*
X137171905Y-69897333D01*
X137171905Y-70135429D01*
X137124286Y-70325905D01*
X137076667Y-70421143D01*
X137029048Y-70468762D01*
X136933810Y-70516381D01*
X136838571Y-70516381D01*
X136743333Y-70468762D01*
X136695714Y-70421143D01*
X136648095Y-70325905D01*
X136600476Y-70135429D01*
X136600476Y-69897333D01*
X136648095Y-69706857D01*
X136695714Y-69611619D01*
X136743333Y-69564000D01*
X136838571Y-69516381D01*
X149709143Y-61094857D02*
X149756762Y-61142476D01*
X149804381Y-61285333D01*
X149804381Y-61380571D01*
X149756762Y-61523429D01*
X149661524Y-61618667D01*
X149566286Y-61666286D01*
X149375810Y-61713905D01*
X149232952Y-61713905D01*
X149042476Y-61666286D01*
X148947238Y-61618667D01*
X148852000Y-61523429D01*
X148804381Y-61380571D01*
X148804381Y-61285333D01*
X148852000Y-61142476D01*
X148899619Y-61094857D01*
X148899619Y-60713905D02*
X148852000Y-60666286D01*
X148804381Y-60571048D01*
X148804381Y-60332952D01*
X148852000Y-60237714D01*
X148899619Y-60190095D01*
X148994857Y-60142476D01*
X149090095Y-60142476D01*
X149232952Y-60190095D01*
X149804381Y-60761524D01*
X149804381Y-60142476D01*
X149804381Y-59190095D02*
X149804381Y-59761524D01*
X149804381Y-59475810D02*
X148804381Y-59475810D01*
X148947238Y-59571048D01*
X149042476Y-59666286D01*
X149090095Y-59761524D01*
X146677143Y-50649143D02*
X146629524Y-50696762D01*
X146486667Y-50744381D01*
X146391429Y-50744381D01*
X146248571Y-50696762D01*
X146153333Y-50601524D01*
X146105714Y-50506286D01*
X146058095Y-50315810D01*
X146058095Y-50172952D01*
X146105714Y-49982476D01*
X146153333Y-49887238D01*
X146248571Y-49792000D01*
X146391429Y-49744381D01*
X146486667Y-49744381D01*
X146629524Y-49792000D01*
X146677143Y-49839619D01*
X147058095Y-49839619D02*
X147105714Y-49792000D01*
X147200952Y-49744381D01*
X147439048Y-49744381D01*
X147534286Y-49792000D01*
X147581905Y-49839619D01*
X147629524Y-49934857D01*
X147629524Y-50030095D01*
X147581905Y-50172952D01*
X147010476Y-50744381D01*
X147629524Y-50744381D01*
X148010476Y-49839619D02*
X148058095Y-49792000D01*
X148153333Y-49744381D01*
X148391429Y-49744381D01*
X148486667Y-49792000D01*
X148534286Y-49839619D01*
X148581905Y-49934857D01*
X148581905Y-50030095D01*
X148534286Y-50172952D01*
X147962857Y-50744381D01*
X148581905Y-50744381D01*
X131437143Y-50649143D02*
X131389524Y-50696762D01*
X131246667Y-50744381D01*
X131151429Y-50744381D01*
X131008571Y-50696762D01*
X130913333Y-50601524D01*
X130865714Y-50506286D01*
X130818095Y-50315810D01*
X130818095Y-50172952D01*
X130865714Y-49982476D01*
X130913333Y-49887238D01*
X131008571Y-49792000D01*
X131151429Y-49744381D01*
X131246667Y-49744381D01*
X131389524Y-49792000D01*
X131437143Y-49839619D01*
X131818095Y-49839619D02*
X131865714Y-49792000D01*
X131960952Y-49744381D01*
X132199048Y-49744381D01*
X132294286Y-49792000D01*
X132341905Y-49839619D01*
X132389524Y-49934857D01*
X132389524Y-50030095D01*
X132341905Y-50172952D01*
X131770476Y-50744381D01*
X132389524Y-50744381D01*
X132722857Y-49744381D02*
X133341905Y-49744381D01*
X133008571Y-50125333D01*
X133151429Y-50125333D01*
X133246667Y-50172952D01*
X133294286Y-50220571D01*
X133341905Y-50315810D01*
X133341905Y-50553905D01*
X133294286Y-50649143D01*
X133246667Y-50696762D01*
X133151429Y-50744381D01*
X132865714Y-50744381D01*
X132770476Y-50696762D01*
X132722857Y-50649143D01*
X118229143Y-97385143D02*
X118181524Y-97432762D01*
X118038667Y-97480381D01*
X117943429Y-97480381D01*
X117800571Y-97432762D01*
X117705333Y-97337524D01*
X117657714Y-97242286D01*
X117610095Y-97051810D01*
X117610095Y-96908952D01*
X117657714Y-96718476D01*
X117705333Y-96623238D01*
X117800571Y-96528000D01*
X117943429Y-96480381D01*
X118038667Y-96480381D01*
X118181524Y-96528000D01*
X118229143Y-96575619D01*
X118610095Y-96575619D02*
X118657714Y-96528000D01*
X118752952Y-96480381D01*
X118991048Y-96480381D01*
X119086286Y-96528000D01*
X119133905Y-96575619D01*
X119181524Y-96670857D01*
X119181524Y-96766095D01*
X119133905Y-96908952D01*
X118562476Y-97480381D01*
X119181524Y-97480381D01*
X120038667Y-96813714D02*
X120038667Y-97480381D01*
X119800571Y-96432762D02*
X119562476Y-97147048D01*
X120181524Y-97147048D01*
X125245905Y-71064381D02*
X125245905Y-70064381D01*
X125626858Y-70064381D01*
X125722096Y-70112000D01*
X125769715Y-70159619D01*
X125817334Y-70254857D01*
X125817334Y-70397714D01*
X125769715Y-70492952D01*
X125722096Y-70540571D01*
X125626858Y-70588190D01*
X125245905Y-70588190D01*
X126674477Y-70397714D02*
X126674477Y-71064381D01*
X126436381Y-70016762D02*
X126198286Y-70731048D01*
X126817334Y-70731048D01*
X124229905Y-102052381D02*
X124229905Y-101052381D01*
X124610858Y-101052381D01*
X124706096Y-101100000D01*
X124753715Y-101147619D01*
X124801334Y-101242857D01*
X124801334Y-101385714D01*
X124753715Y-101480952D01*
X124706096Y-101528571D01*
X124610858Y-101576190D01*
X124229905Y-101576190D01*
X125134667Y-101052381D02*
X125801334Y-101052381D01*
X125372762Y-102052381D01*
X155725905Y-125420381D02*
X155725905Y-124420381D01*
X156106858Y-124420381D01*
X156202096Y-124468000D01*
X156249715Y-124515619D01*
X156297334Y-124610857D01*
X156297334Y-124753714D01*
X156249715Y-124848952D01*
X156202096Y-124896571D01*
X156106858Y-124944190D01*
X155725905Y-124944190D01*
X156868762Y-124848952D02*
X156773524Y-124801333D01*
X156725905Y-124753714D01*
X156678286Y-124658476D01*
X156678286Y-124610857D01*
X156725905Y-124515619D01*
X156773524Y-124468000D01*
X156868762Y-124420381D01*
X157059239Y-124420381D01*
X157154477Y-124468000D01*
X157202096Y-124515619D01*
X157249715Y-124610857D01*
X157249715Y-124658476D01*
X157202096Y-124753714D01*
X157154477Y-124801333D01*
X157059239Y-124848952D01*
X156868762Y-124848952D01*
X156773524Y-124896571D01*
X156725905Y-124944190D01*
X156678286Y-125039429D01*
X156678286Y-125229905D01*
X156725905Y-125325143D01*
X156773524Y-125372762D01*
X156868762Y-125420381D01*
X157059239Y-125420381D01*
X157154477Y-125372762D01*
X157202096Y-125325143D01*
X157249715Y-125229905D01*
X157249715Y-125039429D01*
X157202096Y-124944190D01*
X157154477Y-124896571D01*
X157059239Y-124848952D01*
X155757714Y-71064381D02*
X155757714Y-70064381D01*
X156138667Y-70064381D01*
X156233905Y-70112000D01*
X156281524Y-70159619D01*
X156329143Y-70254857D01*
X156329143Y-70397714D01*
X156281524Y-70492952D01*
X156233905Y-70540571D01*
X156138667Y-70588190D01*
X155757714Y-70588190D01*
X157281524Y-71064381D02*
X156710095Y-71064381D01*
X156995809Y-71064381D02*
X156995809Y-70064381D01*
X156900571Y-70207238D01*
X156805333Y-70302476D01*
X156710095Y-70350095D01*
X158233905Y-71064381D02*
X157662476Y-71064381D01*
X157948190Y-71064381D02*
X157948190Y-70064381D01*
X157852952Y-70207238D01*
X157757714Y-70302476D01*
X157662476Y-70350095D01*
X123753714Y-45156381D02*
X123753714Y-44156381D01*
X124134667Y-44156381D01*
X124229905Y-44204000D01*
X124277524Y-44251619D01*
X124325143Y-44346857D01*
X124325143Y-44489714D01*
X124277524Y-44584952D01*
X124229905Y-44632571D01*
X124134667Y-44680190D01*
X123753714Y-44680190D01*
X125277524Y-45156381D02*
X124706095Y-45156381D01*
X124991809Y-45156381D02*
X124991809Y-44156381D01*
X124896571Y-44299238D01*
X124801333Y-44394476D01*
X124706095Y-44442095D01*
X125658476Y-44251619D02*
X125706095Y-44204000D01*
X125801333Y-44156381D01*
X126039429Y-44156381D01*
X126134667Y-44204000D01*
X126182286Y-44251619D01*
X126229905Y-44346857D01*
X126229905Y-44442095D01*
X126182286Y-44584952D01*
X125610857Y-45156381D01*
X126229905Y-45156381D01*
X151249143Y-87320381D02*
X150915809Y-86844190D01*
X150677714Y-87320381D02*
X150677714Y-86320381D01*
X151058667Y-86320381D01*
X151153905Y-86368000D01*
X151201524Y-86415619D01*
X151249143Y-86510857D01*
X151249143Y-86653714D01*
X151201524Y-86748952D01*
X151153905Y-86796571D01*
X151058667Y-86844190D01*
X150677714Y-86844190D01*
X152201524Y-87320381D02*
X151630095Y-87320381D01*
X151915809Y-87320381D02*
X151915809Y-86320381D01*
X151820571Y-86463238D01*
X151725333Y-86558476D01*
X151630095Y-86606095D01*
X152820571Y-86320381D02*
X152915810Y-86320381D01*
X153011048Y-86368000D01*
X153058667Y-86415619D01*
X153106286Y-86510857D01*
X153153905Y-86701333D01*
X153153905Y-86939429D01*
X153106286Y-87129905D01*
X153058667Y-87225143D01*
X153011048Y-87272762D01*
X152915810Y-87320381D01*
X152820571Y-87320381D01*
X152725333Y-87272762D01*
X152677714Y-87225143D01*
X152630095Y-87129905D01*
X152582476Y-86939429D01*
X152582476Y-86701333D01*
X152630095Y-86510857D01*
X152677714Y-86415619D01*
X152725333Y-86368000D01*
X152820571Y-86320381D01*
X151249143Y-90876381D02*
X150915809Y-90400190D01*
X150677714Y-90876381D02*
X150677714Y-89876381D01*
X151058667Y-89876381D01*
X151153905Y-89924000D01*
X151201524Y-89971619D01*
X151249143Y-90066857D01*
X151249143Y-90209714D01*
X151201524Y-90304952D01*
X151153905Y-90352571D01*
X151058667Y-90400190D01*
X150677714Y-90400190D01*
X152201524Y-90876381D02*
X151630095Y-90876381D01*
X151915809Y-90876381D02*
X151915809Y-89876381D01*
X151820571Y-90019238D01*
X151725333Y-90114476D01*
X151630095Y-90162095D01*
X153153905Y-90876381D02*
X152582476Y-90876381D01*
X152868190Y-90876381D02*
X152868190Y-89876381D01*
X152772952Y-90019238D01*
X152677714Y-90114476D01*
X152582476Y-90162095D01*
X130421143Y-83764381D02*
X130087809Y-83288190D01*
X129849714Y-83764381D02*
X129849714Y-82764381D01*
X130230667Y-82764381D01*
X130325905Y-82812000D01*
X130373524Y-82859619D01*
X130421143Y-82954857D01*
X130421143Y-83097714D01*
X130373524Y-83192952D01*
X130325905Y-83240571D01*
X130230667Y-83288190D01*
X129849714Y-83288190D01*
X131373524Y-83764381D02*
X130802095Y-83764381D01*
X131087809Y-83764381D02*
X131087809Y-82764381D01*
X130992571Y-82907238D01*
X130897333Y-83002476D01*
X130802095Y-83050095D01*
X131754476Y-82859619D02*
X131802095Y-82812000D01*
X131897333Y-82764381D01*
X132135429Y-82764381D01*
X132230667Y-82812000D01*
X132278286Y-82859619D01*
X132325905Y-82954857D01*
X132325905Y-83050095D01*
X132278286Y-83192952D01*
X131706857Y-83764381D01*
X132325905Y-83764381D01*
X165473143Y-76652381D02*
X165139809Y-76176190D01*
X164901714Y-76652381D02*
X164901714Y-75652381D01*
X165282667Y-75652381D01*
X165377905Y-75700000D01*
X165425524Y-75747619D01*
X165473143Y-75842857D01*
X165473143Y-75985714D01*
X165425524Y-76080952D01*
X165377905Y-76128571D01*
X165282667Y-76176190D01*
X164901714Y-76176190D01*
X166425524Y-76652381D02*
X165854095Y-76652381D01*
X166139809Y-76652381D02*
X166139809Y-75652381D01*
X166044571Y-75795238D01*
X165949333Y-75890476D01*
X165854095Y-75938095D01*
X166758857Y-75652381D02*
X167377905Y-75652381D01*
X167044571Y-76033333D01*
X167187429Y-76033333D01*
X167282667Y-76080952D01*
X167330286Y-76128571D01*
X167377905Y-76223810D01*
X167377905Y-76461905D01*
X167330286Y-76557143D01*
X167282667Y-76604762D01*
X167187429Y-76652381D01*
X166901714Y-76652381D01*
X166806476Y-76604762D01*
X166758857Y-76557143D01*
X168013143Y-83764381D02*
X167679809Y-83288190D01*
X167441714Y-83764381D02*
X167441714Y-82764381D01*
X167822667Y-82764381D01*
X167917905Y-82812000D01*
X167965524Y-82859619D01*
X168013143Y-82954857D01*
X168013143Y-83097714D01*
X167965524Y-83192952D01*
X167917905Y-83240571D01*
X167822667Y-83288190D01*
X167441714Y-83288190D01*
X168965524Y-83764381D02*
X168394095Y-83764381D01*
X168679809Y-83764381D02*
X168679809Y-82764381D01*
X168584571Y-82907238D01*
X168489333Y-83002476D01*
X168394095Y-83050095D01*
X169822667Y-83097714D02*
X169822667Y-83764381D01*
X169584571Y-82716762D02*
X169346476Y-83431048D01*
X169965524Y-83431048D01*
X151249143Y-83764381D02*
X150915809Y-83288190D01*
X150677714Y-83764381D02*
X150677714Y-82764381D01*
X151058667Y-82764381D01*
X151153905Y-82812000D01*
X151201524Y-82859619D01*
X151249143Y-82954857D01*
X151249143Y-83097714D01*
X151201524Y-83192952D01*
X151153905Y-83240571D01*
X151058667Y-83288190D01*
X150677714Y-83288190D01*
X152201524Y-83764381D02*
X151630095Y-83764381D01*
X151915809Y-83764381D02*
X151915809Y-82764381D01*
X151820571Y-82907238D01*
X151725333Y-83002476D01*
X151630095Y-83050095D01*
X153106286Y-82764381D02*
X152630095Y-82764381D01*
X152582476Y-83240571D01*
X152630095Y-83192952D01*
X152725333Y-83145333D01*
X152963429Y-83145333D01*
X153058667Y-83192952D01*
X153106286Y-83240571D01*
X153153905Y-83335810D01*
X153153905Y-83573905D01*
X153106286Y-83669143D01*
X153058667Y-83716762D01*
X152963429Y-83764381D01*
X152725333Y-83764381D01*
X152630095Y-83716762D01*
X152582476Y-83669143D01*
X130421143Y-80208381D02*
X130087809Y-79732190D01*
X129849714Y-80208381D02*
X129849714Y-79208381D01*
X130230667Y-79208381D01*
X130325905Y-79256000D01*
X130373524Y-79303619D01*
X130421143Y-79398857D01*
X130421143Y-79541714D01*
X130373524Y-79636952D01*
X130325905Y-79684571D01*
X130230667Y-79732190D01*
X129849714Y-79732190D01*
X131373524Y-80208381D02*
X130802095Y-80208381D01*
X131087809Y-80208381D02*
X131087809Y-79208381D01*
X130992571Y-79351238D01*
X130897333Y-79446476D01*
X130802095Y-79494095D01*
X132230667Y-79208381D02*
X132040190Y-79208381D01*
X131944952Y-79256000D01*
X131897333Y-79303619D01*
X131802095Y-79446476D01*
X131754476Y-79636952D01*
X131754476Y-80017905D01*
X131802095Y-80113143D01*
X131849714Y-80160762D01*
X131944952Y-80208381D01*
X132135429Y-80208381D01*
X132230667Y-80160762D01*
X132278286Y-80113143D01*
X132325905Y-80017905D01*
X132325905Y-79779810D01*
X132278286Y-79684571D01*
X132230667Y-79636952D01*
X132135429Y-79589333D01*
X131944952Y-79589333D01*
X131849714Y-79636952D01*
X131802095Y-79684571D01*
X131754476Y-79779810D01*
X115689143Y-93924381D02*
X115355809Y-93448190D01*
X115117714Y-93924381D02*
X115117714Y-92924381D01*
X115498667Y-92924381D01*
X115593905Y-92972000D01*
X115641524Y-93019619D01*
X115689143Y-93114857D01*
X115689143Y-93257714D01*
X115641524Y-93352952D01*
X115593905Y-93400571D01*
X115498667Y-93448190D01*
X115117714Y-93448190D01*
X116641524Y-93924381D02*
X116070095Y-93924381D01*
X116355809Y-93924381D02*
X116355809Y-92924381D01*
X116260571Y-93067238D01*
X116165333Y-93162476D01*
X116070095Y-93210095D01*
X116974857Y-92924381D02*
X117641524Y-92924381D01*
X117212952Y-93924381D01*
X113657143Y-87320381D02*
X113323809Y-86844190D01*
X113085714Y-87320381D02*
X113085714Y-86320381D01*
X113466667Y-86320381D01*
X113561905Y-86368000D01*
X113609524Y-86415619D01*
X113657143Y-86510857D01*
X113657143Y-86653714D01*
X113609524Y-86748952D01*
X113561905Y-86796571D01*
X113466667Y-86844190D01*
X113085714Y-86844190D01*
X114609524Y-87320381D02*
X114038095Y-87320381D01*
X114323809Y-87320381D02*
X114323809Y-86320381D01*
X114228571Y-86463238D01*
X114133333Y-86558476D01*
X114038095Y-86606095D01*
X115180952Y-86748952D02*
X115085714Y-86701333D01*
X115038095Y-86653714D01*
X114990476Y-86558476D01*
X114990476Y-86510857D01*
X115038095Y-86415619D01*
X115085714Y-86368000D01*
X115180952Y-86320381D01*
X115371429Y-86320381D01*
X115466667Y-86368000D01*
X115514286Y-86415619D01*
X115561905Y-86510857D01*
X115561905Y-86558476D01*
X115514286Y-86653714D01*
X115466667Y-86701333D01*
X115371429Y-86748952D01*
X115180952Y-86748952D01*
X115085714Y-86796571D01*
X115038095Y-86844190D01*
X114990476Y-86939429D01*
X114990476Y-87129905D01*
X115038095Y-87225143D01*
X115085714Y-87272762D01*
X115180952Y-87320381D01*
X115371429Y-87320381D01*
X115466667Y-87272762D01*
X115514286Y-87225143D01*
X115561905Y-87129905D01*
X115561905Y-86939429D01*
X115514286Y-86844190D01*
X115466667Y-86796571D01*
X115371429Y-86748952D01*
X130421143Y-87320381D02*
X130087809Y-86844190D01*
X129849714Y-87320381D02*
X129849714Y-86320381D01*
X130230667Y-86320381D01*
X130325905Y-86368000D01*
X130373524Y-86415619D01*
X130421143Y-86510857D01*
X130421143Y-86653714D01*
X130373524Y-86748952D01*
X130325905Y-86796571D01*
X130230667Y-86844190D01*
X129849714Y-86844190D01*
X131373524Y-87320381D02*
X130802095Y-87320381D01*
X131087809Y-87320381D02*
X131087809Y-86320381D01*
X130992571Y-86463238D01*
X130897333Y-86558476D01*
X130802095Y-86606095D01*
X131849714Y-87320381D02*
X132040190Y-87320381D01*
X132135429Y-87272762D01*
X132183048Y-87225143D01*
X132278286Y-87082286D01*
X132325905Y-86891810D01*
X132325905Y-86510857D01*
X132278286Y-86415619D01*
X132230667Y-86368000D01*
X132135429Y-86320381D01*
X131944952Y-86320381D01*
X131849714Y-86368000D01*
X131802095Y-86415619D01*
X131754476Y-86510857D01*
X131754476Y-86748952D01*
X131802095Y-86844190D01*
X131849714Y-86891810D01*
X131944952Y-86939429D01*
X132135429Y-86939429D01*
X132230667Y-86891810D01*
X132278286Y-86844190D01*
X132325905Y-86748952D01*
X168013143Y-88844381D02*
X167679809Y-88368190D01*
X167441714Y-88844381D02*
X167441714Y-87844381D01*
X167822667Y-87844381D01*
X167917905Y-87892000D01*
X167965524Y-87939619D01*
X168013143Y-88034857D01*
X168013143Y-88177714D01*
X167965524Y-88272952D01*
X167917905Y-88320571D01*
X167822667Y-88368190D01*
X167441714Y-88368190D01*
X168394095Y-87939619D02*
X168441714Y-87892000D01*
X168536952Y-87844381D01*
X168775048Y-87844381D01*
X168870286Y-87892000D01*
X168917905Y-87939619D01*
X168965524Y-88034857D01*
X168965524Y-88130095D01*
X168917905Y-88272952D01*
X168346476Y-88844381D01*
X168965524Y-88844381D01*
X169584571Y-87844381D02*
X169679810Y-87844381D01*
X169775048Y-87892000D01*
X169822667Y-87939619D01*
X169870286Y-88034857D01*
X169917905Y-88225333D01*
X169917905Y-88463429D01*
X169870286Y-88653905D01*
X169822667Y-88749143D01*
X169775048Y-88796762D01*
X169679810Y-88844381D01*
X169584571Y-88844381D01*
X169489333Y-88796762D01*
X169441714Y-88749143D01*
X169394095Y-88653905D01*
X169346476Y-88463429D01*
X169346476Y-88225333D01*
X169394095Y-88034857D01*
X169441714Y-87939619D01*
X169489333Y-87892000D01*
X169584571Y-87844381D01*
X185872381Y-78874857D02*
X185396190Y-79208191D01*
X185872381Y-79446286D02*
X184872381Y-79446286D01*
X184872381Y-79065333D01*
X184920000Y-78970095D01*
X184967619Y-78922476D01*
X185062857Y-78874857D01*
X185205714Y-78874857D01*
X185300952Y-78922476D01*
X185348571Y-78970095D01*
X185396190Y-79065333D01*
X185396190Y-79446286D01*
X184967619Y-78493905D02*
X184920000Y-78446286D01*
X184872381Y-78351048D01*
X184872381Y-78112952D01*
X184920000Y-78017714D01*
X184967619Y-77970095D01*
X185062857Y-77922476D01*
X185158095Y-77922476D01*
X185300952Y-77970095D01*
X185872381Y-78541524D01*
X185872381Y-77922476D01*
X185872381Y-76970095D02*
X185872381Y-77541524D01*
X185872381Y-77255810D02*
X184872381Y-77255810D01*
X185015238Y-77351048D01*
X185110476Y-77446286D01*
X185158095Y-77541524D01*
X168013143Y-80716381D02*
X167679809Y-80240190D01*
X167441714Y-80716381D02*
X167441714Y-79716381D01*
X167822667Y-79716381D01*
X167917905Y-79764000D01*
X167965524Y-79811619D01*
X168013143Y-79906857D01*
X168013143Y-80049714D01*
X167965524Y-80144952D01*
X167917905Y-80192571D01*
X167822667Y-80240190D01*
X167441714Y-80240190D01*
X168394095Y-79811619D02*
X168441714Y-79764000D01*
X168536952Y-79716381D01*
X168775048Y-79716381D01*
X168870286Y-79764000D01*
X168917905Y-79811619D01*
X168965524Y-79906857D01*
X168965524Y-80002095D01*
X168917905Y-80144952D01*
X168346476Y-80716381D01*
X168965524Y-80716381D01*
X169346476Y-79811619D02*
X169394095Y-79764000D01*
X169489333Y-79716381D01*
X169727429Y-79716381D01*
X169822667Y-79764000D01*
X169870286Y-79811619D01*
X169917905Y-79906857D01*
X169917905Y-80002095D01*
X169870286Y-80144952D01*
X169298857Y-80716381D01*
X169917905Y-80716381D01*
X185872381Y-92590857D02*
X185396190Y-92924191D01*
X185872381Y-93162286D02*
X184872381Y-93162286D01*
X184872381Y-92781333D01*
X184920000Y-92686095D01*
X184967619Y-92638476D01*
X185062857Y-92590857D01*
X185205714Y-92590857D01*
X185300952Y-92638476D01*
X185348571Y-92686095D01*
X185396190Y-92781333D01*
X185396190Y-93162286D01*
X184967619Y-92209905D02*
X184920000Y-92162286D01*
X184872381Y-92067048D01*
X184872381Y-91828952D01*
X184920000Y-91733714D01*
X184967619Y-91686095D01*
X185062857Y-91638476D01*
X185158095Y-91638476D01*
X185300952Y-91686095D01*
X185872381Y-92257524D01*
X185872381Y-91638476D01*
X184872381Y-91305143D02*
X184872381Y-90686095D01*
X185253333Y-91019429D01*
X185253333Y-90876571D01*
X185300952Y-90781333D01*
X185348571Y-90733714D01*
X185443810Y-90686095D01*
X185681905Y-90686095D01*
X185777143Y-90733714D01*
X185824762Y-90781333D01*
X185872381Y-90876571D01*
X185872381Y-91162286D01*
X185824762Y-91257524D01*
X185777143Y-91305143D01*
X113657143Y-82240381D02*
X113323809Y-81764190D01*
X113085714Y-82240381D02*
X113085714Y-81240381D01*
X113466667Y-81240381D01*
X113561905Y-81288000D01*
X113609524Y-81335619D01*
X113657143Y-81430857D01*
X113657143Y-81573714D01*
X113609524Y-81668952D01*
X113561905Y-81716571D01*
X113466667Y-81764190D01*
X113085714Y-81764190D01*
X114038095Y-81335619D02*
X114085714Y-81288000D01*
X114180952Y-81240381D01*
X114419048Y-81240381D01*
X114514286Y-81288000D01*
X114561905Y-81335619D01*
X114609524Y-81430857D01*
X114609524Y-81526095D01*
X114561905Y-81668952D01*
X113990476Y-82240381D01*
X114609524Y-82240381D01*
X115466667Y-81573714D02*
X115466667Y-82240381D01*
X115228571Y-81192762D02*
X114990476Y-81907048D01*
X115609524Y-81907048D01*
X94432381Y-82430857D02*
X93956190Y-82764191D01*
X94432381Y-83002286D02*
X93432381Y-83002286D01*
X93432381Y-82621333D01*
X93480000Y-82526095D01*
X93527619Y-82478476D01*
X93622857Y-82430857D01*
X93765714Y-82430857D01*
X93860952Y-82478476D01*
X93908571Y-82526095D01*
X93956190Y-82621333D01*
X93956190Y-83002286D01*
X93527619Y-82049905D02*
X93480000Y-82002286D01*
X93432381Y-81907048D01*
X93432381Y-81668952D01*
X93480000Y-81573714D01*
X93527619Y-81526095D01*
X93622857Y-81478476D01*
X93718095Y-81478476D01*
X93860952Y-81526095D01*
X94432381Y-82097524D01*
X94432381Y-81478476D01*
X93432381Y-80573714D02*
X93432381Y-81049905D01*
X93908571Y-81097524D01*
X93860952Y-81049905D01*
X93813333Y-80954667D01*
X93813333Y-80716571D01*
X93860952Y-80621333D01*
X93908571Y-80573714D01*
X94003810Y-80526095D01*
X94241905Y-80526095D01*
X94337143Y-80573714D01*
X94384762Y-80621333D01*
X94432381Y-80716571D01*
X94432381Y-80954667D01*
X94384762Y-81049905D01*
X94337143Y-81097524D01*
X113657143Y-90368381D02*
X113323809Y-89892190D01*
X113085714Y-90368381D02*
X113085714Y-89368381D01*
X113466667Y-89368381D01*
X113561905Y-89416000D01*
X113609524Y-89463619D01*
X113657143Y-89558857D01*
X113657143Y-89701714D01*
X113609524Y-89796952D01*
X113561905Y-89844571D01*
X113466667Y-89892190D01*
X113085714Y-89892190D01*
X114038095Y-89463619D02*
X114085714Y-89416000D01*
X114180952Y-89368381D01*
X114419048Y-89368381D01*
X114514286Y-89416000D01*
X114561905Y-89463619D01*
X114609524Y-89558857D01*
X114609524Y-89654095D01*
X114561905Y-89796952D01*
X113990476Y-90368381D01*
X114609524Y-90368381D01*
X115466667Y-89368381D02*
X115276190Y-89368381D01*
X115180952Y-89416000D01*
X115133333Y-89463619D01*
X115038095Y-89606476D01*
X114990476Y-89796952D01*
X114990476Y-90177905D01*
X115038095Y-90273143D01*
X115085714Y-90320762D01*
X115180952Y-90368381D01*
X115371429Y-90368381D01*
X115466667Y-90320762D01*
X115514286Y-90273143D01*
X115561905Y-90177905D01*
X115561905Y-89939810D01*
X115514286Y-89844571D01*
X115466667Y-89796952D01*
X115371429Y-89749333D01*
X115180952Y-89749333D01*
X115085714Y-89796952D01*
X115038095Y-89844571D01*
X114990476Y-89939810D01*
X97480381Y-92590857D02*
X97004190Y-92924191D01*
X97480381Y-93162286D02*
X96480381Y-93162286D01*
X96480381Y-92781333D01*
X96528000Y-92686095D01*
X96575619Y-92638476D01*
X96670857Y-92590857D01*
X96813714Y-92590857D01*
X96908952Y-92638476D01*
X96956571Y-92686095D01*
X97004190Y-92781333D01*
X97004190Y-93162286D01*
X96575619Y-92209905D02*
X96528000Y-92162286D01*
X96480381Y-92067048D01*
X96480381Y-91828952D01*
X96528000Y-91733714D01*
X96575619Y-91686095D01*
X96670857Y-91638476D01*
X96766095Y-91638476D01*
X96908952Y-91686095D01*
X97480381Y-92257524D01*
X97480381Y-91638476D01*
X96480381Y-91305143D02*
X96480381Y-90638476D01*
X97480381Y-91067048D01*
X143708381Y-75318857D02*
X143232190Y-75652191D01*
X143708381Y-75890286D02*
X142708381Y-75890286D01*
X142708381Y-75509333D01*
X142756000Y-75414095D01*
X142803619Y-75366476D01*
X142898857Y-75318857D01*
X143041714Y-75318857D01*
X143136952Y-75366476D01*
X143184571Y-75414095D01*
X143232190Y-75509333D01*
X143232190Y-75890286D01*
X142803619Y-74937905D02*
X142756000Y-74890286D01*
X142708381Y-74795048D01*
X142708381Y-74556952D01*
X142756000Y-74461714D01*
X142803619Y-74414095D01*
X142898857Y-74366476D01*
X142994095Y-74366476D01*
X143136952Y-74414095D01*
X143708381Y-74985524D01*
X143708381Y-74366476D01*
X143136952Y-73795048D02*
X143089333Y-73890286D01*
X143041714Y-73937905D01*
X142946476Y-73985524D01*
X142898857Y-73985524D01*
X142803619Y-73937905D01*
X142756000Y-73890286D01*
X142708381Y-73795048D01*
X142708381Y-73604571D01*
X142756000Y-73509333D01*
X142803619Y-73461714D01*
X142898857Y-73414095D01*
X142946476Y-73414095D01*
X143041714Y-73461714D01*
X143089333Y-73509333D01*
X143136952Y-73604571D01*
X143136952Y-73795048D01*
X143184571Y-73890286D01*
X143232190Y-73937905D01*
X143327429Y-73985524D01*
X143517905Y-73985524D01*
X143613143Y-73937905D01*
X143660762Y-73890286D01*
X143708381Y-73795048D01*
X143708381Y-73604571D01*
X143660762Y-73509333D01*
X143613143Y-73461714D01*
X143517905Y-73414095D01*
X143327429Y-73414095D01*
X143232190Y-73461714D01*
X143184571Y-73509333D01*
X143136952Y-73604571D01*
X147264381Y-75318857D02*
X146788190Y-75652191D01*
X147264381Y-75890286D02*
X146264381Y-75890286D01*
X146264381Y-75509333D01*
X146312000Y-75414095D01*
X146359619Y-75366476D01*
X146454857Y-75318857D01*
X146597714Y-75318857D01*
X146692952Y-75366476D01*
X146740571Y-75414095D01*
X146788190Y-75509333D01*
X146788190Y-75890286D01*
X146359619Y-74937905D02*
X146312000Y-74890286D01*
X146264381Y-74795048D01*
X146264381Y-74556952D01*
X146312000Y-74461714D01*
X146359619Y-74414095D01*
X146454857Y-74366476D01*
X146550095Y-74366476D01*
X146692952Y-74414095D01*
X147264381Y-74985524D01*
X147264381Y-74366476D01*
X147264381Y-73890286D02*
X147264381Y-73699810D01*
X147216762Y-73604571D01*
X147169143Y-73556952D01*
X147026286Y-73461714D01*
X146835810Y-73414095D01*
X146454857Y-73414095D01*
X146359619Y-73461714D01*
X146312000Y-73509333D01*
X146264381Y-73604571D01*
X146264381Y-73795048D01*
X146312000Y-73890286D01*
X146359619Y-73937905D01*
X146454857Y-73985524D01*
X146692952Y-73985524D01*
X146788190Y-73937905D01*
X146835810Y-73890286D01*
X146883429Y-73795048D01*
X146883429Y-73604571D01*
X146835810Y-73509333D01*
X146788190Y-73461714D01*
X146692952Y-73414095D01*
X133548381Y-60586857D02*
X133072190Y-60920191D01*
X133548381Y-61158286D02*
X132548381Y-61158286D01*
X132548381Y-60777333D01*
X132596000Y-60682095D01*
X132643619Y-60634476D01*
X132738857Y-60586857D01*
X132881714Y-60586857D01*
X132976952Y-60634476D01*
X133024571Y-60682095D01*
X133072190Y-60777333D01*
X133072190Y-61158286D01*
X132548381Y-60253524D02*
X132548381Y-59634476D01*
X132929333Y-59967810D01*
X132929333Y-59824952D01*
X132976952Y-59729714D01*
X133024571Y-59682095D01*
X133119810Y-59634476D01*
X133357905Y-59634476D01*
X133453143Y-59682095D01*
X133500762Y-59729714D01*
X133548381Y-59824952D01*
X133548381Y-60110667D01*
X133500762Y-60205905D01*
X133453143Y-60253524D01*
X132548381Y-59015429D02*
X132548381Y-58920190D01*
X132596000Y-58824952D01*
X132643619Y-58777333D01*
X132738857Y-58729714D01*
X132929333Y-58682095D01*
X133167429Y-58682095D01*
X133357905Y-58729714D01*
X133453143Y-58777333D01*
X133500762Y-58824952D01*
X133548381Y-58920190D01*
X133548381Y-59015429D01*
X133500762Y-59110667D01*
X133453143Y-59158286D01*
X133357905Y-59205905D01*
X133167429Y-59253524D01*
X132929333Y-59253524D01*
X132738857Y-59205905D01*
X132643619Y-59158286D01*
X132596000Y-59110667D01*
X132548381Y-59015429D01*
X140152381Y-58554857D02*
X139676190Y-58888191D01*
X140152381Y-59126286D02*
X139152381Y-59126286D01*
X139152381Y-58745333D01*
X139200000Y-58650095D01*
X139247619Y-58602476D01*
X139342857Y-58554857D01*
X139485714Y-58554857D01*
X139580952Y-58602476D01*
X139628571Y-58650095D01*
X139676190Y-58745333D01*
X139676190Y-59126286D01*
X139152381Y-58221524D02*
X139152381Y-57602476D01*
X139533333Y-57935810D01*
X139533333Y-57792952D01*
X139580952Y-57697714D01*
X139628571Y-57650095D01*
X139723810Y-57602476D01*
X139961905Y-57602476D01*
X140057143Y-57650095D01*
X140104762Y-57697714D01*
X140152381Y-57792952D01*
X140152381Y-58078667D01*
X140104762Y-58173905D01*
X140057143Y-58221524D01*
X140152381Y-56650095D02*
X140152381Y-57221524D01*
X140152381Y-56935810D02*
X139152381Y-56935810D01*
X139295238Y-57031048D01*
X139390476Y-57126286D01*
X139438095Y-57221524D01*
X140152381Y-75318857D02*
X139676190Y-75652191D01*
X140152381Y-75890286D02*
X139152381Y-75890286D01*
X139152381Y-75509333D01*
X139200000Y-75414095D01*
X139247619Y-75366476D01*
X139342857Y-75318857D01*
X139485714Y-75318857D01*
X139580952Y-75366476D01*
X139628571Y-75414095D01*
X139676190Y-75509333D01*
X139676190Y-75890286D01*
X139152381Y-74985524D02*
X139152381Y-74366476D01*
X139533333Y-74699810D01*
X139533333Y-74556952D01*
X139580952Y-74461714D01*
X139628571Y-74414095D01*
X139723810Y-74366476D01*
X139961905Y-74366476D01*
X140057143Y-74414095D01*
X140104762Y-74461714D01*
X140152381Y-74556952D01*
X140152381Y-74842667D01*
X140104762Y-74937905D01*
X140057143Y-74985524D01*
X139247619Y-73985524D02*
X139200000Y-73937905D01*
X139152381Y-73842667D01*
X139152381Y-73604571D01*
X139200000Y-73509333D01*
X139247619Y-73461714D01*
X139342857Y-73414095D01*
X139438095Y-73414095D01*
X139580952Y-73461714D01*
X140152381Y-74033143D01*
X140152381Y-73414095D01*
X145232381Y-58554857D02*
X144756190Y-58888191D01*
X145232381Y-59126286D02*
X144232381Y-59126286D01*
X144232381Y-58745333D01*
X144280000Y-58650095D01*
X144327619Y-58602476D01*
X144422857Y-58554857D01*
X144565714Y-58554857D01*
X144660952Y-58602476D01*
X144708571Y-58650095D01*
X144756190Y-58745333D01*
X144756190Y-59126286D01*
X144232381Y-58221524D02*
X144232381Y-57602476D01*
X144613333Y-57935810D01*
X144613333Y-57792952D01*
X144660952Y-57697714D01*
X144708571Y-57650095D01*
X144803810Y-57602476D01*
X145041905Y-57602476D01*
X145137143Y-57650095D01*
X145184762Y-57697714D01*
X145232381Y-57792952D01*
X145232381Y-58078667D01*
X145184762Y-58173905D01*
X145137143Y-58221524D01*
X144232381Y-57269143D02*
X144232381Y-56650095D01*
X144613333Y-56983429D01*
X144613333Y-56840571D01*
X144660952Y-56745333D01*
X144708571Y-56697714D01*
X144803810Y-56650095D01*
X145041905Y-56650095D01*
X145137143Y-56697714D01*
X145184762Y-56745333D01*
X145232381Y-56840571D01*
X145232381Y-57126286D01*
X145184762Y-57221524D01*
X145137143Y-57269143D01*
X144137143Y-41600381D02*
X143803809Y-41124190D01*
X143565714Y-41600381D02*
X143565714Y-40600381D01*
X143946667Y-40600381D01*
X144041905Y-40648000D01*
X144089524Y-40695619D01*
X144137143Y-40790857D01*
X144137143Y-40933714D01*
X144089524Y-41028952D01*
X144041905Y-41076571D01*
X143946667Y-41124190D01*
X143565714Y-41124190D01*
X144470476Y-40600381D02*
X145089524Y-40600381D01*
X144756190Y-40981333D01*
X144899048Y-40981333D01*
X144994286Y-41028952D01*
X145041905Y-41076571D01*
X145089524Y-41171810D01*
X145089524Y-41409905D01*
X145041905Y-41505143D01*
X144994286Y-41552762D01*
X144899048Y-41600381D01*
X144613333Y-41600381D01*
X144518095Y-41552762D01*
X144470476Y-41505143D01*
X145946667Y-40933714D02*
X145946667Y-41600381D01*
X145708571Y-40552762D02*
X145470476Y-41267048D01*
X146089524Y-41267048D01*
X137104381Y-58554857D02*
X136628190Y-58888191D01*
X137104381Y-59126286D02*
X136104381Y-59126286D01*
X136104381Y-58745333D01*
X136152000Y-58650095D01*
X136199619Y-58602476D01*
X136294857Y-58554857D01*
X136437714Y-58554857D01*
X136532952Y-58602476D01*
X136580571Y-58650095D01*
X136628190Y-58745333D01*
X136628190Y-59126286D01*
X136104381Y-58221524D02*
X136104381Y-57602476D01*
X136485333Y-57935810D01*
X136485333Y-57792952D01*
X136532952Y-57697714D01*
X136580571Y-57650095D01*
X136675810Y-57602476D01*
X136913905Y-57602476D01*
X137009143Y-57650095D01*
X137056762Y-57697714D01*
X137104381Y-57792952D01*
X137104381Y-58078667D01*
X137056762Y-58173905D01*
X137009143Y-58221524D01*
X136104381Y-56697714D02*
X136104381Y-57173905D01*
X136580571Y-57221524D01*
X136532952Y-57173905D01*
X136485333Y-57078667D01*
X136485333Y-56840571D01*
X136532952Y-56745333D01*
X136580571Y-56697714D01*
X136675810Y-56650095D01*
X136913905Y-56650095D01*
X137009143Y-56697714D01*
X137056762Y-56745333D01*
X137104381Y-56840571D01*
X137104381Y-57078667D01*
X137056762Y-57173905D01*
X137009143Y-57221524D01*
X133977143Y-38552381D02*
X133643809Y-38076190D01*
X133405714Y-38552381D02*
X133405714Y-37552381D01*
X133786667Y-37552381D01*
X133881905Y-37600000D01*
X133929524Y-37647619D01*
X133977143Y-37742857D01*
X133977143Y-37885714D01*
X133929524Y-37980952D01*
X133881905Y-38028571D01*
X133786667Y-38076190D01*
X133405714Y-38076190D01*
X134310476Y-37552381D02*
X134929524Y-37552381D01*
X134596190Y-37933333D01*
X134739048Y-37933333D01*
X134834286Y-37980952D01*
X134881905Y-38028571D01*
X134929524Y-38123810D01*
X134929524Y-38361905D01*
X134881905Y-38457143D01*
X134834286Y-38504762D01*
X134739048Y-38552381D01*
X134453333Y-38552381D01*
X134358095Y-38504762D01*
X134310476Y-38457143D01*
X135786667Y-37552381D02*
X135596190Y-37552381D01*
X135500952Y-37600000D01*
X135453333Y-37647619D01*
X135358095Y-37790476D01*
X135310476Y-37980952D01*
X135310476Y-38361905D01*
X135358095Y-38457143D01*
X135405714Y-38504762D01*
X135500952Y-38552381D01*
X135691429Y-38552381D01*
X135786667Y-38504762D01*
X135834286Y-38457143D01*
X135881905Y-38361905D01*
X135881905Y-38123810D01*
X135834286Y-38028571D01*
X135786667Y-37980952D01*
X135691429Y-37933333D01*
X135500952Y-37933333D01*
X135405714Y-37980952D01*
X135358095Y-38028571D01*
X135310476Y-38123810D01*
M02*
