G04 #@! TF.FileFunction,Soldermask,Top*
%FSLAX46Y46*%
G04 Gerber Fmt 4.6, Leading zero omitted, Abs format (unit mm)*
G04 Created by KiCad (PCBNEW 4.0.1-stable) date 24/02/2016 16:46:15*
%MOMM*%
G01*
G04 APERTURE LIST*
%ADD10C,0.100000*%
%ADD11C,3.900120*%
%ADD12C,2.400000*%
%ADD13C,4.400000*%
%ADD14C,2.398980*%
%ADD15R,2.635200X2.635200*%
G04 APERTURE END LIST*
D10*
D11*
X82842797Y-89466553D02*
X83904263Y-88405087D01*
X75631651Y-82255407D02*
X76693117Y-81193941D01*
D12*
X82784425Y-82315575D03*
X84551739Y-84082890D03*
D11*
X103543797Y-110040553D02*
X104605263Y-108979087D01*
X96332651Y-102829407D02*
X97394117Y-101767941D01*
D12*
X103485425Y-102889575D03*
X105252739Y-104656890D03*
D11*
X145453797Y-151950553D02*
X146515263Y-150889087D01*
X138242651Y-144739407D02*
X139304117Y-143677941D01*
D12*
X145395425Y-144799575D03*
X147162739Y-146566890D03*
D11*
X124498797Y-130995553D02*
X125560263Y-129934087D01*
X117287651Y-123784407D02*
X118349117Y-122722941D01*
D12*
X124440425Y-123844575D03*
X126207739Y-125611890D03*
D13*
X151384000Y-79756000D03*
X131572000Y-90424000D03*
X141732000Y-84836000D03*
D12*
X176276000Y-88392000D03*
X176276000Y-93392000D03*
X114300000Y-77216000D03*
X119300000Y-77216000D03*
X159004000Y-80772000D03*
X159004000Y-78272000D03*
X168656000Y-85852000D03*
X163656000Y-85852000D03*
X140716000Y-112268000D03*
X140716000Y-107268000D03*
D14*
X143256000Y-132588000D03*
X153416000Y-132588000D03*
D12*
X153416000Y-110236000D03*
X153416000Y-105236000D03*
X153416000Y-119888000D03*
X148416000Y-119888000D03*
X133096000Y-112268000D03*
X133096000Y-107268000D03*
X145796000Y-102616000D03*
X148296000Y-102616000D03*
X138176000Y-119888000D03*
X133176000Y-119888000D03*
D14*
X133096000Y-129540000D03*
X143256000Y-129540000D03*
X146304000Y-107188000D03*
X146304000Y-117348000D03*
X138176000Y-107188000D03*
X138176000Y-117348000D03*
X143256000Y-100584000D03*
X143256000Y-90424000D03*
X143256000Y-117348000D03*
X143256000Y-107188000D03*
X149860000Y-105156000D03*
X149860000Y-115316000D03*
X136144000Y-100584000D03*
X136144000Y-90424000D03*
X139700000Y-100584000D03*
X139700000Y-90424000D03*
D15*
X153416000Y-101092000D03*
D12*
X114300000Y-84328000D03*
X119300000Y-84328000D03*
X123952000Y-89408000D03*
X123952000Y-91908000D03*
X168656000Y-92964000D03*
X163656000Y-92964000D03*
X106680000Y-81788000D03*
X106680000Y-76788000D03*
X176276000Y-73152000D03*
X176276000Y-78152000D03*
X166116000Y-73152000D03*
X161116000Y-73152000D03*
X106680000Y-97028000D03*
X106680000Y-92028000D03*
X129540000Y-59944000D03*
X129540000Y-64944000D03*
X142240000Y-57912000D03*
X142240000Y-62912000D03*
X137160000Y-67564000D03*
X134660000Y-67564000D03*
X149352000Y-57912000D03*
X149352000Y-62912000D03*
X144780000Y-50292000D03*
X149780000Y-50292000D03*
X129540000Y-50292000D03*
X134540000Y-50292000D03*
X116332000Y-97028000D03*
X121332000Y-97028000D03*
D15*
X129540000Y-69088000D03*
X125476000Y-97028000D03*
X153416000Y-124968000D03*
X156972000Y-73152000D03*
X129540000Y-45720000D03*
D14*
X156972000Y-86868000D03*
X146812000Y-86868000D03*
X156972000Y-90424000D03*
X146812000Y-90424000D03*
X125984000Y-83312000D03*
X136144000Y-83312000D03*
X161036000Y-76200000D03*
X171196000Y-76200000D03*
X173736000Y-83312000D03*
X163576000Y-83312000D03*
X156972000Y-83312000D03*
X146812000Y-83312000D03*
X125984000Y-79756000D03*
X136144000Y-79756000D03*
X121412000Y-93472000D03*
X111252000Y-93472000D03*
X109220000Y-86868000D03*
X119380000Y-86868000D03*
X125984000Y-86868000D03*
X136144000Y-86868000D03*
X163576000Y-88392000D03*
X173736000Y-88392000D03*
X185420000Y-83312000D03*
X185420000Y-73152000D03*
X163576000Y-80264000D03*
X173736000Y-80264000D03*
X185420000Y-97028000D03*
X185420000Y-86868000D03*
X119380000Y-81788000D03*
X109220000Y-81788000D03*
D12*
X93980000Y-86868000D03*
X93980000Y-76708000D03*
D14*
X119380000Y-89916000D03*
X109220000Y-89916000D03*
X97028000Y-97028000D03*
X97028000Y-86868000D03*
X143256000Y-69596000D03*
X143256000Y-79756000D03*
X146812000Y-69596000D03*
X146812000Y-79756000D03*
X133096000Y-65024000D03*
X133096000Y-54864000D03*
X139700000Y-52832000D03*
X139700000Y-62992000D03*
X139700000Y-69596000D03*
X139700000Y-79756000D03*
X144780000Y-62992000D03*
X144780000Y-52832000D03*
X139700000Y-41148000D03*
X149860000Y-41148000D03*
X136652000Y-62992000D03*
X136652000Y-52832000D03*
X129540000Y-38100000D03*
X139700000Y-38100000D03*
M02*
