G04 #@! TF.FileFunction,Copper,L2,Bot,Signal*
%FSLAX46Y46*%
G04 Gerber Fmt 4.6, Leading zero omitted, Abs format (unit mm)*
G04 Created by KiCad (PCBNEW 4.0.1-stable) date 24/02/2016 16:46:15*
%MOMM*%
G01*
G04 APERTURE LIST*
%ADD10C,0.100000*%
%ADD11C,0.300000*%
%ADD12C,3.500120*%
%ADD13C,2.000000*%
%ADD14C,4.000000*%
%ADD15C,1.998980*%
%ADD16R,1.500000X2.500000*%
%ADD17R,5.000000X2.500000*%
%ADD18R,2.235200X2.235200*%
%ADD19R,2.500000X1.500000*%
%ADD20R,2.500000X5.000000*%
%ADD21C,1.000000*%
%ADD22C,1.200000*%
G04 APERTURE END LIST*
D10*
D11*
X172188610Y-63420255D02*
X173249271Y-62359595D01*
X172845209Y-62763656D02*
X172794702Y-62612133D01*
X172592672Y-62410102D01*
X172441149Y-62359595D01*
X172340133Y-62359595D01*
X172188610Y-62410102D01*
X171885564Y-62713148D01*
X171835057Y-62864671D01*
X171835057Y-62965687D01*
X171885565Y-63117209D01*
X172087595Y-63319240D01*
X172239118Y-63369747D01*
X171077442Y-62309087D02*
X171228965Y-62359595D01*
X171329981Y-62359595D01*
X171481504Y-62309087D01*
X171784549Y-62006042D01*
X171835056Y-61854519D01*
X171835057Y-61753504D01*
X171784549Y-61601980D01*
X171633027Y-61450457D01*
X171481504Y-61399950D01*
X171380488Y-61399950D01*
X171228965Y-61450457D01*
X170925919Y-61753503D01*
X170875412Y-61905026D01*
X170875412Y-62006042D01*
X170925920Y-62157564D01*
X171077442Y-62309087D01*
X171127950Y-60945381D02*
X170723889Y-60541320D01*
X171329981Y-60440304D02*
X170420843Y-61349442D01*
X170269320Y-61399950D01*
X170117797Y-61349442D01*
X170016782Y-61248426D01*
X170521859Y-60339289D02*
X170117797Y-59935228D01*
X170723889Y-59834213D02*
X169814751Y-60743351D01*
X169663229Y-60793859D01*
X169511706Y-60743350D01*
X169410690Y-60642335D01*
X168905614Y-60137258D02*
X169057137Y-60187767D01*
X169158152Y-60187766D01*
X169309675Y-60137259D01*
X169612721Y-59834214D01*
X169663228Y-59682690D01*
X169663229Y-59581675D01*
X169612721Y-59430152D01*
X169461198Y-59278629D01*
X169309675Y-59228122D01*
X169208659Y-59228122D01*
X169057136Y-59278629D01*
X168754091Y-59581675D01*
X168703584Y-59733198D01*
X168703584Y-59834214D01*
X168754092Y-59985736D01*
X168905614Y-60137258D01*
X168097492Y-59329136D02*
X168804599Y-58622030D01*
X168703583Y-58723045D02*
X168703584Y-58622030D01*
X168653076Y-58470507D01*
X168501553Y-58318984D01*
X168350030Y-58268477D01*
X168198507Y-58318984D01*
X167642924Y-58874568D01*
X168198507Y-58318984D02*
X168249014Y-58167461D01*
X168198507Y-58015938D01*
X168046985Y-57864416D01*
X167895461Y-57813908D01*
X167743939Y-57864416D01*
X167188355Y-58419999D01*
X165976172Y-57106802D02*
X165824649Y-57056294D01*
X165622618Y-56854263D01*
X165572110Y-56702740D01*
X165622618Y-56551218D01*
X165673126Y-56500710D01*
X165824649Y-56450202D01*
X165976172Y-56500709D01*
X166127695Y-56652232D01*
X166279217Y-56702740D01*
X166430740Y-56652233D01*
X166481248Y-56601725D01*
X166531755Y-56450202D01*
X166481248Y-56298679D01*
X166329725Y-56147156D01*
X166178202Y-56096649D01*
X165016527Y-56248171D02*
X165723633Y-55541064D01*
X166077187Y-55187511D02*
X166077187Y-55288527D01*
X165976171Y-55288527D01*
X165976172Y-55187512D01*
X166077187Y-55187511D01*
X165976171Y-55288527D01*
X164056882Y-55288526D02*
X165117542Y-54227866D01*
X164107389Y-55238019D02*
X164157897Y-55389541D01*
X164359927Y-55591571D01*
X164511450Y-55642080D01*
X164612465Y-55642079D01*
X164763988Y-55591572D01*
X165067034Y-55288527D01*
X165117541Y-55137004D01*
X165117542Y-55035988D01*
X165067034Y-54884465D01*
X164865004Y-54682434D01*
X164713481Y-54631927D01*
X163198252Y-54328882D02*
X163248760Y-54480404D01*
X163450790Y-54682434D01*
X163602312Y-54732942D01*
X163753836Y-54682435D01*
X164157897Y-54278374D01*
X164208404Y-54126851D01*
X164157897Y-53975328D01*
X163955867Y-53773297D01*
X163804343Y-53722790D01*
X163652820Y-53773297D01*
X163551805Y-53874312D01*
X163955867Y-54480404D01*
D12*
X82842797Y-89466553D02*
X83904263Y-88405087D01*
X75631651Y-82255407D02*
X76693117Y-81193941D01*
D13*
X82784425Y-82315575D03*
X84551739Y-84082890D03*
D12*
X103543797Y-110040553D02*
X104605263Y-108979087D01*
X96332651Y-102829407D02*
X97394117Y-101767941D01*
D13*
X103485425Y-102889575D03*
X105252739Y-104656890D03*
D12*
X145453797Y-151950553D02*
X146515263Y-150889087D01*
X138242651Y-144739407D02*
X139304117Y-143677941D01*
D13*
X145395425Y-144799575D03*
X147162739Y-146566890D03*
D12*
X124498797Y-130995553D02*
X125560263Y-129934087D01*
X117287651Y-123784407D02*
X118349117Y-122722941D01*
D13*
X124440425Y-123844575D03*
X126207739Y-125611890D03*
D14*
X151384000Y-79756000D03*
X131572000Y-90424000D03*
X141732000Y-84836000D03*
D13*
X176276000Y-88392000D03*
X176276000Y-93392000D03*
X114300000Y-77216000D03*
X119300000Y-77216000D03*
X159004000Y-80772000D03*
X159004000Y-78272000D03*
X168656000Y-85852000D03*
X163656000Y-85852000D03*
X140716000Y-112268000D03*
X140716000Y-107268000D03*
D15*
X143256000Y-132588000D03*
X153416000Y-132588000D03*
D13*
X153416000Y-110236000D03*
X153416000Y-105236000D03*
X153416000Y-119888000D03*
X148416000Y-119888000D03*
X133096000Y-112268000D03*
X133096000Y-107268000D03*
X145796000Y-102616000D03*
X148296000Y-102616000D03*
X138176000Y-119888000D03*
X133176000Y-119888000D03*
D16*
X140782000Y-102638860D03*
X142682000Y-102638860D03*
X141732000Y-105641140D03*
D15*
X133096000Y-129540000D03*
X143256000Y-129540000D03*
X146304000Y-107188000D03*
X146304000Y-117348000D03*
X138176000Y-107188000D03*
X138176000Y-117348000D03*
X143256000Y-100584000D03*
X143256000Y-90424000D03*
X143256000Y-117348000D03*
X143256000Y-107188000D03*
X149860000Y-105156000D03*
X149860000Y-115316000D03*
D17*
X143256000Y-126238000D03*
D16*
X143256000Y-119634000D03*
X145542000Y-119634000D03*
X140970000Y-119634000D03*
D15*
X136144000Y-100584000D03*
X136144000Y-90424000D03*
X139700000Y-100584000D03*
X139700000Y-90424000D03*
D18*
X153416000Y-101092000D03*
D13*
X114300000Y-84328000D03*
X119300000Y-84328000D03*
X123952000Y-89408000D03*
X123952000Y-91908000D03*
X168656000Y-92964000D03*
X163656000Y-92964000D03*
X106680000Y-81788000D03*
X106680000Y-76788000D03*
X176276000Y-73152000D03*
X176276000Y-78152000D03*
X166116000Y-73152000D03*
X161116000Y-73152000D03*
X106680000Y-97028000D03*
X106680000Y-92028000D03*
X129540000Y-59944000D03*
X129540000Y-64944000D03*
X142240000Y-57912000D03*
X142240000Y-62912000D03*
X137160000Y-67564000D03*
X134660000Y-67564000D03*
X149352000Y-57912000D03*
X149352000Y-62912000D03*
X144780000Y-50292000D03*
X149780000Y-50292000D03*
X129540000Y-50292000D03*
X134540000Y-50292000D03*
X116332000Y-97028000D03*
X121332000Y-97028000D03*
D18*
X129540000Y-69088000D03*
X125476000Y-97028000D03*
X153416000Y-124968000D03*
X156972000Y-73152000D03*
X129540000Y-45720000D03*
D19*
X159026860Y-85786000D03*
X159026860Y-83886000D03*
X162029140Y-84836000D03*
X123929140Y-84394000D03*
X123929140Y-86294000D03*
X120926860Y-85344000D03*
D20*
X182626000Y-83312000D03*
D19*
X176022000Y-83312000D03*
X176022000Y-81026000D03*
X176022000Y-85598000D03*
D20*
X100330000Y-86868000D03*
D19*
X106934000Y-86868000D03*
X106934000Y-89154000D03*
X106934000Y-84582000D03*
D16*
X142174000Y-67541140D03*
X140274000Y-67541140D03*
X141224000Y-64538860D03*
D17*
X139700000Y-43942000D03*
D16*
X139700000Y-50546000D03*
X137414000Y-50546000D03*
X141986000Y-50546000D03*
D15*
X156972000Y-86868000D03*
X146812000Y-86868000D03*
X156972000Y-90424000D03*
X146812000Y-90424000D03*
X125984000Y-83312000D03*
X136144000Y-83312000D03*
X161036000Y-76200000D03*
X171196000Y-76200000D03*
X173736000Y-83312000D03*
X163576000Y-83312000D03*
X156972000Y-83312000D03*
X146812000Y-83312000D03*
X125984000Y-79756000D03*
X136144000Y-79756000D03*
X121412000Y-93472000D03*
X111252000Y-93472000D03*
X109220000Y-86868000D03*
X119380000Y-86868000D03*
X125984000Y-86868000D03*
X136144000Y-86868000D03*
X163576000Y-88392000D03*
X173736000Y-88392000D03*
X185420000Y-83312000D03*
X185420000Y-73152000D03*
X163576000Y-80264000D03*
X173736000Y-80264000D03*
X185420000Y-97028000D03*
X185420000Y-86868000D03*
X119380000Y-81788000D03*
X109220000Y-81788000D03*
D13*
X93980000Y-86868000D03*
X93980000Y-76708000D03*
D15*
X119380000Y-89916000D03*
X109220000Y-89916000D03*
X97028000Y-97028000D03*
X97028000Y-86868000D03*
X143256000Y-69596000D03*
X143256000Y-79756000D03*
X146812000Y-69596000D03*
X146812000Y-79756000D03*
X133096000Y-65024000D03*
X133096000Y-54864000D03*
X139700000Y-52832000D03*
X139700000Y-62992000D03*
X139700000Y-69596000D03*
X139700000Y-79756000D03*
X144780000Y-62992000D03*
X144780000Y-52832000D03*
X139700000Y-41148000D03*
X149860000Y-41148000D03*
X136652000Y-62992000D03*
X136652000Y-52832000D03*
X129540000Y-38100000D03*
X139700000Y-38100000D03*
D21*
X146812000Y-86868000D02*
X143764000Y-86868000D01*
X143764000Y-86868000D02*
X141732000Y-84836000D01*
X143256000Y-79756000D02*
X143256000Y-83312000D01*
X143256000Y-83312000D02*
X141732000Y-84836000D01*
X136144000Y-83312000D02*
X140208000Y-83312000D01*
X140208000Y-83312000D02*
X141732000Y-84836000D01*
X139700000Y-90424000D02*
X139700000Y-86868000D01*
X139700000Y-86868000D02*
X141732000Y-84836000D01*
X149860000Y-115316000D02*
X145288000Y-115316000D01*
X145288000Y-115316000D02*
X143256000Y-117348000D01*
X140716000Y-112268000D02*
X140716000Y-116332000D01*
X141732000Y-117348000D02*
X143256000Y-117348000D01*
X140716000Y-116332000D02*
X141732000Y-117348000D01*
X143256000Y-117348000D02*
X143256000Y-119634000D01*
X141732000Y-105641140D02*
X141732000Y-107268000D01*
X140716000Y-107268000D02*
X141732000Y-107268000D01*
X141732000Y-107268000D02*
X143176000Y-107268000D01*
X143176000Y-107268000D02*
X143256000Y-107188000D01*
X142682000Y-102638860D02*
X145773140Y-102638860D01*
X145773140Y-102638860D02*
X145796000Y-102616000D01*
X142682000Y-102638860D02*
X142682000Y-101158000D01*
X142682000Y-101158000D02*
X143256000Y-100584000D01*
D22*
X149352000Y-62912000D02*
X149352000Y-65532000D01*
X149352000Y-65532000D02*
X156972000Y-73152000D01*
X163656000Y-92964000D02*
X161544000Y-92964000D01*
X161544000Y-92964000D02*
X153416000Y-101092000D01*
X133096000Y-107268000D02*
X133096000Y-104648000D01*
X133096000Y-104648000D02*
X125476000Y-97028000D01*
D21*
X136652000Y-62992000D02*
X136652000Y-61976000D01*
X144780000Y-61976000D02*
X144780000Y-62992000D01*
X143256000Y-60452000D02*
X144780000Y-61976000D01*
X138176000Y-60452000D02*
X143256000Y-60452000D01*
X136652000Y-61976000D02*
X138176000Y-60452000D01*
X163576000Y-88392000D02*
X164592000Y-88392000D01*
X164592000Y-80264000D02*
X163576000Y-80264000D01*
X166116000Y-81788000D02*
X164592000Y-80264000D01*
X166116000Y-86868000D02*
X166116000Y-81788000D01*
X164592000Y-88392000D02*
X166116000Y-86868000D01*
X119380000Y-89916000D02*
X118364000Y-89916000D01*
X118364000Y-81788000D02*
X119380000Y-81788000D01*
X116840000Y-83312000D02*
X118364000Y-81788000D01*
X116840000Y-88392000D02*
X116840000Y-83312000D01*
X118364000Y-89916000D02*
X116840000Y-88392000D01*
X161036000Y-76200000D02*
X161036000Y-77724000D01*
X161036000Y-77724000D02*
X163576000Y-80264000D01*
X121412000Y-93472000D02*
X121412000Y-91948000D01*
X121412000Y-91948000D02*
X119380000Y-89916000D01*
X149860000Y-105156000D02*
X148336000Y-105156000D01*
X148336000Y-105156000D02*
X146304000Y-107188000D01*
X133096000Y-65024000D02*
X134620000Y-65024000D01*
X134620000Y-65024000D02*
X136652000Y-62992000D01*
X121332000Y-97028000D02*
X121332000Y-93552000D01*
X121332000Y-93552000D02*
X121412000Y-93472000D01*
X129540000Y-64944000D02*
X133016000Y-64944000D01*
X133016000Y-64944000D02*
X133096000Y-65024000D01*
X129540000Y-64944000D02*
X129540000Y-69088000D01*
X161116000Y-73152000D02*
X161116000Y-76120000D01*
X161116000Y-76120000D02*
X161036000Y-76200000D01*
X161116000Y-73152000D02*
X156972000Y-73152000D01*
X121332000Y-97028000D02*
X125476000Y-97028000D01*
X153416000Y-105236000D02*
X153416000Y-101092000D01*
X119300000Y-77216000D02*
X119300000Y-81708000D01*
X119300000Y-81708000D02*
X119380000Y-81788000D01*
X163656000Y-92964000D02*
X163656000Y-88472000D01*
X163656000Y-88472000D02*
X163576000Y-88392000D01*
X149352000Y-62912000D02*
X144860000Y-62912000D01*
X144860000Y-62912000D02*
X144780000Y-62992000D01*
X149860000Y-105156000D02*
X153336000Y-105156000D01*
X153336000Y-105156000D02*
X153416000Y-105236000D01*
X138176000Y-107188000D02*
X138176000Y-108204000D01*
X138176000Y-108204000D02*
X139700000Y-109728000D01*
X139700000Y-109728000D02*
X144780000Y-109728000D01*
X144780000Y-109728000D02*
X146304000Y-108204000D01*
X146304000Y-108204000D02*
X146304000Y-107188000D01*
X133096000Y-107268000D02*
X138096000Y-107268000D01*
X138096000Y-107268000D02*
X138176000Y-107188000D01*
X138176000Y-117348000D02*
X138176000Y-119888000D01*
X138176000Y-119888000D02*
X140716000Y-119888000D01*
X140716000Y-119888000D02*
X140970000Y-119634000D01*
X145542000Y-119634000D02*
X145542000Y-118110000D01*
X145542000Y-118110000D02*
X146304000Y-117348000D01*
X148416000Y-119888000D02*
X145796000Y-119888000D01*
X145796000Y-119888000D02*
X145542000Y-119634000D01*
X139700000Y-100584000D02*
X136144000Y-100584000D01*
X140782000Y-102638860D02*
X140782000Y-101666000D01*
X140782000Y-101666000D02*
X139700000Y-100584000D01*
X143256000Y-129540000D02*
X143256000Y-132588000D01*
X143256000Y-126238000D02*
X143256000Y-129540000D01*
X171196000Y-76200000D02*
X171196000Y-80772000D01*
X171196000Y-80772000D02*
X173736000Y-83312000D01*
X168656000Y-85852000D02*
X172720000Y-85852000D01*
X173736000Y-84836000D02*
X173736000Y-83312000D01*
X172720000Y-85852000D02*
X173736000Y-84836000D01*
X176022000Y-83312000D02*
X173736000Y-83312000D01*
X162029140Y-84836000D02*
X163656000Y-84836000D01*
X163656000Y-85852000D02*
X163656000Y-84836000D01*
X163656000Y-84836000D02*
X163656000Y-83392000D01*
X163656000Y-83392000D02*
X163576000Y-83312000D01*
X159026860Y-83886000D02*
X157546000Y-83886000D01*
X157546000Y-83886000D02*
X156972000Y-83312000D01*
X159004000Y-80772000D02*
X159004000Y-83863140D01*
X159004000Y-83863140D02*
X159026860Y-83886000D01*
X176276000Y-88392000D02*
X173736000Y-88392000D01*
X176276000Y-88392000D02*
X176276000Y-85852000D01*
X176276000Y-85852000D02*
X176022000Y-85598000D01*
X111252000Y-93472000D02*
X111252000Y-88900000D01*
X111252000Y-88900000D02*
X109220000Y-86868000D01*
X114300000Y-84328000D02*
X110236000Y-84328000D01*
X109220000Y-85344000D02*
X109220000Y-86868000D01*
X110236000Y-84328000D02*
X109220000Y-85344000D01*
X106934000Y-86868000D02*
X109220000Y-86868000D01*
X120926860Y-85344000D02*
X119300000Y-85344000D01*
X119300000Y-84328000D02*
X119300000Y-85344000D01*
X119300000Y-85344000D02*
X119300000Y-86788000D01*
X119300000Y-86788000D02*
X119380000Y-86868000D01*
X123929140Y-86294000D02*
X125410000Y-86294000D01*
X125410000Y-86294000D02*
X125984000Y-86868000D01*
X123952000Y-89408000D02*
X123952000Y-86316860D01*
X123952000Y-86316860D02*
X123929140Y-86294000D01*
X106680000Y-81788000D02*
X109220000Y-81788000D01*
X106680000Y-81788000D02*
X106680000Y-84328000D01*
X106680000Y-84328000D02*
X106934000Y-84582000D01*
X176276000Y-78152000D02*
X176276000Y-80772000D01*
X176276000Y-80772000D02*
X176022000Y-81026000D01*
X176022000Y-81026000D02*
X174498000Y-81026000D01*
X174498000Y-81026000D02*
X173736000Y-80264000D01*
X106680000Y-92028000D02*
X106680000Y-89408000D01*
X106680000Y-89408000D02*
X106934000Y-89154000D01*
X106934000Y-89154000D02*
X108458000Y-89154000D01*
X108458000Y-89154000D02*
X109220000Y-89916000D01*
X133096000Y-54864000D02*
X137668000Y-54864000D01*
X137668000Y-54864000D02*
X139700000Y-52832000D01*
X142240000Y-57912000D02*
X142240000Y-53848000D01*
X141224000Y-52832000D02*
X139700000Y-52832000D01*
X142240000Y-53848000D02*
X141224000Y-52832000D01*
X139700000Y-50546000D02*
X139700000Y-52832000D01*
X141224000Y-64538860D02*
X141224000Y-62992000D01*
X139700000Y-62992000D02*
X141224000Y-62992000D01*
X141224000Y-62992000D02*
X142160000Y-62992000D01*
X142160000Y-62992000D02*
X142240000Y-62912000D01*
X140274000Y-67541140D02*
X140274000Y-69022000D01*
X140274000Y-69022000D02*
X139700000Y-69596000D01*
X137160000Y-67564000D02*
X140251140Y-67564000D01*
X140251140Y-67564000D02*
X140274000Y-67541140D01*
X144780000Y-50292000D02*
X144780000Y-52832000D01*
X144780000Y-50292000D02*
X142240000Y-50292000D01*
X142240000Y-50292000D02*
X141986000Y-50546000D01*
X134540000Y-50292000D02*
X137160000Y-50292000D01*
X137160000Y-50292000D02*
X137414000Y-50546000D01*
X137414000Y-50546000D02*
X137414000Y-52070000D01*
X137414000Y-52070000D02*
X136652000Y-52832000D01*
X124440425Y-123844575D02*
X127400575Y-123844575D01*
X127400575Y-123844575D02*
X133096000Y-129540000D01*
D22*
X185420000Y-97028000D02*
X185420000Y-104775000D01*
X185420000Y-104775000D02*
X145395425Y-144799575D01*
X145395425Y-144799575D02*
X145395425Y-144672575D01*
X97028000Y-97028000D02*
X100076000Y-97028000D01*
X103485425Y-100437425D02*
X103485425Y-102889575D01*
X100076000Y-97028000D02*
X103485425Y-100437425D01*
D21*
X129540000Y-38100000D02*
X127000000Y-38100000D01*
X127000000Y-38100000D02*
X82784425Y-82315575D01*
X129540000Y-38100000D02*
X128905000Y-38100000D01*
X156972000Y-86868000D02*
X156972000Y-90424000D01*
X159026860Y-85786000D02*
X158054000Y-85786000D01*
X158054000Y-85786000D02*
X156972000Y-86868000D01*
X125984000Y-83312000D02*
X125984000Y-79756000D01*
X123929140Y-84394000D02*
X124902000Y-84394000D01*
X124902000Y-84394000D02*
X125984000Y-83312000D01*
D22*
X185420000Y-83312000D02*
X182626000Y-83312000D01*
X185420000Y-86868000D02*
X185420000Y-83312000D01*
D21*
X97028000Y-86868000D02*
X96012000Y-86868000D01*
X96012000Y-86868000D02*
X93980000Y-86868000D01*
X97028000Y-86868000D02*
X100330000Y-86868000D01*
X143256000Y-69596000D02*
X146812000Y-69596000D01*
X142174000Y-67541140D02*
X142174000Y-68514000D01*
X142174000Y-68514000D02*
X143256000Y-69596000D01*
X139700000Y-43942000D02*
X139700000Y-40640000D01*
X139700000Y-38100000D02*
X139700000Y-40640000D01*
M02*
