G75*
%MOIN*%
%OFA0B0*%
%FSLAX25Y25*%
%IPPOS*%
%LPD*%
%AMOC8*
5,1,8,0,0,1.08239X$1,22.5*
%
%ADD10C,0.08500*%
%ADD11C,0.10000*%
%ADD12C,0.06200*%
%ADD13C,0.07400*%
%ADD14C,0.07000*%
%ADD15C,0.06543*%
%ADD16C,0.10079*%
%ADD17C,0.23000*%
%ADD18C,0.05756*%
%ADD19C,0.02400*%
%ADD20C,0.04000*%
%ADD21C,0.05000*%
%ADD22C,0.05600*%
D10*
X0132200Y0358333D03*
X0222200Y0358333D03*
X0252200Y0358333D03*
D11*
X0347200Y0143333D03*
X0347200Y0123333D03*
X0122200Y0128333D03*
X0102200Y0128333D03*
D12*
X0104700Y0263333D03*
X0104700Y0273333D03*
X0082200Y0263333D03*
X0072200Y0263333D03*
X0062200Y0263333D03*
X0182200Y0338333D03*
X0182200Y0348333D03*
X0202200Y0348333D03*
X0202200Y0338333D03*
X0272200Y0318333D03*
X0272200Y0308333D03*
X0272200Y0298333D03*
X0242200Y0143333D03*
X0242200Y0133333D03*
X0242200Y0123333D03*
X0322200Y0123333D03*
X0322200Y0143333D03*
D13*
X0177200Y0288333D03*
X0177200Y0328333D03*
X0077200Y0188333D03*
X0037200Y0188333D03*
D14*
X0037200Y0168333D03*
X0027200Y0168333D03*
X0027200Y0138333D03*
X0037200Y0138333D03*
X0077200Y0138333D03*
X0077200Y0168333D03*
X0077200Y0208333D03*
X0077200Y0238333D03*
X0037200Y0238333D03*
X0027200Y0238333D03*
X0027200Y0208333D03*
X0037200Y0208333D03*
X0132200Y0288333D03*
X0162200Y0288333D03*
X0162200Y0328333D03*
X0162200Y0338333D03*
X0132200Y0338333D03*
X0132200Y0328333D03*
X0222200Y0328333D03*
X0222200Y0338333D03*
X0252200Y0338333D03*
X0252200Y0328333D03*
X0252200Y0288333D03*
X0222200Y0288333D03*
X0234450Y0172083D03*
X0243450Y0172083D03*
X0252450Y0172083D03*
D15*
X0192200Y0258333D03*
X0212200Y0268333D03*
X0162200Y0268333D03*
D16*
X0107043Y0358333D03*
X0087357Y0358333D03*
X0102357Y0078333D03*
X0122043Y0078333D03*
X0142357Y0078333D03*
X0162043Y0078333D03*
X0182357Y0078333D03*
X0202043Y0078333D03*
X0222357Y0078333D03*
X0242043Y0078333D03*
X0262357Y0078333D03*
X0282043Y0078333D03*
X0302357Y0078333D03*
X0322043Y0078333D03*
X0342357Y0078333D03*
X0362043Y0078333D03*
D17*
X0347200Y0185833D03*
X0347200Y0363333D03*
X0032200Y0363333D03*
X0032200Y0087083D03*
D18*
X0042200Y0123333D03*
X0092200Y0150833D03*
X0102200Y0165833D03*
X0122200Y0155833D03*
X0132200Y0173333D03*
X0147200Y0188333D03*
X0162200Y0205833D03*
X0177200Y0198333D03*
X0182200Y0213333D03*
X0192200Y0235833D03*
X0162200Y0242083D03*
X0132200Y0243333D03*
X0122200Y0225833D03*
X0102200Y0235833D03*
X0092200Y0220833D03*
X0122200Y0195833D03*
X0167200Y0155833D03*
X0202200Y0148333D03*
X0218450Y0143333D03*
X0309700Y0138333D03*
X0309700Y0153333D03*
X0309700Y0168333D03*
X0309700Y0183333D03*
X0309700Y0198333D03*
X0309700Y0213333D03*
X0309700Y0228333D03*
X0309700Y0243333D03*
X0309700Y0258333D03*
X0330950Y0293333D03*
X0292200Y0325833D03*
X0319700Y0358333D03*
X0207200Y0295833D03*
X0192200Y0295833D03*
X0162200Y0298333D03*
X0084700Y0322083D03*
X0057200Y0357083D03*
X0022200Y0310833D03*
X0049700Y0283333D03*
X0017200Y0185833D03*
X0309700Y0123333D03*
D19*
X0007400Y0058533D02*
X0007400Y0381834D01*
X0371921Y0381834D01*
X0371921Y0058533D01*
X0007400Y0058533D01*
X0007400Y0060529D02*
X0371921Y0060529D01*
X0371921Y0062927D02*
X0007400Y0062927D01*
X0007400Y0065326D02*
X0371921Y0065326D01*
X0371921Y0067724D02*
X0007400Y0067724D01*
X0007400Y0070123D02*
X0371921Y0070123D01*
X0371921Y0072521D02*
X0367176Y0072521D01*
X0366427Y0071772D02*
X0368604Y0073949D01*
X0369782Y0076794D01*
X0369782Y0079873D01*
X0368604Y0082717D01*
X0367543Y0083778D01*
X0367543Y0129585D01*
X0366705Y0131606D01*
X0354900Y0143411D01*
X0354900Y0144865D01*
X0353728Y0147695D01*
X0351562Y0149861D01*
X0348732Y0151033D01*
X0345668Y0151033D01*
X0342838Y0149861D01*
X0341511Y0148533D01*
X0324802Y0148533D01*
X0323354Y0149133D01*
X0321046Y0149133D01*
X0318915Y0148250D01*
X0317283Y0146619D01*
X0316400Y0144487D01*
X0316400Y0142180D01*
X0317283Y0140048D01*
X0318915Y0138416D01*
X0321046Y0137533D01*
X0323354Y0137533D01*
X0324802Y0138133D01*
X0341511Y0138133D01*
X0342838Y0136806D01*
X0345668Y0135633D01*
X0347122Y0135633D01*
X0356543Y0126213D01*
X0356543Y0083778D01*
X0355481Y0082717D01*
X0354303Y0079873D01*
X0354303Y0076794D01*
X0355481Y0073949D01*
X0357659Y0071772D01*
X0360503Y0070594D01*
X0363582Y0070594D01*
X0366427Y0071772D01*
X0369006Y0074920D02*
X0371921Y0074920D01*
X0371921Y0077318D02*
X0369782Y0077318D01*
X0369782Y0079717D02*
X0371921Y0079717D01*
X0371921Y0082115D02*
X0368853Y0082115D01*
X0367543Y0084514D02*
X0371921Y0084514D01*
X0371921Y0086912D02*
X0367543Y0086912D01*
X0367543Y0089311D02*
X0371921Y0089311D01*
X0371921Y0091710D02*
X0367543Y0091710D01*
X0367543Y0094108D02*
X0371921Y0094108D01*
X0371921Y0096507D02*
X0367543Y0096507D01*
X0367543Y0098905D02*
X0371921Y0098905D01*
X0371921Y0101304D02*
X0367543Y0101304D01*
X0367543Y0103702D02*
X0371921Y0103702D01*
X0371921Y0106101D02*
X0367543Y0106101D01*
X0367543Y0108499D02*
X0371921Y0108499D01*
X0371921Y0110898D02*
X0367543Y0110898D01*
X0367543Y0113296D02*
X0371921Y0113296D01*
X0371921Y0115695D02*
X0367543Y0115695D01*
X0367543Y0118093D02*
X0371921Y0118093D01*
X0371921Y0120492D02*
X0367543Y0120492D01*
X0367543Y0122890D02*
X0371921Y0122890D01*
X0371921Y0125289D02*
X0367543Y0125289D01*
X0367543Y0127687D02*
X0371921Y0127687D01*
X0371921Y0130086D02*
X0367335Y0130086D01*
X0365827Y0132484D02*
X0371921Y0132484D01*
X0371921Y0134883D02*
X0363429Y0134883D01*
X0361030Y0137281D02*
X0371921Y0137281D01*
X0371921Y0139680D02*
X0358632Y0139680D01*
X0356233Y0142078D02*
X0371921Y0142078D01*
X0371921Y0144477D02*
X0354900Y0144477D01*
X0354067Y0146875D02*
X0371921Y0146875D01*
X0371921Y0149274D02*
X0352149Y0149274D01*
X0342251Y0149274D02*
X0313529Y0149274D01*
X0313334Y0149079D02*
X0313955Y0149700D01*
X0314471Y0150410D01*
X0314869Y0151192D01*
X0315141Y0152027D01*
X0315278Y0152894D01*
X0315278Y0153333D01*
X0309700Y0153333D01*
X0309700Y0147755D01*
X0310139Y0147755D01*
X0311006Y0147893D01*
X0311841Y0148164D01*
X0312623Y0148563D01*
X0313334Y0149079D01*
X0315025Y0151672D02*
X0371921Y0151672D01*
X0371921Y0154071D02*
X0315231Y0154071D01*
X0315278Y0153772D02*
X0315141Y0154640D01*
X0314869Y0155475D01*
X0314471Y0156257D01*
X0313955Y0156967D01*
X0313334Y0157588D01*
X0312623Y0158104D01*
X0311841Y0158503D01*
X0311006Y0158774D01*
X0310139Y0158911D01*
X0309700Y0158911D01*
X0309261Y0158911D01*
X0308394Y0158774D01*
X0307559Y0158503D01*
X0306777Y0158104D01*
X0306066Y0157588D01*
X0305445Y0156967D01*
X0304929Y0156257D01*
X0304531Y0155475D01*
X0304259Y0154640D01*
X0304122Y0153772D01*
X0304122Y0153333D01*
X0304122Y0152894D01*
X0304259Y0152027D01*
X0304531Y0151192D01*
X0304929Y0150410D01*
X0305445Y0149700D01*
X0306066Y0149079D01*
X0306777Y0148563D01*
X0307559Y0148164D01*
X0308394Y0147893D01*
X0309261Y0147755D01*
X0309700Y0147755D01*
X0309700Y0153333D01*
X0309700Y0153333D01*
X0309700Y0153333D01*
X0304122Y0153333D01*
X0309700Y0153333D01*
X0309700Y0153333D01*
X0315278Y0153333D01*
X0315278Y0153772D01*
X0314316Y0156469D02*
X0371921Y0156469D01*
X0371921Y0158868D02*
X0310413Y0158868D01*
X0309700Y0158868D02*
X0309700Y0158868D01*
X0309700Y0158911D02*
X0309700Y0153333D01*
X0309700Y0153333D01*
X0309700Y0158911D01*
X0308987Y0158868D02*
X0249019Y0158868D01*
X0248650Y0159237D02*
X0255146Y0152742D01*
X0255146Y0152742D01*
X0256608Y0151279D01*
X0257400Y0149368D01*
X0257400Y0127299D01*
X0256608Y0125388D01*
X0251608Y0120388D01*
X0250146Y0118925D01*
X0248234Y0118133D01*
X0244802Y0118133D01*
X0243354Y0117533D01*
X0241046Y0117533D01*
X0238915Y0118416D01*
X0237283Y0120048D01*
X0236400Y0122180D01*
X0236400Y0124487D01*
X0237283Y0126619D01*
X0238915Y0128250D01*
X0239115Y0128333D01*
X0238915Y0128416D01*
X0237283Y0130048D01*
X0236400Y0132180D01*
X0236400Y0134487D01*
X0237283Y0136619D01*
X0238915Y0138250D01*
X0239115Y0138333D01*
X0238915Y0138416D01*
X0237283Y0140048D01*
X0236400Y0142180D01*
X0236400Y0144487D01*
X0237283Y0146619D01*
X0238915Y0148250D01*
X0241046Y0149133D01*
X0243354Y0149133D01*
X0244536Y0148644D01*
X0239042Y0154138D01*
X0238250Y0156049D01*
X0238250Y0167115D01*
X0237962Y0166827D01*
X0235683Y0165883D01*
X0233217Y0165883D01*
X0230938Y0166827D01*
X0229194Y0168571D01*
X0228250Y0170850D01*
X0228250Y0173317D01*
X0229194Y0175595D01*
X0230938Y0177339D01*
X0233217Y0178283D01*
X0235683Y0178283D01*
X0237962Y0177339D01*
X0238950Y0176351D01*
X0239938Y0177339D01*
X0242217Y0178283D01*
X0244683Y0178283D01*
X0246962Y0177339D01*
X0247950Y0176351D01*
X0248938Y0177339D01*
X0251217Y0178283D01*
X0253683Y0178283D01*
X0255962Y0177339D01*
X0257706Y0175595D01*
X0258650Y0173317D01*
X0258650Y0170850D01*
X0257706Y0168571D01*
X0255962Y0166827D01*
X0253683Y0165883D01*
X0251217Y0165883D01*
X0248938Y0166827D01*
X0248650Y0167115D01*
X0248650Y0159237D01*
X0248650Y0161266D02*
X0371921Y0161266D01*
X0371921Y0163665D02*
X0312764Y0163665D01*
X0312623Y0163563D02*
X0313334Y0164079D01*
X0313955Y0164700D01*
X0314471Y0165410D01*
X0314869Y0166192D01*
X0315141Y0167027D01*
X0315278Y0167894D01*
X0315278Y0168333D01*
X0309700Y0168333D01*
X0309700Y0162755D01*
X0310139Y0162755D01*
X0311006Y0162893D01*
X0311841Y0163164D01*
X0312623Y0163563D01*
X0309700Y0163665D02*
X0309700Y0163665D01*
X0309700Y0162755D02*
X0309700Y0168333D01*
X0309700Y0168333D01*
X0309700Y0168333D01*
X0304122Y0168333D01*
X0304122Y0167894D01*
X0304259Y0167027D01*
X0304531Y0166192D01*
X0304929Y0165410D01*
X0305445Y0164700D01*
X0306066Y0164079D01*
X0306777Y0163563D01*
X0307559Y0163164D01*
X0308394Y0162893D01*
X0309261Y0162755D01*
X0309700Y0162755D01*
X0306636Y0163665D02*
X0248650Y0163665D01*
X0248650Y0166063D02*
X0250782Y0166063D01*
X0254118Y0166063D02*
X0304596Y0166063D01*
X0304122Y0168333D02*
X0309700Y0168333D01*
X0309700Y0168333D01*
X0315278Y0168333D01*
X0315278Y0168772D01*
X0315141Y0169640D01*
X0314869Y0170475D01*
X0314471Y0171257D01*
X0313955Y0171967D01*
X0313334Y0172588D01*
X0312623Y0173104D01*
X0311841Y0173503D01*
X0311006Y0173774D01*
X0310139Y0173911D01*
X0309700Y0173911D01*
X0309261Y0173911D01*
X0308394Y0173774D01*
X0307559Y0173503D01*
X0306777Y0173104D01*
X0306066Y0172588D01*
X0305445Y0171967D01*
X0304929Y0171257D01*
X0304531Y0170475D01*
X0304259Y0169640D01*
X0304122Y0168772D01*
X0304122Y0168333D01*
X0304122Y0168462D02*
X0257597Y0168462D01*
X0258650Y0170860D02*
X0304727Y0170860D01*
X0307080Y0173259D02*
X0258650Y0173259D01*
X0257644Y0175657D02*
X0337294Y0175657D01*
X0337652Y0175299D02*
X0338731Y0174414D01*
X0339891Y0173639D01*
X0341121Y0172981D01*
X0342410Y0172447D01*
X0343746Y0172042D01*
X0345114Y0171770D01*
X0346000Y0171683D01*
X0346000Y0184633D01*
X0348400Y0184633D01*
X0348400Y0171683D01*
X0349286Y0171770D01*
X0350654Y0172042D01*
X0351990Y0172447D01*
X0353279Y0172981D01*
X0354509Y0173639D01*
X0355669Y0174414D01*
X0356748Y0175299D01*
X0357734Y0176286D01*
X0358619Y0177364D01*
X0359394Y0178524D01*
X0360052Y0179755D01*
X0360586Y0181044D01*
X0360991Y0182379D01*
X0361263Y0183747D01*
X0361351Y0184633D01*
X0348400Y0184633D01*
X0348400Y0187033D01*
X0361351Y0187033D01*
X0361263Y0187919D01*
X0360991Y0189288D01*
X0360586Y0190623D01*
X0360052Y0191912D01*
X0359394Y0193142D01*
X0358619Y0194302D01*
X0357734Y0195381D01*
X0356748Y0196368D01*
X0355669Y0197253D01*
X0354509Y0198028D01*
X0353279Y0198685D01*
X0351990Y0199219D01*
X0350654Y0199624D01*
X0349286Y0199897D01*
X0348400Y0199984D01*
X0348400Y0187033D01*
X0346000Y0187033D01*
X0346000Y0184633D01*
X0333049Y0184633D01*
X0333137Y0183747D01*
X0333409Y0182379D01*
X0333814Y0181044D01*
X0334348Y0179755D01*
X0335006Y0178524D01*
X0335781Y0177364D01*
X0336666Y0176286D01*
X0337652Y0175299D01*
X0340602Y0173259D02*
X0312320Y0173259D01*
X0309700Y0173259D02*
X0309700Y0173259D01*
X0309700Y0173911D02*
X0309700Y0168333D01*
X0309700Y0168333D01*
X0309700Y0173911D01*
X0309700Y0170860D02*
X0309700Y0170860D01*
X0309700Y0168462D02*
X0309700Y0168462D01*
X0309700Y0166063D02*
X0309700Y0166063D01*
X0314804Y0166063D02*
X0371921Y0166063D01*
X0371921Y0168462D02*
X0315278Y0168462D01*
X0314673Y0170860D02*
X0371921Y0170860D01*
X0371921Y0173259D02*
X0353798Y0173259D01*
X0357106Y0175657D02*
X0371921Y0175657D01*
X0371921Y0178056D02*
X0359081Y0178056D01*
X0360342Y0180454D02*
X0371921Y0180454D01*
X0371921Y0182853D02*
X0361085Y0182853D01*
X0361290Y0187650D02*
X0371921Y0187650D01*
X0371921Y0190048D02*
X0360760Y0190048D01*
X0359766Y0192447D02*
X0371921Y0192447D01*
X0371921Y0194845D02*
X0358174Y0194845D01*
X0355680Y0197244D02*
X0371921Y0197244D01*
X0371921Y0199643D02*
X0350563Y0199643D01*
X0348400Y0199643D02*
X0346000Y0199643D01*
X0346000Y0199984D02*
X0345114Y0199897D01*
X0343746Y0199624D01*
X0342410Y0199219D01*
X0341121Y0198685D01*
X0339891Y0198028D01*
X0338731Y0197253D01*
X0337652Y0196368D01*
X0336666Y0195381D01*
X0335781Y0194302D01*
X0335006Y0193142D01*
X0334348Y0191912D01*
X0333814Y0190623D01*
X0333409Y0189288D01*
X0333137Y0187919D01*
X0333049Y0187033D01*
X0346000Y0187033D01*
X0346000Y0199984D01*
X0343837Y0199643D02*
X0315140Y0199643D01*
X0315141Y0199640D02*
X0314869Y0200475D01*
X0314471Y0201257D01*
X0313955Y0201967D01*
X0313334Y0202588D01*
X0312623Y0203104D01*
X0311841Y0203503D01*
X0311006Y0203774D01*
X0310139Y0203911D01*
X0309700Y0203911D01*
X0309261Y0203911D01*
X0308394Y0203774D01*
X0307559Y0203503D01*
X0306777Y0203104D01*
X0306066Y0202588D01*
X0305445Y0201967D01*
X0304929Y0201257D01*
X0304531Y0200475D01*
X0304259Y0199640D01*
X0304122Y0198772D01*
X0304122Y0198333D01*
X0304122Y0197894D01*
X0304259Y0197027D01*
X0304531Y0196192D01*
X0304929Y0195410D01*
X0305445Y0194700D01*
X0306066Y0194079D01*
X0306777Y0193563D01*
X0307559Y0193164D01*
X0308394Y0192893D01*
X0309261Y0192755D01*
X0309700Y0192755D01*
X0310139Y0192755D01*
X0311006Y0192893D01*
X0311841Y0193164D01*
X0312623Y0193563D01*
X0313334Y0194079D01*
X0313955Y0194700D01*
X0314471Y0195410D01*
X0314869Y0196192D01*
X0315141Y0197027D01*
X0315278Y0197894D01*
X0315278Y0198333D01*
X0309700Y0198333D01*
X0309700Y0192755D01*
X0309700Y0198333D01*
X0309700Y0198333D01*
X0309700Y0198333D01*
X0304122Y0198333D01*
X0309700Y0198333D01*
X0309700Y0198333D01*
X0315278Y0198333D01*
X0315278Y0198772D01*
X0315141Y0199640D01*
X0315175Y0197244D02*
X0338720Y0197244D01*
X0336226Y0194845D02*
X0314061Y0194845D01*
X0309700Y0194845D02*
X0309700Y0194845D01*
X0309700Y0197244D02*
X0309700Y0197244D01*
X0309700Y0198333D02*
X0309700Y0203911D01*
X0309700Y0198333D01*
X0309700Y0198333D01*
X0309700Y0199643D02*
X0309700Y0199643D01*
X0309700Y0202041D02*
X0309700Y0202041D01*
X0313881Y0202041D02*
X0371921Y0202041D01*
X0371921Y0204440D02*
X0178872Y0204440D01*
X0177700Y0205611D02*
X0180171Y0203140D01*
X0180360Y0203062D01*
X0181929Y0201493D01*
X0182778Y0199443D01*
X0182778Y0197224D01*
X0182700Y0197036D01*
X0182700Y0147239D01*
X0181863Y0145218D01*
X0180315Y0143671D01*
X0160315Y0123671D01*
X0158294Y0122833D01*
X0127589Y0122833D01*
X0126562Y0121806D01*
X0123732Y0120633D01*
X0120668Y0120633D01*
X0117838Y0121806D01*
X0115672Y0123972D01*
X0114500Y0126802D01*
X0114500Y0129865D01*
X0115672Y0132695D01*
X0116700Y0133723D01*
X0116700Y0138319D01*
X0109686Y0145333D01*
X0093498Y0145333D01*
X0093310Y0145255D01*
X0091090Y0145255D01*
X0089040Y0146105D01*
X0087471Y0147674D01*
X0086622Y0149724D01*
X0086622Y0151943D01*
X0086700Y0152131D01*
X0086700Y0215333D01*
X0071106Y0215333D01*
X0069084Y0216171D01*
X0067537Y0217718D01*
X0017537Y0267718D01*
X0016700Y0269739D01*
X0016700Y0309536D01*
X0016622Y0309724D01*
X0016622Y0311943D01*
X0017471Y0313993D01*
X0019040Y0315562D01*
X0021090Y0316411D01*
X0023310Y0316411D01*
X0025360Y0315562D01*
X0026929Y0313993D01*
X0027778Y0311943D01*
X0027778Y0309724D01*
X0027700Y0309536D01*
X0027700Y0273111D01*
X0074478Y0226333D01*
X0086700Y0226333D01*
X0086700Y0251055D01*
X0079639Y0258116D01*
X0078915Y0258416D01*
X0077283Y0260048D01*
X0077200Y0260248D01*
X0077117Y0260048D01*
X0075485Y0258416D01*
X0073354Y0257533D01*
X0071046Y0257533D01*
X0068915Y0258416D01*
X0067283Y0260048D01*
X0067200Y0260248D01*
X0067117Y0260048D01*
X0065485Y0258416D01*
X0063354Y0257533D01*
X0061046Y0257533D01*
X0058915Y0258416D01*
X0057283Y0260048D01*
X0056400Y0262180D01*
X0056400Y0264487D01*
X0057283Y0266619D01*
X0058915Y0268250D01*
X0061046Y0269133D01*
X0063354Y0269133D01*
X0065485Y0268250D01*
X0067117Y0266619D01*
X0067200Y0266418D01*
X0067283Y0266619D01*
X0068915Y0268250D01*
X0071046Y0269133D01*
X0073354Y0269133D01*
X0075485Y0268250D01*
X0076700Y0267036D01*
X0076700Y0279427D01*
X0077537Y0281449D01*
X0091700Y0295611D01*
X0091700Y0327380D01*
X0068597Y0351583D01*
X0058498Y0351583D01*
X0058310Y0351505D01*
X0056090Y0351505D01*
X0054040Y0352355D01*
X0052471Y0353924D01*
X0051622Y0355974D01*
X0051622Y0358193D01*
X0052471Y0360243D01*
X0054040Y0361812D01*
X0056090Y0362661D01*
X0058310Y0362661D01*
X0058498Y0362583D01*
X0069922Y0362583D01*
X0069984Y0362607D01*
X0071014Y0362583D01*
X0072044Y0362583D01*
X0072105Y0362558D01*
X0072172Y0362556D01*
X0073114Y0362140D01*
X0074065Y0361746D01*
X0074112Y0361699D01*
X0074173Y0361672D01*
X0074885Y0360927D01*
X0075613Y0360199D01*
X0075638Y0360138D01*
X0080222Y0355335D01*
X0079618Y0356794D01*
X0079618Y0359873D01*
X0080796Y0362717D01*
X0082973Y0364894D01*
X0085818Y0366073D01*
X0088897Y0366073D01*
X0091741Y0364894D01*
X0093919Y0362717D01*
X0095097Y0359873D01*
X0095097Y0356794D01*
X0093919Y0353949D01*
X0091741Y0351772D01*
X0088897Y0350594D01*
X0085818Y0350594D01*
X0084048Y0351327D01*
X0101134Y0333427D01*
X0101863Y0332699D01*
X0101888Y0332638D01*
X0101934Y0332590D01*
X0102306Y0331629D01*
X0102700Y0330677D01*
X0102700Y0330611D01*
X0102724Y0330549D01*
X0102700Y0329519D01*
X0102700Y0292239D01*
X0101863Y0290218D01*
X0087700Y0276055D01*
X0087700Y0265611D01*
X0096863Y0256449D01*
X0097700Y0254427D01*
X0097700Y0239129D01*
X0097945Y0239467D01*
X0098566Y0240088D01*
X0099277Y0240604D01*
X0100059Y0241003D01*
X0100894Y0241274D01*
X0101761Y0241411D01*
X0102200Y0241411D01*
X0102200Y0235833D01*
X0102200Y0230255D01*
X0102639Y0230255D01*
X0103506Y0230393D01*
X0104341Y0230664D01*
X0105123Y0231063D01*
X0105834Y0231579D01*
X0106455Y0232200D01*
X0106971Y0232910D01*
X0107369Y0233692D01*
X0107641Y0234527D01*
X0107778Y0235394D01*
X0107778Y0235833D01*
X0102200Y0235833D01*
X0102200Y0235833D01*
X0102200Y0230255D01*
X0101761Y0230255D01*
X0100894Y0230393D01*
X0100059Y0230664D01*
X0099277Y0231063D01*
X0098566Y0231579D01*
X0097945Y0232200D01*
X0097700Y0232537D01*
X0097700Y0222131D01*
X0097778Y0221943D01*
X0097778Y0219724D01*
X0097700Y0219536D01*
X0097700Y0169129D01*
X0097945Y0169467D01*
X0098566Y0170088D01*
X0099277Y0170604D01*
X0100059Y0171003D01*
X0100894Y0171274D01*
X0101761Y0171411D01*
X0102200Y0171411D01*
X0102200Y0165833D01*
X0102200Y0160255D01*
X0102639Y0160255D01*
X0103506Y0160393D01*
X0104341Y0160664D01*
X0105123Y0161063D01*
X0105834Y0161579D01*
X0106455Y0162200D01*
X0106971Y0162910D01*
X0107369Y0163692D01*
X0107641Y0164527D01*
X0107778Y0165394D01*
X0107778Y0165833D01*
X0102200Y0165833D01*
X0102200Y0165833D01*
X0102200Y0160255D01*
X0101761Y0160255D01*
X0100894Y0160393D01*
X0100059Y0160664D01*
X0099277Y0161063D01*
X0098566Y0161579D01*
X0097945Y0162200D01*
X0097700Y0162537D01*
X0097700Y0156333D01*
X0113058Y0156333D01*
X0115079Y0155496D01*
X0116626Y0153949D01*
X0117167Y0153408D01*
X0116622Y0154724D01*
X0116622Y0156943D01*
X0117471Y0158993D01*
X0119040Y0160562D01*
X0121090Y0161411D01*
X0123310Y0161411D01*
X0125360Y0160562D01*
X0126188Y0159733D01*
X0163212Y0159733D01*
X0164040Y0160562D01*
X0166090Y0161411D01*
X0168310Y0161411D01*
X0170360Y0160562D01*
X0171700Y0159222D01*
X0171700Y0196055D01*
X0167537Y0200218D01*
X0166700Y0202239D01*
X0166700Y0202537D01*
X0166455Y0202200D01*
X0165834Y0201579D01*
X0165123Y0201063D01*
X0164341Y0200664D01*
X0163506Y0200393D01*
X0162639Y0200255D01*
X0162200Y0200255D01*
X0162200Y0205833D01*
X0162200Y0205833D01*
X0162200Y0200255D01*
X0161761Y0200255D01*
X0160894Y0200393D01*
X0160059Y0200664D01*
X0159277Y0201063D01*
X0158566Y0201579D01*
X0157945Y0202200D01*
X0157429Y0202910D01*
X0157031Y0203692D01*
X0156759Y0204527D01*
X0156622Y0205394D01*
X0156622Y0205833D01*
X0162200Y0205833D01*
X0162200Y0205833D01*
X0156622Y0205833D01*
X0156622Y0206272D01*
X0156759Y0207140D01*
X0157031Y0207975D01*
X0157429Y0208757D01*
X0157945Y0209467D01*
X0158566Y0210088D01*
X0159277Y0210604D01*
X0160059Y0211003D01*
X0160894Y0211274D01*
X0161761Y0211411D01*
X0162200Y0211411D01*
X0162200Y0205833D01*
X0162200Y0205833D01*
X0162200Y0211411D01*
X0162639Y0211411D01*
X0163506Y0211274D01*
X0164341Y0211003D01*
X0165123Y0210604D01*
X0165834Y0210088D01*
X0166455Y0209467D01*
X0166700Y0209129D01*
X0166700Y0238695D01*
X0165360Y0237355D01*
X0163310Y0236505D01*
X0161090Y0236505D01*
X0159040Y0237355D01*
X0157471Y0238924D01*
X0156622Y0240974D01*
X0156622Y0243193D01*
X0157471Y0245243D01*
X0158300Y0246072D01*
X0158300Y0263788D01*
X0157137Y0264951D01*
X0156228Y0267145D01*
X0156228Y0269521D01*
X0157137Y0271716D01*
X0158817Y0273396D01*
X0161012Y0274305D01*
X0163388Y0274305D01*
X0165583Y0273396D01*
X0167263Y0271716D01*
X0168172Y0269521D01*
X0168172Y0267145D01*
X0167263Y0264951D01*
X0166100Y0263788D01*
X0166100Y0246072D01*
X0166700Y0245472D01*
X0166700Y0261927D01*
X0167537Y0263949D01*
X0169084Y0265496D01*
X0194210Y0290621D01*
X0193506Y0290393D01*
X0192639Y0290255D01*
X0192200Y0290255D01*
X0192200Y0295833D01*
X0192200Y0295833D01*
X0192200Y0290255D01*
X0191761Y0290255D01*
X0190894Y0290393D01*
X0190059Y0290664D01*
X0189277Y0291063D01*
X0188566Y0291579D01*
X0187945Y0292200D01*
X0187429Y0292910D01*
X0187031Y0293692D01*
X0186759Y0294527D01*
X0186622Y0295394D01*
X0186622Y0295833D01*
X0192200Y0295833D01*
X0192200Y0295833D01*
X0192200Y0295833D01*
X0197778Y0295833D01*
X0197778Y0295394D01*
X0197641Y0294527D01*
X0197412Y0293823D01*
X0202393Y0298805D01*
X0202471Y0298993D01*
X0204040Y0300562D01*
X0204229Y0300640D01*
X0224084Y0320496D01*
X0226106Y0321333D01*
X0266700Y0321333D01*
X0266700Y0344427D01*
X0267537Y0346449D01*
X0282537Y0361449D01*
X0284084Y0362996D01*
X0286106Y0363833D01*
X0318402Y0363833D01*
X0318590Y0363911D01*
X0320810Y0363911D01*
X0322860Y0363062D01*
X0324429Y0361493D01*
X0325278Y0359443D01*
X0325278Y0357224D01*
X0324429Y0355174D01*
X0322860Y0353605D01*
X0320810Y0352755D01*
X0318590Y0352755D01*
X0318402Y0352833D01*
X0289478Y0352833D01*
X0277700Y0341055D01*
X0277700Y0320211D01*
X0278000Y0319487D01*
X0278000Y0317180D01*
X0277117Y0315048D01*
X0275485Y0313416D01*
X0275285Y0313333D01*
X0275485Y0313250D01*
X0277117Y0311619D01*
X0278000Y0309487D01*
X0278000Y0307180D01*
X0277117Y0305048D01*
X0275485Y0303416D01*
X0275285Y0303333D01*
X0275485Y0303250D01*
X0277117Y0301619D01*
X0278000Y0299487D01*
X0278000Y0297180D01*
X0277117Y0295048D01*
X0275485Y0293416D01*
X0273354Y0292533D01*
X0271046Y0292533D01*
X0268915Y0293416D01*
X0267283Y0295048D01*
X0266400Y0297180D01*
X0266400Y0299487D01*
X0267283Y0301619D01*
X0268915Y0303250D01*
X0269115Y0303333D01*
X0268915Y0303416D01*
X0267283Y0305048D01*
X0266400Y0307180D01*
X0266400Y0309487D01*
X0266751Y0310333D01*
X0229478Y0310333D01*
X0212007Y0292862D01*
X0211929Y0292674D01*
X0210360Y0291105D01*
X0210171Y0291027D01*
X0191346Y0272201D01*
X0191424Y0272233D01*
X0207655Y0272233D01*
X0208817Y0273396D01*
X0211012Y0274305D01*
X0213388Y0274305D01*
X0215583Y0273396D01*
X0217263Y0271716D01*
X0218172Y0269521D01*
X0218172Y0267145D01*
X0217263Y0264951D01*
X0215583Y0263271D01*
X0213388Y0262362D01*
X0211012Y0262362D01*
X0208817Y0263271D01*
X0207655Y0264433D01*
X0193815Y0264433D01*
X0193599Y0264217D01*
X0195583Y0263396D01*
X0197263Y0261716D01*
X0198172Y0259521D01*
X0198172Y0257145D01*
X0197263Y0254951D01*
X0195583Y0253271D01*
X0193388Y0252362D01*
X0191012Y0252362D01*
X0188817Y0253271D01*
X0187137Y0254951D01*
X0186316Y0256934D01*
X0186100Y0256718D01*
X0186100Y0217322D01*
X0186929Y0216493D01*
X0187778Y0214443D01*
X0187778Y0212224D01*
X0186929Y0210174D01*
X0185360Y0208605D01*
X0183310Y0207755D01*
X0181090Y0207755D01*
X0179040Y0208605D01*
X0177700Y0209945D01*
X0177700Y0205611D01*
X0177700Y0206838D02*
X0371921Y0206838D01*
X0371921Y0209237D02*
X0313492Y0209237D01*
X0313334Y0209079D02*
X0313955Y0209700D01*
X0314471Y0210410D01*
X0314869Y0211192D01*
X0315141Y0212027D01*
X0315278Y0212894D01*
X0315278Y0213333D01*
X0309700Y0213333D01*
X0309700Y0207755D01*
X0310139Y0207755D01*
X0311006Y0207893D01*
X0311841Y0208164D01*
X0312623Y0208563D01*
X0313334Y0209079D01*
X0315013Y0211635D02*
X0371921Y0211635D01*
X0371921Y0214034D02*
X0315237Y0214034D01*
X0315278Y0213772D02*
X0315141Y0214640D01*
X0314869Y0215475D01*
X0314471Y0216257D01*
X0313955Y0216967D01*
X0313334Y0217588D01*
X0312623Y0218104D01*
X0311841Y0218503D01*
X0311006Y0218774D01*
X0310139Y0218911D01*
X0309700Y0218911D01*
X0309261Y0218911D01*
X0308394Y0218774D01*
X0307559Y0218503D01*
X0306777Y0218104D01*
X0306066Y0217588D01*
X0305445Y0216967D01*
X0304929Y0216257D01*
X0304531Y0215475D01*
X0304259Y0214640D01*
X0304122Y0213772D01*
X0304122Y0213333D01*
X0304122Y0212894D01*
X0304259Y0212027D01*
X0304531Y0211192D01*
X0304929Y0210410D01*
X0305445Y0209700D01*
X0306066Y0209079D01*
X0306777Y0208563D01*
X0307559Y0208164D01*
X0308394Y0207893D01*
X0309261Y0207755D01*
X0309700Y0207755D01*
X0309700Y0213333D01*
X0309700Y0213333D01*
X0309700Y0213333D01*
X0304122Y0213333D01*
X0309700Y0213333D01*
X0309700Y0213333D01*
X0315278Y0213333D01*
X0315278Y0213772D01*
X0314343Y0216432D02*
X0371921Y0216432D01*
X0371921Y0218831D02*
X0310648Y0218831D01*
X0309700Y0218831D02*
X0309700Y0218831D01*
X0309700Y0218911D02*
X0309700Y0213333D01*
X0309700Y0213333D01*
X0309700Y0218911D01*
X0308752Y0218831D02*
X0186100Y0218831D01*
X0186100Y0221229D02*
X0371921Y0221229D01*
X0371921Y0223628D02*
X0312713Y0223628D01*
X0312623Y0223563D02*
X0313334Y0224079D01*
X0313955Y0224700D01*
X0314471Y0225410D01*
X0314869Y0226192D01*
X0315141Y0227027D01*
X0315278Y0227894D01*
X0315278Y0228333D01*
X0309700Y0228333D01*
X0309700Y0222755D01*
X0310139Y0222755D01*
X0311006Y0222893D01*
X0311841Y0223164D01*
X0312623Y0223563D01*
X0309700Y0223628D02*
X0309700Y0223628D01*
X0309700Y0222755D02*
X0309700Y0228333D01*
X0309700Y0228333D01*
X0309700Y0228333D01*
X0304122Y0228333D01*
X0304122Y0227894D01*
X0304259Y0227027D01*
X0304531Y0226192D01*
X0304929Y0225410D01*
X0305445Y0224700D01*
X0306066Y0224079D01*
X0306777Y0223563D01*
X0307559Y0223164D01*
X0308394Y0222893D01*
X0309261Y0222755D01*
X0309700Y0222755D01*
X0306687Y0223628D02*
X0186100Y0223628D01*
X0186100Y0226026D02*
X0304615Y0226026D01*
X0304122Y0228333D02*
X0309700Y0228333D01*
X0309700Y0228333D01*
X0315278Y0228333D01*
X0315278Y0228772D01*
X0315141Y0229640D01*
X0314869Y0230475D01*
X0314471Y0231257D01*
X0313955Y0231967D01*
X0313334Y0232588D01*
X0312623Y0233104D01*
X0311841Y0233503D01*
X0311006Y0233774D01*
X0310139Y0233911D01*
X0309700Y0233911D01*
X0309261Y0233911D01*
X0308394Y0233774D01*
X0307559Y0233503D01*
X0306777Y0233104D01*
X0306066Y0232588D01*
X0305445Y0231967D01*
X0304929Y0231257D01*
X0304531Y0230475D01*
X0304259Y0229640D01*
X0304122Y0228772D01*
X0304122Y0228333D01*
X0304122Y0228425D02*
X0186100Y0228425D01*
X0186100Y0230823D02*
X0189746Y0230823D01*
X0190059Y0230664D02*
X0190894Y0230393D01*
X0191761Y0230255D01*
X0192200Y0230255D01*
X0192639Y0230255D01*
X0193506Y0230393D01*
X0194341Y0230664D01*
X0195123Y0231063D01*
X0195834Y0231579D01*
X0196455Y0232200D01*
X0196971Y0232910D01*
X0197369Y0233692D01*
X0197641Y0234527D01*
X0197778Y0235394D01*
X0197778Y0235833D01*
X0192200Y0235833D01*
X0192200Y0230255D01*
X0192200Y0235833D01*
X0192200Y0235833D01*
X0192200Y0235833D01*
X0186622Y0235833D01*
X0186622Y0235394D01*
X0186759Y0234527D01*
X0187031Y0233692D01*
X0187429Y0232910D01*
X0187945Y0232200D01*
X0188566Y0231579D01*
X0189277Y0231063D01*
X0190059Y0230664D01*
X0192200Y0230823D02*
X0192200Y0230823D01*
X0192200Y0233222D02*
X0192200Y0233222D01*
X0192200Y0235620D02*
X0192200Y0235620D01*
X0192200Y0235833D02*
X0192200Y0235833D01*
X0197778Y0235833D01*
X0197778Y0236272D01*
X0197641Y0237140D01*
X0197369Y0237975D01*
X0196971Y0238757D01*
X0196455Y0239467D01*
X0195834Y0240088D01*
X0195123Y0240604D01*
X0194341Y0241003D01*
X0193506Y0241274D01*
X0192639Y0241411D01*
X0192200Y0241411D01*
X0191761Y0241411D01*
X0190894Y0241274D01*
X0190059Y0241003D01*
X0189277Y0240604D01*
X0188566Y0240088D01*
X0187945Y0239467D01*
X0187429Y0238757D01*
X0187031Y0237975D01*
X0186759Y0237140D01*
X0186622Y0236272D01*
X0186622Y0235833D01*
X0192200Y0235833D01*
X0192200Y0241411D01*
X0192200Y0235833D01*
X0192200Y0235833D01*
X0192200Y0238019D02*
X0192200Y0238019D01*
X0192200Y0240417D02*
X0192200Y0240417D01*
X0189019Y0240417D02*
X0186100Y0240417D01*
X0186100Y0238019D02*
X0187053Y0238019D01*
X0186622Y0235620D02*
X0186100Y0235620D01*
X0186100Y0233222D02*
X0187270Y0233222D01*
X0194653Y0230823D02*
X0304708Y0230823D01*
X0307007Y0233222D02*
X0197130Y0233222D01*
X0197778Y0235620D02*
X0371921Y0235620D01*
X0371921Y0233222D02*
X0312393Y0233222D01*
X0309700Y0233222D02*
X0309700Y0233222D01*
X0309700Y0233911D02*
X0309700Y0228333D01*
X0309700Y0228333D01*
X0309700Y0233911D01*
X0309700Y0230823D02*
X0309700Y0230823D01*
X0309700Y0228425D02*
X0309700Y0228425D01*
X0309700Y0226026D02*
X0309700Y0226026D01*
X0314785Y0226026D02*
X0371921Y0226026D01*
X0371921Y0228425D02*
X0315278Y0228425D01*
X0314692Y0230823D02*
X0371921Y0230823D01*
X0371921Y0238019D02*
X0311394Y0238019D01*
X0311006Y0237893D02*
X0311841Y0238164D01*
X0312623Y0238563D01*
X0313334Y0239079D01*
X0313955Y0239700D01*
X0314471Y0240410D01*
X0314869Y0241192D01*
X0315141Y0242027D01*
X0315278Y0242894D01*
X0315278Y0243333D01*
X0309700Y0243333D01*
X0309700Y0237755D01*
X0310139Y0237755D01*
X0311006Y0237893D01*
X0309700Y0238019D02*
X0309700Y0238019D01*
X0309700Y0237755D02*
X0309700Y0243333D01*
X0309700Y0243333D01*
X0309700Y0243333D01*
X0304122Y0243333D01*
X0304122Y0242894D01*
X0304259Y0242027D01*
X0304531Y0241192D01*
X0304929Y0240410D01*
X0305445Y0239700D01*
X0306066Y0239079D01*
X0306777Y0238563D01*
X0307559Y0238164D01*
X0308394Y0237893D01*
X0309261Y0237755D01*
X0309700Y0237755D01*
X0308006Y0238019D02*
X0197347Y0238019D01*
X0195381Y0240417D02*
X0304926Y0240417D01*
X0304134Y0242816D02*
X0186100Y0242816D01*
X0186100Y0245214D02*
X0304446Y0245214D01*
X0304531Y0245475D02*
X0304259Y0244640D01*
X0304122Y0243772D01*
X0304122Y0243333D01*
X0309700Y0243333D01*
X0309700Y0243333D01*
X0315278Y0243333D01*
X0315278Y0243772D01*
X0315141Y0244640D01*
X0314869Y0245475D01*
X0314471Y0246257D01*
X0313955Y0246967D01*
X0313334Y0247588D01*
X0312623Y0248104D01*
X0311841Y0248503D01*
X0311006Y0248774D01*
X0310139Y0248911D01*
X0309700Y0248911D01*
X0309261Y0248911D01*
X0308394Y0248774D01*
X0307559Y0248503D01*
X0306777Y0248104D01*
X0306066Y0247588D01*
X0305445Y0246967D01*
X0304929Y0246257D01*
X0304531Y0245475D01*
X0306100Y0247613D02*
X0186100Y0247613D01*
X0186100Y0250011D02*
X0371921Y0250011D01*
X0371921Y0247613D02*
X0313300Y0247613D01*
X0314954Y0245214D02*
X0371921Y0245214D01*
X0371921Y0242816D02*
X0315265Y0242816D01*
X0314474Y0240417D02*
X0371921Y0240417D01*
X0371921Y0252410D02*
X0193504Y0252410D01*
X0190896Y0252410D02*
X0186100Y0252410D01*
X0186100Y0254808D02*
X0187280Y0254808D01*
X0182200Y0258333D02*
X0192200Y0268333D01*
X0212200Y0268333D01*
X0210267Y0273996D02*
X0193141Y0273996D01*
X0195540Y0276395D02*
X0371921Y0276395D01*
X0371921Y0278793D02*
X0197938Y0278793D01*
X0200337Y0281192D02*
X0371921Y0281192D01*
X0371921Y0283590D02*
X0256225Y0283590D01*
X0255712Y0283077D02*
X0257456Y0284821D01*
X0258400Y0287100D01*
X0258400Y0289567D01*
X0257456Y0291845D01*
X0255712Y0293589D01*
X0253433Y0294533D01*
X0250967Y0294533D01*
X0248688Y0293589D01*
X0246944Y0291845D01*
X0246000Y0289567D01*
X0246000Y0287100D01*
X0246944Y0284821D01*
X0248688Y0283077D01*
X0250967Y0282133D01*
X0253433Y0282133D01*
X0255712Y0283077D01*
X0257940Y0285989D02*
X0371921Y0285989D01*
X0371921Y0288387D02*
X0333530Y0288387D01*
X0333873Y0288563D02*
X0334584Y0289079D01*
X0335205Y0289700D01*
X0335721Y0290410D01*
X0336119Y0291192D01*
X0336391Y0292027D01*
X0336528Y0292894D01*
X0336528Y0293333D01*
X0330950Y0293333D01*
X0330950Y0287755D01*
X0331389Y0287755D01*
X0332256Y0287893D01*
X0333091Y0288164D01*
X0333873Y0288563D01*
X0330950Y0288387D02*
X0330950Y0288387D01*
X0330950Y0287755D02*
X0330950Y0293333D01*
X0330950Y0293333D01*
X0330950Y0293333D01*
X0325372Y0293333D01*
X0325372Y0292894D01*
X0325509Y0292027D01*
X0325781Y0291192D01*
X0326179Y0290410D01*
X0326695Y0289700D01*
X0327316Y0289079D01*
X0328027Y0288563D01*
X0328809Y0288164D01*
X0329644Y0287893D01*
X0330511Y0287755D01*
X0330950Y0287755D01*
X0328370Y0288387D02*
X0258400Y0288387D01*
X0257895Y0290786D02*
X0325988Y0290786D01*
X0325372Y0293184D02*
X0274926Y0293184D01*
X0277339Y0295583D02*
X0325836Y0295583D01*
X0325781Y0295475D02*
X0325509Y0294640D01*
X0325372Y0293772D01*
X0325372Y0293333D01*
X0330950Y0293333D01*
X0330950Y0293333D01*
X0336528Y0293333D01*
X0336528Y0293772D01*
X0336391Y0294640D01*
X0336119Y0295475D01*
X0335721Y0296257D01*
X0335205Y0296967D01*
X0334584Y0297588D01*
X0333873Y0298104D01*
X0333091Y0298503D01*
X0332256Y0298774D01*
X0331389Y0298911D01*
X0330950Y0298911D01*
X0330511Y0298911D01*
X0329644Y0298774D01*
X0328809Y0298503D01*
X0328027Y0298104D01*
X0327316Y0297588D01*
X0326695Y0296967D01*
X0326179Y0296257D01*
X0325781Y0295475D01*
X0327858Y0297981D02*
X0278000Y0297981D01*
X0277630Y0300380D02*
X0371921Y0300380D01*
X0371921Y0302779D02*
X0275957Y0302779D01*
X0277170Y0305177D02*
X0371921Y0305177D01*
X0371921Y0307576D02*
X0278000Y0307576D01*
X0277798Y0309974D02*
X0371921Y0309974D01*
X0371921Y0312373D02*
X0276363Y0312373D01*
X0276840Y0314771D02*
X0371921Y0314771D01*
X0371921Y0317170D02*
X0277996Y0317170D01*
X0277966Y0319568D02*
X0371921Y0319568D01*
X0371921Y0321967D02*
X0296222Y0321967D01*
X0296455Y0322200D02*
X0296971Y0322910D01*
X0297369Y0323692D01*
X0297641Y0324527D01*
X0297778Y0325394D01*
X0297778Y0325833D01*
X0292200Y0325833D01*
X0292200Y0320255D01*
X0292639Y0320255D01*
X0293506Y0320393D01*
X0294341Y0320664D01*
X0295123Y0321063D01*
X0295834Y0321579D01*
X0296455Y0322200D01*
X0297588Y0324365D02*
X0371921Y0324365D01*
X0371921Y0326764D02*
X0297700Y0326764D01*
X0297641Y0327140D02*
X0297369Y0327975D01*
X0296971Y0328757D01*
X0296455Y0329467D01*
X0295834Y0330088D01*
X0295123Y0330604D01*
X0294341Y0331003D01*
X0293506Y0331274D01*
X0292639Y0331411D01*
X0292200Y0331411D01*
X0291761Y0331411D01*
X0290894Y0331274D01*
X0290059Y0331003D01*
X0289277Y0330604D01*
X0288566Y0330088D01*
X0287945Y0329467D01*
X0287429Y0328757D01*
X0287031Y0327975D01*
X0286759Y0327140D01*
X0286622Y0326272D01*
X0286622Y0325833D01*
X0286622Y0325394D01*
X0286759Y0324527D01*
X0287031Y0323692D01*
X0287429Y0322910D01*
X0287945Y0322200D01*
X0288566Y0321579D01*
X0289277Y0321063D01*
X0290059Y0320664D01*
X0290894Y0320393D01*
X0291761Y0320255D01*
X0292200Y0320255D01*
X0292200Y0325833D01*
X0292200Y0325833D01*
X0292200Y0325833D01*
X0286622Y0325833D01*
X0292200Y0325833D01*
X0292200Y0325833D01*
X0297778Y0325833D01*
X0297778Y0326272D01*
X0297641Y0327140D01*
X0296676Y0329162D02*
X0371921Y0329162D01*
X0371921Y0331561D02*
X0277700Y0331561D01*
X0277700Y0333959D02*
X0371921Y0333959D01*
X0371921Y0336358D02*
X0277700Y0336358D01*
X0277700Y0338756D02*
X0371921Y0338756D01*
X0371921Y0341155D02*
X0277800Y0341155D01*
X0280198Y0343553D02*
X0371921Y0343553D01*
X0371921Y0345952D02*
X0282597Y0345952D01*
X0284995Y0348350D02*
X0371921Y0348350D01*
X0371921Y0350749D02*
X0353779Y0350749D01*
X0353279Y0350481D02*
X0354509Y0351139D01*
X0355669Y0351914D01*
X0356748Y0352799D01*
X0357734Y0353786D01*
X0358619Y0354864D01*
X0359394Y0356024D01*
X0360052Y0357255D01*
X0360586Y0358544D01*
X0360991Y0359879D01*
X0361263Y0361247D01*
X0361351Y0362133D01*
X0348400Y0362133D01*
X0348400Y0349183D01*
X0349286Y0349270D01*
X0350654Y0349542D01*
X0351990Y0349947D01*
X0353279Y0350481D01*
X0357096Y0353147D02*
X0371921Y0353147D01*
X0371921Y0355546D02*
X0359075Y0355546D01*
X0360338Y0357944D02*
X0371921Y0357944D01*
X0371921Y0360343D02*
X0361083Y0360343D01*
X0361351Y0364533D02*
X0361263Y0365419D01*
X0360991Y0366788D01*
X0360586Y0368123D01*
X0360052Y0369412D01*
X0359394Y0370642D01*
X0358619Y0371802D01*
X0357734Y0372881D01*
X0356748Y0373868D01*
X0355669Y0374753D01*
X0354509Y0375528D01*
X0353279Y0376185D01*
X0351990Y0376719D01*
X0350654Y0377124D01*
X0349286Y0377397D01*
X0348400Y0377484D01*
X0348400Y0364533D01*
X0361351Y0364533D01*
X0361291Y0365140D02*
X0371921Y0365140D01*
X0371921Y0367538D02*
X0360763Y0367538D01*
X0359772Y0369937D02*
X0371921Y0369937D01*
X0371921Y0372335D02*
X0358182Y0372335D01*
X0355692Y0374734D02*
X0371921Y0374734D01*
X0371921Y0377132D02*
X0350614Y0377132D01*
X0348400Y0377132D02*
X0346000Y0377132D01*
X0346000Y0377484D02*
X0345114Y0377397D01*
X0343746Y0377124D01*
X0342410Y0376719D01*
X0341121Y0376185D01*
X0339891Y0375528D01*
X0338731Y0374753D01*
X0337652Y0373868D01*
X0336666Y0372881D01*
X0335781Y0371802D01*
X0335006Y0370642D01*
X0334348Y0369412D01*
X0333814Y0368123D01*
X0333409Y0366788D01*
X0333137Y0365419D01*
X0333049Y0364533D01*
X0346000Y0364533D01*
X0346000Y0362133D01*
X0348400Y0362133D01*
X0348400Y0364533D01*
X0346000Y0364533D01*
X0346000Y0377484D01*
X0343786Y0377132D02*
X0035614Y0377132D01*
X0035654Y0377124D02*
X0034286Y0377397D01*
X0033400Y0377484D01*
X0033400Y0364533D01*
X0046351Y0364533D01*
X0046263Y0365419D01*
X0045991Y0366788D01*
X0045586Y0368123D01*
X0045052Y0369412D01*
X0044394Y0370642D01*
X0043619Y0371802D01*
X0042734Y0372881D01*
X0041748Y0373868D01*
X0040669Y0374753D01*
X0039509Y0375528D01*
X0038279Y0376185D01*
X0036990Y0376719D01*
X0035654Y0377124D01*
X0033400Y0377132D02*
X0031000Y0377132D01*
X0031000Y0377484D02*
X0030114Y0377397D01*
X0028746Y0377124D01*
X0027410Y0376719D01*
X0026121Y0376185D01*
X0024891Y0375528D01*
X0023731Y0374753D01*
X0022652Y0373868D01*
X0021666Y0372881D01*
X0020781Y0371802D01*
X0020006Y0370642D01*
X0019348Y0369412D01*
X0018814Y0368123D01*
X0018409Y0366788D01*
X0018137Y0365419D01*
X0018049Y0364533D01*
X0031000Y0364533D01*
X0031000Y0362133D01*
X0033400Y0362133D01*
X0033400Y0349183D01*
X0034286Y0349270D01*
X0035654Y0349542D01*
X0036990Y0349947D01*
X0038279Y0350481D01*
X0039509Y0351139D01*
X0040669Y0351914D01*
X0041748Y0352799D01*
X0042734Y0353786D01*
X0043619Y0354864D01*
X0044394Y0356024D01*
X0045052Y0357255D01*
X0045586Y0358544D01*
X0045991Y0359879D01*
X0046263Y0361247D01*
X0046351Y0362133D01*
X0033400Y0362133D01*
X0033400Y0364533D01*
X0031000Y0364533D01*
X0031000Y0377484D01*
X0028786Y0377132D02*
X0007400Y0377132D01*
X0007400Y0374734D02*
X0023708Y0374734D01*
X0021218Y0372335D02*
X0007400Y0372335D01*
X0007400Y0369937D02*
X0019628Y0369937D01*
X0018637Y0367538D02*
X0007400Y0367538D01*
X0007400Y0365140D02*
X0018109Y0365140D01*
X0018049Y0362133D02*
X0018137Y0361247D01*
X0018409Y0359879D01*
X0018814Y0358544D01*
X0019348Y0357255D01*
X0020006Y0356024D01*
X0020781Y0354864D01*
X0021666Y0353786D01*
X0022652Y0352799D01*
X0023731Y0351914D01*
X0024891Y0351139D01*
X0026121Y0350481D01*
X0027410Y0349947D01*
X0028746Y0349542D01*
X0030114Y0349270D01*
X0031000Y0349183D01*
X0031000Y0362133D01*
X0018049Y0362133D01*
X0018317Y0360343D02*
X0007400Y0360343D01*
X0007400Y0362741D02*
X0031000Y0362741D01*
X0031000Y0360343D02*
X0033400Y0360343D01*
X0033400Y0362741D02*
X0080820Y0362741D01*
X0079813Y0360343D02*
X0075469Y0360343D01*
X0077732Y0357944D02*
X0079618Y0357944D01*
X0080021Y0355546D02*
X0080135Y0355546D01*
X0084600Y0350749D02*
X0085444Y0350749D01*
X0086890Y0348350D02*
X0176400Y0348350D01*
X0176400Y0349487D02*
X0176400Y0347180D01*
X0177283Y0345048D01*
X0178915Y0343416D01*
X0179115Y0343333D01*
X0178915Y0343250D01*
X0177283Y0341619D01*
X0176400Y0339487D01*
X0176400Y0337180D01*
X0177283Y0335048D01*
X0177598Y0334733D01*
X0175927Y0334733D01*
X0173575Y0333759D01*
X0171774Y0331959D01*
X0170800Y0329606D01*
X0170800Y0327060D01*
X0171774Y0324708D01*
X0173575Y0322908D01*
X0175927Y0321933D01*
X0178473Y0321933D01*
X0179634Y0322414D01*
X0161131Y0303911D01*
X0161090Y0303911D01*
X0159040Y0303062D01*
X0157471Y0301493D01*
X0156622Y0299443D01*
X0156622Y0297224D01*
X0157471Y0295174D01*
X0158989Y0293656D01*
X0158950Y0293636D01*
X0158161Y0293062D01*
X0157471Y0292372D01*
X0156897Y0291583D01*
X0156454Y0290713D01*
X0156153Y0289785D01*
X0156000Y0288821D01*
X0156000Y0288333D01*
X0156000Y0287845D01*
X0156153Y0286881D01*
X0156454Y0285953D01*
X0156897Y0285084D01*
X0157471Y0284294D01*
X0158161Y0283604D01*
X0158950Y0283031D01*
X0159820Y0282588D01*
X0160748Y0282286D01*
X0161712Y0282133D01*
X0162200Y0282133D01*
X0162200Y0288333D01*
X0162200Y0282133D01*
X0162688Y0282133D01*
X0163652Y0282286D01*
X0164580Y0282588D01*
X0165450Y0283031D01*
X0166239Y0283604D01*
X0166929Y0284294D01*
X0167503Y0285084D01*
X0167946Y0285953D01*
X0168247Y0286881D01*
X0168400Y0287845D01*
X0168400Y0288333D01*
X0162200Y0288333D01*
X0162200Y0288333D01*
X0162200Y0288333D01*
X0156000Y0288333D01*
X0162200Y0288333D01*
X0162200Y0288333D01*
X0168400Y0288333D01*
X0168400Y0288821D01*
X0168247Y0289785D01*
X0167946Y0290713D01*
X0167503Y0291583D01*
X0166929Y0292372D01*
X0166239Y0293062D01*
X0165450Y0293636D01*
X0165411Y0293656D01*
X0166929Y0295174D01*
X0167778Y0297224D01*
X0167778Y0297264D01*
X0203047Y0332533D01*
X0203354Y0332533D01*
X0205485Y0333416D01*
X0207117Y0335048D01*
X0208000Y0337180D01*
X0208000Y0339487D01*
X0207117Y0341619D01*
X0205485Y0343250D01*
X0205285Y0343333D01*
X0205485Y0343416D01*
X0207117Y0345048D01*
X0208000Y0347180D01*
X0208000Y0349487D01*
X0207117Y0351619D01*
X0205485Y0353250D01*
X0203354Y0354133D01*
X0201046Y0354133D01*
X0198915Y0353250D01*
X0197283Y0351619D01*
X0196400Y0349487D01*
X0196400Y0347180D01*
X0197283Y0345048D01*
X0198915Y0343416D01*
X0199115Y0343333D01*
X0198915Y0343250D01*
X0197283Y0341619D01*
X0196400Y0339487D01*
X0196400Y0339180D01*
X0183119Y0325899D01*
X0183600Y0327060D01*
X0183600Y0329606D01*
X0182626Y0331959D01*
X0182051Y0332533D01*
X0183354Y0332533D01*
X0185485Y0333416D01*
X0187117Y0335048D01*
X0188000Y0337180D01*
X0188000Y0339487D01*
X0187117Y0341619D01*
X0185485Y0343250D01*
X0185285Y0343333D01*
X0185485Y0343416D01*
X0187117Y0345048D01*
X0188000Y0347180D01*
X0188000Y0349487D01*
X0187117Y0351619D01*
X0185485Y0353250D01*
X0183354Y0354133D01*
X0181046Y0354133D01*
X0178915Y0353250D01*
X0177283Y0351619D01*
X0176400Y0349487D01*
X0176923Y0350749D02*
X0108639Y0350749D01*
X0108556Y0350726D02*
X0109536Y0350989D01*
X0110473Y0351377D01*
X0111352Y0351884D01*
X0112156Y0352502D01*
X0112874Y0353219D01*
X0113491Y0354024D01*
X0113999Y0354903D01*
X0114387Y0355840D01*
X0114649Y0356820D01*
X0114782Y0357826D01*
X0114782Y0357959D01*
X0107417Y0357959D01*
X0107417Y0358708D01*
X0106668Y0358708D01*
X0106668Y0366073D01*
X0106535Y0366073D01*
X0105529Y0365940D01*
X0104549Y0365678D01*
X0103612Y0365289D01*
X0102734Y0364782D01*
X0101929Y0364165D01*
X0101211Y0363447D01*
X0100594Y0362642D01*
X0100086Y0361764D01*
X0099698Y0360826D01*
X0099436Y0359846D01*
X0099303Y0358841D01*
X0099303Y0358708D01*
X0106668Y0358708D01*
X0106668Y0357959D01*
X0099303Y0357959D01*
X0099303Y0357826D01*
X0099436Y0356820D01*
X0099698Y0355840D01*
X0100086Y0354903D01*
X0100594Y0354024D01*
X0101211Y0353219D01*
X0101929Y0352502D01*
X0102734Y0351884D01*
X0103612Y0351377D01*
X0104549Y0350989D01*
X0105529Y0350726D01*
X0106535Y0350594D01*
X0106668Y0350594D01*
X0106668Y0357958D01*
X0107417Y0357958D01*
X0107417Y0350594D01*
X0107550Y0350594D01*
X0108556Y0350726D01*
X0107417Y0350749D02*
X0106668Y0350749D01*
X0105446Y0350749D02*
X0089271Y0350749D01*
X0093117Y0353147D02*
X0101283Y0353147D01*
X0099820Y0355546D02*
X0094580Y0355546D01*
X0095097Y0357944D02*
X0099303Y0357944D01*
X0099569Y0360343D02*
X0094902Y0360343D01*
X0093895Y0362741D02*
X0100670Y0362741D01*
X0103353Y0365140D02*
X0091149Y0365140D01*
X0083566Y0365140D02*
X0046291Y0365140D01*
X0045763Y0367538D02*
X0333637Y0367538D01*
X0333109Y0365140D02*
X0253929Y0365140D01*
X0253582Y0365283D02*
X0250818Y0365283D01*
X0248263Y0364225D01*
X0246308Y0362270D01*
X0245250Y0359716D01*
X0245250Y0356951D01*
X0246308Y0354396D01*
X0248263Y0352441D01*
X0250818Y0351383D01*
X0253582Y0351383D01*
X0256137Y0352441D01*
X0258092Y0354396D01*
X0259150Y0356951D01*
X0259150Y0359716D01*
X0258092Y0362270D01*
X0256137Y0364225D01*
X0253582Y0365283D01*
X0250471Y0365140D02*
X0223651Y0365140D01*
X0223559Y0365164D02*
X0222656Y0365283D01*
X0222300Y0365283D01*
X0222300Y0358433D01*
X0229150Y0358433D01*
X0229150Y0358789D01*
X0229031Y0359692D01*
X0228795Y0360572D01*
X0228447Y0361414D01*
X0227991Y0362203D01*
X0227436Y0362926D01*
X0226792Y0363570D01*
X0226069Y0364124D01*
X0225280Y0364580D01*
X0224439Y0364929D01*
X0223559Y0365164D01*
X0222300Y0365140D02*
X0222100Y0365140D01*
X0222100Y0365283D02*
X0221744Y0365283D01*
X0220841Y0365164D01*
X0219961Y0364929D01*
X0219119Y0364580D01*
X0218330Y0364124D01*
X0217608Y0363570D01*
X0216963Y0362926D01*
X0216409Y0362203D01*
X0215953Y0361414D01*
X0215605Y0360572D01*
X0215369Y0359692D01*
X0215250Y0358789D01*
X0215250Y0358433D01*
X0222100Y0358433D01*
X0222100Y0358233D01*
X0222300Y0358233D01*
X0222300Y0351383D01*
X0222656Y0351383D01*
X0223559Y0351502D01*
X0224439Y0351738D01*
X0225280Y0352087D01*
X0226069Y0352542D01*
X0226792Y0353097D01*
X0227436Y0353741D01*
X0227991Y0354464D01*
X0228447Y0355253D01*
X0228795Y0356095D01*
X0229031Y0356975D01*
X0229150Y0357878D01*
X0229150Y0358233D01*
X0222300Y0358233D01*
X0222300Y0358433D01*
X0222100Y0358433D01*
X0222100Y0365283D01*
X0220749Y0365140D02*
X0133929Y0365140D01*
X0133582Y0365283D02*
X0130818Y0365283D01*
X0128263Y0364225D01*
X0126308Y0362270D01*
X0125250Y0359716D01*
X0125250Y0356951D01*
X0126308Y0354396D01*
X0128263Y0352441D01*
X0130818Y0351383D01*
X0133582Y0351383D01*
X0136137Y0352441D01*
X0138092Y0354396D01*
X0139150Y0356951D01*
X0139150Y0359716D01*
X0138092Y0362270D01*
X0136137Y0364225D01*
X0133582Y0365283D01*
X0130471Y0365140D02*
X0110732Y0365140D01*
X0110473Y0365289D02*
X0109536Y0365678D01*
X0108556Y0365940D01*
X0107550Y0366073D01*
X0107417Y0366073D01*
X0107417Y0358708D01*
X0114782Y0358708D01*
X0114782Y0358841D01*
X0114649Y0359846D01*
X0114387Y0360826D01*
X0113999Y0361764D01*
X0113491Y0362642D01*
X0112874Y0363447D01*
X0112156Y0364165D01*
X0111352Y0364782D01*
X0110473Y0365289D01*
X0107417Y0365140D02*
X0106668Y0365140D01*
X0106668Y0362741D02*
X0107417Y0362741D01*
X0107417Y0360343D02*
X0106668Y0360343D01*
X0106668Y0357944D02*
X0107417Y0357944D01*
X0107417Y0355546D02*
X0106668Y0355546D01*
X0106668Y0353147D02*
X0107417Y0353147D01*
X0112802Y0353147D02*
X0127557Y0353147D01*
X0125832Y0355546D02*
X0114265Y0355546D01*
X0114782Y0357944D02*
X0125250Y0357944D01*
X0125510Y0360343D02*
X0114516Y0360343D01*
X0113415Y0362741D02*
X0126779Y0362741D01*
X0137621Y0362741D02*
X0216822Y0362741D01*
X0215543Y0360343D02*
X0138890Y0360343D01*
X0139150Y0357944D02*
X0215250Y0357944D01*
X0215250Y0357878D02*
X0215369Y0356975D01*
X0215605Y0356095D01*
X0215953Y0355253D01*
X0216409Y0354464D01*
X0216963Y0353741D01*
X0217608Y0353097D01*
X0218330Y0352542D01*
X0219119Y0352087D01*
X0219961Y0351738D01*
X0220841Y0351502D01*
X0221744Y0351383D01*
X0222100Y0351383D01*
X0222100Y0358233D01*
X0215250Y0358233D01*
X0215250Y0357878D01*
X0215832Y0355546D02*
X0138568Y0355546D01*
X0136843Y0353147D02*
X0178811Y0353147D01*
X0185589Y0353147D02*
X0198811Y0353147D01*
X0196923Y0350749D02*
X0187477Y0350749D01*
X0188000Y0348350D02*
X0196400Y0348350D01*
X0196909Y0345952D02*
X0187491Y0345952D01*
X0185622Y0343553D02*
X0198778Y0343553D01*
X0197091Y0341155D02*
X0187309Y0341155D01*
X0188000Y0338756D02*
X0195976Y0338756D01*
X0193578Y0336358D02*
X0187660Y0336358D01*
X0186028Y0333959D02*
X0191179Y0333959D01*
X0188781Y0331561D02*
X0182791Y0331561D01*
X0183600Y0329162D02*
X0186382Y0329162D01*
X0183984Y0326764D02*
X0183477Y0326764D01*
X0179186Y0321967D02*
X0178553Y0321967D01*
X0175847Y0321967D02*
X0121900Y0321967D01*
X0121900Y0324365D02*
X0127419Y0324365D01*
X0127471Y0324294D02*
X0126897Y0325084D01*
X0126454Y0325953D01*
X0126153Y0326881D01*
X0126000Y0327845D01*
X0126000Y0328333D01*
X0132200Y0328333D01*
X0132200Y0322133D01*
X0132200Y0328333D01*
X0132200Y0328333D01*
X0132200Y0328333D01*
X0138400Y0328333D01*
X0138400Y0327845D01*
X0138247Y0326881D01*
X0137946Y0325953D01*
X0137503Y0325084D01*
X0136929Y0324294D01*
X0136239Y0323604D01*
X0135450Y0323031D01*
X0134580Y0322588D01*
X0133652Y0322286D01*
X0132688Y0322133D01*
X0132200Y0322133D01*
X0131712Y0322133D01*
X0130748Y0322286D01*
X0129820Y0322588D01*
X0128950Y0323031D01*
X0128161Y0323604D01*
X0127471Y0324294D01*
X0126191Y0326764D02*
X0122277Y0326764D01*
X0121900Y0326387D02*
X0126691Y0331177D01*
X0126454Y0330713D01*
X0126153Y0329785D01*
X0126000Y0328821D01*
X0126000Y0328333D01*
X0132200Y0328333D01*
X0132200Y0328333D01*
X0138400Y0328333D01*
X0138400Y0328821D01*
X0138247Y0329785D01*
X0137946Y0330713D01*
X0137503Y0331583D01*
X0136929Y0332372D01*
X0136239Y0333062D01*
X0135925Y0333290D01*
X0137456Y0334821D01*
X0138400Y0337100D01*
X0138400Y0339567D01*
X0137456Y0341845D01*
X0135712Y0343589D01*
X0133433Y0344533D01*
X0130967Y0344533D01*
X0128688Y0343589D01*
X0128132Y0343033D01*
X0126265Y0343033D01*
X0124538Y0342318D01*
X0123216Y0340996D01*
X0113216Y0330996D01*
X0112500Y0329268D01*
X0112500Y0282398D01*
X0113216Y0280671D01*
X0114538Y0279349D01*
X0142500Y0251387D01*
X0142500Y0191522D01*
X0142471Y0191493D01*
X0141622Y0189443D01*
X0141622Y0187224D01*
X0142471Y0185174D01*
X0144040Y0183605D01*
X0146090Y0182755D01*
X0148310Y0182755D01*
X0150360Y0183605D01*
X0151929Y0185174D01*
X0152778Y0187224D01*
X0152778Y0189443D01*
X0151929Y0191493D01*
X0151900Y0191522D01*
X0151900Y0254268D01*
X0151184Y0255996D01*
X0121900Y0285280D01*
X0121900Y0326387D01*
X0124676Y0329162D02*
X0126054Y0329162D01*
X0132200Y0326764D02*
X0132200Y0326764D01*
X0132200Y0324365D02*
X0132200Y0324365D01*
X0136981Y0324365D02*
X0157400Y0324365D01*
X0156944Y0324821D02*
X0158688Y0323077D01*
X0160967Y0322133D01*
X0163433Y0322133D01*
X0165712Y0323077D01*
X0167456Y0324821D01*
X0168400Y0327100D01*
X0168400Y0329567D01*
X0167456Y0331845D01*
X0165968Y0333333D01*
X0167456Y0334821D01*
X0168400Y0337100D01*
X0168400Y0339567D01*
X0167456Y0341845D01*
X0165712Y0343589D01*
X0163433Y0344533D01*
X0160967Y0344533D01*
X0158688Y0343589D01*
X0156944Y0341845D01*
X0156000Y0339567D01*
X0156000Y0337100D01*
X0156944Y0334821D01*
X0158432Y0333333D01*
X0156944Y0331845D01*
X0156000Y0329567D01*
X0156000Y0327100D01*
X0156944Y0324821D01*
X0156139Y0326764D02*
X0138209Y0326764D01*
X0138346Y0329162D02*
X0156000Y0329162D01*
X0156826Y0331561D02*
X0137514Y0331561D01*
X0136594Y0333959D02*
X0157806Y0333959D01*
X0156308Y0336358D02*
X0138092Y0336358D01*
X0138400Y0338756D02*
X0156000Y0338756D01*
X0156658Y0341155D02*
X0137742Y0341155D01*
X0135748Y0343553D02*
X0158652Y0343553D01*
X0165748Y0343553D02*
X0178778Y0343553D01*
X0177091Y0341155D02*
X0167742Y0341155D01*
X0168400Y0338756D02*
X0176400Y0338756D01*
X0176740Y0336358D02*
X0168092Y0336358D01*
X0166594Y0333959D02*
X0174058Y0333959D01*
X0171609Y0331561D02*
X0167574Y0331561D01*
X0168400Y0329162D02*
X0170800Y0329162D01*
X0170923Y0326764D02*
X0168261Y0326764D01*
X0167000Y0324365D02*
X0172117Y0324365D01*
X0176788Y0319568D02*
X0121900Y0319568D01*
X0121900Y0317170D02*
X0174389Y0317170D01*
X0171991Y0314771D02*
X0121900Y0314771D01*
X0121900Y0312373D02*
X0169592Y0312373D01*
X0167194Y0309974D02*
X0121900Y0309974D01*
X0121900Y0307576D02*
X0164795Y0307576D01*
X0162397Y0305177D02*
X0121900Y0305177D01*
X0121900Y0302779D02*
X0158757Y0302779D01*
X0157010Y0300380D02*
X0121900Y0300380D01*
X0121900Y0297981D02*
X0156622Y0297981D01*
X0157302Y0295583D02*
X0121900Y0295583D01*
X0121900Y0293184D02*
X0128329Y0293184D01*
X0128161Y0293062D02*
X0127471Y0292372D01*
X0126897Y0291583D01*
X0126454Y0290713D01*
X0126153Y0289785D01*
X0126000Y0288821D01*
X0126000Y0288333D01*
X0126000Y0287845D01*
X0126153Y0286881D01*
X0126454Y0285953D01*
X0126897Y0285084D01*
X0127471Y0284294D01*
X0128161Y0283604D01*
X0128950Y0283031D01*
X0129820Y0282588D01*
X0130748Y0282286D01*
X0131712Y0282133D01*
X0132200Y0282133D01*
X0132200Y0288333D01*
X0132200Y0282133D01*
X0132688Y0282133D01*
X0133652Y0282286D01*
X0134580Y0282588D01*
X0135450Y0283031D01*
X0136239Y0283604D01*
X0136929Y0284294D01*
X0137503Y0285084D01*
X0137946Y0285953D01*
X0138247Y0286881D01*
X0138400Y0287845D01*
X0138400Y0288333D01*
X0132200Y0288333D01*
X0132200Y0288333D01*
X0132200Y0288333D01*
X0126000Y0288333D01*
X0132200Y0288333D01*
X0132200Y0288333D01*
X0138400Y0288333D01*
X0138400Y0288821D01*
X0138247Y0289785D01*
X0137946Y0290713D01*
X0137503Y0291583D01*
X0136929Y0292372D01*
X0136239Y0293062D01*
X0135450Y0293636D01*
X0134580Y0294079D01*
X0133652Y0294381D01*
X0132688Y0294533D01*
X0132200Y0294533D01*
X0131712Y0294533D01*
X0130748Y0294381D01*
X0129820Y0294079D01*
X0128950Y0293636D01*
X0128161Y0293062D01*
X0126491Y0290786D02*
X0121900Y0290786D01*
X0121900Y0288387D02*
X0126000Y0288387D01*
X0126443Y0285989D02*
X0121900Y0285989D01*
X0123590Y0283590D02*
X0128180Y0283590D01*
X0125988Y0281192D02*
X0184780Y0281192D01*
X0182382Y0278793D02*
X0128387Y0278793D01*
X0130785Y0276395D02*
X0179983Y0276395D01*
X0177585Y0273996D02*
X0164133Y0273996D01*
X0160267Y0273996D02*
X0133184Y0273996D01*
X0135582Y0271598D02*
X0157089Y0271598D01*
X0156228Y0269199D02*
X0137981Y0269199D01*
X0140379Y0266801D02*
X0156371Y0266801D01*
X0157686Y0264402D02*
X0142778Y0264402D01*
X0145176Y0262004D02*
X0158300Y0262004D01*
X0158300Y0259605D02*
X0147575Y0259605D01*
X0149973Y0257207D02*
X0158300Y0257207D01*
X0158300Y0254808D02*
X0151676Y0254808D01*
X0151900Y0252410D02*
X0158300Y0252410D01*
X0158300Y0250011D02*
X0151900Y0250011D01*
X0151900Y0247613D02*
X0158300Y0247613D01*
X0157459Y0245214D02*
X0151900Y0245214D01*
X0151900Y0242816D02*
X0156622Y0242816D01*
X0156853Y0240417D02*
X0151900Y0240417D01*
X0151900Y0238019D02*
X0158376Y0238019D01*
X0162200Y0242083D02*
X0162200Y0268333D01*
X0166714Y0264402D02*
X0167991Y0264402D01*
X0168029Y0266801D02*
X0170389Y0266801D01*
X0168172Y0269199D02*
X0172788Y0269199D01*
X0175186Y0271598D02*
X0167311Y0271598D01*
X0173637Y0283001D02*
X0174363Y0282581D01*
X0175138Y0282260D01*
X0175949Y0282043D01*
X0176781Y0281933D01*
X0177200Y0281933D01*
X0177200Y0288333D01*
X0177200Y0281933D01*
X0177619Y0281933D01*
X0178451Y0282043D01*
X0179262Y0282260D01*
X0180037Y0282581D01*
X0180763Y0283001D01*
X0181429Y0283511D01*
X0182022Y0284104D01*
X0182533Y0284770D01*
X0182952Y0285497D01*
X0183273Y0286272D01*
X0183490Y0287082D01*
X0183600Y0287914D01*
X0183600Y0288333D01*
X0177200Y0288333D01*
X0177200Y0288333D01*
X0170800Y0288333D01*
X0170800Y0287914D01*
X0170910Y0287082D01*
X0171127Y0286272D01*
X0171448Y0285497D01*
X0171867Y0284770D01*
X0172378Y0284104D01*
X0172971Y0283511D01*
X0173637Y0283001D01*
X0172892Y0283590D02*
X0166220Y0283590D01*
X0167957Y0285989D02*
X0171244Y0285989D01*
X0170800Y0288333D02*
X0177200Y0288333D01*
X0177200Y0288333D01*
X0177200Y0288333D01*
X0183600Y0288333D01*
X0183600Y0288753D01*
X0183490Y0289585D01*
X0183273Y0290395D01*
X0182952Y0291170D01*
X0182533Y0291897D01*
X0182022Y0292562D01*
X0181429Y0293155D01*
X0180763Y0293666D01*
X0180037Y0294086D01*
X0179262Y0294407D01*
X0178451Y0294624D01*
X0177619Y0294733D01*
X0177200Y0294733D01*
X0176781Y0294733D01*
X0175949Y0294624D01*
X0175138Y0294407D01*
X0174363Y0294086D01*
X0173637Y0293666D01*
X0172971Y0293155D01*
X0172378Y0292562D01*
X0171867Y0291897D01*
X0171448Y0291170D01*
X0171127Y0290395D01*
X0170910Y0289585D01*
X0170800Y0288753D01*
X0170800Y0288333D01*
X0170800Y0288387D02*
X0168400Y0288387D01*
X0167909Y0290786D02*
X0171289Y0290786D01*
X0173009Y0293184D02*
X0166071Y0293184D01*
X0167098Y0295583D02*
X0186622Y0295583D01*
X0186622Y0295833D02*
X0192200Y0295833D01*
X0197778Y0295833D01*
X0197778Y0296272D01*
X0197641Y0297140D01*
X0197369Y0297975D01*
X0196971Y0298757D01*
X0196455Y0299467D01*
X0195834Y0300088D01*
X0195123Y0300604D01*
X0194341Y0301003D01*
X0193506Y0301274D01*
X0192639Y0301411D01*
X0192200Y0301411D01*
X0191761Y0301411D01*
X0190894Y0301274D01*
X0190059Y0301003D01*
X0189277Y0300604D01*
X0188566Y0300088D01*
X0187945Y0299467D01*
X0187429Y0298757D01*
X0187031Y0297975D01*
X0186759Y0297140D01*
X0186622Y0296272D01*
X0186622Y0295833D01*
X0187034Y0297981D02*
X0168495Y0297981D01*
X0170893Y0300380D02*
X0188968Y0300380D01*
X0192200Y0300380D02*
X0192200Y0300380D01*
X0192200Y0301411D02*
X0192200Y0295833D01*
X0192200Y0295833D01*
X0192200Y0301411D01*
X0195432Y0300380D02*
X0203858Y0300380D01*
X0201570Y0297981D02*
X0197366Y0297981D01*
X0197778Y0295583D02*
X0199171Y0295583D01*
X0192200Y0295583D02*
X0192200Y0295583D01*
X0192200Y0297981D02*
X0192200Y0297981D01*
X0192200Y0293184D02*
X0192200Y0293184D01*
X0192200Y0290786D02*
X0192200Y0290786D01*
X0189820Y0290786D02*
X0183111Y0290786D01*
X0183600Y0288387D02*
X0191976Y0288387D01*
X0189577Y0285989D02*
X0183156Y0285989D01*
X0181508Y0283590D02*
X0187179Y0283590D01*
X0187289Y0293184D02*
X0181391Y0293184D01*
X0177200Y0293184D02*
X0177200Y0293184D01*
X0177200Y0294733D02*
X0177200Y0288333D01*
X0177200Y0288333D01*
X0177200Y0294733D01*
X0177200Y0290786D02*
X0177200Y0290786D01*
X0177200Y0288387D02*
X0177200Y0288387D01*
X0177200Y0285989D02*
X0177200Y0285989D01*
X0177200Y0283590D02*
X0177200Y0283590D01*
X0162200Y0283590D02*
X0162200Y0283590D01*
X0162200Y0285989D02*
X0162200Y0285989D01*
X0158180Y0283590D02*
X0136220Y0283590D01*
X0137957Y0285989D02*
X0156443Y0285989D01*
X0156000Y0288387D02*
X0138400Y0288387D01*
X0137909Y0290786D02*
X0156491Y0290786D01*
X0158329Y0293184D02*
X0136071Y0293184D01*
X0132200Y0293184D02*
X0132200Y0293184D01*
X0132200Y0294533D02*
X0132200Y0288333D01*
X0132200Y0288333D01*
X0132200Y0294533D01*
X0132200Y0290786D02*
X0132200Y0290786D01*
X0132200Y0288387D02*
X0132200Y0288387D01*
X0132200Y0285989D02*
X0132200Y0285989D01*
X0132200Y0283590D02*
X0132200Y0283590D01*
X0122289Y0271598D02*
X0110259Y0271598D01*
X0110500Y0272180D02*
X0109617Y0270048D01*
X0107985Y0268416D01*
X0107785Y0268333D01*
X0107985Y0268250D01*
X0109617Y0266619D01*
X0110500Y0264487D01*
X0110500Y0262180D01*
X0109617Y0260048D01*
X0107985Y0258416D01*
X0105854Y0257533D01*
X0103546Y0257533D01*
X0101415Y0258416D01*
X0099783Y0260048D01*
X0098900Y0262180D01*
X0098900Y0264487D01*
X0099783Y0266619D01*
X0101415Y0268250D01*
X0101615Y0268333D01*
X0101415Y0268416D01*
X0099783Y0270048D01*
X0098900Y0272180D01*
X0098900Y0274487D01*
X0099783Y0276619D01*
X0101415Y0278250D01*
X0103546Y0279133D01*
X0105854Y0279133D01*
X0107985Y0278250D01*
X0109617Y0276619D01*
X0110500Y0274487D01*
X0110500Y0272180D01*
X0110500Y0273996D02*
X0119890Y0273996D01*
X0117492Y0276395D02*
X0109710Y0276395D01*
X0106674Y0278793D02*
X0115093Y0278793D01*
X0113000Y0281192D02*
X0092837Y0281192D01*
X0095235Y0283590D02*
X0112500Y0283590D01*
X0112500Y0285989D02*
X0097634Y0285989D01*
X0100032Y0288387D02*
X0112500Y0288387D01*
X0112500Y0290786D02*
X0102098Y0290786D01*
X0102700Y0293184D02*
X0112500Y0293184D01*
X0112500Y0295583D02*
X0102700Y0295583D01*
X0102700Y0297981D02*
X0112500Y0297981D01*
X0112500Y0300380D02*
X0102700Y0300380D01*
X0102700Y0302779D02*
X0112500Y0302779D01*
X0112500Y0305177D02*
X0102700Y0305177D01*
X0102700Y0307576D02*
X0112500Y0307576D01*
X0112500Y0309974D02*
X0102700Y0309974D01*
X0102700Y0312373D02*
X0112500Y0312373D01*
X0112500Y0314771D02*
X0102700Y0314771D01*
X0102700Y0317170D02*
X0112500Y0317170D01*
X0112500Y0319568D02*
X0102700Y0319568D01*
X0102700Y0321967D02*
X0112500Y0321967D01*
X0112500Y0324365D02*
X0102700Y0324365D01*
X0102700Y0326764D02*
X0112500Y0326764D01*
X0112500Y0329162D02*
X0102700Y0329162D01*
X0102334Y0331561D02*
X0113781Y0331561D01*
X0116179Y0333959D02*
X0100627Y0333959D01*
X0098337Y0336358D02*
X0118578Y0336358D01*
X0120976Y0338756D02*
X0096048Y0338756D01*
X0093758Y0341155D02*
X0123375Y0341155D01*
X0128652Y0343553D02*
X0091469Y0343553D01*
X0089179Y0345952D02*
X0176909Y0345952D01*
X0197277Y0326764D02*
X0216139Y0326764D01*
X0216000Y0327100D02*
X0216944Y0324821D01*
X0218688Y0323077D01*
X0220967Y0322133D01*
X0223433Y0322133D01*
X0225712Y0323077D01*
X0227456Y0324821D01*
X0228400Y0327100D01*
X0228400Y0329567D01*
X0227456Y0331845D01*
X0225968Y0333333D01*
X0227456Y0334821D01*
X0228400Y0337100D01*
X0228400Y0339567D01*
X0227456Y0341845D01*
X0225712Y0343589D01*
X0223433Y0344533D01*
X0220967Y0344533D01*
X0218688Y0343589D01*
X0216944Y0341845D01*
X0216000Y0339567D01*
X0216000Y0337100D01*
X0216944Y0334821D01*
X0218432Y0333333D01*
X0216944Y0331845D01*
X0216000Y0329567D01*
X0216000Y0327100D01*
X0216000Y0329162D02*
X0199676Y0329162D01*
X0202074Y0331561D02*
X0216826Y0331561D01*
X0217806Y0333959D02*
X0206028Y0333959D01*
X0207660Y0336358D02*
X0216308Y0336358D01*
X0216000Y0338756D02*
X0208000Y0338756D01*
X0207309Y0341155D02*
X0216658Y0341155D01*
X0218652Y0343553D02*
X0205622Y0343553D01*
X0207491Y0345952D02*
X0267331Y0345952D01*
X0266700Y0343553D02*
X0255748Y0343553D01*
X0255712Y0343589D02*
X0253433Y0344533D01*
X0250967Y0344533D01*
X0248688Y0343589D01*
X0246944Y0341845D01*
X0246000Y0339567D01*
X0246000Y0337100D01*
X0246944Y0334821D01*
X0248475Y0333290D01*
X0248161Y0333062D01*
X0247471Y0332372D01*
X0246897Y0331583D01*
X0246454Y0330713D01*
X0246153Y0329785D01*
X0246000Y0328821D01*
X0246000Y0328333D01*
X0246000Y0327845D01*
X0246153Y0326881D01*
X0246454Y0325953D01*
X0246897Y0325084D01*
X0247471Y0324294D01*
X0248161Y0323604D01*
X0248950Y0323031D01*
X0249820Y0322588D01*
X0250748Y0322286D01*
X0251712Y0322133D01*
X0252200Y0322133D01*
X0252200Y0328333D01*
X0252200Y0322133D01*
X0252688Y0322133D01*
X0253652Y0322286D01*
X0254580Y0322588D01*
X0255450Y0323031D01*
X0256239Y0323604D01*
X0256929Y0324294D01*
X0257503Y0325084D01*
X0257946Y0325953D01*
X0258247Y0326881D01*
X0258400Y0327845D01*
X0258400Y0328333D01*
X0252200Y0328333D01*
X0252200Y0328333D01*
X0246000Y0328333D01*
X0252200Y0328333D01*
X0252200Y0328333D01*
X0252200Y0328333D01*
X0258400Y0328333D01*
X0258400Y0328821D01*
X0258247Y0329785D01*
X0257946Y0330713D01*
X0257503Y0331583D01*
X0256929Y0332372D01*
X0256239Y0333062D01*
X0255925Y0333290D01*
X0257456Y0334821D01*
X0258400Y0337100D01*
X0258400Y0339567D01*
X0257456Y0341845D01*
X0255712Y0343589D01*
X0257742Y0341155D02*
X0266700Y0341155D01*
X0266700Y0338756D02*
X0258400Y0338756D01*
X0258092Y0336358D02*
X0266700Y0336358D01*
X0266700Y0333959D02*
X0256594Y0333959D01*
X0257514Y0331561D02*
X0266700Y0331561D01*
X0266700Y0329162D02*
X0258346Y0329162D01*
X0258209Y0326764D02*
X0266700Y0326764D01*
X0266700Y0324365D02*
X0256981Y0324365D01*
X0252200Y0324365D02*
X0252200Y0324365D01*
X0252200Y0326764D02*
X0252200Y0326764D01*
X0247419Y0324365D02*
X0227000Y0324365D01*
X0228261Y0326764D02*
X0246191Y0326764D01*
X0246054Y0329162D02*
X0228400Y0329162D01*
X0227574Y0331561D02*
X0246886Y0331561D01*
X0247806Y0333959D02*
X0226594Y0333959D01*
X0228092Y0336358D02*
X0246308Y0336358D01*
X0246000Y0338756D02*
X0228400Y0338756D01*
X0227742Y0341155D02*
X0246658Y0341155D01*
X0248652Y0343553D02*
X0225748Y0343553D01*
X0226843Y0353147D02*
X0247557Y0353147D01*
X0245832Y0355546D02*
X0228568Y0355546D01*
X0229150Y0357944D02*
X0245250Y0357944D01*
X0245510Y0360343D02*
X0228857Y0360343D01*
X0227578Y0362741D02*
X0246779Y0362741D01*
X0257621Y0362741D02*
X0283830Y0362741D01*
X0281431Y0360343D02*
X0258890Y0360343D01*
X0259150Y0357944D02*
X0279033Y0357944D01*
X0276634Y0355546D02*
X0258568Y0355546D01*
X0256843Y0353147D02*
X0274236Y0353147D01*
X0271837Y0350749D02*
X0207477Y0350749D01*
X0208000Y0348350D02*
X0269439Y0348350D01*
X0287394Y0350749D02*
X0340621Y0350749D01*
X0341121Y0350481D02*
X0342410Y0349947D01*
X0343746Y0349542D01*
X0345114Y0349270D01*
X0346000Y0349183D01*
X0346000Y0362133D01*
X0333049Y0362133D01*
X0333137Y0361247D01*
X0333409Y0359879D01*
X0333814Y0358544D01*
X0334348Y0357255D01*
X0335006Y0356024D01*
X0335781Y0354864D01*
X0336666Y0353786D01*
X0337652Y0352799D01*
X0338731Y0351914D01*
X0339891Y0351139D01*
X0341121Y0350481D01*
X0337304Y0353147D02*
X0321756Y0353147D01*
X0324583Y0355546D02*
X0335325Y0355546D01*
X0334062Y0357944D02*
X0325278Y0357944D01*
X0324905Y0360343D02*
X0333317Y0360343D01*
X0334628Y0369937D02*
X0044772Y0369937D01*
X0043182Y0372335D02*
X0336218Y0372335D01*
X0338708Y0374734D02*
X0040692Y0374734D01*
X0033400Y0374734D02*
X0031000Y0374734D01*
X0031000Y0372335D02*
X0033400Y0372335D01*
X0033400Y0369937D02*
X0031000Y0369937D01*
X0031000Y0367538D02*
X0033400Y0367538D01*
X0033400Y0365140D02*
X0031000Y0365140D01*
X0031000Y0357944D02*
X0033400Y0357944D01*
X0033400Y0355546D02*
X0031000Y0355546D01*
X0031000Y0353147D02*
X0033400Y0353147D01*
X0033400Y0350749D02*
X0031000Y0350749D01*
X0025621Y0350749D02*
X0007400Y0350749D01*
X0007400Y0353147D02*
X0022304Y0353147D01*
X0020325Y0355546D02*
X0007400Y0355546D01*
X0007400Y0357944D02*
X0019062Y0357944D01*
X0007400Y0348350D02*
X0071683Y0348350D01*
X0073972Y0345952D02*
X0007400Y0345952D01*
X0007400Y0343553D02*
X0076262Y0343553D01*
X0078551Y0341155D02*
X0007400Y0341155D01*
X0007400Y0338756D02*
X0080841Y0338756D01*
X0083130Y0336358D02*
X0007400Y0336358D01*
X0007400Y0333959D02*
X0085420Y0333959D01*
X0087709Y0331561D02*
X0007400Y0331561D01*
X0007400Y0329162D02*
X0089999Y0329162D01*
X0091700Y0326764D02*
X0087748Y0326764D01*
X0087623Y0326854D02*
X0086841Y0327253D01*
X0086006Y0327524D01*
X0085139Y0327661D01*
X0084700Y0327661D01*
X0084261Y0327661D01*
X0083394Y0327524D01*
X0082559Y0327253D01*
X0081777Y0326854D01*
X0081066Y0326338D01*
X0080445Y0325717D01*
X0079929Y0325007D01*
X0079531Y0324225D01*
X0079259Y0323390D01*
X0079122Y0322522D01*
X0079122Y0322083D01*
X0079122Y0321644D01*
X0079259Y0320777D01*
X0079531Y0319942D01*
X0079929Y0319160D01*
X0080445Y0318450D01*
X0081066Y0317829D01*
X0081777Y0317313D01*
X0082559Y0316914D01*
X0083394Y0316643D01*
X0084261Y0316505D01*
X0084700Y0316505D01*
X0085139Y0316505D01*
X0086006Y0316643D01*
X0086841Y0316914D01*
X0087623Y0317313D01*
X0088334Y0317829D01*
X0088955Y0318450D01*
X0089471Y0319160D01*
X0089869Y0319942D01*
X0090141Y0320777D01*
X0090278Y0321644D01*
X0090278Y0322083D01*
X0084700Y0322083D01*
X0084700Y0316505D01*
X0084700Y0322083D01*
X0084700Y0322083D01*
X0084700Y0322083D01*
X0079122Y0322083D01*
X0084700Y0322083D01*
X0084700Y0322083D01*
X0090278Y0322083D01*
X0090278Y0322522D01*
X0090141Y0323390D01*
X0089869Y0324225D01*
X0089471Y0325007D01*
X0088955Y0325717D01*
X0088334Y0326338D01*
X0087623Y0326854D01*
X0084700Y0326764D02*
X0084700Y0326764D01*
X0084700Y0327661D02*
X0084700Y0322083D01*
X0084700Y0322083D01*
X0084700Y0327661D01*
X0081652Y0326764D02*
X0007400Y0326764D01*
X0007400Y0324365D02*
X0079602Y0324365D01*
X0079122Y0321967D02*
X0007400Y0321967D01*
X0007400Y0319568D02*
X0079721Y0319568D01*
X0082057Y0317170D02*
X0007400Y0317170D01*
X0007400Y0314771D02*
X0018249Y0314771D01*
X0016800Y0312373D02*
X0007400Y0312373D01*
X0007400Y0309974D02*
X0016622Y0309974D01*
X0016700Y0307576D02*
X0007400Y0307576D01*
X0007400Y0305177D02*
X0016700Y0305177D01*
X0016700Y0302779D02*
X0007400Y0302779D01*
X0007400Y0300380D02*
X0016700Y0300380D01*
X0016700Y0297981D02*
X0007400Y0297981D01*
X0007400Y0295583D02*
X0016700Y0295583D01*
X0016700Y0293184D02*
X0007400Y0293184D01*
X0007400Y0290786D02*
X0016700Y0290786D01*
X0016700Y0288387D02*
X0007400Y0288387D01*
X0007400Y0285989D02*
X0016700Y0285989D01*
X0016700Y0283590D02*
X0007400Y0283590D01*
X0007400Y0281192D02*
X0016700Y0281192D01*
X0016700Y0278793D02*
X0007400Y0278793D01*
X0007400Y0276395D02*
X0016700Y0276395D01*
X0016700Y0273996D02*
X0007400Y0273996D01*
X0007400Y0271598D02*
X0016700Y0271598D01*
X0016924Y0269199D02*
X0007400Y0269199D01*
X0007400Y0266801D02*
X0018454Y0266801D01*
X0020853Y0264402D02*
X0007400Y0264402D01*
X0007400Y0262004D02*
X0023251Y0262004D01*
X0025650Y0259605D02*
X0007400Y0259605D01*
X0007400Y0257207D02*
X0028048Y0257207D01*
X0030447Y0254808D02*
X0007400Y0254808D01*
X0007400Y0252410D02*
X0032845Y0252410D01*
X0035244Y0250011D02*
X0007400Y0250011D01*
X0007400Y0247613D02*
X0037642Y0247613D01*
X0037688Y0244533D02*
X0037200Y0244533D01*
X0037200Y0238333D01*
X0037200Y0232133D01*
X0037688Y0232133D01*
X0038652Y0232286D01*
X0039580Y0232588D01*
X0040450Y0233031D01*
X0041239Y0233604D01*
X0041929Y0234294D01*
X0042503Y0235084D01*
X0042946Y0235953D01*
X0043247Y0236881D01*
X0043400Y0237845D01*
X0043400Y0238333D01*
X0037200Y0238333D01*
X0037200Y0238333D01*
X0037200Y0232133D01*
X0036712Y0232133D01*
X0035748Y0232286D01*
X0034820Y0232588D01*
X0033950Y0233031D01*
X0033161Y0233604D01*
X0032471Y0234294D01*
X0032243Y0234608D01*
X0030712Y0233077D01*
X0028433Y0232133D01*
X0025967Y0232133D01*
X0023688Y0233077D01*
X0021944Y0234821D01*
X0021000Y0237100D01*
X0021000Y0239567D01*
X0021944Y0241845D01*
X0023688Y0243589D01*
X0025967Y0244533D01*
X0028433Y0244533D01*
X0030712Y0243589D01*
X0032243Y0242059D01*
X0032471Y0242372D01*
X0033161Y0243062D01*
X0033950Y0243636D01*
X0034820Y0244079D01*
X0035748Y0244381D01*
X0036712Y0244533D01*
X0037200Y0244533D01*
X0037200Y0238333D01*
X0037200Y0238333D01*
X0043400Y0238333D01*
X0043400Y0238821D01*
X0043247Y0239785D01*
X0042946Y0240713D01*
X0042503Y0241583D01*
X0041929Y0242372D01*
X0041239Y0243062D01*
X0040450Y0243636D01*
X0039580Y0244079D01*
X0038652Y0244381D01*
X0037688Y0244533D01*
X0037200Y0242816D02*
X0037200Y0242816D01*
X0037200Y0240417D02*
X0037200Y0240417D01*
X0037200Y0238333D02*
X0037200Y0238333D01*
X0037200Y0238019D02*
X0037200Y0238019D01*
X0037200Y0235620D02*
X0037200Y0235620D01*
X0037200Y0233222D02*
X0037200Y0233222D01*
X0040712Y0233222D02*
X0052033Y0233222D01*
X0049635Y0235620D02*
X0042776Y0235620D01*
X0043400Y0238019D02*
X0047236Y0238019D01*
X0044838Y0240417D02*
X0043042Y0240417D01*
X0042439Y0242816D02*
X0041486Y0242816D01*
X0040041Y0245214D02*
X0007400Y0245214D01*
X0007400Y0242816D02*
X0022914Y0242816D01*
X0021352Y0240417D02*
X0007400Y0240417D01*
X0007400Y0238019D02*
X0021000Y0238019D01*
X0021613Y0235620D02*
X0007400Y0235620D01*
X0007400Y0233222D02*
X0023544Y0233222D01*
X0030856Y0233222D02*
X0033687Y0233222D01*
X0032914Y0242816D02*
X0031486Y0242816D01*
X0043605Y0257207D02*
X0080548Y0257207D01*
X0082947Y0254808D02*
X0046003Y0254808D01*
X0048402Y0252410D02*
X0085345Y0252410D01*
X0086700Y0250011D02*
X0050800Y0250011D01*
X0053199Y0247613D02*
X0086700Y0247613D01*
X0086700Y0245214D02*
X0055597Y0245214D01*
X0057996Y0242816D02*
X0072914Y0242816D01*
X0073688Y0243589D02*
X0071944Y0241845D01*
X0071000Y0239567D01*
X0071000Y0237100D01*
X0071944Y0234821D01*
X0073688Y0233077D01*
X0075967Y0232133D01*
X0078433Y0232133D01*
X0080712Y0233077D01*
X0082456Y0234821D01*
X0083400Y0237100D01*
X0083400Y0239567D01*
X0082456Y0241845D01*
X0080712Y0243589D01*
X0078433Y0244533D01*
X0075967Y0244533D01*
X0073688Y0243589D01*
X0071352Y0240417D02*
X0060394Y0240417D01*
X0062793Y0238019D02*
X0071000Y0238019D01*
X0071613Y0235620D02*
X0065191Y0235620D01*
X0067590Y0233222D02*
X0073544Y0233222D01*
X0069988Y0230823D02*
X0086700Y0230823D01*
X0086700Y0228425D02*
X0072387Y0228425D01*
X0080856Y0233222D02*
X0086700Y0233222D01*
X0086700Y0235620D02*
X0082787Y0235620D01*
X0083400Y0238019D02*
X0086700Y0238019D01*
X0086700Y0240417D02*
X0083048Y0240417D01*
X0081486Y0242816D02*
X0086700Y0242816D01*
X0097700Y0242816D02*
X0126634Y0242816D01*
X0126622Y0242894D02*
X0126759Y0242027D01*
X0127031Y0241192D01*
X0127429Y0240410D01*
X0127945Y0239700D01*
X0128566Y0239079D01*
X0129277Y0238563D01*
X0130059Y0238164D01*
X0130894Y0237893D01*
X0131761Y0237755D01*
X0132200Y0237755D01*
X0132639Y0237755D01*
X0133506Y0237893D01*
X0134341Y0238164D01*
X0135123Y0238563D01*
X0135834Y0239079D01*
X0136455Y0239700D01*
X0136971Y0240410D01*
X0137369Y0241192D01*
X0137641Y0242027D01*
X0137778Y0242894D01*
X0137778Y0243333D01*
X0132200Y0243333D01*
X0132200Y0237755D01*
X0132200Y0243333D01*
X0132200Y0243333D01*
X0132200Y0243333D01*
X0126622Y0243333D01*
X0126622Y0242894D01*
X0126622Y0243333D02*
X0132200Y0243333D01*
X0132200Y0243333D01*
X0137778Y0243333D01*
X0137778Y0243772D01*
X0137641Y0244640D01*
X0137369Y0245475D01*
X0136971Y0246257D01*
X0136455Y0246967D01*
X0135834Y0247588D01*
X0135123Y0248104D01*
X0134341Y0248503D01*
X0133506Y0248774D01*
X0132639Y0248911D01*
X0132200Y0248911D01*
X0131761Y0248911D01*
X0130894Y0248774D01*
X0130059Y0248503D01*
X0129277Y0248104D01*
X0128566Y0247588D01*
X0127945Y0246967D01*
X0127429Y0246257D01*
X0127031Y0245475D01*
X0126759Y0244640D01*
X0126622Y0243772D01*
X0126622Y0243333D01*
X0126946Y0245214D02*
X0097700Y0245214D01*
X0097700Y0247613D02*
X0128600Y0247613D01*
X0132200Y0247613D02*
X0132200Y0247613D01*
X0132200Y0248911D02*
X0132200Y0243333D01*
X0132200Y0243333D01*
X0132200Y0248911D01*
X0132200Y0245214D02*
X0132200Y0245214D01*
X0132200Y0242816D02*
X0132200Y0242816D01*
X0132200Y0240417D02*
X0132200Y0240417D01*
X0132200Y0238019D02*
X0132200Y0238019D01*
X0133894Y0238019D02*
X0142500Y0238019D01*
X0142500Y0240417D02*
X0136974Y0240417D01*
X0137765Y0242816D02*
X0142500Y0242816D01*
X0142500Y0245214D02*
X0137454Y0245214D01*
X0135800Y0247613D02*
X0142500Y0247613D01*
X0142500Y0250011D02*
X0097700Y0250011D01*
X0097700Y0252410D02*
X0141477Y0252410D01*
X0139078Y0254808D02*
X0097542Y0254808D01*
X0096105Y0257207D02*
X0136680Y0257207D01*
X0134281Y0259605D02*
X0109174Y0259605D01*
X0110427Y0262004D02*
X0131883Y0262004D01*
X0129484Y0264402D02*
X0110500Y0264402D01*
X0109435Y0266801D02*
X0127086Y0266801D01*
X0124687Y0269199D02*
X0108768Y0269199D01*
X0100632Y0269199D02*
X0087700Y0269199D01*
X0087700Y0266801D02*
X0099965Y0266801D01*
X0098900Y0264402D02*
X0088909Y0264402D01*
X0091308Y0262004D02*
X0098973Y0262004D01*
X0100226Y0259605D02*
X0093706Y0259605D01*
X0099141Y0271598D02*
X0087700Y0271598D01*
X0087700Y0273996D02*
X0098900Y0273996D01*
X0099690Y0276395D02*
X0088040Y0276395D01*
X0090438Y0278793D02*
X0102726Y0278793D01*
X0086874Y0290786D02*
X0027700Y0290786D01*
X0027700Y0293184D02*
X0089273Y0293184D01*
X0091671Y0295583D02*
X0027700Y0295583D01*
X0027700Y0297981D02*
X0091700Y0297981D01*
X0091700Y0300380D02*
X0027700Y0300380D01*
X0027700Y0302779D02*
X0091700Y0302779D01*
X0091700Y0305177D02*
X0027700Y0305177D01*
X0027700Y0307576D02*
X0091700Y0307576D01*
X0091700Y0309974D02*
X0027778Y0309974D01*
X0027600Y0312373D02*
X0091700Y0312373D01*
X0091700Y0314771D02*
X0026151Y0314771D01*
X0027700Y0288387D02*
X0047333Y0288387D01*
X0047559Y0288503D02*
X0046777Y0288104D01*
X0046066Y0287588D01*
X0045445Y0286967D01*
X0044929Y0286257D01*
X0044531Y0285475D01*
X0044259Y0284640D01*
X0044122Y0283772D01*
X0044122Y0283333D01*
X0044122Y0282894D01*
X0044259Y0282027D01*
X0044531Y0281192D01*
X0027700Y0281192D01*
X0027700Y0283590D02*
X0044122Y0283590D01*
X0044122Y0283333D02*
X0049700Y0283333D01*
X0049700Y0277755D01*
X0050139Y0277755D01*
X0051006Y0277893D01*
X0051841Y0278164D01*
X0052623Y0278563D01*
X0053334Y0279079D01*
X0053955Y0279700D01*
X0054471Y0280410D01*
X0054869Y0281192D01*
X0077431Y0281192D01*
X0076700Y0278793D02*
X0052941Y0278793D01*
X0054869Y0281192D02*
X0055141Y0282027D01*
X0055278Y0282894D01*
X0055278Y0283333D01*
X0049700Y0283333D01*
X0049700Y0283333D01*
X0049700Y0277755D01*
X0049261Y0277755D01*
X0048394Y0277893D01*
X0047559Y0278164D01*
X0046777Y0278563D01*
X0046066Y0279079D01*
X0045445Y0279700D01*
X0044929Y0280410D01*
X0044531Y0281192D01*
X0044122Y0283333D02*
X0049700Y0283333D01*
X0049700Y0283333D01*
X0049700Y0283333D01*
X0055278Y0283333D01*
X0055278Y0283772D01*
X0055141Y0284640D01*
X0054869Y0285475D01*
X0054471Y0286257D01*
X0053955Y0286967D01*
X0053334Y0287588D01*
X0052623Y0288104D01*
X0051841Y0288503D01*
X0051006Y0288774D01*
X0050139Y0288911D01*
X0049700Y0288911D01*
X0049261Y0288911D01*
X0048394Y0288774D01*
X0047559Y0288503D01*
X0049700Y0288387D02*
X0049700Y0288387D01*
X0049700Y0288911D02*
X0049700Y0283333D01*
X0049700Y0283333D01*
X0049700Y0288911D01*
X0052067Y0288387D02*
X0084476Y0288387D01*
X0082077Y0285989D02*
X0054607Y0285989D01*
X0055278Y0283590D02*
X0079679Y0283590D01*
X0076700Y0276395D02*
X0027700Y0276395D01*
X0027700Y0278793D02*
X0046459Y0278793D01*
X0049700Y0278793D02*
X0049700Y0278793D01*
X0049700Y0281192D02*
X0049700Y0281192D01*
X0049700Y0283590D02*
X0049700Y0283590D01*
X0049700Y0285989D02*
X0049700Y0285989D01*
X0044793Y0285989D02*
X0027700Y0285989D01*
X0027700Y0273996D02*
X0076700Y0273996D01*
X0076700Y0271598D02*
X0029214Y0271598D01*
X0031612Y0269199D02*
X0076700Y0269199D01*
X0067465Y0266801D02*
X0066935Y0266801D01*
X0066674Y0259605D02*
X0067726Y0259605D01*
X0076674Y0259605D02*
X0077726Y0259605D01*
X0057726Y0259605D02*
X0041206Y0259605D01*
X0038808Y0262004D02*
X0056473Y0262004D01*
X0056400Y0264402D02*
X0036409Y0264402D01*
X0034011Y0266801D02*
X0057465Y0266801D01*
X0054432Y0230823D02*
X0007400Y0230823D01*
X0007400Y0228425D02*
X0056830Y0228425D01*
X0059229Y0226026D02*
X0007400Y0226026D01*
X0007400Y0223628D02*
X0061628Y0223628D01*
X0064026Y0221229D02*
X0007400Y0221229D01*
X0007400Y0218831D02*
X0066425Y0218831D01*
X0068823Y0216432D02*
X0007400Y0216432D01*
X0007400Y0214034D02*
X0024760Y0214034D01*
X0023688Y0213589D02*
X0025967Y0214533D01*
X0028433Y0214533D01*
X0030712Y0213589D01*
X0032200Y0212101D01*
X0033688Y0213589D01*
X0035967Y0214533D01*
X0038433Y0214533D01*
X0040712Y0213589D01*
X0042456Y0211845D01*
X0043400Y0209567D01*
X0043400Y0207100D01*
X0042456Y0204821D01*
X0040712Y0203077D01*
X0038433Y0202133D01*
X0035967Y0202133D01*
X0033688Y0203077D01*
X0032200Y0204565D01*
X0030712Y0203077D01*
X0028433Y0202133D01*
X0025967Y0202133D01*
X0023688Y0203077D01*
X0021944Y0204821D01*
X0021000Y0207100D01*
X0021000Y0209567D01*
X0021944Y0211845D01*
X0023688Y0213589D01*
X0021857Y0211635D02*
X0007400Y0211635D01*
X0007400Y0209237D02*
X0021000Y0209237D01*
X0021109Y0206838D02*
X0007400Y0206838D01*
X0007400Y0204440D02*
X0022326Y0204440D01*
X0032074Y0204440D02*
X0032326Y0204440D01*
X0035927Y0194733D02*
X0033575Y0193759D01*
X0031774Y0191959D01*
X0030800Y0189606D01*
X0030800Y0187060D01*
X0031774Y0184708D01*
X0033575Y0182908D01*
X0035927Y0181933D01*
X0038473Y0181933D01*
X0040825Y0182908D01*
X0042626Y0184708D01*
X0043600Y0187060D01*
X0043600Y0189606D01*
X0042626Y0191959D01*
X0040825Y0193759D01*
X0038473Y0194733D01*
X0035927Y0194733D01*
X0032263Y0192447D02*
X0007400Y0192447D01*
X0007400Y0194845D02*
X0086700Y0194845D01*
X0086700Y0192447D02*
X0082110Y0192447D01*
X0082022Y0192562D02*
X0081429Y0193155D01*
X0080763Y0193666D01*
X0080037Y0194086D01*
X0079262Y0194407D01*
X0078451Y0194624D01*
X0077619Y0194733D01*
X0077200Y0194733D01*
X0076781Y0194733D01*
X0075949Y0194624D01*
X0075138Y0194407D01*
X0074363Y0194086D01*
X0073637Y0193666D01*
X0072971Y0193155D01*
X0072378Y0192562D01*
X0071867Y0191897D01*
X0071448Y0191170D01*
X0071127Y0190395D01*
X0070910Y0189585D01*
X0070800Y0188753D01*
X0070800Y0188333D01*
X0070800Y0187914D01*
X0070910Y0187082D01*
X0071127Y0186272D01*
X0071448Y0185497D01*
X0071867Y0184770D01*
X0072378Y0184104D01*
X0072971Y0183511D01*
X0073637Y0183001D01*
X0074363Y0182581D01*
X0075138Y0182260D01*
X0075949Y0182043D01*
X0076781Y0181933D01*
X0077200Y0181933D01*
X0077619Y0181933D01*
X0078451Y0182043D01*
X0079262Y0182260D01*
X0080037Y0182581D01*
X0080763Y0183001D01*
X0081429Y0183511D01*
X0082022Y0184104D01*
X0082533Y0184770D01*
X0082952Y0185497D01*
X0083273Y0186272D01*
X0083490Y0187082D01*
X0083600Y0187914D01*
X0083600Y0188333D01*
X0077200Y0188333D01*
X0077200Y0181933D01*
X0077200Y0188333D01*
X0077200Y0188333D01*
X0077200Y0188333D01*
X0070800Y0188333D01*
X0077200Y0188333D01*
X0077200Y0188333D01*
X0083600Y0188333D01*
X0083600Y0188753D01*
X0083490Y0189585D01*
X0083273Y0190395D01*
X0082952Y0191170D01*
X0082533Y0191897D01*
X0082022Y0192562D01*
X0083366Y0190048D02*
X0086700Y0190048D01*
X0086700Y0187650D02*
X0083565Y0187650D01*
X0082811Y0185251D02*
X0086700Y0185251D01*
X0086700Y0182853D02*
X0080508Y0182853D01*
X0077200Y0182853D02*
X0077200Y0182853D01*
X0077200Y0185251D02*
X0077200Y0185251D01*
X0077200Y0187650D02*
X0077200Y0187650D01*
X0077200Y0188333D02*
X0077200Y0194733D01*
X0077200Y0188333D01*
X0077200Y0188333D01*
X0077200Y0190048D02*
X0077200Y0190048D01*
X0077200Y0192447D02*
X0077200Y0192447D01*
X0072290Y0192447D02*
X0042137Y0192447D01*
X0043417Y0190048D02*
X0071034Y0190048D01*
X0070835Y0187650D02*
X0043600Y0187650D01*
X0042851Y0185251D02*
X0071589Y0185251D01*
X0073892Y0182853D02*
X0040693Y0182853D01*
X0033707Y0182853D02*
X0021929Y0182853D01*
X0021971Y0182910D02*
X0022369Y0183692D01*
X0022641Y0184527D01*
X0022778Y0185394D01*
X0022778Y0185833D01*
X0017200Y0185833D01*
X0017200Y0180255D01*
X0017639Y0180255D01*
X0018506Y0180393D01*
X0019341Y0180664D01*
X0020123Y0181063D01*
X0020834Y0181579D01*
X0021455Y0182200D01*
X0021971Y0182910D01*
X0022755Y0185251D02*
X0031549Y0185251D01*
X0030800Y0187650D02*
X0022475Y0187650D01*
X0022369Y0187975D02*
X0021971Y0188757D01*
X0021455Y0189467D01*
X0020834Y0190088D01*
X0020123Y0190604D01*
X0019341Y0191003D01*
X0018506Y0191274D01*
X0017639Y0191411D01*
X0017200Y0191411D01*
X0016761Y0191411D01*
X0015894Y0191274D01*
X0015059Y0191003D01*
X0014277Y0190604D01*
X0013566Y0190088D01*
X0012945Y0189467D01*
X0012429Y0188757D01*
X0012031Y0187975D01*
X0011759Y0187140D01*
X0011622Y0186272D01*
X0011622Y0185833D01*
X0011622Y0185394D01*
X0011759Y0184527D01*
X0012031Y0183692D01*
X0012429Y0182910D01*
X0012945Y0182200D01*
X0013566Y0181579D01*
X0014277Y0181063D01*
X0015059Y0180664D01*
X0015894Y0180393D01*
X0016761Y0180255D01*
X0017200Y0180255D01*
X0017200Y0185833D01*
X0017200Y0185833D01*
X0017200Y0185833D01*
X0011622Y0185833D01*
X0017200Y0185833D01*
X0017200Y0185833D01*
X0022778Y0185833D01*
X0022778Y0186272D01*
X0022641Y0187140D01*
X0022369Y0187975D01*
X0020873Y0190048D02*
X0030983Y0190048D01*
X0017200Y0190048D02*
X0017200Y0190048D01*
X0017200Y0191411D02*
X0017200Y0185833D01*
X0017200Y0185833D01*
X0017200Y0191411D01*
X0017200Y0187650D02*
X0017200Y0187650D01*
X0017200Y0185251D02*
X0017200Y0185251D01*
X0017200Y0182853D02*
X0017200Y0182853D01*
X0017200Y0180454D02*
X0017200Y0180454D01*
X0018696Y0180454D02*
X0086700Y0180454D01*
X0086700Y0178056D02*
X0007400Y0178056D01*
X0007400Y0180454D02*
X0015704Y0180454D01*
X0012471Y0182853D02*
X0007400Y0182853D01*
X0007400Y0185251D02*
X0011645Y0185251D01*
X0011925Y0187650D02*
X0007400Y0187650D01*
X0007400Y0190048D02*
X0013527Y0190048D01*
X0007400Y0197244D02*
X0086700Y0197244D01*
X0086700Y0199643D02*
X0007400Y0199643D01*
X0007400Y0202041D02*
X0086700Y0202041D01*
X0086700Y0204440D02*
X0082074Y0204440D01*
X0082456Y0204821D02*
X0080712Y0203077D01*
X0078433Y0202133D01*
X0075967Y0202133D01*
X0073688Y0203077D01*
X0071944Y0204821D01*
X0071000Y0207100D01*
X0071000Y0209567D01*
X0071944Y0211845D01*
X0073688Y0213589D01*
X0075967Y0214533D01*
X0078433Y0214533D01*
X0080712Y0213589D01*
X0082456Y0211845D01*
X0083400Y0209567D01*
X0083400Y0207100D01*
X0082456Y0204821D01*
X0083291Y0206838D02*
X0086700Y0206838D01*
X0086700Y0209237D02*
X0083400Y0209237D01*
X0082543Y0211635D02*
X0086700Y0211635D01*
X0086700Y0214034D02*
X0079640Y0214034D01*
X0074760Y0214034D02*
X0039640Y0214034D01*
X0042543Y0211635D02*
X0071857Y0211635D01*
X0071000Y0209237D02*
X0043400Y0209237D01*
X0043291Y0206838D02*
X0071109Y0206838D01*
X0072326Y0204440D02*
X0042074Y0204440D01*
X0034760Y0214034D02*
X0029640Y0214034D01*
X0028433Y0174533D02*
X0025967Y0174533D01*
X0023688Y0173589D01*
X0021944Y0171845D01*
X0021000Y0169567D01*
X0021000Y0167100D01*
X0021944Y0164821D01*
X0023688Y0163077D01*
X0025967Y0162133D01*
X0028433Y0162133D01*
X0030712Y0163077D01*
X0032200Y0164565D01*
X0033688Y0163077D01*
X0035967Y0162133D01*
X0038433Y0162133D01*
X0040712Y0163077D01*
X0042456Y0164821D01*
X0043400Y0167100D01*
X0043400Y0169567D01*
X0042456Y0171845D01*
X0040712Y0173589D01*
X0038433Y0174533D01*
X0035967Y0174533D01*
X0033688Y0173589D01*
X0032200Y0172101D01*
X0030712Y0173589D01*
X0028433Y0174533D01*
X0031043Y0173259D02*
X0033357Y0173259D01*
X0041043Y0173259D02*
X0073357Y0173259D01*
X0073688Y0173589D02*
X0071944Y0171845D01*
X0071000Y0169567D01*
X0071000Y0167100D01*
X0071944Y0164821D01*
X0073688Y0163077D01*
X0075967Y0162133D01*
X0078433Y0162133D01*
X0080712Y0163077D01*
X0082456Y0164821D01*
X0083400Y0167100D01*
X0083400Y0169567D01*
X0082456Y0171845D01*
X0080712Y0173589D01*
X0078433Y0174533D01*
X0075967Y0174533D01*
X0073688Y0173589D01*
X0071536Y0170860D02*
X0042864Y0170860D01*
X0043400Y0168462D02*
X0071000Y0168462D01*
X0071429Y0166063D02*
X0042971Y0166063D01*
X0041300Y0163665D02*
X0073100Y0163665D01*
X0081300Y0163665D02*
X0086700Y0163665D01*
X0086700Y0166063D02*
X0082971Y0166063D01*
X0083400Y0168462D02*
X0086700Y0168462D01*
X0086700Y0170860D02*
X0082864Y0170860D01*
X0081043Y0173259D02*
X0086700Y0173259D01*
X0086700Y0175657D02*
X0007400Y0175657D01*
X0007400Y0173259D02*
X0023357Y0173259D01*
X0021536Y0170860D02*
X0007400Y0170860D01*
X0007400Y0168462D02*
X0021000Y0168462D01*
X0021429Y0166063D02*
X0007400Y0166063D01*
X0007400Y0163665D02*
X0023100Y0163665D01*
X0031300Y0163665D02*
X0033100Y0163665D01*
X0036355Y0144477D02*
X0028570Y0144477D01*
X0028433Y0144533D02*
X0025967Y0144533D01*
X0023688Y0143589D01*
X0021944Y0141845D01*
X0021000Y0139567D01*
X0021000Y0137100D01*
X0021944Y0134821D01*
X0023688Y0133077D01*
X0025967Y0132133D01*
X0028433Y0132133D01*
X0030712Y0133077D01*
X0032243Y0134608D01*
X0032471Y0134294D01*
X0033161Y0133604D01*
X0033950Y0133031D01*
X0034820Y0132588D01*
X0035748Y0132286D01*
X0036712Y0132133D01*
X0037200Y0132133D01*
X0037688Y0132133D01*
X0038652Y0132286D01*
X0039580Y0132588D01*
X0040450Y0133031D01*
X0041239Y0133604D01*
X0041929Y0134294D01*
X0042503Y0135084D01*
X0042946Y0135953D01*
X0043247Y0136881D01*
X0043400Y0137845D01*
X0043400Y0138333D01*
X0037200Y0138333D01*
X0037200Y0132133D01*
X0037200Y0138333D01*
X0037200Y0138333D01*
X0037200Y0138333D01*
X0043400Y0138333D01*
X0043400Y0138821D01*
X0043247Y0139785D01*
X0042946Y0140713D01*
X0042503Y0141583D01*
X0041929Y0142372D01*
X0041239Y0143062D01*
X0040450Y0143636D01*
X0039580Y0144079D01*
X0038652Y0144381D01*
X0037688Y0144533D01*
X0037200Y0144533D01*
X0037200Y0138333D01*
X0037200Y0144533D01*
X0036712Y0144533D01*
X0035748Y0144381D01*
X0034820Y0144079D01*
X0033950Y0143636D01*
X0033161Y0143062D01*
X0032471Y0142372D01*
X0032243Y0142059D01*
X0030712Y0143589D01*
X0028433Y0144533D01*
X0025830Y0144477D02*
X0007400Y0144477D01*
X0007400Y0146875D02*
X0088270Y0146875D01*
X0086808Y0149274D02*
X0007400Y0149274D01*
X0007400Y0151672D02*
X0086622Y0151672D01*
X0086700Y0154071D02*
X0007400Y0154071D01*
X0007400Y0156469D02*
X0086700Y0156469D01*
X0086700Y0158868D02*
X0007400Y0158868D01*
X0007400Y0161266D02*
X0086700Y0161266D01*
X0097700Y0161266D02*
X0098996Y0161266D01*
X0097700Y0158868D02*
X0117419Y0158868D01*
X0116622Y0156469D02*
X0097700Y0156469D01*
X0102200Y0161266D02*
X0102200Y0161266D01*
X0102200Y0163665D02*
X0102200Y0163665D01*
X0102200Y0165833D02*
X0102200Y0165833D01*
X0107778Y0165833D01*
X0107778Y0166272D01*
X0107641Y0167140D01*
X0107369Y0167975D01*
X0106971Y0168757D01*
X0106455Y0169467D01*
X0105834Y0170088D01*
X0105123Y0170604D01*
X0104341Y0171003D01*
X0103506Y0171274D01*
X0102639Y0171411D01*
X0102200Y0171411D01*
X0102200Y0165833D01*
X0102200Y0165833D01*
X0102200Y0166063D02*
X0102200Y0166063D01*
X0102200Y0168462D02*
X0102200Y0168462D01*
X0102200Y0170860D02*
X0102200Y0170860D01*
X0099780Y0170860D02*
X0097700Y0170860D01*
X0097700Y0173259D02*
X0126622Y0173259D01*
X0126622Y0173333D02*
X0126622Y0172894D01*
X0126759Y0172027D01*
X0127031Y0171192D01*
X0127429Y0170410D01*
X0127945Y0169700D01*
X0128566Y0169079D01*
X0129277Y0168563D01*
X0130059Y0168164D01*
X0130894Y0167893D01*
X0131761Y0167755D01*
X0132200Y0167755D01*
X0132639Y0167755D01*
X0133506Y0167893D01*
X0134341Y0168164D01*
X0135123Y0168563D01*
X0135834Y0169079D01*
X0136455Y0169700D01*
X0136971Y0170410D01*
X0137369Y0171192D01*
X0137641Y0172027D01*
X0137778Y0172894D01*
X0137778Y0173333D01*
X0132200Y0173333D01*
X0132200Y0167755D01*
X0132200Y0173333D01*
X0132200Y0173333D01*
X0132200Y0173333D01*
X0126622Y0173333D01*
X0132200Y0173333D01*
X0132200Y0173333D01*
X0137778Y0173333D01*
X0137778Y0173772D01*
X0137641Y0174640D01*
X0137369Y0175475D01*
X0136971Y0176257D01*
X0136455Y0176967D01*
X0135834Y0177588D01*
X0135123Y0178104D01*
X0134341Y0178503D01*
X0133506Y0178774D01*
X0132639Y0178911D01*
X0132200Y0178911D01*
X0131761Y0178911D01*
X0130894Y0178774D01*
X0130059Y0178503D01*
X0129277Y0178104D01*
X0128566Y0177588D01*
X0127945Y0176967D01*
X0127429Y0176257D01*
X0127031Y0175475D01*
X0126759Y0174640D01*
X0126622Y0173772D01*
X0126622Y0173333D01*
X0127124Y0175657D02*
X0097700Y0175657D01*
X0097700Y0178056D02*
X0129210Y0178056D01*
X0132200Y0178056D02*
X0132200Y0178056D01*
X0132200Y0178911D02*
X0132200Y0173333D01*
X0132200Y0173333D01*
X0132200Y0178911D01*
X0135190Y0178056D02*
X0171700Y0178056D01*
X0171700Y0180454D02*
X0097700Y0180454D01*
X0097700Y0182853D02*
X0145855Y0182853D01*
X0148545Y0182853D02*
X0171700Y0182853D01*
X0171700Y0185251D02*
X0151961Y0185251D01*
X0152778Y0187650D02*
X0171700Y0187650D01*
X0171700Y0190048D02*
X0152527Y0190048D01*
X0151900Y0192447D02*
X0171700Y0192447D01*
X0171700Y0194845D02*
X0151900Y0194845D01*
X0151900Y0197244D02*
X0170511Y0197244D01*
X0168113Y0199643D02*
X0151900Y0199643D01*
X0151900Y0202041D02*
X0158104Y0202041D01*
X0156788Y0204440D02*
X0151900Y0204440D01*
X0151900Y0206838D02*
X0156712Y0206838D01*
X0157778Y0209237D02*
X0151900Y0209237D01*
X0151900Y0211635D02*
X0166700Y0211635D01*
X0166700Y0209237D02*
X0166622Y0209237D01*
X0162200Y0209237D02*
X0162200Y0209237D01*
X0162200Y0206838D02*
X0162200Y0206838D01*
X0162200Y0204440D02*
X0162200Y0204440D01*
X0162200Y0202041D02*
X0162200Y0202041D01*
X0166296Y0202041D02*
X0166782Y0202041D01*
X0166700Y0214034D02*
X0151900Y0214034D01*
X0151900Y0216432D02*
X0166700Y0216432D01*
X0166700Y0218831D02*
X0151900Y0218831D01*
X0151900Y0221229D02*
X0166700Y0221229D01*
X0166700Y0223628D02*
X0151900Y0223628D01*
X0151900Y0226026D02*
X0166700Y0226026D01*
X0166700Y0228425D02*
X0151900Y0228425D01*
X0151900Y0230823D02*
X0166700Y0230823D01*
X0166700Y0233222D02*
X0151900Y0233222D01*
X0151900Y0235620D02*
X0166700Y0235620D01*
X0166700Y0238019D02*
X0166024Y0238019D01*
X0166100Y0247613D02*
X0166700Y0247613D01*
X0166700Y0250011D02*
X0166100Y0250011D01*
X0166100Y0252410D02*
X0166700Y0252410D01*
X0166700Y0254808D02*
X0166100Y0254808D01*
X0166100Y0257207D02*
X0166700Y0257207D01*
X0166700Y0259605D02*
X0166100Y0259605D01*
X0166100Y0262004D02*
X0166732Y0262004D01*
X0182200Y0258333D02*
X0182200Y0213333D01*
X0185992Y0209237D02*
X0305908Y0209237D01*
X0304387Y0211635D02*
X0187534Y0211635D01*
X0187778Y0214034D02*
X0304163Y0214034D01*
X0305057Y0216432D02*
X0186954Y0216432D01*
X0178408Y0209237D02*
X0177700Y0209237D01*
X0181381Y0202041D02*
X0305519Y0202041D01*
X0304260Y0199643D02*
X0182695Y0199643D01*
X0182778Y0197244D02*
X0304225Y0197244D01*
X0305339Y0194845D02*
X0182700Y0194845D01*
X0182700Y0192447D02*
X0334634Y0192447D01*
X0333640Y0190048D02*
X0182700Y0190048D01*
X0182700Y0187650D02*
X0306152Y0187650D01*
X0306066Y0187588D02*
X0305445Y0186967D01*
X0304929Y0186257D01*
X0304531Y0185475D01*
X0304259Y0184640D01*
X0304122Y0183772D01*
X0304122Y0183333D01*
X0304122Y0182894D01*
X0304259Y0182027D01*
X0304531Y0181192D01*
X0304929Y0180410D01*
X0305445Y0179700D01*
X0306066Y0179079D01*
X0306777Y0178563D01*
X0307559Y0178164D01*
X0308394Y0177893D01*
X0309261Y0177755D01*
X0309700Y0177755D01*
X0310139Y0177755D01*
X0311006Y0177893D01*
X0311841Y0178164D01*
X0312623Y0178563D01*
X0313334Y0179079D01*
X0313955Y0179700D01*
X0314471Y0180410D01*
X0314869Y0181192D01*
X0315141Y0182027D01*
X0315278Y0182894D01*
X0315278Y0183333D01*
X0309700Y0183333D01*
X0309700Y0177755D01*
X0309700Y0183333D01*
X0309700Y0183333D01*
X0309700Y0183333D01*
X0304122Y0183333D01*
X0309700Y0183333D01*
X0309700Y0183333D01*
X0315278Y0183333D01*
X0315278Y0183772D01*
X0315141Y0184640D01*
X0314869Y0185475D01*
X0314471Y0186257D01*
X0313955Y0186967D01*
X0313334Y0187588D01*
X0312623Y0188104D01*
X0311841Y0188503D01*
X0311006Y0188774D01*
X0310139Y0188911D01*
X0309700Y0188911D01*
X0309261Y0188911D01*
X0308394Y0188774D01*
X0307559Y0188503D01*
X0306777Y0188104D01*
X0306066Y0187588D01*
X0304458Y0185251D02*
X0182700Y0185251D01*
X0182700Y0182853D02*
X0304129Y0182853D01*
X0304907Y0180454D02*
X0182700Y0180454D01*
X0182700Y0178056D02*
X0232668Y0178056D01*
X0236232Y0178056D02*
X0241668Y0178056D01*
X0245232Y0178056D02*
X0250668Y0178056D01*
X0254232Y0178056D02*
X0307892Y0178056D01*
X0309700Y0178056D02*
X0309700Y0178056D01*
X0311508Y0178056D02*
X0335318Y0178056D01*
X0334058Y0180454D02*
X0314493Y0180454D01*
X0315271Y0182853D02*
X0333315Y0182853D01*
X0333110Y0187650D02*
X0313248Y0187650D01*
X0314942Y0185251D02*
X0346000Y0185251D01*
X0346000Y0182853D02*
X0348400Y0182853D01*
X0348400Y0185251D02*
X0371921Y0185251D01*
X0348400Y0187650D02*
X0346000Y0187650D01*
X0346000Y0190048D02*
X0348400Y0190048D01*
X0348400Y0192447D02*
X0346000Y0192447D01*
X0346000Y0194845D02*
X0348400Y0194845D01*
X0348400Y0197244D02*
X0346000Y0197244D01*
X0346000Y0180454D02*
X0348400Y0180454D01*
X0348400Y0178056D02*
X0346000Y0178056D01*
X0346000Y0175657D02*
X0348400Y0175657D01*
X0348400Y0173259D02*
X0346000Y0173259D01*
X0317540Y0146875D02*
X0257400Y0146875D01*
X0257400Y0144477D02*
X0316400Y0144477D01*
X0316442Y0142078D02*
X0313843Y0142078D01*
X0313955Y0141967D02*
X0313334Y0142588D01*
X0312623Y0143104D01*
X0311841Y0143503D01*
X0311006Y0143774D01*
X0310139Y0143911D01*
X0309700Y0143911D01*
X0309261Y0143911D01*
X0308394Y0143774D01*
X0307559Y0143503D01*
X0306777Y0143104D01*
X0306066Y0142588D01*
X0305445Y0141967D01*
X0304929Y0141257D01*
X0304531Y0140475D01*
X0304259Y0139640D01*
X0304122Y0138772D01*
X0304122Y0138333D01*
X0304122Y0137894D01*
X0304259Y0137027D01*
X0304531Y0136192D01*
X0304929Y0135410D01*
X0305445Y0134700D01*
X0306066Y0134079D01*
X0306777Y0133563D01*
X0307559Y0133164D01*
X0308394Y0132893D01*
X0309261Y0132755D01*
X0309700Y0132755D01*
X0310139Y0132755D01*
X0311006Y0132893D01*
X0311841Y0133164D01*
X0312623Y0133563D01*
X0313334Y0134079D01*
X0313955Y0134700D01*
X0314471Y0135410D01*
X0314869Y0136192D01*
X0315141Y0137027D01*
X0315278Y0137894D01*
X0315278Y0138333D01*
X0309700Y0138333D01*
X0309700Y0132755D01*
X0309700Y0138333D01*
X0309700Y0138333D01*
X0309700Y0138333D01*
X0304122Y0138333D01*
X0309700Y0138333D01*
X0309700Y0138333D01*
X0315278Y0138333D01*
X0315278Y0138772D01*
X0315141Y0139640D01*
X0314869Y0140475D01*
X0314471Y0141257D01*
X0313955Y0141967D01*
X0315128Y0139680D02*
X0317651Y0139680D01*
X0315181Y0137281D02*
X0342363Y0137281D01*
X0347872Y0134883D02*
X0314088Y0134883D01*
X0309700Y0134883D02*
X0309700Y0134883D01*
X0309700Y0137281D02*
X0309700Y0137281D01*
X0309700Y0138333D02*
X0309700Y0143911D01*
X0309700Y0138333D01*
X0309700Y0138333D01*
X0309700Y0139680D02*
X0309700Y0139680D01*
X0309700Y0142078D02*
X0309700Y0142078D01*
X0305557Y0142078D02*
X0257400Y0142078D01*
X0257400Y0139680D02*
X0304272Y0139680D01*
X0304219Y0137281D02*
X0257400Y0137281D01*
X0257400Y0134883D02*
X0305312Y0134883D01*
X0307559Y0128503D02*
X0306777Y0128104D01*
X0306066Y0127588D01*
X0305445Y0126967D01*
X0304929Y0126257D01*
X0304531Y0125475D01*
X0304259Y0124640D01*
X0304122Y0123772D01*
X0304122Y0123333D01*
X0304122Y0122894D01*
X0304259Y0122027D01*
X0304531Y0121192D01*
X0304929Y0120410D01*
X0305445Y0119700D01*
X0306066Y0119079D01*
X0306777Y0118563D01*
X0307559Y0118164D01*
X0308394Y0117893D01*
X0309261Y0117755D01*
X0309700Y0117755D01*
X0310139Y0117755D01*
X0311006Y0117893D01*
X0311841Y0118164D01*
X0312623Y0118563D01*
X0313334Y0119079D01*
X0313955Y0119700D01*
X0314471Y0120410D01*
X0314869Y0121192D01*
X0315141Y0122027D01*
X0315278Y0122894D01*
X0315278Y0123333D01*
X0309700Y0123333D01*
X0309700Y0117755D01*
X0309700Y0123333D01*
X0309700Y0123333D01*
X0309700Y0123333D01*
X0304122Y0123333D01*
X0309700Y0123333D01*
X0309700Y0123333D01*
X0315278Y0123333D01*
X0315278Y0123772D01*
X0315141Y0124640D01*
X0314869Y0125475D01*
X0314471Y0126257D01*
X0313955Y0126967D01*
X0313334Y0127588D01*
X0312623Y0128104D01*
X0311841Y0128503D01*
X0311006Y0128774D01*
X0310139Y0128911D01*
X0309700Y0128911D01*
X0309261Y0128911D01*
X0308394Y0128774D01*
X0307559Y0128503D01*
X0306203Y0127687D02*
X0257400Y0127687D01*
X0257400Y0130086D02*
X0343381Y0130086D01*
X0342838Y0129861D02*
X0341811Y0128833D01*
X0324078Y0128833D01*
X0323354Y0129133D01*
X0321046Y0129133D01*
X0318915Y0128250D01*
X0317283Y0126619D01*
X0316400Y0124487D01*
X0316400Y0122180D01*
X0317283Y0120048D01*
X0318915Y0118416D01*
X0321046Y0117533D01*
X0323354Y0117533D01*
X0324078Y0117833D01*
X0341700Y0117833D01*
X0341700Y0086073D01*
X0340818Y0086073D01*
X0337973Y0084894D01*
X0335796Y0082717D01*
X0334618Y0079873D01*
X0334618Y0076794D01*
X0335796Y0073949D01*
X0337973Y0071772D01*
X0340818Y0070594D01*
X0343897Y0070594D01*
X0346741Y0071772D01*
X0348919Y0073949D01*
X0350097Y0076794D01*
X0350097Y0078295D01*
X0351863Y0080060D01*
X0352700Y0082082D01*
X0352700Y0117944D01*
X0353728Y0118972D01*
X0354900Y0121802D01*
X0354900Y0124865D01*
X0353728Y0127695D01*
X0351562Y0129861D01*
X0348732Y0131033D01*
X0345668Y0131033D01*
X0342838Y0129861D01*
X0350271Y0132484D02*
X0257400Y0132484D01*
X0256509Y0125289D02*
X0304470Y0125289D01*
X0304123Y0122890D02*
X0254111Y0122890D01*
X0251712Y0120492D02*
X0304888Y0120492D01*
X0307777Y0118093D02*
X0244705Y0118093D01*
X0239695Y0118093D02*
X0206100Y0118093D01*
X0206100Y0115695D02*
X0341700Y0115695D01*
X0341700Y0113296D02*
X0206100Y0113296D01*
X0206100Y0110898D02*
X0341700Y0110898D01*
X0341700Y0108499D02*
X0206100Y0108499D01*
X0206100Y0106101D02*
X0341700Y0106101D01*
X0341700Y0103702D02*
X0206100Y0103702D01*
X0206100Y0101304D02*
X0341700Y0101304D01*
X0341700Y0098905D02*
X0206100Y0098905D01*
X0206100Y0096507D02*
X0341700Y0096507D01*
X0341700Y0094108D02*
X0206100Y0094108D01*
X0206100Y0091710D02*
X0341700Y0091710D01*
X0341700Y0089311D02*
X0206100Y0089311D01*
X0206100Y0086912D02*
X0341700Y0086912D01*
X0337593Y0084514D02*
X0326807Y0084514D01*
X0326427Y0084894D02*
X0323582Y0086073D01*
X0320503Y0086073D01*
X0317659Y0084894D01*
X0315481Y0082717D01*
X0314303Y0079873D01*
X0314303Y0076794D01*
X0315481Y0073949D01*
X0317659Y0071772D01*
X0320503Y0070594D01*
X0323582Y0070594D01*
X0326427Y0071772D01*
X0328604Y0073949D01*
X0329782Y0076794D01*
X0329782Y0079873D01*
X0328604Y0082717D01*
X0326427Y0084894D01*
X0328853Y0082115D02*
X0335547Y0082115D01*
X0334618Y0079717D02*
X0329782Y0079717D01*
X0329782Y0077318D02*
X0334618Y0077318D01*
X0335394Y0074920D02*
X0329006Y0074920D01*
X0327176Y0072521D02*
X0337224Y0072521D01*
X0347491Y0072521D02*
X0356909Y0072521D01*
X0355079Y0074920D02*
X0349321Y0074920D01*
X0350097Y0077318D02*
X0354303Y0077318D01*
X0354303Y0079717D02*
X0351519Y0079717D01*
X0352700Y0082115D02*
X0355232Y0082115D01*
X0356543Y0084514D02*
X0352700Y0084514D01*
X0352700Y0086912D02*
X0356543Y0086912D01*
X0356543Y0089311D02*
X0352700Y0089311D01*
X0352700Y0091710D02*
X0356543Y0091710D01*
X0356543Y0094108D02*
X0352700Y0094108D01*
X0352700Y0096507D02*
X0356543Y0096507D01*
X0356543Y0098905D02*
X0352700Y0098905D01*
X0352700Y0101304D02*
X0356543Y0101304D01*
X0356543Y0103702D02*
X0352700Y0103702D01*
X0352700Y0106101D02*
X0356543Y0106101D01*
X0356543Y0108499D02*
X0352700Y0108499D01*
X0352700Y0110898D02*
X0356543Y0110898D01*
X0356543Y0113296D02*
X0352700Y0113296D01*
X0352700Y0115695D02*
X0356543Y0115695D01*
X0356543Y0118093D02*
X0352849Y0118093D01*
X0354357Y0120492D02*
X0356543Y0120492D01*
X0356543Y0122890D02*
X0354900Y0122890D01*
X0354724Y0125289D02*
X0356543Y0125289D01*
X0355068Y0127687D02*
X0353731Y0127687D01*
X0352669Y0130086D02*
X0351019Y0130086D01*
X0318351Y0127687D02*
X0313197Y0127687D01*
X0314930Y0125289D02*
X0316732Y0125289D01*
X0316400Y0122890D02*
X0315277Y0122890D01*
X0314512Y0120492D02*
X0317099Y0120492D01*
X0319695Y0118093D02*
X0311623Y0118093D01*
X0309700Y0118093D02*
X0309700Y0118093D01*
X0309700Y0120492D02*
X0309700Y0120492D01*
X0309700Y0122890D02*
X0309700Y0122890D01*
X0309700Y0123333D02*
X0309700Y0128911D01*
X0309700Y0123333D01*
X0309700Y0123333D01*
X0309700Y0125289D02*
X0309700Y0125289D01*
X0309700Y0127687D02*
X0309700Y0127687D01*
X0309700Y0149274D02*
X0309700Y0149274D01*
X0309700Y0151672D02*
X0309700Y0151672D01*
X0309700Y0154071D02*
X0309700Y0154071D01*
X0309700Y0156469D02*
X0309700Y0156469D01*
X0305084Y0156469D02*
X0251418Y0156469D01*
X0253816Y0154071D02*
X0304169Y0154071D01*
X0304375Y0151672D02*
X0256215Y0151672D01*
X0257400Y0149274D02*
X0305871Y0149274D01*
X0309700Y0180454D02*
X0309700Y0180454D01*
X0309700Y0182853D02*
X0309700Y0182853D01*
X0309700Y0183333D02*
X0309700Y0188911D01*
X0309700Y0183333D01*
X0309700Y0183333D01*
X0309700Y0185251D02*
X0309700Y0185251D01*
X0309700Y0187650D02*
X0309700Y0187650D01*
X0309700Y0209237D02*
X0309700Y0209237D01*
X0309700Y0211635D02*
X0309700Y0211635D01*
X0309700Y0214034D02*
X0309700Y0214034D01*
X0309700Y0216432D02*
X0309700Y0216432D01*
X0309700Y0240417D02*
X0309700Y0240417D01*
X0309700Y0242816D02*
X0309700Y0242816D01*
X0309700Y0243333D02*
X0309700Y0248911D01*
X0309700Y0243333D01*
X0309700Y0243333D01*
X0309700Y0245214D02*
X0309700Y0245214D01*
X0309700Y0247613D02*
X0309700Y0247613D01*
X0309700Y0252755D02*
X0310139Y0252755D01*
X0311006Y0252893D01*
X0311841Y0253164D01*
X0312623Y0253563D01*
X0313334Y0254079D01*
X0313955Y0254700D01*
X0314471Y0255410D01*
X0314869Y0256192D01*
X0315141Y0257027D01*
X0315278Y0257894D01*
X0315278Y0258333D01*
X0309700Y0258333D01*
X0309700Y0252755D01*
X0309700Y0258333D01*
X0309700Y0258333D01*
X0309700Y0258333D01*
X0304122Y0258333D01*
X0304122Y0257894D01*
X0304259Y0257027D01*
X0304531Y0256192D01*
X0304929Y0255410D01*
X0305445Y0254700D01*
X0306066Y0254079D01*
X0306777Y0253563D01*
X0307559Y0253164D01*
X0308394Y0252893D01*
X0309261Y0252755D01*
X0309700Y0252755D01*
X0309700Y0254808D02*
X0309700Y0254808D01*
X0309700Y0257207D02*
X0309700Y0257207D01*
X0309700Y0258333D02*
X0309700Y0258333D01*
X0315278Y0258333D01*
X0315278Y0258772D01*
X0315141Y0259640D01*
X0314869Y0260475D01*
X0314471Y0261257D01*
X0313955Y0261967D01*
X0313334Y0262588D01*
X0312623Y0263104D01*
X0311841Y0263503D01*
X0311006Y0263774D01*
X0310139Y0263911D01*
X0309700Y0263911D01*
X0309261Y0263911D01*
X0308394Y0263774D01*
X0307559Y0263503D01*
X0306777Y0263104D01*
X0306066Y0262588D01*
X0305445Y0261967D01*
X0304929Y0261257D01*
X0304531Y0260475D01*
X0304259Y0259640D01*
X0304122Y0258772D01*
X0304122Y0258333D01*
X0309700Y0258333D01*
X0309700Y0263911D01*
X0309700Y0258333D01*
X0309700Y0258333D01*
X0309700Y0259605D02*
X0309700Y0259605D01*
X0309700Y0262004D02*
X0309700Y0262004D01*
X0313918Y0262004D02*
X0371921Y0262004D01*
X0371921Y0264402D02*
X0216714Y0264402D01*
X0218029Y0266801D02*
X0371921Y0266801D01*
X0371921Y0269199D02*
X0218172Y0269199D01*
X0217311Y0271598D02*
X0371921Y0271598D01*
X0371921Y0273996D02*
X0214133Y0273996D01*
X0218688Y0283077D02*
X0220967Y0282133D01*
X0223433Y0282133D01*
X0225712Y0283077D01*
X0227456Y0284821D01*
X0228400Y0287100D01*
X0228400Y0289567D01*
X0227456Y0291845D01*
X0225712Y0293589D01*
X0223433Y0294533D01*
X0220967Y0294533D01*
X0218688Y0293589D01*
X0216944Y0291845D01*
X0216000Y0289567D01*
X0216000Y0287100D01*
X0216944Y0284821D01*
X0218688Y0283077D01*
X0218175Y0283590D02*
X0202735Y0283590D01*
X0205134Y0285989D02*
X0216460Y0285989D01*
X0216000Y0288387D02*
X0207532Y0288387D01*
X0209931Y0290786D02*
X0216505Y0290786D01*
X0218283Y0293184D02*
X0212329Y0293184D01*
X0214728Y0295583D02*
X0267061Y0295583D01*
X0266400Y0297981D02*
X0217126Y0297981D01*
X0219525Y0300380D02*
X0266770Y0300380D01*
X0268443Y0302779D02*
X0221923Y0302779D01*
X0224322Y0305177D02*
X0267230Y0305177D01*
X0266400Y0307576D02*
X0226720Y0307576D01*
X0229119Y0309974D02*
X0266602Y0309974D01*
X0266700Y0321967D02*
X0192480Y0321967D01*
X0194879Y0324365D02*
X0217400Y0324365D01*
X0223157Y0319568D02*
X0190082Y0319568D01*
X0187683Y0317170D02*
X0220758Y0317170D01*
X0218360Y0314771D02*
X0185285Y0314771D01*
X0182886Y0312373D02*
X0215961Y0312373D01*
X0213563Y0309974D02*
X0180487Y0309974D01*
X0178089Y0307576D02*
X0211164Y0307576D01*
X0208766Y0305177D02*
X0175690Y0305177D01*
X0173292Y0302779D02*
X0206367Y0302779D01*
X0226117Y0293184D02*
X0248283Y0293184D01*
X0246505Y0290786D02*
X0227895Y0290786D01*
X0228400Y0288387D02*
X0246000Y0288387D01*
X0246460Y0285989D02*
X0227940Y0285989D01*
X0226225Y0283590D02*
X0248175Y0283590D01*
X0256117Y0293184D02*
X0269474Y0293184D01*
X0277700Y0321967D02*
X0288178Y0321967D01*
X0286812Y0324365D02*
X0277700Y0324365D01*
X0277700Y0326764D02*
X0286700Y0326764D01*
X0287724Y0329162D02*
X0277700Y0329162D01*
X0292200Y0329162D02*
X0292200Y0329162D01*
X0292200Y0331411D02*
X0292200Y0325833D01*
X0292200Y0325833D01*
X0292200Y0331411D01*
X0292200Y0326764D02*
X0292200Y0326764D01*
X0292200Y0324365D02*
X0292200Y0324365D01*
X0292200Y0321967D02*
X0292200Y0321967D01*
X0330950Y0298911D02*
X0330950Y0293333D01*
X0330950Y0293333D01*
X0330950Y0298911D01*
X0330950Y0297981D02*
X0330950Y0297981D01*
X0330950Y0295583D02*
X0330950Y0295583D01*
X0330950Y0293184D02*
X0330950Y0293184D01*
X0330950Y0290786D02*
X0330950Y0290786D01*
X0335912Y0290786D02*
X0371921Y0290786D01*
X0371921Y0293184D02*
X0336528Y0293184D01*
X0336064Y0295583D02*
X0371921Y0295583D01*
X0371921Y0297981D02*
X0334042Y0297981D01*
X0305482Y0262004D02*
X0196975Y0262004D01*
X0198137Y0259605D02*
X0304254Y0259605D01*
X0304231Y0257207D02*
X0198172Y0257207D01*
X0197120Y0254808D02*
X0305366Y0254808D01*
X0314034Y0254808D02*
X0371921Y0254808D01*
X0371921Y0257207D02*
X0315169Y0257207D01*
X0315146Y0259605D02*
X0371921Y0259605D01*
X0348400Y0350749D02*
X0346000Y0350749D01*
X0346000Y0353147D02*
X0348400Y0353147D01*
X0348400Y0355546D02*
X0346000Y0355546D01*
X0346000Y0357944D02*
X0348400Y0357944D01*
X0348400Y0360343D02*
X0346000Y0360343D01*
X0346000Y0362741D02*
X0323180Y0362741D01*
X0346000Y0365140D02*
X0348400Y0365140D01*
X0348400Y0367538D02*
X0346000Y0367538D01*
X0346000Y0369937D02*
X0348400Y0369937D01*
X0348400Y0372335D02*
X0346000Y0372335D01*
X0346000Y0374734D02*
X0348400Y0374734D01*
X0348400Y0362741D02*
X0371921Y0362741D01*
X0371921Y0379531D02*
X0007400Y0379531D01*
X0038779Y0350749D02*
X0069393Y0350749D01*
X0053248Y0353147D02*
X0042096Y0353147D01*
X0044075Y0355546D02*
X0051799Y0355546D01*
X0051622Y0357944D02*
X0045338Y0357944D01*
X0046083Y0360343D02*
X0052571Y0360343D01*
X0084700Y0324365D02*
X0084700Y0324365D01*
X0084700Y0321967D02*
X0084700Y0321967D01*
X0084700Y0319568D02*
X0084700Y0319568D01*
X0084700Y0317170D02*
X0084700Y0317170D01*
X0087343Y0317170D02*
X0091700Y0317170D01*
X0091700Y0319568D02*
X0089679Y0319568D01*
X0090278Y0321967D02*
X0091700Y0321967D01*
X0091700Y0324365D02*
X0089798Y0324365D01*
X0102200Y0241411D02*
X0102200Y0235833D01*
X0102200Y0235833D01*
X0107778Y0235833D01*
X0107778Y0236272D01*
X0107641Y0237140D01*
X0107369Y0237975D01*
X0106971Y0238757D01*
X0106455Y0239467D01*
X0105834Y0240088D01*
X0105123Y0240604D01*
X0104341Y0241003D01*
X0103506Y0241274D01*
X0102639Y0241411D01*
X0102200Y0241411D01*
X0102200Y0240417D02*
X0102200Y0240417D01*
X0102200Y0238019D02*
X0102200Y0238019D01*
X0102200Y0235833D02*
X0102200Y0235833D01*
X0102200Y0235620D02*
X0102200Y0235620D01*
X0102200Y0233222D02*
X0102200Y0233222D01*
X0102200Y0230823D02*
X0102200Y0230823D01*
X0104653Y0230823D02*
X0119671Y0230823D01*
X0119040Y0230562D02*
X0121090Y0231411D01*
X0123310Y0231411D01*
X0125360Y0230562D01*
X0126929Y0228993D01*
X0127778Y0226943D01*
X0127778Y0224724D01*
X0126929Y0222674D01*
X0126100Y0221845D01*
X0126100Y0199822D01*
X0126929Y0198993D01*
X0127778Y0196943D01*
X0127778Y0194724D01*
X0126929Y0192674D01*
X0125360Y0191105D01*
X0123310Y0190255D01*
X0121090Y0190255D01*
X0119040Y0191105D01*
X0117471Y0192674D01*
X0116622Y0194724D01*
X0116622Y0196943D01*
X0117471Y0198993D01*
X0118300Y0199822D01*
X0118300Y0221845D01*
X0117471Y0222674D01*
X0116622Y0224724D01*
X0116622Y0226943D01*
X0117471Y0228993D01*
X0119040Y0230562D01*
X0117236Y0228425D02*
X0097700Y0228425D01*
X0097700Y0230823D02*
X0099746Y0230823D01*
X0097700Y0226026D02*
X0116622Y0226026D01*
X0117076Y0223628D02*
X0097700Y0223628D01*
X0097778Y0221229D02*
X0118300Y0221229D01*
X0118300Y0218831D02*
X0097700Y0218831D01*
X0097700Y0216432D02*
X0118300Y0216432D01*
X0118300Y0214034D02*
X0097700Y0214034D01*
X0097700Y0211635D02*
X0118300Y0211635D01*
X0118300Y0209237D02*
X0097700Y0209237D01*
X0097700Y0206838D02*
X0118300Y0206838D01*
X0118300Y0204440D02*
X0097700Y0204440D01*
X0097700Y0202041D02*
X0118300Y0202041D01*
X0118121Y0199643D02*
X0097700Y0199643D01*
X0097700Y0197244D02*
X0116747Y0197244D01*
X0116622Y0194845D02*
X0097700Y0194845D01*
X0097700Y0192447D02*
X0117698Y0192447D01*
X0122200Y0195833D02*
X0122200Y0225833D01*
X0127324Y0223628D02*
X0142500Y0223628D01*
X0142500Y0226026D02*
X0127778Y0226026D01*
X0127164Y0228425D02*
X0142500Y0228425D01*
X0142500Y0230823D02*
X0124729Y0230823D01*
X0130506Y0238019D02*
X0107347Y0238019D01*
X0107778Y0235620D02*
X0142500Y0235620D01*
X0142500Y0233222D02*
X0107130Y0233222D01*
X0105381Y0240417D02*
X0127426Y0240417D01*
X0126100Y0221229D02*
X0142500Y0221229D01*
X0142500Y0218831D02*
X0126100Y0218831D01*
X0126100Y0216432D02*
X0142500Y0216432D01*
X0142500Y0214034D02*
X0126100Y0214034D01*
X0126100Y0211635D02*
X0142500Y0211635D01*
X0142500Y0209237D02*
X0126100Y0209237D01*
X0126100Y0206838D02*
X0142500Y0206838D01*
X0142500Y0204440D02*
X0126100Y0204440D01*
X0126100Y0202041D02*
X0142500Y0202041D01*
X0142500Y0199643D02*
X0126279Y0199643D01*
X0127653Y0197244D02*
X0142500Y0197244D01*
X0142500Y0194845D02*
X0127778Y0194845D01*
X0126702Y0192447D02*
X0142500Y0192447D01*
X0141873Y0190048D02*
X0097700Y0190048D01*
X0097700Y0187650D02*
X0141622Y0187650D01*
X0142439Y0185251D02*
X0097700Y0185251D01*
X0104620Y0170860D02*
X0127200Y0170860D01*
X0129474Y0168462D02*
X0107121Y0168462D01*
X0107778Y0166063D02*
X0171700Y0166063D01*
X0171700Y0163665D02*
X0107355Y0163665D01*
X0105404Y0161266D02*
X0120741Y0161266D01*
X0123659Y0161266D02*
X0165741Y0161266D01*
X0168659Y0161266D02*
X0171700Y0161266D01*
X0167200Y0155833D02*
X0122200Y0155833D01*
X0116893Y0154071D02*
X0116504Y0154071D01*
X0110542Y0144477D02*
X0078570Y0144477D01*
X0078433Y0144533D02*
X0075967Y0144533D01*
X0073688Y0143589D01*
X0071944Y0141845D01*
X0071000Y0139567D01*
X0071000Y0137100D01*
X0071944Y0134821D01*
X0073688Y0133077D01*
X0075967Y0132133D01*
X0078433Y0132133D01*
X0080712Y0133077D01*
X0082456Y0134821D01*
X0083400Y0137100D01*
X0083400Y0139567D01*
X0082456Y0141845D01*
X0080712Y0143589D01*
X0078433Y0144533D01*
X0075830Y0144477D02*
X0038045Y0144477D01*
X0037200Y0144477D02*
X0037200Y0144477D01*
X0037200Y0142078D02*
X0037200Y0142078D01*
X0037200Y0139680D02*
X0037200Y0139680D01*
X0037200Y0138333D02*
X0037200Y0138333D01*
X0037200Y0137281D02*
X0037200Y0137281D01*
X0037200Y0134883D02*
X0037200Y0134883D01*
X0037200Y0132484D02*
X0037200Y0132484D01*
X0039262Y0132484D02*
X0075120Y0132484D01*
X0071918Y0134883D02*
X0042357Y0134883D01*
X0043311Y0137281D02*
X0071000Y0137281D01*
X0071047Y0139680D02*
X0043264Y0139680D01*
X0042143Y0142078D02*
X0072177Y0142078D01*
X0082223Y0142078D02*
X0112941Y0142078D01*
X0115339Y0139680D02*
X0083353Y0139680D01*
X0083400Y0137281D02*
X0116700Y0137281D01*
X0116700Y0134883D02*
X0106256Y0134883D01*
X0106487Y0134749D02*
X0105613Y0135254D01*
X0104680Y0135640D01*
X0103705Y0135902D01*
X0102705Y0136033D01*
X0102200Y0136033D01*
X0102200Y0128333D01*
X0102200Y0120633D01*
X0102705Y0120633D01*
X0103705Y0120765D01*
X0104680Y0121026D01*
X0105613Y0121413D01*
X0106487Y0121917D01*
X0107288Y0122532D01*
X0108002Y0123245D01*
X0108616Y0124046D01*
X0109121Y0124920D01*
X0109507Y0125853D01*
X0109768Y0126828D01*
X0109900Y0127829D01*
X0109900Y0128333D01*
X0102200Y0128333D01*
X0102200Y0128333D01*
X0102200Y0120633D01*
X0101695Y0120633D01*
X0100695Y0120765D01*
X0099720Y0121026D01*
X0098787Y0121413D01*
X0097913Y0121917D01*
X0097112Y0122532D01*
X0096398Y0123245D01*
X0095784Y0124046D01*
X0095279Y0124920D01*
X0094893Y0125853D01*
X0094632Y0126828D01*
X0094500Y0127829D01*
X0094500Y0128333D01*
X0102200Y0128333D01*
X0102200Y0128333D01*
X0102200Y0128333D01*
X0109900Y0128333D01*
X0109900Y0128838D01*
X0109768Y0129839D01*
X0109507Y0130814D01*
X0109121Y0131746D01*
X0108616Y0132620D01*
X0108002Y0133421D01*
X0107288Y0134135D01*
X0106487Y0134749D01*
X0108695Y0132484D02*
X0115585Y0132484D01*
X0114591Y0130086D02*
X0109702Y0130086D01*
X0109881Y0127687D02*
X0114500Y0127687D01*
X0115127Y0125289D02*
X0109273Y0125289D01*
X0107646Y0122890D02*
X0116754Y0122890D01*
X0102200Y0122890D02*
X0102200Y0122890D01*
X0102200Y0125289D02*
X0102200Y0125289D01*
X0102200Y0127687D02*
X0102200Y0127687D01*
X0102200Y0128333D02*
X0094500Y0128333D01*
X0094500Y0128838D01*
X0094632Y0129839D01*
X0094893Y0130814D01*
X0095279Y0131746D01*
X0095784Y0132620D01*
X0096398Y0133421D01*
X0097112Y0134135D01*
X0097913Y0134749D01*
X0098787Y0135254D01*
X0099720Y0135640D01*
X0100695Y0135902D01*
X0101695Y0136033D01*
X0102200Y0136033D01*
X0102200Y0128333D01*
X0102200Y0128333D01*
X0102200Y0130086D02*
X0102200Y0130086D01*
X0102200Y0132484D02*
X0102200Y0132484D01*
X0102200Y0134883D02*
X0102200Y0134883D01*
X0098144Y0134883D02*
X0082482Y0134883D01*
X0079280Y0132484D02*
X0095705Y0132484D01*
X0094698Y0130086D02*
X0007400Y0130086D01*
X0007400Y0132484D02*
X0025120Y0132484D01*
X0021918Y0134883D02*
X0007400Y0134883D01*
X0007400Y0137281D02*
X0021000Y0137281D01*
X0021047Y0139680D02*
X0007400Y0139680D01*
X0007400Y0142078D02*
X0022177Y0142078D01*
X0032223Y0142078D02*
X0032257Y0142078D01*
X0035138Y0132484D02*
X0029280Y0132484D01*
X0037429Y0126257D02*
X0037031Y0125475D01*
X0036759Y0124640D01*
X0036622Y0123772D01*
X0036622Y0123333D01*
X0036622Y0122894D01*
X0036759Y0122027D01*
X0037031Y0121192D01*
X0037429Y0120410D01*
X0037945Y0119700D01*
X0038566Y0119079D01*
X0039277Y0118563D01*
X0040059Y0118164D01*
X0040894Y0117893D01*
X0041761Y0117755D01*
X0042200Y0117755D01*
X0042639Y0117755D01*
X0043506Y0117893D01*
X0044341Y0118164D01*
X0045123Y0118563D01*
X0045834Y0119079D01*
X0046455Y0119700D01*
X0046971Y0120410D01*
X0047369Y0121192D01*
X0047641Y0122027D01*
X0047778Y0122894D01*
X0047778Y0123333D01*
X0042200Y0123333D01*
X0042200Y0117755D01*
X0042200Y0123333D01*
X0042200Y0123333D01*
X0042200Y0123333D01*
X0036622Y0123333D01*
X0042200Y0123333D01*
X0042200Y0123333D01*
X0047778Y0123333D01*
X0047778Y0123772D01*
X0047641Y0124640D01*
X0047369Y0125475D01*
X0046971Y0126257D01*
X0046455Y0126967D01*
X0045834Y0127588D01*
X0045123Y0128104D01*
X0044341Y0128503D01*
X0043506Y0128774D01*
X0042639Y0128911D01*
X0042200Y0128911D01*
X0041761Y0128911D01*
X0040894Y0128774D01*
X0040059Y0128503D01*
X0039277Y0128104D01*
X0038566Y0127588D01*
X0037945Y0126967D01*
X0037429Y0126257D01*
X0036970Y0125289D02*
X0007400Y0125289D01*
X0007400Y0127687D02*
X0038703Y0127687D01*
X0042200Y0127687D02*
X0042200Y0127687D01*
X0042200Y0128911D02*
X0042200Y0123333D01*
X0042200Y0123333D01*
X0042200Y0128911D01*
X0042200Y0125289D02*
X0042200Y0125289D01*
X0042200Y0122890D02*
X0042200Y0122890D01*
X0042200Y0120492D02*
X0042200Y0120492D01*
X0042200Y0118093D02*
X0042200Y0118093D01*
X0044123Y0118093D02*
X0198300Y0118093D01*
X0198300Y0115695D02*
X0007400Y0115695D01*
X0007400Y0118093D02*
X0040277Y0118093D01*
X0037388Y0120492D02*
X0007400Y0120492D01*
X0007400Y0122890D02*
X0036623Y0122890D01*
X0045697Y0127687D02*
X0094519Y0127687D01*
X0095127Y0125289D02*
X0047430Y0125289D01*
X0047777Y0122890D02*
X0096754Y0122890D01*
X0101850Y0086073D02*
X0100844Y0085940D01*
X0099864Y0085678D01*
X0098927Y0085289D01*
X0098048Y0084782D01*
X0097244Y0084165D01*
X0096526Y0083447D01*
X0095909Y0082642D01*
X0095401Y0081764D01*
X0095013Y0080826D01*
X0094751Y0079846D01*
X0094618Y0078841D01*
X0094618Y0078708D01*
X0101983Y0078708D01*
X0101983Y0086073D01*
X0101850Y0086073D01*
X0102732Y0086073D02*
X0102732Y0078708D01*
X0101983Y0078708D01*
X0101983Y0077959D01*
X0094618Y0077959D01*
X0094618Y0077826D01*
X0094751Y0076820D01*
X0095013Y0075840D01*
X0095401Y0074903D01*
X0095909Y0074024D01*
X0096526Y0073219D01*
X0097244Y0072502D01*
X0098048Y0071884D01*
X0098927Y0071377D01*
X0099864Y0070989D01*
X0100844Y0070726D01*
X0101850Y0070594D01*
X0101983Y0070594D01*
X0101983Y0077958D01*
X0102732Y0077958D01*
X0102732Y0070594D01*
X0102865Y0070594D01*
X0103871Y0070726D01*
X0104851Y0070989D01*
X0105788Y0071377D01*
X0106666Y0071884D01*
X0107471Y0072502D01*
X0108189Y0073219D01*
X0108806Y0074024D01*
X0109314Y0074903D01*
X0109702Y0075840D01*
X0109964Y0076820D01*
X0110097Y0077826D01*
X0110097Y0077959D01*
X0102732Y0077959D01*
X0102732Y0078708D01*
X0110097Y0078708D01*
X0110097Y0078841D01*
X0109964Y0079846D01*
X0109702Y0080826D01*
X0109314Y0081764D01*
X0108806Y0082642D01*
X0108189Y0083447D01*
X0107471Y0084165D01*
X0106666Y0084782D01*
X0105788Y0085289D01*
X0104851Y0085678D01*
X0103871Y0085940D01*
X0102865Y0086073D01*
X0102732Y0086073D01*
X0102732Y0084514D02*
X0101983Y0084514D01*
X0101983Y0082115D02*
X0102732Y0082115D01*
X0102732Y0079717D02*
X0101983Y0079717D01*
X0101983Y0077318D02*
X0102732Y0077318D01*
X0102732Y0074920D02*
X0101983Y0074920D01*
X0101983Y0072521D02*
X0102732Y0072521D01*
X0097224Y0072521D02*
X0007400Y0072521D01*
X0007400Y0074920D02*
X0024844Y0074920D01*
X0024891Y0074889D02*
X0026121Y0074231D01*
X0027410Y0073697D01*
X0028746Y0073292D01*
X0030114Y0073020D01*
X0031000Y0072933D01*
X0031000Y0085883D01*
X0033400Y0085883D01*
X0033400Y0072933D01*
X0034286Y0073020D01*
X0035654Y0073292D01*
X0036990Y0073697D01*
X0038279Y0074231D01*
X0039509Y0074889D01*
X0040669Y0075664D01*
X0041748Y0076549D01*
X0042734Y0077536D01*
X0043619Y0078614D01*
X0044394Y0079774D01*
X0045052Y0081005D01*
X0045586Y0082294D01*
X0045991Y0083629D01*
X0046263Y0084997D01*
X0046351Y0085883D01*
X0033400Y0085883D01*
X0033400Y0088283D01*
X0046351Y0088283D01*
X0046263Y0089169D01*
X0045991Y0090538D01*
X0045586Y0091873D01*
X0045052Y0093162D01*
X0044394Y0094392D01*
X0043619Y0095552D01*
X0042734Y0096631D01*
X0041748Y0097618D01*
X0040669Y0098503D01*
X0039509Y0099278D01*
X0038279Y0099935D01*
X0036990Y0100469D01*
X0035654Y0100874D01*
X0034286Y0101147D01*
X0033400Y0101234D01*
X0033400Y0088283D01*
X0031000Y0088283D01*
X0031000Y0085883D01*
X0018049Y0085883D01*
X0018137Y0084997D01*
X0018409Y0083629D01*
X0018814Y0082294D01*
X0019348Y0081005D01*
X0020006Y0079774D01*
X0020781Y0078614D01*
X0021666Y0077536D01*
X0022652Y0076549D01*
X0023731Y0075664D01*
X0024891Y0074889D01*
X0021883Y0077318D02*
X0007400Y0077318D01*
X0007400Y0079717D02*
X0020044Y0079717D01*
X0018888Y0082115D02*
X0007400Y0082115D01*
X0007400Y0084514D02*
X0018233Y0084514D01*
X0018049Y0088283D02*
X0031000Y0088283D01*
X0031000Y0101234D01*
X0030114Y0101147D01*
X0028746Y0100874D01*
X0027410Y0100469D01*
X0026121Y0099935D01*
X0024891Y0099278D01*
X0023731Y0098503D01*
X0022652Y0097618D01*
X0021666Y0096631D01*
X0020781Y0095552D01*
X0020006Y0094392D01*
X0019348Y0093162D01*
X0018814Y0091873D01*
X0018409Y0090538D01*
X0018137Y0089169D01*
X0018049Y0088283D01*
X0018165Y0089311D02*
X0007400Y0089311D01*
X0007400Y0086912D02*
X0031000Y0086912D01*
X0031000Y0084514D02*
X0033400Y0084514D01*
X0033400Y0086912D02*
X0198300Y0086912D01*
X0198300Y0085160D02*
X0197659Y0084894D01*
X0195481Y0082717D01*
X0194303Y0079873D01*
X0194303Y0076794D01*
X0195481Y0073949D01*
X0197659Y0071772D01*
X0200503Y0070594D01*
X0203582Y0070594D01*
X0206427Y0071772D01*
X0208604Y0073949D01*
X0209782Y0076794D01*
X0209782Y0079873D01*
X0208604Y0082717D01*
X0206427Y0084894D01*
X0206100Y0085030D01*
X0206100Y0144345D01*
X0206929Y0145174D01*
X0207778Y0147224D01*
X0207778Y0149443D01*
X0206929Y0151493D01*
X0205360Y0153062D01*
X0203310Y0153911D01*
X0201090Y0153911D01*
X0199040Y0153062D01*
X0197471Y0151493D01*
X0196622Y0149443D01*
X0196622Y0147224D01*
X0197471Y0145174D01*
X0198300Y0144345D01*
X0198300Y0085160D01*
X0197278Y0084514D02*
X0187016Y0084514D01*
X0186666Y0084782D02*
X0185788Y0085289D01*
X0184851Y0085678D01*
X0183871Y0085940D01*
X0182865Y0086073D01*
X0182732Y0086073D01*
X0182732Y0078708D01*
X0181983Y0078708D01*
X0181983Y0086073D01*
X0181850Y0086073D01*
X0180844Y0085940D01*
X0179864Y0085678D01*
X0178927Y0085289D01*
X0178048Y0084782D01*
X0177244Y0084165D01*
X0176526Y0083447D01*
X0175909Y0082642D01*
X0175401Y0081764D01*
X0175013Y0080826D01*
X0174751Y0079846D01*
X0174618Y0078841D01*
X0174618Y0078708D01*
X0181983Y0078708D01*
X0181983Y0077959D01*
X0174618Y0077959D01*
X0174618Y0077826D01*
X0174751Y0076820D01*
X0175013Y0075840D01*
X0175401Y0074903D01*
X0175909Y0074024D01*
X0176526Y0073219D01*
X0177244Y0072502D01*
X0178048Y0071884D01*
X0178927Y0071377D01*
X0179864Y0070989D01*
X0180844Y0070726D01*
X0181850Y0070594D01*
X0181983Y0070594D01*
X0181983Y0077958D01*
X0182732Y0077958D01*
X0182732Y0070594D01*
X0182865Y0070594D01*
X0183871Y0070726D01*
X0184851Y0070989D01*
X0185788Y0071377D01*
X0186666Y0071884D01*
X0187471Y0072502D01*
X0188189Y0073219D01*
X0188806Y0074024D01*
X0189314Y0074903D01*
X0189702Y0075840D01*
X0189964Y0076820D01*
X0190097Y0077826D01*
X0190097Y0077959D01*
X0182732Y0077959D01*
X0182732Y0078708D01*
X0190097Y0078708D01*
X0190097Y0078841D01*
X0189964Y0079846D01*
X0189702Y0080826D01*
X0189314Y0081764D01*
X0188806Y0082642D01*
X0188189Y0083447D01*
X0187471Y0084165D01*
X0186666Y0084782D01*
X0189111Y0082115D02*
X0195232Y0082115D01*
X0194303Y0079717D02*
X0189981Y0079717D01*
X0190030Y0077318D02*
X0194303Y0077318D01*
X0195079Y0074920D02*
X0189321Y0074920D01*
X0187491Y0072521D02*
X0196909Y0072521D01*
X0202043Y0078333D02*
X0202200Y0078491D01*
X0202200Y0148333D01*
X0206232Y0144477D02*
X0212984Y0144477D01*
X0213009Y0144640D02*
X0212872Y0143772D01*
X0212872Y0143333D01*
X0212872Y0142894D01*
X0213009Y0142027D01*
X0213281Y0141192D01*
X0213679Y0140410D01*
X0214195Y0139700D01*
X0214816Y0139079D01*
X0215527Y0138563D01*
X0216309Y0138164D01*
X0217144Y0137893D01*
X0218011Y0137755D01*
X0218450Y0137755D01*
X0218889Y0137755D01*
X0219756Y0137893D01*
X0220591Y0138164D01*
X0221373Y0138563D01*
X0222084Y0139079D01*
X0222705Y0139700D01*
X0223221Y0140410D01*
X0223619Y0141192D01*
X0223891Y0142027D01*
X0224028Y0142894D01*
X0224028Y0143333D01*
X0218450Y0143333D01*
X0218450Y0137755D01*
X0218450Y0143333D01*
X0218450Y0143333D01*
X0218450Y0143333D01*
X0212872Y0143333D01*
X0218450Y0143333D01*
X0218450Y0143333D01*
X0224028Y0143333D01*
X0224028Y0143772D01*
X0223891Y0144640D01*
X0223619Y0145475D01*
X0223221Y0146257D01*
X0222705Y0146967D01*
X0222084Y0147588D01*
X0221373Y0148104D01*
X0220591Y0148503D01*
X0219756Y0148774D01*
X0218889Y0148911D01*
X0218450Y0148911D01*
X0218011Y0148911D01*
X0217144Y0148774D01*
X0216309Y0148503D01*
X0215527Y0148104D01*
X0214816Y0147588D01*
X0214195Y0146967D01*
X0213679Y0146257D01*
X0213281Y0145475D01*
X0213009Y0144640D01*
X0214129Y0146875D02*
X0207634Y0146875D01*
X0207778Y0149274D02*
X0243906Y0149274D01*
X0241507Y0151672D02*
X0206749Y0151672D01*
X0197651Y0151672D02*
X0182700Y0151672D01*
X0182700Y0149274D02*
X0196622Y0149274D01*
X0196766Y0146875D02*
X0182549Y0146875D01*
X0181122Y0144477D02*
X0198168Y0144477D01*
X0198300Y0142078D02*
X0178723Y0142078D01*
X0176325Y0139680D02*
X0198300Y0139680D01*
X0198300Y0137281D02*
X0173926Y0137281D01*
X0171528Y0134883D02*
X0198300Y0134883D01*
X0198300Y0132484D02*
X0169129Y0132484D01*
X0166731Y0130086D02*
X0198300Y0130086D01*
X0198300Y0127687D02*
X0164332Y0127687D01*
X0161934Y0125289D02*
X0198300Y0125289D01*
X0198300Y0122890D02*
X0158431Y0122890D01*
X0182700Y0154071D02*
X0239109Y0154071D01*
X0238250Y0156469D02*
X0182700Y0156469D01*
X0182700Y0158868D02*
X0238250Y0158868D01*
X0238250Y0161266D02*
X0182700Y0161266D01*
X0182700Y0163665D02*
X0238250Y0163665D01*
X0238250Y0166063D02*
X0236118Y0166063D01*
X0232782Y0166063D02*
X0182700Y0166063D01*
X0182700Y0168462D02*
X0229303Y0168462D01*
X0228250Y0170860D02*
X0182700Y0170860D01*
X0182700Y0173259D02*
X0228250Y0173259D01*
X0229256Y0175657D02*
X0182700Y0175657D01*
X0171700Y0175657D02*
X0137276Y0175657D01*
X0137778Y0173259D02*
X0171700Y0173259D01*
X0171700Y0170860D02*
X0137200Y0170860D01*
X0134926Y0168462D02*
X0171700Y0168462D01*
X0132200Y0168462D02*
X0132200Y0168462D01*
X0132200Y0170860D02*
X0132200Y0170860D01*
X0132200Y0173259D02*
X0132200Y0173259D01*
X0132200Y0175657D02*
X0132200Y0175657D01*
X0198300Y0120492D02*
X0047012Y0120492D01*
X0040067Y0098905D02*
X0198300Y0098905D01*
X0198300Y0096507D02*
X0042836Y0096507D01*
X0044546Y0094108D02*
X0198300Y0094108D01*
X0198300Y0091710D02*
X0045636Y0091710D01*
X0046235Y0089311D02*
X0198300Y0089311D01*
X0206807Y0084514D02*
X0217593Y0084514D01*
X0217973Y0084894D02*
X0215796Y0082717D01*
X0214618Y0079873D01*
X0214618Y0076794D01*
X0215796Y0073949D01*
X0217973Y0071772D01*
X0220818Y0070594D01*
X0223897Y0070594D01*
X0226741Y0071772D01*
X0228919Y0073949D01*
X0230097Y0076794D01*
X0230097Y0079873D01*
X0228919Y0082717D01*
X0226741Y0084894D01*
X0223897Y0086073D01*
X0220818Y0086073D01*
X0217973Y0084894D01*
X0215547Y0082115D02*
X0208853Y0082115D01*
X0209782Y0079717D02*
X0214618Y0079717D01*
X0214618Y0077318D02*
X0209782Y0077318D01*
X0209006Y0074920D02*
X0215394Y0074920D01*
X0217224Y0072521D02*
X0207176Y0072521D01*
X0227491Y0072521D02*
X0236909Y0072521D01*
X0237659Y0071772D02*
X0240503Y0070594D01*
X0243582Y0070594D01*
X0246427Y0071772D01*
X0248604Y0073949D01*
X0249782Y0076794D01*
X0249782Y0079873D01*
X0248604Y0082717D01*
X0246427Y0084894D01*
X0243582Y0086073D01*
X0240503Y0086073D01*
X0237659Y0084894D01*
X0235481Y0082717D01*
X0234303Y0079873D01*
X0234303Y0076794D01*
X0235481Y0073949D01*
X0237659Y0071772D01*
X0235079Y0074920D02*
X0229321Y0074920D01*
X0230097Y0077318D02*
X0234303Y0077318D01*
X0234303Y0079717D02*
X0230097Y0079717D01*
X0229168Y0082115D02*
X0235232Y0082115D01*
X0237278Y0084514D02*
X0227122Y0084514D01*
X0246807Y0084514D02*
X0257593Y0084514D01*
X0257973Y0084894D02*
X0255796Y0082717D01*
X0254618Y0079873D01*
X0254618Y0076794D01*
X0255796Y0073949D01*
X0257973Y0071772D01*
X0260818Y0070594D01*
X0263897Y0070594D01*
X0266741Y0071772D01*
X0268919Y0073949D01*
X0270097Y0076794D01*
X0270097Y0079873D01*
X0268919Y0082717D01*
X0266741Y0084894D01*
X0263897Y0086073D01*
X0260818Y0086073D01*
X0257973Y0084894D01*
X0255547Y0082115D02*
X0248853Y0082115D01*
X0249782Y0079717D02*
X0254618Y0079717D01*
X0254618Y0077318D02*
X0249782Y0077318D01*
X0249006Y0074920D02*
X0255394Y0074920D01*
X0257224Y0072521D02*
X0247176Y0072521D01*
X0267122Y0084514D02*
X0277278Y0084514D01*
X0277659Y0084894D02*
X0275481Y0082717D01*
X0274303Y0079873D01*
X0274303Y0076794D01*
X0275481Y0073949D01*
X0277659Y0071772D01*
X0280503Y0070594D01*
X0283582Y0070594D01*
X0286427Y0071772D01*
X0288604Y0073949D01*
X0289782Y0076794D01*
X0289782Y0079873D01*
X0288604Y0082717D01*
X0286427Y0084894D01*
X0283582Y0086073D01*
X0280503Y0086073D01*
X0277659Y0084894D01*
X0275232Y0082115D02*
X0269168Y0082115D01*
X0270097Y0079717D02*
X0274303Y0079717D01*
X0274303Y0077318D02*
X0270097Y0077318D01*
X0269321Y0074920D02*
X0275079Y0074920D01*
X0276909Y0072521D02*
X0267491Y0072521D01*
X0287176Y0072521D02*
X0297224Y0072521D01*
X0297973Y0071772D02*
X0300818Y0070594D01*
X0303897Y0070594D01*
X0306741Y0071772D01*
X0308919Y0073949D01*
X0310097Y0076794D01*
X0310097Y0079873D01*
X0308919Y0082717D01*
X0306741Y0084894D01*
X0303897Y0086073D01*
X0300818Y0086073D01*
X0297973Y0084894D01*
X0295796Y0082717D01*
X0294618Y0079873D01*
X0294618Y0076794D01*
X0295796Y0073949D01*
X0297973Y0071772D01*
X0295394Y0074920D02*
X0289006Y0074920D01*
X0289782Y0077318D02*
X0294618Y0077318D01*
X0294618Y0079717D02*
X0289782Y0079717D01*
X0288853Y0082115D02*
X0295547Y0082115D01*
X0297593Y0084514D02*
X0286807Y0084514D01*
X0307122Y0084514D02*
X0317278Y0084514D01*
X0315232Y0082115D02*
X0309168Y0082115D01*
X0310097Y0079717D02*
X0314303Y0079717D01*
X0314303Y0077318D02*
X0310097Y0077318D01*
X0309321Y0074920D02*
X0315079Y0074920D01*
X0316909Y0072521D02*
X0307491Y0072521D01*
X0237099Y0120492D02*
X0206100Y0120492D01*
X0206100Y0122890D02*
X0236400Y0122890D01*
X0236732Y0125289D02*
X0206100Y0125289D01*
X0206100Y0127687D02*
X0238351Y0127687D01*
X0237267Y0130086D02*
X0206100Y0130086D01*
X0206100Y0132484D02*
X0236400Y0132484D01*
X0236564Y0134883D02*
X0206100Y0134883D01*
X0206100Y0137281D02*
X0237945Y0137281D01*
X0237651Y0139680D02*
X0222685Y0139680D01*
X0223899Y0142078D02*
X0236442Y0142078D01*
X0236400Y0144477D02*
X0223916Y0144477D01*
X0222771Y0146875D02*
X0237540Y0146875D01*
X0218450Y0146875D02*
X0218450Y0146875D01*
X0218450Y0148911D02*
X0218450Y0143333D01*
X0218450Y0143333D01*
X0218450Y0148911D01*
X0218450Y0144477D02*
X0218450Y0144477D01*
X0218450Y0142078D02*
X0218450Y0142078D01*
X0218450Y0139680D02*
X0218450Y0139680D01*
X0214215Y0139680D02*
X0206100Y0139680D01*
X0206100Y0142078D02*
X0213001Y0142078D01*
X0198300Y0113296D02*
X0007400Y0113296D01*
X0007400Y0110898D02*
X0198300Y0110898D01*
X0198300Y0108499D02*
X0007400Y0108499D01*
X0007400Y0106101D02*
X0198300Y0106101D01*
X0198300Y0103702D02*
X0007400Y0103702D01*
X0007400Y0101304D02*
X0198300Y0101304D01*
X0182732Y0084514D02*
X0181983Y0084514D01*
X0181983Y0082115D02*
X0182732Y0082115D01*
X0182732Y0079717D02*
X0181983Y0079717D01*
X0181983Y0077318D02*
X0182732Y0077318D01*
X0182732Y0074920D02*
X0181983Y0074920D01*
X0181983Y0072521D02*
X0182732Y0072521D01*
X0177224Y0072521D02*
X0167176Y0072521D01*
X0166427Y0071772D02*
X0168604Y0073949D01*
X0169782Y0076794D01*
X0169782Y0079873D01*
X0168604Y0082717D01*
X0166427Y0084894D01*
X0163582Y0086073D01*
X0160503Y0086073D01*
X0157659Y0084894D01*
X0155481Y0082717D01*
X0154303Y0079873D01*
X0154303Y0076794D01*
X0155481Y0073949D01*
X0157659Y0071772D01*
X0160503Y0070594D01*
X0163582Y0070594D01*
X0166427Y0071772D01*
X0169006Y0074920D02*
X0175394Y0074920D01*
X0174685Y0077318D02*
X0169782Y0077318D01*
X0169782Y0079717D02*
X0174733Y0079717D01*
X0175604Y0082115D02*
X0168853Y0082115D01*
X0166807Y0084514D02*
X0177699Y0084514D01*
X0157278Y0084514D02*
X0147016Y0084514D01*
X0146666Y0084782D02*
X0145788Y0085289D01*
X0144851Y0085678D01*
X0143871Y0085940D01*
X0142865Y0086073D01*
X0142732Y0086073D01*
X0142732Y0078708D01*
X0141983Y0078708D01*
X0141983Y0086073D01*
X0141850Y0086073D01*
X0140844Y0085940D01*
X0139864Y0085678D01*
X0138927Y0085289D01*
X0138048Y0084782D01*
X0137244Y0084165D01*
X0136526Y0083447D01*
X0135909Y0082642D01*
X0135401Y0081764D01*
X0135013Y0080826D01*
X0134751Y0079846D01*
X0134618Y0078841D01*
X0134618Y0078708D01*
X0141983Y0078708D01*
X0141983Y0077959D01*
X0134618Y0077959D01*
X0134618Y0077826D01*
X0134751Y0076820D01*
X0135013Y0075840D01*
X0135401Y0074903D01*
X0135909Y0074024D01*
X0136526Y0073219D01*
X0137244Y0072502D01*
X0138048Y0071884D01*
X0138927Y0071377D01*
X0139864Y0070989D01*
X0140844Y0070726D01*
X0141850Y0070594D01*
X0141983Y0070594D01*
X0141983Y0077958D01*
X0142732Y0077958D01*
X0142732Y0070594D01*
X0142865Y0070594D01*
X0143871Y0070726D01*
X0144851Y0070989D01*
X0145788Y0071377D01*
X0146666Y0071884D01*
X0147471Y0072502D01*
X0148189Y0073219D01*
X0148806Y0074024D01*
X0149314Y0074903D01*
X0149702Y0075840D01*
X0149964Y0076820D01*
X0150097Y0077826D01*
X0150097Y0077959D01*
X0142732Y0077959D01*
X0142732Y0078708D01*
X0150097Y0078708D01*
X0150097Y0078841D01*
X0149964Y0079846D01*
X0149702Y0080826D01*
X0149314Y0081764D01*
X0148806Y0082642D01*
X0148189Y0083447D01*
X0147471Y0084165D01*
X0146666Y0084782D01*
X0149111Y0082115D02*
X0155232Y0082115D01*
X0154303Y0079717D02*
X0149981Y0079717D01*
X0150030Y0077318D02*
X0154303Y0077318D01*
X0155079Y0074920D02*
X0149321Y0074920D01*
X0147491Y0072521D02*
X0156909Y0072521D01*
X0142732Y0072521D02*
X0141983Y0072521D01*
X0141983Y0074920D02*
X0142732Y0074920D01*
X0142732Y0077318D02*
X0141983Y0077318D01*
X0141983Y0079717D02*
X0142732Y0079717D01*
X0142732Y0082115D02*
X0141983Y0082115D01*
X0141983Y0084514D02*
X0142732Y0084514D01*
X0137699Y0084514D02*
X0126807Y0084514D01*
X0126427Y0084894D02*
X0123582Y0086073D01*
X0120503Y0086073D01*
X0117659Y0084894D01*
X0115481Y0082717D01*
X0114303Y0079873D01*
X0114303Y0076794D01*
X0115481Y0073949D01*
X0117659Y0071772D01*
X0120503Y0070594D01*
X0123582Y0070594D01*
X0126427Y0071772D01*
X0128604Y0073949D01*
X0129782Y0076794D01*
X0129782Y0079873D01*
X0128604Y0082717D01*
X0126427Y0084894D01*
X0128853Y0082115D02*
X0135604Y0082115D01*
X0134733Y0079717D02*
X0129782Y0079717D01*
X0129782Y0077318D02*
X0134685Y0077318D01*
X0135394Y0074920D02*
X0129006Y0074920D01*
X0127176Y0072521D02*
X0137224Y0072521D01*
X0116909Y0072521D02*
X0107491Y0072521D01*
X0109321Y0074920D02*
X0115079Y0074920D01*
X0114303Y0077318D02*
X0110030Y0077318D01*
X0109981Y0079717D02*
X0114303Y0079717D01*
X0115232Y0082115D02*
X0109111Y0082115D01*
X0107016Y0084514D02*
X0117278Y0084514D01*
X0097699Y0084514D02*
X0046167Y0084514D01*
X0045512Y0082115D02*
X0095604Y0082115D01*
X0094733Y0079717D02*
X0044356Y0079717D01*
X0042517Y0077318D02*
X0094685Y0077318D01*
X0095394Y0074920D02*
X0039555Y0074920D01*
X0033400Y0074920D02*
X0031000Y0074920D01*
X0031000Y0077318D02*
X0033400Y0077318D01*
X0033400Y0079717D02*
X0031000Y0079717D01*
X0031000Y0082115D02*
X0033400Y0082115D01*
X0033400Y0089311D02*
X0031000Y0089311D01*
X0031000Y0091710D02*
X0033400Y0091710D01*
X0033400Y0094108D02*
X0031000Y0094108D01*
X0031000Y0096507D02*
X0033400Y0096507D01*
X0033400Y0098905D02*
X0031000Y0098905D01*
X0024333Y0098905D02*
X0007400Y0098905D01*
X0007400Y0096507D02*
X0021564Y0096507D01*
X0019854Y0094108D02*
X0007400Y0094108D01*
X0007400Y0091710D02*
X0018764Y0091710D01*
X0097700Y0240417D02*
X0099019Y0240417D01*
X0193784Y0264402D02*
X0207686Y0264402D01*
X0205589Y0353147D02*
X0217557Y0353147D01*
X0222100Y0353147D02*
X0222300Y0353147D01*
X0222300Y0355546D02*
X0222100Y0355546D01*
X0222100Y0357944D02*
X0222300Y0357944D01*
X0222300Y0360343D02*
X0222100Y0360343D01*
X0222100Y0362741D02*
X0222300Y0362741D01*
D20*
X0202200Y0338333D02*
X0162200Y0298333D01*
X0132200Y0338333D02*
X0127200Y0338333D01*
X0117200Y0328333D01*
X0117200Y0283333D01*
X0147200Y0253333D01*
X0147200Y0188333D01*
D21*
X0242200Y0123333D02*
X0247200Y0123333D01*
X0252200Y0128333D01*
X0252200Y0148333D01*
X0243450Y0157083D01*
X0243450Y0172083D01*
X0322200Y0143333D02*
X0347200Y0143333D01*
D22*
X0362043Y0128491D01*
X0362043Y0078333D01*
X0347200Y0083176D02*
X0342357Y0078333D01*
X0347200Y0083176D02*
X0347200Y0123333D01*
X0322200Y0123333D01*
X0177200Y0148333D02*
X0177200Y0198333D01*
X0172200Y0203333D01*
X0172200Y0260833D01*
X0207200Y0295833D01*
X0227200Y0315833D01*
X0269700Y0315833D01*
X0272200Y0318333D01*
X0272200Y0343333D01*
X0287200Y0358333D01*
X0319700Y0358333D01*
X0111964Y0150833D02*
X0092200Y0150833D01*
X0092200Y0220833D01*
X0072200Y0220833D01*
X0022200Y0270833D01*
X0022200Y0310833D01*
X0057200Y0357083D02*
X0070950Y0357083D01*
X0097200Y0329583D01*
X0097200Y0293333D01*
X0082200Y0278333D01*
X0082200Y0263333D01*
X0092200Y0253333D01*
X0092200Y0220833D01*
X0111964Y0150833D02*
X0122200Y0140597D01*
X0122200Y0128333D01*
X0157200Y0128333D01*
X0177200Y0148333D01*
M02*
