G75*
%MOIN*%
%OFA0B0*%
%FSLAX25Y25*%
%IPPOS*%
%LPD*%
%AMOC8*
5,1,8,0,0,1.08239X$1,22.5*
%
%ADD10C,0.00600*%
%ADD11C,0.00500*%
%ADD12C,0.00400*%
%ADD13R,0.02500X0.09000*%
%ADD14R,0.09000X0.02500*%
%ADD15C,0.01200*%
%ADD16R,0.02000X0.10000*%
%ADD17R,0.07500X0.03000*%
%ADD18R,0.10000X0.02000*%
%ADD19R,0.03000X0.07500*%
%ADD20C,0.01000*%
%ADD21R,0.03000X0.01500*%
%ADD22R,0.02000X0.01500*%
D10*
X0025507Y0087083D02*
X0025509Y0087247D01*
X0025515Y0087411D01*
X0025525Y0087575D01*
X0025539Y0087739D01*
X0025557Y0087902D01*
X0025579Y0088065D01*
X0025606Y0088227D01*
X0025636Y0088389D01*
X0025670Y0088549D01*
X0025708Y0088709D01*
X0025749Y0088868D01*
X0025795Y0089026D01*
X0025845Y0089182D01*
X0025898Y0089338D01*
X0025955Y0089492D01*
X0026016Y0089644D01*
X0026081Y0089795D01*
X0026150Y0089945D01*
X0026222Y0090092D01*
X0026297Y0090238D01*
X0026377Y0090382D01*
X0026459Y0090524D01*
X0026545Y0090664D01*
X0026635Y0090801D01*
X0026728Y0090937D01*
X0026824Y0091070D01*
X0026924Y0091201D01*
X0027026Y0091329D01*
X0027132Y0091455D01*
X0027241Y0091578D01*
X0027353Y0091698D01*
X0027467Y0091816D01*
X0027585Y0091930D01*
X0027705Y0092042D01*
X0027828Y0092151D01*
X0027954Y0092257D01*
X0028082Y0092359D01*
X0028213Y0092459D01*
X0028346Y0092555D01*
X0028482Y0092648D01*
X0028619Y0092738D01*
X0028759Y0092824D01*
X0028901Y0092906D01*
X0029045Y0092986D01*
X0029191Y0093061D01*
X0029338Y0093133D01*
X0029488Y0093202D01*
X0029639Y0093267D01*
X0029791Y0093328D01*
X0029945Y0093385D01*
X0030101Y0093438D01*
X0030257Y0093488D01*
X0030415Y0093534D01*
X0030574Y0093575D01*
X0030734Y0093613D01*
X0030894Y0093647D01*
X0031056Y0093677D01*
X0031218Y0093704D01*
X0031381Y0093726D01*
X0031544Y0093744D01*
X0031708Y0093758D01*
X0031872Y0093768D01*
X0032036Y0093774D01*
X0032200Y0093776D01*
X0032364Y0093774D01*
X0032528Y0093768D01*
X0032692Y0093758D01*
X0032856Y0093744D01*
X0033019Y0093726D01*
X0033182Y0093704D01*
X0033344Y0093677D01*
X0033506Y0093647D01*
X0033666Y0093613D01*
X0033826Y0093575D01*
X0033985Y0093534D01*
X0034143Y0093488D01*
X0034299Y0093438D01*
X0034455Y0093385D01*
X0034609Y0093328D01*
X0034761Y0093267D01*
X0034912Y0093202D01*
X0035062Y0093133D01*
X0035209Y0093061D01*
X0035355Y0092986D01*
X0035499Y0092906D01*
X0035641Y0092824D01*
X0035781Y0092738D01*
X0035918Y0092648D01*
X0036054Y0092555D01*
X0036187Y0092459D01*
X0036318Y0092359D01*
X0036446Y0092257D01*
X0036572Y0092151D01*
X0036695Y0092042D01*
X0036815Y0091930D01*
X0036933Y0091816D01*
X0037047Y0091698D01*
X0037159Y0091578D01*
X0037268Y0091455D01*
X0037374Y0091329D01*
X0037476Y0091201D01*
X0037576Y0091070D01*
X0037672Y0090937D01*
X0037765Y0090801D01*
X0037855Y0090664D01*
X0037941Y0090524D01*
X0038023Y0090382D01*
X0038103Y0090238D01*
X0038178Y0090092D01*
X0038250Y0089945D01*
X0038319Y0089795D01*
X0038384Y0089644D01*
X0038445Y0089492D01*
X0038502Y0089338D01*
X0038555Y0089182D01*
X0038605Y0089026D01*
X0038651Y0088868D01*
X0038692Y0088709D01*
X0038730Y0088549D01*
X0038764Y0088389D01*
X0038794Y0088227D01*
X0038821Y0088065D01*
X0038843Y0087902D01*
X0038861Y0087739D01*
X0038875Y0087575D01*
X0038885Y0087411D01*
X0038891Y0087247D01*
X0038893Y0087083D01*
X0038891Y0086919D01*
X0038885Y0086755D01*
X0038875Y0086591D01*
X0038861Y0086427D01*
X0038843Y0086264D01*
X0038821Y0086101D01*
X0038794Y0085939D01*
X0038764Y0085777D01*
X0038730Y0085617D01*
X0038692Y0085457D01*
X0038651Y0085298D01*
X0038605Y0085140D01*
X0038555Y0084984D01*
X0038502Y0084828D01*
X0038445Y0084674D01*
X0038384Y0084522D01*
X0038319Y0084371D01*
X0038250Y0084221D01*
X0038178Y0084074D01*
X0038103Y0083928D01*
X0038023Y0083784D01*
X0037941Y0083642D01*
X0037855Y0083502D01*
X0037765Y0083365D01*
X0037672Y0083229D01*
X0037576Y0083096D01*
X0037476Y0082965D01*
X0037374Y0082837D01*
X0037268Y0082711D01*
X0037159Y0082588D01*
X0037047Y0082468D01*
X0036933Y0082350D01*
X0036815Y0082236D01*
X0036695Y0082124D01*
X0036572Y0082015D01*
X0036446Y0081909D01*
X0036318Y0081807D01*
X0036187Y0081707D01*
X0036054Y0081611D01*
X0035918Y0081518D01*
X0035781Y0081428D01*
X0035641Y0081342D01*
X0035499Y0081260D01*
X0035355Y0081180D01*
X0035209Y0081105D01*
X0035062Y0081033D01*
X0034912Y0080964D01*
X0034761Y0080899D01*
X0034609Y0080838D01*
X0034455Y0080781D01*
X0034299Y0080728D01*
X0034143Y0080678D01*
X0033985Y0080632D01*
X0033826Y0080591D01*
X0033666Y0080553D01*
X0033506Y0080519D01*
X0033344Y0080489D01*
X0033182Y0080462D01*
X0033019Y0080440D01*
X0032856Y0080422D01*
X0032692Y0080408D01*
X0032528Y0080398D01*
X0032364Y0080392D01*
X0032200Y0080390D01*
X0032036Y0080392D01*
X0031872Y0080398D01*
X0031708Y0080408D01*
X0031544Y0080422D01*
X0031381Y0080440D01*
X0031218Y0080462D01*
X0031056Y0080489D01*
X0030894Y0080519D01*
X0030734Y0080553D01*
X0030574Y0080591D01*
X0030415Y0080632D01*
X0030257Y0080678D01*
X0030101Y0080728D01*
X0029945Y0080781D01*
X0029791Y0080838D01*
X0029639Y0080899D01*
X0029488Y0080964D01*
X0029338Y0081033D01*
X0029191Y0081105D01*
X0029045Y0081180D01*
X0028901Y0081260D01*
X0028759Y0081342D01*
X0028619Y0081428D01*
X0028482Y0081518D01*
X0028346Y0081611D01*
X0028213Y0081707D01*
X0028082Y0081807D01*
X0027954Y0081909D01*
X0027828Y0082015D01*
X0027705Y0082124D01*
X0027585Y0082236D01*
X0027467Y0082350D01*
X0027353Y0082468D01*
X0027241Y0082588D01*
X0027132Y0082711D01*
X0027026Y0082837D01*
X0026924Y0082965D01*
X0026824Y0083096D01*
X0026728Y0083229D01*
X0026635Y0083365D01*
X0026545Y0083502D01*
X0026459Y0083642D01*
X0026377Y0083784D01*
X0026297Y0083928D01*
X0026222Y0084074D01*
X0026150Y0084221D01*
X0026081Y0084371D01*
X0026016Y0084522D01*
X0025955Y0084674D01*
X0025898Y0084828D01*
X0025845Y0084984D01*
X0025795Y0085140D01*
X0025749Y0085298D01*
X0025708Y0085457D01*
X0025670Y0085617D01*
X0025636Y0085777D01*
X0025606Y0085939D01*
X0025579Y0086101D01*
X0025557Y0086264D01*
X0025539Y0086427D01*
X0025525Y0086591D01*
X0025515Y0086755D01*
X0025509Y0086919D01*
X0025507Y0087083D01*
X0018700Y0087083D02*
X0018704Y0087414D01*
X0018716Y0087745D01*
X0018737Y0088076D01*
X0018765Y0088406D01*
X0018802Y0088736D01*
X0018846Y0089064D01*
X0018899Y0089391D01*
X0018959Y0089717D01*
X0019028Y0090041D01*
X0019105Y0090363D01*
X0019189Y0090684D01*
X0019281Y0091002D01*
X0019381Y0091318D01*
X0019489Y0091631D01*
X0019605Y0091942D01*
X0019728Y0092249D01*
X0019858Y0092554D01*
X0019996Y0092855D01*
X0020141Y0093153D01*
X0020294Y0093447D01*
X0020454Y0093737D01*
X0020621Y0094023D01*
X0020794Y0094305D01*
X0020975Y0094583D01*
X0021163Y0094856D01*
X0021357Y0095125D01*
X0021557Y0095389D01*
X0021764Y0095647D01*
X0021978Y0095901D01*
X0022197Y0096149D01*
X0022423Y0096392D01*
X0022654Y0096629D01*
X0022891Y0096860D01*
X0023134Y0097086D01*
X0023382Y0097305D01*
X0023636Y0097519D01*
X0023894Y0097726D01*
X0024158Y0097926D01*
X0024427Y0098120D01*
X0024700Y0098308D01*
X0024978Y0098489D01*
X0025260Y0098662D01*
X0025546Y0098829D01*
X0025836Y0098989D01*
X0026130Y0099142D01*
X0026428Y0099287D01*
X0026729Y0099425D01*
X0027034Y0099555D01*
X0027341Y0099678D01*
X0027652Y0099794D01*
X0027965Y0099902D01*
X0028281Y0100002D01*
X0028599Y0100094D01*
X0028920Y0100178D01*
X0029242Y0100255D01*
X0029566Y0100324D01*
X0029892Y0100384D01*
X0030219Y0100437D01*
X0030547Y0100481D01*
X0030877Y0100518D01*
X0031207Y0100546D01*
X0031538Y0100567D01*
X0031869Y0100579D01*
X0032200Y0100583D01*
X0032531Y0100579D01*
X0032862Y0100567D01*
X0033193Y0100546D01*
X0033523Y0100518D01*
X0033853Y0100481D01*
X0034181Y0100437D01*
X0034508Y0100384D01*
X0034834Y0100324D01*
X0035158Y0100255D01*
X0035480Y0100178D01*
X0035801Y0100094D01*
X0036119Y0100002D01*
X0036435Y0099902D01*
X0036748Y0099794D01*
X0037059Y0099678D01*
X0037366Y0099555D01*
X0037671Y0099425D01*
X0037972Y0099287D01*
X0038270Y0099142D01*
X0038564Y0098989D01*
X0038854Y0098829D01*
X0039140Y0098662D01*
X0039422Y0098489D01*
X0039700Y0098308D01*
X0039973Y0098120D01*
X0040242Y0097926D01*
X0040506Y0097726D01*
X0040764Y0097519D01*
X0041018Y0097305D01*
X0041266Y0097086D01*
X0041509Y0096860D01*
X0041746Y0096629D01*
X0041977Y0096392D01*
X0042203Y0096149D01*
X0042422Y0095901D01*
X0042636Y0095647D01*
X0042843Y0095389D01*
X0043043Y0095125D01*
X0043237Y0094856D01*
X0043425Y0094583D01*
X0043606Y0094305D01*
X0043779Y0094023D01*
X0043946Y0093737D01*
X0044106Y0093447D01*
X0044259Y0093153D01*
X0044404Y0092855D01*
X0044542Y0092554D01*
X0044672Y0092249D01*
X0044795Y0091942D01*
X0044911Y0091631D01*
X0045019Y0091318D01*
X0045119Y0091002D01*
X0045211Y0090684D01*
X0045295Y0090363D01*
X0045372Y0090041D01*
X0045441Y0089717D01*
X0045501Y0089391D01*
X0045554Y0089064D01*
X0045598Y0088736D01*
X0045635Y0088406D01*
X0045663Y0088076D01*
X0045684Y0087745D01*
X0045696Y0087414D01*
X0045700Y0087083D01*
X0045696Y0086752D01*
X0045684Y0086421D01*
X0045663Y0086090D01*
X0045635Y0085760D01*
X0045598Y0085430D01*
X0045554Y0085102D01*
X0045501Y0084775D01*
X0045441Y0084449D01*
X0045372Y0084125D01*
X0045295Y0083803D01*
X0045211Y0083482D01*
X0045119Y0083164D01*
X0045019Y0082848D01*
X0044911Y0082535D01*
X0044795Y0082224D01*
X0044672Y0081917D01*
X0044542Y0081612D01*
X0044404Y0081311D01*
X0044259Y0081013D01*
X0044106Y0080719D01*
X0043946Y0080429D01*
X0043779Y0080143D01*
X0043606Y0079861D01*
X0043425Y0079583D01*
X0043237Y0079310D01*
X0043043Y0079041D01*
X0042843Y0078777D01*
X0042636Y0078519D01*
X0042422Y0078265D01*
X0042203Y0078017D01*
X0041977Y0077774D01*
X0041746Y0077537D01*
X0041509Y0077306D01*
X0041266Y0077080D01*
X0041018Y0076861D01*
X0040764Y0076647D01*
X0040506Y0076440D01*
X0040242Y0076240D01*
X0039973Y0076046D01*
X0039700Y0075858D01*
X0039422Y0075677D01*
X0039140Y0075504D01*
X0038854Y0075337D01*
X0038564Y0075177D01*
X0038270Y0075024D01*
X0037972Y0074879D01*
X0037671Y0074741D01*
X0037366Y0074611D01*
X0037059Y0074488D01*
X0036748Y0074372D01*
X0036435Y0074264D01*
X0036119Y0074164D01*
X0035801Y0074072D01*
X0035480Y0073988D01*
X0035158Y0073911D01*
X0034834Y0073842D01*
X0034508Y0073782D01*
X0034181Y0073729D01*
X0033853Y0073685D01*
X0033523Y0073648D01*
X0033193Y0073620D01*
X0032862Y0073599D01*
X0032531Y0073587D01*
X0032200Y0073583D01*
X0031869Y0073587D01*
X0031538Y0073599D01*
X0031207Y0073620D01*
X0030877Y0073648D01*
X0030547Y0073685D01*
X0030219Y0073729D01*
X0029892Y0073782D01*
X0029566Y0073842D01*
X0029242Y0073911D01*
X0028920Y0073988D01*
X0028599Y0074072D01*
X0028281Y0074164D01*
X0027965Y0074264D01*
X0027652Y0074372D01*
X0027341Y0074488D01*
X0027034Y0074611D01*
X0026729Y0074741D01*
X0026428Y0074879D01*
X0026130Y0075024D01*
X0025836Y0075177D01*
X0025546Y0075337D01*
X0025260Y0075504D01*
X0024978Y0075677D01*
X0024700Y0075858D01*
X0024427Y0076046D01*
X0024158Y0076240D01*
X0023894Y0076440D01*
X0023636Y0076647D01*
X0023382Y0076861D01*
X0023134Y0077080D01*
X0022891Y0077306D01*
X0022654Y0077537D01*
X0022423Y0077774D01*
X0022197Y0078017D01*
X0021978Y0078265D01*
X0021764Y0078519D01*
X0021557Y0078777D01*
X0021357Y0079041D01*
X0021163Y0079310D01*
X0020975Y0079583D01*
X0020794Y0079861D01*
X0020621Y0080143D01*
X0020454Y0080429D01*
X0020294Y0080719D01*
X0020141Y0081013D01*
X0019996Y0081311D01*
X0019858Y0081612D01*
X0019728Y0081917D01*
X0019605Y0082224D01*
X0019489Y0082535D01*
X0019381Y0082848D01*
X0019281Y0083164D01*
X0019189Y0083482D01*
X0019105Y0083803D01*
X0019028Y0084125D01*
X0018959Y0084449D01*
X0018899Y0084775D01*
X0018846Y0085102D01*
X0018802Y0085430D01*
X0018765Y0085760D01*
X0018737Y0086090D01*
X0018716Y0086421D01*
X0018704Y0086752D01*
X0018700Y0087083D01*
X0021200Y0131833D02*
X0021200Y0174833D01*
X0024700Y0174833D01*
X0029700Y0174833D02*
X0034700Y0174833D01*
X0039700Y0174833D02*
X0083200Y0174833D01*
X0083200Y0131833D01*
X0039700Y0131833D01*
X0034700Y0131833D02*
X0029700Y0131833D01*
X0024700Y0131833D02*
X0021200Y0131833D01*
X0027200Y0145333D02*
X0027200Y0150333D01*
X0026200Y0149833D02*
X0031200Y0153333D01*
X0077200Y0153333D01*
X0077200Y0162333D01*
X0077200Y0153333D02*
X0077200Y0144333D01*
X0057200Y0142333D02*
X0050200Y0142333D01*
X0047700Y0142333D01*
X0052700Y0150333D01*
X0050200Y0150333D01*
X0042700Y0150333D01*
X0042700Y0142333D01*
X0047700Y0142333D01*
X0050200Y0142333D02*
X0050200Y0138333D01*
X0042700Y0138333D01*
X0050200Y0150333D02*
X0050200Y0168333D01*
X0042700Y0168333D01*
X0049200Y0183333D02*
X0049200Y0193333D01*
X0065200Y0193333D01*
X0065200Y0183333D01*
X0049200Y0183333D01*
X0054700Y0188333D02*
X0057200Y0188333D01*
X0057200Y0185833D01*
X0057200Y0188333D02*
X0057200Y0190833D01*
X0057200Y0188333D02*
X0061200Y0190833D01*
X0061200Y0185833D01*
X0057200Y0188333D01*
X0063200Y0188333D01*
X0050200Y0208333D02*
X0042700Y0208333D01*
X0042700Y0212333D02*
X0047700Y0212333D01*
X0052700Y0220333D01*
X0050200Y0220333D01*
X0042700Y0220333D01*
X0042700Y0212333D01*
X0047700Y0212333D02*
X0050200Y0212333D01*
X0057200Y0212333D01*
X0057200Y0220333D01*
X0052700Y0220333D01*
X0050200Y0220333D02*
X0050200Y0238333D01*
X0042700Y0238333D01*
X0039700Y0244833D02*
X0083200Y0244833D01*
X0083200Y0201833D01*
X0039700Y0201833D01*
X0034700Y0201833D02*
X0029700Y0201833D01*
X0024700Y0201833D02*
X0021200Y0201833D01*
X0021200Y0244833D01*
X0024700Y0244833D01*
X0029700Y0244833D02*
X0034700Y0244833D01*
X0027200Y0231333D02*
X0027200Y0226833D01*
X0031200Y0223333D02*
X0077200Y0223333D01*
X0077200Y0232333D01*
X0077200Y0223333D02*
X0077200Y0214333D01*
X0050200Y0212333D02*
X0050200Y0208333D01*
X0031200Y0223333D02*
X0026200Y0219833D01*
X0027200Y0220333D02*
X0027200Y0215333D01*
X0027200Y0161333D02*
X0027200Y0156833D01*
X0052700Y0150333D02*
X0057200Y0150333D01*
X0057200Y0142333D01*
X0107700Y0128333D02*
X0109700Y0128333D01*
X0094700Y0128333D02*
X0094705Y0128762D01*
X0094721Y0129192D01*
X0094747Y0129620D01*
X0094784Y0130048D01*
X0094832Y0130475D01*
X0094889Y0130901D01*
X0094958Y0131325D01*
X0095036Y0131747D01*
X0095125Y0132167D01*
X0095224Y0132585D01*
X0095334Y0133000D01*
X0095454Y0133413D01*
X0095583Y0133822D01*
X0095723Y0134229D01*
X0095873Y0134631D01*
X0096032Y0135030D01*
X0096201Y0135425D01*
X0096380Y0135815D01*
X0096569Y0136201D01*
X0096766Y0136582D01*
X0096973Y0136959D01*
X0097190Y0137330D01*
X0097415Y0137695D01*
X0097649Y0138055D01*
X0097892Y0138410D01*
X0098144Y0138758D01*
X0098404Y0139100D01*
X0098672Y0139435D01*
X0098949Y0139764D01*
X0099233Y0140085D01*
X0099526Y0140400D01*
X0099826Y0140707D01*
X0100133Y0141007D01*
X0100448Y0141300D01*
X0100769Y0141584D01*
X0101098Y0141861D01*
X0101433Y0142129D01*
X0101775Y0142389D01*
X0102123Y0142641D01*
X0102478Y0142884D01*
X0102838Y0143118D01*
X0103203Y0143343D01*
X0103574Y0143560D01*
X0103951Y0143767D01*
X0104332Y0143964D01*
X0104718Y0144153D01*
X0105108Y0144332D01*
X0105503Y0144501D01*
X0105902Y0144660D01*
X0106304Y0144810D01*
X0106711Y0144950D01*
X0107120Y0145079D01*
X0107533Y0145199D01*
X0107948Y0145309D01*
X0108366Y0145408D01*
X0108786Y0145497D01*
X0109208Y0145575D01*
X0109632Y0145644D01*
X0110058Y0145701D01*
X0110485Y0145749D01*
X0110913Y0145786D01*
X0111341Y0145812D01*
X0111771Y0145828D01*
X0112200Y0145833D01*
X0112629Y0145828D01*
X0113059Y0145812D01*
X0113487Y0145786D01*
X0113915Y0145749D01*
X0114342Y0145701D01*
X0114768Y0145644D01*
X0115192Y0145575D01*
X0115614Y0145497D01*
X0116034Y0145408D01*
X0116452Y0145309D01*
X0116867Y0145199D01*
X0117280Y0145079D01*
X0117689Y0144950D01*
X0118096Y0144810D01*
X0118498Y0144660D01*
X0118897Y0144501D01*
X0119292Y0144332D01*
X0119682Y0144153D01*
X0120068Y0143964D01*
X0120449Y0143767D01*
X0120826Y0143560D01*
X0121197Y0143343D01*
X0121562Y0143118D01*
X0121922Y0142884D01*
X0122277Y0142641D01*
X0122625Y0142389D01*
X0122967Y0142129D01*
X0123302Y0141861D01*
X0123631Y0141584D01*
X0123952Y0141300D01*
X0124267Y0141007D01*
X0124574Y0140707D01*
X0124874Y0140400D01*
X0125167Y0140085D01*
X0125451Y0139764D01*
X0125728Y0139435D01*
X0125996Y0139100D01*
X0126256Y0138758D01*
X0126508Y0138410D01*
X0126751Y0138055D01*
X0126985Y0137695D01*
X0127210Y0137330D01*
X0127427Y0136959D01*
X0127634Y0136582D01*
X0127831Y0136201D01*
X0128020Y0135815D01*
X0128199Y0135425D01*
X0128368Y0135030D01*
X0128527Y0134631D01*
X0128677Y0134229D01*
X0128817Y0133822D01*
X0128946Y0133413D01*
X0129066Y0133000D01*
X0129176Y0132585D01*
X0129275Y0132167D01*
X0129364Y0131747D01*
X0129442Y0131325D01*
X0129511Y0130901D01*
X0129568Y0130475D01*
X0129616Y0130048D01*
X0129653Y0129620D01*
X0129679Y0129192D01*
X0129695Y0128762D01*
X0129700Y0128333D01*
X0129695Y0127904D01*
X0129679Y0127474D01*
X0129653Y0127046D01*
X0129616Y0126618D01*
X0129568Y0126191D01*
X0129511Y0125765D01*
X0129442Y0125341D01*
X0129364Y0124919D01*
X0129275Y0124499D01*
X0129176Y0124081D01*
X0129066Y0123666D01*
X0128946Y0123253D01*
X0128817Y0122844D01*
X0128677Y0122437D01*
X0128527Y0122035D01*
X0128368Y0121636D01*
X0128199Y0121241D01*
X0128020Y0120851D01*
X0127831Y0120465D01*
X0127634Y0120084D01*
X0127427Y0119707D01*
X0127210Y0119336D01*
X0126985Y0118971D01*
X0126751Y0118611D01*
X0126508Y0118256D01*
X0126256Y0117908D01*
X0125996Y0117566D01*
X0125728Y0117231D01*
X0125451Y0116902D01*
X0125167Y0116581D01*
X0124874Y0116266D01*
X0124574Y0115959D01*
X0124267Y0115659D01*
X0123952Y0115366D01*
X0123631Y0115082D01*
X0123302Y0114805D01*
X0122967Y0114537D01*
X0122625Y0114277D01*
X0122277Y0114025D01*
X0121922Y0113782D01*
X0121562Y0113548D01*
X0121197Y0113323D01*
X0120826Y0113106D01*
X0120449Y0112899D01*
X0120068Y0112702D01*
X0119682Y0112513D01*
X0119292Y0112334D01*
X0118897Y0112165D01*
X0118498Y0112006D01*
X0118096Y0111856D01*
X0117689Y0111716D01*
X0117280Y0111587D01*
X0116867Y0111467D01*
X0116452Y0111357D01*
X0116034Y0111258D01*
X0115614Y0111169D01*
X0115192Y0111091D01*
X0114768Y0111022D01*
X0114342Y0110965D01*
X0113915Y0110917D01*
X0113487Y0110880D01*
X0113059Y0110854D01*
X0112629Y0110838D01*
X0112200Y0110833D01*
X0111771Y0110838D01*
X0111341Y0110854D01*
X0110913Y0110880D01*
X0110485Y0110917D01*
X0110058Y0110965D01*
X0109632Y0111022D01*
X0109208Y0111091D01*
X0108786Y0111169D01*
X0108366Y0111258D01*
X0107948Y0111357D01*
X0107533Y0111467D01*
X0107120Y0111587D01*
X0106711Y0111716D01*
X0106304Y0111856D01*
X0105902Y0112006D01*
X0105503Y0112165D01*
X0105108Y0112334D01*
X0104718Y0112513D01*
X0104332Y0112702D01*
X0103951Y0112899D01*
X0103574Y0113106D01*
X0103203Y0113323D01*
X0102838Y0113548D01*
X0102478Y0113782D01*
X0102123Y0114025D01*
X0101775Y0114277D01*
X0101433Y0114537D01*
X0101098Y0114805D01*
X0100769Y0115082D01*
X0100448Y0115366D01*
X0100133Y0115659D01*
X0099826Y0115959D01*
X0099526Y0116266D01*
X0099233Y0116581D01*
X0098949Y0116902D01*
X0098672Y0117231D01*
X0098404Y0117566D01*
X0098144Y0117908D01*
X0097892Y0118256D01*
X0097649Y0118611D01*
X0097415Y0118971D01*
X0097190Y0119336D01*
X0096973Y0119707D01*
X0096766Y0120084D01*
X0096569Y0120465D01*
X0096380Y0120851D01*
X0096201Y0121241D01*
X0096032Y0121636D01*
X0095873Y0122035D01*
X0095723Y0122437D01*
X0095583Y0122844D01*
X0095454Y0123253D01*
X0095334Y0123666D01*
X0095224Y0124081D01*
X0095125Y0124499D01*
X0095036Y0124919D01*
X0094958Y0125341D01*
X0094889Y0125765D01*
X0094832Y0126191D01*
X0094784Y0126618D01*
X0094747Y0127046D01*
X0094721Y0127474D01*
X0094705Y0127904D01*
X0094700Y0128333D01*
X0113200Y0123833D02*
X0115700Y0123833D01*
X0115700Y0128333D01*
X0115700Y0132833D01*
X0113200Y0132833D01*
X0113200Y0123833D01*
X0115700Y0128333D02*
X0116700Y0128333D01*
X0123700Y0121833D02*
X0126700Y0121833D01*
X0125200Y0120333D02*
X0125200Y0123333D01*
X0227950Y0167583D02*
X0227950Y0172083D01*
X0228950Y0178083D01*
X0232450Y0178083D01*
X0236450Y0178083D02*
X0241450Y0178083D01*
X0245450Y0178083D02*
X0250450Y0178083D01*
X0254450Y0178083D02*
X0257950Y0178083D01*
X0258950Y0172083D01*
X0258950Y0167583D01*
X0316200Y0146833D02*
X0316200Y0119833D01*
X0316202Y0119773D01*
X0316207Y0119712D01*
X0316216Y0119653D01*
X0316229Y0119594D01*
X0316245Y0119535D01*
X0316265Y0119478D01*
X0316288Y0119423D01*
X0316315Y0119368D01*
X0316344Y0119316D01*
X0316377Y0119265D01*
X0316413Y0119216D01*
X0316451Y0119170D01*
X0316493Y0119126D01*
X0316537Y0119084D01*
X0316583Y0119046D01*
X0316632Y0119010D01*
X0316683Y0118977D01*
X0316735Y0118948D01*
X0316790Y0118921D01*
X0316845Y0118898D01*
X0316902Y0118878D01*
X0316961Y0118862D01*
X0317020Y0118849D01*
X0317079Y0118840D01*
X0317140Y0118835D01*
X0317200Y0118833D01*
X0327200Y0118833D01*
X0327260Y0118835D01*
X0327321Y0118840D01*
X0327380Y0118849D01*
X0327439Y0118862D01*
X0327498Y0118878D01*
X0327555Y0118898D01*
X0327610Y0118921D01*
X0327665Y0118948D01*
X0327717Y0118977D01*
X0327768Y0119010D01*
X0327817Y0119046D01*
X0327863Y0119084D01*
X0327907Y0119126D01*
X0327949Y0119170D01*
X0327987Y0119216D01*
X0328023Y0119265D01*
X0328056Y0119316D01*
X0328085Y0119368D01*
X0328112Y0119423D01*
X0328135Y0119478D01*
X0328155Y0119535D01*
X0328171Y0119594D01*
X0328184Y0119653D01*
X0328193Y0119712D01*
X0328198Y0119773D01*
X0328200Y0119833D01*
X0328200Y0146833D01*
X0328198Y0146893D01*
X0328193Y0146954D01*
X0328184Y0147013D01*
X0328171Y0147072D01*
X0328155Y0147131D01*
X0328135Y0147188D01*
X0328112Y0147243D01*
X0328085Y0147298D01*
X0328056Y0147350D01*
X0328023Y0147401D01*
X0327987Y0147450D01*
X0327949Y0147496D01*
X0327907Y0147540D01*
X0327863Y0147582D01*
X0327817Y0147620D01*
X0327768Y0147656D01*
X0327717Y0147689D01*
X0327665Y0147718D01*
X0327610Y0147745D01*
X0327555Y0147768D01*
X0327498Y0147788D01*
X0327439Y0147804D01*
X0327380Y0147817D01*
X0327321Y0147826D01*
X0327260Y0147831D01*
X0327200Y0147833D01*
X0317200Y0147833D01*
X0317140Y0147831D01*
X0317079Y0147826D01*
X0317020Y0147817D01*
X0316961Y0147804D01*
X0316902Y0147788D01*
X0316845Y0147768D01*
X0316790Y0147745D01*
X0316735Y0147718D01*
X0316683Y0147689D01*
X0316632Y0147656D01*
X0316583Y0147620D01*
X0316537Y0147582D01*
X0316493Y0147540D01*
X0316451Y0147496D01*
X0316413Y0147450D01*
X0316377Y0147401D01*
X0316344Y0147350D01*
X0316315Y0147298D01*
X0316288Y0147243D01*
X0316265Y0147188D01*
X0316245Y0147131D01*
X0316229Y0147072D01*
X0316216Y0147013D01*
X0316207Y0146954D01*
X0316202Y0146893D01*
X0316200Y0146833D01*
X0322200Y0139333D02*
X0322200Y0134533D01*
X0322200Y0132033D02*
X0322200Y0127333D01*
X0342700Y0134333D02*
X0351700Y0134333D01*
X0351700Y0136833D01*
X0347200Y0136833D01*
X0342700Y0136833D01*
X0342700Y0134333D01*
X0329700Y0133333D02*
X0329705Y0133762D01*
X0329721Y0134192D01*
X0329747Y0134620D01*
X0329784Y0135048D01*
X0329832Y0135475D01*
X0329889Y0135901D01*
X0329958Y0136325D01*
X0330036Y0136747D01*
X0330125Y0137167D01*
X0330224Y0137585D01*
X0330334Y0138000D01*
X0330454Y0138413D01*
X0330583Y0138822D01*
X0330723Y0139229D01*
X0330873Y0139631D01*
X0331032Y0140030D01*
X0331201Y0140425D01*
X0331380Y0140815D01*
X0331569Y0141201D01*
X0331766Y0141582D01*
X0331973Y0141959D01*
X0332190Y0142330D01*
X0332415Y0142695D01*
X0332649Y0143055D01*
X0332892Y0143410D01*
X0333144Y0143758D01*
X0333404Y0144100D01*
X0333672Y0144435D01*
X0333949Y0144764D01*
X0334233Y0145085D01*
X0334526Y0145400D01*
X0334826Y0145707D01*
X0335133Y0146007D01*
X0335448Y0146300D01*
X0335769Y0146584D01*
X0336098Y0146861D01*
X0336433Y0147129D01*
X0336775Y0147389D01*
X0337123Y0147641D01*
X0337478Y0147884D01*
X0337838Y0148118D01*
X0338203Y0148343D01*
X0338574Y0148560D01*
X0338951Y0148767D01*
X0339332Y0148964D01*
X0339718Y0149153D01*
X0340108Y0149332D01*
X0340503Y0149501D01*
X0340902Y0149660D01*
X0341304Y0149810D01*
X0341711Y0149950D01*
X0342120Y0150079D01*
X0342533Y0150199D01*
X0342948Y0150309D01*
X0343366Y0150408D01*
X0343786Y0150497D01*
X0344208Y0150575D01*
X0344632Y0150644D01*
X0345058Y0150701D01*
X0345485Y0150749D01*
X0345913Y0150786D01*
X0346341Y0150812D01*
X0346771Y0150828D01*
X0347200Y0150833D01*
X0347629Y0150828D01*
X0348059Y0150812D01*
X0348487Y0150786D01*
X0348915Y0150749D01*
X0349342Y0150701D01*
X0349768Y0150644D01*
X0350192Y0150575D01*
X0350614Y0150497D01*
X0351034Y0150408D01*
X0351452Y0150309D01*
X0351867Y0150199D01*
X0352280Y0150079D01*
X0352689Y0149950D01*
X0353096Y0149810D01*
X0353498Y0149660D01*
X0353897Y0149501D01*
X0354292Y0149332D01*
X0354682Y0149153D01*
X0355068Y0148964D01*
X0355449Y0148767D01*
X0355826Y0148560D01*
X0356197Y0148343D01*
X0356562Y0148118D01*
X0356922Y0147884D01*
X0357277Y0147641D01*
X0357625Y0147389D01*
X0357967Y0147129D01*
X0358302Y0146861D01*
X0358631Y0146584D01*
X0358952Y0146300D01*
X0359267Y0146007D01*
X0359574Y0145707D01*
X0359874Y0145400D01*
X0360167Y0145085D01*
X0360451Y0144764D01*
X0360728Y0144435D01*
X0360996Y0144100D01*
X0361256Y0143758D01*
X0361508Y0143410D01*
X0361751Y0143055D01*
X0361985Y0142695D01*
X0362210Y0142330D01*
X0362427Y0141959D01*
X0362634Y0141582D01*
X0362831Y0141201D01*
X0363020Y0140815D01*
X0363199Y0140425D01*
X0363368Y0140030D01*
X0363527Y0139631D01*
X0363677Y0139229D01*
X0363817Y0138822D01*
X0363946Y0138413D01*
X0364066Y0138000D01*
X0364176Y0137585D01*
X0364275Y0137167D01*
X0364364Y0136747D01*
X0364442Y0136325D01*
X0364511Y0135901D01*
X0364568Y0135475D01*
X0364616Y0135048D01*
X0364653Y0134620D01*
X0364679Y0134192D01*
X0364695Y0133762D01*
X0364700Y0133333D01*
X0364695Y0132904D01*
X0364679Y0132474D01*
X0364653Y0132046D01*
X0364616Y0131618D01*
X0364568Y0131191D01*
X0364511Y0130765D01*
X0364442Y0130341D01*
X0364364Y0129919D01*
X0364275Y0129499D01*
X0364176Y0129081D01*
X0364066Y0128666D01*
X0363946Y0128253D01*
X0363817Y0127844D01*
X0363677Y0127437D01*
X0363527Y0127035D01*
X0363368Y0126636D01*
X0363199Y0126241D01*
X0363020Y0125851D01*
X0362831Y0125465D01*
X0362634Y0125084D01*
X0362427Y0124707D01*
X0362210Y0124336D01*
X0361985Y0123971D01*
X0361751Y0123611D01*
X0361508Y0123256D01*
X0361256Y0122908D01*
X0360996Y0122566D01*
X0360728Y0122231D01*
X0360451Y0121902D01*
X0360167Y0121581D01*
X0359874Y0121266D01*
X0359574Y0120959D01*
X0359267Y0120659D01*
X0358952Y0120366D01*
X0358631Y0120082D01*
X0358302Y0119805D01*
X0357967Y0119537D01*
X0357625Y0119277D01*
X0357277Y0119025D01*
X0356922Y0118782D01*
X0356562Y0118548D01*
X0356197Y0118323D01*
X0355826Y0118106D01*
X0355449Y0117899D01*
X0355068Y0117702D01*
X0354682Y0117513D01*
X0354292Y0117334D01*
X0353897Y0117165D01*
X0353498Y0117006D01*
X0353096Y0116856D01*
X0352689Y0116716D01*
X0352280Y0116587D01*
X0351867Y0116467D01*
X0351452Y0116357D01*
X0351034Y0116258D01*
X0350614Y0116169D01*
X0350192Y0116091D01*
X0349768Y0116022D01*
X0349342Y0115965D01*
X0348915Y0115917D01*
X0348487Y0115880D01*
X0348059Y0115854D01*
X0347629Y0115838D01*
X0347200Y0115833D01*
X0346771Y0115838D01*
X0346341Y0115854D01*
X0345913Y0115880D01*
X0345485Y0115917D01*
X0345058Y0115965D01*
X0344632Y0116022D01*
X0344208Y0116091D01*
X0343786Y0116169D01*
X0343366Y0116258D01*
X0342948Y0116357D01*
X0342533Y0116467D01*
X0342120Y0116587D01*
X0341711Y0116716D01*
X0341304Y0116856D01*
X0340902Y0117006D01*
X0340503Y0117165D01*
X0340108Y0117334D01*
X0339718Y0117513D01*
X0339332Y0117702D01*
X0338951Y0117899D01*
X0338574Y0118106D01*
X0338203Y0118323D01*
X0337838Y0118548D01*
X0337478Y0118782D01*
X0337123Y0119025D01*
X0336775Y0119277D01*
X0336433Y0119537D01*
X0336098Y0119805D01*
X0335769Y0120082D01*
X0335448Y0120366D01*
X0335133Y0120659D01*
X0334826Y0120959D01*
X0334526Y0121266D01*
X0334233Y0121581D01*
X0333949Y0121902D01*
X0333672Y0122231D01*
X0333404Y0122566D01*
X0333144Y0122908D01*
X0332892Y0123256D01*
X0332649Y0123611D01*
X0332415Y0123971D01*
X0332190Y0124336D01*
X0331973Y0124707D01*
X0331766Y0125084D01*
X0331569Y0125465D01*
X0331380Y0125851D01*
X0331201Y0126241D01*
X0331032Y0126636D01*
X0330873Y0127035D01*
X0330723Y0127437D01*
X0330583Y0127844D01*
X0330454Y0128253D01*
X0330334Y0128666D01*
X0330224Y0129081D01*
X0330125Y0129499D01*
X0330036Y0129919D01*
X0329958Y0130341D01*
X0329889Y0130765D01*
X0329832Y0131191D01*
X0329784Y0131618D01*
X0329747Y0132046D01*
X0329721Y0132474D01*
X0329705Y0132904D01*
X0329700Y0133333D01*
X0347200Y0130833D02*
X0347200Y0128833D01*
X0347200Y0136833D02*
X0347200Y0137833D01*
X0353700Y0144833D02*
X0353700Y0147833D01*
X0355200Y0146333D02*
X0352200Y0146333D01*
X0340507Y0185833D02*
X0340509Y0185997D01*
X0340515Y0186161D01*
X0340525Y0186325D01*
X0340539Y0186489D01*
X0340557Y0186652D01*
X0340579Y0186815D01*
X0340606Y0186977D01*
X0340636Y0187139D01*
X0340670Y0187299D01*
X0340708Y0187459D01*
X0340749Y0187618D01*
X0340795Y0187776D01*
X0340845Y0187932D01*
X0340898Y0188088D01*
X0340955Y0188242D01*
X0341016Y0188394D01*
X0341081Y0188545D01*
X0341150Y0188695D01*
X0341222Y0188842D01*
X0341297Y0188988D01*
X0341377Y0189132D01*
X0341459Y0189274D01*
X0341545Y0189414D01*
X0341635Y0189551D01*
X0341728Y0189687D01*
X0341824Y0189820D01*
X0341924Y0189951D01*
X0342026Y0190079D01*
X0342132Y0190205D01*
X0342241Y0190328D01*
X0342353Y0190448D01*
X0342467Y0190566D01*
X0342585Y0190680D01*
X0342705Y0190792D01*
X0342828Y0190901D01*
X0342954Y0191007D01*
X0343082Y0191109D01*
X0343213Y0191209D01*
X0343346Y0191305D01*
X0343482Y0191398D01*
X0343619Y0191488D01*
X0343759Y0191574D01*
X0343901Y0191656D01*
X0344045Y0191736D01*
X0344191Y0191811D01*
X0344338Y0191883D01*
X0344488Y0191952D01*
X0344639Y0192017D01*
X0344791Y0192078D01*
X0344945Y0192135D01*
X0345101Y0192188D01*
X0345257Y0192238D01*
X0345415Y0192284D01*
X0345574Y0192325D01*
X0345734Y0192363D01*
X0345894Y0192397D01*
X0346056Y0192427D01*
X0346218Y0192454D01*
X0346381Y0192476D01*
X0346544Y0192494D01*
X0346708Y0192508D01*
X0346872Y0192518D01*
X0347036Y0192524D01*
X0347200Y0192526D01*
X0347364Y0192524D01*
X0347528Y0192518D01*
X0347692Y0192508D01*
X0347856Y0192494D01*
X0348019Y0192476D01*
X0348182Y0192454D01*
X0348344Y0192427D01*
X0348506Y0192397D01*
X0348666Y0192363D01*
X0348826Y0192325D01*
X0348985Y0192284D01*
X0349143Y0192238D01*
X0349299Y0192188D01*
X0349455Y0192135D01*
X0349609Y0192078D01*
X0349761Y0192017D01*
X0349912Y0191952D01*
X0350062Y0191883D01*
X0350209Y0191811D01*
X0350355Y0191736D01*
X0350499Y0191656D01*
X0350641Y0191574D01*
X0350781Y0191488D01*
X0350918Y0191398D01*
X0351054Y0191305D01*
X0351187Y0191209D01*
X0351318Y0191109D01*
X0351446Y0191007D01*
X0351572Y0190901D01*
X0351695Y0190792D01*
X0351815Y0190680D01*
X0351933Y0190566D01*
X0352047Y0190448D01*
X0352159Y0190328D01*
X0352268Y0190205D01*
X0352374Y0190079D01*
X0352476Y0189951D01*
X0352576Y0189820D01*
X0352672Y0189687D01*
X0352765Y0189551D01*
X0352855Y0189414D01*
X0352941Y0189274D01*
X0353023Y0189132D01*
X0353103Y0188988D01*
X0353178Y0188842D01*
X0353250Y0188695D01*
X0353319Y0188545D01*
X0353384Y0188394D01*
X0353445Y0188242D01*
X0353502Y0188088D01*
X0353555Y0187932D01*
X0353605Y0187776D01*
X0353651Y0187618D01*
X0353692Y0187459D01*
X0353730Y0187299D01*
X0353764Y0187139D01*
X0353794Y0186977D01*
X0353821Y0186815D01*
X0353843Y0186652D01*
X0353861Y0186489D01*
X0353875Y0186325D01*
X0353885Y0186161D01*
X0353891Y0185997D01*
X0353893Y0185833D01*
X0353891Y0185669D01*
X0353885Y0185505D01*
X0353875Y0185341D01*
X0353861Y0185177D01*
X0353843Y0185014D01*
X0353821Y0184851D01*
X0353794Y0184689D01*
X0353764Y0184527D01*
X0353730Y0184367D01*
X0353692Y0184207D01*
X0353651Y0184048D01*
X0353605Y0183890D01*
X0353555Y0183734D01*
X0353502Y0183578D01*
X0353445Y0183424D01*
X0353384Y0183272D01*
X0353319Y0183121D01*
X0353250Y0182971D01*
X0353178Y0182824D01*
X0353103Y0182678D01*
X0353023Y0182534D01*
X0352941Y0182392D01*
X0352855Y0182252D01*
X0352765Y0182115D01*
X0352672Y0181979D01*
X0352576Y0181846D01*
X0352476Y0181715D01*
X0352374Y0181587D01*
X0352268Y0181461D01*
X0352159Y0181338D01*
X0352047Y0181218D01*
X0351933Y0181100D01*
X0351815Y0180986D01*
X0351695Y0180874D01*
X0351572Y0180765D01*
X0351446Y0180659D01*
X0351318Y0180557D01*
X0351187Y0180457D01*
X0351054Y0180361D01*
X0350918Y0180268D01*
X0350781Y0180178D01*
X0350641Y0180092D01*
X0350499Y0180010D01*
X0350355Y0179930D01*
X0350209Y0179855D01*
X0350062Y0179783D01*
X0349912Y0179714D01*
X0349761Y0179649D01*
X0349609Y0179588D01*
X0349455Y0179531D01*
X0349299Y0179478D01*
X0349143Y0179428D01*
X0348985Y0179382D01*
X0348826Y0179341D01*
X0348666Y0179303D01*
X0348506Y0179269D01*
X0348344Y0179239D01*
X0348182Y0179212D01*
X0348019Y0179190D01*
X0347856Y0179172D01*
X0347692Y0179158D01*
X0347528Y0179148D01*
X0347364Y0179142D01*
X0347200Y0179140D01*
X0347036Y0179142D01*
X0346872Y0179148D01*
X0346708Y0179158D01*
X0346544Y0179172D01*
X0346381Y0179190D01*
X0346218Y0179212D01*
X0346056Y0179239D01*
X0345894Y0179269D01*
X0345734Y0179303D01*
X0345574Y0179341D01*
X0345415Y0179382D01*
X0345257Y0179428D01*
X0345101Y0179478D01*
X0344945Y0179531D01*
X0344791Y0179588D01*
X0344639Y0179649D01*
X0344488Y0179714D01*
X0344338Y0179783D01*
X0344191Y0179855D01*
X0344045Y0179930D01*
X0343901Y0180010D01*
X0343759Y0180092D01*
X0343619Y0180178D01*
X0343482Y0180268D01*
X0343346Y0180361D01*
X0343213Y0180457D01*
X0343082Y0180557D01*
X0342954Y0180659D01*
X0342828Y0180765D01*
X0342705Y0180874D01*
X0342585Y0180986D01*
X0342467Y0181100D01*
X0342353Y0181218D01*
X0342241Y0181338D01*
X0342132Y0181461D01*
X0342026Y0181587D01*
X0341924Y0181715D01*
X0341824Y0181846D01*
X0341728Y0181979D01*
X0341635Y0182115D01*
X0341545Y0182252D01*
X0341459Y0182392D01*
X0341377Y0182534D01*
X0341297Y0182678D01*
X0341222Y0182824D01*
X0341150Y0182971D01*
X0341081Y0183121D01*
X0341016Y0183272D01*
X0340955Y0183424D01*
X0340898Y0183578D01*
X0340845Y0183734D01*
X0340795Y0183890D01*
X0340749Y0184048D01*
X0340708Y0184207D01*
X0340670Y0184367D01*
X0340636Y0184527D01*
X0340606Y0184689D01*
X0340579Y0184851D01*
X0340557Y0185014D01*
X0340539Y0185177D01*
X0340525Y0185341D01*
X0340515Y0185505D01*
X0340509Y0185669D01*
X0340507Y0185833D01*
X0333700Y0185833D02*
X0333704Y0186164D01*
X0333716Y0186495D01*
X0333737Y0186826D01*
X0333765Y0187156D01*
X0333802Y0187486D01*
X0333846Y0187814D01*
X0333899Y0188141D01*
X0333959Y0188467D01*
X0334028Y0188791D01*
X0334105Y0189113D01*
X0334189Y0189434D01*
X0334281Y0189752D01*
X0334381Y0190068D01*
X0334489Y0190381D01*
X0334605Y0190692D01*
X0334728Y0190999D01*
X0334858Y0191304D01*
X0334996Y0191605D01*
X0335141Y0191903D01*
X0335294Y0192197D01*
X0335454Y0192487D01*
X0335621Y0192773D01*
X0335794Y0193055D01*
X0335975Y0193333D01*
X0336163Y0193606D01*
X0336357Y0193875D01*
X0336557Y0194139D01*
X0336764Y0194397D01*
X0336978Y0194651D01*
X0337197Y0194899D01*
X0337423Y0195142D01*
X0337654Y0195379D01*
X0337891Y0195610D01*
X0338134Y0195836D01*
X0338382Y0196055D01*
X0338636Y0196269D01*
X0338894Y0196476D01*
X0339158Y0196676D01*
X0339427Y0196870D01*
X0339700Y0197058D01*
X0339978Y0197239D01*
X0340260Y0197412D01*
X0340546Y0197579D01*
X0340836Y0197739D01*
X0341130Y0197892D01*
X0341428Y0198037D01*
X0341729Y0198175D01*
X0342034Y0198305D01*
X0342341Y0198428D01*
X0342652Y0198544D01*
X0342965Y0198652D01*
X0343281Y0198752D01*
X0343599Y0198844D01*
X0343920Y0198928D01*
X0344242Y0199005D01*
X0344566Y0199074D01*
X0344892Y0199134D01*
X0345219Y0199187D01*
X0345547Y0199231D01*
X0345877Y0199268D01*
X0346207Y0199296D01*
X0346538Y0199317D01*
X0346869Y0199329D01*
X0347200Y0199333D01*
X0347531Y0199329D01*
X0347862Y0199317D01*
X0348193Y0199296D01*
X0348523Y0199268D01*
X0348853Y0199231D01*
X0349181Y0199187D01*
X0349508Y0199134D01*
X0349834Y0199074D01*
X0350158Y0199005D01*
X0350480Y0198928D01*
X0350801Y0198844D01*
X0351119Y0198752D01*
X0351435Y0198652D01*
X0351748Y0198544D01*
X0352059Y0198428D01*
X0352366Y0198305D01*
X0352671Y0198175D01*
X0352972Y0198037D01*
X0353270Y0197892D01*
X0353564Y0197739D01*
X0353854Y0197579D01*
X0354140Y0197412D01*
X0354422Y0197239D01*
X0354700Y0197058D01*
X0354973Y0196870D01*
X0355242Y0196676D01*
X0355506Y0196476D01*
X0355764Y0196269D01*
X0356018Y0196055D01*
X0356266Y0195836D01*
X0356509Y0195610D01*
X0356746Y0195379D01*
X0356977Y0195142D01*
X0357203Y0194899D01*
X0357422Y0194651D01*
X0357636Y0194397D01*
X0357843Y0194139D01*
X0358043Y0193875D01*
X0358237Y0193606D01*
X0358425Y0193333D01*
X0358606Y0193055D01*
X0358779Y0192773D01*
X0358946Y0192487D01*
X0359106Y0192197D01*
X0359259Y0191903D01*
X0359404Y0191605D01*
X0359542Y0191304D01*
X0359672Y0190999D01*
X0359795Y0190692D01*
X0359911Y0190381D01*
X0360019Y0190068D01*
X0360119Y0189752D01*
X0360211Y0189434D01*
X0360295Y0189113D01*
X0360372Y0188791D01*
X0360441Y0188467D01*
X0360501Y0188141D01*
X0360554Y0187814D01*
X0360598Y0187486D01*
X0360635Y0187156D01*
X0360663Y0186826D01*
X0360684Y0186495D01*
X0360696Y0186164D01*
X0360700Y0185833D01*
X0360696Y0185502D01*
X0360684Y0185171D01*
X0360663Y0184840D01*
X0360635Y0184510D01*
X0360598Y0184180D01*
X0360554Y0183852D01*
X0360501Y0183525D01*
X0360441Y0183199D01*
X0360372Y0182875D01*
X0360295Y0182553D01*
X0360211Y0182232D01*
X0360119Y0181914D01*
X0360019Y0181598D01*
X0359911Y0181285D01*
X0359795Y0180974D01*
X0359672Y0180667D01*
X0359542Y0180362D01*
X0359404Y0180061D01*
X0359259Y0179763D01*
X0359106Y0179469D01*
X0358946Y0179179D01*
X0358779Y0178893D01*
X0358606Y0178611D01*
X0358425Y0178333D01*
X0358237Y0178060D01*
X0358043Y0177791D01*
X0357843Y0177527D01*
X0357636Y0177269D01*
X0357422Y0177015D01*
X0357203Y0176767D01*
X0356977Y0176524D01*
X0356746Y0176287D01*
X0356509Y0176056D01*
X0356266Y0175830D01*
X0356018Y0175611D01*
X0355764Y0175397D01*
X0355506Y0175190D01*
X0355242Y0174990D01*
X0354973Y0174796D01*
X0354700Y0174608D01*
X0354422Y0174427D01*
X0354140Y0174254D01*
X0353854Y0174087D01*
X0353564Y0173927D01*
X0353270Y0173774D01*
X0352972Y0173629D01*
X0352671Y0173491D01*
X0352366Y0173361D01*
X0352059Y0173238D01*
X0351748Y0173122D01*
X0351435Y0173014D01*
X0351119Y0172914D01*
X0350801Y0172822D01*
X0350480Y0172738D01*
X0350158Y0172661D01*
X0349834Y0172592D01*
X0349508Y0172532D01*
X0349181Y0172479D01*
X0348853Y0172435D01*
X0348523Y0172398D01*
X0348193Y0172370D01*
X0347862Y0172349D01*
X0347531Y0172337D01*
X0347200Y0172333D01*
X0346869Y0172337D01*
X0346538Y0172349D01*
X0346207Y0172370D01*
X0345877Y0172398D01*
X0345547Y0172435D01*
X0345219Y0172479D01*
X0344892Y0172532D01*
X0344566Y0172592D01*
X0344242Y0172661D01*
X0343920Y0172738D01*
X0343599Y0172822D01*
X0343281Y0172914D01*
X0342965Y0173014D01*
X0342652Y0173122D01*
X0342341Y0173238D01*
X0342034Y0173361D01*
X0341729Y0173491D01*
X0341428Y0173629D01*
X0341130Y0173774D01*
X0340836Y0173927D01*
X0340546Y0174087D01*
X0340260Y0174254D01*
X0339978Y0174427D01*
X0339700Y0174608D01*
X0339427Y0174796D01*
X0339158Y0174990D01*
X0338894Y0175190D01*
X0338636Y0175397D01*
X0338382Y0175611D01*
X0338134Y0175830D01*
X0337891Y0176056D01*
X0337654Y0176287D01*
X0337423Y0176524D01*
X0337197Y0176767D01*
X0336978Y0177015D01*
X0336764Y0177269D01*
X0336557Y0177527D01*
X0336357Y0177791D01*
X0336163Y0178060D01*
X0335975Y0178333D01*
X0335794Y0178611D01*
X0335621Y0178893D01*
X0335454Y0179179D01*
X0335294Y0179469D01*
X0335141Y0179763D01*
X0334996Y0180061D01*
X0334858Y0180362D01*
X0334728Y0180667D01*
X0334605Y0180974D01*
X0334489Y0181285D01*
X0334381Y0181598D01*
X0334281Y0181914D01*
X0334189Y0182232D01*
X0334105Y0182553D01*
X0334028Y0182875D01*
X0333959Y0183199D01*
X0333899Y0183525D01*
X0333846Y0183852D01*
X0333802Y0184180D01*
X0333765Y0184510D01*
X0333737Y0184840D01*
X0333716Y0185171D01*
X0333704Y0185502D01*
X0333700Y0185833D01*
X0258700Y0282333D02*
X0215700Y0282333D01*
X0215700Y0325833D01*
X0215700Y0330833D02*
X0215700Y0335833D01*
X0215700Y0340833D02*
X0215700Y0344333D01*
X0258700Y0344333D01*
X0258700Y0340833D01*
X0258700Y0335833D02*
X0258700Y0330833D01*
X0258700Y0325833D02*
X0258700Y0282333D01*
X0246200Y0288333D02*
X0237200Y0288333D01*
X0237200Y0334333D01*
X0233700Y0339333D01*
X0234200Y0338333D02*
X0229200Y0338333D01*
X0240700Y0338333D02*
X0245200Y0338333D01*
X0252200Y0322833D02*
X0252200Y0315333D01*
X0234200Y0315333D01*
X0234200Y0312833D01*
X0226200Y0317833D01*
X0226200Y0315333D01*
X0226200Y0308333D01*
X0234200Y0308333D01*
X0234200Y0312833D01*
X0234200Y0315333D02*
X0234200Y0322833D01*
X0226200Y0322833D01*
X0226200Y0317833D01*
X0226200Y0315333D02*
X0222200Y0315333D01*
X0222200Y0322833D01*
X0196200Y0343333D02*
X0196202Y0343485D01*
X0196208Y0343636D01*
X0196217Y0343787D01*
X0196231Y0343939D01*
X0196248Y0344089D01*
X0196269Y0344239D01*
X0196294Y0344389D01*
X0196322Y0344538D01*
X0196355Y0344686D01*
X0196391Y0344833D01*
X0196430Y0344980D01*
X0196474Y0345125D01*
X0196521Y0345269D01*
X0196572Y0345412D01*
X0196626Y0345553D01*
X0196684Y0345694D01*
X0196745Y0345832D01*
X0196810Y0345969D01*
X0196879Y0346105D01*
X0196950Y0346238D01*
X0197025Y0346370D01*
X0197104Y0346500D01*
X0197185Y0346627D01*
X0197270Y0346753D01*
X0197358Y0346877D01*
X0197449Y0346998D01*
X0197543Y0347117D01*
X0197641Y0347233D01*
X0197741Y0347347D01*
X0197843Y0347459D01*
X0197949Y0347567D01*
X0198057Y0347673D01*
X0198168Y0347777D01*
X0198282Y0347877D01*
X0198398Y0347975D01*
X0198517Y0348069D01*
X0208200Y0343333D02*
X0208198Y0343179D01*
X0208192Y0343025D01*
X0208182Y0342871D01*
X0208168Y0342717D01*
X0208151Y0342564D01*
X0208129Y0342412D01*
X0208103Y0342260D01*
X0208074Y0342108D01*
X0208040Y0341958D01*
X0208003Y0341808D01*
X0207962Y0341660D01*
X0207917Y0341512D01*
X0207868Y0341366D01*
X0207816Y0341221D01*
X0207760Y0341078D01*
X0207700Y0340935D01*
X0207637Y0340795D01*
X0207570Y0340656D01*
X0207499Y0340519D01*
X0207425Y0340384D01*
X0207348Y0340251D01*
X0207267Y0340119D01*
X0207183Y0339990D01*
X0207095Y0339863D01*
X0207004Y0339739D01*
X0206911Y0339617D01*
X0206813Y0339497D01*
X0206713Y0339380D01*
X0206610Y0339265D01*
X0206504Y0339153D01*
X0206396Y0339044D01*
X0206284Y0338938D01*
X0206170Y0338834D01*
X0206053Y0338734D01*
X0205934Y0338636D01*
X0205812Y0338542D01*
X0205687Y0338451D01*
X0208200Y0343333D02*
X0208198Y0343483D01*
X0208192Y0343634D01*
X0208183Y0343784D01*
X0208170Y0343933D01*
X0208153Y0344083D01*
X0208132Y0344232D01*
X0208108Y0344380D01*
X0208080Y0344528D01*
X0208048Y0344675D01*
X0208013Y0344821D01*
X0207973Y0344966D01*
X0207931Y0345110D01*
X0207884Y0345253D01*
X0207834Y0345395D01*
X0207781Y0345536D01*
X0207724Y0345675D01*
X0207664Y0345813D01*
X0207600Y0345949D01*
X0207533Y0346083D01*
X0207462Y0346216D01*
X0207388Y0346347D01*
X0207311Y0346476D01*
X0207230Y0346603D01*
X0207147Y0346728D01*
X0207060Y0346851D01*
X0206971Y0346972D01*
X0206878Y0347090D01*
X0206782Y0347206D01*
X0206684Y0347320D01*
X0206583Y0347431D01*
X0206478Y0347540D01*
X0206372Y0347645D01*
X0206262Y0347749D01*
X0206150Y0347849D01*
X0206036Y0347947D01*
X0205919Y0348041D01*
X0205800Y0348133D01*
X0196200Y0343333D02*
X0196202Y0343181D01*
X0196208Y0343030D01*
X0196217Y0342879D01*
X0196231Y0342727D01*
X0196248Y0342577D01*
X0196269Y0342427D01*
X0196294Y0342277D01*
X0196322Y0342128D01*
X0196355Y0341980D01*
X0196391Y0341833D01*
X0196430Y0341686D01*
X0196474Y0341541D01*
X0196521Y0341397D01*
X0196572Y0341254D01*
X0196626Y0341113D01*
X0196684Y0340972D01*
X0196745Y0340834D01*
X0196810Y0340697D01*
X0196879Y0340561D01*
X0196950Y0340428D01*
X0197025Y0340296D01*
X0197104Y0340166D01*
X0197185Y0340039D01*
X0197270Y0339913D01*
X0197358Y0339789D01*
X0197449Y0339668D01*
X0197543Y0339549D01*
X0197641Y0339433D01*
X0197741Y0339319D01*
X0197843Y0339207D01*
X0197949Y0339099D01*
X0198057Y0338993D01*
X0198168Y0338889D01*
X0198282Y0338789D01*
X0198398Y0338691D01*
X0198517Y0338597D01*
X0178517Y0348069D02*
X0178398Y0347975D01*
X0178282Y0347877D01*
X0178168Y0347777D01*
X0178057Y0347673D01*
X0177949Y0347567D01*
X0177843Y0347459D01*
X0177741Y0347347D01*
X0177641Y0347233D01*
X0177543Y0347117D01*
X0177449Y0346998D01*
X0177358Y0346877D01*
X0177270Y0346753D01*
X0177185Y0346627D01*
X0177104Y0346500D01*
X0177025Y0346370D01*
X0176950Y0346238D01*
X0176879Y0346105D01*
X0176810Y0345969D01*
X0176745Y0345832D01*
X0176684Y0345694D01*
X0176626Y0345553D01*
X0176572Y0345412D01*
X0176521Y0345269D01*
X0176474Y0345125D01*
X0176430Y0344980D01*
X0176391Y0344833D01*
X0176355Y0344686D01*
X0176322Y0344538D01*
X0176294Y0344389D01*
X0176269Y0344239D01*
X0176248Y0344089D01*
X0176231Y0343939D01*
X0176217Y0343787D01*
X0176208Y0343636D01*
X0176202Y0343485D01*
X0176200Y0343333D01*
X0168700Y0344333D02*
X0168700Y0340833D01*
X0168700Y0344333D02*
X0125700Y0344333D01*
X0125700Y0340833D01*
X0125700Y0335833D02*
X0125700Y0330833D01*
X0125700Y0325833D02*
X0125700Y0282333D01*
X0168700Y0282333D01*
X0168700Y0325833D01*
X0168700Y0330833D02*
X0168700Y0335833D01*
X0162200Y0322833D02*
X0162200Y0315333D01*
X0144200Y0315333D01*
X0144200Y0312833D01*
X0136200Y0317833D01*
X0136200Y0315333D01*
X0136200Y0308333D01*
X0144200Y0308333D01*
X0144200Y0312833D01*
X0144200Y0315333D02*
X0144200Y0322833D01*
X0136200Y0322833D01*
X0136200Y0317833D01*
X0136200Y0315333D02*
X0132200Y0315333D01*
X0132200Y0322833D01*
X0139200Y0338333D02*
X0144200Y0338333D01*
X0143700Y0339333D02*
X0147200Y0334333D01*
X0147200Y0288333D01*
X0156200Y0288333D01*
X0147200Y0288333D02*
X0138200Y0288333D01*
X0172200Y0300333D02*
X0182200Y0300333D01*
X0182200Y0316333D01*
X0172200Y0316333D01*
X0172200Y0300333D01*
X0174700Y0304333D02*
X0177200Y0308333D01*
X0174700Y0308333D01*
X0177200Y0308333D02*
X0179700Y0304333D01*
X0174700Y0304333D01*
X0177200Y0302333D02*
X0177200Y0308333D01*
X0179700Y0308333D01*
X0177200Y0308333D02*
X0177200Y0310833D01*
X0155200Y0338333D02*
X0150700Y0338333D01*
X0134200Y0352833D02*
X0130200Y0352833D01*
X0126700Y0356333D01*
X0126700Y0360333D01*
X0130200Y0363833D01*
X0134200Y0363833D01*
X0137700Y0360333D01*
X0137700Y0356333D01*
X0134200Y0352833D01*
X0185687Y0338451D02*
X0185812Y0338542D01*
X0185934Y0338636D01*
X0186053Y0338734D01*
X0186170Y0338834D01*
X0186284Y0338938D01*
X0186396Y0339044D01*
X0186504Y0339153D01*
X0186610Y0339265D01*
X0186713Y0339380D01*
X0186813Y0339497D01*
X0186911Y0339617D01*
X0187004Y0339739D01*
X0187095Y0339863D01*
X0187183Y0339990D01*
X0187267Y0340119D01*
X0187348Y0340251D01*
X0187425Y0340384D01*
X0187499Y0340519D01*
X0187570Y0340656D01*
X0187637Y0340795D01*
X0187700Y0340935D01*
X0187760Y0341078D01*
X0187816Y0341221D01*
X0187868Y0341366D01*
X0187917Y0341512D01*
X0187962Y0341660D01*
X0188003Y0341808D01*
X0188040Y0341958D01*
X0188074Y0342108D01*
X0188103Y0342260D01*
X0188129Y0342412D01*
X0188151Y0342564D01*
X0188168Y0342717D01*
X0188182Y0342871D01*
X0188192Y0343025D01*
X0188198Y0343179D01*
X0188200Y0343333D01*
X0178517Y0338597D02*
X0178398Y0338691D01*
X0178282Y0338789D01*
X0178168Y0338889D01*
X0178057Y0338993D01*
X0177949Y0339099D01*
X0177843Y0339207D01*
X0177741Y0339319D01*
X0177641Y0339433D01*
X0177543Y0339549D01*
X0177449Y0339668D01*
X0177358Y0339789D01*
X0177270Y0339913D01*
X0177185Y0340039D01*
X0177104Y0340166D01*
X0177025Y0340296D01*
X0176950Y0340428D01*
X0176879Y0340561D01*
X0176810Y0340697D01*
X0176745Y0340834D01*
X0176684Y0340972D01*
X0176626Y0341113D01*
X0176572Y0341254D01*
X0176521Y0341397D01*
X0176474Y0341541D01*
X0176430Y0341686D01*
X0176391Y0341833D01*
X0176355Y0341980D01*
X0176322Y0342128D01*
X0176294Y0342277D01*
X0176269Y0342427D01*
X0176248Y0342577D01*
X0176231Y0342727D01*
X0176217Y0342879D01*
X0176208Y0343030D01*
X0176202Y0343181D01*
X0176200Y0343333D01*
X0185800Y0348133D02*
X0185919Y0348041D01*
X0186036Y0347947D01*
X0186150Y0347849D01*
X0186262Y0347749D01*
X0186372Y0347645D01*
X0186478Y0347540D01*
X0186583Y0347431D01*
X0186684Y0347320D01*
X0186782Y0347206D01*
X0186878Y0347090D01*
X0186971Y0346972D01*
X0187060Y0346851D01*
X0187147Y0346728D01*
X0187230Y0346603D01*
X0187311Y0346476D01*
X0187388Y0346347D01*
X0187462Y0346216D01*
X0187533Y0346083D01*
X0187600Y0345949D01*
X0187664Y0345813D01*
X0187724Y0345675D01*
X0187781Y0345536D01*
X0187834Y0345395D01*
X0187884Y0345253D01*
X0187931Y0345110D01*
X0187973Y0344966D01*
X0188013Y0344821D01*
X0188048Y0344675D01*
X0188080Y0344528D01*
X0188108Y0344380D01*
X0188132Y0344232D01*
X0188153Y0344083D01*
X0188170Y0343933D01*
X0188183Y0343784D01*
X0188192Y0343634D01*
X0188198Y0343483D01*
X0188200Y0343333D01*
X0216700Y0356333D02*
X0220200Y0352833D01*
X0224200Y0352833D01*
X0227700Y0356333D01*
X0227700Y0360333D01*
X0224200Y0363833D01*
X0220200Y0363833D01*
X0216700Y0360333D01*
X0216700Y0356333D01*
X0246700Y0356333D02*
X0250200Y0352833D01*
X0254200Y0352833D01*
X0257700Y0356333D01*
X0257700Y0360333D01*
X0254200Y0363833D01*
X0250200Y0363833D01*
X0246700Y0360333D01*
X0246700Y0356333D01*
X0237200Y0288333D02*
X0228200Y0288333D01*
X0230192Y0268648D02*
X0224483Y0268648D01*
X0228224Y0264711D02*
X0228224Y0261955D01*
X0230192Y0261955D01*
X0230192Y0258018D01*
X0224483Y0258018D01*
X0228224Y0264711D02*
X0230192Y0264711D01*
X0230192Y0268648D01*
X0340507Y0363333D02*
X0340509Y0363497D01*
X0340515Y0363661D01*
X0340525Y0363825D01*
X0340539Y0363989D01*
X0340557Y0364152D01*
X0340579Y0364315D01*
X0340606Y0364477D01*
X0340636Y0364639D01*
X0340670Y0364799D01*
X0340708Y0364959D01*
X0340749Y0365118D01*
X0340795Y0365276D01*
X0340845Y0365432D01*
X0340898Y0365588D01*
X0340955Y0365742D01*
X0341016Y0365894D01*
X0341081Y0366045D01*
X0341150Y0366195D01*
X0341222Y0366342D01*
X0341297Y0366488D01*
X0341377Y0366632D01*
X0341459Y0366774D01*
X0341545Y0366914D01*
X0341635Y0367051D01*
X0341728Y0367187D01*
X0341824Y0367320D01*
X0341924Y0367451D01*
X0342026Y0367579D01*
X0342132Y0367705D01*
X0342241Y0367828D01*
X0342353Y0367948D01*
X0342467Y0368066D01*
X0342585Y0368180D01*
X0342705Y0368292D01*
X0342828Y0368401D01*
X0342954Y0368507D01*
X0343082Y0368609D01*
X0343213Y0368709D01*
X0343346Y0368805D01*
X0343482Y0368898D01*
X0343619Y0368988D01*
X0343759Y0369074D01*
X0343901Y0369156D01*
X0344045Y0369236D01*
X0344191Y0369311D01*
X0344338Y0369383D01*
X0344488Y0369452D01*
X0344639Y0369517D01*
X0344791Y0369578D01*
X0344945Y0369635D01*
X0345101Y0369688D01*
X0345257Y0369738D01*
X0345415Y0369784D01*
X0345574Y0369825D01*
X0345734Y0369863D01*
X0345894Y0369897D01*
X0346056Y0369927D01*
X0346218Y0369954D01*
X0346381Y0369976D01*
X0346544Y0369994D01*
X0346708Y0370008D01*
X0346872Y0370018D01*
X0347036Y0370024D01*
X0347200Y0370026D01*
X0347364Y0370024D01*
X0347528Y0370018D01*
X0347692Y0370008D01*
X0347856Y0369994D01*
X0348019Y0369976D01*
X0348182Y0369954D01*
X0348344Y0369927D01*
X0348506Y0369897D01*
X0348666Y0369863D01*
X0348826Y0369825D01*
X0348985Y0369784D01*
X0349143Y0369738D01*
X0349299Y0369688D01*
X0349455Y0369635D01*
X0349609Y0369578D01*
X0349761Y0369517D01*
X0349912Y0369452D01*
X0350062Y0369383D01*
X0350209Y0369311D01*
X0350355Y0369236D01*
X0350499Y0369156D01*
X0350641Y0369074D01*
X0350781Y0368988D01*
X0350918Y0368898D01*
X0351054Y0368805D01*
X0351187Y0368709D01*
X0351318Y0368609D01*
X0351446Y0368507D01*
X0351572Y0368401D01*
X0351695Y0368292D01*
X0351815Y0368180D01*
X0351933Y0368066D01*
X0352047Y0367948D01*
X0352159Y0367828D01*
X0352268Y0367705D01*
X0352374Y0367579D01*
X0352476Y0367451D01*
X0352576Y0367320D01*
X0352672Y0367187D01*
X0352765Y0367051D01*
X0352855Y0366914D01*
X0352941Y0366774D01*
X0353023Y0366632D01*
X0353103Y0366488D01*
X0353178Y0366342D01*
X0353250Y0366195D01*
X0353319Y0366045D01*
X0353384Y0365894D01*
X0353445Y0365742D01*
X0353502Y0365588D01*
X0353555Y0365432D01*
X0353605Y0365276D01*
X0353651Y0365118D01*
X0353692Y0364959D01*
X0353730Y0364799D01*
X0353764Y0364639D01*
X0353794Y0364477D01*
X0353821Y0364315D01*
X0353843Y0364152D01*
X0353861Y0363989D01*
X0353875Y0363825D01*
X0353885Y0363661D01*
X0353891Y0363497D01*
X0353893Y0363333D01*
X0353891Y0363169D01*
X0353885Y0363005D01*
X0353875Y0362841D01*
X0353861Y0362677D01*
X0353843Y0362514D01*
X0353821Y0362351D01*
X0353794Y0362189D01*
X0353764Y0362027D01*
X0353730Y0361867D01*
X0353692Y0361707D01*
X0353651Y0361548D01*
X0353605Y0361390D01*
X0353555Y0361234D01*
X0353502Y0361078D01*
X0353445Y0360924D01*
X0353384Y0360772D01*
X0353319Y0360621D01*
X0353250Y0360471D01*
X0353178Y0360324D01*
X0353103Y0360178D01*
X0353023Y0360034D01*
X0352941Y0359892D01*
X0352855Y0359752D01*
X0352765Y0359615D01*
X0352672Y0359479D01*
X0352576Y0359346D01*
X0352476Y0359215D01*
X0352374Y0359087D01*
X0352268Y0358961D01*
X0352159Y0358838D01*
X0352047Y0358718D01*
X0351933Y0358600D01*
X0351815Y0358486D01*
X0351695Y0358374D01*
X0351572Y0358265D01*
X0351446Y0358159D01*
X0351318Y0358057D01*
X0351187Y0357957D01*
X0351054Y0357861D01*
X0350918Y0357768D01*
X0350781Y0357678D01*
X0350641Y0357592D01*
X0350499Y0357510D01*
X0350355Y0357430D01*
X0350209Y0357355D01*
X0350062Y0357283D01*
X0349912Y0357214D01*
X0349761Y0357149D01*
X0349609Y0357088D01*
X0349455Y0357031D01*
X0349299Y0356978D01*
X0349143Y0356928D01*
X0348985Y0356882D01*
X0348826Y0356841D01*
X0348666Y0356803D01*
X0348506Y0356769D01*
X0348344Y0356739D01*
X0348182Y0356712D01*
X0348019Y0356690D01*
X0347856Y0356672D01*
X0347692Y0356658D01*
X0347528Y0356648D01*
X0347364Y0356642D01*
X0347200Y0356640D01*
X0347036Y0356642D01*
X0346872Y0356648D01*
X0346708Y0356658D01*
X0346544Y0356672D01*
X0346381Y0356690D01*
X0346218Y0356712D01*
X0346056Y0356739D01*
X0345894Y0356769D01*
X0345734Y0356803D01*
X0345574Y0356841D01*
X0345415Y0356882D01*
X0345257Y0356928D01*
X0345101Y0356978D01*
X0344945Y0357031D01*
X0344791Y0357088D01*
X0344639Y0357149D01*
X0344488Y0357214D01*
X0344338Y0357283D01*
X0344191Y0357355D01*
X0344045Y0357430D01*
X0343901Y0357510D01*
X0343759Y0357592D01*
X0343619Y0357678D01*
X0343482Y0357768D01*
X0343346Y0357861D01*
X0343213Y0357957D01*
X0343082Y0358057D01*
X0342954Y0358159D01*
X0342828Y0358265D01*
X0342705Y0358374D01*
X0342585Y0358486D01*
X0342467Y0358600D01*
X0342353Y0358718D01*
X0342241Y0358838D01*
X0342132Y0358961D01*
X0342026Y0359087D01*
X0341924Y0359215D01*
X0341824Y0359346D01*
X0341728Y0359479D01*
X0341635Y0359615D01*
X0341545Y0359752D01*
X0341459Y0359892D01*
X0341377Y0360034D01*
X0341297Y0360178D01*
X0341222Y0360324D01*
X0341150Y0360471D01*
X0341081Y0360621D01*
X0341016Y0360772D01*
X0340955Y0360924D01*
X0340898Y0361078D01*
X0340845Y0361234D01*
X0340795Y0361390D01*
X0340749Y0361548D01*
X0340708Y0361707D01*
X0340670Y0361867D01*
X0340636Y0362027D01*
X0340606Y0362189D01*
X0340579Y0362351D01*
X0340557Y0362514D01*
X0340539Y0362677D01*
X0340525Y0362841D01*
X0340515Y0363005D01*
X0340509Y0363169D01*
X0340507Y0363333D01*
X0333700Y0363333D02*
X0333704Y0363664D01*
X0333716Y0363995D01*
X0333737Y0364326D01*
X0333765Y0364656D01*
X0333802Y0364986D01*
X0333846Y0365314D01*
X0333899Y0365641D01*
X0333959Y0365967D01*
X0334028Y0366291D01*
X0334105Y0366613D01*
X0334189Y0366934D01*
X0334281Y0367252D01*
X0334381Y0367568D01*
X0334489Y0367881D01*
X0334605Y0368192D01*
X0334728Y0368499D01*
X0334858Y0368804D01*
X0334996Y0369105D01*
X0335141Y0369403D01*
X0335294Y0369697D01*
X0335454Y0369987D01*
X0335621Y0370273D01*
X0335794Y0370555D01*
X0335975Y0370833D01*
X0336163Y0371106D01*
X0336357Y0371375D01*
X0336557Y0371639D01*
X0336764Y0371897D01*
X0336978Y0372151D01*
X0337197Y0372399D01*
X0337423Y0372642D01*
X0337654Y0372879D01*
X0337891Y0373110D01*
X0338134Y0373336D01*
X0338382Y0373555D01*
X0338636Y0373769D01*
X0338894Y0373976D01*
X0339158Y0374176D01*
X0339427Y0374370D01*
X0339700Y0374558D01*
X0339978Y0374739D01*
X0340260Y0374912D01*
X0340546Y0375079D01*
X0340836Y0375239D01*
X0341130Y0375392D01*
X0341428Y0375537D01*
X0341729Y0375675D01*
X0342034Y0375805D01*
X0342341Y0375928D01*
X0342652Y0376044D01*
X0342965Y0376152D01*
X0343281Y0376252D01*
X0343599Y0376344D01*
X0343920Y0376428D01*
X0344242Y0376505D01*
X0344566Y0376574D01*
X0344892Y0376634D01*
X0345219Y0376687D01*
X0345547Y0376731D01*
X0345877Y0376768D01*
X0346207Y0376796D01*
X0346538Y0376817D01*
X0346869Y0376829D01*
X0347200Y0376833D01*
X0347531Y0376829D01*
X0347862Y0376817D01*
X0348193Y0376796D01*
X0348523Y0376768D01*
X0348853Y0376731D01*
X0349181Y0376687D01*
X0349508Y0376634D01*
X0349834Y0376574D01*
X0350158Y0376505D01*
X0350480Y0376428D01*
X0350801Y0376344D01*
X0351119Y0376252D01*
X0351435Y0376152D01*
X0351748Y0376044D01*
X0352059Y0375928D01*
X0352366Y0375805D01*
X0352671Y0375675D01*
X0352972Y0375537D01*
X0353270Y0375392D01*
X0353564Y0375239D01*
X0353854Y0375079D01*
X0354140Y0374912D01*
X0354422Y0374739D01*
X0354700Y0374558D01*
X0354973Y0374370D01*
X0355242Y0374176D01*
X0355506Y0373976D01*
X0355764Y0373769D01*
X0356018Y0373555D01*
X0356266Y0373336D01*
X0356509Y0373110D01*
X0356746Y0372879D01*
X0356977Y0372642D01*
X0357203Y0372399D01*
X0357422Y0372151D01*
X0357636Y0371897D01*
X0357843Y0371639D01*
X0358043Y0371375D01*
X0358237Y0371106D01*
X0358425Y0370833D01*
X0358606Y0370555D01*
X0358779Y0370273D01*
X0358946Y0369987D01*
X0359106Y0369697D01*
X0359259Y0369403D01*
X0359404Y0369105D01*
X0359542Y0368804D01*
X0359672Y0368499D01*
X0359795Y0368192D01*
X0359911Y0367881D01*
X0360019Y0367568D01*
X0360119Y0367252D01*
X0360211Y0366934D01*
X0360295Y0366613D01*
X0360372Y0366291D01*
X0360441Y0365967D01*
X0360501Y0365641D01*
X0360554Y0365314D01*
X0360598Y0364986D01*
X0360635Y0364656D01*
X0360663Y0364326D01*
X0360684Y0363995D01*
X0360696Y0363664D01*
X0360700Y0363333D01*
X0360696Y0363002D01*
X0360684Y0362671D01*
X0360663Y0362340D01*
X0360635Y0362010D01*
X0360598Y0361680D01*
X0360554Y0361352D01*
X0360501Y0361025D01*
X0360441Y0360699D01*
X0360372Y0360375D01*
X0360295Y0360053D01*
X0360211Y0359732D01*
X0360119Y0359414D01*
X0360019Y0359098D01*
X0359911Y0358785D01*
X0359795Y0358474D01*
X0359672Y0358167D01*
X0359542Y0357862D01*
X0359404Y0357561D01*
X0359259Y0357263D01*
X0359106Y0356969D01*
X0358946Y0356679D01*
X0358779Y0356393D01*
X0358606Y0356111D01*
X0358425Y0355833D01*
X0358237Y0355560D01*
X0358043Y0355291D01*
X0357843Y0355027D01*
X0357636Y0354769D01*
X0357422Y0354515D01*
X0357203Y0354267D01*
X0356977Y0354024D01*
X0356746Y0353787D01*
X0356509Y0353556D01*
X0356266Y0353330D01*
X0356018Y0353111D01*
X0355764Y0352897D01*
X0355506Y0352690D01*
X0355242Y0352490D01*
X0354973Y0352296D01*
X0354700Y0352108D01*
X0354422Y0351927D01*
X0354140Y0351754D01*
X0353854Y0351587D01*
X0353564Y0351427D01*
X0353270Y0351274D01*
X0352972Y0351129D01*
X0352671Y0350991D01*
X0352366Y0350861D01*
X0352059Y0350738D01*
X0351748Y0350622D01*
X0351435Y0350514D01*
X0351119Y0350414D01*
X0350801Y0350322D01*
X0350480Y0350238D01*
X0350158Y0350161D01*
X0349834Y0350092D01*
X0349508Y0350032D01*
X0349181Y0349979D01*
X0348853Y0349935D01*
X0348523Y0349898D01*
X0348193Y0349870D01*
X0347862Y0349849D01*
X0347531Y0349837D01*
X0347200Y0349833D01*
X0346869Y0349837D01*
X0346538Y0349849D01*
X0346207Y0349870D01*
X0345877Y0349898D01*
X0345547Y0349935D01*
X0345219Y0349979D01*
X0344892Y0350032D01*
X0344566Y0350092D01*
X0344242Y0350161D01*
X0343920Y0350238D01*
X0343599Y0350322D01*
X0343281Y0350414D01*
X0342965Y0350514D01*
X0342652Y0350622D01*
X0342341Y0350738D01*
X0342034Y0350861D01*
X0341729Y0350991D01*
X0341428Y0351129D01*
X0341130Y0351274D01*
X0340836Y0351427D01*
X0340546Y0351587D01*
X0340260Y0351754D01*
X0339978Y0351927D01*
X0339700Y0352108D01*
X0339427Y0352296D01*
X0339158Y0352490D01*
X0338894Y0352690D01*
X0338636Y0352897D01*
X0338382Y0353111D01*
X0338134Y0353330D01*
X0337891Y0353556D01*
X0337654Y0353787D01*
X0337423Y0354024D01*
X0337197Y0354267D01*
X0336978Y0354515D01*
X0336764Y0354769D01*
X0336557Y0355027D01*
X0336357Y0355291D01*
X0336163Y0355560D01*
X0335975Y0355833D01*
X0335794Y0356111D01*
X0335621Y0356393D01*
X0335454Y0356679D01*
X0335294Y0356969D01*
X0335141Y0357263D01*
X0334996Y0357561D01*
X0334858Y0357862D01*
X0334728Y0358167D01*
X0334605Y0358474D01*
X0334489Y0358785D01*
X0334381Y0359098D01*
X0334281Y0359414D01*
X0334189Y0359732D01*
X0334105Y0360053D01*
X0334028Y0360375D01*
X0333959Y0360699D01*
X0333899Y0361025D01*
X0333846Y0361352D01*
X0333802Y0361680D01*
X0333765Y0362010D01*
X0333737Y0362340D01*
X0333716Y0362671D01*
X0333704Y0363002D01*
X0333700Y0363333D01*
X0110700Y0268333D02*
X0110698Y0268179D01*
X0110692Y0268025D01*
X0110682Y0267871D01*
X0110668Y0267717D01*
X0110651Y0267564D01*
X0110629Y0267412D01*
X0110603Y0267260D01*
X0110574Y0267108D01*
X0110540Y0266958D01*
X0110503Y0266808D01*
X0110462Y0266660D01*
X0110417Y0266512D01*
X0110368Y0266366D01*
X0110316Y0266221D01*
X0110260Y0266078D01*
X0110200Y0265935D01*
X0110137Y0265795D01*
X0110070Y0265656D01*
X0109999Y0265519D01*
X0109925Y0265384D01*
X0109848Y0265251D01*
X0109767Y0265119D01*
X0109683Y0264990D01*
X0109595Y0264863D01*
X0109504Y0264739D01*
X0109411Y0264617D01*
X0109313Y0264497D01*
X0109213Y0264380D01*
X0109110Y0264265D01*
X0109004Y0264153D01*
X0108896Y0264044D01*
X0108784Y0263938D01*
X0108670Y0263834D01*
X0108553Y0263734D01*
X0108434Y0263636D01*
X0108312Y0263542D01*
X0108187Y0263451D01*
X0098700Y0268333D02*
X0098702Y0268485D01*
X0098708Y0268636D01*
X0098717Y0268787D01*
X0098731Y0268939D01*
X0098748Y0269089D01*
X0098769Y0269239D01*
X0098794Y0269389D01*
X0098822Y0269538D01*
X0098855Y0269686D01*
X0098891Y0269833D01*
X0098930Y0269980D01*
X0098974Y0270125D01*
X0099021Y0270269D01*
X0099072Y0270412D01*
X0099126Y0270553D01*
X0099184Y0270694D01*
X0099245Y0270832D01*
X0099310Y0270969D01*
X0099379Y0271105D01*
X0099450Y0271238D01*
X0099525Y0271370D01*
X0099604Y0271500D01*
X0099685Y0271627D01*
X0099770Y0271753D01*
X0099858Y0271877D01*
X0099949Y0271998D01*
X0100043Y0272117D01*
X0100141Y0272233D01*
X0100241Y0272347D01*
X0100343Y0272459D01*
X0100449Y0272567D01*
X0100557Y0272673D01*
X0100668Y0272777D01*
X0100782Y0272877D01*
X0100898Y0272975D01*
X0101017Y0273069D01*
X0098700Y0268333D02*
X0098702Y0268181D01*
X0098708Y0268030D01*
X0098717Y0267879D01*
X0098731Y0267727D01*
X0098748Y0267577D01*
X0098769Y0267427D01*
X0098794Y0267277D01*
X0098822Y0267128D01*
X0098855Y0266980D01*
X0098891Y0266833D01*
X0098930Y0266686D01*
X0098974Y0266541D01*
X0099021Y0266397D01*
X0099072Y0266254D01*
X0099126Y0266113D01*
X0099184Y0265972D01*
X0099245Y0265834D01*
X0099310Y0265697D01*
X0099379Y0265561D01*
X0099450Y0265428D01*
X0099525Y0265296D01*
X0099604Y0265166D01*
X0099685Y0265039D01*
X0099770Y0264913D01*
X0099858Y0264789D01*
X0099949Y0264668D01*
X0100043Y0264549D01*
X0100141Y0264433D01*
X0100241Y0264319D01*
X0100343Y0264207D01*
X0100449Y0264099D01*
X0100557Y0263993D01*
X0100668Y0263889D01*
X0100782Y0263789D01*
X0100898Y0263691D01*
X0101017Y0263597D01*
X0110700Y0268333D02*
X0110698Y0268483D01*
X0110692Y0268634D01*
X0110683Y0268784D01*
X0110670Y0268933D01*
X0110653Y0269083D01*
X0110632Y0269232D01*
X0110608Y0269380D01*
X0110580Y0269528D01*
X0110548Y0269675D01*
X0110513Y0269821D01*
X0110473Y0269966D01*
X0110431Y0270110D01*
X0110384Y0270253D01*
X0110334Y0270395D01*
X0110281Y0270536D01*
X0110224Y0270675D01*
X0110164Y0270813D01*
X0110100Y0270949D01*
X0110033Y0271083D01*
X0109962Y0271216D01*
X0109888Y0271347D01*
X0109811Y0271476D01*
X0109730Y0271603D01*
X0109647Y0271728D01*
X0109560Y0271851D01*
X0109471Y0271972D01*
X0109378Y0272090D01*
X0109282Y0272206D01*
X0109184Y0272320D01*
X0109083Y0272431D01*
X0108978Y0272540D01*
X0108872Y0272645D01*
X0108762Y0272749D01*
X0108650Y0272849D01*
X0108536Y0272947D01*
X0108419Y0273041D01*
X0108300Y0273133D01*
X0025507Y0363333D02*
X0025509Y0363497D01*
X0025515Y0363661D01*
X0025525Y0363825D01*
X0025539Y0363989D01*
X0025557Y0364152D01*
X0025579Y0364315D01*
X0025606Y0364477D01*
X0025636Y0364639D01*
X0025670Y0364799D01*
X0025708Y0364959D01*
X0025749Y0365118D01*
X0025795Y0365276D01*
X0025845Y0365432D01*
X0025898Y0365588D01*
X0025955Y0365742D01*
X0026016Y0365894D01*
X0026081Y0366045D01*
X0026150Y0366195D01*
X0026222Y0366342D01*
X0026297Y0366488D01*
X0026377Y0366632D01*
X0026459Y0366774D01*
X0026545Y0366914D01*
X0026635Y0367051D01*
X0026728Y0367187D01*
X0026824Y0367320D01*
X0026924Y0367451D01*
X0027026Y0367579D01*
X0027132Y0367705D01*
X0027241Y0367828D01*
X0027353Y0367948D01*
X0027467Y0368066D01*
X0027585Y0368180D01*
X0027705Y0368292D01*
X0027828Y0368401D01*
X0027954Y0368507D01*
X0028082Y0368609D01*
X0028213Y0368709D01*
X0028346Y0368805D01*
X0028482Y0368898D01*
X0028619Y0368988D01*
X0028759Y0369074D01*
X0028901Y0369156D01*
X0029045Y0369236D01*
X0029191Y0369311D01*
X0029338Y0369383D01*
X0029488Y0369452D01*
X0029639Y0369517D01*
X0029791Y0369578D01*
X0029945Y0369635D01*
X0030101Y0369688D01*
X0030257Y0369738D01*
X0030415Y0369784D01*
X0030574Y0369825D01*
X0030734Y0369863D01*
X0030894Y0369897D01*
X0031056Y0369927D01*
X0031218Y0369954D01*
X0031381Y0369976D01*
X0031544Y0369994D01*
X0031708Y0370008D01*
X0031872Y0370018D01*
X0032036Y0370024D01*
X0032200Y0370026D01*
X0032364Y0370024D01*
X0032528Y0370018D01*
X0032692Y0370008D01*
X0032856Y0369994D01*
X0033019Y0369976D01*
X0033182Y0369954D01*
X0033344Y0369927D01*
X0033506Y0369897D01*
X0033666Y0369863D01*
X0033826Y0369825D01*
X0033985Y0369784D01*
X0034143Y0369738D01*
X0034299Y0369688D01*
X0034455Y0369635D01*
X0034609Y0369578D01*
X0034761Y0369517D01*
X0034912Y0369452D01*
X0035062Y0369383D01*
X0035209Y0369311D01*
X0035355Y0369236D01*
X0035499Y0369156D01*
X0035641Y0369074D01*
X0035781Y0368988D01*
X0035918Y0368898D01*
X0036054Y0368805D01*
X0036187Y0368709D01*
X0036318Y0368609D01*
X0036446Y0368507D01*
X0036572Y0368401D01*
X0036695Y0368292D01*
X0036815Y0368180D01*
X0036933Y0368066D01*
X0037047Y0367948D01*
X0037159Y0367828D01*
X0037268Y0367705D01*
X0037374Y0367579D01*
X0037476Y0367451D01*
X0037576Y0367320D01*
X0037672Y0367187D01*
X0037765Y0367051D01*
X0037855Y0366914D01*
X0037941Y0366774D01*
X0038023Y0366632D01*
X0038103Y0366488D01*
X0038178Y0366342D01*
X0038250Y0366195D01*
X0038319Y0366045D01*
X0038384Y0365894D01*
X0038445Y0365742D01*
X0038502Y0365588D01*
X0038555Y0365432D01*
X0038605Y0365276D01*
X0038651Y0365118D01*
X0038692Y0364959D01*
X0038730Y0364799D01*
X0038764Y0364639D01*
X0038794Y0364477D01*
X0038821Y0364315D01*
X0038843Y0364152D01*
X0038861Y0363989D01*
X0038875Y0363825D01*
X0038885Y0363661D01*
X0038891Y0363497D01*
X0038893Y0363333D01*
X0038891Y0363169D01*
X0038885Y0363005D01*
X0038875Y0362841D01*
X0038861Y0362677D01*
X0038843Y0362514D01*
X0038821Y0362351D01*
X0038794Y0362189D01*
X0038764Y0362027D01*
X0038730Y0361867D01*
X0038692Y0361707D01*
X0038651Y0361548D01*
X0038605Y0361390D01*
X0038555Y0361234D01*
X0038502Y0361078D01*
X0038445Y0360924D01*
X0038384Y0360772D01*
X0038319Y0360621D01*
X0038250Y0360471D01*
X0038178Y0360324D01*
X0038103Y0360178D01*
X0038023Y0360034D01*
X0037941Y0359892D01*
X0037855Y0359752D01*
X0037765Y0359615D01*
X0037672Y0359479D01*
X0037576Y0359346D01*
X0037476Y0359215D01*
X0037374Y0359087D01*
X0037268Y0358961D01*
X0037159Y0358838D01*
X0037047Y0358718D01*
X0036933Y0358600D01*
X0036815Y0358486D01*
X0036695Y0358374D01*
X0036572Y0358265D01*
X0036446Y0358159D01*
X0036318Y0358057D01*
X0036187Y0357957D01*
X0036054Y0357861D01*
X0035918Y0357768D01*
X0035781Y0357678D01*
X0035641Y0357592D01*
X0035499Y0357510D01*
X0035355Y0357430D01*
X0035209Y0357355D01*
X0035062Y0357283D01*
X0034912Y0357214D01*
X0034761Y0357149D01*
X0034609Y0357088D01*
X0034455Y0357031D01*
X0034299Y0356978D01*
X0034143Y0356928D01*
X0033985Y0356882D01*
X0033826Y0356841D01*
X0033666Y0356803D01*
X0033506Y0356769D01*
X0033344Y0356739D01*
X0033182Y0356712D01*
X0033019Y0356690D01*
X0032856Y0356672D01*
X0032692Y0356658D01*
X0032528Y0356648D01*
X0032364Y0356642D01*
X0032200Y0356640D01*
X0032036Y0356642D01*
X0031872Y0356648D01*
X0031708Y0356658D01*
X0031544Y0356672D01*
X0031381Y0356690D01*
X0031218Y0356712D01*
X0031056Y0356739D01*
X0030894Y0356769D01*
X0030734Y0356803D01*
X0030574Y0356841D01*
X0030415Y0356882D01*
X0030257Y0356928D01*
X0030101Y0356978D01*
X0029945Y0357031D01*
X0029791Y0357088D01*
X0029639Y0357149D01*
X0029488Y0357214D01*
X0029338Y0357283D01*
X0029191Y0357355D01*
X0029045Y0357430D01*
X0028901Y0357510D01*
X0028759Y0357592D01*
X0028619Y0357678D01*
X0028482Y0357768D01*
X0028346Y0357861D01*
X0028213Y0357957D01*
X0028082Y0358057D01*
X0027954Y0358159D01*
X0027828Y0358265D01*
X0027705Y0358374D01*
X0027585Y0358486D01*
X0027467Y0358600D01*
X0027353Y0358718D01*
X0027241Y0358838D01*
X0027132Y0358961D01*
X0027026Y0359087D01*
X0026924Y0359215D01*
X0026824Y0359346D01*
X0026728Y0359479D01*
X0026635Y0359615D01*
X0026545Y0359752D01*
X0026459Y0359892D01*
X0026377Y0360034D01*
X0026297Y0360178D01*
X0026222Y0360324D01*
X0026150Y0360471D01*
X0026081Y0360621D01*
X0026016Y0360772D01*
X0025955Y0360924D01*
X0025898Y0361078D01*
X0025845Y0361234D01*
X0025795Y0361390D01*
X0025749Y0361548D01*
X0025708Y0361707D01*
X0025670Y0361867D01*
X0025636Y0362027D01*
X0025606Y0362189D01*
X0025579Y0362351D01*
X0025557Y0362514D01*
X0025539Y0362677D01*
X0025525Y0362841D01*
X0025515Y0363005D01*
X0025509Y0363169D01*
X0025507Y0363333D01*
X0018700Y0363333D02*
X0018704Y0363664D01*
X0018716Y0363995D01*
X0018737Y0364326D01*
X0018765Y0364656D01*
X0018802Y0364986D01*
X0018846Y0365314D01*
X0018899Y0365641D01*
X0018959Y0365967D01*
X0019028Y0366291D01*
X0019105Y0366613D01*
X0019189Y0366934D01*
X0019281Y0367252D01*
X0019381Y0367568D01*
X0019489Y0367881D01*
X0019605Y0368192D01*
X0019728Y0368499D01*
X0019858Y0368804D01*
X0019996Y0369105D01*
X0020141Y0369403D01*
X0020294Y0369697D01*
X0020454Y0369987D01*
X0020621Y0370273D01*
X0020794Y0370555D01*
X0020975Y0370833D01*
X0021163Y0371106D01*
X0021357Y0371375D01*
X0021557Y0371639D01*
X0021764Y0371897D01*
X0021978Y0372151D01*
X0022197Y0372399D01*
X0022423Y0372642D01*
X0022654Y0372879D01*
X0022891Y0373110D01*
X0023134Y0373336D01*
X0023382Y0373555D01*
X0023636Y0373769D01*
X0023894Y0373976D01*
X0024158Y0374176D01*
X0024427Y0374370D01*
X0024700Y0374558D01*
X0024978Y0374739D01*
X0025260Y0374912D01*
X0025546Y0375079D01*
X0025836Y0375239D01*
X0026130Y0375392D01*
X0026428Y0375537D01*
X0026729Y0375675D01*
X0027034Y0375805D01*
X0027341Y0375928D01*
X0027652Y0376044D01*
X0027965Y0376152D01*
X0028281Y0376252D01*
X0028599Y0376344D01*
X0028920Y0376428D01*
X0029242Y0376505D01*
X0029566Y0376574D01*
X0029892Y0376634D01*
X0030219Y0376687D01*
X0030547Y0376731D01*
X0030877Y0376768D01*
X0031207Y0376796D01*
X0031538Y0376817D01*
X0031869Y0376829D01*
X0032200Y0376833D01*
X0032531Y0376829D01*
X0032862Y0376817D01*
X0033193Y0376796D01*
X0033523Y0376768D01*
X0033853Y0376731D01*
X0034181Y0376687D01*
X0034508Y0376634D01*
X0034834Y0376574D01*
X0035158Y0376505D01*
X0035480Y0376428D01*
X0035801Y0376344D01*
X0036119Y0376252D01*
X0036435Y0376152D01*
X0036748Y0376044D01*
X0037059Y0375928D01*
X0037366Y0375805D01*
X0037671Y0375675D01*
X0037972Y0375537D01*
X0038270Y0375392D01*
X0038564Y0375239D01*
X0038854Y0375079D01*
X0039140Y0374912D01*
X0039422Y0374739D01*
X0039700Y0374558D01*
X0039973Y0374370D01*
X0040242Y0374176D01*
X0040506Y0373976D01*
X0040764Y0373769D01*
X0041018Y0373555D01*
X0041266Y0373336D01*
X0041509Y0373110D01*
X0041746Y0372879D01*
X0041977Y0372642D01*
X0042203Y0372399D01*
X0042422Y0372151D01*
X0042636Y0371897D01*
X0042843Y0371639D01*
X0043043Y0371375D01*
X0043237Y0371106D01*
X0043425Y0370833D01*
X0043606Y0370555D01*
X0043779Y0370273D01*
X0043946Y0369987D01*
X0044106Y0369697D01*
X0044259Y0369403D01*
X0044404Y0369105D01*
X0044542Y0368804D01*
X0044672Y0368499D01*
X0044795Y0368192D01*
X0044911Y0367881D01*
X0045019Y0367568D01*
X0045119Y0367252D01*
X0045211Y0366934D01*
X0045295Y0366613D01*
X0045372Y0366291D01*
X0045441Y0365967D01*
X0045501Y0365641D01*
X0045554Y0365314D01*
X0045598Y0364986D01*
X0045635Y0364656D01*
X0045663Y0364326D01*
X0045684Y0363995D01*
X0045696Y0363664D01*
X0045700Y0363333D01*
X0045696Y0363002D01*
X0045684Y0362671D01*
X0045663Y0362340D01*
X0045635Y0362010D01*
X0045598Y0361680D01*
X0045554Y0361352D01*
X0045501Y0361025D01*
X0045441Y0360699D01*
X0045372Y0360375D01*
X0045295Y0360053D01*
X0045211Y0359732D01*
X0045119Y0359414D01*
X0045019Y0359098D01*
X0044911Y0358785D01*
X0044795Y0358474D01*
X0044672Y0358167D01*
X0044542Y0357862D01*
X0044404Y0357561D01*
X0044259Y0357263D01*
X0044106Y0356969D01*
X0043946Y0356679D01*
X0043779Y0356393D01*
X0043606Y0356111D01*
X0043425Y0355833D01*
X0043237Y0355560D01*
X0043043Y0355291D01*
X0042843Y0355027D01*
X0042636Y0354769D01*
X0042422Y0354515D01*
X0042203Y0354267D01*
X0041977Y0354024D01*
X0041746Y0353787D01*
X0041509Y0353556D01*
X0041266Y0353330D01*
X0041018Y0353111D01*
X0040764Y0352897D01*
X0040506Y0352690D01*
X0040242Y0352490D01*
X0039973Y0352296D01*
X0039700Y0352108D01*
X0039422Y0351927D01*
X0039140Y0351754D01*
X0038854Y0351587D01*
X0038564Y0351427D01*
X0038270Y0351274D01*
X0037972Y0351129D01*
X0037671Y0350991D01*
X0037366Y0350861D01*
X0037059Y0350738D01*
X0036748Y0350622D01*
X0036435Y0350514D01*
X0036119Y0350414D01*
X0035801Y0350322D01*
X0035480Y0350238D01*
X0035158Y0350161D01*
X0034834Y0350092D01*
X0034508Y0350032D01*
X0034181Y0349979D01*
X0033853Y0349935D01*
X0033523Y0349898D01*
X0033193Y0349870D01*
X0032862Y0349849D01*
X0032531Y0349837D01*
X0032200Y0349833D01*
X0031869Y0349837D01*
X0031538Y0349849D01*
X0031207Y0349870D01*
X0030877Y0349898D01*
X0030547Y0349935D01*
X0030219Y0349979D01*
X0029892Y0350032D01*
X0029566Y0350092D01*
X0029242Y0350161D01*
X0028920Y0350238D01*
X0028599Y0350322D01*
X0028281Y0350414D01*
X0027965Y0350514D01*
X0027652Y0350622D01*
X0027341Y0350738D01*
X0027034Y0350861D01*
X0026729Y0350991D01*
X0026428Y0351129D01*
X0026130Y0351274D01*
X0025836Y0351427D01*
X0025546Y0351587D01*
X0025260Y0351754D01*
X0024978Y0351927D01*
X0024700Y0352108D01*
X0024427Y0352296D01*
X0024158Y0352490D01*
X0023894Y0352690D01*
X0023636Y0352897D01*
X0023382Y0353111D01*
X0023134Y0353330D01*
X0022891Y0353556D01*
X0022654Y0353787D01*
X0022423Y0354024D01*
X0022197Y0354267D01*
X0021978Y0354515D01*
X0021764Y0354769D01*
X0021557Y0355027D01*
X0021357Y0355291D01*
X0021163Y0355560D01*
X0020975Y0355833D01*
X0020794Y0356111D01*
X0020621Y0356393D01*
X0020454Y0356679D01*
X0020294Y0356969D01*
X0020141Y0357263D01*
X0019996Y0357561D01*
X0019858Y0357862D01*
X0019728Y0358167D01*
X0019605Y0358474D01*
X0019489Y0358785D01*
X0019381Y0359098D01*
X0019281Y0359414D01*
X0019189Y0359732D01*
X0019105Y0360053D01*
X0019028Y0360375D01*
X0018959Y0360699D01*
X0018899Y0361025D01*
X0018846Y0361352D01*
X0018802Y0361680D01*
X0018765Y0362010D01*
X0018737Y0362340D01*
X0018716Y0362671D01*
X0018704Y0363002D01*
X0018700Y0363333D01*
D11*
X0063952Y0269833D02*
X0080448Y0269833D01*
X0077728Y0263833D02*
X0076672Y0263833D01*
X0081702Y0267805D02*
X0081598Y0268020D01*
X0081489Y0268233D01*
X0081375Y0268443D01*
X0081256Y0268650D01*
X0081133Y0268855D01*
X0081005Y0269057D01*
X0080872Y0269256D01*
X0080735Y0269451D01*
X0080594Y0269644D01*
X0080448Y0269833D01*
X0081700Y0258861D02*
X0081588Y0258631D01*
X0081471Y0258404D01*
X0081349Y0258180D01*
X0081221Y0257959D01*
X0081087Y0257742D01*
X0080949Y0257527D01*
X0080805Y0257316D01*
X0080656Y0257109D01*
X0080502Y0256905D01*
X0080344Y0256705D01*
X0080180Y0256509D01*
X0080012Y0256317D01*
X0079839Y0256129D01*
X0079661Y0255945D01*
X0079480Y0255766D01*
X0079293Y0255591D01*
X0079103Y0255421D01*
X0078909Y0255256D01*
X0078710Y0255095D01*
X0078508Y0254939D01*
X0078302Y0254788D01*
X0078092Y0254642D01*
X0077879Y0254502D01*
X0077663Y0254366D01*
X0077443Y0254236D01*
X0077220Y0254111D01*
X0076995Y0253992D01*
X0076766Y0253878D01*
X0076535Y0253770D01*
X0076301Y0253667D01*
X0076065Y0253570D01*
X0075826Y0253479D01*
X0075586Y0253394D01*
X0075343Y0253314D01*
X0075098Y0253241D01*
X0074852Y0253173D01*
X0074604Y0253112D01*
X0074355Y0253057D01*
X0074105Y0253007D01*
X0073853Y0252964D01*
X0073600Y0252927D01*
X0073347Y0252896D01*
X0073093Y0252871D01*
X0072838Y0252852D01*
X0072583Y0252840D01*
X0072328Y0252834D01*
X0072072Y0252834D01*
X0071817Y0252840D01*
X0071562Y0252852D01*
X0071307Y0252871D01*
X0071053Y0252896D01*
X0070800Y0252927D01*
X0070547Y0252964D01*
X0070295Y0253007D01*
X0070045Y0253057D01*
X0069796Y0253112D01*
X0069548Y0253173D01*
X0069302Y0253241D01*
X0069057Y0253314D01*
X0068814Y0253394D01*
X0068574Y0253479D01*
X0068335Y0253570D01*
X0068099Y0253667D01*
X0067865Y0253770D01*
X0067634Y0253878D01*
X0067405Y0253992D01*
X0067180Y0254111D01*
X0066957Y0254236D01*
X0066737Y0254366D01*
X0066521Y0254502D01*
X0066308Y0254642D01*
X0066098Y0254788D01*
X0065892Y0254939D01*
X0065690Y0255095D01*
X0065491Y0255256D01*
X0065297Y0255421D01*
X0065107Y0255591D01*
X0064920Y0255766D01*
X0064739Y0255945D01*
X0064561Y0256129D01*
X0064388Y0256317D01*
X0064220Y0256509D01*
X0064056Y0256705D01*
X0063898Y0256905D01*
X0063744Y0257109D01*
X0063595Y0257316D01*
X0063451Y0257527D01*
X0063313Y0257742D01*
X0063179Y0257959D01*
X0063051Y0258180D01*
X0062929Y0258404D01*
X0062812Y0258631D01*
X0062700Y0258861D01*
X0066672Y0263833D02*
X0067728Y0263833D01*
X0062654Y0267711D02*
X0062761Y0267936D01*
X0062873Y0268159D01*
X0062990Y0268379D01*
X0063112Y0268596D01*
X0063240Y0268811D01*
X0063373Y0269022D01*
X0063510Y0269230D01*
X0063653Y0269434D01*
X0063800Y0269636D01*
X0063952Y0269833D01*
X0083242Y0256087D02*
X0086245Y0256087D01*
X0084743Y0256087D02*
X0084743Y0251583D01*
X0087846Y0251583D02*
X0090849Y0251583D01*
X0089347Y0251583D02*
X0089347Y0256087D01*
X0087846Y0254586D01*
X0114034Y0262083D02*
X0117037Y0262083D01*
X0118638Y0262083D02*
X0121641Y0262083D01*
X0123242Y0262083D02*
X0125494Y0262083D01*
X0126245Y0262834D01*
X0126245Y0265837D01*
X0125494Y0266587D01*
X0123242Y0266587D01*
X0123242Y0262083D01*
X0120139Y0264335D02*
X0118638Y0264335D01*
X0118638Y0266587D02*
X0118638Y0262083D01*
X0118638Y0266587D02*
X0121641Y0266587D01*
X0127846Y0265086D02*
X0129347Y0266587D01*
X0129347Y0262083D01*
X0127846Y0262083D02*
X0130849Y0262083D01*
X0128953Y0276083D02*
X0126701Y0278335D01*
X0125950Y0277585D02*
X0128953Y0280587D01*
X0130554Y0278335D02*
X0133556Y0278335D01*
X0132806Y0276083D02*
X0132806Y0280587D01*
X0130554Y0278335D01*
X0125950Y0280587D02*
X0125950Y0276083D01*
X0114034Y0266587D02*
X0114034Y0262083D01*
X0089450Y0209690D02*
X0089450Y0206687D01*
X0089450Y0208189D02*
X0084946Y0208189D01*
X0086447Y0206687D01*
X0084946Y0205086D02*
X0087949Y0202083D01*
X0087198Y0202834D02*
X0089450Y0205086D01*
X0089450Y0202083D02*
X0084946Y0202083D01*
X0057056Y0195083D02*
X0054054Y0195083D01*
X0055555Y0195083D02*
X0055555Y0199587D01*
X0054054Y0198086D01*
X0052453Y0198837D02*
X0052453Y0195834D01*
X0051702Y0195083D01*
X0049450Y0195083D01*
X0049450Y0199587D01*
X0051702Y0199587D01*
X0052453Y0198837D01*
X0085697Y0139690D02*
X0084946Y0138939D01*
X0084946Y0137438D01*
X0085697Y0136687D01*
X0084946Y0135086D02*
X0087949Y0132083D01*
X0087198Y0132834D02*
X0089450Y0135086D01*
X0089450Y0136687D02*
X0086447Y0139690D01*
X0085697Y0139690D01*
X0089450Y0139690D02*
X0089450Y0136687D01*
X0089450Y0132083D02*
X0084946Y0132083D01*
X0084590Y0119087D02*
X0083089Y0119087D01*
X0082338Y0118337D01*
X0082338Y0115334D01*
X0083089Y0114583D01*
X0084590Y0114583D01*
X0085341Y0115334D01*
X0086942Y0114583D02*
X0089945Y0114583D01*
X0088443Y0114583D02*
X0088443Y0119087D01*
X0086942Y0117586D01*
X0085341Y0118337D02*
X0084590Y0119087D01*
X0091546Y0118337D02*
X0091546Y0115334D01*
X0094549Y0118337D01*
X0094549Y0115334D01*
X0093798Y0114583D01*
X0092297Y0114583D01*
X0091546Y0115334D01*
X0091546Y0118337D02*
X0092297Y0119087D01*
X0093798Y0119087D01*
X0094549Y0118337D01*
X0238242Y0116087D02*
X0241245Y0116087D01*
X0239743Y0116087D02*
X0239743Y0111583D01*
X0242846Y0112334D02*
X0243597Y0111583D01*
X0245098Y0111583D01*
X0245849Y0112334D01*
X0245849Y0113085D01*
X0245098Y0113835D01*
X0244347Y0113835D01*
X0245098Y0113835D02*
X0245849Y0114586D01*
X0245849Y0115337D01*
X0245098Y0116087D01*
X0243597Y0116087D01*
X0242846Y0115337D01*
X0248700Y0125085D02*
X0248700Y0141581D01*
X0242700Y0138861D02*
X0242700Y0137806D01*
X0246578Y0142879D02*
X0246803Y0142772D01*
X0247026Y0142660D01*
X0247246Y0142543D01*
X0247463Y0142421D01*
X0247678Y0142293D01*
X0247889Y0142160D01*
X0248097Y0142023D01*
X0248301Y0141880D01*
X0248503Y0141733D01*
X0248700Y0141581D01*
X0237728Y0142833D02*
X0237498Y0142721D01*
X0237271Y0142604D01*
X0237047Y0142482D01*
X0236826Y0142354D01*
X0236609Y0142220D01*
X0236394Y0142082D01*
X0236183Y0141938D01*
X0235976Y0141789D01*
X0235772Y0141635D01*
X0235572Y0141477D01*
X0235376Y0141313D01*
X0235184Y0141145D01*
X0234996Y0140972D01*
X0234812Y0140794D01*
X0234633Y0140613D01*
X0234458Y0140426D01*
X0234288Y0140236D01*
X0234123Y0140042D01*
X0233962Y0139843D01*
X0233806Y0139641D01*
X0233655Y0139435D01*
X0233509Y0139225D01*
X0233369Y0139012D01*
X0233233Y0138796D01*
X0233103Y0138576D01*
X0232978Y0138353D01*
X0232859Y0138128D01*
X0232745Y0137899D01*
X0232637Y0137668D01*
X0232534Y0137434D01*
X0232437Y0137198D01*
X0232346Y0136959D01*
X0232261Y0136719D01*
X0232181Y0136476D01*
X0232108Y0136231D01*
X0232040Y0135985D01*
X0231979Y0135737D01*
X0231924Y0135488D01*
X0231874Y0135238D01*
X0231831Y0134986D01*
X0231794Y0134733D01*
X0231763Y0134480D01*
X0231738Y0134226D01*
X0231719Y0133971D01*
X0231707Y0133716D01*
X0231701Y0133461D01*
X0231701Y0133205D01*
X0231707Y0132950D01*
X0231719Y0132695D01*
X0231738Y0132440D01*
X0231763Y0132186D01*
X0231794Y0131933D01*
X0231831Y0131680D01*
X0231874Y0131428D01*
X0231924Y0131178D01*
X0231979Y0130929D01*
X0232040Y0130681D01*
X0232108Y0130435D01*
X0232181Y0130190D01*
X0232261Y0129947D01*
X0232346Y0129707D01*
X0232437Y0129468D01*
X0232534Y0129232D01*
X0232637Y0128998D01*
X0232745Y0128767D01*
X0232859Y0128538D01*
X0232978Y0128313D01*
X0233103Y0128090D01*
X0233233Y0127870D01*
X0233369Y0127654D01*
X0233509Y0127441D01*
X0233655Y0127231D01*
X0233806Y0127025D01*
X0233962Y0126823D01*
X0234123Y0126624D01*
X0234288Y0126430D01*
X0234458Y0126240D01*
X0234633Y0126053D01*
X0234812Y0125872D01*
X0234996Y0125694D01*
X0235184Y0125521D01*
X0235376Y0125353D01*
X0235572Y0125189D01*
X0235772Y0125031D01*
X0235976Y0124877D01*
X0236183Y0124728D01*
X0236394Y0124584D01*
X0236609Y0124446D01*
X0236826Y0124312D01*
X0237047Y0124184D01*
X0237271Y0124062D01*
X0237498Y0123945D01*
X0237728Y0123833D01*
X0242700Y0127806D02*
X0242700Y0128861D01*
X0246672Y0123831D02*
X0246887Y0123935D01*
X0247100Y0124044D01*
X0247310Y0124158D01*
X0247517Y0124277D01*
X0247722Y0124400D01*
X0247924Y0124528D01*
X0248123Y0124661D01*
X0248318Y0124798D01*
X0248511Y0124939D01*
X0248700Y0125085D01*
X0255843Y0160233D02*
X0255092Y0160984D01*
X0255092Y0163987D01*
X0255843Y0164737D01*
X0257344Y0164737D01*
X0258095Y0163987D01*
X0258095Y0160984D01*
X0257344Y0160233D01*
X0255843Y0160233D01*
X0256593Y0161735D02*
X0258095Y0160233D01*
X0259696Y0160233D02*
X0262699Y0160233D01*
X0261197Y0160233D02*
X0261197Y0164737D01*
X0259696Y0163236D01*
X0329946Y0160231D02*
X0332198Y0157979D01*
X0332198Y0160982D01*
X0334450Y0160231D02*
X0329946Y0160231D01*
X0329946Y0154877D02*
X0334450Y0154877D01*
X0334450Y0156378D02*
X0334450Y0153375D01*
X0333699Y0151774D02*
X0334450Y0151023D01*
X0334450Y0149522D01*
X0333699Y0148772D01*
X0330697Y0148772D01*
X0329946Y0149522D01*
X0329946Y0151023D01*
X0330697Y0151774D01*
X0331447Y0153375D02*
X0329946Y0154877D01*
X0356446Y0154577D02*
X0360950Y0154577D01*
X0360950Y0156078D02*
X0360950Y0153075D01*
X0360199Y0151474D02*
X0360950Y0150723D01*
X0360950Y0149222D01*
X0360199Y0148472D01*
X0357197Y0148472D01*
X0356446Y0149222D01*
X0356446Y0150723D01*
X0357197Y0151474D01*
X0357947Y0153075D02*
X0356446Y0154577D01*
X0357197Y0157679D02*
X0356446Y0158430D01*
X0356446Y0159931D01*
X0357197Y0160682D01*
X0357947Y0160682D01*
X0358698Y0159931D01*
X0359449Y0160682D01*
X0360199Y0160682D01*
X0360950Y0159931D01*
X0360950Y0158430D01*
X0360199Y0157679D01*
X0358698Y0159181D02*
X0358698Y0159931D01*
X0223556Y0276834D02*
X0222806Y0276083D01*
X0221305Y0276083D01*
X0220554Y0276834D01*
X0218953Y0276083D02*
X0216701Y0278335D01*
X0215950Y0277585D02*
X0218953Y0280587D01*
X0220554Y0279837D02*
X0221305Y0280587D01*
X0222806Y0280587D01*
X0223556Y0279837D01*
X0223556Y0279086D01*
X0222806Y0278335D01*
X0223556Y0277585D01*
X0223556Y0276834D01*
X0222806Y0278335D02*
X0222055Y0278335D01*
X0215950Y0280587D02*
X0215950Y0276083D01*
X0188450Y0302375D02*
X0188450Y0304627D01*
X0187699Y0305378D01*
X0184697Y0305378D01*
X0183946Y0304627D01*
X0183946Y0302375D01*
X0188450Y0302375D01*
X0188450Y0306979D02*
X0185447Y0309982D01*
X0184697Y0309982D01*
X0183946Y0309231D01*
X0183946Y0307730D01*
X0184697Y0306979D01*
X0188450Y0306979D02*
X0188450Y0309982D01*
X0188450Y0317668D02*
X0183946Y0317668D01*
X0188450Y0317668D02*
X0188450Y0320670D01*
X0188450Y0322272D02*
X0188450Y0325274D01*
X0188450Y0326875D02*
X0183946Y0326875D01*
X0183946Y0329127D01*
X0184697Y0329878D01*
X0187699Y0329878D01*
X0188450Y0329127D01*
X0188450Y0326875D01*
X0186198Y0323773D02*
X0186198Y0322272D01*
X0183946Y0322272D02*
X0188450Y0322272D01*
X0183946Y0322272D02*
X0183946Y0325274D01*
X0184697Y0331479D02*
X0183946Y0332230D01*
X0183946Y0333731D01*
X0184697Y0334482D01*
X0185447Y0334482D01*
X0186198Y0333731D01*
X0186949Y0334482D01*
X0187699Y0334482D01*
X0188450Y0333731D01*
X0188450Y0332230D01*
X0187699Y0331479D01*
X0186198Y0332981D02*
X0186198Y0333731D01*
X0203946Y0333731D02*
X0203946Y0332230D01*
X0204697Y0331479D01*
X0204697Y0329878D02*
X0203946Y0329127D01*
X0203946Y0326875D01*
X0208450Y0326875D01*
X0208450Y0329127D01*
X0207699Y0329878D01*
X0204697Y0329878D01*
X0203946Y0333731D02*
X0204697Y0334482D01*
X0205447Y0334482D01*
X0208450Y0331479D01*
X0208450Y0334482D01*
X0208450Y0325274D02*
X0208450Y0322272D01*
X0203946Y0322272D01*
X0203946Y0325274D01*
X0206198Y0323773D02*
X0206198Y0322272D01*
X0208450Y0320670D02*
X0208450Y0317668D01*
X0203946Y0317668D01*
X0217450Y0365083D02*
X0220453Y0365083D01*
X0222054Y0365083D02*
X0222054Y0369587D01*
X0223555Y0368086D01*
X0225056Y0369587D01*
X0225056Y0365083D01*
X0226658Y0365083D02*
X0228159Y0365083D01*
X0227408Y0365083D02*
X0227408Y0369587D01*
X0226658Y0369587D02*
X0228159Y0369587D01*
X0229727Y0369587D02*
X0232730Y0369587D01*
X0231228Y0369587D02*
X0231228Y0365083D01*
X0234331Y0365834D02*
X0235082Y0365083D01*
X0236583Y0365083D01*
X0237334Y0365834D01*
X0237334Y0368837D01*
X0236583Y0369587D01*
X0235082Y0369587D01*
X0234331Y0368837D01*
X0234331Y0365834D01*
X0238935Y0366585D02*
X0241187Y0366585D01*
X0241938Y0367335D01*
X0241938Y0368837D01*
X0241187Y0369587D01*
X0238935Y0369587D01*
X0238935Y0365083D01*
X0240436Y0366585D02*
X0241938Y0365083D01*
X0247450Y0365083D02*
X0247450Y0369587D01*
X0248201Y0367335D02*
X0250453Y0365083D01*
X0252054Y0365834D02*
X0252054Y0368837D01*
X0252805Y0369587D01*
X0254306Y0369587D01*
X0255056Y0368837D01*
X0255056Y0365834D01*
X0254306Y0365083D01*
X0252805Y0365083D01*
X0252054Y0365834D01*
X0250453Y0369587D02*
X0247450Y0366585D01*
X0256658Y0365083D02*
X0259660Y0365083D01*
X0261262Y0365083D02*
X0264264Y0365083D01*
X0265866Y0365083D02*
X0265866Y0369587D01*
X0264264Y0369587D02*
X0261262Y0369587D01*
X0261262Y0365083D01*
X0261262Y0367335D02*
X0262763Y0367335D01*
X0265866Y0366585D02*
X0268868Y0369587D01*
X0270470Y0369587D02*
X0273472Y0369587D01*
X0271971Y0369587D02*
X0271971Y0365083D01*
X0268868Y0365083D02*
X0266616Y0367335D01*
X0275074Y0365834D02*
X0275824Y0365083D01*
X0277325Y0365083D01*
X0278076Y0365834D01*
X0278076Y0368837D01*
X0277325Y0369587D01*
X0275824Y0369587D01*
X0275074Y0368837D01*
X0275074Y0365834D01*
X0279677Y0366585D02*
X0281929Y0366585D01*
X0282680Y0367335D01*
X0282680Y0368837D01*
X0281929Y0369587D01*
X0279677Y0369587D01*
X0279677Y0365083D01*
X0281179Y0366585D02*
X0282680Y0365083D01*
X0256658Y0365083D02*
X0256658Y0369587D01*
X0220453Y0369587D02*
X0217450Y0369587D01*
X0217450Y0365083D01*
X0217450Y0367335D02*
X0218951Y0367335D01*
X0267450Y0330087D02*
X0270453Y0330087D01*
X0268951Y0330087D02*
X0268951Y0325583D01*
X0272054Y0325583D02*
X0275056Y0328586D01*
X0275056Y0329337D01*
X0274306Y0330087D01*
X0272805Y0330087D01*
X0272054Y0329337D01*
X0272054Y0325583D02*
X0275056Y0325583D01*
X0265700Y0316581D02*
X0265700Y0300085D01*
X0271700Y0302806D02*
X0271700Y0303861D01*
X0267822Y0298787D02*
X0267597Y0298894D01*
X0267374Y0299006D01*
X0267154Y0299123D01*
X0266937Y0299245D01*
X0266722Y0299373D01*
X0266511Y0299506D01*
X0266303Y0299643D01*
X0266099Y0299786D01*
X0265897Y0299933D01*
X0265700Y0300085D01*
X0276672Y0298833D02*
X0276902Y0298945D01*
X0277129Y0299062D01*
X0277353Y0299184D01*
X0277574Y0299312D01*
X0277791Y0299446D01*
X0278006Y0299584D01*
X0278217Y0299728D01*
X0278424Y0299877D01*
X0278628Y0300031D01*
X0278828Y0300189D01*
X0279024Y0300353D01*
X0279216Y0300521D01*
X0279404Y0300694D01*
X0279588Y0300872D01*
X0279767Y0301053D01*
X0279942Y0301240D01*
X0280112Y0301430D01*
X0280277Y0301624D01*
X0280438Y0301823D01*
X0280594Y0302025D01*
X0280745Y0302231D01*
X0280891Y0302441D01*
X0281031Y0302654D01*
X0281167Y0302870D01*
X0281297Y0303090D01*
X0281422Y0303313D01*
X0281541Y0303538D01*
X0281655Y0303767D01*
X0281763Y0303998D01*
X0281866Y0304232D01*
X0281963Y0304468D01*
X0282054Y0304707D01*
X0282139Y0304947D01*
X0282219Y0305190D01*
X0282292Y0305435D01*
X0282360Y0305681D01*
X0282421Y0305929D01*
X0282476Y0306178D01*
X0282526Y0306428D01*
X0282569Y0306680D01*
X0282606Y0306933D01*
X0282637Y0307186D01*
X0282662Y0307440D01*
X0282681Y0307695D01*
X0282693Y0307950D01*
X0282699Y0308205D01*
X0282699Y0308461D01*
X0282693Y0308716D01*
X0282681Y0308971D01*
X0282662Y0309226D01*
X0282637Y0309480D01*
X0282606Y0309733D01*
X0282569Y0309986D01*
X0282526Y0310238D01*
X0282476Y0310488D01*
X0282421Y0310737D01*
X0282360Y0310985D01*
X0282292Y0311231D01*
X0282219Y0311476D01*
X0282139Y0311719D01*
X0282054Y0311959D01*
X0281963Y0312198D01*
X0281866Y0312434D01*
X0281763Y0312668D01*
X0281655Y0312899D01*
X0281541Y0313128D01*
X0281422Y0313353D01*
X0281297Y0313576D01*
X0281167Y0313796D01*
X0281031Y0314012D01*
X0280891Y0314225D01*
X0280745Y0314435D01*
X0280594Y0314641D01*
X0280438Y0314843D01*
X0280277Y0315042D01*
X0280112Y0315236D01*
X0279942Y0315426D01*
X0279767Y0315613D01*
X0279588Y0315794D01*
X0279404Y0315972D01*
X0279216Y0316145D01*
X0279024Y0316313D01*
X0278828Y0316477D01*
X0278628Y0316635D01*
X0278424Y0316789D01*
X0278217Y0316938D01*
X0278006Y0317082D01*
X0277791Y0317220D01*
X0277574Y0317354D01*
X0277353Y0317482D01*
X0277129Y0317604D01*
X0276902Y0317721D01*
X0276672Y0317833D01*
X0271700Y0313861D02*
X0271700Y0312806D01*
X0267728Y0317835D02*
X0267513Y0317731D01*
X0267300Y0317622D01*
X0267090Y0317508D01*
X0266883Y0317389D01*
X0266678Y0317266D01*
X0266476Y0317138D01*
X0266277Y0317005D01*
X0266082Y0316868D01*
X0265889Y0316727D01*
X0265700Y0316581D01*
X0144264Y0365083D02*
X0141262Y0365083D01*
X0141262Y0369587D01*
X0144264Y0369587D01*
X0142763Y0367335D02*
X0141262Y0367335D01*
X0139660Y0368837D02*
X0136658Y0365834D01*
X0136658Y0365083D01*
X0139660Y0365083D01*
X0139660Y0368837D02*
X0139660Y0369587D01*
X0136658Y0369587D01*
X0135056Y0368086D02*
X0135056Y0365083D01*
X0135056Y0367335D02*
X0132054Y0367335D01*
X0132054Y0368086D02*
X0133555Y0369587D01*
X0135056Y0368086D01*
X0132054Y0368086D02*
X0132054Y0365083D01*
X0130453Y0365834D02*
X0130453Y0366585D01*
X0129702Y0367335D01*
X0127450Y0367335D01*
X0127450Y0365083D02*
X0127450Y0369587D01*
X0129702Y0369587D01*
X0130453Y0368837D01*
X0130453Y0368086D01*
X0129702Y0367335D01*
X0130453Y0365834D02*
X0129702Y0365083D01*
X0127450Y0365083D01*
D12*
X0083733Y0075118D02*
X0079896Y0075118D01*
X0079896Y0078187D02*
X0083733Y0078187D01*
X0084500Y0077420D01*
X0084500Y0075885D01*
X0083733Y0075118D01*
X0084500Y0079722D02*
X0084500Y0082791D01*
X0084500Y0084325D02*
X0081431Y0087395D01*
X0080663Y0087395D01*
X0079896Y0086627D01*
X0079896Y0085093D01*
X0080663Y0084325D01*
X0079896Y0081256D02*
X0084500Y0081256D01*
X0084500Y0084325D02*
X0084500Y0087395D01*
X0082965Y0088929D02*
X0084500Y0090464D01*
X0082965Y0091999D01*
X0079896Y0091999D01*
X0079896Y0088929D02*
X0082965Y0088929D01*
X0079896Y0081256D02*
X0081431Y0079722D01*
X0036323Y0113533D02*
X0033254Y0113533D01*
X0036323Y0116603D01*
X0036323Y0117370D01*
X0035556Y0118137D01*
X0034021Y0118137D01*
X0033254Y0117370D01*
X0031719Y0117370D02*
X0030952Y0118137D01*
X0028650Y0118137D01*
X0028650Y0113533D01*
X0028650Y0115068D02*
X0030952Y0115068D01*
X0031719Y0115835D01*
X0031719Y0117370D01*
X0030185Y0115068D02*
X0031719Y0113533D01*
X0093951Y0156614D02*
X0094719Y0155846D01*
X0097788Y0155846D01*
X0098555Y0156614D01*
X0098555Y0158148D01*
X0097788Y0158916D01*
X0097788Y0160450D02*
X0098555Y0161218D01*
X0098555Y0162752D01*
X0097788Y0163520D01*
X0094719Y0163520D01*
X0093951Y0162752D01*
X0093951Y0161218D01*
X0094719Y0160450D01*
X0095486Y0160450D01*
X0096253Y0161218D01*
X0096253Y0163520D01*
X0094719Y0158916D02*
X0093951Y0158148D01*
X0093951Y0156614D01*
X0117396Y0168472D02*
X0117396Y0170773D01*
X0118163Y0171541D01*
X0119698Y0171541D01*
X0120465Y0170773D01*
X0120465Y0168472D01*
X0120465Y0170006D02*
X0122000Y0171541D01*
X0121233Y0173075D02*
X0122000Y0173843D01*
X0122000Y0175377D01*
X0121233Y0176145D01*
X0119698Y0176145D01*
X0118931Y0175377D01*
X0118931Y0174610D01*
X0119698Y0173075D01*
X0117396Y0173075D01*
X0117396Y0176145D01*
X0118163Y0177679D02*
X0117396Y0178447D01*
X0117396Y0179981D01*
X0118163Y0180749D01*
X0118931Y0180749D01*
X0119698Y0179981D01*
X0120465Y0180749D01*
X0121233Y0180749D01*
X0122000Y0179981D01*
X0122000Y0178447D01*
X0121233Y0177679D01*
X0119698Y0179214D02*
X0119698Y0179981D01*
X0125480Y0186978D02*
X0127015Y0186978D01*
X0127782Y0187746D01*
X0129317Y0186978D02*
X0132386Y0190047D01*
X0132386Y0190815D01*
X0131619Y0191582D01*
X0130084Y0191582D01*
X0129317Y0190815D01*
X0127782Y0190815D02*
X0127015Y0191582D01*
X0125480Y0191582D01*
X0124713Y0190815D01*
X0124713Y0187746D01*
X0125480Y0186978D01*
X0129317Y0186978D02*
X0132386Y0186978D01*
X0132396Y0193472D02*
X0132396Y0195773D01*
X0133163Y0196541D01*
X0134698Y0196541D01*
X0135465Y0195773D01*
X0135465Y0193472D01*
X0135465Y0195006D02*
X0137000Y0196541D01*
X0136233Y0198075D02*
X0137000Y0198843D01*
X0137000Y0200377D01*
X0136233Y0201145D01*
X0134698Y0201145D01*
X0133931Y0200377D01*
X0133931Y0199610D01*
X0134698Y0198075D01*
X0132396Y0198075D01*
X0132396Y0201145D01*
X0133931Y0202679D02*
X0132396Y0204214D01*
X0137000Y0204214D01*
X0137000Y0202679D02*
X0137000Y0205749D01*
X0133365Y0213033D02*
X0130296Y0213033D01*
X0131831Y0213033D02*
X0131831Y0217637D01*
X0130296Y0216103D01*
X0128761Y0216870D02*
X0127994Y0217637D01*
X0126459Y0217637D01*
X0125692Y0216870D01*
X0125692Y0213801D01*
X0126459Y0213033D01*
X0127994Y0213033D01*
X0128761Y0213801D01*
X0124157Y0213033D02*
X0122623Y0213033D01*
X0123390Y0213033D02*
X0123390Y0217637D01*
X0122623Y0217637D02*
X0124157Y0217637D01*
X0138775Y0217106D02*
X0139543Y0216338D01*
X0141077Y0216338D01*
X0141844Y0217106D01*
X0143379Y0216338D02*
X0146448Y0216338D01*
X0144914Y0216338D02*
X0144914Y0220942D01*
X0143379Y0219408D01*
X0141844Y0220175D02*
X0141077Y0220942D01*
X0139543Y0220942D01*
X0138775Y0220175D01*
X0138775Y0217106D01*
X0147983Y0217106D02*
X0148750Y0216338D01*
X0150285Y0216338D01*
X0151052Y0217106D01*
X0151052Y0218640D01*
X0150285Y0219408D01*
X0149518Y0219408D01*
X0147983Y0218640D01*
X0147983Y0220942D01*
X0151052Y0220942D01*
X0147000Y0232283D02*
X0142396Y0232283D01*
X0142396Y0234585D01*
X0143163Y0235353D01*
X0144698Y0235353D01*
X0145465Y0234585D01*
X0145465Y0232283D01*
X0145465Y0233818D02*
X0147000Y0235353D01*
X0144698Y0236887D02*
X0142396Y0239189D01*
X0147000Y0239189D01*
X0144698Y0239957D02*
X0144698Y0236887D01*
X0132386Y0256978D02*
X0129317Y0256978D01*
X0130852Y0256978D02*
X0130852Y0261582D01*
X0129317Y0260047D01*
X0127782Y0260815D02*
X0127015Y0261582D01*
X0125480Y0261582D01*
X0124713Y0260815D01*
X0124713Y0257746D01*
X0125480Y0256978D01*
X0127015Y0256978D01*
X0127782Y0257746D01*
X0122000Y0249981D02*
X0117396Y0249981D01*
X0119698Y0247679D01*
X0119698Y0250749D01*
X0119698Y0246145D02*
X0118931Y0245377D01*
X0118931Y0244610D01*
X0119698Y0243075D01*
X0117396Y0243075D01*
X0117396Y0246145D01*
X0119698Y0246145D02*
X0121233Y0246145D01*
X0122000Y0245377D01*
X0122000Y0243843D01*
X0121233Y0243075D01*
X0122000Y0241541D02*
X0120465Y0240006D01*
X0120465Y0240773D02*
X0120465Y0238472D01*
X0122000Y0238472D02*
X0117396Y0238472D01*
X0117396Y0240773D01*
X0118163Y0241541D01*
X0119698Y0241541D01*
X0120465Y0240773D01*
X0094805Y0234002D02*
X0094805Y0232468D01*
X0094038Y0231700D01*
X0093270Y0231700D01*
X0092503Y0232468D01*
X0092503Y0234002D01*
X0093270Y0234770D01*
X0094038Y0234770D01*
X0094805Y0234002D01*
X0092503Y0234002D02*
X0091736Y0234770D01*
X0090969Y0234770D01*
X0090201Y0234002D01*
X0090201Y0232468D01*
X0090969Y0231700D01*
X0091736Y0231700D01*
X0092503Y0232468D01*
X0090969Y0230166D02*
X0090201Y0229398D01*
X0090201Y0227864D01*
X0090969Y0227096D01*
X0094038Y0227096D01*
X0094805Y0227864D01*
X0094805Y0229398D01*
X0094038Y0230166D01*
X0093931Y0191207D02*
X0094698Y0190439D01*
X0094698Y0188905D01*
X0093931Y0188137D01*
X0093163Y0188137D01*
X0092396Y0188905D01*
X0092396Y0190439D01*
X0093163Y0191207D01*
X0093931Y0191207D01*
X0094698Y0190439D02*
X0095465Y0191207D01*
X0096233Y0191207D01*
X0097000Y0190439D01*
X0097000Y0188905D01*
X0096233Y0188137D01*
X0095465Y0188137D01*
X0094698Y0188905D01*
X0093163Y0186603D02*
X0092396Y0185835D01*
X0092396Y0183533D01*
X0097000Y0183533D01*
X0097000Y0185835D01*
X0096233Y0186603D01*
X0093163Y0186603D01*
X0102396Y0185835D02*
X0102396Y0183533D01*
X0107000Y0183533D01*
X0107000Y0185835D01*
X0106233Y0186603D01*
X0103163Y0186603D01*
X0102396Y0185835D01*
X0103163Y0188137D02*
X0102396Y0188905D01*
X0102396Y0190439D01*
X0103163Y0191207D01*
X0106233Y0191207D01*
X0107000Y0190439D01*
X0107000Y0188905D01*
X0106233Y0188137D01*
X0104698Y0188905D02*
X0103931Y0188137D01*
X0103163Y0188137D01*
X0104698Y0188905D02*
X0104698Y0191207D01*
X0117396Y0168472D02*
X0122000Y0168472D01*
X0137338Y0168137D02*
X0137338Y0163533D01*
X0137338Y0165068D02*
X0139640Y0165068D01*
X0140407Y0165835D01*
X0140407Y0167370D01*
X0139640Y0168137D01*
X0137338Y0168137D01*
X0138873Y0165068D02*
X0140407Y0163533D01*
X0141942Y0163533D02*
X0145011Y0166603D01*
X0145011Y0167370D01*
X0144244Y0168137D01*
X0142709Y0168137D01*
X0141942Y0167370D01*
X0141942Y0163533D02*
X0145011Y0163533D01*
X0146546Y0164301D02*
X0149615Y0167370D01*
X0149615Y0164301D01*
X0148848Y0163533D01*
X0147313Y0163533D01*
X0146546Y0164301D01*
X0146546Y0167370D01*
X0147313Y0168137D01*
X0148848Y0168137D01*
X0149615Y0167370D01*
X0162396Y0167283D02*
X0162396Y0169585D01*
X0163163Y0170353D01*
X0164698Y0170353D01*
X0165465Y0169585D01*
X0165465Y0167283D01*
X0165465Y0168818D02*
X0167000Y0170353D01*
X0166233Y0171887D02*
X0167000Y0172655D01*
X0167000Y0174189D01*
X0166233Y0174957D01*
X0164698Y0174957D01*
X0163931Y0174189D01*
X0163931Y0173422D01*
X0164698Y0171887D01*
X0162396Y0171887D01*
X0162396Y0174957D01*
X0162396Y0167283D02*
X0167000Y0167283D01*
X0137000Y0193472D02*
X0132396Y0193472D01*
X0173873Y0239283D02*
X0175407Y0239283D01*
X0174640Y0239283D02*
X0174640Y0243887D01*
X0173873Y0243887D02*
X0175407Y0243887D01*
X0176942Y0243120D02*
X0176942Y0240051D01*
X0177709Y0239283D01*
X0179244Y0239283D01*
X0180011Y0240051D01*
X0181546Y0240051D02*
X0182313Y0239283D01*
X0183848Y0239283D01*
X0184615Y0240051D01*
X0184615Y0241585D01*
X0183848Y0242353D01*
X0183081Y0242353D01*
X0181546Y0241585D01*
X0181546Y0243887D01*
X0184615Y0243887D01*
X0180011Y0243120D02*
X0179244Y0243887D01*
X0177709Y0243887D01*
X0176942Y0243120D01*
X0162551Y0274163D02*
X0159482Y0274163D01*
X0161016Y0274163D02*
X0161016Y0278767D01*
X0159482Y0277233D01*
X0157947Y0277233D02*
X0157947Y0278000D01*
X0157180Y0278767D01*
X0155645Y0278767D01*
X0154878Y0278000D01*
X0153343Y0278000D02*
X0153343Y0276465D01*
X0152576Y0275698D01*
X0150274Y0275698D01*
X0151809Y0275698D02*
X0153343Y0274163D01*
X0154878Y0274163D02*
X0157947Y0277233D01*
X0157947Y0274163D02*
X0154878Y0274163D01*
X0153343Y0278000D02*
X0152576Y0278767D01*
X0150274Y0278767D01*
X0150274Y0274163D01*
X0182396Y0281033D02*
X0182396Y0283335D01*
X0183163Y0284103D01*
X0184698Y0284103D01*
X0185465Y0283335D01*
X0185465Y0281033D01*
X0185465Y0282568D02*
X0187000Y0284103D01*
X0187000Y0285637D02*
X0183931Y0288707D01*
X0183163Y0288707D01*
X0182396Y0287939D01*
X0182396Y0286405D01*
X0183163Y0285637D01*
X0187000Y0285637D02*
X0187000Y0288707D01*
X0186233Y0290241D02*
X0187000Y0291008D01*
X0187000Y0292543D01*
X0186233Y0293310D01*
X0185465Y0293310D01*
X0184698Y0292543D01*
X0184698Y0291776D01*
X0184698Y0292543D02*
X0183931Y0293310D01*
X0183163Y0293310D01*
X0182396Y0292543D01*
X0182396Y0291008D01*
X0183163Y0290241D01*
X0182396Y0281033D02*
X0187000Y0281033D01*
X0197396Y0281033D02*
X0197396Y0283335D01*
X0198163Y0284103D01*
X0199698Y0284103D01*
X0200465Y0283335D01*
X0200465Y0281033D01*
X0200465Y0282568D02*
X0202000Y0284103D01*
X0202000Y0285637D02*
X0198931Y0288707D01*
X0198163Y0288707D01*
X0197396Y0287939D01*
X0197396Y0286405D01*
X0198163Y0285637D01*
X0202000Y0285637D02*
X0202000Y0288707D01*
X0202000Y0290241D02*
X0198931Y0293310D01*
X0198163Y0293310D01*
X0197396Y0292543D01*
X0197396Y0291008D01*
X0198163Y0290241D01*
X0202000Y0290241D02*
X0202000Y0293310D01*
X0202000Y0281033D02*
X0197396Y0281033D01*
X0214900Y0235637D02*
X0217202Y0235637D01*
X0217969Y0234870D01*
X0217969Y0233335D01*
X0217202Y0232568D01*
X0214900Y0232568D01*
X0216435Y0232568D02*
X0217969Y0231033D01*
X0219504Y0231801D02*
X0220271Y0231033D01*
X0221806Y0231033D01*
X0222573Y0231801D01*
X0222573Y0232568D01*
X0221806Y0233335D01*
X0221039Y0233335D01*
X0221806Y0233335D02*
X0222573Y0234103D01*
X0222573Y0234870D01*
X0221806Y0235637D01*
X0220271Y0235637D01*
X0219504Y0234870D01*
X0214900Y0235637D02*
X0214900Y0231033D01*
X0213163Y0210749D02*
X0216233Y0207679D01*
X0217000Y0207679D01*
X0217000Y0205377D02*
X0212396Y0205377D01*
X0214698Y0203075D01*
X0214698Y0206145D01*
X0212396Y0207679D02*
X0212396Y0210749D01*
X0213163Y0210749D01*
X0213163Y0201541D02*
X0214698Y0201541D01*
X0215465Y0200773D01*
X0215465Y0198472D01*
X0215465Y0200006D02*
X0217000Y0201541D01*
X0217000Y0198472D02*
X0212396Y0198472D01*
X0212396Y0200773D01*
X0213163Y0201541D01*
X0213163Y0190749D02*
X0213931Y0190749D01*
X0214698Y0189981D01*
X0214698Y0188447D01*
X0213931Y0187679D01*
X0213163Y0187679D01*
X0212396Y0188447D01*
X0212396Y0189981D01*
X0213163Y0190749D01*
X0214698Y0189981D02*
X0215465Y0190749D01*
X0216233Y0190749D01*
X0217000Y0189981D01*
X0217000Y0188447D01*
X0216233Y0187679D01*
X0215465Y0187679D01*
X0214698Y0188447D01*
X0214698Y0186145D02*
X0215465Y0185377D01*
X0215465Y0183075D01*
X0217000Y0183075D02*
X0212396Y0183075D01*
X0212396Y0185377D01*
X0213163Y0186145D01*
X0214698Y0186145D01*
X0215465Y0184610D02*
X0217000Y0186145D01*
X0227396Y0185377D02*
X0227396Y0183843D01*
X0228163Y0183075D01*
X0228163Y0181541D02*
X0229698Y0181541D01*
X0230465Y0180773D01*
X0230465Y0178472D01*
X0230465Y0180006D02*
X0232000Y0181541D01*
X0232000Y0183075D02*
X0228931Y0186145D01*
X0228163Y0186145D01*
X0227396Y0185377D01*
X0229698Y0187679D02*
X0229698Y0190749D01*
X0227396Y0189981D02*
X0229698Y0187679D01*
X0232000Y0186145D02*
X0232000Y0183075D01*
X0228163Y0181541D02*
X0227396Y0180773D01*
X0227396Y0178472D01*
X0232000Y0178472D01*
X0242396Y0178472D02*
X0242396Y0180773D01*
X0243163Y0181541D01*
X0244698Y0181541D01*
X0245465Y0180773D01*
X0245465Y0178472D01*
X0245465Y0180006D02*
X0247000Y0181541D01*
X0244698Y0183075D02*
X0244698Y0186145D01*
X0244698Y0187679D02*
X0244698Y0190749D01*
X0242396Y0189981D02*
X0244698Y0187679D01*
X0242396Y0185377D02*
X0244698Y0183075D01*
X0247000Y0185377D02*
X0242396Y0185377D01*
X0242396Y0189981D02*
X0247000Y0189981D01*
X0247000Y0198472D02*
X0242396Y0198472D01*
X0242396Y0200773D01*
X0243163Y0201541D01*
X0244698Y0201541D01*
X0245465Y0200773D01*
X0245465Y0198472D01*
X0245465Y0200006D02*
X0247000Y0201541D01*
X0244698Y0203075D02*
X0244698Y0206145D01*
X0243931Y0207679D02*
X0244698Y0208447D01*
X0244698Y0210749D01*
X0243163Y0210749D02*
X0242396Y0209981D01*
X0242396Y0208447D01*
X0243163Y0207679D01*
X0243931Y0207679D01*
X0246233Y0207679D02*
X0247000Y0208447D01*
X0247000Y0209981D01*
X0246233Y0210749D01*
X0243163Y0210749D01*
X0242396Y0205377D02*
X0244698Y0203075D01*
X0247000Y0205377D02*
X0242396Y0205377D01*
X0232000Y0205377D02*
X0227396Y0205377D01*
X0229698Y0203075D01*
X0229698Y0206145D01*
X0228931Y0207679D02*
X0228163Y0207679D01*
X0227396Y0208447D01*
X0227396Y0209981D01*
X0228163Y0210749D01*
X0228931Y0210749D01*
X0229698Y0209981D01*
X0229698Y0208447D01*
X0228931Y0207679D01*
X0229698Y0208447D02*
X0230465Y0207679D01*
X0231233Y0207679D01*
X0232000Y0208447D01*
X0232000Y0209981D01*
X0231233Y0210749D01*
X0230465Y0210749D01*
X0229698Y0209981D01*
X0229698Y0201541D02*
X0230465Y0200773D01*
X0230465Y0198472D01*
X0230465Y0200006D02*
X0232000Y0201541D01*
X0229698Y0201541D02*
X0228163Y0201541D01*
X0227396Y0200773D01*
X0227396Y0198472D01*
X0232000Y0198472D01*
X0232000Y0189981D02*
X0227396Y0189981D01*
X0242396Y0178472D02*
X0247000Y0178472D01*
X0257396Y0178472D02*
X0257396Y0180773D01*
X0258163Y0181541D01*
X0259698Y0181541D01*
X0260465Y0180773D01*
X0260465Y0178472D01*
X0260465Y0180006D02*
X0262000Y0181541D01*
X0259698Y0183075D02*
X0259698Y0186145D01*
X0259698Y0187679D02*
X0258931Y0189214D01*
X0258931Y0189981D01*
X0259698Y0190749D01*
X0261233Y0190749D01*
X0262000Y0189981D01*
X0262000Y0188447D01*
X0261233Y0187679D01*
X0259698Y0187679D02*
X0257396Y0187679D01*
X0257396Y0190749D01*
X0257396Y0185377D02*
X0259698Y0183075D01*
X0262000Y0185377D02*
X0257396Y0185377D01*
X0257396Y0178472D02*
X0262000Y0178472D01*
X0267338Y0178137D02*
X0267338Y0173533D01*
X0267338Y0175068D02*
X0269640Y0175068D01*
X0270407Y0175835D01*
X0270407Y0177370D01*
X0269640Y0178137D01*
X0267338Y0178137D01*
X0268873Y0175068D02*
X0270407Y0173533D01*
X0271942Y0174301D02*
X0272709Y0173533D01*
X0274244Y0173533D01*
X0275011Y0174301D01*
X0275011Y0175068D01*
X0274244Y0175835D01*
X0273477Y0175835D01*
X0274244Y0175835D02*
X0275011Y0176603D01*
X0275011Y0177370D01*
X0274244Y0178137D01*
X0272709Y0178137D01*
X0271942Y0177370D01*
X0276546Y0177370D02*
X0276546Y0176603D01*
X0277313Y0175835D01*
X0279615Y0175835D01*
X0279615Y0174301D02*
X0279615Y0177370D01*
X0278848Y0178137D01*
X0277313Y0178137D01*
X0276546Y0177370D01*
X0276546Y0174301D02*
X0277313Y0173533D01*
X0278848Y0173533D01*
X0279615Y0174301D01*
X0287338Y0175068D02*
X0289640Y0175068D01*
X0290407Y0175835D01*
X0290407Y0177370D01*
X0289640Y0178137D01*
X0287338Y0178137D01*
X0287338Y0173533D01*
X0288873Y0175068D02*
X0290407Y0173533D01*
X0291942Y0173533D02*
X0295011Y0173533D01*
X0293477Y0173533D02*
X0293477Y0178137D01*
X0291942Y0176603D01*
X0296546Y0176603D02*
X0296546Y0177370D01*
X0297313Y0178137D01*
X0298848Y0178137D01*
X0299615Y0177370D01*
X0299615Y0174301D01*
X0298848Y0173533D01*
X0297313Y0173533D01*
X0296546Y0174301D01*
X0297313Y0175835D02*
X0299615Y0175835D01*
X0297313Y0175835D02*
X0296546Y0176603D01*
X0297313Y0188533D02*
X0296546Y0189301D01*
X0299615Y0192370D01*
X0299615Y0189301D01*
X0298848Y0188533D01*
X0297313Y0188533D01*
X0296546Y0189301D02*
X0296546Y0192370D01*
X0297313Y0193137D01*
X0298848Y0193137D01*
X0299615Y0192370D01*
X0295011Y0192370D02*
X0294244Y0193137D01*
X0292709Y0193137D01*
X0291942Y0192370D01*
X0290407Y0192370D02*
X0289640Y0193137D01*
X0287338Y0193137D01*
X0287338Y0188533D01*
X0287338Y0190068D02*
X0289640Y0190068D01*
X0290407Y0190835D01*
X0290407Y0192370D01*
X0288873Y0190068D02*
X0290407Y0188533D01*
X0291942Y0189301D02*
X0292709Y0188533D01*
X0294244Y0188533D01*
X0295011Y0189301D01*
X0295011Y0190068D01*
X0294244Y0190835D01*
X0293477Y0190835D01*
X0294244Y0190835D02*
X0295011Y0191603D01*
X0295011Y0192370D01*
X0295011Y0203533D02*
X0291942Y0203533D01*
X0295011Y0206603D01*
X0295011Y0207370D01*
X0294244Y0208137D01*
X0292709Y0208137D01*
X0291942Y0207370D01*
X0290407Y0207370D02*
X0290407Y0205835D01*
X0289640Y0205068D01*
X0287338Y0205068D01*
X0287338Y0203533D02*
X0287338Y0208137D01*
X0289640Y0208137D01*
X0290407Y0207370D01*
X0288873Y0205068D02*
X0290407Y0203533D01*
X0296546Y0204301D02*
X0297313Y0203533D01*
X0298848Y0203533D01*
X0299615Y0204301D01*
X0299615Y0207370D01*
X0298848Y0208137D01*
X0297313Y0208137D01*
X0296546Y0207370D01*
X0296546Y0206603D01*
X0297313Y0205835D01*
X0299615Y0205835D01*
X0299615Y0218533D02*
X0296546Y0218533D01*
X0299615Y0221603D01*
X0299615Y0222370D01*
X0298848Y0223137D01*
X0297313Y0223137D01*
X0296546Y0222370D01*
X0295011Y0222370D02*
X0295011Y0221603D01*
X0294244Y0220835D01*
X0295011Y0220068D01*
X0295011Y0219301D01*
X0294244Y0218533D01*
X0292709Y0218533D01*
X0291942Y0219301D01*
X0290407Y0218533D02*
X0288873Y0220068D01*
X0289640Y0220068D02*
X0287338Y0220068D01*
X0287338Y0218533D02*
X0287338Y0223137D01*
X0289640Y0223137D01*
X0290407Y0222370D01*
X0290407Y0220835D01*
X0289640Y0220068D01*
X0291942Y0222370D02*
X0292709Y0223137D01*
X0294244Y0223137D01*
X0295011Y0222370D01*
X0294244Y0220835D02*
X0293477Y0220835D01*
X0294244Y0233533D02*
X0292709Y0233533D01*
X0291942Y0234301D01*
X0290407Y0233533D02*
X0288873Y0235068D01*
X0289640Y0235068D02*
X0287338Y0235068D01*
X0287338Y0233533D02*
X0287338Y0238137D01*
X0289640Y0238137D01*
X0290407Y0237370D01*
X0290407Y0235835D01*
X0289640Y0235068D01*
X0291942Y0237370D02*
X0292709Y0238137D01*
X0294244Y0238137D01*
X0295011Y0237370D01*
X0295011Y0236603D01*
X0294244Y0235835D01*
X0295011Y0235068D01*
X0295011Y0234301D01*
X0294244Y0233533D01*
X0296546Y0233533D02*
X0299615Y0233533D01*
X0298081Y0233533D02*
X0298081Y0238137D01*
X0296546Y0236603D01*
X0294244Y0235835D02*
X0293477Y0235835D01*
X0279615Y0234301D02*
X0278848Y0233533D01*
X0277313Y0233533D01*
X0276546Y0234301D01*
X0279615Y0237370D01*
X0279615Y0234301D01*
X0279615Y0237370D02*
X0278848Y0238137D01*
X0277313Y0238137D01*
X0276546Y0237370D01*
X0276546Y0234301D01*
X0275011Y0235835D02*
X0271942Y0235835D01*
X0274244Y0238137D01*
X0274244Y0233533D01*
X0270407Y0233533D02*
X0268873Y0235068D01*
X0269640Y0235068D02*
X0267338Y0235068D01*
X0267338Y0233533D02*
X0267338Y0238137D01*
X0269640Y0238137D01*
X0270407Y0237370D01*
X0270407Y0235835D01*
X0269640Y0235068D01*
X0269640Y0223137D02*
X0270407Y0222370D01*
X0270407Y0220835D01*
X0269640Y0220068D01*
X0267338Y0220068D01*
X0267338Y0218533D02*
X0267338Y0223137D01*
X0269640Y0223137D01*
X0268873Y0220068D02*
X0270407Y0218533D01*
X0271942Y0220835D02*
X0275011Y0220835D01*
X0276546Y0221603D02*
X0278081Y0223137D01*
X0278081Y0218533D01*
X0279615Y0218533D02*
X0276546Y0218533D01*
X0274244Y0218533D02*
X0274244Y0223137D01*
X0271942Y0220835D01*
X0261233Y0210749D02*
X0262000Y0209981D01*
X0262000Y0208447D01*
X0261233Y0207679D01*
X0258163Y0210749D01*
X0261233Y0210749D01*
X0258163Y0210749D02*
X0257396Y0209981D01*
X0257396Y0208447D01*
X0258163Y0207679D01*
X0261233Y0207679D01*
X0261233Y0206145D02*
X0262000Y0205377D01*
X0262000Y0203843D01*
X0261233Y0203075D01*
X0259698Y0203075D02*
X0258931Y0204610D01*
X0258931Y0205377D01*
X0259698Y0206145D01*
X0261233Y0206145D01*
X0259698Y0203075D02*
X0257396Y0203075D01*
X0257396Y0206145D01*
X0258163Y0201541D02*
X0259698Y0201541D01*
X0260465Y0200773D01*
X0260465Y0198472D01*
X0260465Y0200006D02*
X0262000Y0201541D01*
X0262000Y0198472D02*
X0257396Y0198472D01*
X0257396Y0200773D01*
X0258163Y0201541D01*
X0267338Y0203533D02*
X0267338Y0208137D01*
X0269640Y0208137D01*
X0270407Y0207370D01*
X0270407Y0205835D01*
X0269640Y0205068D01*
X0267338Y0205068D01*
X0268873Y0205068D02*
X0270407Y0203533D01*
X0271942Y0205835D02*
X0275011Y0205835D01*
X0276546Y0207370D02*
X0277313Y0208137D01*
X0278848Y0208137D01*
X0279615Y0207370D01*
X0279615Y0206603D01*
X0276546Y0203533D01*
X0279615Y0203533D01*
X0274244Y0203533D02*
X0274244Y0208137D01*
X0271942Y0205835D01*
X0272709Y0193137D02*
X0274244Y0193137D01*
X0275011Y0192370D01*
X0275011Y0191603D01*
X0274244Y0190835D01*
X0275011Y0190068D01*
X0275011Y0189301D01*
X0274244Y0188533D01*
X0272709Y0188533D01*
X0271942Y0189301D01*
X0270407Y0188533D02*
X0268873Y0190068D01*
X0269640Y0190068D02*
X0267338Y0190068D01*
X0267338Y0188533D02*
X0267338Y0193137D01*
X0269640Y0193137D01*
X0270407Y0192370D01*
X0270407Y0190835D01*
X0269640Y0190068D01*
X0271942Y0192370D02*
X0272709Y0193137D01*
X0273477Y0190835D02*
X0274244Y0190835D01*
X0276546Y0190068D02*
X0277313Y0190835D01*
X0278848Y0190835D01*
X0279615Y0190068D01*
X0279615Y0189301D01*
X0278848Y0188533D01*
X0277313Y0188533D01*
X0276546Y0189301D01*
X0276546Y0190068D01*
X0277313Y0190835D02*
X0276546Y0191603D01*
X0276546Y0192370D01*
X0277313Y0193137D01*
X0278848Y0193137D01*
X0279615Y0192370D01*
X0279615Y0191603D01*
X0278848Y0190835D01*
X0279615Y0163137D02*
X0276546Y0163137D01*
X0275011Y0162370D02*
X0275011Y0161603D01*
X0274244Y0160835D01*
X0275011Y0160068D01*
X0275011Y0159301D01*
X0274244Y0158533D01*
X0272709Y0158533D01*
X0271942Y0159301D01*
X0270407Y0158533D02*
X0268873Y0160068D01*
X0269640Y0160068D02*
X0267338Y0160068D01*
X0267338Y0158533D02*
X0267338Y0163137D01*
X0269640Y0163137D01*
X0270407Y0162370D01*
X0270407Y0160835D01*
X0269640Y0160068D01*
X0271942Y0162370D02*
X0272709Y0163137D01*
X0274244Y0163137D01*
X0275011Y0162370D01*
X0274244Y0160835D02*
X0273477Y0160835D01*
X0276546Y0159301D02*
X0276546Y0158533D01*
X0276546Y0159301D02*
X0279615Y0162370D01*
X0279615Y0163137D01*
X0287338Y0163137D02*
X0287338Y0158533D01*
X0287338Y0160068D02*
X0289640Y0160068D01*
X0290407Y0160835D01*
X0290407Y0162370D01*
X0289640Y0163137D01*
X0287338Y0163137D01*
X0288873Y0160068D02*
X0290407Y0158533D01*
X0291942Y0158533D02*
X0295011Y0158533D01*
X0293477Y0158533D02*
X0293477Y0163137D01*
X0291942Y0161603D01*
X0296546Y0161603D02*
X0297313Y0160835D01*
X0298848Y0160835D01*
X0299615Y0160068D01*
X0299615Y0159301D01*
X0298848Y0158533D01*
X0297313Y0158533D01*
X0296546Y0159301D01*
X0296546Y0160068D01*
X0297313Y0160835D01*
X0296546Y0161603D02*
X0296546Y0162370D01*
X0297313Y0163137D01*
X0298848Y0163137D01*
X0299615Y0162370D01*
X0299615Y0161603D01*
X0298848Y0160835D01*
X0299615Y0148137D02*
X0299615Y0147370D01*
X0296546Y0144301D01*
X0296546Y0143533D01*
X0295011Y0143533D02*
X0291942Y0143533D01*
X0290407Y0143533D02*
X0288873Y0145068D01*
X0289640Y0145068D02*
X0287338Y0145068D01*
X0287338Y0143533D02*
X0287338Y0148137D01*
X0289640Y0148137D01*
X0290407Y0147370D01*
X0290407Y0145835D01*
X0289640Y0145068D01*
X0291942Y0146603D02*
X0293477Y0148137D01*
X0293477Y0143533D01*
X0296546Y0148137D02*
X0299615Y0148137D01*
X0299615Y0133137D02*
X0298081Y0132370D01*
X0296546Y0130835D01*
X0298848Y0130835D01*
X0299615Y0130068D01*
X0299615Y0129301D01*
X0298848Y0128533D01*
X0297313Y0128533D01*
X0296546Y0129301D01*
X0296546Y0130835D01*
X0295011Y0128533D02*
X0291942Y0128533D01*
X0290407Y0128533D02*
X0288873Y0130068D01*
X0289640Y0130068D02*
X0287338Y0130068D01*
X0287338Y0128533D02*
X0287338Y0133137D01*
X0289640Y0133137D01*
X0290407Y0132370D01*
X0290407Y0130835D01*
X0289640Y0130068D01*
X0291942Y0131603D02*
X0293477Y0133137D01*
X0293477Y0128533D01*
X0294244Y0118137D02*
X0295011Y0117370D01*
X0295011Y0115835D01*
X0294244Y0115068D01*
X0291942Y0115068D01*
X0291942Y0113533D02*
X0291942Y0118137D01*
X0294244Y0118137D01*
X0296546Y0118137D02*
X0299615Y0118137D01*
X0299615Y0117370D01*
X0296546Y0114301D01*
X0296546Y0113533D01*
X0295011Y0113533D02*
X0293477Y0115068D01*
X0298984Y0110637D02*
X0298984Y0106801D01*
X0299752Y0106033D01*
X0301286Y0106033D01*
X0302054Y0106801D01*
X0302054Y0110637D01*
X0303588Y0109870D02*
X0303588Y0106801D01*
X0304355Y0106033D01*
X0305890Y0106033D01*
X0306657Y0106801D01*
X0308192Y0106033D02*
X0311261Y0106033D01*
X0312796Y0106033D02*
X0315865Y0106033D01*
X0314331Y0106033D02*
X0314331Y0110637D01*
X0312796Y0109103D01*
X0311261Y0110637D02*
X0308192Y0110637D01*
X0308192Y0106033D01*
X0308192Y0108335D02*
X0309727Y0108335D01*
X0306657Y0109870D02*
X0305890Y0110637D01*
X0304355Y0110637D01*
X0303588Y0109870D01*
X0279615Y0114301D02*
X0279615Y0115068D01*
X0278848Y0115835D01*
X0276546Y0115835D01*
X0276546Y0114301D01*
X0277313Y0113533D01*
X0278848Y0113533D01*
X0279615Y0114301D01*
X0278081Y0117370D02*
X0279615Y0118137D01*
X0278081Y0117370D02*
X0276546Y0115835D01*
X0275011Y0115068D02*
X0275011Y0114301D01*
X0274244Y0113533D01*
X0272709Y0113533D01*
X0271942Y0114301D01*
X0270407Y0113533D02*
X0268873Y0115068D01*
X0269640Y0115068D02*
X0267338Y0115068D01*
X0267338Y0113533D02*
X0267338Y0118137D01*
X0269640Y0118137D01*
X0270407Y0117370D01*
X0270407Y0115835D01*
X0269640Y0115068D01*
X0271942Y0117370D02*
X0272709Y0118137D01*
X0274244Y0118137D01*
X0275011Y0117370D01*
X0275011Y0116603D01*
X0274244Y0115835D01*
X0275011Y0115068D01*
X0274244Y0115835D02*
X0273477Y0115835D01*
X0272796Y0110637D02*
X0275865Y0110637D01*
X0274331Y0110637D02*
X0274331Y0106033D01*
X0271261Y0106801D02*
X0271261Y0109870D01*
X0270494Y0110637D01*
X0268959Y0110637D01*
X0268192Y0109870D01*
X0268192Y0106801D01*
X0268959Y0106033D01*
X0270494Y0106033D01*
X0271261Y0106801D01*
X0266657Y0108335D02*
X0265890Y0107568D01*
X0263588Y0107568D01*
X0263588Y0106033D02*
X0263588Y0110637D01*
X0265890Y0110637D01*
X0266657Y0109870D01*
X0266657Y0108335D01*
X0267338Y0128533D02*
X0267338Y0133137D01*
X0269640Y0133137D01*
X0270407Y0132370D01*
X0270407Y0130835D01*
X0269640Y0130068D01*
X0267338Y0130068D01*
X0268873Y0130068D02*
X0270407Y0128533D01*
X0271942Y0129301D02*
X0272709Y0128533D01*
X0274244Y0128533D01*
X0275011Y0129301D01*
X0275011Y0130068D01*
X0274244Y0130835D01*
X0273477Y0130835D01*
X0274244Y0130835D02*
X0275011Y0131603D01*
X0275011Y0132370D01*
X0274244Y0133137D01*
X0272709Y0133137D01*
X0271942Y0132370D01*
X0276546Y0133137D02*
X0276546Y0130835D01*
X0278081Y0131603D01*
X0278848Y0131603D01*
X0279615Y0130835D01*
X0279615Y0129301D01*
X0278848Y0128533D01*
X0277313Y0128533D01*
X0276546Y0129301D01*
X0276546Y0133137D02*
X0279615Y0133137D01*
X0278848Y0143533D02*
X0278848Y0148137D01*
X0276546Y0145835D01*
X0279615Y0145835D01*
X0275011Y0145068D02*
X0275011Y0144301D01*
X0274244Y0143533D01*
X0272709Y0143533D01*
X0271942Y0144301D01*
X0270407Y0143533D02*
X0268873Y0145068D01*
X0269640Y0145068D02*
X0267338Y0145068D01*
X0267338Y0143533D02*
X0267338Y0148137D01*
X0269640Y0148137D01*
X0270407Y0147370D01*
X0270407Y0145835D01*
X0269640Y0145068D01*
X0271942Y0147370D02*
X0272709Y0148137D01*
X0274244Y0148137D01*
X0275011Y0147370D01*
X0275011Y0146603D01*
X0274244Y0145835D01*
X0275011Y0145068D01*
X0274244Y0145835D02*
X0273477Y0145835D01*
X0261323Y0143137D02*
X0258254Y0143137D01*
X0258254Y0140835D01*
X0259789Y0141603D01*
X0260556Y0141603D01*
X0261323Y0140835D01*
X0261323Y0139301D01*
X0260556Y0138533D01*
X0259021Y0138533D01*
X0258254Y0139301D01*
X0256719Y0139301D02*
X0256719Y0142370D01*
X0255952Y0143137D01*
X0253650Y0143137D01*
X0253650Y0138533D01*
X0255952Y0138533D01*
X0256719Y0139301D01*
X0230098Y0110637D02*
X0230865Y0109870D01*
X0230865Y0109103D01*
X0230098Y0108335D01*
X0227796Y0108335D01*
X0227796Y0106033D02*
X0230098Y0106033D01*
X0230865Y0106801D01*
X0230865Y0107568D01*
X0230098Y0108335D01*
X0230098Y0110637D02*
X0227796Y0110637D01*
X0227796Y0106033D01*
X0226261Y0106033D02*
X0224727Y0106033D01*
X0225494Y0106033D02*
X0225494Y0110637D01*
X0224727Y0110637D02*
X0226261Y0110637D01*
X0222598Y0113533D02*
X0223365Y0114301D01*
X0223365Y0115068D01*
X0222598Y0115835D01*
X0220296Y0115835D01*
X0220296Y0114301D01*
X0221063Y0113533D01*
X0222598Y0113533D01*
X0220296Y0115835D02*
X0221831Y0117370D01*
X0223365Y0118137D01*
X0218761Y0115835D02*
X0215692Y0115835D01*
X0217994Y0118137D01*
X0217994Y0113533D01*
X0214157Y0113533D02*
X0212623Y0115068D01*
X0213390Y0115068D02*
X0211088Y0115068D01*
X0211088Y0113533D02*
X0211088Y0118137D01*
X0213390Y0118137D01*
X0214157Y0117370D01*
X0214157Y0115835D01*
X0213390Y0115068D01*
X0211806Y0133533D02*
X0212573Y0134301D01*
X0212573Y0137370D01*
X0211806Y0138137D01*
X0210271Y0138137D01*
X0209504Y0137370D01*
X0209504Y0136603D01*
X0210271Y0135835D01*
X0212573Y0135835D01*
X0211806Y0133533D02*
X0210271Y0133533D01*
X0209504Y0134301D01*
X0207969Y0133533D02*
X0206435Y0135068D01*
X0207202Y0135068D02*
X0204900Y0135068D01*
X0204900Y0133533D02*
X0204900Y0138137D01*
X0207202Y0138137D01*
X0207969Y0137370D01*
X0207969Y0135835D01*
X0207202Y0135068D01*
X0190098Y0110637D02*
X0188563Y0110637D01*
X0187796Y0109870D01*
X0187796Y0106801D01*
X0188563Y0106033D01*
X0190098Y0106033D01*
X0190865Y0106801D01*
X0190865Y0109870D02*
X0190098Y0110637D01*
X0186261Y0110637D02*
X0184727Y0110637D01*
X0185494Y0110637D02*
X0185494Y0106033D01*
X0184727Y0106033D02*
X0186261Y0106033D01*
X0162000Y0118533D02*
X0162000Y0120835D01*
X0161233Y0121603D01*
X0158163Y0121603D01*
X0157396Y0120835D01*
X0157396Y0118533D01*
X0162000Y0118533D01*
X0162000Y0123137D02*
X0161233Y0123137D01*
X0158163Y0126207D01*
X0157396Y0126207D01*
X0157396Y0123137D01*
X0147000Y0123905D02*
X0147000Y0125439D01*
X0146233Y0126207D01*
X0145465Y0126207D01*
X0144698Y0125439D01*
X0144698Y0123137D01*
X0146233Y0123137D01*
X0147000Y0123905D01*
X0144698Y0123137D02*
X0143163Y0124672D01*
X0142396Y0126207D01*
X0143163Y0121603D02*
X0142396Y0120835D01*
X0142396Y0118533D01*
X0147000Y0118533D01*
X0147000Y0120835D01*
X0146233Y0121603D01*
X0143163Y0121603D01*
X0143588Y0110637D02*
X0143588Y0106801D01*
X0144356Y0106033D01*
X0145890Y0106033D01*
X0146657Y0106801D01*
X0146657Y0110637D01*
X0148192Y0110637D02*
X0150494Y0110637D01*
X0151261Y0109870D01*
X0151261Y0109103D01*
X0150494Y0108335D01*
X0148192Y0108335D01*
X0148192Y0106033D02*
X0150494Y0106033D01*
X0151261Y0106801D01*
X0151261Y0107568D01*
X0150494Y0108335D01*
X0152796Y0108335D02*
X0154331Y0108335D01*
X0152796Y0106033D02*
X0155865Y0106033D01*
X0152796Y0106033D02*
X0152796Y0110637D01*
X0155865Y0110637D01*
X0148192Y0110637D02*
X0148192Y0106033D01*
X0133365Y0143033D02*
X0130296Y0143033D01*
X0133365Y0146103D01*
X0133365Y0146870D01*
X0132598Y0147637D01*
X0131063Y0147637D01*
X0130296Y0146870D01*
X0128761Y0146870D02*
X0127994Y0147637D01*
X0126459Y0147637D01*
X0125692Y0146870D01*
X0125692Y0143801D01*
X0126459Y0143033D01*
X0127994Y0143033D01*
X0128761Y0143801D01*
X0124157Y0143033D02*
X0122623Y0143033D01*
X0123390Y0143033D02*
X0123390Y0147637D01*
X0122623Y0147637D02*
X0124157Y0147637D01*
X0022000Y0193075D02*
X0017396Y0193075D01*
X0017396Y0195377D01*
X0018163Y0196145D01*
X0019698Y0196145D01*
X0020465Y0195377D01*
X0020465Y0193075D01*
X0020465Y0194610D02*
X0022000Y0196145D01*
X0022000Y0197679D02*
X0022000Y0200749D01*
X0022000Y0199214D02*
X0017396Y0199214D01*
X0018931Y0197679D01*
X0047980Y0274478D02*
X0049515Y0274478D01*
X0050282Y0275246D01*
X0051817Y0274478D02*
X0054886Y0274478D01*
X0053352Y0274478D02*
X0053352Y0279082D01*
X0051817Y0277547D01*
X0050282Y0278315D02*
X0049515Y0279082D01*
X0047980Y0279082D01*
X0047213Y0278315D01*
X0047213Y0275246D01*
X0047980Y0274478D01*
X0056421Y0274478D02*
X0059490Y0277547D01*
X0059490Y0278315D01*
X0058723Y0279082D01*
X0057188Y0279082D01*
X0056421Y0278315D01*
X0056421Y0274478D02*
X0059490Y0274478D01*
X0059000Y0286033D02*
X0059000Y0287568D01*
X0059000Y0286801D02*
X0054396Y0286801D01*
X0054396Y0287568D02*
X0054396Y0286033D01*
X0055163Y0289103D02*
X0058233Y0289103D01*
X0059000Y0289870D01*
X0059000Y0291405D01*
X0058233Y0292172D01*
X0058233Y0293707D02*
X0059000Y0294474D01*
X0059000Y0296008D01*
X0058233Y0296776D01*
X0057465Y0296776D01*
X0056698Y0296008D01*
X0056698Y0295241D01*
X0056698Y0296008D02*
X0055931Y0296776D01*
X0055163Y0296776D01*
X0054396Y0296008D01*
X0054396Y0294474D01*
X0055163Y0293707D01*
X0055163Y0292172D02*
X0054396Y0291405D01*
X0054396Y0289870D01*
X0055163Y0289103D01*
X0030750Y0286231D02*
X0030750Y0284697D01*
X0029983Y0283929D01*
X0029983Y0282395D02*
X0026913Y0282395D01*
X0026146Y0281627D01*
X0026146Y0279325D01*
X0030750Y0279325D01*
X0030750Y0281627D01*
X0029983Y0282395D01*
X0028448Y0285464D02*
X0028448Y0286231D01*
X0029215Y0286999D01*
X0029983Y0286999D01*
X0030750Y0286231D01*
X0028448Y0286231D02*
X0027681Y0286999D01*
X0026913Y0286999D01*
X0026146Y0286231D01*
X0026146Y0284697D01*
X0026913Y0283929D01*
X0017000Y0293472D02*
X0012396Y0293472D01*
X0012396Y0295773D01*
X0013163Y0296541D01*
X0014698Y0296541D01*
X0015465Y0295773D01*
X0015465Y0293472D01*
X0015465Y0295006D02*
X0017000Y0296541D01*
X0017000Y0298075D02*
X0017000Y0301145D01*
X0017000Y0299610D02*
X0012396Y0299610D01*
X0013931Y0298075D01*
X0013163Y0302679D02*
X0012396Y0303447D01*
X0012396Y0304981D01*
X0013163Y0305749D01*
X0016233Y0302679D01*
X0017000Y0303447D01*
X0017000Y0304981D01*
X0016233Y0305749D01*
X0013163Y0305749D01*
X0013163Y0302679D02*
X0016233Y0302679D01*
X0041150Y0319783D02*
X0041150Y0324387D01*
X0043452Y0324387D01*
X0044219Y0323620D01*
X0044219Y0322085D01*
X0043452Y0321318D01*
X0041150Y0321318D01*
X0042685Y0321318D02*
X0044219Y0319783D01*
X0045754Y0319783D02*
X0048823Y0319783D01*
X0047289Y0319783D02*
X0047289Y0324387D01*
X0045754Y0322853D01*
X0050358Y0323620D02*
X0051125Y0324387D01*
X0052660Y0324387D01*
X0053427Y0323620D01*
X0053427Y0322853D01*
X0050358Y0319783D01*
X0053427Y0319783D01*
X0057701Y0320364D02*
X0058469Y0319596D01*
X0061538Y0319596D01*
X0062305Y0320364D01*
X0062305Y0321898D01*
X0061538Y0322666D01*
X0060003Y0324200D02*
X0060003Y0327270D01*
X0057701Y0326502D02*
X0060003Y0324200D01*
X0058469Y0322666D02*
X0057701Y0321898D01*
X0057701Y0320364D01*
X0057701Y0326502D02*
X0062305Y0326502D01*
X0061619Y0336978D02*
X0060084Y0336978D01*
X0059317Y0337746D01*
X0057782Y0337746D02*
X0057015Y0336978D01*
X0055480Y0336978D01*
X0054713Y0337746D01*
X0054713Y0340815D01*
X0055480Y0341582D01*
X0057015Y0341582D01*
X0057782Y0340815D01*
X0059317Y0340815D02*
X0060084Y0341582D01*
X0061619Y0341582D01*
X0062386Y0340815D01*
X0062386Y0340047D01*
X0061619Y0339280D01*
X0062386Y0338513D01*
X0062386Y0337746D01*
X0061619Y0336978D01*
X0061619Y0339280D02*
X0060852Y0339280D01*
X0059504Y0363533D02*
X0062573Y0366603D01*
X0062573Y0367370D01*
X0061806Y0368137D01*
X0060271Y0368137D01*
X0059504Y0367370D01*
X0057969Y0367370D02*
X0057969Y0365835D01*
X0057202Y0365068D01*
X0054900Y0365068D01*
X0056435Y0365068D02*
X0057969Y0363533D01*
X0059504Y0363533D02*
X0062573Y0363533D01*
X0064108Y0364301D02*
X0064875Y0363533D01*
X0066410Y0363533D01*
X0067177Y0364301D01*
X0067177Y0365835D01*
X0066410Y0366603D01*
X0065642Y0366603D01*
X0064108Y0365835D01*
X0064108Y0368137D01*
X0067177Y0368137D01*
X0057969Y0367370D02*
X0057202Y0368137D01*
X0054900Y0368137D01*
X0054900Y0363533D01*
X0102400Y0325637D02*
X0105469Y0325637D01*
X0103935Y0325637D02*
X0103935Y0321033D01*
X0107004Y0321033D02*
X0107004Y0325637D01*
X0107004Y0321033D02*
X0110073Y0321033D01*
X0087305Y0315252D02*
X0087305Y0313718D01*
X0086538Y0312950D01*
X0085003Y0312950D01*
X0085003Y0315252D01*
X0085770Y0316020D01*
X0086538Y0316020D01*
X0087305Y0315252D01*
X0085003Y0312950D02*
X0083469Y0314485D01*
X0082701Y0316020D01*
X0083469Y0311416D02*
X0082701Y0310648D01*
X0082701Y0309114D01*
X0083469Y0308346D01*
X0086538Y0308346D01*
X0087305Y0309114D01*
X0087305Y0310648D01*
X0086538Y0311416D01*
X0094896Y0288249D02*
X0095663Y0288249D01*
X0098733Y0285179D01*
X0099500Y0285179D01*
X0099500Y0283645D02*
X0099500Y0280575D01*
X0096431Y0283645D01*
X0095663Y0283645D01*
X0094896Y0282877D01*
X0094896Y0281343D01*
X0095663Y0280575D01*
X0095663Y0279041D02*
X0097198Y0279041D01*
X0097965Y0278273D01*
X0097965Y0275972D01*
X0097965Y0277506D02*
X0099500Y0279041D01*
X0099500Y0275972D02*
X0094896Y0275972D01*
X0094896Y0278273D01*
X0095663Y0279041D01*
X0094896Y0285179D02*
X0094896Y0288249D01*
X0109896Y0287481D02*
X0112198Y0285179D01*
X0112198Y0288249D01*
X0114500Y0287481D02*
X0109896Y0287481D01*
X0114500Y0283645D02*
X0114500Y0280575D01*
X0114500Y0279041D02*
X0112965Y0277506D01*
X0112965Y0278273D02*
X0112965Y0275972D01*
X0114500Y0275972D02*
X0109896Y0275972D01*
X0109896Y0278273D01*
X0110663Y0279041D01*
X0112198Y0279041D01*
X0112965Y0278273D01*
X0111431Y0280575D02*
X0109896Y0282110D01*
X0114500Y0282110D01*
X0176150Y0363533D02*
X0176150Y0368137D01*
X0178452Y0368137D01*
X0179219Y0367370D01*
X0179219Y0365835D01*
X0178452Y0365068D01*
X0176150Y0365068D01*
X0177685Y0365068D02*
X0179219Y0363533D01*
X0180754Y0363533D02*
X0183823Y0366603D01*
X0183823Y0367370D01*
X0183056Y0368137D01*
X0181521Y0368137D01*
X0180754Y0367370D01*
X0180754Y0363533D02*
X0183823Y0363533D01*
X0185358Y0364301D02*
X0186125Y0363533D01*
X0187660Y0363533D01*
X0188427Y0364301D01*
X0188427Y0365068D01*
X0187660Y0365835D01*
X0185358Y0365835D01*
X0185358Y0364301D01*
X0185358Y0365835D02*
X0186892Y0367370D01*
X0188427Y0368137D01*
X0196150Y0368137D02*
X0196150Y0363533D01*
X0196150Y0365068D02*
X0198452Y0365068D01*
X0199219Y0365835D01*
X0199219Y0367370D01*
X0198452Y0368137D01*
X0196150Y0368137D01*
X0197685Y0365068D02*
X0199219Y0363533D01*
X0200754Y0363533D02*
X0203823Y0363533D01*
X0202289Y0363533D02*
X0202289Y0368137D01*
X0200754Y0366603D01*
X0205358Y0365835D02*
X0206892Y0366603D01*
X0207660Y0366603D01*
X0208427Y0365835D01*
X0208427Y0364301D01*
X0207660Y0363533D01*
X0206125Y0363533D01*
X0205358Y0364301D01*
X0205358Y0365835D02*
X0205358Y0368137D01*
X0208427Y0368137D01*
X0286942Y0353137D02*
X0286942Y0348533D01*
X0289244Y0348533D01*
X0290011Y0349301D01*
X0290011Y0352370D01*
X0289244Y0353137D01*
X0286942Y0353137D01*
X0291546Y0350835D02*
X0294615Y0350835D01*
X0293848Y0348533D02*
X0293848Y0353137D01*
X0291546Y0350835D01*
X0302338Y0363533D02*
X0302338Y0368137D01*
X0304640Y0368137D01*
X0305407Y0367370D01*
X0305407Y0365835D01*
X0304640Y0365068D01*
X0302338Y0365068D01*
X0303873Y0365068D02*
X0305407Y0363533D01*
X0306942Y0363533D02*
X0310011Y0363533D01*
X0308477Y0363533D02*
X0308477Y0368137D01*
X0306942Y0366603D01*
X0311546Y0366603D02*
X0313081Y0368137D01*
X0313081Y0363533D01*
X0314615Y0363533D02*
X0311546Y0363533D01*
X0298268Y0337192D02*
X0298268Y0332588D01*
X0299802Y0332588D02*
X0296733Y0332588D01*
X0295198Y0332588D02*
X0292129Y0332588D01*
X0293664Y0332588D02*
X0293664Y0337192D01*
X0292129Y0335658D01*
X0290594Y0336425D02*
X0289827Y0337192D01*
X0288293Y0337192D01*
X0287525Y0336425D01*
X0287525Y0333356D01*
X0288293Y0332588D01*
X0289827Y0332588D01*
X0290594Y0333356D01*
X0296733Y0335658D02*
X0298268Y0337192D01*
X0298167Y0326137D02*
X0298167Y0321533D01*
X0297400Y0321533D02*
X0298935Y0321533D01*
X0300469Y0322301D02*
X0300469Y0325370D01*
X0301237Y0326137D01*
X0302771Y0326137D01*
X0303539Y0325370D01*
X0305073Y0323835D02*
X0308142Y0323835D01*
X0307375Y0321533D02*
X0307375Y0326137D01*
X0305073Y0323835D01*
X0303539Y0322301D02*
X0302771Y0321533D01*
X0301237Y0321533D01*
X0300469Y0322301D01*
X0298935Y0326137D02*
X0297400Y0326137D01*
X0328646Y0327110D02*
X0333250Y0327110D01*
X0333250Y0325575D02*
X0333250Y0328645D01*
X0332483Y0330179D02*
X0333250Y0330947D01*
X0333250Y0332481D01*
X0332483Y0333249D01*
X0331715Y0333249D01*
X0330948Y0332481D01*
X0330948Y0331714D01*
X0330948Y0332481D02*
X0330181Y0333249D01*
X0329413Y0333249D01*
X0328646Y0332481D01*
X0328646Y0330947D01*
X0329413Y0330179D01*
X0328646Y0327110D02*
X0330181Y0325575D01*
X0330948Y0324041D02*
X0331715Y0323273D01*
X0331715Y0320972D01*
X0331715Y0322506D02*
X0333250Y0324041D01*
X0330948Y0324041D02*
X0329413Y0324041D01*
X0328646Y0323273D01*
X0328646Y0320972D01*
X0333250Y0320972D01*
X0337213Y0317065D02*
X0337213Y0313996D01*
X0337980Y0313228D01*
X0339515Y0313228D01*
X0340282Y0313996D01*
X0341817Y0313996D02*
X0342584Y0313228D01*
X0344119Y0313228D01*
X0344886Y0313996D01*
X0344886Y0315530D01*
X0344119Y0316297D01*
X0343352Y0316297D01*
X0341817Y0315530D01*
X0341817Y0317832D01*
X0344886Y0317832D01*
X0340282Y0317065D02*
X0339515Y0317832D01*
X0337980Y0317832D01*
X0337213Y0317065D01*
X0337980Y0307832D02*
X0337213Y0307065D01*
X0337213Y0303996D01*
X0337980Y0303228D01*
X0339515Y0303228D01*
X0340282Y0303996D01*
X0341817Y0303996D02*
X0344886Y0307065D01*
X0344886Y0307832D01*
X0341817Y0307832D01*
X0340282Y0307065D02*
X0339515Y0307832D01*
X0337980Y0307832D01*
X0341817Y0303996D02*
X0341817Y0303228D01*
X0298365Y0284870D02*
X0298365Y0284103D01*
X0297598Y0283335D01*
X0296063Y0283335D01*
X0295296Y0284103D01*
X0295296Y0284870D01*
X0296063Y0285637D01*
X0297598Y0285637D01*
X0298365Y0284870D01*
X0297598Y0283335D02*
X0298365Y0282568D01*
X0298365Y0281801D01*
X0297598Y0281033D01*
X0296063Y0281033D01*
X0295296Y0281801D01*
X0295296Y0282568D01*
X0296063Y0283335D01*
X0293761Y0284103D02*
X0293761Y0284870D01*
X0292994Y0285637D01*
X0291459Y0285637D01*
X0290692Y0284870D01*
X0289157Y0284870D02*
X0289157Y0283335D01*
X0288390Y0282568D01*
X0286088Y0282568D01*
X0286088Y0281033D02*
X0286088Y0285637D01*
X0288390Y0285637D01*
X0289157Y0284870D01*
X0287623Y0282568D02*
X0289157Y0281033D01*
X0290692Y0281033D02*
X0293761Y0284103D01*
X0293761Y0281033D02*
X0290692Y0281033D01*
X0289640Y0253137D02*
X0287338Y0253137D01*
X0287338Y0248533D01*
X0287338Y0250068D02*
X0289640Y0250068D01*
X0290407Y0250835D01*
X0290407Y0252370D01*
X0289640Y0253137D01*
X0291942Y0252370D02*
X0292709Y0253137D01*
X0294244Y0253137D01*
X0295011Y0252370D01*
X0295011Y0251603D01*
X0294244Y0250835D01*
X0295011Y0250068D01*
X0295011Y0249301D01*
X0294244Y0248533D01*
X0292709Y0248533D01*
X0291942Y0249301D01*
X0290407Y0248533D02*
X0288873Y0250068D01*
X0293477Y0250835D02*
X0294244Y0250835D01*
X0296546Y0249301D02*
X0297313Y0248533D01*
X0298848Y0248533D01*
X0299615Y0249301D01*
X0299615Y0250068D01*
X0298848Y0250835D01*
X0298081Y0250835D01*
X0298848Y0250835D02*
X0299615Y0251603D01*
X0299615Y0252370D01*
X0298848Y0253137D01*
X0297313Y0253137D01*
X0296546Y0252370D01*
X0279615Y0252370D02*
X0279615Y0251603D01*
X0278848Y0250835D01*
X0279615Y0250068D01*
X0279615Y0249301D01*
X0278848Y0248533D01*
X0277313Y0248533D01*
X0276546Y0249301D01*
X0275011Y0250835D02*
X0271942Y0250835D01*
X0274244Y0253137D01*
X0274244Y0248533D01*
X0270407Y0248533D02*
X0268873Y0250068D01*
X0269640Y0250068D02*
X0267338Y0250068D01*
X0267338Y0248533D02*
X0267338Y0253137D01*
X0269640Y0253137D01*
X0270407Y0252370D01*
X0270407Y0250835D01*
X0269640Y0250068D01*
X0276546Y0252370D02*
X0277313Y0253137D01*
X0278848Y0253137D01*
X0279615Y0252370D01*
X0278848Y0250835D02*
X0278081Y0250835D01*
X0338984Y0110637D02*
X0338984Y0106801D01*
X0339752Y0106033D01*
X0341286Y0106033D01*
X0342054Y0106801D01*
X0342054Y0110637D01*
X0343588Y0109870D02*
X0344355Y0110637D01*
X0345890Y0110637D01*
X0346657Y0109870D01*
X0348192Y0110637D02*
X0348192Y0106033D01*
X0351261Y0106033D01*
X0352796Y0106033D02*
X0355865Y0109103D01*
X0355865Y0109870D01*
X0355098Y0110637D01*
X0353563Y0110637D01*
X0352796Y0109870D01*
X0351261Y0110637D02*
X0348192Y0110637D01*
X0348192Y0108335D02*
X0349727Y0108335D01*
X0346657Y0106801D02*
X0345890Y0106033D01*
X0344355Y0106033D01*
X0343588Y0106801D01*
X0343588Y0109870D01*
X0352796Y0106033D02*
X0355865Y0106033D01*
D13*
X0109950Y0128333D03*
D14*
X0347200Y0131083D03*
D15*
X0324700Y0132033D02*
X0322200Y0132033D01*
X0319700Y0132033D01*
X0319700Y0134533D02*
X0322200Y0134533D01*
X0324700Y0134533D01*
D16*
X0051700Y0188333D03*
D17*
X0045450Y0188333D03*
X0068950Y0188333D03*
D18*
X0177200Y0313833D03*
D19*
X0177200Y0320083D03*
X0177200Y0296583D03*
D20*
X0149877Y0271995D02*
X0224090Y0271995D01*
X0224090Y0254672D01*
X0149877Y0254672D01*
X0149877Y0271995D01*
X0146200Y0288333D02*
X0146202Y0288396D01*
X0146208Y0288458D01*
X0146218Y0288520D01*
X0146231Y0288582D01*
X0146249Y0288642D01*
X0146270Y0288701D01*
X0146295Y0288759D01*
X0146324Y0288815D01*
X0146356Y0288869D01*
X0146391Y0288921D01*
X0146429Y0288970D01*
X0146471Y0289018D01*
X0146515Y0289062D01*
X0146563Y0289104D01*
X0146612Y0289142D01*
X0146664Y0289177D01*
X0146718Y0289209D01*
X0146774Y0289238D01*
X0146832Y0289263D01*
X0146891Y0289284D01*
X0146951Y0289302D01*
X0147013Y0289315D01*
X0147075Y0289325D01*
X0147137Y0289331D01*
X0147200Y0289333D01*
X0147263Y0289331D01*
X0147325Y0289325D01*
X0147387Y0289315D01*
X0147449Y0289302D01*
X0147509Y0289284D01*
X0147568Y0289263D01*
X0147626Y0289238D01*
X0147682Y0289209D01*
X0147736Y0289177D01*
X0147788Y0289142D01*
X0147837Y0289104D01*
X0147885Y0289062D01*
X0147929Y0289018D01*
X0147971Y0288970D01*
X0148009Y0288921D01*
X0148044Y0288869D01*
X0148076Y0288815D01*
X0148105Y0288759D01*
X0148130Y0288701D01*
X0148151Y0288642D01*
X0148169Y0288582D01*
X0148182Y0288520D01*
X0148192Y0288458D01*
X0148198Y0288396D01*
X0148200Y0288333D01*
X0148198Y0288270D01*
X0148192Y0288208D01*
X0148182Y0288146D01*
X0148169Y0288084D01*
X0148151Y0288024D01*
X0148130Y0287965D01*
X0148105Y0287907D01*
X0148076Y0287851D01*
X0148044Y0287797D01*
X0148009Y0287745D01*
X0147971Y0287696D01*
X0147929Y0287648D01*
X0147885Y0287604D01*
X0147837Y0287562D01*
X0147788Y0287524D01*
X0147736Y0287489D01*
X0147682Y0287457D01*
X0147626Y0287428D01*
X0147568Y0287403D01*
X0147509Y0287382D01*
X0147449Y0287364D01*
X0147387Y0287351D01*
X0147325Y0287341D01*
X0147263Y0287335D01*
X0147200Y0287333D01*
X0147137Y0287335D01*
X0147075Y0287341D01*
X0147013Y0287351D01*
X0146951Y0287364D01*
X0146891Y0287382D01*
X0146832Y0287403D01*
X0146774Y0287428D01*
X0146718Y0287457D01*
X0146664Y0287489D01*
X0146612Y0287524D01*
X0146563Y0287562D01*
X0146515Y0287604D01*
X0146471Y0287648D01*
X0146429Y0287696D01*
X0146391Y0287745D01*
X0146356Y0287797D01*
X0146324Y0287851D01*
X0146295Y0287907D01*
X0146270Y0287965D01*
X0146249Y0288024D01*
X0146231Y0288084D01*
X0146218Y0288146D01*
X0146208Y0288208D01*
X0146202Y0288270D01*
X0146200Y0288333D01*
X0100731Y0275280D02*
X0100562Y0275181D01*
X0100396Y0275077D01*
X0100232Y0274970D01*
X0100071Y0274859D01*
X0099913Y0274744D01*
X0099758Y0274625D01*
X0099605Y0274502D01*
X0099456Y0274376D01*
X0099310Y0274246D01*
X0099167Y0274112D01*
X0099027Y0273975D01*
X0098891Y0273835D01*
X0098758Y0273691D01*
X0098629Y0273544D01*
X0098503Y0273394D01*
X0098382Y0273241D01*
X0098263Y0273085D01*
X0098149Y0272926D01*
X0098039Y0272765D01*
X0097933Y0272600D01*
X0097830Y0272434D01*
X0097732Y0272264D01*
X0097638Y0272093D01*
X0097548Y0271919D01*
X0097463Y0271743D01*
X0097381Y0271565D01*
X0097305Y0271385D01*
X0097232Y0271203D01*
X0097164Y0271020D01*
X0097101Y0270835D01*
X0097042Y0270648D01*
X0096988Y0270460D01*
X0096938Y0270271D01*
X0096893Y0270081D01*
X0096853Y0269889D01*
X0096817Y0269697D01*
X0096786Y0269504D01*
X0096760Y0269310D01*
X0096738Y0269115D01*
X0096722Y0268920D01*
X0096710Y0268725D01*
X0096702Y0268529D01*
X0096700Y0268334D01*
X0108465Y0275392D02*
X0108633Y0275299D01*
X0108799Y0275203D01*
X0108963Y0275103D01*
X0109124Y0274998D01*
X0109283Y0274890D01*
X0109439Y0274778D01*
X0109593Y0274662D01*
X0109743Y0274543D01*
X0109891Y0274420D01*
X0110036Y0274294D01*
X0110177Y0274164D01*
X0110316Y0274031D01*
X0110451Y0273894D01*
X0110583Y0273754D01*
X0110711Y0273612D01*
X0110836Y0273466D01*
X0110958Y0273317D01*
X0111076Y0273165D01*
X0111190Y0273011D01*
X0111300Y0272853D01*
X0111407Y0272694D01*
X0111510Y0272531D01*
X0111609Y0272366D01*
X0111704Y0272199D01*
X0111794Y0272030D01*
X0111881Y0271859D01*
X0111964Y0271685D01*
X0112042Y0271510D01*
X0112116Y0271332D01*
X0112186Y0271153D01*
X0112252Y0270973D01*
X0112313Y0270791D01*
X0112370Y0270607D01*
X0112422Y0270422D01*
X0112470Y0270236D01*
X0112514Y0270049D01*
X0112553Y0269861D01*
X0112587Y0269672D01*
X0112617Y0269482D01*
X0112642Y0269292D01*
X0112663Y0269101D01*
X0112679Y0268909D01*
X0112691Y0268717D01*
X0112698Y0268525D01*
X0112700Y0268333D01*
X0099532Y0262226D02*
X0099386Y0262353D01*
X0099244Y0262482D01*
X0099104Y0262616D01*
X0098968Y0262752D01*
X0098835Y0262892D01*
X0098705Y0263035D01*
X0098579Y0263182D01*
X0098457Y0263331D01*
X0098338Y0263483D01*
X0098223Y0263638D01*
X0098111Y0263795D01*
X0098004Y0263955D01*
X0097900Y0264118D01*
X0097801Y0264284D01*
X0097705Y0264451D01*
X0097613Y0264621D01*
X0097526Y0264793D01*
X0097442Y0264967D01*
X0097363Y0265143D01*
X0097289Y0265321D01*
X0097218Y0265501D01*
X0097152Y0265682D01*
X0097090Y0265865D01*
X0097033Y0266049D01*
X0096980Y0266235D01*
X0096932Y0266422D01*
X0096888Y0266610D01*
X0096849Y0266799D01*
X0096814Y0266989D01*
X0096784Y0267179D01*
X0096758Y0267370D01*
X0096737Y0267562D01*
X0096721Y0267755D01*
X0096709Y0267947D01*
X0096702Y0268140D01*
X0096700Y0268333D01*
X0109822Y0262187D02*
X0109970Y0262314D01*
X0110115Y0262444D01*
X0110256Y0262577D01*
X0110395Y0262714D01*
X0110530Y0262854D01*
X0110661Y0262998D01*
X0110789Y0263145D01*
X0110914Y0263294D01*
X0111035Y0263447D01*
X0111152Y0263602D01*
X0111265Y0263761D01*
X0111374Y0263922D01*
X0111479Y0264086D01*
X0111581Y0264252D01*
X0111678Y0264421D01*
X0111771Y0264591D01*
X0111860Y0264765D01*
X0111945Y0264940D01*
X0112025Y0265117D01*
X0112101Y0265296D01*
X0112173Y0265477D01*
X0112240Y0265660D01*
X0112303Y0265844D01*
X0112361Y0266030D01*
X0112415Y0266217D01*
X0112464Y0266405D01*
X0112509Y0266595D01*
X0112549Y0266785D01*
X0112584Y0266977D01*
X0112615Y0267169D01*
X0112641Y0267362D01*
X0112662Y0267556D01*
X0112679Y0267750D01*
X0112691Y0267944D01*
X0112698Y0268138D01*
X0112700Y0268333D01*
X0076200Y0223333D02*
X0076202Y0223396D01*
X0076208Y0223458D01*
X0076218Y0223520D01*
X0076231Y0223582D01*
X0076249Y0223642D01*
X0076270Y0223701D01*
X0076295Y0223759D01*
X0076324Y0223815D01*
X0076356Y0223869D01*
X0076391Y0223921D01*
X0076429Y0223970D01*
X0076471Y0224018D01*
X0076515Y0224062D01*
X0076563Y0224104D01*
X0076612Y0224142D01*
X0076664Y0224177D01*
X0076718Y0224209D01*
X0076774Y0224238D01*
X0076832Y0224263D01*
X0076891Y0224284D01*
X0076951Y0224302D01*
X0077013Y0224315D01*
X0077075Y0224325D01*
X0077137Y0224331D01*
X0077200Y0224333D01*
X0077263Y0224331D01*
X0077325Y0224325D01*
X0077387Y0224315D01*
X0077449Y0224302D01*
X0077509Y0224284D01*
X0077568Y0224263D01*
X0077626Y0224238D01*
X0077682Y0224209D01*
X0077736Y0224177D01*
X0077788Y0224142D01*
X0077837Y0224104D01*
X0077885Y0224062D01*
X0077929Y0224018D01*
X0077971Y0223970D01*
X0078009Y0223921D01*
X0078044Y0223869D01*
X0078076Y0223815D01*
X0078105Y0223759D01*
X0078130Y0223701D01*
X0078151Y0223642D01*
X0078169Y0223582D01*
X0078182Y0223520D01*
X0078192Y0223458D01*
X0078198Y0223396D01*
X0078200Y0223333D01*
X0078198Y0223270D01*
X0078192Y0223208D01*
X0078182Y0223146D01*
X0078169Y0223084D01*
X0078151Y0223024D01*
X0078130Y0222965D01*
X0078105Y0222907D01*
X0078076Y0222851D01*
X0078044Y0222797D01*
X0078009Y0222745D01*
X0077971Y0222696D01*
X0077929Y0222648D01*
X0077885Y0222604D01*
X0077837Y0222562D01*
X0077788Y0222524D01*
X0077736Y0222489D01*
X0077682Y0222457D01*
X0077626Y0222428D01*
X0077568Y0222403D01*
X0077509Y0222382D01*
X0077449Y0222364D01*
X0077387Y0222351D01*
X0077325Y0222341D01*
X0077263Y0222335D01*
X0077200Y0222333D01*
X0077137Y0222335D01*
X0077075Y0222341D01*
X0077013Y0222351D01*
X0076951Y0222364D01*
X0076891Y0222382D01*
X0076832Y0222403D01*
X0076774Y0222428D01*
X0076718Y0222457D01*
X0076664Y0222489D01*
X0076612Y0222524D01*
X0076563Y0222562D01*
X0076515Y0222604D01*
X0076471Y0222648D01*
X0076429Y0222696D01*
X0076391Y0222745D01*
X0076356Y0222797D01*
X0076324Y0222851D01*
X0076295Y0222907D01*
X0076270Y0222965D01*
X0076249Y0223024D01*
X0076231Y0223084D01*
X0076218Y0223146D01*
X0076208Y0223208D01*
X0076202Y0223270D01*
X0076200Y0223333D01*
X0076200Y0153333D02*
X0076202Y0153396D01*
X0076208Y0153458D01*
X0076218Y0153520D01*
X0076231Y0153582D01*
X0076249Y0153642D01*
X0076270Y0153701D01*
X0076295Y0153759D01*
X0076324Y0153815D01*
X0076356Y0153869D01*
X0076391Y0153921D01*
X0076429Y0153970D01*
X0076471Y0154018D01*
X0076515Y0154062D01*
X0076563Y0154104D01*
X0076612Y0154142D01*
X0076664Y0154177D01*
X0076718Y0154209D01*
X0076774Y0154238D01*
X0076832Y0154263D01*
X0076891Y0154284D01*
X0076951Y0154302D01*
X0077013Y0154315D01*
X0077075Y0154325D01*
X0077137Y0154331D01*
X0077200Y0154333D01*
X0077263Y0154331D01*
X0077325Y0154325D01*
X0077387Y0154315D01*
X0077449Y0154302D01*
X0077509Y0154284D01*
X0077568Y0154263D01*
X0077626Y0154238D01*
X0077682Y0154209D01*
X0077736Y0154177D01*
X0077788Y0154142D01*
X0077837Y0154104D01*
X0077885Y0154062D01*
X0077929Y0154018D01*
X0077971Y0153970D01*
X0078009Y0153921D01*
X0078044Y0153869D01*
X0078076Y0153815D01*
X0078105Y0153759D01*
X0078130Y0153701D01*
X0078151Y0153642D01*
X0078169Y0153582D01*
X0078182Y0153520D01*
X0078192Y0153458D01*
X0078198Y0153396D01*
X0078200Y0153333D01*
X0078198Y0153270D01*
X0078192Y0153208D01*
X0078182Y0153146D01*
X0078169Y0153084D01*
X0078151Y0153024D01*
X0078130Y0152965D01*
X0078105Y0152907D01*
X0078076Y0152851D01*
X0078044Y0152797D01*
X0078009Y0152745D01*
X0077971Y0152696D01*
X0077929Y0152648D01*
X0077885Y0152604D01*
X0077837Y0152562D01*
X0077788Y0152524D01*
X0077736Y0152489D01*
X0077682Y0152457D01*
X0077626Y0152428D01*
X0077568Y0152403D01*
X0077509Y0152382D01*
X0077449Y0152364D01*
X0077387Y0152351D01*
X0077325Y0152341D01*
X0077263Y0152335D01*
X0077200Y0152333D01*
X0077137Y0152335D01*
X0077075Y0152341D01*
X0077013Y0152351D01*
X0076951Y0152364D01*
X0076891Y0152382D01*
X0076832Y0152403D01*
X0076774Y0152428D01*
X0076718Y0152457D01*
X0076664Y0152489D01*
X0076612Y0152524D01*
X0076563Y0152562D01*
X0076515Y0152604D01*
X0076471Y0152648D01*
X0076429Y0152696D01*
X0076391Y0152745D01*
X0076356Y0152797D01*
X0076324Y0152851D01*
X0076295Y0152907D01*
X0076270Y0152965D01*
X0076249Y0153024D01*
X0076231Y0153084D01*
X0076218Y0153146D01*
X0076208Y0153208D01*
X0076202Y0153270D01*
X0076200Y0153333D01*
X0236200Y0288333D02*
X0236202Y0288396D01*
X0236208Y0288458D01*
X0236218Y0288520D01*
X0236231Y0288582D01*
X0236249Y0288642D01*
X0236270Y0288701D01*
X0236295Y0288759D01*
X0236324Y0288815D01*
X0236356Y0288869D01*
X0236391Y0288921D01*
X0236429Y0288970D01*
X0236471Y0289018D01*
X0236515Y0289062D01*
X0236563Y0289104D01*
X0236612Y0289142D01*
X0236664Y0289177D01*
X0236718Y0289209D01*
X0236774Y0289238D01*
X0236832Y0289263D01*
X0236891Y0289284D01*
X0236951Y0289302D01*
X0237013Y0289315D01*
X0237075Y0289325D01*
X0237137Y0289331D01*
X0237200Y0289333D01*
X0237263Y0289331D01*
X0237325Y0289325D01*
X0237387Y0289315D01*
X0237449Y0289302D01*
X0237509Y0289284D01*
X0237568Y0289263D01*
X0237626Y0289238D01*
X0237682Y0289209D01*
X0237736Y0289177D01*
X0237788Y0289142D01*
X0237837Y0289104D01*
X0237885Y0289062D01*
X0237929Y0289018D01*
X0237971Y0288970D01*
X0238009Y0288921D01*
X0238044Y0288869D01*
X0238076Y0288815D01*
X0238105Y0288759D01*
X0238130Y0288701D01*
X0238151Y0288642D01*
X0238169Y0288582D01*
X0238182Y0288520D01*
X0238192Y0288458D01*
X0238198Y0288396D01*
X0238200Y0288333D01*
X0238198Y0288270D01*
X0238192Y0288208D01*
X0238182Y0288146D01*
X0238169Y0288084D01*
X0238151Y0288024D01*
X0238130Y0287965D01*
X0238105Y0287907D01*
X0238076Y0287851D01*
X0238044Y0287797D01*
X0238009Y0287745D01*
X0237971Y0287696D01*
X0237929Y0287648D01*
X0237885Y0287604D01*
X0237837Y0287562D01*
X0237788Y0287524D01*
X0237736Y0287489D01*
X0237682Y0287457D01*
X0237626Y0287428D01*
X0237568Y0287403D01*
X0237509Y0287382D01*
X0237449Y0287364D01*
X0237387Y0287351D01*
X0237325Y0287341D01*
X0237263Y0287335D01*
X0237200Y0287333D01*
X0237137Y0287335D01*
X0237075Y0287341D01*
X0237013Y0287351D01*
X0236951Y0287364D01*
X0236891Y0287382D01*
X0236832Y0287403D01*
X0236774Y0287428D01*
X0236718Y0287457D01*
X0236664Y0287489D01*
X0236612Y0287524D01*
X0236563Y0287562D01*
X0236515Y0287604D01*
X0236471Y0287648D01*
X0236429Y0287696D01*
X0236391Y0287745D01*
X0236356Y0287797D01*
X0236324Y0287851D01*
X0236295Y0287907D01*
X0236270Y0287965D01*
X0236249Y0288024D01*
X0236231Y0288084D01*
X0236218Y0288146D01*
X0236208Y0288208D01*
X0236202Y0288270D01*
X0236200Y0288333D01*
X0210200Y0343333D02*
X0210198Y0343525D01*
X0210191Y0343717D01*
X0210179Y0343909D01*
X0210163Y0344101D01*
X0210142Y0344292D01*
X0210117Y0344482D01*
X0210087Y0344672D01*
X0210053Y0344861D01*
X0210014Y0345049D01*
X0209970Y0345236D01*
X0209922Y0345422D01*
X0209870Y0345607D01*
X0209813Y0345791D01*
X0209752Y0345973D01*
X0209686Y0346153D01*
X0209616Y0346332D01*
X0209542Y0346510D01*
X0209464Y0346685D01*
X0209381Y0346859D01*
X0209294Y0347030D01*
X0209204Y0347199D01*
X0209109Y0347366D01*
X0209010Y0347531D01*
X0208907Y0347694D01*
X0208800Y0347853D01*
X0208690Y0348011D01*
X0208576Y0348165D01*
X0208458Y0348317D01*
X0208336Y0348466D01*
X0208211Y0348612D01*
X0208083Y0348754D01*
X0207951Y0348894D01*
X0207816Y0349031D01*
X0207677Y0349164D01*
X0207536Y0349294D01*
X0207391Y0349420D01*
X0207243Y0349543D01*
X0207093Y0349662D01*
X0206939Y0349778D01*
X0206783Y0349890D01*
X0206624Y0349998D01*
X0206463Y0350103D01*
X0206299Y0350203D01*
X0206133Y0350299D01*
X0205965Y0350392D01*
X0198231Y0350280D02*
X0198062Y0350181D01*
X0197896Y0350077D01*
X0197732Y0349970D01*
X0197571Y0349859D01*
X0197413Y0349744D01*
X0197258Y0349625D01*
X0197105Y0349502D01*
X0196956Y0349376D01*
X0196810Y0349246D01*
X0196667Y0349112D01*
X0196527Y0348975D01*
X0196391Y0348835D01*
X0196258Y0348691D01*
X0196129Y0348544D01*
X0196003Y0348394D01*
X0195882Y0348241D01*
X0195763Y0348085D01*
X0195649Y0347926D01*
X0195539Y0347765D01*
X0195433Y0347600D01*
X0195330Y0347434D01*
X0195232Y0347264D01*
X0195138Y0347093D01*
X0195048Y0346919D01*
X0194963Y0346743D01*
X0194881Y0346565D01*
X0194805Y0346385D01*
X0194732Y0346203D01*
X0194664Y0346020D01*
X0194601Y0345835D01*
X0194542Y0345648D01*
X0194488Y0345460D01*
X0194438Y0345271D01*
X0194393Y0345081D01*
X0194353Y0344889D01*
X0194317Y0344697D01*
X0194286Y0344504D01*
X0194260Y0344310D01*
X0194238Y0344115D01*
X0194222Y0343920D01*
X0194210Y0343725D01*
X0194202Y0343529D01*
X0194200Y0343334D01*
X0194200Y0343333D02*
X0194202Y0343140D01*
X0194209Y0342947D01*
X0194221Y0342755D01*
X0194237Y0342562D01*
X0194258Y0342370D01*
X0194284Y0342179D01*
X0194314Y0341989D01*
X0194349Y0341799D01*
X0194388Y0341610D01*
X0194432Y0341422D01*
X0194480Y0341235D01*
X0194533Y0341049D01*
X0194590Y0340865D01*
X0194652Y0340682D01*
X0194718Y0340501D01*
X0194789Y0340321D01*
X0194863Y0340143D01*
X0194942Y0339967D01*
X0195026Y0339793D01*
X0195113Y0339621D01*
X0195205Y0339451D01*
X0195301Y0339284D01*
X0195400Y0339118D01*
X0195504Y0338955D01*
X0195611Y0338795D01*
X0195723Y0338638D01*
X0195838Y0338483D01*
X0195957Y0338331D01*
X0196079Y0338182D01*
X0196205Y0338035D01*
X0196335Y0337892D01*
X0196468Y0337752D01*
X0196604Y0337616D01*
X0196744Y0337482D01*
X0196886Y0337353D01*
X0197032Y0337226D01*
X0207322Y0337187D02*
X0207470Y0337314D01*
X0207615Y0337444D01*
X0207756Y0337577D01*
X0207895Y0337714D01*
X0208030Y0337854D01*
X0208161Y0337998D01*
X0208289Y0338145D01*
X0208414Y0338294D01*
X0208535Y0338447D01*
X0208652Y0338602D01*
X0208765Y0338761D01*
X0208874Y0338922D01*
X0208979Y0339086D01*
X0209081Y0339252D01*
X0209178Y0339421D01*
X0209271Y0339591D01*
X0209360Y0339765D01*
X0209445Y0339940D01*
X0209525Y0340117D01*
X0209601Y0340296D01*
X0209673Y0340477D01*
X0209740Y0340660D01*
X0209803Y0340844D01*
X0209861Y0341030D01*
X0209915Y0341217D01*
X0209964Y0341405D01*
X0210009Y0341595D01*
X0210049Y0341785D01*
X0210084Y0341977D01*
X0210115Y0342169D01*
X0210141Y0342362D01*
X0210162Y0342556D01*
X0210179Y0342750D01*
X0210191Y0342944D01*
X0210198Y0343138D01*
X0210200Y0343333D01*
X0178231Y0350280D02*
X0178062Y0350181D01*
X0177896Y0350077D01*
X0177732Y0349970D01*
X0177571Y0349859D01*
X0177413Y0349744D01*
X0177258Y0349625D01*
X0177105Y0349502D01*
X0176956Y0349376D01*
X0176810Y0349246D01*
X0176667Y0349112D01*
X0176527Y0348975D01*
X0176391Y0348835D01*
X0176258Y0348691D01*
X0176129Y0348544D01*
X0176003Y0348394D01*
X0175882Y0348241D01*
X0175763Y0348085D01*
X0175649Y0347926D01*
X0175539Y0347765D01*
X0175433Y0347600D01*
X0175330Y0347434D01*
X0175232Y0347264D01*
X0175138Y0347093D01*
X0175048Y0346919D01*
X0174963Y0346743D01*
X0174881Y0346565D01*
X0174805Y0346385D01*
X0174732Y0346203D01*
X0174664Y0346020D01*
X0174601Y0345835D01*
X0174542Y0345648D01*
X0174488Y0345460D01*
X0174438Y0345271D01*
X0174393Y0345081D01*
X0174353Y0344889D01*
X0174317Y0344697D01*
X0174286Y0344504D01*
X0174260Y0344310D01*
X0174238Y0344115D01*
X0174222Y0343920D01*
X0174210Y0343725D01*
X0174202Y0343529D01*
X0174200Y0343334D01*
X0185965Y0350392D02*
X0186133Y0350299D01*
X0186299Y0350203D01*
X0186463Y0350103D01*
X0186624Y0349998D01*
X0186783Y0349890D01*
X0186939Y0349778D01*
X0187093Y0349662D01*
X0187243Y0349543D01*
X0187391Y0349420D01*
X0187536Y0349294D01*
X0187677Y0349164D01*
X0187816Y0349031D01*
X0187951Y0348894D01*
X0188083Y0348754D01*
X0188211Y0348612D01*
X0188336Y0348466D01*
X0188458Y0348317D01*
X0188576Y0348165D01*
X0188690Y0348011D01*
X0188800Y0347853D01*
X0188907Y0347694D01*
X0189010Y0347531D01*
X0189109Y0347366D01*
X0189204Y0347199D01*
X0189294Y0347030D01*
X0189381Y0346859D01*
X0189464Y0346685D01*
X0189542Y0346510D01*
X0189616Y0346332D01*
X0189686Y0346153D01*
X0189752Y0345973D01*
X0189813Y0345791D01*
X0189870Y0345607D01*
X0189922Y0345422D01*
X0189970Y0345236D01*
X0190014Y0345049D01*
X0190053Y0344861D01*
X0190087Y0344672D01*
X0190117Y0344482D01*
X0190142Y0344292D01*
X0190163Y0344101D01*
X0190179Y0343909D01*
X0190191Y0343717D01*
X0190198Y0343525D01*
X0190200Y0343333D01*
X0177032Y0337226D02*
X0176886Y0337353D01*
X0176744Y0337482D01*
X0176604Y0337616D01*
X0176468Y0337752D01*
X0176335Y0337892D01*
X0176205Y0338035D01*
X0176079Y0338182D01*
X0175957Y0338331D01*
X0175838Y0338483D01*
X0175723Y0338638D01*
X0175611Y0338795D01*
X0175504Y0338955D01*
X0175400Y0339118D01*
X0175301Y0339284D01*
X0175205Y0339451D01*
X0175113Y0339621D01*
X0175026Y0339793D01*
X0174942Y0339967D01*
X0174863Y0340143D01*
X0174789Y0340321D01*
X0174718Y0340501D01*
X0174652Y0340682D01*
X0174590Y0340865D01*
X0174533Y0341049D01*
X0174480Y0341235D01*
X0174432Y0341422D01*
X0174388Y0341610D01*
X0174349Y0341799D01*
X0174314Y0341989D01*
X0174284Y0342179D01*
X0174258Y0342370D01*
X0174237Y0342562D01*
X0174221Y0342755D01*
X0174209Y0342947D01*
X0174202Y0343140D01*
X0174200Y0343333D01*
X0187322Y0337187D02*
X0187470Y0337314D01*
X0187615Y0337444D01*
X0187756Y0337577D01*
X0187895Y0337714D01*
X0188030Y0337854D01*
X0188161Y0337998D01*
X0188289Y0338145D01*
X0188414Y0338294D01*
X0188535Y0338447D01*
X0188652Y0338602D01*
X0188765Y0338761D01*
X0188874Y0338922D01*
X0188979Y0339086D01*
X0189081Y0339252D01*
X0189178Y0339421D01*
X0189271Y0339591D01*
X0189360Y0339765D01*
X0189445Y0339940D01*
X0189525Y0340117D01*
X0189601Y0340296D01*
X0189673Y0340477D01*
X0189740Y0340660D01*
X0189803Y0340844D01*
X0189861Y0341030D01*
X0189915Y0341217D01*
X0189964Y0341405D01*
X0190009Y0341595D01*
X0190049Y0341785D01*
X0190084Y0341977D01*
X0190115Y0342169D01*
X0190141Y0342362D01*
X0190162Y0342556D01*
X0190179Y0342750D01*
X0190191Y0342944D01*
X0190198Y0343138D01*
X0190200Y0343333D01*
D21*
X0229450Y0167833D03*
X0257450Y0167833D03*
D22*
X0247950Y0167833D03*
X0238950Y0167833D03*
M02*
