G75*
%MOIN*%
%OFA0B0*%
%FSLAX25Y25*%
%IPPOS*%
%LPD*%
%AMOC8*
5,1,8,0,0,1.08239X$1,22.5*
%
%ADD10C,0.08500*%
%ADD11R,0.05118X0.06299*%
%ADD12C,0.10000*%
%ADD13R,0.06299X0.05118*%
%ADD14C,0.06200*%
%ADD15C,0.07400*%
%ADD16R,0.07087X0.05512*%
%ADD17R,0.05512X0.07087*%
%ADD18R,0.08661X0.02362*%
%ADD19R,0.02362X0.08661*%
%ADD20C,0.07000*%
%ADD21R,0.05906X0.05118*%
%ADD22R,0.05118X0.05906*%
%ADD23C,0.06543*%
%ADD24C,0.10079*%
%ADD25C,0.23000*%
%ADD26C,0.02400*%
%ADD27C,0.05756*%
%ADD28C,0.05000*%
%ADD29C,0.04000*%
%ADD30C,0.05600*%
%ADD31C,0.01200*%
%ADD32C,0.06600*%
D10*
X0132200Y0358333D03*
X0222200Y0358333D03*
X0252200Y0358333D03*
D11*
X0304513Y0330833D03*
X0312387Y0330833D03*
X0323263Y0313333D03*
X0331137Y0313333D03*
X0331137Y0303333D03*
X0323263Y0303333D03*
X0162387Y0213333D03*
X0154513Y0213333D03*
X0132387Y0183333D03*
X0124513Y0183333D03*
X0124513Y0253333D03*
X0132387Y0253333D03*
D12*
X0122200Y0128333D03*
X0102200Y0128333D03*
X0347200Y0123333D03*
X0347200Y0143333D03*
D13*
X0102200Y0150646D03*
X0102200Y0158520D03*
X0102200Y0220646D03*
X0102200Y0228520D03*
X0049700Y0295646D03*
X0049700Y0303520D03*
X0067200Y0314396D03*
X0067200Y0322270D03*
X0077200Y0322270D03*
X0077200Y0314396D03*
X0067200Y0330646D03*
X0067200Y0338520D03*
D14*
X0104700Y0273333D03*
X0104700Y0263333D03*
X0082200Y0263333D03*
X0072200Y0263333D03*
X0062200Y0263333D03*
X0182200Y0338333D03*
X0182200Y0348333D03*
X0202200Y0348333D03*
X0202200Y0338333D03*
X0272200Y0318333D03*
X0272200Y0308333D03*
X0272200Y0298333D03*
X0242200Y0143333D03*
X0242200Y0133333D03*
X0242200Y0123333D03*
X0322200Y0123333D03*
X0322200Y0143333D03*
D15*
X0177200Y0288333D03*
X0177200Y0328333D03*
X0077200Y0188333D03*
X0037200Y0188333D03*
D16*
X0097200Y0196640D03*
X0097200Y0210026D03*
X0112200Y0210026D03*
X0112200Y0196640D03*
X0142200Y0145026D03*
X0142200Y0131640D03*
X0157200Y0131640D03*
X0157200Y0145026D03*
X0262200Y0133776D03*
X0262200Y0120390D03*
X0037200Y0290390D03*
X0037200Y0303776D03*
D17*
X0299257Y0343333D03*
X0312643Y0343333D03*
D18*
X0312436Y0318333D03*
X0312436Y0313333D03*
X0312436Y0308333D03*
X0312436Y0303333D03*
X0291964Y0303333D03*
X0291964Y0308333D03*
X0291964Y0313333D03*
X0291964Y0318333D03*
X0182436Y0235833D03*
X0182436Y0230833D03*
X0182436Y0225833D03*
X0182436Y0220833D03*
X0161964Y0220833D03*
X0161964Y0225833D03*
X0161964Y0230833D03*
X0161964Y0235833D03*
X0132436Y0235833D03*
X0132436Y0230833D03*
X0132436Y0225833D03*
X0132436Y0220833D03*
X0111964Y0220833D03*
X0111964Y0225833D03*
X0111964Y0230833D03*
X0111964Y0235833D03*
X0111964Y0165833D03*
X0111964Y0160833D03*
X0111964Y0155833D03*
X0111964Y0150833D03*
X0132436Y0150833D03*
X0132436Y0155833D03*
X0132436Y0160833D03*
X0132436Y0165833D03*
D19*
X0077200Y0283097D03*
X0072200Y0283097D03*
X0067200Y0283097D03*
X0062200Y0283097D03*
X0062200Y0303570D03*
X0067200Y0303570D03*
X0072200Y0303570D03*
X0077200Y0303570D03*
D20*
X0132200Y0288333D03*
X0162200Y0288333D03*
X0162200Y0328333D03*
X0162200Y0338333D03*
X0132200Y0338333D03*
X0132200Y0328333D03*
X0222200Y0328333D03*
X0222200Y0338333D03*
X0252200Y0338333D03*
X0252200Y0328333D03*
X0252200Y0288333D03*
X0222200Y0288333D03*
X0234450Y0172083D03*
X0243450Y0172083D03*
X0252450Y0172083D03*
X0077200Y0168333D03*
X0077200Y0138333D03*
X0037200Y0138333D03*
X0027200Y0138333D03*
X0027200Y0168333D03*
X0037200Y0168333D03*
X0037200Y0208333D03*
X0027200Y0208333D03*
X0027200Y0238333D03*
X0037200Y0238333D03*
X0077200Y0238333D03*
X0077200Y0208333D03*
D21*
X0112200Y0183323D03*
X0112200Y0175843D03*
X0142200Y0195843D03*
X0142200Y0203323D03*
X0152200Y0230843D03*
X0152200Y0238323D03*
X0112200Y0245843D03*
X0112200Y0253323D03*
X0104700Y0283343D03*
X0104700Y0290823D03*
X0089700Y0290823D03*
X0089700Y0283343D03*
X0022200Y0295843D03*
X0022200Y0303323D03*
X0067200Y0349593D03*
X0067200Y0357073D03*
X0192200Y0287073D03*
X0192200Y0279593D03*
X0207200Y0279593D03*
X0207200Y0287073D03*
X0207200Y0213323D03*
X0207200Y0205843D03*
X0207200Y0193323D03*
X0207200Y0185843D03*
X0222200Y0185843D03*
X0222200Y0193323D03*
X0222200Y0205843D03*
X0222200Y0213323D03*
X0237200Y0213323D03*
X0237200Y0205843D03*
X0237200Y0193323D03*
X0237200Y0185843D03*
X0252200Y0185843D03*
X0252200Y0193323D03*
X0252200Y0205843D03*
X0252200Y0213323D03*
X0157200Y0163323D03*
X0157200Y0155843D03*
X0027200Y0185843D03*
X0027200Y0193323D03*
X0323450Y0323343D03*
X0323450Y0330823D03*
D22*
X0312190Y0358333D03*
X0304710Y0358333D03*
X0299690Y0290833D03*
X0292210Y0290833D03*
X0294710Y0258333D03*
X0302190Y0258333D03*
X0302190Y0243333D03*
X0294710Y0243333D03*
X0282190Y0243333D03*
X0274710Y0243333D03*
X0274710Y0228333D03*
X0282190Y0228333D03*
X0294710Y0228333D03*
X0302190Y0228333D03*
X0302190Y0213333D03*
X0294710Y0213333D03*
X0282190Y0213333D03*
X0274710Y0213333D03*
X0274710Y0198333D03*
X0282190Y0198333D03*
X0294710Y0198333D03*
X0302190Y0198333D03*
X0302190Y0183333D03*
X0294710Y0183333D03*
X0282190Y0183333D03*
X0274710Y0183333D03*
X0274710Y0168333D03*
X0282190Y0168333D03*
X0294710Y0168333D03*
X0302190Y0168333D03*
X0302190Y0153333D03*
X0294710Y0153333D03*
X0282190Y0153333D03*
X0274710Y0153333D03*
X0274710Y0138333D03*
X0282190Y0138333D03*
X0294710Y0138333D03*
X0302190Y0138333D03*
X0302190Y0123333D03*
X0294710Y0123333D03*
X0282190Y0123333D03*
X0274710Y0123333D03*
X0225940Y0123333D03*
X0218460Y0123333D03*
X0218460Y0133333D03*
X0225940Y0133333D03*
X0147190Y0173333D03*
X0139710Y0173333D03*
X0200960Y0225833D03*
X0208440Y0225833D03*
X0274710Y0258333D03*
X0282190Y0258333D03*
X0202190Y0358333D03*
X0194710Y0358333D03*
X0182190Y0358333D03*
X0174710Y0358333D03*
X0057190Y0314583D03*
X0049710Y0314583D03*
X0034690Y0123333D03*
X0027210Y0123333D03*
D23*
X0162200Y0268333D03*
X0192200Y0258333D03*
X0212200Y0268333D03*
D24*
X0107043Y0358333D03*
X0087357Y0358333D03*
X0102357Y0078333D03*
X0122043Y0078333D03*
X0142357Y0078333D03*
X0162043Y0078333D03*
X0182357Y0078333D03*
X0202043Y0078333D03*
X0222357Y0078333D03*
X0242043Y0078333D03*
X0262357Y0078333D03*
X0282043Y0078333D03*
X0302357Y0078333D03*
X0322043Y0078333D03*
X0342357Y0078333D03*
X0362043Y0078333D03*
D25*
X0032200Y0087083D03*
X0032200Y0363333D03*
X0347200Y0363333D03*
X0347200Y0185833D03*
D26*
X0299690Y0290833D02*
X0299690Y0315823D01*
X0302200Y0318333D01*
X0312436Y0318333D01*
X0312387Y0318383D01*
X0312387Y0330833D01*
X0312387Y0343077D01*
X0312643Y0343333D01*
X0312190Y0343786D01*
X0312190Y0358333D01*
X0319700Y0358333D01*
X0304710Y0358333D02*
X0304710Y0353343D01*
X0299700Y0348333D01*
X0299700Y0343776D01*
X0299257Y0343333D01*
X0292200Y0343333D01*
X0279700Y0330833D01*
X0279700Y0318333D01*
X0284700Y0313333D01*
X0291964Y0313333D01*
X0291964Y0308333D02*
X0272200Y0308333D01*
X0257200Y0308333D01*
X0237200Y0328333D01*
X0237200Y0343333D01*
X0232200Y0348333D01*
X0212200Y0348333D01*
X0202200Y0338333D01*
X0202200Y0348333D02*
X0202190Y0358333D01*
X0194710Y0358333D02*
X0194710Y0363323D01*
X0192200Y0365833D01*
X0177200Y0365833D01*
X0174700Y0363333D01*
X0174700Y0358343D01*
X0174710Y0358333D02*
X0152200Y0358333D01*
X0147200Y0353333D01*
X0147200Y0318333D01*
X0157200Y0308333D01*
X0194700Y0308333D01*
X0207200Y0295833D01*
X0207200Y0287073D01*
X0207200Y0279593D02*
X0207200Y0273333D01*
X0192200Y0258333D01*
X0192200Y0279593D01*
X0192200Y0287073D02*
X0192200Y0295833D01*
X0162200Y0298333D02*
X0107200Y0298333D01*
X0104700Y0295833D01*
X0104700Y0290823D01*
X0104700Y0283343D02*
X0104700Y0273333D01*
X0104700Y0263333D02*
X0104700Y0258333D01*
X0099700Y0253333D01*
X0077200Y0253333D01*
X0072200Y0258333D01*
X0072200Y0263333D01*
X0072200Y0283097D01*
X0067200Y0283097D02*
X0067200Y0274583D01*
X0063450Y0270833D01*
X0049700Y0270833D01*
X0037200Y0283333D01*
X0037200Y0290390D01*
X0032643Y0290390D01*
X0027190Y0295843D01*
X0022200Y0295843D01*
X0022200Y0303323D02*
X0036747Y0303323D01*
X0037200Y0303776D01*
X0037456Y0303520D01*
X0049700Y0303520D01*
X0049700Y0313323D01*
X0049710Y0314583D01*
X0057190Y0314583D02*
X0067013Y0314583D01*
X0067200Y0314396D01*
X0067200Y0303570D01*
X0072200Y0303570D01*
X0077200Y0303570D02*
X0077200Y0314396D01*
X0077387Y0322083D02*
X0077200Y0322270D01*
X0067200Y0322270D01*
X0077387Y0322083D02*
X0084700Y0322083D01*
X0062200Y0303570D02*
X0049749Y0303570D01*
X0049700Y0303520D01*
X0049700Y0295646D02*
X0049700Y0283333D01*
X0061964Y0283333D01*
X0062200Y0283097D01*
X0064710Y0290823D02*
X0062200Y0293333D01*
X0062200Y0303570D01*
X0064710Y0290823D02*
X0089700Y0290823D01*
X0089700Y0283343D02*
X0091954Y0283097D01*
X0077200Y0283097D01*
X0064700Y0245833D02*
X0112190Y0245833D01*
X0112200Y0245843D01*
X0111964Y0244357D01*
X0111964Y0235833D01*
X0111964Y0230833D02*
X0111964Y0225833D01*
X0122200Y0225833D01*
X0111964Y0220833D02*
X0102387Y0220833D01*
X0102200Y0220646D01*
X0102013Y0220833D01*
X0092200Y0220833D01*
X0102200Y0228520D02*
X0102200Y0235833D01*
X0112200Y0253323D02*
X0112210Y0253333D01*
X0124513Y0253333D01*
X0132200Y0251896D02*
X0132387Y0253333D01*
X0132200Y0251896D02*
X0132200Y0243333D01*
X0132200Y0236070D01*
X0132436Y0235833D01*
X0132436Y0230833D02*
X0152190Y0230833D01*
X0152200Y0230843D01*
X0161954Y0230843D01*
X0161964Y0230833D01*
X0161964Y0225833D02*
X0157200Y0225833D01*
X0154513Y0223146D01*
X0154513Y0213333D01*
X0154700Y0213146D01*
X0154700Y0203333D01*
X0159700Y0198333D01*
X0177200Y0198333D01*
X0182200Y0213333D02*
X0182200Y0220597D01*
X0182436Y0220833D01*
X0182436Y0225833D02*
X0174700Y0225833D01*
X0172200Y0228333D01*
X0172200Y0245833D01*
X0169700Y0248333D01*
X0154700Y0248333D01*
X0152200Y0245833D01*
X0152200Y0238323D01*
X0161964Y0235833D02*
X0162200Y0236070D01*
X0162200Y0242083D01*
X0182436Y0235833D02*
X0192200Y0235833D01*
X0192200Y0232083D01*
X0190950Y0230833D01*
X0182436Y0230833D01*
X0182436Y0225833D02*
X0200960Y0225833D01*
X0207190Y0213333D02*
X0207200Y0213323D01*
X0162387Y0213333D02*
X0162200Y0213146D01*
X0162200Y0205833D01*
X0162387Y0213333D02*
X0162387Y0220410D01*
X0161964Y0220833D01*
X0142200Y0223333D02*
X0142200Y0203323D01*
X0118883Y0203323D01*
X0112200Y0196640D01*
X0097200Y0196640D01*
X0087200Y0208333D02*
X0088893Y0210026D01*
X0097200Y0210026D01*
X0112200Y0210026D01*
X0128893Y0210026D01*
X0132200Y0213333D01*
X0132436Y0213570D01*
X0132436Y0220833D01*
X0132436Y0225833D02*
X0139700Y0225833D01*
X0142200Y0223333D01*
X0142200Y0195843D02*
X0122210Y0195843D01*
X0122200Y0195833D01*
X0124513Y0183333D02*
X0112210Y0183333D01*
X0112200Y0183323D01*
X0112200Y0175843D02*
X0111964Y0175607D01*
X0111964Y0165833D01*
X0111964Y0160833D02*
X0111964Y0155833D01*
X0122200Y0155833D01*
X0111964Y0150833D02*
X0102387Y0150833D01*
X0102200Y0150646D01*
X0102013Y0150833D01*
X0092200Y0150833D01*
X0102200Y0158520D02*
X0102200Y0165833D01*
X0112200Y0175843D02*
X0064710Y0175843D01*
X0047200Y0158333D01*
X0032200Y0158333D01*
X0027200Y0163333D01*
X0027200Y0168333D01*
X0027200Y0185843D02*
X0017200Y0185833D01*
X0027200Y0193323D02*
X0027210Y0198333D01*
X0027200Y0208333D01*
X0037200Y0228333D02*
X0047200Y0228333D01*
X0064700Y0245833D01*
X0037200Y0228333D02*
X0027200Y0238333D01*
X0077200Y0208333D02*
X0087200Y0208333D01*
X0132200Y0183146D02*
X0132200Y0173333D01*
X0139710Y0173333D01*
X0132200Y0173333D02*
X0132200Y0166070D01*
X0132436Y0165833D01*
X0132436Y0160833D02*
X0140950Y0160833D01*
X0147190Y0167073D01*
X0147190Y0173333D01*
X0157210Y0163333D02*
X0157200Y0163323D01*
X0157210Y0163333D02*
X0164700Y0163333D01*
X0167200Y0160833D01*
X0167200Y0155833D01*
X0167200Y0128333D01*
X0162043Y0123176D01*
X0162043Y0078333D01*
X0157200Y0131640D02*
X0142200Y0131640D01*
X0133893Y0131640D01*
X0132200Y0133333D01*
X0132200Y0138333D01*
X0077200Y0138333D01*
X0042200Y0123333D02*
X0034690Y0123333D01*
X0027210Y0123333D02*
X0027200Y0138333D01*
X0132200Y0138333D02*
X0132200Y0150597D01*
X0132436Y0150833D01*
X0132436Y0155833D02*
X0139700Y0155833D01*
X0142200Y0153333D01*
X0142200Y0145026D01*
X0157200Y0145026D01*
X0157200Y0155843D01*
X0132200Y0183146D02*
X0132387Y0183333D01*
X0142200Y0195843D02*
X0154690Y0195843D01*
X0202200Y0148333D01*
X0218450Y0143333D02*
X0218450Y0133343D01*
X0218460Y0133333D01*
X0225940Y0133333D02*
X0242200Y0133333D01*
X0218460Y0123333D02*
X0218460Y0097073D01*
X0222200Y0093333D01*
X0222200Y0078491D01*
X0222357Y0078333D01*
X0242043Y0078333D02*
X0242200Y0078491D01*
X0292210Y0290833D02*
X0291964Y0293579D01*
X0291964Y0303333D01*
X0291964Y0318333D02*
X0292200Y0318570D01*
X0292200Y0325833D01*
X0297200Y0330833D01*
X0304513Y0330833D01*
X0312387Y0330833D02*
X0323440Y0330833D01*
X0323450Y0330823D01*
X0323450Y0323343D02*
X0323450Y0313520D01*
X0323263Y0313333D01*
X0312436Y0313333D01*
X0312436Y0308333D01*
X0312436Y0303333D02*
X0323263Y0303333D01*
X0331137Y0303333D02*
X0331137Y0313333D01*
X0331137Y0303333D02*
X0330950Y0293333D01*
X0182200Y0338333D02*
X0162200Y0338333D01*
X0182200Y0348333D02*
X0182190Y0358333D01*
X0022200Y0310833D02*
X0022200Y0303323D01*
D27*
X0022200Y0310833D03*
X0049700Y0283333D03*
X0084700Y0322083D03*
X0057200Y0357083D03*
X0162200Y0298333D03*
X0192200Y0295833D03*
X0207200Y0295833D03*
X0162200Y0242083D03*
X0132200Y0243333D03*
X0122200Y0225833D03*
X0102200Y0235833D03*
X0092200Y0220833D03*
X0122200Y0195833D03*
X0132200Y0173333D03*
X0147200Y0188333D03*
X0162200Y0205833D03*
X0177200Y0198333D03*
X0182200Y0213333D03*
X0192200Y0235833D03*
X0167200Y0155833D03*
X0202200Y0148333D03*
X0218450Y0143333D03*
X0309700Y0138333D03*
X0309700Y0153333D03*
X0309700Y0168333D03*
X0309700Y0183333D03*
X0309700Y0198333D03*
X0309700Y0213333D03*
X0309700Y0228333D03*
X0309700Y0243333D03*
X0309700Y0258333D03*
X0330950Y0293333D03*
X0292200Y0325833D03*
X0319700Y0358333D03*
X0122200Y0155833D03*
X0102200Y0165833D03*
X0092200Y0150833D03*
X0042200Y0123333D03*
X0017200Y0185833D03*
X0309700Y0123333D03*
D28*
X0322200Y0123333D02*
X0307200Y0108333D01*
X0280950Y0108333D01*
X0274710Y0114573D01*
X0274710Y0123333D01*
X0274710Y0138333D01*
X0274710Y0153333D01*
X0274710Y0168333D01*
X0274710Y0183333D01*
X0274710Y0198333D01*
X0274710Y0213333D01*
X0274710Y0228333D01*
X0274710Y0243333D01*
X0274710Y0258333D01*
X0262200Y0258333D01*
X0229700Y0225833D01*
X0208440Y0225833D01*
X0207190Y0213333D02*
X0202200Y0213333D01*
X0187200Y0198333D01*
X0177200Y0198333D01*
X0234450Y0172083D02*
X0234450Y0151083D01*
X0242200Y0143333D01*
X0252450Y0172083D02*
X0252200Y0172333D01*
X0252200Y0185843D01*
X0322200Y0143333D02*
X0322200Y0263333D01*
X0307200Y0278333D01*
X0262200Y0278333D01*
X0252200Y0288333D01*
X0222200Y0288333D01*
X0077200Y0238333D02*
X0077200Y0208333D01*
X0077200Y0168333D02*
X0077200Y0138333D01*
D29*
X0122043Y0078333D02*
X0122200Y0078333D01*
X0137200Y0063333D01*
X0267200Y0063333D01*
X0282043Y0078176D01*
X0282043Y0078333D01*
X0262357Y0078333D02*
X0262357Y0120233D01*
X0262200Y0120390D01*
X0261757Y0133333D02*
X0262200Y0133776D01*
X0261757Y0133333D02*
X0242200Y0133333D01*
X0242200Y0123333D02*
X0242200Y0078491D01*
X0242200Y0123333D02*
X0225940Y0123333D01*
X0218460Y0123333D02*
X0212200Y0123333D01*
X0162200Y0173333D01*
X0147190Y0173333D01*
X0147190Y0184593D01*
X0147200Y0188333D01*
X0207200Y0185843D02*
X0222200Y0185843D01*
X0237200Y0185843D01*
X0252200Y0185843D01*
X0252200Y0213323D02*
X0237200Y0213323D01*
X0222200Y0213323D01*
X0207200Y0213323D01*
X0302190Y0213333D02*
X0309700Y0213333D01*
X0309700Y0198333D02*
X0302190Y0198333D01*
X0302190Y0183333D02*
X0309700Y0183333D01*
X0309700Y0168333D02*
X0302190Y0168333D01*
X0302190Y0153333D02*
X0309700Y0153333D01*
X0309700Y0138333D02*
X0302190Y0138333D01*
X0302190Y0123333D02*
X0309700Y0123333D01*
X0309700Y0228333D02*
X0302190Y0228333D01*
X0302190Y0243333D02*
X0309700Y0243333D01*
X0309700Y0258333D02*
X0302190Y0258333D01*
X0304710Y0358333D02*
X0304710Y0365823D01*
X0297200Y0373333D01*
X0127200Y0373333D01*
X0117200Y0363333D01*
X0117200Y0348333D01*
X0099513Y0330646D01*
X0067200Y0330646D01*
X0029513Y0330646D01*
X0012200Y0313333D01*
X0012200Y0298333D01*
X0014690Y0295843D01*
X0022200Y0295843D01*
X0067200Y0338520D02*
X0067200Y0349593D01*
X0078617Y0349593D01*
X0087357Y0358333D01*
X0067200Y0357073D02*
X0057200Y0357083D01*
X0174700Y0358343D02*
X0174710Y0358333D01*
D30*
X0177200Y0328333D02*
X0162200Y0328333D01*
X0177200Y0328333D02*
X0222200Y0328333D01*
X0252200Y0298333D01*
X0272200Y0298333D01*
X0252200Y0338333D02*
X0252200Y0358333D01*
X0132200Y0358333D02*
X0132200Y0338333D01*
X0062200Y0263333D02*
X0037200Y0263333D01*
X0017200Y0243333D01*
X0017200Y0233333D01*
X0037200Y0213333D01*
X0037200Y0208333D01*
X0037200Y0188333D01*
X0037200Y0168333D01*
X0122200Y0128333D02*
X0122200Y0078333D01*
X0302357Y0078491D02*
X0317200Y0093333D01*
X0327357Y0093333D01*
X0342357Y0078333D01*
X0347043Y0063333D02*
X0337200Y0063333D01*
X0322200Y0078333D01*
X0347043Y0063333D02*
X0362043Y0078333D01*
D31*
X0294700Y0115833D02*
X0282200Y0115833D01*
X0282200Y0122733D01*
X0282790Y0122733D01*
X0282790Y0118281D01*
X0285026Y0118281D01*
X0285560Y0118424D01*
X0286039Y0118700D01*
X0286430Y0119091D01*
X0286706Y0119570D01*
X0286849Y0120104D01*
X0286849Y0122733D01*
X0282790Y0122733D01*
X0282790Y0123933D01*
X0286849Y0123933D01*
X0286849Y0126563D01*
X0286706Y0127097D01*
X0286430Y0127576D01*
X0286039Y0127966D01*
X0285560Y0128243D01*
X0285026Y0128386D01*
X0282790Y0128386D01*
X0282790Y0123933D01*
X0282200Y0123933D01*
X0282200Y0137733D01*
X0282790Y0137733D01*
X0282790Y0133281D01*
X0285026Y0133281D01*
X0285560Y0133424D01*
X0286039Y0133700D01*
X0286430Y0134091D01*
X0286706Y0134570D01*
X0286849Y0135104D01*
X0286849Y0137733D01*
X0282790Y0137733D01*
X0282790Y0138933D01*
X0286849Y0138933D01*
X0286849Y0141563D01*
X0286706Y0142097D01*
X0286430Y0142576D01*
X0286039Y0142966D01*
X0285560Y0143243D01*
X0285026Y0143386D01*
X0282790Y0143386D01*
X0282790Y0138933D01*
X0282200Y0138933D01*
X0282200Y0152733D01*
X0282790Y0152733D01*
X0282790Y0148281D01*
X0285026Y0148281D01*
X0285560Y0148424D01*
X0286039Y0148700D01*
X0286430Y0149091D01*
X0286706Y0149570D01*
X0286849Y0150104D01*
X0286849Y0152733D01*
X0282790Y0152733D01*
X0282790Y0153933D01*
X0286849Y0153933D01*
X0286849Y0156563D01*
X0286706Y0157097D01*
X0286430Y0157576D01*
X0286039Y0157966D01*
X0285560Y0158243D01*
X0285026Y0158386D01*
X0282790Y0158386D01*
X0282790Y0153933D01*
X0282200Y0153933D01*
X0282200Y0167733D01*
X0282790Y0167733D01*
X0282790Y0163281D01*
X0285026Y0163281D01*
X0285560Y0163424D01*
X0286039Y0163700D01*
X0286430Y0164091D01*
X0286706Y0164570D01*
X0286849Y0165104D01*
X0286849Y0167733D01*
X0282790Y0167733D01*
X0282790Y0168933D01*
X0286849Y0168933D01*
X0286849Y0171563D01*
X0286706Y0172097D01*
X0286430Y0172576D01*
X0286039Y0172966D01*
X0285560Y0173243D01*
X0285026Y0173386D01*
X0282790Y0173386D01*
X0282790Y0168933D01*
X0282200Y0168933D01*
X0282200Y0182733D01*
X0282790Y0182733D01*
X0282790Y0178281D01*
X0285026Y0178281D01*
X0285560Y0178424D01*
X0286039Y0178700D01*
X0286430Y0179091D01*
X0286706Y0179570D01*
X0286849Y0180104D01*
X0286849Y0182733D01*
X0282790Y0182733D01*
X0282790Y0183933D01*
X0286849Y0183933D01*
X0286849Y0186563D01*
X0286706Y0187097D01*
X0286430Y0187576D01*
X0286039Y0187966D01*
X0285560Y0188243D01*
X0285026Y0188386D01*
X0282790Y0188386D01*
X0282790Y0183933D01*
X0282200Y0183933D01*
X0282200Y0197733D01*
X0282790Y0197733D01*
X0282790Y0193281D01*
X0285026Y0193281D01*
X0285560Y0193424D01*
X0286039Y0193700D01*
X0286430Y0194091D01*
X0286706Y0194570D01*
X0286849Y0195104D01*
X0286849Y0197733D01*
X0282790Y0197733D01*
X0282790Y0198933D01*
X0286849Y0198933D01*
X0286849Y0201563D01*
X0286706Y0202097D01*
X0286430Y0202576D01*
X0286039Y0202966D01*
X0285560Y0203243D01*
X0285026Y0203386D01*
X0282790Y0203386D01*
X0282790Y0198933D01*
X0282200Y0198933D01*
X0282200Y0212733D01*
X0282790Y0212733D01*
X0282790Y0208281D01*
X0285026Y0208281D01*
X0285560Y0208424D01*
X0286039Y0208700D01*
X0286430Y0209091D01*
X0286706Y0209570D01*
X0286849Y0210104D01*
X0286849Y0212733D01*
X0282790Y0212733D01*
X0282790Y0213933D01*
X0286849Y0213933D01*
X0286849Y0216563D01*
X0286706Y0217097D01*
X0286430Y0217576D01*
X0286039Y0217966D01*
X0285560Y0218243D01*
X0285026Y0218386D01*
X0282790Y0218386D01*
X0282790Y0213933D01*
X0282200Y0213933D01*
X0282200Y0227733D01*
X0282790Y0227733D01*
X0282790Y0223281D01*
X0285026Y0223281D01*
X0285560Y0223424D01*
X0286039Y0223700D01*
X0286430Y0224091D01*
X0286706Y0224570D01*
X0286849Y0225104D01*
X0286849Y0227733D01*
X0282790Y0227733D01*
X0282790Y0228933D01*
X0286849Y0228933D01*
X0286849Y0231563D01*
X0286706Y0232097D01*
X0286430Y0232576D01*
X0286039Y0232966D01*
X0285560Y0233243D01*
X0285026Y0233386D01*
X0282790Y0233386D01*
X0282790Y0228933D01*
X0282200Y0228933D01*
X0282200Y0242733D01*
X0282790Y0242733D01*
X0282790Y0238281D01*
X0285026Y0238281D01*
X0285560Y0238424D01*
X0286039Y0238700D01*
X0286430Y0239091D01*
X0286706Y0239570D01*
X0286849Y0240104D01*
X0286849Y0242733D01*
X0282790Y0242733D01*
X0282790Y0243933D01*
X0286849Y0243933D01*
X0286849Y0246563D01*
X0286706Y0247097D01*
X0286430Y0247576D01*
X0286039Y0247966D01*
X0285560Y0248243D01*
X0285026Y0248386D01*
X0282790Y0248386D01*
X0282790Y0243933D01*
X0282200Y0243933D01*
X0282200Y0257733D01*
X0282790Y0257733D01*
X0282790Y0253281D01*
X0285026Y0253281D01*
X0285560Y0253424D01*
X0286039Y0253700D01*
X0286430Y0254091D01*
X0286706Y0254570D01*
X0286849Y0255104D01*
X0286849Y0257733D01*
X0282790Y0257733D01*
X0282790Y0258933D01*
X0286849Y0258933D01*
X0286849Y0261563D01*
X0286706Y0262097D01*
X0286430Y0262576D01*
X0286039Y0262966D01*
X0285560Y0263243D01*
X0285026Y0263386D01*
X0282790Y0263386D01*
X0282790Y0258933D01*
X0282200Y0258933D01*
X0282200Y0265833D01*
X0294700Y0265833D01*
X0294700Y0258933D01*
X0294110Y0258933D01*
X0294110Y0257733D01*
X0294700Y0257733D01*
X0294700Y0243933D01*
X0294110Y0243933D01*
X0294110Y0242733D01*
X0294700Y0242733D01*
X0294700Y0228933D01*
X0294110Y0228933D01*
X0294110Y0227733D01*
X0294700Y0227733D01*
X0294700Y0213933D01*
X0294110Y0213933D01*
X0294110Y0212733D01*
X0294700Y0212733D01*
X0294700Y0198933D01*
X0294110Y0198933D01*
X0294110Y0197733D01*
X0294700Y0197733D01*
X0294700Y0183933D01*
X0294110Y0183933D01*
X0294110Y0182733D01*
X0294700Y0182733D01*
X0294700Y0168933D01*
X0294110Y0168933D01*
X0294110Y0167733D01*
X0294700Y0167733D01*
X0294700Y0153933D01*
X0294110Y0153933D01*
X0294110Y0152733D01*
X0294700Y0152733D01*
X0294700Y0138933D01*
X0294110Y0138933D01*
X0294110Y0137733D01*
X0294700Y0137733D01*
X0294700Y0123933D01*
X0294110Y0123933D01*
X0294110Y0122733D01*
X0294700Y0122733D01*
X0294700Y0115833D01*
X0294700Y0116854D02*
X0282200Y0116854D01*
X0282200Y0118053D02*
X0294700Y0118053D01*
X0294110Y0118281D02*
X0294110Y0122733D01*
X0290051Y0122733D01*
X0290051Y0120104D01*
X0290194Y0119570D01*
X0290470Y0119091D01*
X0290861Y0118700D01*
X0291340Y0118424D01*
X0291874Y0118281D01*
X0294110Y0118281D01*
X0294110Y0119251D02*
X0294700Y0119251D01*
X0294700Y0120450D02*
X0294110Y0120450D01*
X0294110Y0121648D02*
X0294700Y0121648D01*
X0294110Y0122847D02*
X0282790Y0122847D01*
X0282790Y0124045D02*
X0282200Y0124045D01*
X0282200Y0125244D02*
X0282790Y0125244D01*
X0282790Y0126443D02*
X0282200Y0126443D01*
X0282200Y0127641D02*
X0282790Y0127641D01*
X0282200Y0128840D02*
X0294700Y0128840D01*
X0294110Y0128386D02*
X0291874Y0128386D01*
X0291340Y0128243D01*
X0290861Y0127966D01*
X0290470Y0127576D01*
X0290194Y0127097D01*
X0290051Y0126563D01*
X0290051Y0123933D01*
X0294110Y0123933D01*
X0294110Y0128386D01*
X0294110Y0127641D02*
X0294700Y0127641D01*
X0294700Y0126443D02*
X0294110Y0126443D01*
X0294110Y0125244D02*
X0294700Y0125244D01*
X0294700Y0124045D02*
X0294110Y0124045D01*
X0290051Y0124045D02*
X0286849Y0124045D01*
X0286849Y0125244D02*
X0290051Y0125244D01*
X0290051Y0126443D02*
X0286849Y0126443D01*
X0286364Y0127641D02*
X0290536Y0127641D01*
X0294700Y0130038D02*
X0282200Y0130038D01*
X0282200Y0131237D02*
X0294700Y0131237D01*
X0294700Y0132435D02*
X0282200Y0132435D01*
X0282200Y0133634D02*
X0282790Y0133634D01*
X0282790Y0134832D02*
X0282200Y0134832D01*
X0282200Y0136031D02*
X0282790Y0136031D01*
X0282790Y0137229D02*
X0282200Y0137229D01*
X0282790Y0138428D02*
X0294110Y0138428D01*
X0294110Y0138933D02*
X0290051Y0138933D01*
X0290051Y0141563D01*
X0290194Y0142097D01*
X0290470Y0142576D01*
X0290861Y0142966D01*
X0291340Y0143243D01*
X0291874Y0143386D01*
X0294110Y0143386D01*
X0294110Y0138933D01*
X0294110Y0139626D02*
X0294700Y0139626D01*
X0294700Y0140825D02*
X0294110Y0140825D01*
X0294110Y0142023D02*
X0294700Y0142023D01*
X0294700Y0143222D02*
X0294110Y0143222D01*
X0294700Y0144420D02*
X0282200Y0144420D01*
X0282200Y0143222D02*
X0282790Y0143222D01*
X0282790Y0142023D02*
X0282200Y0142023D01*
X0282200Y0140825D02*
X0282790Y0140825D01*
X0282790Y0139626D02*
X0282200Y0139626D01*
X0286849Y0139626D02*
X0290051Y0139626D01*
X0290051Y0140825D02*
X0286849Y0140825D01*
X0286726Y0142023D02*
X0290174Y0142023D01*
X0291303Y0143222D02*
X0285597Y0143222D01*
X0282200Y0145619D02*
X0294700Y0145619D01*
X0294700Y0146817D02*
X0282200Y0146817D01*
X0282200Y0148016D02*
X0294700Y0148016D01*
X0294110Y0148281D02*
X0294110Y0152733D01*
X0290051Y0152733D01*
X0290051Y0150104D01*
X0290194Y0149570D01*
X0290470Y0149091D01*
X0290861Y0148700D01*
X0291340Y0148424D01*
X0291874Y0148281D01*
X0294110Y0148281D01*
X0294110Y0149214D02*
X0294700Y0149214D01*
X0294700Y0150413D02*
X0294110Y0150413D01*
X0294110Y0151611D02*
X0294700Y0151611D01*
X0294110Y0152810D02*
X0282790Y0152810D01*
X0282790Y0154008D02*
X0282200Y0154008D01*
X0282200Y0155207D02*
X0282790Y0155207D01*
X0282790Y0156405D02*
X0282200Y0156405D01*
X0282200Y0157604D02*
X0282790Y0157604D01*
X0282200Y0158802D02*
X0294700Y0158802D01*
X0294110Y0158386D02*
X0291874Y0158386D01*
X0291340Y0158243D01*
X0290861Y0157966D01*
X0290470Y0157576D01*
X0290194Y0157097D01*
X0290051Y0156563D01*
X0290051Y0153933D01*
X0294110Y0153933D01*
X0294110Y0158386D01*
X0294110Y0157604D02*
X0294700Y0157604D01*
X0294700Y0156405D02*
X0294110Y0156405D01*
X0294110Y0155207D02*
X0294700Y0155207D01*
X0294700Y0154008D02*
X0294110Y0154008D01*
X0290051Y0154008D02*
X0286849Y0154008D01*
X0286849Y0155207D02*
X0290051Y0155207D01*
X0290051Y0156405D02*
X0286849Y0156405D01*
X0286401Y0157604D02*
X0290499Y0157604D01*
X0294700Y0160001D02*
X0282200Y0160001D01*
X0282200Y0161199D02*
X0294700Y0161199D01*
X0294700Y0162398D02*
X0282200Y0162398D01*
X0282200Y0163596D02*
X0282790Y0163596D01*
X0282790Y0164795D02*
X0282200Y0164795D01*
X0282200Y0165993D02*
X0282790Y0165993D01*
X0282790Y0167192D02*
X0282200Y0167192D01*
X0282790Y0168390D02*
X0294110Y0168390D01*
X0294110Y0168933D02*
X0290051Y0168933D01*
X0290051Y0171563D01*
X0290194Y0172097D01*
X0290470Y0172576D01*
X0290861Y0172966D01*
X0291340Y0173243D01*
X0291874Y0173386D01*
X0294110Y0173386D01*
X0294110Y0168933D01*
X0294110Y0169589D02*
X0294700Y0169589D01*
X0294700Y0170787D02*
X0294110Y0170787D01*
X0294110Y0171986D02*
X0294700Y0171986D01*
X0294700Y0173184D02*
X0294110Y0173184D01*
X0294700Y0174383D02*
X0282200Y0174383D01*
X0282200Y0175581D02*
X0294700Y0175581D01*
X0294700Y0176780D02*
X0282200Y0176780D01*
X0282200Y0177979D02*
X0294700Y0177979D01*
X0294110Y0178281D02*
X0294110Y0182733D01*
X0290051Y0182733D01*
X0290051Y0180104D01*
X0290194Y0179570D01*
X0290470Y0179091D01*
X0290861Y0178700D01*
X0291340Y0178424D01*
X0291874Y0178281D01*
X0294110Y0178281D01*
X0294110Y0179177D02*
X0294700Y0179177D01*
X0294700Y0180376D02*
X0294110Y0180376D01*
X0294110Y0181574D02*
X0294700Y0181574D01*
X0294110Y0182773D02*
X0282790Y0182773D01*
X0282790Y0183971D02*
X0282200Y0183971D01*
X0282200Y0185170D02*
X0282790Y0185170D01*
X0282790Y0186368D02*
X0282200Y0186368D01*
X0282200Y0187567D02*
X0282790Y0187567D01*
X0282200Y0188765D02*
X0294700Y0188765D01*
X0294110Y0188386D02*
X0291874Y0188386D01*
X0291340Y0188243D01*
X0290861Y0187966D01*
X0290470Y0187576D01*
X0290194Y0187097D01*
X0290051Y0186563D01*
X0290051Y0183933D01*
X0294110Y0183933D01*
X0294110Y0188386D01*
X0294110Y0187567D02*
X0294700Y0187567D01*
X0294700Y0186368D02*
X0294110Y0186368D01*
X0294110Y0185170D02*
X0294700Y0185170D01*
X0294700Y0183971D02*
X0294110Y0183971D01*
X0290051Y0183971D02*
X0286849Y0183971D01*
X0286849Y0185170D02*
X0290051Y0185170D01*
X0290051Y0186368D02*
X0286849Y0186368D01*
X0286435Y0187567D02*
X0290465Y0187567D01*
X0294700Y0189964D02*
X0282200Y0189964D01*
X0282200Y0191162D02*
X0294700Y0191162D01*
X0294700Y0192361D02*
X0282200Y0192361D01*
X0282200Y0193559D02*
X0282790Y0193559D01*
X0282790Y0194758D02*
X0282200Y0194758D01*
X0282200Y0195956D02*
X0282790Y0195956D01*
X0282790Y0197155D02*
X0282200Y0197155D01*
X0282790Y0198353D02*
X0294110Y0198353D01*
X0294110Y0198933D02*
X0290051Y0198933D01*
X0290051Y0201563D01*
X0290194Y0202097D01*
X0290470Y0202576D01*
X0290861Y0202966D01*
X0291340Y0203243D01*
X0291874Y0203386D01*
X0294110Y0203386D01*
X0294110Y0198933D01*
X0294110Y0199552D02*
X0294700Y0199552D01*
X0294700Y0200750D02*
X0294110Y0200750D01*
X0294110Y0201949D02*
X0294700Y0201949D01*
X0294700Y0203147D02*
X0294110Y0203147D01*
X0294700Y0204346D02*
X0282200Y0204346D01*
X0282200Y0205544D02*
X0294700Y0205544D01*
X0294700Y0206743D02*
X0282200Y0206743D01*
X0282200Y0207941D02*
X0294700Y0207941D01*
X0294110Y0208281D02*
X0294110Y0212733D01*
X0290051Y0212733D01*
X0290051Y0210104D01*
X0290194Y0209570D01*
X0290470Y0209091D01*
X0290861Y0208700D01*
X0291340Y0208424D01*
X0291874Y0208281D01*
X0294110Y0208281D01*
X0294110Y0209140D02*
X0294700Y0209140D01*
X0294700Y0210338D02*
X0294110Y0210338D01*
X0294110Y0211537D02*
X0294700Y0211537D01*
X0294110Y0212735D02*
X0282790Y0212735D01*
X0282790Y0211537D02*
X0282200Y0211537D01*
X0282200Y0210338D02*
X0282790Y0210338D01*
X0282790Y0209140D02*
X0282200Y0209140D01*
X0286458Y0209140D02*
X0290442Y0209140D01*
X0290051Y0210338D02*
X0286849Y0210338D01*
X0286849Y0211537D02*
X0290051Y0211537D01*
X0290051Y0213933D02*
X0294110Y0213933D01*
X0294110Y0218386D01*
X0291874Y0218386D01*
X0291340Y0218243D01*
X0290861Y0217966D01*
X0290470Y0217576D01*
X0290194Y0217097D01*
X0290051Y0216563D01*
X0290051Y0213933D01*
X0290051Y0213934D02*
X0286849Y0213934D01*
X0286849Y0215132D02*
X0290051Y0215132D01*
X0290051Y0216331D02*
X0286849Y0216331D01*
X0286456Y0217529D02*
X0290444Y0217529D01*
X0294110Y0217529D02*
X0294700Y0217529D01*
X0294700Y0216331D02*
X0294110Y0216331D01*
X0294110Y0215132D02*
X0294700Y0215132D01*
X0294700Y0213934D02*
X0294110Y0213934D01*
X0294700Y0218728D02*
X0282200Y0218728D01*
X0282200Y0219926D02*
X0294700Y0219926D01*
X0294700Y0221125D02*
X0282200Y0221125D01*
X0282200Y0222323D02*
X0294700Y0222323D01*
X0294110Y0223281D02*
X0294110Y0227733D01*
X0290051Y0227733D01*
X0290051Y0225104D01*
X0290194Y0224570D01*
X0290470Y0224091D01*
X0290861Y0223700D01*
X0291340Y0223424D01*
X0291874Y0223281D01*
X0294110Y0223281D01*
X0294110Y0223522D02*
X0294700Y0223522D01*
X0294700Y0224720D02*
X0294110Y0224720D01*
X0294110Y0225919D02*
X0294700Y0225919D01*
X0294700Y0227117D02*
X0294110Y0227117D01*
X0294110Y0228316D02*
X0282790Y0228316D01*
X0282790Y0229514D02*
X0282200Y0229514D01*
X0282200Y0230713D02*
X0282790Y0230713D01*
X0282790Y0231912D02*
X0282200Y0231912D01*
X0282200Y0233110D02*
X0282790Y0233110D01*
X0282200Y0234309D02*
X0294700Y0234309D01*
X0294110Y0233386D02*
X0291874Y0233386D01*
X0291340Y0233243D01*
X0290861Y0232966D01*
X0290470Y0232576D01*
X0290194Y0232097D01*
X0290051Y0231563D01*
X0290051Y0228933D01*
X0294110Y0228933D01*
X0294110Y0233386D01*
X0294110Y0233110D02*
X0294700Y0233110D01*
X0294700Y0231912D02*
X0294110Y0231912D01*
X0294110Y0230713D02*
X0294700Y0230713D01*
X0294700Y0229514D02*
X0294110Y0229514D01*
X0290051Y0229514D02*
X0286849Y0229514D01*
X0286849Y0230713D02*
X0290051Y0230713D01*
X0290144Y0231912D02*
X0286756Y0231912D01*
X0285790Y0233110D02*
X0291110Y0233110D01*
X0294700Y0235507D02*
X0282200Y0235507D01*
X0282200Y0236706D02*
X0294700Y0236706D01*
X0294700Y0237904D02*
X0282200Y0237904D01*
X0282200Y0239103D02*
X0282790Y0239103D01*
X0282790Y0240301D02*
X0282200Y0240301D01*
X0282200Y0241500D02*
X0282790Y0241500D01*
X0282790Y0242698D02*
X0282200Y0242698D01*
X0282790Y0243897D02*
X0294110Y0243897D01*
X0294110Y0243933D02*
X0290051Y0243933D01*
X0290051Y0246563D01*
X0290194Y0247097D01*
X0290470Y0247576D01*
X0290861Y0247966D01*
X0291340Y0248243D01*
X0291874Y0248386D01*
X0294110Y0248386D01*
X0294110Y0243933D01*
X0294110Y0245095D02*
X0294700Y0245095D01*
X0294700Y0246294D02*
X0294110Y0246294D01*
X0294110Y0247492D02*
X0294700Y0247492D01*
X0294700Y0248691D02*
X0282200Y0248691D01*
X0282200Y0249889D02*
X0294700Y0249889D01*
X0294700Y0251088D02*
X0282200Y0251088D01*
X0282200Y0252286D02*
X0294700Y0252286D01*
X0294110Y0253281D02*
X0294110Y0257733D01*
X0290051Y0257733D01*
X0290051Y0255104D01*
X0290194Y0254570D01*
X0290470Y0254091D01*
X0290861Y0253700D01*
X0291340Y0253424D01*
X0291874Y0253281D01*
X0294110Y0253281D01*
X0294110Y0253485D02*
X0294700Y0253485D01*
X0294700Y0254683D02*
X0294110Y0254683D01*
X0294110Y0255882D02*
X0294700Y0255882D01*
X0294700Y0257080D02*
X0294110Y0257080D01*
X0294110Y0258279D02*
X0282790Y0258279D01*
X0282790Y0259477D02*
X0282200Y0259477D01*
X0282200Y0260676D02*
X0282790Y0260676D01*
X0282790Y0261874D02*
X0282200Y0261874D01*
X0282200Y0263073D02*
X0282790Y0263073D01*
X0282200Y0264271D02*
X0294700Y0264271D01*
X0294110Y0263386D02*
X0291874Y0263386D01*
X0291340Y0263243D01*
X0290861Y0262966D01*
X0290470Y0262576D01*
X0290194Y0262097D01*
X0290051Y0261563D01*
X0290051Y0258933D01*
X0294110Y0258933D01*
X0294110Y0263386D01*
X0294110Y0263073D02*
X0294700Y0263073D01*
X0294700Y0261874D02*
X0294110Y0261874D01*
X0294110Y0260676D02*
X0294700Y0260676D01*
X0294700Y0259477D02*
X0294110Y0259477D01*
X0290051Y0259477D02*
X0286849Y0259477D01*
X0286849Y0260676D02*
X0290051Y0260676D01*
X0290134Y0261874D02*
X0286766Y0261874D01*
X0285855Y0263073D02*
X0291045Y0263073D01*
X0294700Y0265470D02*
X0282200Y0265470D01*
X0282200Y0257080D02*
X0282790Y0257080D01*
X0282790Y0255882D02*
X0282200Y0255882D01*
X0282200Y0254683D02*
X0282790Y0254683D01*
X0282790Y0253485D02*
X0282200Y0253485D01*
X0285665Y0253485D02*
X0291234Y0253485D01*
X0290164Y0254683D02*
X0286736Y0254683D01*
X0286849Y0255882D02*
X0290051Y0255882D01*
X0290051Y0257080D02*
X0286849Y0257080D01*
X0286478Y0247492D02*
X0290422Y0247492D01*
X0290051Y0246294D02*
X0286849Y0246294D01*
X0286849Y0245095D02*
X0290051Y0245095D01*
X0290051Y0242733D02*
X0290051Y0240104D01*
X0290194Y0239570D01*
X0290470Y0239091D01*
X0290861Y0238700D01*
X0291340Y0238424D01*
X0291874Y0238281D01*
X0294110Y0238281D01*
X0294110Y0242733D01*
X0290051Y0242733D01*
X0290051Y0242698D02*
X0286849Y0242698D01*
X0286849Y0241500D02*
X0290051Y0241500D01*
X0290051Y0240301D02*
X0286849Y0240301D01*
X0286436Y0239103D02*
X0290464Y0239103D01*
X0294110Y0239103D02*
X0294700Y0239103D01*
X0294700Y0240301D02*
X0294110Y0240301D01*
X0294110Y0241500D02*
X0294700Y0241500D01*
X0294700Y0242698D02*
X0294110Y0242698D01*
X0282790Y0245095D02*
X0282200Y0245095D01*
X0282200Y0246294D02*
X0282790Y0246294D01*
X0282790Y0247492D02*
X0282200Y0247492D01*
X0282200Y0227117D02*
X0282790Y0227117D01*
X0282790Y0225919D02*
X0282200Y0225919D01*
X0282200Y0224720D02*
X0282790Y0224720D01*
X0282790Y0223522D02*
X0282200Y0223522D01*
X0285730Y0223522D02*
X0291170Y0223522D01*
X0290154Y0224720D02*
X0286746Y0224720D01*
X0286849Y0225919D02*
X0290051Y0225919D01*
X0290051Y0227117D02*
X0286849Y0227117D01*
X0282790Y0217529D02*
X0282200Y0217529D01*
X0282200Y0216331D02*
X0282790Y0216331D01*
X0282790Y0215132D02*
X0282200Y0215132D01*
X0282200Y0213934D02*
X0282790Y0213934D01*
X0282790Y0203147D02*
X0282200Y0203147D01*
X0282200Y0201949D02*
X0282790Y0201949D01*
X0282790Y0200750D02*
X0282200Y0200750D01*
X0282200Y0199552D02*
X0282790Y0199552D01*
X0286849Y0199552D02*
X0290051Y0199552D01*
X0290051Y0200750D02*
X0286849Y0200750D01*
X0286746Y0201949D02*
X0290154Y0201949D01*
X0291174Y0203147D02*
X0285726Y0203147D01*
X0286849Y0197155D02*
X0290051Y0197155D01*
X0290051Y0197733D02*
X0290051Y0195104D01*
X0290194Y0194570D01*
X0290470Y0194091D01*
X0290861Y0193700D01*
X0291340Y0193424D01*
X0291874Y0193281D01*
X0294110Y0193281D01*
X0294110Y0197733D01*
X0290051Y0197733D01*
X0290051Y0195956D02*
X0286849Y0195956D01*
X0286756Y0194758D02*
X0290144Y0194758D01*
X0291106Y0193559D02*
X0285794Y0193559D01*
X0294110Y0193559D02*
X0294700Y0193559D01*
X0294700Y0194758D02*
X0294110Y0194758D01*
X0294110Y0195956D02*
X0294700Y0195956D01*
X0294700Y0197155D02*
X0294110Y0197155D01*
X0290051Y0181574D02*
X0286849Y0181574D01*
X0286849Y0180376D02*
X0290051Y0180376D01*
X0290421Y0179177D02*
X0286479Y0179177D01*
X0282790Y0179177D02*
X0282200Y0179177D01*
X0282200Y0180376D02*
X0282790Y0180376D01*
X0282790Y0181574D02*
X0282200Y0181574D01*
X0282200Y0173184D02*
X0282790Y0173184D01*
X0282790Y0171986D02*
X0282200Y0171986D01*
X0282200Y0170787D02*
X0282790Y0170787D01*
X0282790Y0169589D02*
X0282200Y0169589D01*
X0286849Y0169589D02*
X0290051Y0169589D01*
X0290051Y0170787D02*
X0286849Y0170787D01*
X0286736Y0171986D02*
X0290164Y0171986D01*
X0291239Y0173184D02*
X0285661Y0173184D01*
X0286849Y0167192D02*
X0290051Y0167192D01*
X0290051Y0167733D02*
X0290051Y0165104D01*
X0290194Y0164570D01*
X0290470Y0164091D01*
X0290861Y0163700D01*
X0291340Y0163424D01*
X0291874Y0163281D01*
X0294110Y0163281D01*
X0294110Y0167733D01*
X0290051Y0167733D01*
X0290051Y0165993D02*
X0286849Y0165993D01*
X0286766Y0164795D02*
X0290134Y0164795D01*
X0291041Y0163596D02*
X0285859Y0163596D01*
X0294110Y0163596D02*
X0294700Y0163596D01*
X0294700Y0164795D02*
X0294110Y0164795D01*
X0294110Y0165993D02*
X0294700Y0165993D01*
X0294700Y0167192D02*
X0294110Y0167192D01*
X0290051Y0151611D02*
X0286849Y0151611D01*
X0286849Y0150413D02*
X0290051Y0150413D01*
X0290399Y0149214D02*
X0286501Y0149214D01*
X0282790Y0149214D02*
X0282200Y0149214D01*
X0282200Y0150413D02*
X0282790Y0150413D01*
X0282790Y0151611D02*
X0282200Y0151611D01*
X0290051Y0137733D02*
X0290051Y0135104D01*
X0290194Y0134570D01*
X0290470Y0134091D01*
X0290861Y0133700D01*
X0291340Y0133424D01*
X0291874Y0133281D01*
X0294110Y0133281D01*
X0294110Y0137733D01*
X0290051Y0137733D01*
X0290051Y0137229D02*
X0286849Y0137229D01*
X0286849Y0136031D02*
X0290051Y0136031D01*
X0290124Y0134832D02*
X0286776Y0134832D01*
X0285923Y0133634D02*
X0290977Y0133634D01*
X0294110Y0133634D02*
X0294700Y0133634D01*
X0294700Y0134832D02*
X0294110Y0134832D01*
X0294110Y0136031D02*
X0294700Y0136031D01*
X0294700Y0137229D02*
X0294110Y0137229D01*
X0290051Y0121648D02*
X0286849Y0121648D01*
X0286849Y0120450D02*
X0290051Y0120450D01*
X0290378Y0119251D02*
X0286522Y0119251D01*
X0282790Y0119251D02*
X0282200Y0119251D01*
X0282200Y0120450D02*
X0282790Y0120450D01*
X0282790Y0121648D02*
X0282200Y0121648D01*
X0259700Y0193333D02*
X0252800Y0193333D01*
X0252800Y0193923D01*
X0257253Y0193923D01*
X0257253Y0196159D01*
X0257110Y0196693D01*
X0256833Y0197172D01*
X0256442Y0197563D01*
X0255963Y0197839D01*
X0255429Y0197983D01*
X0252800Y0197983D01*
X0252800Y0193924D01*
X0251600Y0193924D01*
X0251600Y0197983D01*
X0248971Y0197983D01*
X0248437Y0197839D01*
X0247958Y0197563D01*
X0247567Y0197172D01*
X0247290Y0196693D01*
X0247147Y0196159D01*
X0247147Y0193923D01*
X0251600Y0193923D01*
X0251600Y0193333D01*
X0237800Y0193333D01*
X0237800Y0193923D01*
X0242253Y0193923D01*
X0242253Y0196159D01*
X0242110Y0196693D01*
X0241833Y0197172D01*
X0241442Y0197563D01*
X0240963Y0197839D01*
X0240429Y0197983D01*
X0237800Y0197983D01*
X0237800Y0193924D01*
X0236600Y0193924D01*
X0236600Y0197983D01*
X0233971Y0197983D01*
X0233437Y0197839D01*
X0232958Y0197563D01*
X0232567Y0197172D01*
X0232290Y0196693D01*
X0232147Y0196159D01*
X0232147Y0193923D01*
X0236600Y0193923D01*
X0236600Y0193333D01*
X0222800Y0193333D01*
X0222800Y0193923D01*
X0227253Y0193923D01*
X0227253Y0196159D01*
X0227110Y0196693D01*
X0226833Y0197172D01*
X0226442Y0197563D01*
X0225963Y0197839D01*
X0225429Y0197983D01*
X0222800Y0197983D01*
X0222800Y0193924D01*
X0221600Y0193924D01*
X0221600Y0197983D01*
X0218971Y0197983D01*
X0218437Y0197839D01*
X0217958Y0197563D01*
X0217567Y0197172D01*
X0217290Y0196693D01*
X0217147Y0196159D01*
X0217147Y0193923D01*
X0221600Y0193923D01*
X0221600Y0193333D01*
X0207800Y0193333D01*
X0207800Y0193923D01*
X0212253Y0193923D01*
X0212253Y0196159D01*
X0212110Y0196693D01*
X0211833Y0197172D01*
X0211442Y0197563D01*
X0210963Y0197839D01*
X0210429Y0197983D01*
X0207800Y0197983D01*
X0207800Y0193924D01*
X0206600Y0193924D01*
X0206600Y0197983D01*
X0203971Y0197983D01*
X0203437Y0197839D01*
X0202958Y0197563D01*
X0202567Y0197172D01*
X0202290Y0196693D01*
X0202147Y0196159D01*
X0202147Y0193923D01*
X0206600Y0193923D01*
X0206600Y0193333D01*
X0199700Y0193333D01*
X0199700Y0204328D01*
X0201205Y0205833D01*
X0206600Y0205833D01*
X0206600Y0205243D01*
X0207800Y0205243D01*
X0207800Y0201184D01*
X0210429Y0201184D01*
X0210963Y0201327D01*
X0211442Y0201604D01*
X0211833Y0201995D01*
X0212110Y0202474D01*
X0212253Y0203008D01*
X0212253Y0205243D01*
X0207800Y0205243D01*
X0207800Y0205833D01*
X0221600Y0205833D01*
X0221600Y0205243D01*
X0222800Y0205243D01*
X0222800Y0201184D01*
X0225429Y0201184D01*
X0225963Y0201327D01*
X0226442Y0201604D01*
X0226833Y0201995D01*
X0227110Y0202474D01*
X0227253Y0203008D01*
X0227253Y0205243D01*
X0222800Y0205243D01*
X0222800Y0205833D01*
X0236600Y0205833D01*
X0236600Y0205243D01*
X0237800Y0205243D01*
X0237800Y0201184D01*
X0240429Y0201184D01*
X0240963Y0201327D01*
X0241442Y0201604D01*
X0241833Y0201995D01*
X0242110Y0202474D01*
X0242253Y0203008D01*
X0242253Y0205243D01*
X0237800Y0205243D01*
X0237800Y0205833D01*
X0251600Y0205833D01*
X0251600Y0205243D01*
X0252800Y0205243D01*
X0252800Y0201184D01*
X0255429Y0201184D01*
X0255963Y0201327D01*
X0256442Y0201604D01*
X0256833Y0201995D01*
X0257110Y0202474D01*
X0257253Y0203008D01*
X0257253Y0205243D01*
X0252800Y0205243D01*
X0252800Y0205833D01*
X0259700Y0205833D01*
X0259700Y0193333D01*
X0259700Y0193559D02*
X0252800Y0193559D01*
X0252800Y0194758D02*
X0251600Y0194758D01*
X0251600Y0195956D02*
X0252800Y0195956D01*
X0252800Y0197155D02*
X0251600Y0197155D01*
X0251600Y0193559D02*
X0237800Y0193559D01*
X0237800Y0194758D02*
X0236600Y0194758D01*
X0236600Y0195956D02*
X0237800Y0195956D01*
X0237800Y0197155D02*
X0236600Y0197155D01*
X0236600Y0193559D02*
X0222800Y0193559D01*
X0222800Y0194758D02*
X0221600Y0194758D01*
X0221600Y0195956D02*
X0222800Y0195956D01*
X0222800Y0197155D02*
X0221600Y0197155D01*
X0221600Y0193559D02*
X0207800Y0193559D01*
X0207800Y0194758D02*
X0206600Y0194758D01*
X0206600Y0195956D02*
X0207800Y0195956D01*
X0207800Y0197155D02*
X0206600Y0197155D01*
X0206600Y0193559D02*
X0199700Y0193559D01*
X0199700Y0194758D02*
X0202147Y0194758D01*
X0202147Y0195956D02*
X0199700Y0195956D01*
X0199700Y0197155D02*
X0202557Y0197155D01*
X0199700Y0198353D02*
X0259700Y0198353D01*
X0259700Y0197155D02*
X0256843Y0197155D01*
X0257253Y0195956D02*
X0259700Y0195956D01*
X0259700Y0194758D02*
X0257253Y0194758D01*
X0259700Y0199552D02*
X0199700Y0199552D01*
X0199700Y0200750D02*
X0259700Y0200750D01*
X0259700Y0201949D02*
X0256787Y0201949D01*
X0257253Y0203147D02*
X0259700Y0203147D01*
X0259700Y0204346D02*
X0257253Y0204346D01*
X0259700Y0205544D02*
X0252800Y0205544D01*
X0252800Y0204346D02*
X0251600Y0204346D01*
X0251600Y0205243D02*
X0251600Y0201184D01*
X0248971Y0201184D01*
X0248437Y0201327D01*
X0247958Y0201604D01*
X0247567Y0201995D01*
X0247290Y0202474D01*
X0247147Y0203008D01*
X0247147Y0205243D01*
X0251600Y0205243D01*
X0251600Y0205544D02*
X0237800Y0205544D01*
X0237800Y0204346D02*
X0236600Y0204346D01*
X0236600Y0205243D02*
X0236600Y0201184D01*
X0233971Y0201184D01*
X0233437Y0201327D01*
X0232958Y0201604D01*
X0232567Y0201995D01*
X0232290Y0202474D01*
X0232147Y0203008D01*
X0232147Y0205243D01*
X0236600Y0205243D01*
X0236600Y0205544D02*
X0222800Y0205544D01*
X0222800Y0204346D02*
X0221600Y0204346D01*
X0221600Y0205243D02*
X0221600Y0201184D01*
X0218971Y0201184D01*
X0218437Y0201327D01*
X0217958Y0201604D01*
X0217567Y0201995D01*
X0217290Y0202474D01*
X0217147Y0203008D01*
X0217147Y0205243D01*
X0221600Y0205243D01*
X0221600Y0205544D02*
X0207800Y0205544D01*
X0207800Y0204346D02*
X0206600Y0204346D01*
X0206600Y0205243D02*
X0206600Y0201184D01*
X0203971Y0201184D01*
X0203437Y0201327D01*
X0202958Y0201604D01*
X0202567Y0201995D01*
X0202290Y0202474D01*
X0202147Y0203008D01*
X0202147Y0205243D01*
X0206600Y0205243D01*
X0206600Y0205544D02*
X0200916Y0205544D01*
X0199718Y0204346D02*
X0202147Y0204346D01*
X0202147Y0203147D02*
X0199700Y0203147D01*
X0199700Y0201949D02*
X0202613Y0201949D01*
X0206600Y0201949D02*
X0207800Y0201949D01*
X0207800Y0203147D02*
X0206600Y0203147D01*
X0211787Y0201949D02*
X0217613Y0201949D01*
X0217147Y0203147D02*
X0212253Y0203147D01*
X0212253Y0204346D02*
X0217147Y0204346D01*
X0221600Y0203147D02*
X0222800Y0203147D01*
X0222800Y0201949D02*
X0221600Y0201949D01*
X0217557Y0197155D02*
X0211843Y0197155D01*
X0212253Y0195956D02*
X0217147Y0195956D01*
X0217147Y0194758D02*
X0212253Y0194758D01*
X0226843Y0197155D02*
X0232557Y0197155D01*
X0232147Y0195956D02*
X0227253Y0195956D01*
X0227253Y0194758D02*
X0232147Y0194758D01*
X0232613Y0201949D02*
X0226787Y0201949D01*
X0227253Y0203147D02*
X0232147Y0203147D01*
X0232147Y0204346D02*
X0227253Y0204346D01*
X0236600Y0203147D02*
X0237800Y0203147D01*
X0237800Y0201949D02*
X0236600Y0201949D01*
X0241787Y0201949D02*
X0247613Y0201949D01*
X0247147Y0203147D02*
X0242253Y0203147D01*
X0242253Y0204346D02*
X0247147Y0204346D01*
X0251600Y0203147D02*
X0252800Y0203147D01*
X0252800Y0201949D02*
X0251600Y0201949D01*
X0247557Y0197155D02*
X0241843Y0197155D01*
X0242253Y0195956D02*
X0247147Y0195956D01*
X0247147Y0194758D02*
X0242253Y0194758D01*
D32*
X0302357Y0078491D02*
X0302357Y0078333D01*
X0322043Y0078333D02*
X0322200Y0078333D01*
M02*
